<svg width="12" height="8" viewBox="0 0 12 8" fill="none" xmlns="http://www.w3.org/2000/svg">
<g clip-path="url(#clip0_73_14)">
<path d="M7.57679 6.51719L6.51963 7.57435C6.37864 7.71217 6.18966 7.78859 5.99251 7.78636C5.79536 7.78413 5.60613 7.70371 5.46829 7.56273L4.42855 6.523L0.217356 2.3118C0.147749 2.24417 0.0925008 2.16305 0.0547161 2.07365C0.0169314 1.98426 -0.00336933 1.88609 -0.00336933 1.78903C-0.00336933 1.69198 0.0169314 1.59671 0.0547161 1.50732C0.0925008 1.41793 0.147749 1.3368 0.217356 1.26917L1.27451 0.209109C1.41349 0.0728808 1.59977 -0.0029031 1.79438 -0.0029031C1.98899 -0.0029031 2.17526 0.0728808 2.31424 0.209109L6.00412 3.89754L9.68094 0.220726C9.74929 0.150031 9.83168 0.0940861 9.92199 0.0551824C10.0123 0.0162787 10.1097 -0.004701 10.2081 -0.00580738C10.3064 -0.00691376 10.403 0.00960786 10.4941 0.0464696C10.5853 0.0833313 10.6682 0.13997 10.7381 0.209109L11.7793 1.24884C11.9203 1.39042 12 1.5834 12 1.78323C12 1.98305 11.9203 2.17313 11.7793 2.31471L7.57679 6.51719Z" fill="#262626"/>
</g>
<defs>
<clipPath id="clip0_73_14">
<rect width="12" height="7.78587" fill="white"/>
</clipPath>
</defs>
</svg>
