<svg width="12" height="8" viewBox="0 0 12 8" fill="none" xmlns="http://www.w3.org/2000/svg">
<path d="M4.42321 1.26894L5.48037 0.211782C5.62136 0.0739644 5.81034 -0.00246079 6.00749 -0.000229933C6.20465 0.00200092 6.39387 0.0824263 6.53171 0.223399L7.57145 1.26313L11.7826 5.47433C11.8523 5.54196 11.9075 5.62308 11.9453 5.71248C11.9831 5.80187 12.0034 5.90005 12.0034 5.9971C12.0034 6.09415 11.9831 6.18942 11.9453 6.27881C11.9075 6.36821 11.8523 6.44933 11.7826 6.51696L10.7255 7.57702C10.5865 7.71325 10.4002 7.78904 10.2056 7.78904C10.011 7.78904 9.82474 7.71325 9.68576 7.57702L5.99588 3.88859L2.31906 7.56541C2.25071 7.6361 2.16832 7.69205 2.07801 7.73095C1.9877 7.76985 1.89027 7.79083 1.79194 7.79194C1.69361 7.79305 1.59703 7.77652 1.50587 7.73966C1.4147 7.7028 1.33183 7.64616 1.26191 7.57702L0.220725 6.53729C0.0797067 6.39572 0 6.20273 0 6.00291C0 5.80308 0.0797067 5.613 0.220725 5.47142L4.42321 1.26894Z" fill="#262626"/>
</svg>
