<svg width="373" height="280" viewBox="0 0 373 280" fill="none" xmlns="http://www.w3.org/2000/svg">
<rect width="373" height="280" fill="#F5FAFF"/>
<g opacity="0.29">
<path d="M124.379 132.79V133.09L124.38 133.09L124.379 132.79ZM123.94 132.975L123.727 132.763L123.725 132.765L123.94 132.975ZM132.417 146.43L132.213 146.211L132.211 146.212L132.417 146.43ZM131.537 140.116L131.375 139.864L130.94 140.143L131.398 140.382L131.537 140.116ZM132.898 138.678L132.637 138.529L132.636 138.532L132.898 138.678ZM129.1 132.769V132.469L129.098 132.469L129.1 132.769ZM124.994 134.031L124.992 133.731L124.694 133.732V134.031H124.994ZM129.1 134.01V133.71L129.098 133.71L129.1 134.01ZM129.1 139.599V139.299L129.099 139.299L129.1 139.599ZM124.994 139.61H124.694V139.91L124.994 139.91L124.994 139.61ZM124.994 140.841V140.541H124.694V140.841H124.994ZM131.567 141.638L131.367 141.862L131.369 141.863L131.567 141.638ZM124.994 146.378H124.694V146.678H124.994V146.378ZM124.379 132.49C124.126 132.49 123.905 132.585 123.727 132.763L124.152 133.187C124.221 133.118 124.29 133.09 124.379 133.09V132.49ZM123.725 132.765C123.553 132.941 123.466 133.162 123.466 133.41H124.066C124.066 133.314 124.095 133.245 124.154 133.185L123.725 132.765ZM123.466 133.41V146.999H124.066V133.41H123.466ZM123.466 146.999C123.466 147.252 123.56 147.476 123.741 147.65L124.157 147.218C124.095 147.158 124.066 147.092 124.066 146.999H123.466ZM123.73 147.64C123.903 147.823 124.124 147.92 124.379 147.92V147.32C124.292 147.32 124.228 147.293 124.167 147.228L123.73 147.64ZM124.379 147.92H129.367V147.32H124.379V147.92ZM129.367 147.92C130.635 147.92 131.726 147.497 132.624 146.648L132.211 146.212C131.429 146.952 130.487 147.32 129.367 147.32V147.92ZM132.622 146.65C133.525 145.809 133.987 144.782 133.987 143.584H133.387C133.387 144.608 133.001 145.478 132.213 146.211L132.622 146.65ZM133.987 143.584C133.987 142.79 133.777 142.055 133.358 141.386L132.85 141.704C133.208 142.277 133.387 142.902 133.387 143.584H133.987ZM133.358 141.385C132.945 140.732 132.383 140.219 131.676 139.85L131.398 140.382C132.016 140.704 132.497 141.145 132.85 141.705L133.358 141.385ZM131.699 140.369C132.32 139.97 132.808 139.455 133.16 138.824L132.636 138.532C132.333 139.074 131.914 139.517 131.375 139.864L131.699 140.369ZM133.158 138.827C133.527 138.181 133.71 137.485 133.71 136.743H133.11C133.11 137.381 132.954 137.975 132.637 138.529L133.158 138.827ZM133.71 136.743C133.71 135.546 133.258 134.525 132.366 133.697L131.957 134.137C132.73 134.854 133.11 135.718 133.11 136.743H133.71ZM132.365 133.696C131.473 132.876 130.378 132.469 129.1 132.469V133.069C130.239 133.069 131.185 133.427 131.958 134.138L132.365 133.696ZM129.098 132.469L124.378 132.49L124.38 133.09L129.101 133.069L129.098 132.469ZM124.995 134.331L129.101 134.31L129.098 133.71L124.992 133.731L124.995 134.331ZM129.1 134.31C129.901 134.31 130.559 134.55 131.092 135.022L131.49 134.572C130.836 133.994 130.032 133.71 129.1 133.71V134.31ZM131.091 135.021C131.624 135.498 131.882 136.066 131.882 136.743H132.482C132.482 135.887 132.145 135.159 131.491 134.574L131.091 135.021ZM131.882 136.743C131.882 137.442 131.619 138.037 131.076 138.542L131.485 138.981C132.144 138.368 132.482 137.617 132.482 136.743H131.882ZM131.076 138.542C130.534 139.046 129.881 139.299 129.1 139.299V139.899C130.025 139.899 130.827 139.593 131.485 138.981L131.076 138.542ZM129.099 139.299L124.993 139.31L124.994 139.91L129.1 139.899L129.099 139.299ZM125.294 139.61V134.031H124.694V139.61H125.294ZM124.994 141.141H129.1V140.541H124.994V141.141ZM129.1 141.141H129.304V140.541H129.1V141.141ZM129.304 141.141H129.387V140.541H129.304V141.141ZM129.387 141.141C130.179 141.141 130.833 141.384 131.367 141.862L131.767 141.415C131.114 140.83 130.314 140.541 129.387 140.541V141.141ZM131.369 141.863C131.9 142.332 132.159 142.9 132.159 143.584H132.759C132.759 142.723 132.423 141.992 131.766 141.413L131.369 141.863ZM132.159 143.584C132.159 144.268 131.897 144.847 131.356 145.339L131.759 145.783C132.418 145.184 132.759 144.447 132.759 143.584H132.159ZM131.357 145.338C130.807 145.831 130.149 146.078 129.367 146.078V146.678C130.289 146.678 131.092 146.381 131.758 145.784L131.357 145.338ZM129.367 146.078H124.994V146.678H129.367V146.078ZM125.294 146.378V140.841H124.694V146.378H125.294Z" fill="#222426"/>
<mask id="mask0_5_71" style="mask-type:luminance" maskUnits="userSpaceOnUse" x="123" y="132" width="11" height="16">
<path fill-rule="evenodd" clip-rule="evenodd" d="M124.379 132.79C124.208 132.79 124.063 132.851 123.94 132.975V132.975C123.824 133.093 123.766 133.238 123.766 133.41V133.41V146.999C123.766 147.172 123.827 147.317 123.949 147.434V147.434C124.065 147.558 124.208 147.62 124.379 147.62V147.62H129.367C130.561 147.62 131.578 147.224 132.417 146.43V146.43C133.263 145.644 133.687 144.695 133.687 143.584V143.584C133.687 142.846 133.493 142.166 133.104 141.545V141.545C132.721 140.938 132.199 140.462 131.537 140.116V140.116C132.117 139.744 132.571 139.264 132.898 138.678V138.678C133.24 138.078 133.41 137.433 133.41 136.743V136.743C133.41 135.632 132.994 134.69 132.161 133.917V133.917C131.329 133.152 130.308 132.769 129.1 132.769V132.769L124.379 132.79ZM124.994 134.031L129.1 134.01C129.966 134.01 130.697 134.272 131.291 134.797V134.797C131.885 135.328 132.182 135.977 132.182 136.743V136.743C132.182 137.53 131.881 138.202 131.28 138.761V138.761C130.68 139.32 129.953 139.599 129.1 139.599V139.599L124.994 139.61V134.031ZM124.994 140.841H129.1H129.304H129.387C130.246 140.841 130.973 141.107 131.567 141.638V141.638C132.161 142.162 132.459 142.811 132.459 143.584V143.584C132.459 144.357 132.158 145.016 131.557 145.561V145.561C130.949 146.106 130.219 146.378 129.367 146.378V146.378H124.994V140.841Z" fill="white"/>
<path d="M124.379 132.79V133.09L124.38 133.09L124.379 132.79ZM123.94 132.975L123.727 132.763L123.725 132.765L123.94 132.975ZM132.417 146.43L132.213 146.211L132.211 146.212L132.417 146.43ZM131.537 140.116L131.375 139.864L130.94 140.143L131.398 140.382L131.537 140.116ZM132.898 138.678L132.637 138.529L132.636 138.532L132.898 138.678ZM129.1 132.769V132.469L129.098 132.469L129.1 132.769ZM124.994 134.031L124.992 133.731L124.694 133.732V134.031H124.994ZM129.1 134.01V133.71L129.098 133.71L129.1 134.01ZM129.1 139.599V139.299L129.099 139.299L129.1 139.599ZM124.994 139.61H124.694V139.91L124.994 139.91L124.994 139.61ZM124.994 140.841V140.541H124.694V140.841H124.994ZM131.567 141.638L131.367 141.862L131.369 141.863L131.567 141.638ZM124.994 146.378H124.694V146.678H124.994V146.378ZM124.379 132.49C124.126 132.49 123.905 132.585 123.727 132.763L124.152 133.187C124.221 133.118 124.29 133.09 124.379 133.09V132.49ZM123.725 132.765C123.553 132.941 123.466 133.162 123.466 133.41H124.066C124.066 133.314 124.095 133.245 124.154 133.185L123.725 132.765ZM123.466 133.41V146.999H124.066V133.41H123.466ZM123.466 146.999C123.466 147.252 123.56 147.476 123.741 147.65L124.157 147.218C124.095 147.158 124.066 147.092 124.066 146.999H123.466ZM123.73 147.64C123.903 147.823 124.124 147.92 124.379 147.92V147.32C124.292 147.32 124.228 147.293 124.167 147.228L123.73 147.64ZM124.379 147.92H129.367V147.32H124.379V147.92ZM129.367 147.92C130.635 147.92 131.726 147.497 132.624 146.648L132.211 146.212C131.429 146.952 130.487 147.32 129.367 147.32V147.92ZM132.622 146.65C133.525 145.809 133.987 144.782 133.987 143.584H133.387C133.387 144.608 133.001 145.478 132.213 146.211L132.622 146.65ZM133.987 143.584C133.987 142.79 133.777 142.055 133.358 141.386L132.85 141.704C133.208 142.277 133.387 142.902 133.387 143.584H133.987ZM133.358 141.385C132.945 140.732 132.383 140.219 131.676 139.85L131.398 140.382C132.016 140.704 132.497 141.145 132.85 141.705L133.358 141.385ZM131.699 140.369C132.32 139.97 132.808 139.455 133.16 138.824L132.636 138.532C132.333 139.074 131.914 139.517 131.375 139.864L131.699 140.369ZM133.158 138.827C133.527 138.181 133.71 137.485 133.71 136.743H133.11C133.11 137.381 132.954 137.975 132.637 138.529L133.158 138.827ZM133.71 136.743C133.71 135.546 133.258 134.525 132.366 133.697L131.957 134.137C132.73 134.854 133.11 135.718 133.11 136.743H133.71ZM132.365 133.696C131.473 132.876 130.378 132.469 129.1 132.469V133.069C130.239 133.069 131.185 133.427 131.958 134.138L132.365 133.696ZM129.098 132.469L124.378 132.49L124.38 133.09L129.101 133.069L129.098 132.469ZM124.995 134.331L129.101 134.31L129.098 133.71L124.992 133.731L124.995 134.331ZM129.1 134.31C129.901 134.31 130.559 134.55 131.092 135.022L131.49 134.572C130.836 133.994 130.032 133.71 129.1 133.71V134.31ZM131.091 135.021C131.624 135.498 131.882 136.066 131.882 136.743H132.482C132.482 135.887 132.145 135.159 131.491 134.574L131.091 135.021ZM131.882 136.743C131.882 137.442 131.619 138.037 131.076 138.542L131.485 138.981C132.144 138.368 132.482 137.617 132.482 136.743H131.882ZM131.076 138.542C130.534 139.046 129.881 139.299 129.1 139.299V139.899C130.025 139.899 130.827 139.593 131.485 138.981L131.076 138.542ZM129.099 139.299L124.993 139.31L124.994 139.91L129.1 139.899L129.099 139.299ZM125.294 139.61V134.031H124.694V139.61H125.294ZM124.994 141.141H129.1V140.541H124.994V141.141ZM129.1 141.141H129.304V140.541H129.1V141.141ZM129.304 141.141H129.387V140.541H129.304V141.141ZM129.387 141.141C130.179 141.141 130.833 141.384 131.367 141.862L131.767 141.415C131.114 140.83 130.314 140.541 129.387 140.541V141.141ZM131.369 141.863C131.9 142.332 132.159 142.9 132.159 143.584H132.759C132.759 142.723 132.423 141.992 131.766 141.413L131.369 141.863ZM132.159 143.584C132.159 144.268 131.897 144.847 131.356 145.339L131.759 145.783C132.418 145.184 132.759 144.447 132.759 143.584H132.159ZM131.357 145.338C130.807 145.831 130.149 146.078 129.367 146.078V146.678C130.289 146.678 131.092 146.381 131.758 145.784L131.357 145.338ZM129.367 146.078H124.994V146.678H129.367V146.078ZM125.294 146.378V140.841H124.694V146.378H125.294Z" fill="white"/>
</mask>
<g mask="url(#mask0_5_71)">
<path fill-rule="evenodd" clip-rule="evenodd" d="M120.062 151.365H137.393V129.024H120.062V151.365Z" fill="#222426" stroke="#222426" stroke-width="0.6"/>
</g>
<path d="M142.713 132.8V132.5H142.687L142.661 132.505L142.713 132.8ZM142.325 133.058L142.114 132.845L142.078 132.881L142.055 132.927L142.325 133.058ZM138.127 143.284L137.849 143.17L137.827 143.225V143.284H138.127ZM138.127 143.294L138.404 143.408L138.427 143.353V143.294H138.127ZM136.704 146.762L136.979 146.882L136.981 146.876L136.704 146.762ZM137.83 147.238L137.552 147.123L137.551 147.127L137.83 147.238ZM139.1 144.154V143.854H138.899L138.822 144.04L139.1 144.154ZM146.574 144.154L146.852 144.04L146.775 143.854H146.574V144.154ZM147.844 147.238L148.122 147.125L148.121 147.124L147.844 147.238ZM148.643 147.569L148.534 147.289L148.524 147.293L148.515 147.298L148.643 147.569ZM148.971 147.238L148.695 147.118L148.691 147.129L148.971 147.238ZM148.971 146.762L148.693 146.876L148.696 146.882L148.971 146.762ZM147.548 143.294H147.248V143.353L147.27 143.408L147.548 143.294ZM147.548 143.284H147.848V143.225L147.825 143.17L147.548 143.284ZM143.401 133.172L143.679 133.059L143.678 133.057L143.401 133.172ZM143.308 133.017L143.064 133.193L143.072 133.202L143.308 133.017ZM143.175 132.893L143.357 132.654L143.348 132.648L143.175 132.893ZM142.899 132.8L142.843 133.095L142.871 133.1H142.899V132.8ZM142.837 135.025L143.115 134.911L142.837 134.234L142.559 134.911L142.837 135.025ZM146.073 142.912V143.212H146.52L146.351 142.798L146.073 142.912ZM139.603 142.912L139.325 142.798L139.156 143.212H139.603V142.912ZM142.766 132.5H142.713V133.1H142.766V132.5ZM142.661 132.505C142.536 132.527 142.425 132.579 142.327 132.647L142.671 133.138C142.71 133.111 142.741 133.1 142.766 133.095L142.661 132.505ZM142.702 133.113C142.704 133.112 142.707 133.109 142.71 133.106C142.711 133.105 142.72 133.097 142.73 133.085C142.732 133.083 142.75 133.062 142.766 133.032C142.77 133.023 142.799 132.972 142.801 132.899C142.802 132.856 142.794 132.789 142.75 132.723C142.704 132.655 142.64 132.619 142.587 132.603C142.502 132.578 142.432 132.599 142.423 132.601C142.401 132.607 142.384 132.614 142.377 132.618C142.361 132.625 142.35 132.632 142.346 132.634C142.337 132.639 142.33 132.644 142.328 132.645C142.325 132.648 142.322 132.649 142.321 132.651C142.317 132.653 142.314 132.656 142.312 132.657C142.302 132.665 142.289 132.676 142.272 132.689L142.646 133.158C142.663 133.145 142.673 133.137 142.677 133.134C142.687 133.126 142.673 133.138 142.655 133.148C142.652 133.15 142.641 133.157 142.625 133.164C142.618 133.167 142.601 133.174 142.579 133.18C142.57 133.183 142.5 133.203 142.415 133.178C142.362 133.162 142.298 133.127 142.252 133.058C142.208 132.992 142.2 132.925 142.201 132.883C142.203 132.81 142.232 132.758 142.236 132.75C142.252 132.719 142.27 132.699 142.272 132.697C142.282 132.686 142.29 132.678 142.291 132.677C142.294 132.674 142.296 132.672 142.296 132.672L142.702 133.113ZM142.279 132.683C142.249 132.706 142.217 132.731 142.194 132.754L142.621 133.176C142.618 133.179 142.616 133.181 142.615 133.182C142.614 133.183 142.614 133.183 142.614 133.183C142.613 133.183 142.614 133.183 142.616 133.181C142.62 133.178 142.628 133.172 142.638 133.164L142.279 132.683ZM142.205 132.744C142.189 132.759 142.177 132.772 142.172 132.778C142.166 132.786 142.16 132.793 142.156 132.799C142.149 132.808 142.136 132.824 142.129 132.834L142.604 133.2C142.609 133.193 142.615 133.186 142.619 133.181C142.623 133.175 142.626 133.171 142.628 133.168C142.631 133.165 142.631 133.165 142.63 133.166C142.629 133.167 142.627 133.169 142.625 133.172C142.622 133.175 142.617 133.18 142.611 133.186L142.205 132.744ZM142.155 132.804L142.114 132.845L142.537 133.271L142.578 133.23L142.155 132.804ZM142.055 132.927C142.033 132.974 142.012 133.021 141.994 133.066L142.555 133.279C142.564 133.256 142.577 133.226 142.595 133.189L142.055 132.927ZM141.997 133.059L137.849 143.17L138.404 143.398L142.552 133.286L141.997 133.059ZM137.827 143.284V143.294H138.427V143.284H137.827ZM137.849 143.18L136.426 146.648L136.981 146.876L138.404 143.408L137.849 143.18ZM136.429 146.642C136.327 146.876 136.327 147.122 136.429 147.357L136.979 147.119C136.943 147.035 136.944 146.963 136.979 146.882L136.429 146.642ZM136.425 147.347C136.517 147.582 136.687 147.755 136.923 147.848L137.142 147.289C137.064 147.259 137.016 147.211 136.983 147.128L136.425 147.347ZM136.903 147.839C136.942 147.858 136.971 147.871 136.991 147.88C137.001 147.885 137.008 147.889 137.014 147.891C137.016 147.892 137.019 147.893 137.02 147.894C137.021 147.894 137.021 147.894 137.022 147.895C137.022 147.895 137.022 147.895 137.022 147.895C137.023 147.895 137.023 147.895 137.023 147.895C137.023 147.895 137.023 147.895 137.023 147.895C137.023 147.895 137.023 147.895 137.023 147.895C137.023 147.895 137.023 147.895 137.023 147.895C137.023 147.895 137.023 147.895 137.144 147.621C137.266 147.347 137.266 147.347 137.266 147.347C137.266 147.347 137.266 147.347 137.266 147.347C137.266 147.347 137.266 147.347 137.266 147.347C137.266 147.347 137.266 147.347 137.266 147.347C137.266 147.347 137.266 147.347 137.266 147.347C137.266 147.347 137.266 147.347 137.266 147.347C137.266 147.347 137.266 147.346 137.265 147.346C137.264 147.346 137.263 147.345 137.261 147.344C137.257 147.342 137.251 147.34 137.242 147.336C137.225 147.328 137.198 147.315 137.162 147.298L136.903 147.839ZM137.144 147.921H137.268V147.321H137.144V147.921ZM137.268 147.921C137.452 147.921 137.629 147.877 137.782 147.773C137.935 147.669 138.04 147.52 138.108 147.349L137.551 147.127C137.518 147.21 137.479 147.253 137.444 147.277C137.409 147.301 137.356 147.321 137.268 147.321V147.921ZM138.107 147.352L139.377 144.268L138.822 144.04L137.552 147.123L138.107 147.352ZM139.1 144.454H146.574V143.854H139.1V144.454ZM146.297 144.268L147.566 147.352L148.121 147.124L146.852 144.04L146.297 144.268ZM147.566 147.351C147.635 147.521 147.741 147.669 147.893 147.773C148.046 147.877 148.223 147.921 148.408 147.921V147.321C148.319 147.321 148.266 147.301 148.231 147.277C148.195 147.253 148.156 147.209 148.122 147.125L147.566 147.351ZM148.408 147.921C148.532 147.921 148.655 147.895 148.772 147.84L148.515 147.298C148.482 147.313 148.448 147.321 148.408 147.321V147.921ZM148.753 147.848C148.99 147.755 149.159 147.581 149.25 147.346L148.691 147.129C148.659 147.212 148.611 147.259 148.534 147.289L148.753 147.848ZM149.246 147.357C149.348 147.122 149.348 146.876 149.246 146.642L148.696 146.882C148.731 146.963 148.731 147.035 148.695 147.119L149.246 147.357ZM149.248 146.648L147.825 143.18L147.27 143.408L148.693 146.876L149.248 146.648ZM147.848 143.294V143.284H147.248V143.294H147.848ZM147.825 143.17L143.679 133.059L143.124 133.286L147.27 143.398L147.825 143.17ZM143.678 133.057C143.662 133.018 143.642 132.973 143.617 132.923L143.081 133.193C143.098 133.227 143.112 133.258 143.124 133.288L143.678 133.057ZM143.049 133.058C143.049 133.037 143.05 132.892 143.19 132.805C143.325 132.721 143.453 132.779 143.468 132.786C143.502 132.801 143.525 132.819 143.531 132.824C143.54 132.831 143.547 132.837 143.549 132.84C143.557 132.847 143.556 132.848 143.544 132.832L143.072 133.202C143.086 133.221 143.106 133.246 143.128 133.267C143.129 133.268 143.167 133.308 143.224 133.334C143.242 133.341 143.37 133.399 143.506 133.315C143.647 133.227 143.649 133.08 143.649 133.058H143.049ZM143.551 132.841C143.54 132.826 143.529 132.812 143.519 132.799C143.512 132.79 143.494 132.766 143.47 132.744L143.064 133.186C143.058 133.181 143.054 133.176 143.051 133.174C143.049 133.171 143.047 133.169 143.046 133.168C143.045 133.166 143.045 133.166 143.046 133.168C143.05 133.173 143.056 133.18 143.065 133.193L143.551 132.841ZM143.267 132.665C143.316 132.665 143.354 132.678 143.372 132.685C143.392 132.692 143.406 132.701 143.414 132.705C143.429 132.714 143.439 132.722 143.439 132.723C143.441 132.724 143.437 132.721 143.424 132.708L143.007 133.14C143.022 133.154 143.041 133.172 143.06 133.187C143.069 133.195 143.085 133.208 143.106 133.22C143.115 133.225 143.178 133.265 143.267 133.265V132.665ZM143.398 132.686L143.357 132.654L142.992 133.131L143.033 133.162L143.398 132.686ZM143.348 132.648C143.244 132.575 143.126 132.525 142.997 132.504L142.902 133.096C142.937 133.102 142.97 133.115 143.002 133.138L143.348 132.648ZM142.95 132.5H142.899V133.1H142.95V132.5ZM142.955 132.505C142.937 132.502 142.92 132.499 142.905 132.496C142.899 132.495 142.868 132.49 142.837 132.49V133.09C142.832 133.09 142.828 133.09 142.824 133.09C142.821 133.09 142.819 133.089 142.817 133.089C142.813 133.089 142.81 133.089 142.809 133.089C142.807 133.088 142.807 133.088 142.81 133.089C142.816 133.09 142.827 133.092 142.843 133.095L142.955 132.505ZM142.837 132.49C142.809 132.49 142.778 132.495 142.773 132.495C142.758 132.497 142.74 132.5 142.718 132.504L142.813 133.096C142.833 133.093 142.847 133.091 142.856 133.09C142.86 133.089 142.862 133.089 142.862 133.089C142.862 133.089 142.86 133.089 142.858 133.089C142.856 133.089 142.854 133.09 142.851 133.09C142.848 133.09 142.843 133.09 142.837 133.09V132.49ZM142.559 135.139L145.796 143.026L146.351 142.798L143.115 134.911L142.559 135.139ZM146.073 142.612H139.603V143.212H146.073V142.612ZM139.88 143.026L143.115 135.139L142.559 134.911L139.325 142.798L139.88 143.026Z" fill="#222426"/>
<mask id="mask1_5_71" style="mask-type:luminance" maskUnits="userSpaceOnUse" x="136" y="132" width="14" height="16">
<path fill-rule="evenodd" clip-rule="evenodd" d="M142.766 132.8H142.713C142.639 132.813 142.567 132.845 142.499 132.893V132.893C142.506 132.886 142.493 132.897 142.459 132.924V132.924C142.431 132.944 142.414 132.959 142.408 132.965V132.965C142.4 132.972 142.387 132.99 142.366 133.017V133.017L142.325 133.058C142.305 133.1 142.288 133.138 142.275 133.172V133.172L138.127 143.284V143.294L136.704 146.762C136.635 146.919 136.635 147.079 136.704 147.238V147.238C136.766 147.397 136.875 147.507 137.032 147.569V147.569C137.107 147.604 137.144 147.621 137.144 147.621V147.621H137.268C137.54 147.621 137.728 147.492 137.83 147.238V147.238L139.1 144.154H146.574L147.844 147.238C147.947 147.492 148.134 147.621 148.408 147.621V147.621C148.49 147.621 148.568 147.604 148.643 147.569V147.569C148.801 147.507 148.909 147.397 148.971 147.238V147.238C149.039 147.079 149.039 146.919 148.971 146.762V146.762L147.548 143.294V143.284L143.401 133.172C143.387 133.138 143.37 133.1 143.349 133.058V133.058C143.349 133.065 143.335 133.052 143.308 133.017V133.017C143.288 132.99 143.274 132.972 143.267 132.965V132.965C143.26 132.965 143.244 132.951 143.215 132.924V132.924L143.175 132.893C143.107 132.845 143.031 132.813 142.95 132.8V132.8H142.899C142.864 132.793 142.844 132.79 142.837 132.79V132.79C142.831 132.79 142.807 132.793 142.766 132.8V132.8ZM142.837 135.025L146.073 142.912H139.603L142.837 135.025Z" fill="white"/>
<path d="M142.713 132.8V132.5H142.687L142.661 132.505L142.713 132.8ZM142.325 133.058L142.114 132.845L142.078 132.881L142.055 132.927L142.325 133.058ZM138.127 143.284L137.849 143.17L137.827 143.225V143.284H138.127ZM138.127 143.294L138.404 143.408L138.427 143.353V143.294H138.127ZM136.704 146.762L136.979 146.882L136.981 146.876L136.704 146.762ZM137.83 147.238L137.552 147.123L137.551 147.127L137.83 147.238ZM139.1 144.154V143.854H138.899L138.822 144.04L139.1 144.154ZM146.574 144.154L146.852 144.04L146.775 143.854H146.574V144.154ZM147.844 147.238L148.122 147.125L148.121 147.124L147.844 147.238ZM148.643 147.569L148.534 147.289L148.524 147.293L148.515 147.298L148.643 147.569ZM148.971 147.238L148.695 147.118L148.691 147.129L148.971 147.238ZM148.971 146.762L148.693 146.876L148.696 146.882L148.971 146.762ZM147.548 143.294H147.248V143.353L147.27 143.408L147.548 143.294ZM147.548 143.284H147.848V143.225L147.825 143.17L147.548 143.284ZM143.401 133.172L143.679 133.059L143.678 133.057L143.401 133.172ZM143.308 133.017L143.064 133.193L143.072 133.202L143.308 133.017ZM143.175 132.893L143.357 132.654L143.348 132.648L143.175 132.893ZM142.899 132.8L142.843 133.095L142.871 133.1H142.899V132.8ZM142.837 135.025L143.115 134.911L142.837 134.234L142.559 134.911L142.837 135.025ZM146.073 142.912V143.212H146.52L146.351 142.798L146.073 142.912ZM139.603 142.912L139.325 142.798L139.156 143.212H139.603V142.912ZM142.766 132.5H142.713V133.1H142.766V132.5ZM142.661 132.505C142.536 132.527 142.425 132.579 142.327 132.647L142.671 133.138C142.71 133.111 142.741 133.1 142.766 133.095L142.661 132.505ZM142.702 133.113C142.704 133.112 142.707 133.109 142.71 133.106C142.711 133.105 142.72 133.097 142.73 133.085C142.732 133.083 142.75 133.062 142.766 133.032C142.77 133.023 142.799 132.972 142.801 132.899C142.802 132.856 142.794 132.789 142.75 132.723C142.704 132.655 142.64 132.619 142.587 132.603C142.502 132.578 142.432 132.599 142.423 132.601C142.401 132.607 142.384 132.614 142.377 132.618C142.361 132.625 142.35 132.632 142.346 132.634C142.337 132.639 142.33 132.644 142.328 132.645C142.325 132.648 142.322 132.649 142.321 132.651C142.317 132.653 142.314 132.656 142.312 132.657C142.302 132.665 142.289 132.676 142.272 132.689L142.646 133.158C142.663 133.145 142.673 133.137 142.677 133.134C142.687 133.126 142.673 133.138 142.655 133.148C142.652 133.15 142.641 133.157 142.625 133.164C142.618 133.167 142.601 133.174 142.579 133.18C142.57 133.183 142.5 133.203 142.415 133.178C142.362 133.162 142.298 133.127 142.252 133.058C142.208 132.992 142.2 132.925 142.201 132.883C142.203 132.81 142.232 132.758 142.236 132.75C142.252 132.719 142.27 132.699 142.272 132.697C142.282 132.686 142.29 132.678 142.291 132.677C142.294 132.674 142.296 132.672 142.296 132.672L142.702 133.113ZM142.279 132.683C142.249 132.706 142.217 132.731 142.194 132.754L142.621 133.176C142.618 133.179 142.616 133.181 142.615 133.182C142.614 133.183 142.614 133.183 142.614 133.183C142.613 133.183 142.614 133.183 142.616 133.181C142.62 133.178 142.628 133.172 142.638 133.164L142.279 132.683ZM142.205 132.744C142.189 132.759 142.177 132.772 142.172 132.778C142.166 132.786 142.16 132.793 142.156 132.799C142.149 132.808 142.136 132.824 142.129 132.834L142.604 133.2C142.609 133.193 142.615 133.186 142.619 133.181C142.623 133.175 142.626 133.171 142.628 133.168C142.631 133.165 142.631 133.165 142.63 133.166C142.629 133.167 142.627 133.169 142.625 133.172C142.622 133.175 142.617 133.18 142.611 133.186L142.205 132.744ZM142.155 132.804L142.114 132.845L142.537 133.271L142.578 133.23L142.155 132.804ZM142.055 132.927C142.033 132.974 142.012 133.021 141.994 133.066L142.555 133.279C142.564 133.256 142.577 133.226 142.595 133.189L142.055 132.927ZM141.997 133.059L137.849 143.17L138.404 143.398L142.552 133.286L141.997 133.059ZM137.827 143.284V143.294H138.427V143.284H137.827ZM137.849 143.18L136.426 146.648L136.981 146.876L138.404 143.408L137.849 143.18ZM136.429 146.642C136.327 146.876 136.327 147.122 136.429 147.357L136.979 147.119C136.943 147.035 136.944 146.963 136.979 146.882L136.429 146.642ZM136.425 147.347C136.517 147.582 136.687 147.755 136.923 147.848L137.142 147.289C137.064 147.259 137.016 147.211 136.983 147.128L136.425 147.347ZM136.903 147.839C136.942 147.858 136.971 147.871 136.991 147.88C137.001 147.885 137.008 147.889 137.014 147.891C137.016 147.892 137.019 147.893 137.02 147.894C137.021 147.894 137.021 147.894 137.022 147.895C137.022 147.895 137.022 147.895 137.022 147.895C137.023 147.895 137.023 147.895 137.023 147.895C137.023 147.895 137.023 147.895 137.023 147.895C137.023 147.895 137.023 147.895 137.023 147.895C137.023 147.895 137.023 147.895 137.023 147.895C137.023 147.895 137.023 147.895 137.144 147.621C137.266 147.347 137.266 147.347 137.266 147.347C137.266 147.347 137.266 147.347 137.266 147.347C137.266 147.347 137.266 147.347 137.266 147.347C137.266 147.347 137.266 147.347 137.266 147.347C137.266 147.347 137.266 147.347 137.266 147.347C137.266 147.347 137.266 147.347 137.266 147.347C137.266 147.347 137.266 147.346 137.265 147.346C137.264 147.346 137.263 147.345 137.261 147.344C137.257 147.342 137.251 147.34 137.242 147.336C137.225 147.328 137.198 147.315 137.162 147.298L136.903 147.839ZM137.144 147.921H137.268V147.321H137.144V147.921ZM137.268 147.921C137.452 147.921 137.629 147.877 137.782 147.773C137.935 147.669 138.04 147.52 138.108 147.349L137.551 147.127C137.518 147.21 137.479 147.253 137.444 147.277C137.409 147.301 137.356 147.321 137.268 147.321V147.921ZM138.107 147.352L139.377 144.268L138.822 144.04L137.552 147.123L138.107 147.352ZM139.1 144.454H146.574V143.854H139.1V144.454ZM146.297 144.268L147.566 147.352L148.121 147.124L146.852 144.04L146.297 144.268ZM147.566 147.351C147.635 147.521 147.741 147.669 147.893 147.773C148.046 147.877 148.223 147.921 148.408 147.921V147.321C148.319 147.321 148.266 147.301 148.231 147.277C148.195 147.253 148.156 147.209 148.122 147.125L147.566 147.351ZM148.408 147.921C148.532 147.921 148.655 147.895 148.772 147.84L148.515 147.298C148.482 147.313 148.448 147.321 148.408 147.321V147.921ZM148.753 147.848C148.99 147.755 149.159 147.581 149.25 147.346L148.691 147.129C148.659 147.212 148.611 147.259 148.534 147.289L148.753 147.848ZM149.246 147.357C149.348 147.122 149.348 146.876 149.246 146.642L148.696 146.882C148.731 146.963 148.731 147.035 148.695 147.119L149.246 147.357ZM149.248 146.648L147.825 143.18L147.27 143.408L148.693 146.876L149.248 146.648ZM147.848 143.294V143.284H147.248V143.294H147.848ZM147.825 143.17L143.679 133.059L143.124 133.286L147.27 143.398L147.825 143.17ZM143.678 133.057C143.662 133.018 143.642 132.973 143.617 132.923L143.081 133.193C143.098 133.227 143.112 133.258 143.124 133.288L143.678 133.057ZM143.049 133.058C143.049 133.037 143.05 132.892 143.19 132.805C143.325 132.721 143.453 132.779 143.468 132.786C143.502 132.801 143.525 132.819 143.531 132.824C143.54 132.831 143.547 132.837 143.549 132.84C143.557 132.847 143.556 132.848 143.544 132.832L143.072 133.202C143.086 133.221 143.106 133.246 143.128 133.267C143.129 133.268 143.167 133.308 143.224 133.334C143.242 133.341 143.37 133.399 143.506 133.315C143.647 133.227 143.649 133.08 143.649 133.058H143.049ZM143.551 132.841C143.54 132.826 143.529 132.812 143.519 132.799C143.512 132.79 143.494 132.766 143.47 132.744L143.064 133.186C143.058 133.181 143.054 133.176 143.051 133.174C143.049 133.171 143.047 133.169 143.046 133.168C143.045 133.166 143.045 133.166 143.046 133.168C143.05 133.173 143.056 133.18 143.065 133.193L143.551 132.841ZM143.267 132.665C143.316 132.665 143.354 132.678 143.372 132.685C143.392 132.692 143.406 132.701 143.414 132.705C143.429 132.714 143.439 132.722 143.439 132.723C143.441 132.724 143.437 132.721 143.424 132.708L143.007 133.14C143.022 133.154 143.041 133.172 143.06 133.187C143.069 133.195 143.085 133.208 143.106 133.22C143.115 133.225 143.178 133.265 143.267 133.265V132.665ZM143.398 132.686L143.357 132.654L142.992 133.131L143.033 133.162L143.398 132.686ZM143.348 132.648C143.244 132.575 143.126 132.525 142.997 132.504L142.902 133.096C142.937 133.102 142.97 133.115 143.002 133.138L143.348 132.648ZM142.95 132.5H142.899V133.1H142.95V132.5ZM142.955 132.505C142.937 132.502 142.92 132.499 142.905 132.496C142.899 132.495 142.868 132.49 142.837 132.49V133.09C142.832 133.09 142.828 133.09 142.824 133.09C142.821 133.09 142.819 133.089 142.817 133.089C142.813 133.089 142.81 133.089 142.809 133.089C142.807 133.088 142.807 133.088 142.81 133.089C142.816 133.09 142.827 133.092 142.843 133.095L142.955 132.505ZM142.837 132.49C142.809 132.49 142.778 132.495 142.773 132.495C142.758 132.497 142.74 132.5 142.718 132.504L142.813 133.096C142.833 133.093 142.847 133.091 142.856 133.09C142.86 133.089 142.862 133.089 142.862 133.089C142.862 133.089 142.86 133.089 142.858 133.089C142.856 133.089 142.854 133.09 142.851 133.09C142.848 133.09 142.843 133.09 142.837 133.09V132.49ZM142.559 135.139L145.796 143.026L146.351 142.798L143.115 134.911L142.559 135.139ZM146.073 142.612H139.603V143.212H146.073V142.612ZM139.88 143.026L143.115 135.139L142.559 134.911L139.325 142.798L139.88 143.026Z" fill="white"/>
</mask>
<g mask="url(#mask1_5_71)">
<path fill-rule="evenodd" clip-rule="evenodd" d="M132.949 151.364H152.727V129.045H132.949V151.364Z" fill="#222426" stroke="#222426" stroke-width="0.6"/>
</g>
<path fill-rule="evenodd" clip-rule="evenodd" d="M153.512 134.931C152.071 136.38 151.352 138.133 151.352 140.189V140.189C151.352 142.239 152.071 143.987 153.512 145.436V145.436C154.946 146.892 156.676 147.62 158.703 147.62V147.62C160.607 147.62 162.26 146.974 163.659 145.685V145.685C163.789 145.567 163.856 145.423 163.864 145.25V145.25C163.87 145.078 163.816 144.929 163.7 144.805V144.805C163.583 144.675 163.44 144.605 163.269 144.598V144.598C163.099 144.591 162.952 144.647 162.83 144.764V144.764C161.661 145.834 160.286 146.368 158.703 146.368V146.368C157.017 146.368 155.576 145.764 154.382 144.556V144.556C153.187 143.349 152.59 141.893 152.59 140.189V140.189C152.59 138.477 153.187 137.018 154.382 135.811V135.811C155.576 134.604 157.017 134 158.703 134V134C160.096 134 161.341 134.424 162.44 135.272V135.272C162.569 135.383 162.72 135.425 162.892 135.397V135.397C163.061 135.376 163.198 135.297 163.3 135.159V135.159C163.403 135.028 163.444 134.876 163.423 134.703V134.703C163.403 134.531 163.325 134.393 163.187 134.29V134.29C161.87 133.262 160.376 132.747 158.703 132.747V132.747C156.676 132.747 154.946 133.476 153.512 134.931V134.931Z" stroke="#222426" stroke-width="0.6"/>
<mask id="mask2_5_71" style="mask-type:luminance" maskUnits="userSpaceOnUse" x="151" y="132" width="14" height="16">
<path fill-rule="evenodd" clip-rule="evenodd" d="M153.512 134.931C152.071 136.38 151.352 138.133 151.352 140.189V140.189C151.352 142.239 152.071 143.987 153.512 145.436V145.436C154.946 146.892 156.676 147.62 158.703 147.62V147.62C160.607 147.62 162.26 146.974 163.659 145.685V145.685C163.789 145.567 163.856 145.423 163.864 145.25V145.25C163.87 145.078 163.816 144.929 163.7 144.805V144.805C163.583 144.675 163.44 144.605 163.269 144.598V144.598C163.099 144.591 162.952 144.647 162.83 144.764V144.764C161.661 145.834 160.286 146.368 158.703 146.368V146.368C157.017 146.368 155.576 145.764 154.382 144.556V144.556C153.187 143.349 152.59 141.893 152.59 140.189V140.189C152.59 138.477 153.187 137.018 154.382 135.811V135.811C155.576 134.604 157.017 134 158.703 134V134C160.096 134 161.341 134.424 162.44 135.272V135.272C162.569 135.383 162.72 135.425 162.892 135.397V135.397C163.061 135.376 163.198 135.297 163.3 135.159V135.159C163.403 135.028 163.444 134.876 163.423 134.703V134.703C163.403 134.531 163.325 134.393 163.187 134.29V134.29C161.87 133.262 160.376 132.747 158.703 132.747V132.747C156.676 132.747 154.946 133.476 153.512 134.931V134.931Z" fill="white" stroke="white" stroke-width="0.6"/>
</mask>
<g mask="url(#mask2_5_71)">
<path fill-rule="evenodd" clip-rule="evenodd" d="M147.648 151.364H167.57V129.003H147.648V151.364Z" fill="#222426" stroke="#222426" stroke-width="0.6"/>
</g>
<path fill-rule="evenodd" clip-rule="evenodd" d="M168.36 132.934C168.244 133.058 168.188 133.203 168.188 133.368V133.368V146.896C168.188 147.069 168.244 147.213 168.36 147.33V147.33C168.483 147.455 168.628 147.517 168.79 147.517V147.517C168.962 147.517 169.105 147.455 169.222 147.33V147.33C169.344 147.213 169.405 147.069 169.405 146.896V146.896V142.942L171.229 140.996L177.279 147.434C177.402 147.557 177.549 147.62 177.72 147.62V147.62C177.884 147.62 178.024 147.565 178.14 147.455V147.455C178.262 147.337 178.326 147.193 178.334 147.02V147.02C178.334 146.848 178.275 146.703 178.161 146.586V146.586L172.068 140.106L177.955 133.855C178.071 133.73 178.125 133.582 178.12 133.41V133.41C178.12 133.245 178.057 133.103 177.934 132.986V132.986C177.811 132.868 177.665 132.809 177.494 132.809V132.809C177.331 132.817 177.191 132.882 177.075 133.006V133.006L169.405 141.162V133.368C169.405 133.203 169.344 133.058 169.222 132.934V132.934C169.105 132.817 168.962 132.758 168.79 132.758V132.758C168.628 132.758 168.483 132.817 168.36 132.934V132.934Z" stroke="#222426" stroke-width="0.6"/>
<mask id="mask3_5_71" style="mask-type:luminance" maskUnits="userSpaceOnUse" x="167" y="132" width="12" height="16">
<path fill-rule="evenodd" clip-rule="evenodd" d="M168.36 132.934C168.244 133.058 168.188 133.203 168.188 133.368V133.368V146.896C168.188 147.069 168.244 147.213 168.36 147.33V147.33C168.483 147.455 168.628 147.517 168.79 147.517V147.517C168.962 147.517 169.105 147.455 169.222 147.33V147.33C169.344 147.213 169.405 147.069 169.405 146.896V146.896V142.942L171.229 140.996L177.279 147.434C177.402 147.557 177.549 147.62 177.72 147.62V147.62C177.884 147.62 178.024 147.565 178.14 147.455V147.455C178.262 147.337 178.326 147.193 178.334 147.02V147.02C178.334 146.848 178.275 146.703 178.161 146.586V146.586L172.068 140.106L177.955 133.855C178.071 133.73 178.125 133.582 178.12 133.41V133.41C178.12 133.245 178.057 133.103 177.934 132.986V132.986C177.811 132.868 177.665 132.809 177.494 132.809V132.809C177.331 132.817 177.191 132.882 177.075 133.006V133.006L169.405 141.162V133.368C169.405 133.203 169.344 133.058 169.222 132.934V132.934C169.105 132.817 168.962 132.758 168.79 132.758V132.758C168.628 132.758 168.483 132.817 168.36 132.934V132.934Z" fill="white" stroke="white" stroke-width="0.6"/>
</mask>
<g mask="url(#mask3_5_71)">
<path fill-rule="evenodd" clip-rule="evenodd" d="M164.484 151.364H182.039V129.014H164.484V151.364Z" fill="#222426" stroke="#222426" stroke-width="0.6"/>
</g>
<path fill-rule="evenodd" clip-rule="evenodd" d="M191.785 132.986C191.669 133.103 191.611 133.248 191.611 133.42V133.42V142.539C191.611 143.608 191.235 144.519 190.484 145.27V145.27C189.733 146.03 188.832 146.41 187.781 146.41V146.41C186.723 146.41 185.822 146.03 185.078 145.27V145.27C184.327 144.519 183.952 143.608 183.952 142.539V142.539V133.42C183.952 133.248 183.893 133.103 183.778 132.986V132.986C183.662 132.868 183.522 132.81 183.357 132.81V132.81C183.187 132.81 183.044 132.868 182.928 132.986V132.986C182.812 133.103 182.754 133.248 182.754 133.42V133.42V142.539C182.754 143.94 183.246 145.137 184.229 146.13V146.13C185.211 147.123 186.396 147.62 187.781 147.62V147.62C189.167 147.62 190.351 147.123 191.334 146.13V146.13C192.317 145.137 192.808 143.94 192.808 142.539V142.539V133.42C192.808 133.248 192.75 133.103 192.634 132.986V132.986C192.511 132.868 192.369 132.81 192.205 132.81V132.81C192.04 132.81 191.901 132.868 191.785 132.986V132.986Z" stroke="#222426" stroke-width="0.6"/>
<mask id="mask4_5_71" style="mask-type:luminance" maskUnits="userSpaceOnUse" x="182" y="132" width="12" height="16">
<path fill-rule="evenodd" clip-rule="evenodd" d="M191.785 132.986C191.669 133.103 191.611 133.248 191.611 133.42V133.42V142.539C191.611 143.608 191.235 144.519 190.484 145.27V145.27C189.733 146.03 188.832 146.41 187.781 146.41V146.41C186.723 146.41 185.822 146.03 185.078 145.27V145.27C184.327 144.519 183.952 143.608 183.952 142.539V142.539V133.42C183.952 133.248 183.893 133.103 183.778 132.986V132.986C183.662 132.868 183.522 132.81 183.357 132.81V132.81C183.187 132.81 183.044 132.868 182.928 132.986V132.986C182.812 133.103 182.754 133.248 182.754 133.42V133.42V142.539C182.754 143.94 183.246 145.137 184.229 146.13V146.13C185.211 147.123 186.396 147.62 187.781 147.62V147.62C189.167 147.62 190.351 147.123 191.334 146.13V146.13C192.317 145.137 192.808 143.94 192.808 142.539V142.539V133.42C192.808 133.248 192.75 133.103 192.634 132.986V132.986C192.511 132.868 192.369 132.81 192.205 132.81V132.81C192.04 132.81 191.901 132.868 191.785 132.986V132.986Z" fill="white" stroke="white" stroke-width="0.6"/>
</mask>
<g mask="url(#mask4_5_71)">
<path fill-rule="evenodd" clip-rule="evenodd" d="M179.051 151.365H196.513V129.066H179.051V151.365Z" fill="#222426" stroke="#222426" stroke-width="0.6"/>
</g>
<path d="M199.442 147.434L199.235 147.217L199.229 147.223L199.223 147.229L199.442 147.434ZM199.626 140.831V140.531H199.326V140.831H199.626ZM203.65 140.831L203.701 140.535L203.675 140.531H203.65V140.831ZM203.926 140.831V141.131H203.934L203.943 141.131L203.926 140.831ZM206.742 133.959L206.537 134.178L206.537 134.178L206.742 133.959ZM199.626 134.01V133.71H199.326V134.01H199.626ZM205.871 134.828L205.671 135.051L205.671 135.052L205.871 134.828ZM199.626 139.599H199.326V139.899H199.626V139.599ZM199.011 132.469C198.756 132.469 198.536 132.567 198.363 132.749L198.799 133.161C198.861 133.096 198.925 133.069 199.011 133.069V132.469ZM198.374 132.738C198.19 132.914 198.098 133.138 198.098 133.39H198.698C198.698 133.296 198.727 133.23 198.788 133.172L198.374 132.738ZM198.098 133.39V147H198.698V133.39H198.098ZM198.098 147C198.098 147.251 198.19 147.475 198.374 147.651L198.788 147.217C198.727 147.159 198.698 147.093 198.698 147H198.098ZM198.363 147.64C198.536 147.822 198.756 147.92 199.011 147.92V147.32C198.925 147.32 198.861 147.293 198.799 147.228L198.363 147.64ZM199.011 147.92C199.265 147.92 199.489 147.823 199.661 147.639L199.223 147.229C199.164 147.292 199.099 147.32 199.011 147.32V147.92ZM199.65 147.651C199.833 147.476 199.926 147.252 199.926 147H199.326C199.326 147.092 199.297 147.158 199.235 147.217L199.65 147.651ZM199.926 147V140.831H199.326V147H199.926ZM199.626 141.131H203.65V140.531H199.626V141.131ZM203.599 141.127C203.616 141.13 203.62 141.13 203.619 141.13C203.618 141.13 203.614 141.129 203.609 141.128C203.606 141.127 203.591 141.123 203.573 141.115C203.564 141.112 203.543 141.102 203.519 141.085C203.506 141.076 203.432 141.026 203.403 140.922C203.385 140.861 203.387 140.793 203.412 140.731C203.434 140.673 203.47 140.635 203.494 140.613C203.539 140.575 203.583 140.56 203.595 140.556L203.786 141.125C203.798 141.121 203.843 141.105 203.888 141.067C203.943 141.018 204.022 140.905 203.979 140.757C203.95 140.653 203.876 140.603 203.862 140.593C203.838 140.576 203.816 140.567 203.807 140.563C203.777 140.55 203.748 140.544 203.747 140.544C203.733 140.541 203.714 140.538 203.701 140.535L203.599 141.127ZM203.728 141.138C203.764 141.133 203.809 141.123 203.857 141.099L203.587 140.563C203.613 140.55 203.638 140.545 203.653 140.543L203.728 141.138ZM203.722 141.131H203.845V140.531H203.722V141.131ZM203.845 141.131H203.926V140.531H203.845V141.131ZM203.943 141.131C205.147 141.064 206.178 140.619 207.024 139.792L206.604 139.363C205.866 140.085 204.973 140.473 203.91 140.531L203.943 141.131ZM207.024 139.792C207.871 138.958 208.301 137.959 208.301 136.805H207.701C207.701 137.791 207.341 138.639 206.604 139.364L207.024 139.792ZM208.301 136.805C208.301 135.608 207.845 134.581 206.947 133.74L206.537 134.178C207.318 134.91 207.701 135.78 207.701 136.805H208.301ZM206.947 133.74C206.043 132.892 204.949 132.469 203.681 132.469V133.069C204.801 133.069 205.748 133.438 206.537 134.178L206.947 133.74ZM203.681 132.469H199.011V133.069H203.681V132.469ZM199.626 134.31H203.681V133.71H199.626V134.31ZM203.681 134.31C204.464 134.31 205.121 134.558 205.671 135.051L206.072 134.605C205.407 134.008 204.605 133.71 203.681 133.71V134.31ZM205.671 135.052C206.22 135.543 206.483 136.123 206.483 136.805H207.083C207.083 135.942 206.739 135.203 206.072 134.605L205.671 135.052ZM206.483 136.805C206.483 137.474 206.226 138.047 205.689 138.54L206.094 138.982C206.746 138.384 207.083 137.654 207.083 136.805H206.483ZM205.689 138.54C205.158 139.027 204.519 139.28 203.755 139.299L203.771 139.899C204.671 139.876 205.451 139.572 206.094 138.982L205.689 138.54ZM203.763 139.299H199.626V139.899H203.763V139.299ZM199.926 139.599V134.01H199.326V139.599H199.926Z" fill="#222426"/>
<mask id="mask5_5_71" style="mask-type:luminance" maskUnits="userSpaceOnUse" x="198" y="132" width="11" height="16">
<path fill-rule="evenodd" clip-rule="evenodd" d="M199.011 132.769C198.84 132.769 198.698 132.831 198.581 132.955V132.955C198.459 133.072 198.398 133.217 198.398 133.39V133.39V147C198.398 147.172 198.459 147.317 198.581 147.434V147.434C198.698 147.558 198.84 147.62 199.011 147.62V147.62C199.182 147.62 199.327 147.558 199.442 147.434V147.434C199.565 147.317 199.626 147.172 199.626 147V147V140.831H203.65C203.681 140.836 203.694 140.839 203.69 140.84V140.84C203.701 140.839 203.711 140.836 203.722 140.831V140.831H203.845H203.926C205.06 140.769 206.022 140.352 206.814 139.578V139.578C207.606 138.799 208.001 137.875 208.001 136.805V136.805C208.001 135.694 207.582 134.745 206.742 133.959V133.959C205.896 133.165 204.875 132.769 203.681 132.769V132.769H199.011ZM199.626 134.01H203.681C204.534 134.01 205.264 134.283 205.871 134.828V134.828C206.479 135.373 206.783 136.032 206.783 136.805V136.805C206.783 137.564 206.486 138.216 205.892 138.761V138.761C205.305 139.299 204.595 139.578 203.763 139.599V139.599H199.626V134.01Z" fill="white"/>
<path d="M199.442 147.434L199.235 147.217L199.229 147.223L199.223 147.229L199.442 147.434ZM199.626 140.831V140.531H199.326V140.831H199.626ZM203.65 140.831L203.701 140.535L203.675 140.531H203.65V140.831ZM203.926 140.831V141.131H203.934L203.943 141.131L203.926 140.831ZM206.742 133.959L206.537 134.178L206.537 134.178L206.742 133.959ZM199.626 134.01V133.71H199.326V134.01H199.626ZM205.871 134.828L205.671 135.051L205.671 135.052L205.871 134.828ZM199.626 139.599H199.326V139.899H199.626V139.599ZM199.011 132.469C198.756 132.469 198.536 132.567 198.363 132.749L198.799 133.161C198.861 133.096 198.925 133.069 199.011 133.069V132.469ZM198.374 132.738C198.19 132.914 198.098 133.138 198.098 133.39H198.698C198.698 133.296 198.727 133.23 198.788 133.172L198.374 132.738ZM198.098 133.39V147H198.698V133.39H198.098ZM198.098 147C198.098 147.251 198.19 147.475 198.374 147.651L198.788 147.217C198.727 147.159 198.698 147.093 198.698 147H198.098ZM198.363 147.64C198.536 147.822 198.756 147.92 199.011 147.92V147.32C198.925 147.32 198.861 147.293 198.799 147.228L198.363 147.64ZM199.011 147.92C199.265 147.92 199.489 147.823 199.661 147.639L199.223 147.229C199.164 147.292 199.099 147.32 199.011 147.32V147.92ZM199.65 147.651C199.833 147.476 199.926 147.252 199.926 147H199.326C199.326 147.092 199.297 147.158 199.235 147.217L199.65 147.651ZM199.926 147V140.831H199.326V147H199.926ZM199.626 141.131H203.65V140.531H199.626V141.131ZM203.599 141.127C203.616 141.13 203.62 141.13 203.619 141.13C203.618 141.13 203.614 141.129 203.609 141.128C203.606 141.127 203.591 141.123 203.573 141.115C203.564 141.112 203.543 141.102 203.519 141.085C203.506 141.076 203.432 141.026 203.403 140.922C203.385 140.861 203.387 140.793 203.412 140.731C203.434 140.673 203.47 140.635 203.494 140.613C203.539 140.575 203.583 140.56 203.595 140.556L203.786 141.125C203.798 141.121 203.843 141.105 203.888 141.067C203.943 141.018 204.022 140.905 203.979 140.757C203.95 140.653 203.876 140.603 203.862 140.593C203.838 140.576 203.816 140.567 203.807 140.563C203.777 140.55 203.748 140.544 203.747 140.544C203.733 140.541 203.714 140.538 203.701 140.535L203.599 141.127ZM203.728 141.138C203.764 141.133 203.809 141.123 203.857 141.099L203.587 140.563C203.613 140.55 203.638 140.545 203.653 140.543L203.728 141.138ZM203.722 141.131H203.845V140.531H203.722V141.131ZM203.845 141.131H203.926V140.531H203.845V141.131ZM203.943 141.131C205.147 141.064 206.178 140.619 207.024 139.792L206.604 139.363C205.866 140.085 204.973 140.473 203.91 140.531L203.943 141.131ZM207.024 139.792C207.871 138.958 208.301 137.959 208.301 136.805H207.701C207.701 137.791 207.341 138.639 206.604 139.364L207.024 139.792ZM208.301 136.805C208.301 135.608 207.845 134.581 206.947 133.74L206.537 134.178C207.318 134.91 207.701 135.78 207.701 136.805H208.301ZM206.947 133.74C206.043 132.892 204.949 132.469 203.681 132.469V133.069C204.801 133.069 205.748 133.438 206.537 134.178L206.947 133.74ZM203.681 132.469H199.011V133.069H203.681V132.469ZM199.626 134.31H203.681V133.71H199.626V134.31ZM203.681 134.31C204.464 134.31 205.121 134.558 205.671 135.051L206.072 134.605C205.407 134.008 204.605 133.71 203.681 133.71V134.31ZM205.671 135.052C206.22 135.543 206.483 136.123 206.483 136.805H207.083C207.083 135.942 206.739 135.203 206.072 134.605L205.671 135.052ZM206.483 136.805C206.483 137.474 206.226 138.047 205.689 138.54L206.094 138.982C206.746 138.384 207.083 137.654 207.083 136.805H206.483ZM205.689 138.54C205.158 139.027 204.519 139.28 203.755 139.299L203.771 139.899C204.671 139.876 205.451 139.572 206.094 138.982L205.689 138.54ZM203.763 139.299H199.626V139.899H203.763V139.299ZM199.926 139.599V134.01H199.326V139.599H199.926Z" fill="white"/>
</mask>
<g mask="url(#mask5_5_71)">
<path fill-rule="evenodd" clip-rule="evenodd" d="M194.695 151.365H211.707V129.024H194.695V151.365Z" fill="#222426" stroke="#222426" stroke-width="0.6"/>
</g>
<mask id="mask6_5_71" style="mask-type:luminance" maskUnits="userSpaceOnUse" x="212" y="132" width="12" height="16">
<path fill-rule="evenodd" clip-rule="evenodd" d="M221.738 132.956C221.437 133.1 221.232 133.331 221.123 133.648V133.648L217.97 142.726L214.816 133.648C214.707 133.331 214.502 133.1 214.203 132.956V132.956C213.902 132.81 213.594 132.794 213.28 132.903V132.903C212.966 133.014 212.738 133.221 212.594 133.524V133.524C212.452 133.828 212.434 134.139 212.543 134.456V134.456L216.834 146.803V146.813C216.854 146.862 216.878 146.914 216.905 146.969V146.969C216.912 146.983 216.919 146.992 216.925 147V147C216.953 147.048 216.979 147.092 217.007 147.135V147.135C217.007 147.141 217.014 147.152 217.028 147.165V147.165C217.055 147.2 217.086 147.234 217.12 147.27V147.27C217.141 147.29 217.151 147.296 217.151 147.29V147.29C217.185 147.331 217.226 147.366 217.274 147.393V147.393L217.284 147.403L217.295 147.414C217.335 147.442 217.377 147.466 217.417 147.486V147.486L217.447 147.497C217.488 147.518 217.53 147.534 217.571 147.549V147.549C217.598 147.563 217.605 147.565 217.591 147.558V147.558C217.626 147.573 217.669 147.583 217.724 147.59V147.59C217.779 147.604 217.797 147.607 217.776 147.6V147.6C217.844 147.614 217.909 147.621 217.97 147.621V147.621C218.032 147.621 218.096 147.614 218.165 147.6V147.6C218.144 147.607 218.161 147.604 218.216 147.59V147.59C218.271 147.583 218.314 147.573 218.349 147.558V147.558C218.334 147.565 218.342 147.563 218.369 147.549V147.549C218.41 147.534 218.451 147.518 218.492 147.497V147.497L218.512 147.486C218.561 147.466 218.604 147.442 218.646 147.414V147.414C218.673 147.393 218.68 147.387 218.667 147.393V147.393C218.714 147.359 218.755 147.325 218.789 147.29V147.29C218.781 147.296 218.789 147.29 218.81 147.27V147.27C218.843 147.234 218.877 147.2 218.912 147.165V147.165C218.939 147.131 218.946 147.121 218.933 147.135V147.135C218.959 147.092 218.987 147.048 219.014 147V147C219.021 146.992 219.028 146.983 219.035 146.969V146.969C219.062 146.914 219.086 146.862 219.107 146.813V146.813V146.803L223.398 134.456C223.506 134.139 223.489 133.828 223.345 133.524V133.524C223.203 133.221 222.973 133.014 222.659 132.903V132.903C222.345 132.794 222.188 132.737 222.188 132.737V132.737C222.188 132.737 222.038 132.81 221.738 132.956V132.956Z" fill="white"/>
</mask>
<g mask="url(#mask6_5_71)">
<path fill-rule="evenodd" clip-rule="evenodd" d="M208.77 151.364H227.173V128.993H208.77V151.364Z" fill="#007AFF"/>
</g>
<mask id="mask7_5_71" style="mask-type:luminance" maskUnits="userSpaceOnUse" x="224" y="132" width="14" height="16">
<path fill-rule="evenodd" clip-rule="evenodd" d="M231.202 132.831H231.141H231.089H231.028L230.977 132.841C230.943 132.848 230.919 132.851 230.905 132.851V132.851L230.865 132.861C230.823 132.875 230.8 132.882 230.793 132.882V132.882C230.779 132.889 230.755 132.896 230.721 132.903V132.903C230.704 132.912 230.692 132.918 230.684 132.922V132.922C230.689 132.919 230.678 132.926 230.65 132.944V132.944C230.615 132.958 230.592 132.968 230.578 132.975V132.975C230.571 132.975 230.551 132.986 230.516 133.006V133.006L230.475 133.037C230.469 133.045 230.452 133.057 230.423 133.078V133.078C230.39 133.099 230.376 133.11 230.382 133.11V133.11C230.376 133.11 230.359 133.123 230.332 133.151V133.151C230.312 133.165 230.298 133.175 230.292 133.182V133.182C230.292 133.188 230.277 133.206 230.251 133.234V133.234C230.23 133.254 230.219 133.268 230.219 133.275V133.275C230.212 133.282 230.199 133.296 230.179 133.317V133.317C230.158 133.344 230.147 133.362 230.147 133.368V133.368C230.141 133.376 230.128 133.392 230.107 133.42V133.42L230.086 133.472C230.066 133.506 230.048 133.541 230.035 133.575V133.575L226.266 142.766V142.776L224.968 145.933C224.844 146.244 224.844 146.554 224.968 146.865V146.865C225.097 147.176 225.315 147.396 225.621 147.527V147.527C225.772 147.588 225.847 147.62 225.847 147.62V147.62H226.082C226.622 147.62 226.994 147.368 227.199 146.865V146.865L228.182 144.463H234.11L235.094 146.865C235.298 147.368 235.67 147.62 236.21 147.62V147.62C236.366 147.62 236.52 147.588 236.67 147.527V147.527C236.977 147.396 237.196 147.176 237.326 146.865V146.865C237.449 146.554 237.449 146.244 237.326 145.933V145.933L236.025 142.776V142.766L232.257 133.575C232.244 133.541 232.225 133.506 232.205 133.472V133.472C232.205 133.466 232.195 133.448 232.175 133.42V133.42C232.154 133.392 232.144 133.376 232.144 133.368V133.368C232.144 133.362 232.13 133.344 232.104 133.317V133.317L232.073 133.275C232.073 133.268 232.058 133.251 232.032 133.224V133.224C232.011 133.203 232.002 133.188 232.002 133.182V133.182C231.988 133.175 231.97 133.161 231.949 133.141V133.141C231.929 133.12 231.915 133.11 231.909 133.11V133.11C231.902 133.103 231.885 133.089 231.858 133.069V133.069L231.817 133.037C231.81 133.03 231.789 133.016 231.755 132.996V132.996C231.721 132.975 231.707 132.968 231.714 132.975V132.975C231.647 132.934 231.571 132.903 231.488 132.882V132.882C231.502 132.882 231.488 132.879 231.447 132.871V132.871C231.414 132.858 231.39 132.851 231.376 132.851V132.851L231.325 132.841L231.264 132.831H231.202ZM231.141 137.229L233.118 142.031H229.175L231.141 137.229Z" fill="white"/>
</mask>
<g mask="url(#mask7_5_71)">
<path fill-rule="evenodd" clip-rule="evenodd" d="M221.172 151.364H241.123V129.086H221.172V151.364Z" fill="#007AFF"/>
</g>
<mask id="mask8_5_71" style="mask-type:luminance" maskUnits="userSpaceOnUse" x="240" y="132" width="12" height="16">
<path fill-rule="evenodd" clip-rule="evenodd" d="M249.06 133.13C248.828 133.365 248.713 133.648 248.713 133.979V133.979V142.321C248.713 143.121 248.432 143.805 247.872 144.371V144.371C247.312 144.936 246.64 145.219 245.856 145.219V145.219C245.063 145.219 244.388 144.936 243.828 144.371V144.371C243.268 143.805 242.989 143.121 242.989 142.321V142.321V133.979C242.989 133.648 242.873 133.365 242.64 133.13V133.13C242.408 132.896 242.128 132.778 241.801 132.778V132.778C241.473 132.778 241.193 132.896 240.961 133.13V133.13C240.729 133.365 240.613 133.648 240.613 133.979V133.979V142.321C240.613 143.784 241.125 145.032 242.148 146.068V146.068C243.173 147.103 244.408 147.62 245.856 147.62V147.62C247.296 147.62 248.527 147.103 249.552 146.068V146.068C250.575 145.032 251.088 143.784 251.088 142.321V142.321V133.979C251.088 133.648 250.971 133.365 250.74 133.13V133.13C250.508 132.896 250.228 132.778 249.9 132.778V132.778C249.573 132.778 249.292 132.896 249.06 133.13V133.13Z" fill="white"/>
</mask>
<g mask="url(#mask8_5_71)">
<path fill-rule="evenodd" clip-rule="evenodd" d="M236.91 151.364H254.793V129.034H236.91V151.364Z" fill="#007AFF"/>
</g>
<mask id="mask9_5_71" style="mask-type:luminance" maskUnits="userSpaceOnUse" x="256" y="132" width="10" height="16">
<path fill-rule="evenodd" clip-rule="evenodd" d="M256.784 133.141C256.546 133.376 256.426 133.662 256.426 134V134V146.399C256.426 146.736 256.546 147.024 256.784 147.258V147.258C257.016 147.499 257.3 147.62 257.635 147.62V147.62H264.259C264.593 147.62 264.881 147.499 265.118 147.258V147.258C265.351 147.024 265.468 146.736 265.468 146.399V146.399C265.468 146.062 265.351 145.774 265.118 145.54V145.54C264.881 145.299 264.593 145.178 264.259 145.178V145.178H258.843V134C258.843 133.662 258.723 133.376 258.484 133.141V133.141C258.251 132.899 257.969 132.778 257.635 132.778V132.778C257.3 132.778 257.016 132.899 256.784 133.141V133.141Z" fill="white"/>
</mask>
<g mask="url(#mask9_5_71)">
<path fill-rule="evenodd" clip-rule="evenodd" d="M252.723 151.364H269.172V129.034H252.723V151.364Z" fill="#007AFF"/>
</g>
<mask id="mask10_5_71" style="mask-type:luminance" maskUnits="userSpaceOnUse" x="266" y="132" width="11" height="16">
<path fill-rule="evenodd" clip-rule="evenodd" d="M267.294 132.758C266.959 132.758 266.672 132.879 266.434 133.12V133.12C266.201 133.355 266.086 133.641 266.086 133.979V133.979C266.086 134.317 266.201 134.604 266.434 134.838V134.838C266.672 135.08 266.959 135.2 267.294 135.2V135.2H270.335V146.399C270.335 146.736 270.454 147.026 270.693 147.269V147.269C270.926 147.503 271.209 147.62 271.544 147.62V147.62C271.877 147.62 272.161 147.503 272.392 147.269V147.269C272.631 147.026 272.751 146.736 272.751 146.399V146.399V135.2H275.803C276.13 135.2 276.413 135.08 276.653 134.838V134.838C276.875 134.613 276.991 134.34 277 134.02V134.02V133.939C276.991 133.618 276.875 133.345 276.653 133.12V133.12C276.413 132.879 276.13 132.758 275.803 132.758V132.758H267.294Z" fill="white"/>
</mask>
<g mask="url(#mask10_5_71)">
<path fill-rule="evenodd" clip-rule="evenodd" d="M262.383 151.364H280.706V129.014H262.383V151.364Z" fill="#007AFF"/>
</g>
<mask id="mask11_5_71" style="mask-type:luminance" maskUnits="userSpaceOnUse" x="97" y="127" width="20" height="26">
<path fill-rule="evenodd" clip-rule="evenodd" d="M100.928 133.549V137.279C100.553 137.645 100.209 138.045 99.8983 138.476V138.476C99.8663 138.521 99.8669 138.582 99.9003 138.626V138.626L100.144 138.953L101.53 140.805C101.585 140.877 101.696 140.868 101.741 140.787V140.787C102.981 138.508 105.503 137.172 108.18 137.528V137.528C111.205 137.931 113.542 140.501 113.677 143.551V143.551C113.836 147.192 110.923 150.205 107.32 150.205V150.205C104.793 150.205 102.58 148.714 101.564 146.526V146.526L103.085 146.209C103.175 146.189 103.215 146.084 103.161 146.01V146.01L98.9872 140.367C98.9244 140.281 98.7908 140.308 98.764 140.41V140.41L97.0046 147.293C97.002 147.303 97.0007 147.313 97 147.322V147.322V147.325C97.0007 147.402 97.072 147.464 97.1519 147.447V147.447L98.7843 147.106C100.252 150.954 104.204 153.511 108.589 152.913V152.913C112.775 152.343 116.056 148.894 116.437 144.684V144.684C116.685 141.949 115.713 139.442 114.016 137.616V137.616V133.689C114.016 130.125 111.23 127.109 107.671 127.003V127.003C107.605 127.001 107.538 127 107.473 127V127C103.864 127 100.928 129.938 100.928 133.549V133.549ZM103.722 133.549C103.722 131.48 105.404 129.795 107.471 129.795V129.795C109.54 129.795 111.224 131.48 111.224 133.549V133.549V135.562C110.037 134.999 108.718 134.675 107.32 134.675V134.675C106.056 134.675 104.836 134.937 103.722 135.414V135.414V133.549Z" fill="white"/>
</mask>
<g mask="url(#mask11_5_71)">
<path fill-rule="evenodd" clip-rule="evenodd" d="M93.2969 156.744H120.18V123.256H93.2969V156.744Z" fill="#007AFF"/>
</g>
<mask id="mask12_5_71" style="mask-type:luminance" maskUnits="userSpaceOnUse" x="104" y="141" width="7" height="6">
<path fill-rule="evenodd" clip-rule="evenodd" d="M104.566 143.837C104.566 145.359 105.798 146.592 107.319 146.592V146.592C108.839 146.592 110.071 145.359 110.071 143.837V143.837C110.071 142.317 108.839 141.083 107.319 141.083V141.083C105.798 141.083 104.566 142.317 104.566 143.837V143.837Z" fill="white"/>
</mask>
<g mask="url(#mask12_5_71)">
<path fill-rule="evenodd" clip-rule="evenodd" d="M100.863 150.336H113.776V137.339H100.863V150.336Z" fill="#007AFF"/>
</g>
</g>
</svg>
