<svg width="101" height="102" viewBox="0 0 101 102" fill="none" xmlns="http://www.w3.org/2000/svg">
<path fill-rule="evenodd" clip-rule="evenodd" d="M15.4318 53.6334C15.4318 56.2079 13.3309 58.2949 10.7393 58.2949C8.14776 58.2949 6.04688 56.2079 6.04687 53.6334C6.04687 51.0587 8.14776 48.9719 10.7393 48.9719C13.3309 48.9719 15.4318 51.0587 15.4318 53.6334Z" stroke="#007AFF" stroke-width="2.35" stroke-linecap="round" stroke-linejoin="round"/>
<path fill-rule="evenodd" clip-rule="evenodd" d="M35.1195 43.8385C35.1195 46.4132 33.0184 48.5 30.427 48.5C27.8353 48.5 25.7344 46.4132 25.7344 43.8385C25.7344 41.264 27.8353 39.177 30.427 39.177C33.0184 39.177 35.1195 41.264 35.1195 43.8385Z" stroke="#007AFF" stroke-width="2.35" stroke-linecap="round" stroke-linejoin="round"/>
<path fill-rule="evenodd" clip-rule="evenodd" d="M54.7992 24.2506C54.7992 26.8251 52.6983 28.9121 50.1067 28.9121C47.515 28.9121 45.4141 26.8251 45.4141 24.2506C45.4141 21.6759 47.515 19.5891 50.1067 19.5891C52.6983 19.5891 54.7992 21.6759 54.7992 24.2506Z" stroke="#007AFF" stroke-width="2.35" stroke-linecap="round" stroke-linejoin="round"/>
<path fill-rule="evenodd" clip-rule="evenodd" d="M74.4867 34.0445C74.4867 36.6192 72.3858 38.7061 69.7942 38.7061C67.2027 38.7061 65.1016 36.6192 65.1016 34.0445C65.1016 31.4699 67.2027 29.383 69.7942 29.383C72.3858 29.383 74.4867 31.4699 74.4867 34.0445Z" stroke="#007AFF" stroke-width="2.35" stroke-linecap="round" stroke-linejoin="round"/>
<path fill-rule="evenodd" clip-rule="evenodd" d="M94.174 4.66173C94.174 7.23641 92.0731 9.32324 89.4817 9.32324C86.89 9.32324 84.7891 7.23641 84.7891 4.66173C84.7891 2.08706 86.89 0.000219345 89.4817 0.000219345C92.0731 0.000219345 94.174 2.08706 94.174 4.66173Z" stroke="#007AFF" stroke-width="2.35" stroke-linecap="round" stroke-linejoin="round"/>
<path d="M72.3984 30.1641L86.8843 8.54214" stroke="#007AFF" stroke-width="2.35" stroke-linecap="round" stroke-linejoin="round"/>
<path d="M54.3047 26.3377L65.5987 31.957" stroke="#007AFF" stroke-width="2.56061" stroke-linecap="round" stroke-linejoin="round"/>
<path d="M33.7422 40.54L46.7971 27.5493" stroke="#007AFF" stroke-width="2.35" stroke-linecap="round" stroke-linejoin="round"/>
<path d="M14.9375 51.5459L26.2317 45.9266" stroke="#007AFF" stroke-width="2.35" stroke-linecap="round" stroke-linejoin="round"/>
<path fill-rule="evenodd" clip-rule="evenodd" d="M15.8179 70.8879H5.66751C4.96661 70.8879 4.39844 71.4524 4.39844 72.1484L4.39844 99.8994H17.0867L17.0867 72.1484C17.0867 71.4524 16.5188 70.8879 15.8179 70.8879Z" stroke="#007AFF" stroke-width="2.35" stroke-linecap="round" stroke-linejoin="round"/>
<path fill-rule="evenodd" clip-rule="evenodd" d="M35.4975 61.0934H25.3474C24.6465 61.0934 24.0781 61.658 24.0781 62.3541L24.0781 99.8994H36.7666L36.7666 62.3541C36.7666 61.658 36.1985 61.0934 35.4975 61.0934Z" stroke="#007AFF" stroke-width="2.35" stroke-linecap="round" stroke-linejoin="round"/>
<path fill-rule="evenodd" clip-rule="evenodd" d="M55.185 41.4196H45.0349C44.334 41.4196 43.7656 41.984 43.7656 42.6801L43.7656 99.8994H56.4541L56.4541 42.6801C56.4541 41.984 55.886 41.4196 55.185 41.4196Z" stroke="#007AFF" stroke-width="2.35" stroke-linecap="round" stroke-linejoin="round"/>
<path d="M66.2563 51.2992H64.7222C64.0213 51.2992 63.4531 51.8638 63.4531 52.5599L63.4531 99.8994H76.1414V52.5599C76.1414 51.8638 75.5732 51.2992 74.8723 51.2992H73.3382" stroke="#007AFF" stroke-width="2.35" stroke-linecap="round" stroke-linejoin="round"/>
<path d="M95.8211 58.2296L95.8211 23.0393C95.8211 22.343 95.2529 21.7783 94.5522 21.7783H84.4019C83.701 21.7783 83.1328 22.343 83.1328 23.0393L83.1328 99.8994H95.8211V65.2648" stroke="#007AFF" stroke-width="2.35" stroke-linecap="round" stroke-linejoin="round"/>
<path d="M2 100.2H99.3887" stroke="#007AFF" stroke-width="2.5" stroke-linecap="round" stroke-linejoin="round"/>
</svg>
