<svg width="115" height="102" viewBox="0 0 115 102" fill="none" xmlns="http://www.w3.org/2000/svg">
<path d="M57.5023 87.6631V77.4824" stroke="#007AFF" stroke-width="2.45" stroke-linecap="round" stroke-linejoin="round"/>
<path d="M40.2656 7.54748C45.5989 2.84853 52.5894 0 60.241 0C74.9501 0 87.2091 10.5261 89.9629 24.4861C90.0611 24.9841 90.5502 25.2936 91.0438 25.1815C92.3213 24.8921 93.6502 24.7351 95.0148 24.7351C104.994 24.7351 113.076 32.8972 113.002 42.9365C112.929 52.8974 104.708 60.8643 94.7892 60.8643H92.7456" stroke="#007AFF" stroke-width="2.45" stroke-linecap="round" stroke-linejoin="round"/>
<path d="M35.0969 13.4424C33.5045 15.8109 32.2382 18.415 31.3582 21.1917C31.1974 21.6964 30.6413 21.9476 30.1544 21.7413C27.7312 20.714 25.069 20.1443 22.2728 20.1443C11.0657 20.1443 1.93116 29.3785 2.00039 40.6335C2.06963 51.819 11.1193 60.8648 22.2728 60.8648H34.9517" stroke="#007AFF" stroke-width="2.45" stroke-linecap="round" stroke-linejoin="round"/>
<path d="M84.9246 60.8641H80.0469" stroke="#007AFF" stroke-width="2.45" stroke-linecap="round" stroke-linejoin="round"/>
<path d="M80.0496 41.333V69.5963C80.0496 73.952 69.9547 77.4824 57.5014 77.4824C45.048 77.4824 34.9531 73.952 34.9531 69.5963V41.333" stroke="#007AFF" stroke-width="2.45" stroke-linecap="round" stroke-linejoin="round"/>
<path d="M34.9531 60.1758C34.9531 64.5293 45.048 68.0597 57.5014 68.0597C69.9547 68.0597 80.0496 64.5293 80.0496 60.1758" stroke="#007AFF" stroke-width="2.45" stroke-linecap="round" stroke-linejoin="round"/>
<path d="M34.9531 50.7529C34.9531 55.1087 45.048 58.6391 57.5014 58.6391C69.9547 58.6391 80.0496 55.1087 80.0496 50.7529" stroke="#007AFF" stroke-width="2.45" stroke-linecap="round" stroke-linejoin="round"/>
<ellipse cx="57.5005" cy="41.3337" rx="22.5473" ry="7.88549" stroke="#007AFF" stroke-width="2.45" stroke-linecap="round" stroke-linejoin="round"/>
<ellipse cx="57.5012" cy="93.8321" rx="6.1418" ry="6.16808" stroke="#007AFF" stroke-width="2.45" stroke-linecap="round" stroke-linejoin="round"/>
<path d="M35.7109 85.1937V80.2682C35.7109 80.008 35.8248 79.759 36.0236 79.5886L41.2743 75.0713" stroke="#007AFF" stroke-width="2.45" stroke-linecap="round" stroke-linejoin="round"/>
<ellipse cx="35.7126" cy="90.2409" rx="5.02511" ry="5.04661" stroke="#007AFF" stroke-width="2.45" stroke-linecap="round" stroke-linejoin="round"/>
<path d="M73.7266 75.0713L78.9772 79.5886C79.176 79.759 79.2899 80.008 79.2899 80.2682V85.1937" stroke="#007AFF" stroke-width="2.45" stroke-linecap="round" stroke-linejoin="round"/>
<ellipse cx="79.2907" cy="90.2409" rx="5.02511" ry="5.04661" stroke="#007AFF" stroke-width="2.45" stroke-linecap="round" stroke-linejoin="round"/>
</svg>
