<svg width="63" height="52" viewBox="0 0 63 52" fill="none" xmlns="http://www.w3.org/2000/svg">
<path d="M62 47.234L1 47.234" stroke="#007AFF" stroke-width="1.5" stroke-linecap="round" stroke-linejoin="round"/>
<path fill-rule="evenodd" clip-rule="evenodd" d="M6.52314 38.037L6.52314 4.7037C6.52314 2.65827 8.17173 1 10.2052 1L52.7948 1C54.8283 1 56.4769 2.65827 56.4769 4.7037L56.4769 38.037L62 47.2963C62 49.3417 60.3514 51 58.3179 51L4.68209 51C2.64859 51 1 49.3417 1 47.2963L6.52314 38.037Z" stroke="#007AFF" stroke-width="1.5" stroke-linecap="round" stroke-linejoin="round"/>
<path d="M6.52284 37.9762L56.4766 37.9762" stroke="#007AFF" stroke-width="1.5" stroke-linecap="round" stroke-linejoin="round"/>
<path fill-rule="evenodd" clip-rule="evenodd" d="M10.2034 34.334L10.2034 4.70436L52.793 4.70436L52.793 34.334H29.6572L10.2034 34.334Z" stroke="#007AFF" stroke-width="1.5" stroke-linecap="round" stroke-linejoin="round"/>
<path d="M41.564 51V47.2963" stroke="#007AFF" stroke-width="1.5" stroke-linecap="round" stroke-linejoin="round"/>
<path d="M21.314 47.2963V51" stroke="#007AFF" stroke-width="1.5" stroke-linecap="round" stroke-linejoin="round"/>
</svg>
