<svg width="102" height="101" viewBox="0 0 102 101" fill="none" xmlns="http://www.w3.org/2000/svg">
<path fill-rule="evenodd" clip-rule="evenodd" d="M18.7417 88.7097C18.314 88.7096 17.9038 88.5396 17.6014 88.2371L1.47229 72.1081C1.01114 71.6468 0.873215 70.9532 1.1228 70.3506C1.37239 69.7479 1.96036 69.355 2.61262 69.3548H9.06427V1.6129C9.06427 0.722121 9.78639 0 10.6772 0H26.8063C27.6971 0 28.4192 0.722121 28.4192 1.6129V26.3768C31.5664 21.8179 36.0586 18.2588 41.3225 16.2728V1.6129C41.3225 0.722121 42.0446 0 42.9354 0H59.0646C59.9553 0 60.6775 0.722121 60.6775 1.6129V16.2728C65.9414 18.2588 70.4336 21.8179 73.5808 26.3768V1.6129C73.5808 0.722121 74.3029 0 75.1937 0H91.3228C92.2136 0 92.9357 0.722121 92.9357 1.6129V69.3548H99.3874C100.04 69.355 100.628 69.7479 100.877 70.3506C101.127 70.9532 100.989 71.6468 100.528 72.1081L84.3986 88.2371C84.0962 88.5396 83.686 88.7096 83.2583 88.7097C82.8305 88.7096 82.4203 88.5396 82.1179 88.2371L65.9888 72.1081C65.5276 71.6468 65.3897 70.9532 65.6393 70.3506C65.8889 69.7479 66.4769 69.355 67.1291 69.3548H73.5808V57.4731C70.4338 62.0352 65.9418 65.5979 60.6775 67.5887V80.6452H67.1291C67.7814 80.6453 68.3693 81.0383 68.6189 81.6409C68.8685 82.2435 68.7306 82.9371 68.2695 83.3984L52.1403 99.5274C51.8379 99.8299 51.4277 99.9999 51 100C50.5723 99.9999 50.1621 99.8299 49.8597 99.5274L33.7305 83.3984C33.2694 82.9371 33.1315 82.2435 33.3811 81.6409C33.6306 81.0383 34.2186 80.6453 34.8709 80.6452H41.3225V67.5982C36.0586 65.6122 31.5664 62.0531 28.4192 57.4942V69.3548H34.8709C35.5231 69.355 36.1111 69.7479 36.3607 70.3506C36.6103 70.9532 36.4723 71.6468 36.0112 72.1081L19.8821 88.2371C19.5797 88.5396 19.1695 88.7096 18.7417 88.7097ZM25.1934 51.223V70.9677C25.1934 71.8585 25.9155 72.5806 26.8063 72.5806H30.9773L18.7417 84.8161L6.50619 72.5806H10.6772C11.568 72.5806 12.2901 71.8585 12.2901 70.9677V3.22581H25.1934V32.648C24.1494 35.5484 23.5805 38.6755 23.5805 41.9355C23.5805 45.1955 24.1494 48.3226 25.1934 51.223ZM28.3252 50.3915C28.3207 50.3791 28.3162 50.3668 28.3114 50.3546C27.3381 47.7326 26.8063 44.8962 26.8063 41.9355C26.8063 38.9748 27.3381 36.1382 28.3115 33.5163C28.3162 33.5041 28.3207 33.4919 28.3251 33.4796C30.8684 26.6628 36.3977 21.3011 43.3222 18.9856C43.402 18.966 43.4794 18.9404 43.554 18.9094C45.8997 18.1514 48.402 17.7419 51 17.7419C64.3555 17.757 75.1786 28.58 75.1937 41.9355C75.1937 44.8961 74.6619 47.7324 73.6887 50.3543C73.6839 50.3667 73.6792 50.3792 73.6747 50.3918C71.1314 57.2084 65.6022 62.5699 58.6779 64.8854C58.598 64.905 58.5205 64.9306 58.4459 64.9616C56.1002 65.7196 53.5979 66.129 51 66.129C48.4021 66.129 45.8997 65.7196 43.5541 64.9616C43.4794 64.9306 43.402 64.905 43.3221 64.8854C36.3977 62.5698 30.8684 57.2083 28.3252 50.3915ZM44.5483 68.5915V82.2581C44.5483 83.1488 43.8262 83.871 42.9354 83.871H38.7644L51 96.1064L63.2356 83.871H59.0646C58.1738 83.871 57.4517 83.1488 57.4517 82.2581V68.585C55.3828 69.0858 53.2223 69.3524 51 69.3548C48.7778 69.3548 46.6173 69.0905 44.5483 68.5915ZM76.8066 51.1976V70.9677C76.8066 71.8585 76.0845 72.5806 75.1937 72.5806H71.0227L83.2583 84.8161L95.4938 72.5806H91.3228C90.432 72.5806 89.7099 71.8585 89.7099 70.9677V3.22581H76.8066V32.648C77.8506 35.5484 78.4195 38.6755 78.4195 41.9355C78.4159 45.1862 77.8473 48.3045 76.8066 51.1976ZM44.5483 15.2795C46.6173 14.7805 48.7778 14.5161 51 14.5161C53.2222 14.5161 55.3827 14.7805 57.4516 15.2795V3.22581H44.5483V15.2795Z" fill="#007AFF"/>
<path d="M17.6014 88.2371L17.8666 87.972L17.8666 87.9719L17.6014 88.2371ZM18.7417 88.7097L18.7417 89.0847H18.7418L18.7417 88.7097ZM1.47229 72.1081L1.20708 72.3732L1.20712 72.3732L1.47229 72.1081ZM1.1228 70.3506L0.776345 70.2071L1.1228 70.3506ZM2.61262 69.3548V68.9798H2.61254L2.61262 69.3548ZM9.06427 69.3548V69.7298H9.43927V69.3548H9.06427ZM28.4192 26.3768H28.0442V27.58L28.7278 26.5898L28.4192 26.3768ZM41.3225 16.2728L41.4549 16.6236L41.6975 16.5321V16.2728H41.3225ZM60.6775 16.2728H60.3025V16.5321L60.5451 16.6236L60.6775 16.2728ZM73.5808 26.3768L73.2722 26.5898L73.9558 27.58V26.3768H73.5808ZM92.9357 69.3548H92.5607V69.7298H92.9357V69.3548ZM99.3874 69.3548L99.3875 68.9798H99.3874V69.3548ZM100.877 70.3506L101.224 70.2071V70.2071L100.877 70.3506ZM100.528 72.1081L100.793 72.3732L100.793 72.3732L100.528 72.1081ZM84.3986 88.2371L84.1334 87.9719L84.1334 87.972L84.3986 88.2371ZM83.2583 88.7097L83.2582 89.0847H83.2583L83.2583 88.7097ZM82.1179 88.2371L82.3831 87.972L82.3831 87.9719L82.1179 88.2371ZM65.9888 72.1081L65.7236 72.3732L65.7236 72.3732L65.9888 72.1081ZM67.1291 69.3548V68.9798H67.1291L67.1291 69.3548ZM73.5808 69.3548V69.7298H73.9558V69.3548H73.5808ZM73.5808 57.4731H73.9558V56.2691L73.2721 57.2602L73.5808 57.4731ZM60.6775 67.5887L60.5448 67.238L60.3025 67.3296V67.5887H60.6775ZM60.6775 80.6452H60.3025V81.0202H60.6775V80.6452ZM67.1291 80.6452L67.1292 80.2702H67.1291V80.6452ZM68.6189 81.6409L68.9654 81.4974V81.4974L68.6189 81.6409ZM68.2695 83.3984L68.5346 83.6636L68.5347 83.6635L68.2695 83.3984ZM52.1403 99.5274L51.8752 99.2623L51.8751 99.2623L52.1403 99.5274ZM51 100L50.9999 100.375H51.0001L51 100ZM49.8597 99.5274L50.1249 99.2623L50.1248 99.2623L49.8597 99.5274ZM33.7305 83.3984L33.4653 83.6635L33.4654 83.6636L33.7305 83.3984ZM34.8709 80.6452V80.2702H34.8708L34.8709 80.6452ZM41.3225 80.6452V81.0202H41.6975V80.6452H41.3225ZM41.3225 67.5982H41.6975V67.3389L41.4549 67.2474L41.3225 67.5982ZM28.4192 57.4942L28.7278 57.2812L28.0442 56.2909V57.4942H28.4192ZM28.4192 69.3548H28.0442V69.7298H28.4192V69.3548ZM34.8709 69.3548L34.871 68.9798H34.8709V69.3548ZM36.0112 72.1081L36.2764 72.3732L36.2764 72.3732L36.0112 72.1081ZM19.8821 88.2371L19.6169 87.9719L19.6169 87.972L19.8821 88.2371ZM25.1934 51.223H25.5684V51.1576L25.5462 51.096L25.1934 51.223ZM30.9773 72.5806L31.2425 72.8458L31.8826 72.2056H30.9773V72.5806ZM18.7417 84.8161L18.4766 85.0813L18.7417 85.3465L19.0069 85.0813L18.7417 84.8161ZM6.50619 72.5806V72.2056H5.60085L6.24102 72.8458L6.50619 72.5806ZM12.2901 3.22581V2.85081H11.9151V3.22581H12.2901ZM25.1934 3.22581H25.5684V2.85081H25.1934V3.22581ZM25.1934 32.648L25.5462 32.775L25.5684 32.7134V32.648H25.1934ZM28.3252 50.3915L27.9721 50.518L27.9738 50.5225L28.3252 50.3915ZM28.3114 50.3546L27.9599 50.4851L27.9616 50.4897L28.3114 50.3546ZM28.3115 33.5163L27.9616 33.3812L27.9599 33.3857L28.3115 33.5163ZM28.3251 33.4796L27.9737 33.3485L27.9721 33.3531L28.3251 33.4796ZM43.3222 18.9856L43.2326 18.6215L43.2178 18.6251L43.2033 18.6299L43.3222 18.9856ZM43.554 18.9094L43.4387 18.5525L43.4242 18.5572L43.4101 18.5631L43.554 18.9094ZM51 17.7419L51.0004 17.3669H51V17.7419ZM75.1937 41.9355H75.5687V41.9351L75.1937 41.9355ZM73.6887 50.3543L74.0385 50.4895L74.0402 50.4848L73.6887 50.3543ZM73.6747 50.3918L74.0261 50.5229L74.0278 50.5181L73.6747 50.3918ZM58.6779 64.8854L58.7675 65.2495L58.7823 65.2458L58.7968 65.241L58.6779 64.8854ZM58.4459 64.9616L58.5612 65.3185L58.5757 65.3138L58.5898 65.3079L58.4459 64.9616ZM43.5541 64.9616L43.4101 65.3079L43.4242 65.3137L43.4388 65.3184L43.5541 64.9616ZM43.3221 64.8854L43.2032 65.241L43.2177 65.2458L43.2325 65.2495L43.3221 64.8854ZM44.5483 68.5915L44.6363 68.227L44.1733 68.1153V68.5915H44.5483ZM38.7644 83.871V83.496H37.8591L38.4993 84.1361L38.7644 83.871ZM51 96.1064L50.7348 96.3716L51 96.6368L51.2652 96.3716L51 96.1064ZM63.2356 83.871L63.5007 84.1361L64.1409 83.496H63.2356V83.871ZM57.4517 68.585H57.8267V68.1083L57.3634 68.2205L57.4517 68.585ZM51 69.3548V69.7298H51.0004L51 69.3548ZM76.8066 51.1976L76.4537 51.0707L76.4316 51.1322V51.1976H76.8066ZM71.0227 72.5806V72.2056H70.1174L70.7575 72.8458L71.0227 72.5806ZM83.2583 84.8161L82.9931 85.0813L83.2583 85.3465L83.5234 85.0813L83.2583 84.8161ZM95.4938 72.5806L95.759 72.8458L96.3991 72.2056H95.4938V72.5806ZM89.7099 3.22581H90.0849V2.85081H89.7099V3.22581ZM76.8066 3.22581V2.85081H76.4316V3.22581H76.8066ZM76.8066 32.648H76.4316V32.7134L76.4538 32.775L76.8066 32.648ZM78.4195 41.9355L78.7945 41.9359V41.9355H78.4195ZM44.5483 15.2795H44.1733V15.7556L44.6363 15.644L44.5483 15.2795ZM57.4516 15.2795L57.3637 15.644L57.8266 15.7556V15.2795H57.4516ZM57.4516 3.22581H57.8266V2.85081H57.4516V3.22581ZM44.5483 3.22581V2.85081H44.1733V3.22581H44.5483ZM17.3362 88.5022C17.7089 88.8751 18.2145 89.0846 18.7417 89.0847L18.7418 88.3347C18.4135 88.3346 18.0987 88.2041 17.8666 87.972L17.3362 88.5022ZM1.20712 72.3732L17.3363 88.5023L17.8666 87.9719L1.73745 71.8429L1.20712 72.3732ZM0.776345 70.2071C0.468726 70.9498 0.638721 71.8047 1.20708 72.3732L1.73749 71.8429C1.38356 71.4889 1.2777 70.9566 1.46926 70.494L0.776345 70.2071ZM2.61254 68.9798C1.80863 68.98 1.08396 69.4643 0.776345 70.2071L1.46926 70.494C1.66082 70.0315 2.11209 69.7299 2.61269 69.7298L2.61254 68.9798ZM9.06427 68.9798H2.61262V69.7298H9.06427V68.9798ZM8.68927 1.6129V69.3548H9.43927V1.6129H8.68927ZM10.6772 -0.375C9.57929 -0.375 8.68927 0.515013 8.68927 1.6129H9.43927C9.43927 0.92923 9.9935 0.375 10.6772 0.375V-0.375ZM26.8063 -0.375H10.6772V0.375H26.8063V-0.375ZM28.7942 1.6129C28.7942 0.515012 27.9042 -0.375 26.8063 -0.375V0.375C27.49 0.375 28.0442 0.92923 28.0442 1.6129H28.7942ZM28.7942 26.3768V1.6129H28.0442V26.3768H28.7942ZM41.1901 15.9219C35.8538 17.9352 31.3006 21.5429 28.1106 26.1637L28.7278 26.5898C31.8323 22.0928 36.2634 18.5823 41.4549 16.6236L41.1901 15.9219ZM41.6975 16.2728V1.6129H40.9475V16.2728H41.6975ZM41.6975 1.6129C41.6975 0.92923 42.2518 0.375 42.9354 0.375V-0.375C41.8375 -0.375 40.9475 0.515013 40.9475 1.6129H41.6975ZM42.9354 0.375H59.0646V-0.375H42.9354V0.375ZM59.0646 0.375C59.7482 0.375 60.3025 0.929231 60.3025 1.6129H61.0525C61.0525 0.515012 60.1625 -0.375 59.0646 -0.375V0.375ZM60.3025 1.6129V16.2728H61.0525V1.6129H60.3025ZM73.8894 26.1637C70.6994 21.5429 66.1462 17.9352 60.8098 15.9219L60.5451 16.6236C65.7366 18.5823 70.1677 22.0928 73.2722 26.5898L73.8894 26.1637ZM73.2058 1.6129V26.3768H73.9558V1.6129H73.2058ZM75.1937 -0.375C74.0958 -0.375 73.2058 0.515014 73.2058 1.6129H73.9558C73.9558 0.929229 74.51 0.375 75.1937 0.375V-0.375ZM91.3228 -0.375H75.1937V0.375H91.3228V-0.375ZM93.3107 1.6129C93.3107 0.515013 92.4207 -0.375 91.3228 -0.375V0.375C92.0065 0.375 92.5607 0.92923 92.5607 1.6129H93.3107ZM93.3107 69.3548V1.6129H92.5607V69.3548H93.3107ZM99.3874 68.9798H92.9357V69.7298H99.3874V68.9798ZM101.224 70.2071C100.916 69.4643 100.191 68.98 99.3875 68.9798L99.3873 69.7298C99.8879 69.7299 100.339 70.0315 100.531 70.4941L101.224 70.2071ZM100.793 72.3732C101.361 71.8047 101.531 70.9498 101.224 70.2071L100.531 70.494C100.722 70.9566 100.616 71.4889 100.263 71.8429L100.793 72.3732ZM84.6637 88.5023L100.793 72.3732L100.263 71.8429L84.1334 87.9719L84.6637 88.5023ZM83.2583 89.0847C83.7855 89.0846 84.2911 88.8751 84.6638 88.5022L84.1334 87.972C83.9013 88.2041 83.5865 88.3346 83.2582 88.3347L83.2583 89.0847ZM81.8527 88.5022C82.2254 88.8751 82.731 89.0846 83.2582 89.0847L83.2583 88.3347C82.93 88.3346 82.6152 88.2041 82.3831 87.972L81.8527 88.5022ZM65.7236 72.3732L81.8528 88.5023L82.3831 87.9719L66.254 71.8429L65.7236 72.3732ZM65.2929 70.2071C64.9852 70.9498 65.1552 71.8047 65.7236 72.3732L66.254 71.8429C65.9001 71.4889 65.7942 70.9566 65.9858 70.494L65.2929 70.2071ZM67.1291 68.9798C66.3251 68.98 65.6005 69.4643 65.2929 70.2071L65.9858 70.494C66.1773 70.0315 66.6286 69.7299 67.1292 69.7298L67.1291 68.9798ZM73.5808 68.9798H67.1291V69.7298H73.5808V68.9798ZM73.2058 57.4731V69.3548H73.9558V57.4731H73.2058ZM60.8101 67.9395C66.1468 65.9213 70.6998 62.31 73.8895 57.6861L73.2721 57.2602C70.1678 61.7604 65.7368 65.2745 60.5448 67.238L60.8101 67.9395ZM61.0525 80.6452V67.5887H60.3025V80.6452H61.0525ZM67.1291 80.2702H60.6775V81.0202H67.1291V80.2702ZM68.9654 81.4974C68.6578 80.7547 67.9331 80.2703 67.1292 80.2702L67.129 81.0202C67.6297 81.0203 68.0809 81.3219 68.2725 81.7844L68.9654 81.4974ZM68.5347 83.6635C69.103 83.095 69.273 82.2401 68.9654 81.4974L68.2725 81.7844C68.464 82.2469 68.3582 82.7792 68.0042 83.1333L68.5347 83.6635ZM52.4055 99.7926L68.5346 83.6636L68.0043 83.1332L51.8752 99.2623L52.4055 99.7926ZM51.0001 100.375C51.5273 100.375 52.0328 100.165 52.4055 99.7925L51.8751 99.2623C51.643 99.4945 51.3282 99.6249 50.9999 99.625L51.0001 100.375ZM49.5945 99.7925C49.9672 100.165 50.4727 100.375 50.9999 100.375L51.0001 99.625C50.6718 99.6249 50.357 99.4945 50.1249 99.2623L49.5945 99.7925ZM33.4654 83.6636L49.5945 99.7926L50.1248 99.2623L33.9957 83.1332L33.4654 83.6636ZM33.0346 81.4974C32.727 82.2401 32.897 83.095 33.4653 83.6635L33.9957 83.1333C33.6418 82.7792 33.536 82.2469 33.7275 81.7844L33.0346 81.4974ZM34.8708 80.2702C34.0669 80.2703 33.3422 80.7547 33.0346 81.4974L33.7275 81.7844C33.9191 81.3219 34.3703 81.0203 34.871 81.0202L34.8708 80.2702ZM41.3225 80.2702H34.8709V81.0202H41.3225V80.2702ZM40.9475 67.5982V80.6452H41.6975V67.5982H40.9475ZM28.1106 57.7072C31.3006 62.328 35.8538 65.9357 41.1901 67.9491L41.4549 67.2474C36.2634 65.2887 31.8323 61.7782 28.7278 57.2812L28.1106 57.7072ZM28.7942 69.3548V57.4942H28.0442V69.3548H28.7942ZM34.8709 68.9798H28.4192V69.7298H34.8709V68.9798ZM36.7071 70.2071C36.3995 69.4643 35.6749 68.98 34.871 68.9798L34.8708 69.7298C35.3714 69.7299 35.8227 70.0315 36.0142 70.494L36.7071 70.2071ZM36.2764 72.3732C36.8448 71.8047 37.0148 70.9498 36.7071 70.2071L36.0142 70.494C36.2058 70.9566 36.0999 71.4889 35.746 71.8429L36.2764 72.3732ZM20.1472 88.5023L36.2764 72.3732L35.746 71.8429L19.6169 87.9719L20.1472 88.5023ZM18.7418 89.0847C19.269 89.0846 19.7746 88.8751 20.1473 88.5022L19.6169 87.972C19.3848 88.2041 19.07 88.3346 18.7417 88.3347L18.7418 89.0847ZM24.8184 51.223V70.9677H25.5684V51.223H24.8184ZM24.8184 70.9677C24.8184 72.0656 25.7084 72.9556 26.8063 72.9556V72.2056C26.1226 72.2056 25.5684 71.6514 25.5684 70.9677H24.8184ZM26.8063 72.9556H30.9773V72.2056H26.8063V72.9556ZM30.7121 72.3155L18.4766 84.551L19.0069 85.0813L31.2425 72.8458L30.7121 72.3155ZM19.0069 84.551L6.77135 72.3155L6.24102 72.8458L18.4766 85.0813L19.0069 84.551ZM6.50619 72.9556H10.6772V72.2056H6.50619V72.9556ZM10.6772 72.9556C11.7751 72.9556 12.6651 72.0656 12.6651 70.9677H11.9151C11.9151 71.6514 11.3609 72.2056 10.6772 72.2056V72.9556ZM12.6651 70.9677V3.22581H11.9151V70.9677H12.6651ZM12.2901 3.60081H25.1934V2.85081H12.2901V3.60081ZM24.8184 3.22581V32.648H25.5684V3.22581H24.8184ZM24.8406 32.521C23.7821 35.4615 23.2055 38.6316 23.2055 41.9355H23.9555C23.9555 38.7194 24.5167 35.6352 25.5462 32.775L24.8406 32.521ZM23.2055 41.9355C23.2055 45.2394 23.7821 48.4095 24.8406 51.35L25.5462 51.096C24.5167 48.2358 23.9555 45.1516 23.9555 41.9355H23.2055ZM28.6782 50.265C28.6727 50.2497 28.6671 50.2346 28.6613 50.2195L27.9616 50.4897C27.9652 50.4991 27.9688 50.5085 27.9721 50.5179L28.6782 50.265ZM28.663 50.2241C27.705 47.6433 27.1813 44.851 27.1813 41.9355H26.4313C26.4313 44.9414 26.9713 47.822 27.9599 50.4851L28.663 50.2241ZM27.1813 41.9355C27.1813 39.02 27.705 36.2276 28.6631 33.6468L27.9599 33.3857C26.9713 36.0489 26.4313 38.9295 26.4313 41.9355H27.1813ZM28.6613 33.6513C28.6671 33.6364 28.6727 33.6213 28.6781 33.6061L27.9721 33.3531C27.9687 33.3625 27.9653 33.3719 27.9617 33.3812L28.6613 33.6513ZM28.6765 33.6107C31.1802 26.8997 36.6243 21.6207 43.4411 19.3412L43.2033 18.6299C36.1711 20.9815 30.5565 26.4259 27.9738 33.3486L28.6765 33.6107ZM43.4101 18.5631C43.353 18.5868 43.2937 18.6064 43.2326 18.6215L43.4118 19.3497C43.5103 19.3255 43.6059 19.2939 43.6979 19.2557L43.4101 18.5631ZM43.6693 19.2662C45.9782 18.5202 48.4416 18.1169 51 18.1169V17.3669C48.3624 17.3669 45.8212 17.7827 43.4387 18.5525L43.6693 19.2662ZM50.9996 18.1169C64.1483 18.1318 74.8038 28.7872 74.8187 41.9359L75.5687 41.9351C75.5534 28.3728 64.5627 17.3823 51.0004 17.3669L50.9996 18.1169ZM74.8187 41.9355C74.8187 44.8508 74.2951 47.6431 73.3371 50.2238L74.0402 50.4848C75.0287 47.8218 75.5687 44.9413 75.5687 41.9355H74.8187ZM73.3389 50.2191C73.3329 50.2345 73.3272 50.2499 73.3216 50.2654L74.0278 50.5181C74.0312 50.5085 74.0348 50.499 74.0384 50.4895L73.3389 50.2191ZM73.3234 50.2607C70.8196 56.9715 65.3756 62.2502 58.559 64.5297L58.7968 65.241C65.8288 62.8895 71.4433 57.4453 74.0261 50.5228L73.3234 50.2607ZM58.5883 64.5212C58.4897 64.5455 58.3941 64.577 58.3019 64.6153L58.5898 65.3079C58.647 65.2841 58.7064 65.2645 58.7675 65.2495L58.5883 64.5212ZM58.3306 64.6048C56.0217 65.3508 53.5583 65.754 51 65.754V66.504C53.6376 66.504 56.1787 66.0883 58.5612 65.3185L58.3306 64.6048ZM51 65.754C48.4417 65.754 45.9782 65.3508 43.6694 64.6048L43.4388 65.3184C45.8212 66.0883 48.3624 66.504 51 66.504V65.754ZM43.698 64.6153C43.6059 64.577 43.5103 64.5455 43.4117 64.5212L43.2325 65.2495C43.2937 65.2645 43.353 65.2841 43.4101 65.3079L43.698 64.6153ZM43.4411 64.5297C36.6243 62.2502 31.1803 56.9714 28.6765 50.2604L27.9738 50.5225C30.5566 57.4451 36.1711 62.8895 43.2032 65.241L43.4411 64.5297ZM44.9233 82.2581V68.5915H44.1733V82.2581H44.9233ZM42.9354 84.246C44.0333 84.246 44.9233 83.3559 44.9233 82.2581H44.1733C44.1733 82.9417 43.6191 83.496 42.9354 83.496V84.246ZM38.7644 84.246H42.9354V83.496H38.7644V84.246ZM51.2652 95.8413L39.0296 83.6058L38.4993 84.1361L50.7348 96.3716L51.2652 95.8413ZM62.9704 83.6058L50.7348 95.8413L51.2652 96.3716L63.5007 84.1361L62.9704 83.6058ZM59.0646 84.246H63.2356V83.496H59.0646V84.246ZM57.0767 82.2581C57.0767 83.3559 57.9667 84.246 59.0646 84.246V83.496C58.3809 83.496 57.8267 82.9417 57.8267 82.2581H57.0767ZM57.0767 68.585V82.2581H57.8267V68.585H57.0767ZM51.0004 69.7298C53.2525 69.7273 55.4425 69.4572 57.5399 68.9494L57.3634 68.2205C55.3231 68.7145 53.1921 68.9774 50.9996 68.9798L51.0004 69.7298ZM44.4604 68.9561C46.558 69.4619 48.748 69.7298 51 69.7298V68.9798C48.8076 68.9798 46.6767 68.7191 44.6363 68.227L44.4604 68.9561ZM77.1816 70.9677V51.1976H76.4316V70.9677H77.1816ZM75.1937 72.9556C76.2916 72.9556 77.1816 72.0656 77.1816 70.9677H76.4316C76.4316 71.6514 75.8774 72.2056 75.1937 72.2056V72.9556ZM71.0227 72.9556H75.1937V72.2056H71.0227V72.9556ZM83.5234 84.551L71.2879 72.3155L70.7575 72.8458L82.9931 85.0813L83.5234 84.551ZM95.2286 72.3155L82.9931 84.551L83.5234 85.0813L95.759 72.8458L95.2286 72.3155ZM91.3228 72.9556H95.4938V72.2056H91.3228V72.9556ZM89.3349 70.9677C89.3349 72.0656 90.2249 72.9556 91.3228 72.9556V72.2056C90.6391 72.2056 90.0849 71.6514 90.0849 70.9677H89.3349ZM89.3349 3.22581V70.9677H90.0849V3.22581H89.3349ZM76.8066 3.60081H89.7099V2.85081H76.8066V3.60081ZM77.1816 32.648V3.22581H76.4316V32.648H77.1816ZM78.7945 41.9355C78.7945 38.6316 78.2179 35.4615 77.1594 32.521L76.4538 32.775C77.4833 35.6352 78.0445 38.7194 78.0445 41.9355H78.7945ZM77.1595 51.3245C78.2145 48.3915 78.7908 45.2304 78.7945 41.9359L78.0445 41.9351C78.0409 45.142 77.48 48.2176 76.4537 51.0707L77.1595 51.3245ZM51 14.1411C48.748 14.1411 46.558 14.409 44.4604 14.9149L44.6363 15.644C46.6767 15.1519 48.8076 14.8911 51 14.8911V14.1411ZM57.5396 14.9149C55.442 14.409 53.252 14.1411 51 14.1411V14.8911C53.1924 14.8911 55.3233 15.1519 57.3637 15.644L57.5396 14.9149ZM57.8266 15.2795V3.22581H57.0766V15.2795H57.8266ZM57.4516 2.85081H44.5483V3.60081H57.4516V2.85081ZM44.1733 3.22581V15.2795H44.9233V3.22581H44.1733Z" fill="white"/>
<path d="M17.6014 88.2371L17.8666 87.972L17.8666 87.9719L17.6014 88.2371ZM18.7417 88.7097L18.7417 89.0847H18.7418L18.7417 88.7097ZM1.47229 72.1081L1.20708 72.3732L1.20712 72.3732L1.47229 72.1081ZM1.1228 70.3506L0.776345 70.2071L1.1228 70.3506ZM2.61262 69.3548V68.9798H2.61254L2.61262 69.3548ZM9.06427 69.3548V69.7298H9.43927V69.3548H9.06427ZM28.4192 26.3768H28.0442V27.58L28.7278 26.5898L28.4192 26.3768ZM41.3225 16.2728L41.4549 16.6236L41.6975 16.5321V16.2728H41.3225ZM60.6775 16.2728H60.3025V16.5321L60.5451 16.6236L60.6775 16.2728ZM73.5808 26.3768L73.2722 26.5898L73.9558 27.58V26.3768H73.5808ZM92.9357 69.3548H92.5607V69.7298H92.9357V69.3548ZM99.3874 69.3548L99.3875 68.9798H99.3874V69.3548ZM100.877 70.3506L101.224 70.2071V70.2071L100.877 70.3506ZM100.528 72.1081L100.793 72.3732L100.793 72.3732L100.528 72.1081ZM84.3986 88.2371L84.1334 87.9719L84.1334 87.972L84.3986 88.2371ZM83.2583 88.7097L83.2582 89.0847H83.2583L83.2583 88.7097ZM82.1179 88.2371L82.3831 87.972L82.3831 87.9719L82.1179 88.2371ZM65.9888 72.1081L65.7236 72.3732L65.7236 72.3732L65.9888 72.1081ZM67.1291 69.3548V68.9798H67.1291L67.1291 69.3548ZM73.5808 69.3548V69.7298H73.9558V69.3548H73.5808ZM73.5808 57.4731H73.9558V56.2691L73.2721 57.2602L73.5808 57.4731ZM60.6775 67.5887L60.5448 67.238L60.3025 67.3296V67.5887H60.6775ZM60.6775 80.6452H60.3025V81.0202H60.6775V80.6452ZM67.1291 80.6452L67.1292 80.2702H67.1291V80.6452ZM68.6189 81.6409L68.9654 81.4974V81.4974L68.6189 81.6409ZM68.2695 83.3984L68.5346 83.6636L68.5347 83.6635L68.2695 83.3984ZM52.1403 99.5274L51.8752 99.2623L51.8751 99.2623L52.1403 99.5274ZM51 100L50.9999 100.375H51.0001L51 100ZM49.8597 99.5274L50.1249 99.2623L50.1248 99.2623L49.8597 99.5274ZM33.7305 83.3984L33.4653 83.6635L33.4654 83.6636L33.7305 83.3984ZM34.8709 80.6452V80.2702H34.8708L34.8709 80.6452ZM41.3225 80.6452V81.0202H41.6975V80.6452H41.3225ZM41.3225 67.5982H41.6975V67.3389L41.4549 67.2474L41.3225 67.5982ZM28.4192 57.4942L28.7278 57.2812L28.0442 56.2909V57.4942H28.4192ZM28.4192 69.3548H28.0442V69.7298H28.4192V69.3548ZM34.8709 69.3548L34.871 68.9798H34.8709V69.3548ZM36.0112 72.1081L36.2764 72.3732L36.2764 72.3732L36.0112 72.1081ZM19.8821 88.2371L19.6169 87.9719L19.6169 87.972L19.8821 88.2371ZM25.1934 51.223H25.5684V51.1576L25.5462 51.096L25.1934 51.223ZM30.9773 72.5806L31.2425 72.8458L31.8826 72.2056H30.9773V72.5806ZM18.7417 84.8161L18.4766 85.0813L18.7417 85.3465L19.0069 85.0813L18.7417 84.8161ZM6.50619 72.5806V72.2056H5.60085L6.24102 72.8458L6.50619 72.5806ZM12.2901 3.22581V2.85081H11.9151V3.22581H12.2901ZM25.1934 3.22581H25.5684V2.85081H25.1934V3.22581ZM25.1934 32.648L25.5462 32.775L25.5684 32.7134V32.648H25.1934ZM28.3252 50.3915L27.9721 50.518L27.9738 50.5225L28.3252 50.3915ZM28.3114 50.3546L27.9599 50.4851L27.9616 50.4897L28.3114 50.3546ZM28.3115 33.5163L27.9616 33.3812L27.9599 33.3857L28.3115 33.5163ZM28.3251 33.4796L27.9737 33.3485L27.9721 33.3531L28.3251 33.4796ZM43.3222 18.9856L43.2326 18.6215L43.2178 18.6251L43.2033 18.6299L43.3222 18.9856ZM43.554 18.9094L43.4387 18.5525L43.4242 18.5572L43.4101 18.5631L43.554 18.9094ZM51 17.7419L51.0004 17.3669H51V17.7419ZM75.1937 41.9355H75.5687V41.9351L75.1937 41.9355ZM73.6887 50.3543L74.0385 50.4895L74.0402 50.4848L73.6887 50.3543ZM73.6747 50.3918L74.0261 50.5229L74.0278 50.5181L73.6747 50.3918ZM58.6779 64.8854L58.7675 65.2495L58.7823 65.2458L58.7968 65.241L58.6779 64.8854ZM58.4459 64.9616L58.5612 65.3185L58.5757 65.3138L58.5898 65.3079L58.4459 64.9616ZM43.5541 64.9616L43.4101 65.3079L43.4242 65.3137L43.4388 65.3184L43.5541 64.9616ZM43.3221 64.8854L43.2032 65.241L43.2177 65.2458L43.2325 65.2495L43.3221 64.8854ZM44.5483 68.5915L44.6363 68.227L44.1733 68.1153V68.5915H44.5483ZM38.7644 83.871V83.496H37.8591L38.4993 84.1361L38.7644 83.871ZM51 96.1064L50.7348 96.3716L51 96.6368L51.2652 96.3716L51 96.1064ZM63.2356 83.871L63.5007 84.1361L64.1409 83.496H63.2356V83.871ZM57.4517 68.585H57.8267V68.1083L57.3634 68.2205L57.4517 68.585ZM51 69.3548V69.7298H51.0004L51 69.3548ZM76.8066 51.1976L76.4537 51.0707L76.4316 51.1322V51.1976H76.8066ZM71.0227 72.5806V72.2056H70.1174L70.7575 72.8458L71.0227 72.5806ZM83.2583 84.8161L82.9931 85.0813L83.2583 85.3465L83.5234 85.0813L83.2583 84.8161ZM95.4938 72.5806L95.759 72.8458L96.3991 72.2056H95.4938V72.5806ZM89.7099 3.22581H90.0849V2.85081H89.7099V3.22581ZM76.8066 3.22581V2.85081H76.4316V3.22581H76.8066ZM76.8066 32.648H76.4316V32.7134L76.4538 32.775L76.8066 32.648ZM78.4195 41.9355L78.7945 41.9359V41.9355H78.4195ZM44.5483 15.2795H44.1733V15.7556L44.6363 15.644L44.5483 15.2795ZM57.4516 15.2795L57.3637 15.644L57.8266 15.7556V15.2795H57.4516ZM57.4516 3.22581H57.8266V2.85081H57.4516V3.22581ZM44.5483 3.22581V2.85081H44.1733V3.22581H44.5483ZM17.3362 88.5022C17.7089 88.8751 18.2145 89.0846 18.7417 89.0847L18.7418 88.3347C18.4135 88.3346 18.0987 88.2041 17.8666 87.972L17.3362 88.5022ZM1.20712 72.3732L17.3363 88.5023L17.8666 87.9719L1.73745 71.8429L1.20712 72.3732ZM0.776345 70.2071C0.468726 70.9498 0.638721 71.8047 1.20708 72.3732L1.73749 71.8429C1.38356 71.4889 1.2777 70.9566 1.46926 70.494L0.776345 70.2071ZM2.61254 68.9798C1.80863 68.98 1.08396 69.4643 0.776345 70.2071L1.46926 70.494C1.66082 70.0315 2.11209 69.7299 2.61269 69.7298L2.61254 68.9798ZM9.06427 68.9798H2.61262V69.7298H9.06427V68.9798ZM8.68927 1.6129V69.3548H9.43927V1.6129H8.68927ZM10.6772 -0.375C9.57929 -0.375 8.68927 0.515013 8.68927 1.6129H9.43927C9.43927 0.92923 9.9935 0.375 10.6772 0.375V-0.375ZM26.8063 -0.375H10.6772V0.375H26.8063V-0.375ZM28.7942 1.6129C28.7942 0.515012 27.9042 -0.375 26.8063 -0.375V0.375C27.49 0.375 28.0442 0.92923 28.0442 1.6129H28.7942ZM28.7942 26.3768V1.6129H28.0442V26.3768H28.7942ZM41.1901 15.9219C35.8538 17.9352 31.3006 21.5429 28.1106 26.1637L28.7278 26.5898C31.8323 22.0928 36.2634 18.5823 41.4549 16.6236L41.1901 15.9219ZM41.6975 16.2728V1.6129H40.9475V16.2728H41.6975ZM41.6975 1.6129C41.6975 0.92923 42.2518 0.375 42.9354 0.375V-0.375C41.8375 -0.375 40.9475 0.515013 40.9475 1.6129H41.6975ZM42.9354 0.375H59.0646V-0.375H42.9354V0.375ZM59.0646 0.375C59.7482 0.375 60.3025 0.929231 60.3025 1.6129H61.0525C61.0525 0.515012 60.1625 -0.375 59.0646 -0.375V0.375ZM60.3025 1.6129V16.2728H61.0525V1.6129H60.3025ZM73.8894 26.1637C70.6994 21.5429 66.1462 17.9352 60.8098 15.9219L60.5451 16.6236C65.7366 18.5823 70.1677 22.0928 73.2722 26.5898L73.8894 26.1637ZM73.2058 1.6129V26.3768H73.9558V1.6129H73.2058ZM75.1937 -0.375C74.0958 -0.375 73.2058 0.515014 73.2058 1.6129H73.9558C73.9558 0.929229 74.51 0.375 75.1937 0.375V-0.375ZM91.3228 -0.375H75.1937V0.375H91.3228V-0.375ZM93.3107 1.6129C93.3107 0.515013 92.4207 -0.375 91.3228 -0.375V0.375C92.0065 0.375 92.5607 0.92923 92.5607 1.6129H93.3107ZM93.3107 69.3548V1.6129H92.5607V69.3548H93.3107ZM99.3874 68.9798H92.9357V69.7298H99.3874V68.9798ZM101.224 70.2071C100.916 69.4643 100.191 68.98 99.3875 68.9798L99.3873 69.7298C99.8879 69.7299 100.339 70.0315 100.531 70.4941L101.224 70.2071ZM100.793 72.3732C101.361 71.8047 101.531 70.9498 101.224 70.2071L100.531 70.494C100.722 70.9566 100.616 71.4889 100.263 71.8429L100.793 72.3732ZM84.6637 88.5023L100.793 72.3732L100.263 71.8429L84.1334 87.9719L84.6637 88.5023ZM83.2583 89.0847C83.7855 89.0846 84.2911 88.8751 84.6638 88.5022L84.1334 87.972C83.9013 88.2041 83.5865 88.3346 83.2582 88.3347L83.2583 89.0847ZM81.8527 88.5022C82.2254 88.8751 82.731 89.0846 83.2582 89.0847L83.2583 88.3347C82.93 88.3346 82.6152 88.2041 82.3831 87.972L81.8527 88.5022ZM65.7236 72.3732L81.8528 88.5023L82.3831 87.9719L66.254 71.8429L65.7236 72.3732ZM65.2929 70.2071C64.9852 70.9498 65.1552 71.8047 65.7236 72.3732L66.254 71.8429C65.9001 71.4889 65.7942 70.9566 65.9858 70.494L65.2929 70.2071ZM67.1291 68.9798C66.3251 68.98 65.6005 69.4643 65.2929 70.2071L65.9858 70.494C66.1773 70.0315 66.6286 69.7299 67.1292 69.7298L67.1291 68.9798ZM73.5808 68.9798H67.1291V69.7298H73.5808V68.9798ZM73.2058 57.4731V69.3548H73.9558V57.4731H73.2058ZM60.8101 67.9395C66.1468 65.9213 70.6998 62.31 73.8895 57.6861L73.2721 57.2602C70.1678 61.7604 65.7368 65.2745 60.5448 67.238L60.8101 67.9395ZM61.0525 80.6452V67.5887H60.3025V80.6452H61.0525ZM67.1291 80.2702H60.6775V81.0202H67.1291V80.2702ZM68.9654 81.4974C68.6578 80.7547 67.9331 80.2703 67.1292 80.2702L67.129 81.0202C67.6297 81.0203 68.0809 81.3219 68.2725 81.7844L68.9654 81.4974ZM68.5347 83.6635C69.103 83.095 69.273 82.2401 68.9654 81.4974L68.2725 81.7844C68.464 82.2469 68.3582 82.7792 68.0042 83.1333L68.5347 83.6635ZM52.4055 99.7926L68.5346 83.6636L68.0043 83.1332L51.8752 99.2623L52.4055 99.7926ZM51.0001 100.375C51.5273 100.375 52.0328 100.165 52.4055 99.7925L51.8751 99.2623C51.643 99.4945 51.3282 99.6249 50.9999 99.625L51.0001 100.375ZM49.5945 99.7925C49.9672 100.165 50.4727 100.375 50.9999 100.375L51.0001 99.625C50.6718 99.6249 50.357 99.4945 50.1249 99.2623L49.5945 99.7925ZM33.4654 83.6636L49.5945 99.7926L50.1248 99.2623L33.9957 83.1332L33.4654 83.6636ZM33.0346 81.4974C32.727 82.2401 32.897 83.095 33.4653 83.6635L33.9957 83.1333C33.6418 82.7792 33.536 82.2469 33.7275 81.7844L33.0346 81.4974ZM34.8708 80.2702C34.0669 80.2703 33.3422 80.7547 33.0346 81.4974L33.7275 81.7844C33.9191 81.3219 34.3703 81.0203 34.871 81.0202L34.8708 80.2702ZM41.3225 80.2702H34.8709V81.0202H41.3225V80.2702ZM40.9475 67.5982V80.6452H41.6975V67.5982H40.9475ZM28.1106 57.7072C31.3006 62.328 35.8538 65.9357 41.1901 67.9491L41.4549 67.2474C36.2634 65.2887 31.8323 61.7782 28.7278 57.2812L28.1106 57.7072ZM28.7942 69.3548V57.4942H28.0442V69.3548H28.7942ZM34.8709 68.9798H28.4192V69.7298H34.8709V68.9798ZM36.7071 70.2071C36.3995 69.4643 35.6749 68.98 34.871 68.9798L34.8708 69.7298C35.3714 69.7299 35.8227 70.0315 36.0142 70.494L36.7071 70.2071ZM36.2764 72.3732C36.8448 71.8047 37.0148 70.9498 36.7071 70.2071L36.0142 70.494C36.2058 70.9566 36.0999 71.4889 35.746 71.8429L36.2764 72.3732ZM20.1472 88.5023L36.2764 72.3732L35.746 71.8429L19.6169 87.9719L20.1472 88.5023ZM18.7418 89.0847C19.269 89.0846 19.7746 88.8751 20.1473 88.5022L19.6169 87.972C19.3848 88.2041 19.07 88.3346 18.7417 88.3347L18.7418 89.0847ZM24.8184 51.223V70.9677H25.5684V51.223H24.8184ZM24.8184 70.9677C24.8184 72.0656 25.7084 72.9556 26.8063 72.9556V72.2056C26.1226 72.2056 25.5684 71.6514 25.5684 70.9677H24.8184ZM26.8063 72.9556H30.9773V72.2056H26.8063V72.9556ZM30.7121 72.3155L18.4766 84.551L19.0069 85.0813L31.2425 72.8458L30.7121 72.3155ZM19.0069 84.551L6.77135 72.3155L6.24102 72.8458L18.4766 85.0813L19.0069 84.551ZM6.50619 72.9556H10.6772V72.2056H6.50619V72.9556ZM10.6772 72.9556C11.7751 72.9556 12.6651 72.0656 12.6651 70.9677H11.9151C11.9151 71.6514 11.3609 72.2056 10.6772 72.2056V72.9556ZM12.6651 70.9677V3.22581H11.9151V70.9677H12.6651ZM12.2901 3.60081H25.1934V2.85081H12.2901V3.60081ZM24.8184 3.22581V32.648H25.5684V3.22581H24.8184ZM24.8406 32.521C23.7821 35.4615 23.2055 38.6316 23.2055 41.9355H23.9555C23.9555 38.7194 24.5167 35.6352 25.5462 32.775L24.8406 32.521ZM23.2055 41.9355C23.2055 45.2394 23.7821 48.4095 24.8406 51.35L25.5462 51.096C24.5167 48.2358 23.9555 45.1516 23.9555 41.9355H23.2055ZM28.6782 50.265C28.6727 50.2497 28.6671 50.2346 28.6613 50.2195L27.9616 50.4897C27.9652 50.4991 27.9688 50.5085 27.9721 50.5179L28.6782 50.265ZM28.663 50.2241C27.705 47.6433 27.1813 44.851 27.1813 41.9355H26.4313C26.4313 44.9414 26.9713 47.822 27.9599 50.4851L28.663 50.2241ZM27.1813 41.9355C27.1813 39.02 27.705 36.2276 28.6631 33.6468L27.9599 33.3857C26.9713 36.0489 26.4313 38.9295 26.4313 41.9355H27.1813ZM28.6613 33.6513C28.6671 33.6364 28.6727 33.6213 28.6781 33.6061L27.9721 33.3531C27.9687 33.3625 27.9653 33.3719 27.9617 33.3812L28.6613 33.6513ZM28.6765 33.6107C31.1802 26.8997 36.6243 21.6207 43.4411 19.3412L43.2033 18.6299C36.1711 20.9815 30.5565 26.4259 27.9738 33.3486L28.6765 33.6107ZM43.4101 18.5631C43.353 18.5868 43.2937 18.6064 43.2326 18.6215L43.4118 19.3497C43.5103 19.3255 43.6059 19.2939 43.6979 19.2557L43.4101 18.5631ZM43.6693 19.2662C45.9782 18.5202 48.4416 18.1169 51 18.1169V17.3669C48.3624 17.3669 45.8212 17.7827 43.4387 18.5525L43.6693 19.2662ZM50.9996 18.1169C64.1483 18.1318 74.8038 28.7872 74.8187 41.9359L75.5687 41.9351C75.5534 28.3728 64.5627 17.3823 51.0004 17.3669L50.9996 18.1169ZM74.8187 41.9355C74.8187 44.8508 74.2951 47.6431 73.3371 50.2238L74.0402 50.4848C75.0287 47.8218 75.5687 44.9413 75.5687 41.9355H74.8187ZM73.3389 50.2191C73.3329 50.2345 73.3272 50.2499 73.3216 50.2654L74.0278 50.5181C74.0312 50.5085 74.0348 50.499 74.0384 50.4895L73.3389 50.2191ZM73.3234 50.2607C70.8196 56.9715 65.3756 62.2502 58.559 64.5297L58.7968 65.241C65.8288 62.8895 71.4433 57.4453 74.0261 50.5228L73.3234 50.2607ZM58.5883 64.5212C58.4897 64.5455 58.3941 64.577 58.3019 64.6153L58.5898 65.3079C58.647 65.2841 58.7064 65.2645 58.7675 65.2495L58.5883 64.5212ZM58.3306 64.6048C56.0217 65.3508 53.5583 65.754 51 65.754V66.504C53.6376 66.504 56.1787 66.0883 58.5612 65.3185L58.3306 64.6048ZM51 65.754C48.4417 65.754 45.9782 65.3508 43.6694 64.6048L43.4388 65.3184C45.8212 66.0883 48.3624 66.504 51 66.504V65.754ZM43.698 64.6153C43.6059 64.577 43.5103 64.5455 43.4117 64.5212L43.2325 65.2495C43.2937 65.2645 43.353 65.2841 43.4101 65.3079L43.698 64.6153ZM43.4411 64.5297C36.6243 62.2502 31.1803 56.9714 28.6765 50.2604L27.9738 50.5225C30.5566 57.4451 36.1711 62.8895 43.2032 65.241L43.4411 64.5297ZM44.9233 82.2581V68.5915H44.1733V82.2581H44.9233ZM42.9354 84.246C44.0333 84.246 44.9233 83.3559 44.9233 82.2581H44.1733C44.1733 82.9417 43.6191 83.496 42.9354 83.496V84.246ZM38.7644 84.246H42.9354V83.496H38.7644V84.246ZM51.2652 95.8413L39.0296 83.6058L38.4993 84.1361L50.7348 96.3716L51.2652 95.8413ZM62.9704 83.6058L50.7348 95.8413L51.2652 96.3716L63.5007 84.1361L62.9704 83.6058ZM59.0646 84.246H63.2356V83.496H59.0646V84.246ZM57.0767 82.2581C57.0767 83.3559 57.9667 84.246 59.0646 84.246V83.496C58.3809 83.496 57.8267 82.9417 57.8267 82.2581H57.0767ZM57.0767 68.585V82.2581H57.8267V68.585H57.0767ZM51.0004 69.7298C53.2525 69.7273 55.4425 69.4572 57.5399 68.9494L57.3634 68.2205C55.3231 68.7145 53.1921 68.9774 50.9996 68.9798L51.0004 69.7298ZM44.4604 68.9561C46.558 69.4619 48.748 69.7298 51 69.7298V68.9798C48.8076 68.9798 46.6767 68.7191 44.6363 68.227L44.4604 68.9561ZM77.1816 70.9677V51.1976H76.4316V70.9677H77.1816ZM75.1937 72.9556C76.2916 72.9556 77.1816 72.0656 77.1816 70.9677H76.4316C76.4316 71.6514 75.8774 72.2056 75.1937 72.2056V72.9556ZM71.0227 72.9556H75.1937V72.2056H71.0227V72.9556ZM83.5234 84.551L71.2879 72.3155L70.7575 72.8458L82.9931 85.0813L83.5234 84.551ZM95.2286 72.3155L82.9931 84.551L83.5234 85.0813L95.759 72.8458L95.2286 72.3155ZM91.3228 72.9556H95.4938V72.2056H91.3228V72.9556ZM89.3349 70.9677C89.3349 72.0656 90.2249 72.9556 91.3228 72.9556V72.2056C90.6391 72.2056 90.0849 71.6514 90.0849 70.9677H89.3349ZM89.3349 3.22581V70.9677H90.0849V3.22581H89.3349ZM76.8066 3.60081H89.7099V2.85081H76.8066V3.60081ZM77.1816 32.648V3.22581H76.4316V32.648H77.1816ZM78.7945 41.9355C78.7945 38.6316 78.2179 35.4615 77.1594 32.521L76.4538 32.775C77.4833 35.6352 78.0445 38.7194 78.0445 41.9355H78.7945ZM77.1595 51.3245C78.2145 48.3915 78.7908 45.2304 78.7945 41.9359L78.0445 41.9351C78.0409 45.142 77.48 48.2176 76.4537 51.0707L77.1595 51.3245ZM51 14.1411C48.748 14.1411 46.558 14.409 44.4604 14.9149L44.6363 15.644C46.6767 15.1519 48.8076 14.8911 51 14.8911V14.1411ZM57.5396 14.9149C55.442 14.409 53.252 14.1411 51 14.1411V14.8911C53.1924 14.8911 55.3233 15.1519 57.3637 15.644L57.5396 14.9149ZM57.8266 15.2795V3.22581H57.0766V15.2795H57.8266ZM57.4516 2.85081H44.5483V3.60081H57.4516V2.85081ZM44.1733 3.22581V15.2795H44.9233V3.22581H44.1733Z" fill="#007AFF" fill-opacity="0.04"/>
<path d="M51 24.9102C51.5254 24.9102 51.9541 24.4941 51.9756 23.9736C51.9766 23.9609 51.9766 23.9473 51.9766 23.9336C51.9766 23.3945 51.5391 22.957 51 22.957C50.4609 22.957 50.0234 23.3945 50.0234 23.9336C50.0234 23.9473 50.0234 23.9609 50.0244 23.9736C50.0459 24.4941 50.4746 24.9102 51 24.9102Z" fill="#007AFF" stroke="#007AFF" stroke-width="0.45"/>
<path d="M44.7738 38.7883L45.3478 41.0231H43.5781C43.0389 41.0231 42.6016 41.4603 42.6016 41.9996C42.6016 42.539 43.0389 42.9762 43.5781 42.9762H45.8493L46.3316 44.8542C46.829 46.788 46.0464 48.8318 44.3858 49.9388L44.3231 49.9804C44.0068 50.1574 43.704 50.3601 43.4228 50.5842C43.4208 50.5857 43.4188 50.5871 43.4169 50.5886C43.0062 50.9181 42.9326 51.4807 43.2062 51.8942C43.5154 52.361 44.1384 52.4625 44.5752 52.16L45.3398 51.6496C47.004 50.7522 49.03 50.9346 50.5104 52.1187C50.5184 52.125 50.5266 52.1314 50.5348 52.1375C51.7086 53.0677 53.1773 53.5796 54.674 53.5796C56.1796 53.5796 57.6572 53.0612 58.8347 52.1196C59.2559 51.7828 59.3244 51.1683 58.9875 50.7471C58.6506 50.3259 58.0362 50.2573 57.6148 50.5942C56.7823 51.2599 55.7378 51.6265 54.6739 51.6265C53.6093 51.6265 52.5645 51.2599 51.732 50.5943C51.7241 50.5879 51.716 50.5817 51.7078 50.5755C50.5261 49.6385 49.1012 49.1504 47.6619 49.1308C48.4166 47.6987 48.6445 46.0056 48.2233 44.3679L47.8657 42.9762H55.2969C55.8361 42.9762 56.2734 42.539 56.2734 41.9996C56.2734 41.4603 55.8361 41.0231 55.2969 41.0231H47.3642L46.6655 38.3027C45.9589 35.5506 47.8373 32.9148 50.3248 32.5104C53.3396 32.0201 55.8281 34.3485 55.8281 37.151C55.8281 37.6904 56.2654 38.1276 56.8047 38.1276C57.3439 38.1276 57.7812 37.6904 57.7812 37.151C57.7812 33.0835 54.1481 29.9097 50.0113 30.5825C46.3584 31.1764 43.7916 34.9634 44.7738 38.7883Z" fill="#007AFF" stroke="#007AFF" stroke-width="0.45"/>
<path d="M51 61.1402C61.1758 61.1402 70.1406 52.2438 70.1406 41.9995C70.1406 33.3047 63.613 25.3618 55.1151 23.3441C54.5902 23.2195 54.064 23.5438 53.9394 24.0686C53.8148 24.5934 54.1392 25.1197 54.6639 25.2444C62.3736 27.0749 68.1875 34.2781 68.1875 41.9995C68.1875 51.1555 60.156 59.187 51 59.187C41.844 59.187 33.8125 51.1555 33.8125 41.9995C33.8125 34.2781 39.6264 27.0749 47.3361 25.2444C47.8608 25.1197 48.1852 24.5934 48.0606 24.0686C47.936 23.5437 47.4095 23.2194 46.8849 23.3441C38.3937 25.3603 31.8594 33.2977 31.8594 41.9995C31.8594 52.1753 40.7558 61.1402 51 61.1402Z" fill="#007AFF" stroke="#007AFF" stroke-width="0.45"/>
</svg>
