<svg width="47" height="52" viewBox="0 0 47 52" fill="none" xmlns="http://www.w3.org/2000/svg">
<path fill-rule="evenodd" clip-rule="evenodd" d="M23.5 1C15.1436 1 1 2.24365 1 6.92217V45.0778C1 49.731 15.1436 51 23.5 51C31.8564 51 46 49.7563 46 45.0778V6.89679C46 2.24366 31.8564 1 23.5 1ZM43.4393 32.3029C42.893 33.5296 35.817 35.687 23.5 35.687C11.183 35.687 4.05577 33.4958 3.5607 32.3029V22.6328C8.02485 24.8579 17.3373 25.5431 23.5 25.5431C29.6627 25.5431 38.9752 24.8409 43.4393 22.6328V32.3029ZM23.5 22.9966C35.817 22.9966 42.893 20.8393 43.4393 19.6125V9.89171C38.9752 12.1168 29.6627 12.7936 23.5 12.7936C17.3373 12.7936 8.02485 12.1168 3.5607 9.89171V19.6125C4.05577 20.797 11.183 22.9966 23.5 22.9966ZM23.5 3.53807C35.6548 3.53807 42.7223 5.66159 43.4137 6.92217C42.7223 8.15736 35.6548 10.3063 23.5 10.3063C11.3452 10.3063 4.28623 8.13198 3.5863 6.89679C4.28623 5.66159 11.3452 3.53807 23.5 3.53807ZM3.5607 45.0525C4.05577 46.2453 11.1489 48.4365 23.5 48.4365C35.817 48.4365 42.893 46.2623 43.4393 45.0271V35.3232C38.9752 37.5567 29.6627 38.2335 23.5 38.2335C17.3373 38.2335 8.02485 37.5567 3.5607 35.3232V45.0525Z" fill="#007AFF"/>
<path d="M43.4393 32.3029L43.8504 32.4859L43.8893 32.3985V32.3029H43.4393ZM3.5607 32.3029H3.1107V32.3925L3.14507 32.4754L3.5607 32.3029ZM3.5607 22.6328L3.76144 22.2301L3.1107 21.9057V22.6328H3.5607ZM43.4393 22.6328H43.8893V21.9082L43.2398 22.2295L43.4393 22.6328ZM43.4393 19.6125L43.8504 19.7956L43.8893 19.7082V19.6125H43.4393ZM43.4393 9.89171H43.8893V9.16462L43.2386 9.48896L43.4393 9.89171ZM3.5607 9.89171L3.76144 9.48896L3.1107 9.16462V9.89171H3.5607ZM3.5607 19.6125H3.1107V19.7028L3.14551 19.7861L3.5607 19.6125ZM43.4137 6.92217L43.8064 7.14196L43.9282 6.92438L43.8082 6.70577L43.4137 6.92217ZM3.5863 6.89679L3.19479 6.67493L3.06908 6.89679L3.19479 7.11864L3.5863 6.89679ZM3.5607 45.0525H3.1107V45.1421L3.14507 45.2249L3.5607 45.0525ZM43.4393 45.0271L43.8509 45.2091L43.8893 45.1221V45.0271H43.4393ZM43.4393 35.3232H43.8893V34.5949L43.238 34.9207L43.4393 35.3232ZM3.5607 35.3232L3.76205 34.9207L3.1107 34.5949V35.3232H3.5607ZM1.45 6.92217C1.45 6.01336 2.13391 5.17435 3.55178 4.4204C4.95001 3.67689 6.92804 3.0931 9.20271 2.64828C13.7437 1.76027 19.3369 1.45 23.5 1.45V0.55C19.3067 0.55 13.6499 0.861562 9.02998 1.76501C6.7242 2.21591 4.64406 2.82025 3.12923 3.62576C1.63404 4.42083 0.55 5.49172 0.55 6.92217H1.45ZM1.45 45.0778V6.92217H0.55V45.0778H1.45ZM23.5 50.55C19.3373 50.55 13.7441 50.2334 9.203 49.3423C6.92829 48.8959 4.95002 48.3113 3.55153 47.5688C2.13263 46.8154 1.45 45.9794 1.45 45.0778H0.55C0.55 46.5028 1.63532 47.5704 3.12948 48.3637C4.64406 49.1678 6.72395 49.7729 9.02969 50.2254C13.6495 51.132 19.3063 51.45 23.5 51.45V50.55ZM45.55 45.0778C45.55 45.9866 44.8661 46.8257 43.4482 47.5796C42.05 48.3231 40.072 48.9069 37.7973 49.3517C33.2563 50.2397 27.6631 50.55 23.5 50.55V51.45C27.6933 51.45 33.3501 51.1384 37.97 50.235C40.2758 49.7841 42.3559 49.1797 43.8708 48.3742C45.366 47.5792 46.45 46.5083 46.45 45.0778H45.55ZM45.55 6.89679V45.0778H46.45V6.89679H45.55ZM23.5 1.45C27.6631 1.45 33.2564 1.76026 37.7976 2.64516C40.0724 3.08843 42.0506 3.66992 43.449 4.4101C44.8678 5.16105 45.55 5.9955 45.55 6.89679H46.45C46.45 5.47151 45.3643 4.40557 43.87 3.61465C42.3554 2.81295 40.2754 2.21107 37.9697 1.76178C33.35 0.861567 27.6933 0.55 23.5 0.55V1.45ZM23.5 36.137C29.683 36.137 34.5622 35.5956 37.9741 34.8958C39.6786 34.5461 41.0272 34.1549 41.9932 33.7667C42.4753 33.573 42.8739 33.3754 43.1771 33.1771C43.4652 32.9888 43.7276 32.7618 43.8504 32.4859L43.0282 32.1198C43.0145 32.1507 42.9362 32.2594 42.6847 32.4238C42.4482 32.5784 42.1081 32.7506 41.6576 32.9316C40.7582 33.293 39.4657 33.6711 37.7932 34.0141C34.4513 34.6996 29.634 35.237 23.5 35.237V36.137ZM3.14507 32.4754C3.2614 32.7557 3.52565 32.9828 3.80821 33.1674C4.1082 33.3635 4.50478 33.5597 4.98546 33.7525C5.94873 34.139 7.29879 34.5313 9.00635 34.883C12.4245 35.5871 17.3166 36.137 23.5 36.137V35.237C17.3665 35.237 12.5364 34.6912 9.18793 34.0015C7.51216 33.6563 6.21778 33.2772 5.32054 32.9172C4.87096 32.7369 4.53328 32.5662 4.30062 32.4141C4.18457 32.3382 4.1024 32.272 4.04748 32.2177C4.02042 32.1909 4.00234 32.1693 3.99077 32.1533C3.97914 32.1373 3.97599 32.1296 3.97633 32.1304L3.14507 32.4754ZM3.1107 22.6328V32.3029H4.0107V22.6328H3.1107ZM23.5 25.0931C20.4329 25.0931 16.5829 24.9225 12.9483 24.4757C9.29963 24.0273 5.92062 23.3063 3.76144 22.2301L3.35996 23.0356C5.66492 24.1844 9.17419 24.9186 12.8385 25.369C16.5168 25.8212 20.4044 25.9931 23.5 25.9931V25.0931ZM43.2398 22.2295C41.0799 23.2978 37.7001 24.0188 34.0515 24.4694C30.4167 24.9183 26.5667 25.0931 23.5 25.0931V25.9931C26.596 25.9931 30.4836 25.8169 34.1618 25.3626C37.8261 24.9101 41.3346 24.1759 43.6388 23.0362L43.2398 22.2295ZM43.8893 32.3029V22.6328H42.9893V32.3029H43.8893ZM43.0282 19.4295C43.0145 19.4603 42.9362 19.569 42.6847 19.7335C42.4482 19.888 42.1081 20.0602 41.6576 20.2413C40.7582 20.6027 39.4657 20.9807 37.7932 21.3238C34.4513 22.0093 29.634 22.5466 23.5 22.5466V23.4466C29.683 23.4466 34.5622 22.9053 37.9741 22.2054C39.6786 21.8558 41.0272 21.4645 41.9932 21.0764C42.4753 20.8826 42.8739 20.685 43.1771 20.4868C43.4652 20.2985 43.7276 20.0714 43.8504 19.7956L43.0282 19.4295ZM42.9893 9.89171V19.6125H43.8893V9.89171H42.9893ZM23.5 13.2436C26.5954 13.2436 30.4829 13.0737 34.1613 12.6237C37.8255 12.1754 41.3349 11.4434 43.64 10.2945L43.2386 9.48896C41.0795 10.5651 37.7007 11.284 34.052 11.7304C30.4174 12.175 26.5673 12.3436 23.5 12.3436V13.2436ZM3.35996 10.2945C5.66508 11.4434 9.1745 12.1754 12.8387 12.6237C16.5171 13.0737 20.4046 13.2436 23.5 13.2436V12.3436C20.4327 12.3436 16.5826 12.175 12.948 11.7304C9.29932 11.284 5.92047 10.5651 3.76144 9.48896L3.35996 10.2945ZM4.0107 19.6125V9.89171H3.1107V19.6125H4.0107ZM23.5 22.5466C17.3666 22.5466 12.5366 21.9988 9.18806 21.308C7.5123 20.9623 6.21778 20.5829 5.32039 20.2233C4.87072 20.0431 4.53288 19.8726 4.30005 19.7209C4.1839 19.6453 4.10165 19.5793 4.04669 19.5251C4.0196 19.4985 4.00155 19.477 3.99002 19.4612C3.97843 19.4453 3.97541 19.4378 3.97589 19.439L3.14551 19.7861C3.26217 20.0652 3.52665 20.2912 3.80878 20.475C4.1086 20.6704 4.50502 20.8661 4.98561 21.0587C5.94872 21.4446 7.29866 21.8372 9.00622 22.1895C12.4244 22.8946 17.3164 23.4466 23.5 23.4466V22.5466ZM43.8082 6.70577C43.666 6.44638 43.4008 6.22526 43.0982 6.03428C42.7837 5.83575 42.376 5.63759 41.8855 5.44325C40.9035 5.05407 39.548 4.664 37.8456 4.31649C34.4382 3.62095 29.6019 3.08807 23.5 3.08807V3.98807C29.5529 3.98807 34.3277 4.51695 37.6656 5.19831C39.3359 5.53925 40.6366 5.91642 41.554 6.27995C42.0133 6.46195 42.3661 6.6365 42.6179 6.79538C42.8816 6.96182 42.9886 7.0828 43.0191 7.13857L43.8082 6.70577ZM23.5 10.7563C29.6023 10.7563 34.4387 10.217 37.846 9.51824C39.5484 9.16913 40.9035 8.77831 41.8851 8.39056C42.3753 8.19692 42.7825 8.00011 43.0966 7.80381C43.3982 7.61528 43.6634 7.39729 43.8064 7.14196L43.021 6.70237C42.9911 6.75584 42.8842 6.8752 42.6196 7.04061C42.3673 7.19826 42.014 7.37198 41.5544 7.5535C40.6366 7.91606 39.3355 8.29407 37.6652 8.63659C34.3273 9.3211 29.5525 9.85626 23.5 9.85626V10.7563ZM3.19479 7.11864C3.33855 7.37233 3.6034 7.59012 3.90558 7.77933C4.21996 7.97618 4.62729 8.17396 5.11766 8.36881C6.09959 8.75898 7.45435 9.15304 9.15636 9.50538C12.5629 10.2106 17.3974 10.7563 23.5 10.7563V9.85626C17.4478 9.85626 12.6755 9.31481 9.3388 8.62406C7.66923 8.27844 6.36833 7.89732 5.45001 7.53242C4.99025 7.34973 4.6363 7.175 4.3832 7.01652C4.11789 6.8504 4.00904 6.73004 3.97782 6.67493L3.19479 7.11864ZM23.5 3.08807C17.3981 3.08807 12.564 3.62096 9.15795 4.31325C7.45617 4.65914 6.10144 5.04671 5.11948 5.43198C4.62909 5.62438 4.22157 5.82011 3.90692 6.01559C3.60453 6.20345 3.33894 6.42054 3.19479 6.67493L3.97782 7.11864C4.00865 7.06423 4.11676 6.94476 4.38186 6.78007C4.6347 6.62299 4.98845 6.45018 5.44819 6.2698C6.36648 5.90951 7.6674 5.5346 9.33721 5.19521C12.6743 4.51694 17.4472 3.98807 23.5 3.98807V3.08807ZM23.5 47.9865C17.3493 47.9865 12.5193 47.4408 9.17523 46.7511C7.50167 46.4059 6.2106 46.0268 5.31615 45.667C4.86798 45.4867 4.53155 45.316 4.29979 45.1641C4.18419 45.0882 4.10232 45.0221 4.04758 44.9677C4.02059 44.9409 4.00254 44.9193 3.99096 44.9033C3.97931 44.8872 3.97608 44.8794 3.97633 44.88L3.14507 45.2249C3.26118 45.5047 3.52427 45.7317 3.80625 45.9167C4.1054 46.1128 4.50083 46.3091 4.98024 46.5019C5.94097 46.8885 7.28795 47.2808 8.99344 47.6326C12.4075 48.3367 17.2996 48.8865 23.5 48.8865V47.9865ZM43.0278 44.8451C43.0135 44.8772 42.9347 44.9869 42.6834 45.1524C42.447 45.308 42.107 45.4814 41.6565 45.6638C40.7573 46.0278 39.4649 46.4087 37.7926 46.7543C34.4509 47.445 29.6338 47.9865 23.5 47.9865V48.8865C29.6832 48.8865 34.5626 48.3409 37.9747 47.6357C39.6793 47.2834 41.0282 46.8891 41.9942 46.498C42.4765 46.3028 42.8751 46.1037 43.1784 45.9041C43.4667 45.7142 43.7285 45.4858 43.8509 45.2091L43.0278 44.8451ZM42.9893 35.3232V45.0271H43.8893V35.3232H42.9893ZM23.5 38.6835C26.5954 38.6835 30.483 38.5136 34.1614 38.0626C37.8257 37.6132 41.3353 36.879 43.6407 35.7256L43.238 34.9207C41.0791 36.0008 37.7005 36.7218 34.0519 37.1693C30.4173 37.6149 26.5673 37.7835 23.5 37.7835V38.6835ZM3.35935 35.7256C5.66467 36.879 9.17433 37.6132 12.8386 38.0626C16.517 38.5136 20.4046 38.6835 23.5 38.6835V37.7835C20.4327 37.7835 16.5827 37.6149 12.9481 37.1693C9.29949 36.7218 5.92088 36.0008 3.76205 34.9207L3.35935 35.7256ZM4.0107 45.0525V35.3232H3.1107V45.0525H4.0107Z" fill="white"/>
<path d="M17.7883 16.4494L15.1422 16.2548C14.6848 16.2155 14.241 16.421 13.9779 16.794C13.7149 17.167 13.6726 17.6508 13.867 18.0631C14.0613 18.4754 14.4629 18.7535 14.9203 18.7928C15.7739 18.8774 16.6872 18.9451 17.6176 19.0043H17.7029C18.378 19.0058 18.9383 18.4875 18.9833 17.8199C19.0091 17.4809 18.8975 17.1456 18.6732 16.8884C18.4489 16.6312 18.1304 16.4732 17.7883 16.4494Z" fill="#007AFF" stroke="white" stroke-width="0.9"/>
<path d="M10.6016 15.6534C9.31614 15.4499 8.04472 15.1673 6.79467 14.8074C6.11583 14.6065 5.40121 14.989 5.1985 15.6619C4.99579 16.3347 5.38177 17.043 6.0606 17.2439C7.41279 17.6301 8.78651 17.9381 10.1748 18.1661H10.3882C11.0953 18.2245 11.7163 17.7037 11.7752 17.0028C11.8342 16.302 11.3087 15.6864 10.6016 15.628V15.6534Z" fill="#007AFF" stroke="white" stroke-width="0.9"/>
<path d="M17.7883 29.2234C16.8749 29.1642 15.9958 29.0965 15.1422 29.0204C14.6848 28.9811 14.241 29.1867 13.9779 29.5597C13.7149 29.9327 13.6726 30.4164 13.867 30.8287C14.0613 31.241 14.4629 31.5192 14.9203 31.5585C15.7738 31.6346 16.6872 31.7023 17.6176 31.7615H17.7029C18.41 31.7849 19.0024 31.2356 19.0259 30.5348C19.0495 29.8339 18.4954 29.2468 17.7883 29.2234Z" fill="#007AFF" stroke="white" stroke-width="0.9"/>
<path d="M10.6031 28.4206C9.31537 28.2141 8.04129 27.9316 6.78762 27.5745C6.10878 27.3783 5.39798 27.7646 5.19998 28.4375C5.00199 29.1103 5.39179 29.8148 6.07062 30.0111C7.41959 30.3986 8.79055 30.7065 10.1763 30.9332C10.2472 30.9416 10.3188 30.9416 10.3897 30.9332C11.0968 30.9916 11.7178 30.4708 11.7767 29.77C11.8356 29.0691 11.3102 28.4536 10.6031 28.3952V28.4206Z" fill="#007AFF" stroke="white" stroke-width="0.9"/>
<path d="M17.7885 41.9902C16.8752 41.9309 15.996 41.8632 15.1425 41.7871C14.4422 41.7332 13.8273 42.2448 13.7597 42.9377C13.7266 43.2805 13.8365 43.6219 14.0639 43.8824C14.2912 44.1428 14.6161 44.2998 14.9632 44.3167C15.8168 44.3929 16.7301 44.4605 17.6605 44.5198H17.7458C18.453 44.5431 19.0453 43.9939 19.0689 43.293C19.0924 42.5922 18.5383 42.0051 17.8312 41.9817L17.7885 41.9902Z" fill="#007AFF" stroke="white" stroke-width="0.9"/>
<path d="M10.6033 41.1952C9.31723 40.9806 8.04361 40.6982 6.78789 40.3491C6.33768 40.1787 5.82907 40.2734 5.47183 40.594C5.11459 40.9145 4.96923 41.4068 5.0957 41.8677C5.22217 42.3286 5.59904 42.6801 6.07089 42.7772C7.41986 43.1647 8.79082 43.4727 10.1765 43.6994C10.2474 43.7077 10.319 43.7077 10.3899 43.6994C11.0971 43.7578 11.7181 43.237 11.777 42.5361C11.8359 41.8352 11.3104 41.2197 10.6033 41.1613V41.1952Z" fill="#007AFF" stroke="white" stroke-width="0.9"/>
</svg>
