<svg xmlns="http://www.w3.org/2000/svg" width="250" height="250" viewBox="0 0 250 250">
  <g id="default-people" transform="translate(-30.869 -13)">
    <g id="Ellipse_1" data-name="Ellipse 1" transform="translate(30.869 13)" fill="#45546c" stroke="#707070" stroke-width="1">
      <circle cx="125" cy="125" r="125" stroke="none"/>
      <circle cx="125" cy="125" r="124.5" fill="none"/>
    </g>
    <g id="Group_4" data-name="Group 4" transform="translate(0 9.841)">
      <path id="Path_21" data-name="Path 21" d="M110.942,72.449h0c-17.927,0-32.594-13.822-32.594-30.717V30.717C78.348,13.822,93.015,0,110.942,0h0c17.927,0,32.594,13.822,32.594,30.717V41.732C143.536,58.627,128.869,72.449,110.942,72.449Z" transform="translate(44.928 49.159)" fill="#fff"/>
      <path id="Path_22" data-name="Path 22" d="M120.389,120.063a50.5,50.5,0,0,1-39.04,0c-26.209,3.207-46.48,21.862-46.48,44.213v29.411c0,2.692,2.685,4.893,5.966,4.893H160.9c3.283,0,5.966-2.2,5.966-4.893V164.278C166.869,141.925,146.6,123.272,120.389,120.063Z" transform="translate(55 7.653)" fill="#fff"/>
    </g>
  </g>
</svg>
