<svg width="1199" height="332" viewBox="0 0 1199 332" fill="none" xmlns="http://www.w3.org/2000/svg">
<g clip-path="url(#clip0_0_7431)">
<mask id="mask0_0_7431" style="mask-type:luminance" maskUnits="userSpaceOnUse" x="0" y="0" width="1199" height="332">
<rect width="1199" height="332" fill="white"/>
</mask>
<g mask="url(#mask0_0_7431)">
<rect width="1199" height="332" fill="url(#paint0_linear_0_7431)"/>
<g style="mix-blend-mode:screen" opacity="0.252812">
<rect width="1199" height="332" fill="url(#paint1_linear_0_7431)"/>
</g>
<g opacity="0.245682">
<ellipse cx="1.5037" cy="1.50398" rx="1.5037" ry="1.50398" transform="matrix(-0.866025 0.5 0.5 0.866025 973.117 100.119)" fill="white"/>
<ellipse cx="2.50617" cy="2.50663" rx="2.50617" ry="2.50663" transform="matrix(-0.866025 0.5 0.5 0.866025 1015.54 103.416)" fill="white"/>
<ellipse cx="2.50617" cy="2.50663" rx="2.50617" ry="2.50663" transform="matrix(-0.866025 0.5 0.5 0.866025 1110.6 60.0762)" fill="white"/>
<ellipse opacity="0.497654" cx="2.50617" cy="2.50663" rx="2.50617" ry="2.50663" transform="matrix(-0.866025 0.5 0.5 0.866025 1005.95 59.7461)" fill="white"/>
<ellipse cx="2.50617" cy="2.50663" rx="2.50617" ry="2.50663" transform="matrix(-0.866025 0.5 0.5 0.866025 1052.96 117.119)" fill="white"/>
<ellipse cx="1.5037" cy="1.50398" rx="1.5037" ry="1.50398" transform="matrix(-0.866025 0.5 0.5 0.866025 1049.46 58.9336)" fill="white"/>
<ellipse opacity="0.497654" cx="2.50617" cy="2.50663" rx="2.50617" ry="2.50663" transform="matrix(-0.866025 0.5 0.5 0.866025 996.586 161.824)" fill="white"/>
<ellipse cx="1.5037" cy="1.50398" rx="1.5037" ry="1.50398" transform="matrix(-0.866025 0.5 0.5 0.866025 965.23 129.564)" fill="white"/>
<ellipse cx="1.5037" cy="1.50398" rx="1.5037" ry="1.50398" transform="matrix(-0.866025 0.5 0.5 0.866025 1070.08 55.1719)" fill="white"/>
<ellipse cx="1.5037" cy="1.50398" rx="1.5037" ry="1.50398" transform="matrix(-0.866025 0.5 0.5 0.866025 1159.49 22.0293)" fill="white"/>
<ellipse cx="1.5037" cy="1.50398" rx="1.5037" ry="1.50398" transform="matrix(-0.866025 0.5 0.5 0.866025 969.52 171.082)" fill="white"/>
<ellipse cx="2.50617" cy="2.50663" rx="2.50617" ry="2.50663" transform="matrix(-0.866025 0.5 0.5 0.866025 952.617 117.744)" fill="white"/>
<ellipse opacity="0.497654" cx="1.5037" cy="1.50398" rx="1.5037" ry="1.50398" transform="matrix(-0.866025 0.5 0.5 0.866025 901.492 100.371)" fill="white"/>
<ellipse opacity="0.497654" cx="2.50617" cy="2.50663" rx="2.50617" ry="2.50663" transform="matrix(-0.866025 0.5 0.5 0.866025 921.699 59.1816)" fill="white"/>
<ellipse opacity="0.497654" cx="2.50617" cy="2.50663" rx="2.50617" ry="2.50663" transform="matrix(-0.866025 0.5 0.5 0.866025 1089.66 6.08984)" fill="white"/>
<ellipse cx="2.50617" cy="2.50663" rx="2.50617" ry="2.50663" transform="matrix(-0.866025 0.5 0.5 0.866025 904.867 145.312)" fill="white"/>
<ellipse cx="2.50617" cy="2.50663" rx="2.50617" ry="2.50663" transform="matrix(-0.866025 0.5 0.5 0.866025 1017.49 9.63477)" fill="white"/>
<ellipse cx="2.50617" cy="2.50663" rx="2.50617" ry="2.50663" transform="matrix(-0.866025 0.5 0.5 0.866025 817.344 52.8613)" fill="white"/>
<ellipse cx="1.5037" cy="1.50398" rx="1.5037" ry="1.50398" transform="matrix(-0.866025 0.5 0.5 0.866025 927.746 21.5371)" fill="white"/>
</g>
<g opacity="0.251447">
<ellipse cx="201.949" cy="263.318" rx="1.5037" ry="1.50398" fill="white"/>
<ellipse cx="167.866" cy="288.386" rx="2.50617" ry="2.50663" fill="white"/>
<ellipse cx="63.8655" cy="298.386" rx="2.50617" ry="2.50663" fill="white"/>
<ellipse opacity="0.497654" cx="154.334" cy="245.772" rx="2.50617" ry="2.50663" fill="white"/>
<ellipse cx="142.303" cy="318.966" rx="2.50617" ry="2.50663" fill="white"/>
<ellipse cx="115.238" cy="265.824" rx="1.5037" ry="1.50398" fill="white"/>
<ellipse opacity="0.497654" cx="213.479" cy="329.493" rx="2.50617" ry="2.50663" fill="white"/>
<ellipse cx="223.504" cy="284.875" rx="1.5037" ry="1.50398" fill="white"/>
<ellipse cx="95.5037" cy="272.875" rx="1.5037" ry="1.50398" fill="white"/>
<ellipse cx="1.5037" cy="288.875" rx="1.5037" ry="1.50398" fill="white"/>
<ellipse cx="240.547" cy="322.977" rx="1.5037" ry="1.50398" fill="white"/>
<ellipse cx="229.518" cy="269.335" rx="2.50617" ry="2.50663" fill="white"/>
<ellipse opacity="0.497654" cx="264.105" cy="227.725" rx="1.5037" ry="1.50398" fill="white"/>
<ellipse opacity="0.497654" cx="227.014" cy="203.159" rx="2.50617" ry="2.50663" fill="white"/>
<ellipse opacity="0.497654" cx="55.014" cy="241.159" rx="2.50617" ry="2.50663" fill="white"/>
<ellipse cx="284.655" cy="269.335" rx="2.50617" ry="2.50663" fill="white"/>
<ellipse cx="119.28" cy="208.145" rx="2.50617" ry="2.50663" fill="white"/>
<ellipse cx="314.229" cy="145.507" rx="2.50617" ry="2.50663" fill="white"/>
<ellipse cx="201.949" cy="172.578" rx="1.5037" ry="1.50398" fill="white"/>
</g>
<g opacity="0.251447">
<ellipse cx="1083.95" cy="120.318" rx="1.5037" ry="1.50398" fill="white"/>
<ellipse cx="1049.87" cy="145.386" rx="2.50617" ry="2.50663" fill="white"/>
<ellipse cx="945.866" cy="155.386" rx="2.50617" ry="2.50663" fill="white"/>
<ellipse opacity="0.497654" cx="1036.33" cy="102.772" rx="2.50617" ry="2.50663" fill="white"/>
<ellipse cx="1024.3" cy="175.966" rx="2.50617" ry="2.50663" fill="white"/>
<ellipse cx="997.238" cy="122.824" rx="1.5037" ry="1.50398" fill="white"/>
<ellipse opacity="0.497654" cx="1095.48" cy="186.493" rx="2.50617" ry="2.50663" fill="white"/>
<ellipse cx="1105.5" cy="141.875" rx="1.5037" ry="1.50398" fill="white"/>
<ellipse cx="977.504" cy="129.875" rx="1.5037" ry="1.50398" fill="white"/>
<ellipse cx="883.504" cy="145.875" rx="1.5037" ry="1.50398" fill="white"/>
<ellipse cx="1122.55" cy="179.977" rx="1.5037" ry="1.50398" fill="white"/>
<ellipse cx="1111.52" cy="126.335" rx="2.50617" ry="2.50663" fill="white"/>
<ellipse opacity="0.497654" cx="1146.11" cy="84.7247" rx="1.5037" ry="1.50398" fill="white"/>
<ellipse opacity="0.497654" cx="1109.01" cy="60.159" rx="2.50617" ry="2.50663" fill="white"/>
<ellipse opacity="0.497654" cx="937.014" cy="98.159" rx="2.50617" ry="2.50663" fill="white"/>
<ellipse cx="1166.65" cy="126.335" rx="2.50617" ry="2.50663" fill="white"/>
<ellipse cx="1001.28" cy="65.1453" rx="2.50617" ry="2.50663" fill="white"/>
<ellipse cx="1196.23" cy="2.50663" rx="2.50617" ry="2.50663" fill="white"/>
<ellipse cx="1083.95" cy="29.5782" rx="1.5037" ry="1.50398" fill="white"/>
</g>
</g>
</g>
<defs>
<linearGradient id="paint0_linear_0_7431" x1="275.241" y1="750.98" x2="568.999" y2="-206.292" gradientUnits="userSpaceOnUse">
<stop stop-color="#151D9C"/>
<stop offset="0.432097" stop-color="#007AFF"/>
<stop offset="0.612639" stop-color="#00A4FF"/>
<stop offset="1" stop-color="#00D97B"/>
</linearGradient>
<linearGradient id="paint1_linear_0_7431" x1="275.241" y1="750.98" x2="568.999" y2="-206.292" gradientUnits="userSpaceOnUse">
<stop stop-color="#151D9C"/>
<stop offset="0.432097" stop-color="#007AFF"/>
<stop offset="0.612639" stop-color="#00A4FF"/>
<stop offset="1" stop-color="#00D97B"/>
</linearGradient>
<clipPath id="clip0_0_7431">
<rect width="1199" height="332" fill="white"/>
</clipPath>
</defs>
</svg>
