<svg width="92" height="102" viewBox="0 0 92 102" fill="none" xmlns="http://www.w3.org/2000/svg">
<path fill-rule="evenodd" clip-rule="evenodd" d="M46 101C45.6086 101 45.2201 100.932 44.8517 100.8C18.5417 91.3941 0.986742 66.4622 1.00008 38.5214V13.8962C0.98924 11.2091 3.11148 8.99766 5.79674 8.89789C12.9767 8.62789 31.055 7.34622 43.8883 1.46119C45.229 0.84627 46.771 0.84627 48.1117 1.46119C60.9433 7.34622 79.0233 8.62289 86.2032 8.89623C88.8892 8.99601 91.0117 11.2085 90.9999 13.8962V38.5214C90.9632 66.4484 73.4231 91.3554 47.1417 100.8C46.7756 100.933 46.3893 101 46 101ZM5.92507 12.2296C5.03401 12.2697 4.33251 13.0043 4.33341 13.8962V38.5214C4.3187 65.0575 20.9919 88.7363 45.98 97.6666C70.9572 88.7145 87.6331 65.0545 87.6666 38.5214V13.9012C87.6674 13.0087 86.965 12.2738 86.0732 12.2346C78.6966 11.9512 60.0966 10.6312 46.7217 4.49954C46.4959 4.39263 46.2497 4.33578 46 4.33287C45.7505 4.33336 45.5042 4.38855 45.2783 4.49454C31.9034 10.6262 13.3034 11.9462 5.92507 12.2296Z" fill="#007AFF"/>
<path d="M44.8517 100.8L44.9361 100.565L44.9358 100.565L44.8517 100.8ZM46 101L46.0001 100.75H46.0001L46 101ZM1.00008 38.5214L1.25008 38.5215V38.5214H1.00008ZM1.00008 13.8962H1.25008L1.25008 13.8952L1.00008 13.8962ZM5.79674 8.89789L5.80602 9.14772L5.80613 9.14772L5.79674 8.89789ZM43.8883 1.46119L43.9925 1.68844L43.9926 1.68843L43.8883 1.46119ZM48.1117 1.46119L48.0074 1.68843L48.0074 1.68843L48.1117 1.46119ZM86.2032 8.89623L86.1937 9.14604L86.194 9.14605L86.2032 8.89623ZM90.9999 13.8962L90.7499 13.8952V13.8962H90.9999ZM90.9999 38.5214L91.2499 38.5217V38.5214H90.9999ZM47.1417 100.8L47.0571 100.565L47.0565 100.565L47.1417 100.8ZM4.33341 13.8962H4.58341L4.58341 13.896L4.33341 13.8962ZM5.92507 12.2296L5.91548 11.9798L5.91382 11.9798L5.92507 12.2296ZM4.33341 38.5214L4.58341 38.5215V38.5214H4.33341ZM45.98 97.6666L45.8959 97.9021L45.9801 97.9322L46.0643 97.902L45.98 97.6666ZM87.6666 38.5214L87.9166 38.5217V38.5214H87.6666ZM87.6666 13.9012L87.4166 13.901V13.9012H87.6666ZM86.0732 12.2346L86.0842 11.9848L86.0828 11.9848L86.0732 12.2346ZM46.7217 4.49954L46.6147 4.7255L46.6175 4.72679L46.7217 4.49954ZM46 4.33287L46.0029 4.08286L45.9995 4.08287L46 4.33287ZM45.2783 4.49454L45.3825 4.7218L45.3845 4.72085L45.2783 4.49454ZM44.7672 101.035C45.1627 101.177 45.5797 101.25 45.9999 101.25L46.0001 100.75C45.6374 100.75 45.2775 100.687 44.9361 100.565L44.7672 101.035ZM0.750082 38.5212C0.736692 66.5678 18.3581 91.5939 44.7675 101.035L44.9358 100.565C18.7254 91.1943 1.23679 66.3567 1.25008 38.5215L0.750082 38.5212ZM0.750082 13.8962V38.5214H1.25008V13.8962H0.750082ZM5.78746 8.64806C2.96744 8.75284 0.738698 11.0753 0.750084 13.8973L1.25008 13.8952C1.23978 11.343 3.25552 9.24248 5.80602 9.14772L5.78746 8.64806ZM43.7841 1.23394C31.0003 7.09628 12.9671 8.37808 5.78734 8.64807L5.80613 9.14772C12.9864 8.8777 31.1097 7.59616 43.9925 1.68844L43.7841 1.23394ZM48.2159 1.23395C46.8091 0.588682 45.1909 0.588682 43.7841 1.23395L43.9926 1.68843C45.267 1.10386 46.733 1.10386 48.0074 1.68843L48.2159 1.23395ZM86.2128 8.64641C79.0328 8.37307 60.998 7.09626 48.2159 1.23395L48.0074 1.68843C60.8886 7.59617 79.0137 8.87271 86.1937 9.14604L86.2128 8.64641ZM91.2499 13.8973C91.2622 11.0747 89.0332 8.75119 86.2125 8.6464L86.194 9.14605C88.7451 9.24083 90.7611 11.3423 90.7499 13.8952L91.2499 13.8973ZM91.2499 38.5214V13.8962H90.7499V38.5214H91.2499ZM47.2262 101.035C73.6068 91.5551 91.2131 66.5541 91.2499 38.5217L90.7499 38.521C90.7134 66.3427 73.2394 91.1558 47.0571 100.565L47.2262 101.035ZM45.9999 101.25C46.4182 101.25 46.8334 101.177 47.2268 101.035L47.0565 100.565C46.7178 100.688 46.3603 100.75 46.0001 100.75L45.9999 101.25ZM4.58341 13.896C4.58264 13.1378 5.17892 12.5134 5.93632 12.4793L5.91382 11.9798C4.8891 12.026 4.08237 12.8707 4.08341 13.8965L4.58341 13.896ZM4.58341 38.5214V13.8962H4.08341V38.5214H4.58341ZM46.0641 97.4312C21.1755 88.5364 4.56876 64.952 4.58341 38.5215L4.08341 38.5212C4.06864 65.163 20.8082 88.9361 45.8959 97.9021L46.0641 97.4312ZM87.4166 38.521C87.3833 64.9487 70.7736 88.5147 45.8956 97.4313L46.0643 97.902C71.1408 88.9143 87.883 65.1602 87.9166 38.5217L87.4166 38.521ZM87.4166 13.9012V38.5214H87.9166V13.9012H87.4166ZM86.0622 12.4843C86.8202 12.5177 87.4173 13.1423 87.4166 13.901L87.9166 13.9015C87.9176 12.875 87.1097 12.03 86.0842 11.9848L86.0622 12.4843ZM46.6175 4.72679C60.0417 10.8811 78.6865 12.201 86.0636 12.4844L86.0828 11.9848C78.7067 11.7014 60.1515 10.3814 46.8258 4.27228L46.6175 4.72679ZM45.9971 4.58285C46.2108 4.58534 46.4215 4.634 46.6147 4.72548L46.8287 4.27359C46.5704 4.15127 46.2887 4.08622 46.0029 4.08289L45.9971 4.58285ZM45.3845 4.72085C45.5773 4.63039 45.7876 4.58329 46.0005 4.58287L45.9995 4.08287C45.7135 4.08344 45.431 4.14671 45.1721 4.26822L45.3845 4.72085ZM5.93467 12.4794C13.3135 12.196 31.9582 10.8761 45.3825 4.72179L45.1741 4.26728C31.8485 10.3764 13.2933 11.6964 5.91548 11.9798L5.93467 12.4794Z" fill="white"/>
<path d="M44.8517 100.8L44.9361 100.565L44.9358 100.565L44.8517 100.8ZM46 101L46.0001 100.75H46.0001L46 101ZM1.00008 38.5214L1.25008 38.5215V38.5214H1.00008ZM1.00008 13.8962H1.25008L1.25008 13.8952L1.00008 13.8962ZM5.79674 8.89789L5.80602 9.14772L5.80613 9.14772L5.79674 8.89789ZM43.8883 1.46119L43.9925 1.68844L43.9926 1.68843L43.8883 1.46119ZM48.1117 1.46119L48.0074 1.68843L48.0074 1.68843L48.1117 1.46119ZM86.2032 8.89623L86.1937 9.14604L86.194 9.14605L86.2032 8.89623ZM90.9999 13.8962L90.7499 13.8952V13.8962H90.9999ZM90.9999 38.5214L91.2499 38.5217V38.5214H90.9999ZM47.1417 100.8L47.0571 100.565L47.0565 100.565L47.1417 100.8ZM4.33341 13.8962H4.58341L4.58341 13.896L4.33341 13.8962ZM5.92507 12.2296L5.91548 11.9798L5.91382 11.9798L5.92507 12.2296ZM4.33341 38.5214L4.58341 38.5215V38.5214H4.33341ZM45.98 97.6666L45.8959 97.9021L45.9801 97.9322L46.0643 97.902L45.98 97.6666ZM87.6666 38.5214L87.9166 38.5217V38.5214H87.6666ZM87.6666 13.9012L87.4166 13.901V13.9012H87.6666ZM86.0732 12.2346L86.0842 11.9848L86.0828 11.9848L86.0732 12.2346ZM46.7217 4.49954L46.6147 4.7255L46.6175 4.72679L46.7217 4.49954ZM46 4.33287L46.0029 4.08286L45.9995 4.08287L46 4.33287ZM45.2783 4.49454L45.3825 4.7218L45.3845 4.72085L45.2783 4.49454ZM44.7672 101.035C45.1627 101.177 45.5797 101.25 45.9999 101.25L46.0001 100.75C45.6374 100.75 45.2775 100.687 44.9361 100.565L44.7672 101.035ZM0.750082 38.5212C0.736692 66.5678 18.3581 91.5939 44.7675 101.035L44.9358 100.565C18.7254 91.1943 1.23679 66.3567 1.25008 38.5215L0.750082 38.5212ZM0.750082 13.8962V38.5214H1.25008V13.8962H0.750082ZM5.78746 8.64806C2.96744 8.75284 0.738698 11.0753 0.750084 13.8973L1.25008 13.8952C1.23978 11.343 3.25552 9.24248 5.80602 9.14772L5.78746 8.64806ZM43.7841 1.23394C31.0003 7.09628 12.9671 8.37808 5.78734 8.64807L5.80613 9.14772C12.9864 8.8777 31.1097 7.59616 43.9925 1.68844L43.7841 1.23394ZM48.2159 1.23395C46.8091 0.588682 45.1909 0.588682 43.7841 1.23395L43.9926 1.68843C45.267 1.10386 46.733 1.10386 48.0074 1.68843L48.2159 1.23395ZM86.2128 8.64641C79.0328 8.37307 60.998 7.09626 48.2159 1.23395L48.0074 1.68843C60.8886 7.59617 79.0137 8.87271 86.1937 9.14604L86.2128 8.64641ZM91.2499 13.8973C91.2622 11.0747 89.0332 8.75119 86.2125 8.6464L86.194 9.14605C88.7451 9.24083 90.7611 11.3423 90.7499 13.8952L91.2499 13.8973ZM91.2499 38.5214V13.8962H90.7499V38.5214H91.2499ZM47.2262 101.035C73.6068 91.5551 91.2131 66.5541 91.2499 38.5217L90.7499 38.521C90.7134 66.3427 73.2394 91.1558 47.0571 100.565L47.2262 101.035ZM45.9999 101.25C46.4182 101.25 46.8334 101.177 47.2268 101.035L47.0565 100.565C46.7178 100.688 46.3603 100.75 46.0001 100.75L45.9999 101.25ZM4.58341 13.896C4.58264 13.1378 5.17892 12.5134 5.93632 12.4793L5.91382 11.9798C4.8891 12.026 4.08237 12.8707 4.08341 13.8965L4.58341 13.896ZM4.58341 38.5214V13.8962H4.08341V38.5214H4.58341ZM46.0641 97.4312C21.1755 88.5364 4.56876 64.952 4.58341 38.5215L4.08341 38.5212C4.06864 65.163 20.8082 88.9361 45.8959 97.9021L46.0641 97.4312ZM87.4166 38.521C87.3833 64.9487 70.7736 88.5147 45.8956 97.4313L46.0643 97.902C71.1408 88.9143 87.883 65.1602 87.9166 38.5217L87.4166 38.521ZM87.4166 13.9012V38.5214H87.9166V13.9012H87.4166ZM86.0622 12.4843C86.8202 12.5177 87.4173 13.1423 87.4166 13.901L87.9166 13.9015C87.9176 12.875 87.1097 12.03 86.0842 11.9848L86.0622 12.4843ZM46.6175 4.72679C60.0417 10.8811 78.6865 12.201 86.0636 12.4844L86.0828 11.9848C78.7067 11.7014 60.1515 10.3814 46.8258 4.27228L46.6175 4.72679ZM45.9971 4.58285C46.2108 4.58534 46.4215 4.634 46.6147 4.72548L46.8287 4.27359C46.5704 4.15127 46.2887 4.08622 46.0029 4.08289L45.9971 4.58285ZM45.3845 4.72085C45.5773 4.63039 45.7876 4.58329 46.0005 4.58287L45.9995 4.08287C45.7135 4.08344 45.431 4.14671 45.1721 4.26822L45.3845 4.72085ZM5.93467 12.4794C13.3135 12.196 31.9582 10.8761 45.3825 4.72179L45.1741 4.26728C31.8485 10.3764 13.2933 11.6964 5.91548 11.9798L5.93467 12.4794Z" fill="#007AFF" fill-opacity="0.04"/>
<path fill-rule="evenodd" clip-rule="evenodd" d="M47.2792 94.0835C46.458 94.4146 45.5405 94.4146 44.7192 94.0835C34.2278 89.7615 25.1885 82.5337 18.6643 73.2501C11.4818 63.0493 7.63867 50.8724 7.66432 38.3966V18.2848C7.66245 16.5348 9.00795 15.0782 10.7526 14.9415C18.466 14.3998 33.1393 12.7665 44.7392 7.91978C45.544 7.58143 46.4511 7.58143 47.2559 7.91978C58.8575 12.7748 73.5292 14.4015 81.2408 14.9415C82.9862 15.0774 84.3326 16.5342 84.3308 18.2848V38.3966C84.465 62.7699 69.8123 84.7922 47.2792 94.0835ZM45.9692 10.9965C34.5876 15.7665 20.6543 17.5865 10.9876 18.2665L10.9976 38.3966C10.9725 50.1862 14.6037 61.6935 21.391 71.3334C27.5486 80.0973 36.0809 86.9204 45.9842 91.0002H46.0142C67.2939 82.2191 81.1283 61.4166 80.9975 38.3966V18.2848C71.3309 17.5882 57.4092 15.7748 45.9692 10.9965Z" fill="#007AFF"/>
<path d="M44.7192 94.0835L44.5764 94.4303L44.579 94.4313L44.7192 94.0835ZM47.2792 94.0835L47.4195 94.4313L47.4222 94.4302L47.2792 94.0835ZM18.6643 73.2501L18.9711 73.0345L18.9709 73.0342L18.6643 73.2501ZM7.66432 38.3966L8.03932 38.3974V38.3966H7.66432ZM7.66432 18.2848H8.03932L8.03932 18.2844L7.66432 18.2848ZM10.7526 14.9415L10.7264 14.5674L10.7234 14.5676L10.7526 14.9415ZM44.7392 7.91978L44.8838 8.2658L44.8846 8.26547L44.7392 7.91978ZM47.2559 7.91978L47.1106 8.26547L47.1111 8.26572L47.2559 7.91978ZM81.2408 14.9415L81.2699 14.5676L81.267 14.5674L81.2408 14.9415ZM84.3308 18.2848L83.9558 18.2845V18.2848H84.3308ZM84.3308 38.3966H83.9558L83.9558 38.3987L84.3308 38.3966ZM10.9876 18.2665L10.9613 17.8924L10.6125 17.917L10.6126 18.2667L10.9876 18.2665ZM45.9692 10.9965L46.1138 10.6504L45.969 10.59L45.8243 10.6506L45.9692 10.9965ZM10.9976 38.3966L11.3726 38.3974L11.3726 38.3964L10.9976 38.3966ZM21.391 71.3334L21.6978 71.1178L21.6976 71.1175L21.391 71.3334ZM45.9842 91.0002L45.8414 91.3469L45.91 91.3752H45.9842V91.0002ZM46.0142 91.0002V91.3752H46.0886L46.1573 91.3468L46.0142 91.0002ZM80.9975 38.3966H80.6225L80.6225 38.3987L80.9975 38.3966ZM80.9975 18.2848H81.3725V17.9359L81.0245 17.9108L80.9975 18.2848ZM44.579 94.4313C45.4902 94.7987 46.5083 94.7987 47.4194 94.4313L47.139 93.7357C46.4078 94.0305 45.5907 94.0305 44.8595 93.7357L44.579 94.4313ZM18.3575 73.4657C24.9228 82.8077 34.0189 90.081 44.5764 94.4303L44.8621 93.7368C34.4367 89.442 25.4543 82.2597 18.9711 73.0345L18.3575 73.4657ZM7.28932 38.3958C7.26351 50.9492 11.1305 63.2018 18.3577 73.466L18.9709 73.0342C11.833 62.8968 8.01383 50.7956 8.03932 38.3974L7.28932 38.3958ZM7.28932 18.2848V38.3966H8.03932V18.2848H7.28932ZM10.7234 14.5676C8.78335 14.7196 7.28724 16.3393 7.28932 18.2852L8.03932 18.2844C8.03766 16.7303 9.23254 15.4367 10.7819 15.3153L10.7234 14.5676ZM44.5947 7.57377C33.0543 12.3955 18.4327 14.0262 10.7264 14.5674L10.7789 15.3156C18.4992 14.7734 33.2242 13.1374 44.8838 8.2658L44.5947 7.57377ZM47.4012 7.5741C46.5035 7.19666 45.4916 7.19666 44.5939 7.5741L44.8846 8.26547C45.5964 7.9662 46.3988 7.9662 47.1106 8.26547L47.4012 7.5741ZM81.267 14.5674C73.5622 14.0279 58.9425 12.4038 47.4007 7.57385L47.1111 8.26572C58.7726 13.1458 73.4961 14.7751 81.2146 15.3156L81.267 14.5674ZM84.7058 18.2852C84.7078 16.3386 83.2107 14.7187 81.2699 14.5676L81.2117 15.3154C82.7617 15.436 83.9574 16.7298 83.9558 18.2845L84.7058 18.2852ZM84.7058 38.3966V18.2848H83.9558V38.3966H84.7058ZM47.4222 94.4302C70.0964 85.0807 84.8408 62.9205 84.7058 38.3945L83.9558 38.3987C84.0892 62.6193 69.5283 84.5037 47.1363 93.7368L47.4222 94.4302ZM11.014 18.6406C20.6925 17.9597 34.6751 16.1364 46.1142 11.3423L45.8243 10.6506C34.5001 15.3965 20.6161 17.2133 10.9613 17.8924L11.014 18.6406ZM11.3726 38.3964L11.3626 18.2663L10.6126 18.2667L10.6226 38.3968L11.3726 38.3964ZM21.6976 71.1175C14.9549 61.5411 11.3477 50.1094 11.3726 38.3974L10.6226 38.3958C10.5973 50.263 14.2524 61.846 21.0843 71.5493L21.6976 71.1175ZM46.1271 90.6535C36.2898 86.6009 27.8144 79.8232 21.6978 71.1178L21.0841 71.549C27.2828 80.3713 35.872 87.2399 45.8414 91.3469L46.1271 90.6535ZM46.0142 90.6252H45.9842V91.3752H46.0142V90.6252ZM80.6225 38.3987C80.7524 61.2661 67.0098 81.9307 45.8712 90.6535L46.1573 91.3468C67.5781 82.5075 81.5042 61.5671 81.3725 38.3945L80.6225 38.3987ZM80.6225 18.2848V38.3966H81.3725V18.2848H80.6225ZM45.8247 11.3425C57.3219 16.1447 71.2925 17.9614 80.9705 18.6589L81.0245 17.9108C71.3692 17.215 57.4966 15.4049 46.1138 10.6504L45.8247 11.3425Z" fill="white"/>
<path d="M44.7192 94.0835L44.5764 94.4303L44.579 94.4313L44.7192 94.0835ZM47.2792 94.0835L47.4195 94.4313L47.4222 94.4302L47.2792 94.0835ZM18.6643 73.2501L18.9711 73.0345L18.9709 73.0342L18.6643 73.2501ZM7.66432 38.3966L8.03932 38.3974V38.3966H7.66432ZM7.66432 18.2848H8.03932L8.03932 18.2844L7.66432 18.2848ZM10.7526 14.9415L10.7264 14.5674L10.7234 14.5676L10.7526 14.9415ZM44.7392 7.91978L44.8838 8.2658L44.8846 8.26547L44.7392 7.91978ZM47.2559 7.91978L47.1106 8.26547L47.1111 8.26572L47.2559 7.91978ZM81.2408 14.9415L81.2699 14.5676L81.267 14.5674L81.2408 14.9415ZM84.3308 18.2848L83.9558 18.2845V18.2848H84.3308ZM84.3308 38.3966H83.9558L83.9558 38.3987L84.3308 38.3966ZM10.9876 18.2665L10.9613 17.8924L10.6125 17.917L10.6126 18.2667L10.9876 18.2665ZM45.9692 10.9965L46.1138 10.6504L45.969 10.59L45.8243 10.6506L45.9692 10.9965ZM10.9976 38.3966L11.3726 38.3974L11.3726 38.3964L10.9976 38.3966ZM21.391 71.3334L21.6978 71.1178L21.6976 71.1175L21.391 71.3334ZM45.9842 91.0002L45.8414 91.3469L45.91 91.3752H45.9842V91.0002ZM46.0142 91.0002V91.3752H46.0886L46.1573 91.3468L46.0142 91.0002ZM80.9975 38.3966H80.6225L80.6225 38.3987L80.9975 38.3966ZM80.9975 18.2848H81.3725V17.9359L81.0245 17.9108L80.9975 18.2848ZM44.579 94.4313C45.4902 94.7987 46.5083 94.7987 47.4194 94.4313L47.139 93.7357C46.4078 94.0305 45.5907 94.0305 44.8595 93.7357L44.579 94.4313ZM18.3575 73.4657C24.9228 82.8077 34.0189 90.081 44.5764 94.4303L44.8621 93.7368C34.4367 89.442 25.4543 82.2597 18.9711 73.0345L18.3575 73.4657ZM7.28932 38.3958C7.26351 50.9492 11.1305 63.2018 18.3577 73.466L18.9709 73.0342C11.833 62.8968 8.01383 50.7956 8.03932 38.3974L7.28932 38.3958ZM7.28932 18.2848V38.3966H8.03932V18.2848H7.28932ZM10.7234 14.5676C8.78335 14.7196 7.28724 16.3393 7.28932 18.2852L8.03932 18.2844C8.03766 16.7303 9.23254 15.4367 10.7819 15.3153L10.7234 14.5676ZM44.5947 7.57377C33.0543 12.3955 18.4327 14.0262 10.7264 14.5674L10.7789 15.3156C18.4992 14.7734 33.2242 13.1374 44.8838 8.2658L44.5947 7.57377ZM47.4012 7.5741C46.5035 7.19666 45.4916 7.19666 44.5939 7.5741L44.8846 8.26547C45.5964 7.9662 46.3988 7.9662 47.1106 8.26547L47.4012 7.5741ZM81.267 14.5674C73.5622 14.0279 58.9425 12.4038 47.4007 7.57385L47.1111 8.26572C58.7726 13.1458 73.4961 14.7751 81.2146 15.3156L81.267 14.5674ZM84.7058 18.2852C84.7078 16.3386 83.2107 14.7187 81.2699 14.5676L81.2117 15.3154C82.7617 15.436 83.9574 16.7298 83.9558 18.2845L84.7058 18.2852ZM84.7058 38.3966V18.2848H83.9558V38.3966H84.7058ZM47.4222 94.4302C70.0964 85.0807 84.8408 62.9205 84.7058 38.3945L83.9558 38.3987C84.0892 62.6193 69.5283 84.5037 47.1363 93.7368L47.4222 94.4302ZM11.014 18.6406C20.6925 17.9597 34.6751 16.1364 46.1142 11.3423L45.8243 10.6506C34.5001 15.3965 20.6161 17.2133 10.9613 17.8924L11.014 18.6406ZM11.3726 38.3964L11.3626 18.2663L10.6126 18.2667L10.6226 38.3968L11.3726 38.3964ZM21.6976 71.1175C14.9549 61.5411 11.3477 50.1094 11.3726 38.3974L10.6226 38.3958C10.5973 50.263 14.2524 61.846 21.0843 71.5493L21.6976 71.1175ZM46.1271 90.6535C36.2898 86.6009 27.8144 79.8232 21.6978 71.1178L21.0841 71.549C27.2828 80.3713 35.872 87.2399 45.8414 91.3469L46.1271 90.6535ZM46.0142 90.6252H45.9842V91.3752H46.0142V90.6252ZM80.6225 38.3987C80.7524 61.2661 67.0098 81.9307 45.8712 90.6535L46.1573 91.3468C67.5781 82.5075 81.5042 61.5671 81.3725 38.3945L80.6225 38.3987ZM80.6225 18.2848V38.3966H81.3725V18.2848H80.6225ZM45.8247 11.3425C57.3219 16.1447 71.2925 17.9614 80.9705 18.6589L81.0245 17.9108C71.3692 17.215 57.4966 15.4049 46.1138 10.6504L45.8247 11.3425Z" fill="#007AFF" fill-opacity="0.04"/>
<path fill-rule="evenodd" clip-rule="evenodd" d="M40.1069 58.3952L42.9403 52.8718H42.9603C43.5465 51.7231 44.7272 51 46.0169 51C47.3066 51 48.4874 51.7231 49.0736 52.8718L51.8386 58.3569L58.0836 59.2735C59.378 59.4469 60.4566 60.3509 60.8536 61.5952C61.2524 62.8213 60.9084 64.1675 59.9702 65.0519L55.4969 69.3219L56.5402 75.3736C56.7617 76.6346 56.244 77.9113 55.2069 78.662C54.1557 79.4422 52.7512 79.5535 51.5902 78.9486L46.0586 76.1019L40.4269 78.9486C39.2654 79.551 37.8623 79.4398 36.8103 78.662C35.7726 77.911 35.2548 76.6334 35.4769 75.3719L36.5303 69.3452L32.0469 65.0519C31.1088 64.1675 30.7648 62.8213 31.1636 61.5952C31.5593 60.3534 32.634 59.4499 33.9253 59.2735L40.1069 58.3952ZM48.8402 59.8552L46.0769 54.3718C46.0703 54.3568 46.0586 54.3335 45.9969 54.3335L43.1403 59.8635C42.6347 60.8573 41.676 61.5416 40.5719 61.6969L34.3886 62.5752L38.8069 66.9086C39.6242 67.6805 39.9998 68.811 39.8069 69.9186L38.7519 75.9453L44.4186 73.1369C45.4078 72.629 46.5811 72.629 47.5702 73.1369L53.1036 75.9853L52.1802 69.9186C51.9868 68.8105 52.3624 67.6792 53.1802 66.9069L57.6469 62.6319L51.4119 61.6885C50.3068 61.5338 49.3469 60.8494 48.8402 59.8552Z" fill="#007AFF"/>
<path d="M42.9403 52.8718V52.4968H42.7112L42.6066 52.7007L42.9403 52.8718ZM40.1069 58.3952L40.1597 58.7665L40.352 58.7391L40.4406 58.5663L40.1069 58.3952ZM42.9603 52.8718V53.2468H43.1899L43.2943 53.0423L42.9603 52.8718ZM49.0736 52.8718L49.4084 52.703L49.4076 52.7014L49.0736 52.8718ZM51.8386 58.3569L51.5037 58.5257L51.5914 58.6996L51.7841 58.7279L51.8386 58.3569ZM58.0836 59.2735L58.0291 59.6446L58.0338 59.6452L58.0836 59.2735ZM60.8536 61.5952L60.4963 61.7092L60.4969 61.7112L60.8536 61.5952ZM59.9702 65.0519L59.713 64.779L59.7113 64.7806L59.9702 65.0519ZM55.4969 69.3219L55.238 69.0506L55.0934 69.1887L55.1273 69.3856L55.4969 69.3219ZM56.5402 75.3736L56.1707 75.4373L56.1709 75.4385L56.5402 75.3736ZM55.2069 78.662L54.987 78.3582L54.9834 78.3608L55.2069 78.662ZM51.5902 78.9486L51.7635 78.616L51.7618 78.6152L51.5902 78.9486ZM46.0586 76.1019L46.2302 75.7685L46.0601 75.681L45.8894 75.7673L46.0586 76.1019ZM40.4269 78.9486L40.2577 78.6139L40.2543 78.6157L40.4269 78.9486ZM36.8103 78.662L37.0332 78.3604L37.0301 78.3582L36.8103 78.662ZM35.4769 75.3719L35.8463 75.437L35.8463 75.4365L35.4769 75.3719ZM36.5303 69.3452L36.8997 69.4098L36.9341 69.2128L36.7896 69.0744L36.5303 69.3452ZM32.0469 65.0519L32.3063 64.781L32.3042 64.779L32.0469 65.0519ZM31.1636 61.5952L31.5202 61.7112L31.5209 61.709L31.1636 61.5952ZM33.9253 59.2735L33.976 59.6451L33.978 59.6448L33.9253 59.2735ZM46.0769 54.3718L45.7342 54.5241L45.7379 54.5325L45.742 54.5406L46.0769 54.3718ZM48.8402 59.8552L48.5054 60.024L48.5061 60.0254L48.8402 59.8552ZM45.9969 54.3335V53.9585H45.7686L45.6637 54.1614L45.9969 54.3335ZM43.1403 59.8635L42.8071 59.6914L42.806 59.6935L43.1403 59.8635ZM40.5719 61.6969L40.5197 61.3255L40.5192 61.3256L40.5719 61.6969ZM34.3886 62.5752L34.3359 62.2039L33.5835 62.3108L34.126 62.8429L34.3886 62.5752ZM38.8069 66.9086L38.5443 67.1763L38.5494 67.1812L38.8069 66.9086ZM39.8069 69.9186L40.1763 69.9832L40.1764 69.9829L39.8069 69.9186ZM38.7519 75.9453L38.3825 75.8806L38.2548 76.6102L38.9185 76.2813L38.7519 75.9453ZM44.4186 73.1369L44.5851 73.473L44.5899 73.4705L44.4186 73.1369ZM47.5702 73.1369L47.7419 72.8035L47.7415 72.8033L47.5702 73.1369ZM53.1036 75.9853L52.9319 76.3187L53.5848 76.6547L53.4743 75.9288L53.1036 75.9853ZM52.1802 69.9186L52.5511 69.8621L52.5497 69.8541L52.1802 69.9186ZM53.1802 66.9069L53.4377 67.1795L53.4395 67.1778L53.1802 66.9069ZM57.6469 62.6319L57.9062 62.9028L58.4574 62.3752L57.703 62.2611L57.6469 62.6319ZM51.4119 61.6885L51.468 61.3177L51.4639 61.3172L51.4119 61.6885ZM42.6066 52.7007L39.7733 58.224L40.4406 58.5663L43.2739 53.043L42.6066 52.7007ZM42.9603 52.4968H42.9403V53.2468H42.9603V52.4968ZM46.0169 50.625C44.5863 50.625 43.2765 51.4271 42.6262 52.7014L43.2943 53.0423C43.8164 52.0191 44.8682 51.375 46.0169 51.375V50.625ZM49.4076 52.7014C48.7573 51.4271 47.4475 50.625 46.0169 50.625V51.375C47.1657 51.375 48.2174 52.0191 48.7396 53.0423L49.4076 52.7014ZM52.1734 58.1881L49.4084 52.703L48.7387 53.0406L51.5037 58.5257L52.1734 58.1881ZM58.138 58.9025L51.893 57.9858L51.7841 58.7279L58.0291 59.6445L58.138 58.9025ZM61.2108 61.4812C60.7698 60.0989 59.5715 59.0945 58.1333 58.9018L58.0338 59.6452C59.1846 59.7994 60.1434 60.603 60.4963 61.7092L61.2108 61.4812ZM60.2275 65.3248C61.2712 64.3408 61.6539 62.8432 61.2102 61.4792L60.4969 61.7112C60.8509 62.7994 60.5456 63.9941 59.713 64.779L60.2275 65.3248ZM55.7558 69.5932L60.2292 65.3231L59.7113 64.7806L55.238 69.0506L55.7558 69.5932ZM56.9098 75.3099L55.8664 69.2582L55.1273 69.3856L56.1707 75.4373L56.9098 75.3099ZM55.4268 78.9657C56.5801 78.1309 57.1559 76.7111 56.9096 75.3087L56.1709 75.4385C56.3675 76.5581 55.9079 77.6917 54.987 78.3582L55.4268 78.9657ZM51.417 79.2812C52.7053 79.9524 54.2639 79.8289 55.4304 78.9631L54.9834 78.3608C54.0475 79.0554 52.7971 79.1546 51.7635 78.616L51.417 79.2812ZM45.887 76.4354L51.4186 79.2821L51.7618 78.6152L46.2302 75.7685L45.887 76.4354ZM40.5961 79.2833L46.2278 76.4366L45.8894 75.7673L40.2578 78.6139L40.5961 79.2833ZM36.5873 78.9635C37.7545 79.8264 39.3111 79.9498 40.5996 79.2815L40.2543 78.6157C39.2198 79.1523 37.9702 79.0532 37.0332 78.3604L36.5873 78.9635ZM35.1076 75.3069C34.8606 76.7098 35.4364 78.1306 36.5904 78.9658L37.0301 78.3582C36.1087 77.6914 35.649 76.557 35.8463 75.437L35.1076 75.3069ZM36.1609 69.2807L35.1075 75.3074L35.8463 75.4365L36.8997 69.4098L36.1609 69.2807ZM31.7876 65.3227L36.2709 69.6161L36.7896 69.0744L32.3063 64.781L31.7876 65.3227ZM30.807 61.4792C30.3633 62.8432 30.746 64.3408 31.7897 65.3248L32.3042 64.779C31.4715 63.9941 31.1662 62.7994 31.5202 61.7112L30.807 61.4792ZM33.8745 58.902C32.4399 59.098 31.2459 60.1017 30.8063 61.4814L31.5209 61.709C31.8727 60.6051 32.828 59.8019 33.976 59.6451L33.8745 58.902ZM40.0542 58.0239L33.8725 58.9023L33.978 59.6448L40.1597 58.7665L40.0542 58.0239ZM45.742 54.5406L48.5054 60.024L49.1751 59.6864L46.4118 54.2031L45.742 54.5406ZM45.9969 54.7085C45.9848 54.7085 45.9205 54.7068 45.8482 54.6582C45.7685 54.6046 45.7376 54.5318 45.7342 54.5241L46.4196 54.2195C46.4095 54.1969 46.3695 54.1049 46.2669 54.0359C46.1717 53.9719 46.0707 53.9585 45.9969 53.9585V54.7085ZM43.4734 60.0356L46.3301 54.5056L45.6637 54.1614L42.8071 59.6914L43.4734 60.0356ZM40.6241 62.0682C41.8494 61.8959 42.9135 61.1364 43.4745 60.0336L42.806 59.6935C42.356 60.5781 41.5025 61.1873 40.5197 61.3255L40.6241 62.0682ZM34.4413 62.9465L40.6247 62.0681L40.5192 61.3256L34.3359 62.2039L34.4413 62.9465ZM39.0695 66.6408L34.6512 62.3075L34.126 62.8429L38.5444 67.1763L39.0695 66.6408ZM40.1764 69.9829C40.3908 68.7513 39.9732 67.4943 39.0644 66.6359L38.5494 67.1812C39.2752 67.8667 39.6087 68.8707 39.4375 69.8542L40.1764 69.9829ZM39.1213 76.0099L40.1763 69.9832L39.4375 69.8539L38.3825 75.8806L39.1213 76.0099ZM44.2521 72.8009L38.5854 75.6093L38.9185 76.2813L44.5851 73.4729L44.2521 72.8009ZM47.7415 72.8033C46.6448 72.2402 45.344 72.2402 44.2473 72.8033L44.5899 73.4705C45.4715 73.0178 46.5173 73.0178 47.399 73.4705L47.7415 72.8033ZM53.2752 75.6519L47.7419 72.8035L47.3986 73.4703L52.9319 76.3187L53.2752 75.6519ZM51.8095 69.975L52.7328 76.0417L53.4743 75.9288L52.551 69.8622L51.8095 69.975ZM52.9228 66.6343C52.0134 67.493 51.5957 68.7509 51.8108 69.9831L52.5497 69.8541C52.3779 68.87 52.7114 67.8654 53.4377 67.1795L52.9228 66.6343ZM57.3876 62.361L52.9209 66.636L53.4395 67.1778L57.9062 62.9028L57.3876 62.361ZM51.3558 62.0593L57.5908 63.0027L57.703 62.2611L51.468 61.3178L51.3558 62.0593ZM48.5061 60.0254C49.0683 61.1287 50.1336 61.8882 51.3599 62.0599L51.4639 61.3172C50.4801 61.1794 49.6254 60.5701 49.1744 59.6849L48.5061 60.0254Z" fill="white"/>
<path d="M42.9403 52.8718V52.4968H42.7112L42.6066 52.7007L42.9403 52.8718ZM40.1069 58.3952L40.1597 58.7665L40.352 58.7391L40.4406 58.5663L40.1069 58.3952ZM42.9603 52.8718V53.2468H43.1899L43.2943 53.0423L42.9603 52.8718ZM49.0736 52.8718L49.4084 52.703L49.4076 52.7014L49.0736 52.8718ZM51.8386 58.3569L51.5037 58.5257L51.5914 58.6996L51.7841 58.7279L51.8386 58.3569ZM58.0836 59.2735L58.0291 59.6446L58.0338 59.6452L58.0836 59.2735ZM60.8536 61.5952L60.4963 61.7092L60.4969 61.7112L60.8536 61.5952ZM59.9702 65.0519L59.713 64.779L59.7113 64.7806L59.9702 65.0519ZM55.4969 69.3219L55.238 69.0506L55.0934 69.1887L55.1273 69.3856L55.4969 69.3219ZM56.5402 75.3736L56.1707 75.4373L56.1709 75.4385L56.5402 75.3736ZM55.2069 78.662L54.987 78.3582L54.9834 78.3608L55.2069 78.662ZM51.5902 78.9486L51.7635 78.616L51.7618 78.6152L51.5902 78.9486ZM46.0586 76.1019L46.2302 75.7685L46.0601 75.681L45.8894 75.7673L46.0586 76.1019ZM40.4269 78.9486L40.2577 78.6139L40.2543 78.6157L40.4269 78.9486ZM36.8103 78.662L37.0332 78.3604L37.0301 78.3582L36.8103 78.662ZM35.4769 75.3719L35.8463 75.437L35.8463 75.4365L35.4769 75.3719ZM36.5303 69.3452L36.8997 69.4098L36.9341 69.2128L36.7896 69.0744L36.5303 69.3452ZM32.0469 65.0519L32.3063 64.781L32.3042 64.779L32.0469 65.0519ZM31.1636 61.5952L31.5202 61.7112L31.5209 61.709L31.1636 61.5952ZM33.9253 59.2735L33.976 59.6451L33.978 59.6448L33.9253 59.2735ZM46.0769 54.3718L45.7342 54.5241L45.7379 54.5325L45.742 54.5406L46.0769 54.3718ZM48.8402 59.8552L48.5054 60.024L48.5061 60.0254L48.8402 59.8552ZM45.9969 54.3335V53.9585H45.7686L45.6637 54.1614L45.9969 54.3335ZM43.1403 59.8635L42.8071 59.6914L42.806 59.6935L43.1403 59.8635ZM40.5719 61.6969L40.5197 61.3255L40.5192 61.3256L40.5719 61.6969ZM34.3886 62.5752L34.3359 62.2039L33.5835 62.3108L34.126 62.8429L34.3886 62.5752ZM38.8069 66.9086L38.5443 67.1763L38.5494 67.1812L38.8069 66.9086ZM39.8069 69.9186L40.1763 69.9832L40.1764 69.9829L39.8069 69.9186ZM38.7519 75.9453L38.3825 75.8806L38.2548 76.6102L38.9185 76.2813L38.7519 75.9453ZM44.4186 73.1369L44.5851 73.473L44.5899 73.4705L44.4186 73.1369ZM47.5702 73.1369L47.7419 72.8035L47.7415 72.8033L47.5702 73.1369ZM53.1036 75.9853L52.9319 76.3187L53.5848 76.6547L53.4743 75.9288L53.1036 75.9853ZM52.1802 69.9186L52.5511 69.8621L52.5497 69.8541L52.1802 69.9186ZM53.1802 66.9069L53.4377 67.1795L53.4395 67.1778L53.1802 66.9069ZM57.6469 62.6319L57.9062 62.9028L58.4574 62.3752L57.703 62.2611L57.6469 62.6319ZM51.4119 61.6885L51.468 61.3177L51.4639 61.3172L51.4119 61.6885ZM42.6066 52.7007L39.7733 58.224L40.4406 58.5663L43.2739 53.043L42.6066 52.7007ZM42.9603 52.4968H42.9403V53.2468H42.9603V52.4968ZM46.0169 50.625C44.5863 50.625 43.2765 51.4271 42.6262 52.7014L43.2943 53.0423C43.8164 52.0191 44.8682 51.375 46.0169 51.375V50.625ZM49.4076 52.7014C48.7573 51.4271 47.4475 50.625 46.0169 50.625V51.375C47.1657 51.375 48.2174 52.0191 48.7396 53.0423L49.4076 52.7014ZM52.1734 58.1881L49.4084 52.703L48.7387 53.0406L51.5037 58.5257L52.1734 58.1881ZM58.138 58.9025L51.893 57.9858L51.7841 58.7279L58.0291 59.6445L58.138 58.9025ZM61.2108 61.4812C60.7698 60.0989 59.5715 59.0945 58.1333 58.9018L58.0338 59.6452C59.1846 59.7994 60.1434 60.603 60.4963 61.7092L61.2108 61.4812ZM60.2275 65.3248C61.2712 64.3408 61.6539 62.8432 61.2102 61.4792L60.4969 61.7112C60.8509 62.7994 60.5456 63.9941 59.713 64.779L60.2275 65.3248ZM55.7558 69.5932L60.2292 65.3231L59.7113 64.7806L55.238 69.0506L55.7558 69.5932ZM56.9098 75.3099L55.8664 69.2582L55.1273 69.3856L56.1707 75.4373L56.9098 75.3099ZM55.4268 78.9657C56.5801 78.1309 57.1559 76.7111 56.9096 75.3087L56.1709 75.4385C56.3675 76.5581 55.9079 77.6917 54.987 78.3582L55.4268 78.9657ZM51.417 79.2812C52.7053 79.9524 54.2639 79.8289 55.4304 78.9631L54.9834 78.3608C54.0475 79.0554 52.7971 79.1546 51.7635 78.616L51.417 79.2812ZM45.887 76.4354L51.4186 79.2821L51.7618 78.6152L46.2302 75.7685L45.887 76.4354ZM40.5961 79.2833L46.2278 76.4366L45.8894 75.7673L40.2578 78.6139L40.5961 79.2833ZM36.5873 78.9635C37.7545 79.8264 39.3111 79.9498 40.5996 79.2815L40.2543 78.6157C39.2198 79.1523 37.9702 79.0532 37.0332 78.3604L36.5873 78.9635ZM35.1076 75.3069C34.8606 76.7098 35.4364 78.1306 36.5904 78.9658L37.0301 78.3582C36.1087 77.6914 35.649 76.557 35.8463 75.437L35.1076 75.3069ZM36.1609 69.2807L35.1075 75.3074L35.8463 75.4365L36.8997 69.4098L36.1609 69.2807ZM31.7876 65.3227L36.2709 69.6161L36.7896 69.0744L32.3063 64.781L31.7876 65.3227ZM30.807 61.4792C30.3633 62.8432 30.746 64.3408 31.7897 65.3248L32.3042 64.779C31.4715 63.9941 31.1662 62.7994 31.5202 61.7112L30.807 61.4792ZM33.8745 58.902C32.4399 59.098 31.2459 60.1017 30.8063 61.4814L31.5209 61.709C31.8727 60.6051 32.828 59.8019 33.976 59.6451L33.8745 58.902ZM40.0542 58.0239L33.8725 58.9023L33.978 59.6448L40.1597 58.7665L40.0542 58.0239ZM45.742 54.5406L48.5054 60.024L49.1751 59.6864L46.4118 54.2031L45.742 54.5406ZM45.9969 54.7085C45.9848 54.7085 45.9205 54.7068 45.8482 54.6582C45.7685 54.6046 45.7376 54.5318 45.7342 54.5241L46.4196 54.2195C46.4095 54.1969 46.3695 54.1049 46.2669 54.0359C46.1717 53.9719 46.0707 53.9585 45.9969 53.9585V54.7085ZM43.4734 60.0356L46.3301 54.5056L45.6637 54.1614L42.8071 59.6914L43.4734 60.0356ZM40.6241 62.0682C41.8494 61.8959 42.9135 61.1364 43.4745 60.0336L42.806 59.6935C42.356 60.5781 41.5025 61.1873 40.5197 61.3255L40.6241 62.0682ZM34.4413 62.9465L40.6247 62.0681L40.5192 61.3256L34.3359 62.2039L34.4413 62.9465ZM39.0695 66.6408L34.6512 62.3075L34.126 62.8429L38.5444 67.1763L39.0695 66.6408ZM40.1764 69.9829C40.3908 68.7513 39.9732 67.4943 39.0644 66.6359L38.5494 67.1812C39.2752 67.8667 39.6087 68.8707 39.4375 69.8542L40.1764 69.9829ZM39.1213 76.0099L40.1763 69.9832L39.4375 69.8539L38.3825 75.8806L39.1213 76.0099ZM44.2521 72.8009L38.5854 75.6093L38.9185 76.2813L44.5851 73.4729L44.2521 72.8009ZM47.7415 72.8033C46.6448 72.2402 45.344 72.2402 44.2473 72.8033L44.5899 73.4705C45.4715 73.0178 46.5173 73.0178 47.399 73.4705L47.7415 72.8033ZM53.2752 75.6519L47.7419 72.8035L47.3986 73.4703L52.9319 76.3187L53.2752 75.6519ZM51.8095 69.975L52.7328 76.0417L53.4743 75.9288L52.551 69.8622L51.8095 69.975ZM52.9228 66.6343C52.0134 67.493 51.5957 68.7509 51.8108 69.9831L52.5497 69.8541C52.3779 68.87 52.7114 67.8654 53.4377 67.1795L52.9228 66.6343ZM57.3876 62.361L52.9209 66.636L53.4395 67.1778L57.9062 62.9028L57.3876 62.361ZM51.3558 62.0593L57.5908 63.0027L57.703 62.2611L51.468 61.3178L51.3558 62.0593ZM48.5061 60.0254C49.0683 61.1287 50.1336 61.8882 51.3599 62.0599L51.4639 61.3172C50.4801 61.1794 49.6254 60.5701 49.1744 59.6849L48.5061 60.0254Z" fill="#007AFF" fill-opacity="0.04"/>
<path d="M27.6692 40.9994V35.9994C27.6692 35.0789 26.9231 34.3327 26.0026 34.3327H22.6693C21.7488 34.3327 21.0026 35.0789 21.0026 35.9994C21.0026 36.9199 21.7488 37.6661 22.6693 37.6661H24.3359V40.9994C24.3359 41.9199 23.5897 42.6661 22.6693 42.6661H19.3359C18.4155 42.6661 17.6693 41.9199 17.6693 40.9994V27.666C17.6693 26.7456 18.4155 25.9994 19.3359 25.9994H22.6693C23.5897 25.9994 24.3359 26.7456 24.3359 27.666C24.3359 28.5865 25.0821 29.3327 26.0026 29.3327C26.9231 29.3327 27.6692 28.5865 27.6692 27.666C27.6692 24.9046 25.4307 22.666 22.6693 22.666H19.3359C16.5745 22.666 14.3359 24.9046 14.3359 27.666V40.9994C14.3359 43.7609 16.5745 45.9995 19.3359 45.9995H22.6693C25.4307 45.9995 27.6692 43.7609 27.6692 40.9994Z" fill="#007AFF"/>
<path d="M27.6692 40.9994V35.9994C27.6692 35.0789 26.9231 34.3327 26.0026 34.3327H22.6693C21.7488 34.3327 21.0026 35.0789 21.0026 35.9994C21.0026 36.9199 21.7488 37.6661 22.6693 37.6661H24.3359V40.9994C24.3359 41.9199 23.5897 42.6661 22.6693 42.6661H19.3359C18.4155 42.6661 17.6693 41.9199 17.6693 40.9994V27.666C17.6693 26.7456 18.4155 25.9994 19.3359 25.9994H22.6693C23.5897 25.9994 24.3359 26.7456 24.3359 27.666C24.3359 28.5865 25.0821 29.3327 26.0026 29.3327C26.9231 29.3327 27.6692 28.5865 27.6692 27.666C27.6692 24.9046 25.4307 22.666 22.6693 22.666H19.3359C16.5745 22.666 14.3359 24.9046 14.3359 27.666V40.9994C14.3359 43.7609 16.5745 45.9995 19.3359 45.9995H22.6693C25.4307 45.9995 27.6692 43.7609 27.6692 40.9994Z" stroke="white" stroke-width="0.75"/>
<path d="M27.6692 40.9994V35.9994C27.6692 35.0789 26.9231 34.3327 26.0026 34.3327H22.6693C21.7488 34.3327 21.0026 35.0789 21.0026 35.9994C21.0026 36.9199 21.7488 37.6661 22.6693 37.6661H24.3359V40.9994C24.3359 41.9199 23.5897 42.6661 22.6693 42.6661H19.3359C18.4155 42.6661 17.6693 41.9199 17.6693 40.9994V27.666C17.6693 26.7456 18.4155 25.9994 19.3359 25.9994H22.6693C23.5897 25.9994 24.3359 26.7456 24.3359 27.666C24.3359 28.5865 25.0821 29.3327 26.0026 29.3327C26.9231 29.3327 27.6692 28.5865 27.6692 27.666C27.6692 24.9046 25.4307 22.666 22.6693 22.666H19.3359C16.5745 22.666 14.3359 24.9046 14.3359 27.666V40.9994C14.3359 43.7609 16.5745 45.9995 19.3359 45.9995H22.6693C25.4307 45.9995 27.6692 43.7609 27.6692 40.9994Z" stroke="#007AFF" stroke-opacity="0.04" stroke-width="0.75"/>
<path fill-rule="evenodd" clip-rule="evenodd" d="M44.3333 37.6661C44.3278 42.2662 40.6001 45.9939 36 45.9995H32.6667C31.7462 45.9995 31 45.2533 31 44.3328V24.3327C31 23.4122 31.7462 22.666 32.6667 22.666H36C40.6001 22.6715 44.3278 26.3993 44.3333 30.9994V37.6661ZM36 25.9994H34.3333V42.6661H36C38.7614 42.6661 41 40.4275 41 37.6661V30.9994C41 28.238 38.7614 25.9994 36 25.9994Z" fill="#007AFF"/>
<path d="M36 45.9995V46.3745H36.0004L36 45.9995ZM44.3333 37.6661L44.7083 37.6665V37.6661H44.3333ZM36 22.666L36.0004 22.291H36V22.666ZM44.3333 30.9994H44.7083V30.9989L44.3333 30.9994ZM34.3333 25.9994V25.6244H33.9583V25.9994H34.3333ZM34.3333 42.6661H33.9583V43.0411H34.3333V42.6661ZM36.0004 46.3745C40.8073 46.3687 44.7025 42.4734 44.7083 37.6665L43.9583 37.6656C43.953 42.059 40.3929 45.6192 35.9995 45.6245L36.0004 46.3745ZM32.6667 46.3745H36V45.6245H32.6667V46.3745ZM30.625 44.3328C30.625 45.4604 31.5391 46.3745 32.6667 46.3745V45.6245C31.9533 45.6245 31.375 45.0462 31.375 44.3328H30.625ZM30.625 24.3327V44.3328H31.375V24.3327H30.625ZM32.6667 22.291C31.5391 22.291 30.625 23.2051 30.625 24.3327H31.375C31.375 23.6193 31.9533 23.041 32.6667 23.041V22.291ZM36 22.291H32.6667V23.041H36V22.291ZM44.7083 30.9989C44.7025 26.1921 40.8073 22.2968 36.0004 22.291L35.9995 23.041C40.3929 23.0463 43.953 26.6065 43.9583 30.9998L44.7083 30.9989ZM44.7083 37.6661V30.9994H43.9583V37.6661H44.7083ZM34.3333 26.3744H36V25.6244H34.3333V26.3744ZM34.7083 42.6661V25.9994H33.9583V42.6661H34.7083ZM36 42.2911H34.3333V43.0411H36V42.2911ZM40.625 37.6661C40.625 40.2204 38.5543 42.2911 36 42.2911V43.0411C38.9685 43.0411 41.375 40.6346 41.375 37.6661H40.625ZM40.625 30.9994V37.6661H41.375V30.9994H40.625ZM36 26.3744C38.5543 26.3744 40.625 28.4451 40.625 30.9994H41.375C41.375 28.0308 38.9685 25.6244 36 25.6244V26.3744Z" fill="white"/>
<path d="M36 45.9995V46.3745H36.0004L36 45.9995ZM44.3333 37.6661L44.7083 37.6665V37.6661H44.3333ZM36 22.666L36.0004 22.291H36V22.666ZM44.3333 30.9994H44.7083V30.9989L44.3333 30.9994ZM34.3333 25.9994V25.6244H33.9583V25.9994H34.3333ZM34.3333 42.6661H33.9583V43.0411H34.3333V42.6661ZM36.0004 46.3745C40.8073 46.3687 44.7025 42.4734 44.7083 37.6665L43.9583 37.6656C43.953 42.059 40.3929 45.6192 35.9995 45.6245L36.0004 46.3745ZM32.6667 46.3745H36V45.6245H32.6667V46.3745ZM30.625 44.3328C30.625 45.4604 31.5391 46.3745 32.6667 46.3745V45.6245C31.9533 45.6245 31.375 45.0462 31.375 44.3328H30.625ZM30.625 24.3327V44.3328H31.375V24.3327H30.625ZM32.6667 22.291C31.5391 22.291 30.625 23.2051 30.625 24.3327H31.375C31.375 23.6193 31.9533 23.041 32.6667 23.041V22.291ZM36 22.291H32.6667V23.041H36V22.291ZM44.7083 30.9989C44.7025 26.1921 40.8073 22.2968 36.0004 22.291L35.9995 23.041C40.3929 23.0463 43.953 26.6065 43.9583 30.9998L44.7083 30.9989ZM44.7083 37.6661V30.9994H43.9583V37.6661H44.7083ZM34.3333 26.3744H36V25.6244H34.3333V26.3744ZM34.7083 42.6661V25.9994H33.9583V42.6661H34.7083ZM36 42.2911H34.3333V43.0411H36V42.2911ZM40.625 37.6661C40.625 40.2204 38.5543 42.2911 36 42.2911V43.0411C38.9685 43.0411 41.375 40.6346 41.375 37.6661H40.625ZM40.625 30.9994V37.6661H41.375V30.9994H40.625ZM36 26.3744C38.5543 26.3744 40.625 28.4451 40.625 30.9994H41.375C41.375 28.0308 38.9685 25.6244 36 25.6244V26.3744Z" fill="#007AFF" fill-opacity="0.04"/>
<path fill-rule="evenodd" clip-rule="evenodd" d="M50.9974 44.0878C50.9974 45.0083 50.2512 45.7545 49.3307 45.7545C48.4103 45.7545 47.6641 45.0083 47.6641 44.0878V24.3327C47.6641 23.4122 48.4103 22.666 49.3307 22.666H52.6641C57.2664 22.666 60.9974 26.397 60.9974 30.9994C60.9974 35.6018 57.2664 39.3328 52.6641 39.3328H50.9974V44.0878ZM52.6641 25.9994H50.9974V35.9994H52.6641C55.4255 35.9994 57.664 33.7608 57.664 30.9994C57.664 28.238 55.4255 25.9994 52.6641 25.9994Z" fill="#007AFF"/>
<path d="M50.9974 39.3328V38.9578H50.6224V39.3328H50.9974ZM50.9974 25.9994V25.6244H50.6224V25.9994H50.9974ZM50.9974 35.9994H50.6224V36.3744H50.9974V35.9994ZM49.3307 46.1295C50.4583 46.1295 51.3724 45.2154 51.3724 44.0878H50.6224C50.6224 44.8012 50.0441 45.3795 49.3307 45.3795V46.1295ZM47.2891 44.0878C47.2891 45.2154 48.2031 46.1295 49.3307 46.1295V45.3795C48.6174 45.3795 48.0391 44.8012 48.0391 44.0878H47.2891ZM47.2891 24.3327V44.0878H48.0391V24.3327H47.2891ZM49.3307 22.291C48.2031 22.291 47.2891 23.2051 47.2891 24.3327H48.0391C48.0391 23.6193 48.6174 23.041 49.3307 23.041V22.291ZM52.6641 22.291H49.3307V23.041H52.6641V22.291ZM61.3724 30.9994C61.3724 26.1899 57.4735 22.291 52.6641 22.291V23.041C57.0593 23.041 60.6224 26.6041 60.6224 30.9994H61.3724ZM52.6641 39.7078C57.4735 39.7078 61.3724 35.8089 61.3724 30.9994H60.6224C60.6224 35.3947 57.0593 38.9578 52.6641 38.9578V39.7078ZM50.9974 39.7078H52.6641V38.9578H50.9974V39.7078ZM51.3724 44.0878V39.3328H50.6224V44.0878H51.3724ZM50.9974 26.3744H52.6641V25.6244H50.9974V26.3744ZM51.3724 35.9994V25.9994H50.6224V35.9994H51.3724ZM52.6641 35.6244H50.9974V36.3744H52.6641V35.6244ZM57.289 30.9994C57.289 33.5537 55.2184 35.6244 52.6641 35.6244V36.3744C55.6326 36.3744 58.039 33.9679 58.039 30.9994H57.289ZM52.6641 26.3744C55.2184 26.3744 57.289 28.4451 57.289 30.9994H58.039C58.039 28.0308 55.6326 25.6244 52.6641 25.6244V26.3744Z" fill="white"/>
<path d="M50.9974 39.3328V38.9578H50.6224V39.3328H50.9974ZM50.9974 25.9994V25.6244H50.6224V25.9994H50.9974ZM50.9974 35.9994H50.6224V36.3744H50.9974V35.9994ZM49.3307 46.1295C50.4583 46.1295 51.3724 45.2154 51.3724 44.0878H50.6224C50.6224 44.8012 50.0441 45.3795 49.3307 45.3795V46.1295ZM47.2891 44.0878C47.2891 45.2154 48.2031 46.1295 49.3307 46.1295V45.3795C48.6174 45.3795 48.0391 44.8012 48.0391 44.0878H47.2891ZM47.2891 24.3327V44.0878H48.0391V24.3327H47.2891ZM49.3307 22.291C48.2031 22.291 47.2891 23.2051 47.2891 24.3327H48.0391C48.0391 23.6193 48.6174 23.041 49.3307 23.041V22.291ZM52.6641 22.291H49.3307V23.041H52.6641V22.291ZM61.3724 30.9994C61.3724 26.1899 57.4735 22.291 52.6641 22.291V23.041C57.0593 23.041 60.6224 26.6041 60.6224 30.9994H61.3724ZM52.6641 39.7078C57.4735 39.7078 61.3724 35.8089 61.3724 30.9994H60.6224C60.6224 35.3947 57.0593 38.9578 52.6641 38.9578V39.7078ZM50.9974 39.7078H52.6641V38.9578H50.9974V39.7078ZM51.3724 44.0878V39.3328H50.6224V44.0878H51.3724ZM50.9974 26.3744H52.6641V25.6244H50.9974V26.3744ZM51.3724 35.9994V25.9994H50.6224V35.9994H51.3724ZM52.6641 35.6244H50.9974V36.3744H52.6641V35.6244ZM57.289 30.9994C57.289 33.5537 55.2184 35.6244 52.6641 35.6244V36.3744C55.6326 36.3744 58.039 33.9679 58.039 30.9994H57.289ZM52.6641 26.3744C55.2184 26.3744 57.289 28.4451 57.289 30.9994H58.039C58.039 28.0308 55.6326 25.6244 52.6641 25.6244V26.3744Z" fill="#007AFF" fill-opacity="0.04"/>
<path fill-rule="evenodd" clip-rule="evenodd" d="M67.6693 44.0878C67.6693 45.0083 66.9231 45.7545 66.0026 45.7545C65.0821 45.7545 64.3359 45.0083 64.3359 44.0878V24.3327C64.3359 23.4122 65.0821 22.666 66.0026 22.666H71.0026C74.6845 22.666 77.6692 25.6508 77.6692 29.3327V30.9994C77.6666 33.1045 76.6653 35.0835 74.9709 36.3327C75.6344 37.1926 75.9969 38.2467 76.0026 39.3328V44.3328C76.0026 45.2533 75.2564 45.9995 74.3359 45.9995C73.4154 45.9995 72.6693 45.2533 72.6693 44.3328V39.3328C72.6693 38.4123 71.9231 37.6661 71.0026 37.6661H67.6693V44.0878ZM71.0026 25.9994H67.6693V34.3327H71.0026C72.8435 34.3327 74.3359 32.8403 74.3359 30.9994V29.3327C74.3359 27.4918 72.8435 25.9994 71.0026 25.9994Z" fill="#007AFF"/>
<path d="M77.6692 30.9994L78.0442 30.9999V30.9994H77.6692ZM74.9709 36.3327L74.7484 36.0309L74.4399 36.2584L74.674 36.5618L74.9709 36.3327ZM76.0026 39.3328H76.3776L76.3776 39.3308L76.0026 39.3328ZM67.6693 37.6661V37.2911H67.2943V37.6661H67.6693ZM67.6693 25.9994V25.6244H67.2943V25.9994H67.6693ZM67.6693 34.3327H67.2943V34.7077H67.6693V34.3327ZM66.0026 46.1295C67.1302 46.1295 68.0443 45.2154 68.0443 44.0878H67.2943C67.2943 44.8012 66.716 45.3795 66.0026 45.3795V46.1295ZM63.9609 44.0878C63.9609 45.2154 64.875 46.1295 66.0026 46.1295V45.3795C65.2892 45.3795 64.7109 44.8012 64.7109 44.0878H63.9609ZM63.9609 24.3327V44.0878H64.7109V24.3327H63.9609ZM66.0026 22.291C64.875 22.291 63.9609 23.2051 63.9609 24.3327H64.7109C64.7109 23.6193 65.2892 23.041 66.0026 23.041V22.291ZM71.0026 22.291H66.0026V23.041H71.0026V22.291ZM78.0442 29.3327C78.0442 25.4437 74.8916 22.291 71.0026 22.291V23.041C74.4774 23.041 77.2942 25.8579 77.2942 29.3327H78.0442ZM78.0442 30.9994V29.3327H77.2942V30.9994H78.0442ZM75.1934 36.6346C76.9836 35.3148 78.0414 33.2239 78.0442 30.9999L77.2942 30.9989C77.2917 32.9851 76.347 34.8523 74.7484 36.0309L75.1934 36.6346ZM76.3776 39.3308C76.3714 38.1625 75.9815 37.0286 75.2678 36.1037L74.674 36.5618C75.2873 37.3566 75.6223 38.3309 75.6276 39.3347L76.3776 39.3308ZM76.3776 44.3328V39.3328H75.6276V44.3328H76.3776ZM74.3359 46.3745C75.4635 46.3745 76.3776 45.4604 76.3776 44.3328H75.6276C75.6276 45.0462 75.0493 45.6245 74.3359 45.6245V46.3745ZM72.2943 44.3328C72.2943 45.4604 73.2083 46.3745 74.3359 46.3745V45.6245C73.6226 45.6245 73.0443 45.0462 73.0443 44.3328H72.2943ZM72.2943 39.3328V44.3328H73.0443V39.3328H72.2943ZM71.0026 38.0411C71.716 38.0411 72.2943 38.6194 72.2943 39.3328H73.0443C73.0443 38.2052 72.1302 37.2911 71.0026 37.2911V38.0411ZM67.6693 38.0411H71.0026V37.2911H67.6693V38.0411ZM68.0443 44.0878V37.6661H67.2943V44.0878H68.0443ZM67.6693 26.3744H71.0026V25.6244H67.6693V26.3744ZM68.0443 34.3327V25.9994H67.2943V34.3327H68.0443ZM71.0026 33.9577H67.6693V34.7077H71.0026V33.9577ZM73.9609 30.9994C73.9609 32.6332 72.6364 33.9577 71.0026 33.9577V34.7077C73.0506 34.7077 74.7109 33.0475 74.7109 30.9994H73.9609ZM73.9609 29.3327V30.9994H74.7109V29.3327H73.9609ZM71.0026 26.3744C72.6364 26.3744 73.9609 27.6989 73.9609 29.3327H74.7109C74.7109 27.2847 73.0506 25.6244 71.0026 25.6244V26.3744Z" fill="white"/>
<path d="M77.6692 30.9994L78.0442 30.9999V30.9994H77.6692ZM74.9709 36.3327L74.7484 36.0309L74.4399 36.2584L74.674 36.5618L74.9709 36.3327ZM76.0026 39.3328H76.3776L76.3776 39.3308L76.0026 39.3328ZM67.6693 37.6661V37.2911H67.2943V37.6661H67.6693ZM67.6693 25.9994V25.6244H67.2943V25.9994H67.6693ZM67.6693 34.3327H67.2943V34.7077H67.6693V34.3327ZM66.0026 46.1295C67.1302 46.1295 68.0443 45.2154 68.0443 44.0878H67.2943C67.2943 44.8012 66.716 45.3795 66.0026 45.3795V46.1295ZM63.9609 44.0878C63.9609 45.2154 64.875 46.1295 66.0026 46.1295V45.3795C65.2892 45.3795 64.7109 44.8012 64.7109 44.0878H63.9609ZM63.9609 24.3327V44.0878H64.7109V24.3327H63.9609ZM66.0026 22.291C64.875 22.291 63.9609 23.2051 63.9609 24.3327H64.7109C64.7109 23.6193 65.2892 23.041 66.0026 23.041V22.291ZM71.0026 22.291H66.0026V23.041H71.0026V22.291ZM78.0442 29.3327C78.0442 25.4437 74.8916 22.291 71.0026 22.291V23.041C74.4774 23.041 77.2942 25.8579 77.2942 29.3327H78.0442ZM78.0442 30.9994V29.3327H77.2942V30.9994H78.0442ZM75.1934 36.6346C76.9836 35.3148 78.0414 33.2239 78.0442 30.9999L77.2942 30.9989C77.2917 32.9851 76.347 34.8523 74.7484 36.0309L75.1934 36.6346ZM76.3776 39.3308C76.3714 38.1625 75.9815 37.0286 75.2678 36.1037L74.674 36.5618C75.2873 37.3566 75.6223 38.3309 75.6276 39.3347L76.3776 39.3308ZM76.3776 44.3328V39.3328H75.6276V44.3328H76.3776ZM74.3359 46.3745C75.4635 46.3745 76.3776 45.4604 76.3776 44.3328H75.6276C75.6276 45.0462 75.0493 45.6245 74.3359 45.6245V46.3745ZM72.2943 44.3328C72.2943 45.4604 73.2083 46.3745 74.3359 46.3745V45.6245C73.6226 45.6245 73.0443 45.0462 73.0443 44.3328H72.2943ZM72.2943 39.3328V44.3328H73.0443V39.3328H72.2943ZM71.0026 38.0411C71.716 38.0411 72.2943 38.6194 72.2943 39.3328H73.0443C73.0443 38.2052 72.1302 37.2911 71.0026 37.2911V38.0411ZM67.6693 38.0411H71.0026V37.2911H67.6693V38.0411ZM68.0443 44.0878V37.6661H67.2943V44.0878H68.0443ZM67.6693 26.3744H71.0026V25.6244H67.6693V26.3744ZM68.0443 34.3327V25.9994H67.2943V34.3327H68.0443ZM71.0026 33.9577H67.6693V34.7077H71.0026V33.9577ZM73.9609 30.9994C73.9609 32.6332 72.6364 33.9577 71.0026 33.9577V34.7077C73.0506 34.7077 74.7109 33.0475 74.7109 30.9994H73.9609ZM73.9609 29.3327V30.9994H74.7109V29.3327H73.9609ZM71.0026 26.3744C72.6364 26.3744 73.9609 27.6989 73.9609 29.3327H74.7109C74.7109 27.2847 73.0506 25.6244 71.0026 25.6244V26.3744Z" fill="#007AFF" fill-opacity="0.04"/>
</svg>
