<svg width="117" height="101" viewBox="0 0 117 101" fill="none" xmlns="http://www.w3.org/2000/svg">
<path fill-rule="evenodd" clip-rule="evenodd" d="M80.062 11.9058C90.1393 11.9181 98.4907 19.674 99.1847 29.6651C110.482 33.1707 117.509 44.3507 115.724 55.9778C113.938 67.6049 103.876 76.1932 92.0408 76.1908C90.7177 76.1908 89.645 75.1248 89.645 73.8098C89.645 72.4949 90.7177 71.4289 92.0408 71.4289C101.8 71.4322 110.002 64.1448 111.088 54.5064C112.173 44.8679 105.795 35.9588 96.2767 33.8177C95.1511 33.5649 94.3668 32.5504 94.4109 31.4044C94.4109 31.3913 94.4152 31.3222 94.4193 31.2545C94.4233 31.1893 94.4272 31.1254 94.4272 31.1137C94.4942 26.4103 92.2204 21.9772 88.3512 19.2679C84.482 16.5585 79.5163 15.9221 75.0821 17.5674C74.4756 17.7941 73.8021 17.7639 73.2187 17.4839C72.6346 17.2071 72.1881 16.7071 71.981 16.0979C69.3565 8.3652 61.4818 3.66027 53.3789 4.98357C45.2759 6.30686 39.3304 13.2688 39.3339 21.4295C39.3365 22.1358 39.0449 22.8117 38.5282 23.2966C38.0246 23.7709 37.3423 24.0108 36.6506 23.9569C31.8691 23.32 27.0444 24.7736 23.4237 27.942C19.8029 31.1104 17.7414 35.6826 17.772 40.4769L17.806 41.0838C17.8442 42.1694 17.1382 43.1432 16.0899 43.4507C9.24072 45.4633 4.91818 52.1693 5.94204 59.1941C6.9659 66.2188 13.0254 71.4303 20.1677 71.4289H24.9593C26.2824 71.4289 27.355 72.4949 27.355 73.8098C27.355 75.1248 26.2824 76.1908 24.9593 76.1908H20.1677C10.9901 76.1928 3.09976 69.7274 1.3524 60.7735C-0.394965 51.8197 4.49139 42.8917 13.0044 39.4841C13.5513 28.0541 23.0281 19.0624 34.5423 19.0486H34.6969C35.763 9.49744 43.1027 1.82268 52.6469 0.279236C62.191 -1.26421 71.6005 3.70193 75.6588 12.4244C77.101 12.0806 78.5788 11.9066 80.062 11.9058ZM78.3178 66.5004L82.8858 67.3273C84.0252 67.5321 84.8538 68.518 84.8535 69.6687V77.951C84.8542 79.1016 84.0262 80.0878 82.887 80.2931L78.319 81.1207C78.1365 81.6126 77.9352 82.0986 77.7177 82.5731L80.3578 86.3606C81.0169 87.3068 80.9007 88.586 80.0818 89.3997L74.1882 95.2567C73.3693 96.0688 72.0838 96.1841 71.1317 95.531L67.3169 92.9084C66.8395 93.1254 66.3517 93.3246 65.8534 93.506L65.0239 98.0445C64.817 99.1768 63.8249 99.9999 62.667 100H54.3331C53.1753 99.9996 52.1835 99.1766 51.9766 98.0445L51.1472 93.506C50.6487 93.3238 50.1608 93.1246 49.6836 92.9084L45.8683 95.5303C44.9163 96.1835 43.6307 96.0682 42.8118 95.256L36.9194 89.3989C36.1005 88.5853 35.9843 87.3061 36.6434 86.3599L39.2836 82.5724C39.0656 82.0988 38.8648 81.6128 38.6822 81.12L34.1142 80.2924C32.9748 80.0876 32.1463 79.1017 32.1466 77.951V69.6687C32.1458 68.5176 32.9745 67.5312 34.1142 67.3263L38.6822 66.4987C38.8648 66.0068 39.066 65.5209 39.2836 65.0464L36.6434 61.2564C35.9845 60.3103 36.1006 59.0312 36.9194 58.2177L42.8118 52.363C43.6297 51.5487 44.9169 51.4332 45.8683 52.0887L49.6831 54.7113C50.1605 54.4943 50.6484 54.2951 51.1467 54.1137L51.9761 49.5751C52.183 48.4429 53.1751 47.6198 54.3331 47.6197H62.667C63.8247 47.62 64.8166 48.4431 65.0235 49.5751L65.8529 54.1137C66.3514 54.2959 66.8392 54.4951 67.3165 54.7113L71.1305 52.0903C72.0817 51.4338 73.3696 51.5493 74.187 52.3646L80.0806 58.2193C80.8994 59.0329 81.0156 60.312 80.3566 61.2581L77.7165 65.048C77.9345 65.5216 78.1353 66.0076 78.3178 66.5004ZM76.061 76.6884L80.062 75.9629L80.0631 71.6568L76.0622 70.9313C75.1683 70.7711 74.4428 70.1217 74.1892 69.2549C73.8607 68.1234 73.4085 67.0311 72.8406 65.9976C72.4029 65.2066 72.4532 64.2377 72.9705 63.4957L75.28 60.1802L72.2151 57.1343L68.8787 59.4293C68.1318 59.9401 67.1594 59.9904 66.3632 59.5593C65.3226 58.9942 64.2226 58.5443 63.0831 58.2179C62.2112 57.9659 61.5575 57.2456 61.3951 56.3577L60.6687 52.3815H56.3323L55.6055 56.3574C55.443 57.2453 54.7894 57.9656 53.9174 58.2177C52.7779 58.5441 51.678 58.9939 50.6374 59.5591C49.8412 59.9903 48.8687 59.94 48.1218 59.4291L44.7854 57.1341L41.7205 60.18L44.0296 63.4957C44.5472 64.2374 44.598 65.2064 44.1606 65.9976C43.5928 67.0311 43.1405 68.1234 42.8121 69.2549C42.5585 70.1217 41.8329 70.7711 40.939 70.9313L36.9381 71.6568V75.9629L40.9378 76.6884C41.8317 76.8486 42.5573 77.498 42.8109 78.3648C43.1394 79.4963 43.5916 80.5887 44.1594 81.6224C44.5971 82.4132 44.5468 83.3821 44.0296 84.124L41.7201 87.4378L44.785 90.4854L48.1213 88.1904C48.8674 87.6771 49.8412 87.6268 50.6369 88.0604C51.6775 88.6256 52.7774 89.0755 53.9169 89.4018C54.7889 89.6538 55.4425 90.3741 55.605 91.262L56.3314 95.2382H60.6677L61.3936 91.2623C61.5561 90.3744 62.2097 89.6541 63.0817 89.402C64.2212 89.0757 65.3212 88.6259 66.3617 88.0606C67.1574 87.627 68.1312 87.6773 68.8773 88.1906L72.2146 90.4849L75.2795 87.4373L72.9705 84.124C72.4529 83.3823 72.4021 82.4134 72.8394 81.6224C73.4073 80.5887 73.8595 79.4963 74.188 78.3648C74.4416 77.498 75.1671 76.8486 76.061 76.6884ZM46.5212 73.8098C46.5212 67.2351 51.8843 61.9052 58.5 61.9052C65.1125 61.913 70.4711 67.2383 70.4789 73.8098C70.4789 80.3846 65.1158 85.7145 58.5 85.7145C51.8843 85.7145 46.5212 80.3846 46.5212 73.8098ZM51.3127 73.8098C51.3127 77.7547 54.5306 80.9526 58.5 80.9526C62.4677 80.9483 65.683 77.7529 65.6873 73.8098C65.6873 69.865 62.4695 66.6671 58.5 66.6671C54.5306 66.6671 51.3127 69.865 51.3127 73.8098Z" fill="#007AFF"/>
<path d="M99.1847 29.6651L98.3118 29.7258L98.3533 30.3233L98.9254 30.5008L99.1847 29.6651ZM80.062 11.9058L80.063 11.0308L80.0615 11.0308L80.062 11.9058ZM92.0408 76.1908L92.041 75.3158H92.0408V76.1908ZM92.0408 71.4289L92.0411 70.5539H92.0408V71.4289ZM96.2767 33.8177L96.4688 32.964L96.4685 32.964L96.2767 33.8177ZM94.4109 31.4044L95.2853 31.438L95.2859 31.4212V31.4044H94.4109ZM94.4193 31.2545L93.5459 31.2009V31.201L94.4193 31.2545ZM94.4272 31.1137L93.5522 31.1012V31.1137H94.4272ZM75.0821 17.5674L74.7777 16.7471L74.7757 16.7478L75.0821 17.5674ZM73.2187 17.4839L73.5973 16.695L73.5933 16.6931L73.2187 17.4839ZM71.981 16.0979L71.1524 16.3791L71.1526 16.3796L71.981 16.0979ZM53.3789 4.98357L53.5199 5.84713L53.3789 4.98357ZM39.3339 21.4295L38.4589 21.4299L38.4589 21.4328L39.3339 21.4295ZM38.5282 23.2966L37.9294 22.6586L37.9283 22.6596L38.5282 23.2966ZM36.6506 23.9569L36.5351 24.8242L36.5588 24.8274L36.5826 24.8292L36.6506 23.9569ZM17.772 40.4769L16.897 40.4825L16.8971 40.5042L16.8983 40.5259L17.772 40.4769ZM17.806 41.0838L18.6804 41.053L18.6801 41.0439L18.6796 41.0348L17.806 41.0838ZM16.0899 43.4507L15.8436 42.6111L15.8432 42.6112L16.0899 43.4507ZM20.1677 71.4289V70.5539H20.1676L20.1677 71.4289ZM20.1677 76.1908V75.3158H20.1675L20.1677 76.1908ZM13.0044 39.4841L13.3295 40.2964L13.8515 40.0875L13.8784 39.5259L13.0044 39.4841ZM34.5423 19.0486V18.1736H34.5413L34.5423 19.0486ZM34.6969 19.0486V19.9236H35.4796L35.5665 19.1457L34.6969 19.0486ZM52.6469 0.279236L52.7865 1.14301L52.6469 0.279236ZM75.6588 12.4244L74.8654 12.7935L75.1668 13.4412L75.8616 13.2755L75.6588 12.4244ZM82.8858 67.3273L82.73 68.1883L82.7311 68.1885L82.8858 67.3273ZM78.3178 66.5004L77.4973 66.8043L77.6707 67.2725L78.162 67.3614L78.3178 66.5004ZM84.8535 69.6687L83.9785 69.6685V69.6687H84.8535ZM84.8535 77.951H83.9785V77.9515L84.8535 77.951ZM82.887 80.2931L82.7318 79.432L82.731 79.4321L82.887 80.2931ZM78.319 81.1207L78.163 80.2597L77.6722 80.3486L77.4987 80.8163L78.319 81.1207ZM77.7177 82.5731L76.9223 82.2084L76.7138 82.6631L76.9999 83.0734L77.7177 82.5731ZM80.3578 86.3606L81.0758 85.8605L81.0756 85.8603L80.3578 86.3606ZM80.0818 89.3997L79.4651 88.7789L79.465 88.779L80.0818 89.3997ZM74.1882 95.2567L74.8043 95.8781L74.805 95.8774L74.1882 95.2567ZM71.1317 95.531L70.636 96.2521L70.6367 96.2525L71.1317 95.531ZM67.3169 92.9084L67.8126 92.1874L67.4051 91.9072L66.9549 92.1118L67.3169 92.9084ZM65.8534 93.506L65.554 92.6838L65.0828 92.8554L64.9926 93.3487L65.8534 93.506ZM65.0239 98.0445L65.8847 98.2019L65.0239 98.0445ZM62.667 100V100.875H62.6671L62.667 100ZM54.3331 100L54.3328 100.875H54.3331V100ZM51.9766 98.0445L51.1158 98.2019V98.2019L51.9766 98.0445ZM51.1472 93.506L52.0079 93.3487L51.9179 92.8561L51.4476 92.6842L51.1472 93.506ZM49.6836 92.9084L50.0447 92.1114L49.5949 91.9077L49.188 92.1873L49.6836 92.9084ZM45.8683 95.5303L46.3634 96.2518L46.3639 96.2514L45.8683 95.5303ZM42.8118 95.256L42.195 95.8766L42.1957 95.8773L42.8118 95.256ZM36.9194 89.3989L37.5363 88.7784L37.5361 88.7782L36.9194 89.3989ZM36.6434 86.3599L35.9256 85.8596L35.9255 85.8598L36.6434 86.3599ZM39.2836 82.5724L40.0014 83.0727L40.2879 82.6616L40.0784 82.2065L39.2836 82.5724ZM38.6822 81.12L39.5027 80.8161L39.3294 80.348L38.8382 80.259L38.6822 81.12ZM34.1142 80.2924L34.2702 79.4314L34.269 79.4312L34.1142 80.2924ZM32.1466 77.951L33.0216 77.9512V77.951H32.1466ZM32.1466 69.6687H33.0216V69.6681L32.1466 69.6687ZM34.1142 67.3263L34.269 68.1876L34.2702 68.1873L34.1142 67.3263ZM38.6822 66.4987L38.8382 67.3597L39.329 67.2708L39.5026 66.8032L38.6822 66.4987ZM39.2836 65.0464L40.079 65.411L40.2873 64.9565L40.0015 64.5462L39.2836 65.0464ZM36.6434 61.2564L35.9254 61.7565L35.9255 61.7566L36.6434 61.2564ZM36.9194 58.2177L36.3027 57.597L36.3027 57.597L36.9194 58.2177ZM42.8118 52.363L43.4285 52.9837L43.4292 52.9831L42.8118 52.363ZM45.8683 52.0887L45.3719 52.8092L45.3726 52.8097L45.8683 52.0887ZM49.6831 54.7113L49.1874 55.4323L49.5949 55.7125L50.0452 55.5078L49.6831 54.7113ZM51.1467 54.1137L51.446 54.9359L51.9173 54.7643L52.0074 54.271L51.1467 54.1137ZM51.9761 49.5751L51.1154 49.4178V49.4178L51.9761 49.5751ZM54.3331 47.6197V46.7447H54.333L54.3331 47.6197ZM62.667 47.6197L62.6673 46.7447H62.667V47.6197ZM65.0235 49.5751L65.8842 49.4178L65.8842 49.4178L65.0235 49.5751ZM65.8529 54.1137L64.9921 54.271L65.0822 54.7635L65.5525 54.9355L65.8529 54.1137ZM67.3165 54.7113L66.9554 55.5083L67.4051 55.712L67.812 55.4324L67.3165 54.7113ZM71.1305 52.0903L71.6261 52.8115L71.6276 52.8104L71.1305 52.0903ZM74.187 52.3646L73.5691 52.9841L73.5704 52.9854L74.187 52.3646ZM80.0806 58.2193L80.6974 57.5986L80.6973 57.5985L80.0806 58.2193ZM80.3566 61.2581L81.0746 61.7582L81.0746 61.7582L80.3566 61.2581ZM77.7165 65.048L76.9985 64.5479L76.7122 64.9589L76.9217 65.4139L77.7165 65.048ZM80.062 75.9629L80.2181 76.8239L80.9368 76.6936L80.937 75.9632L80.062 75.9629ZM76.061 76.6884L76.2154 77.5497L76.2171 77.5493L76.061 76.6884ZM80.0631 71.6568L80.9381 71.657L80.9383 70.9262L80.2193 70.7958L80.0631 71.6568ZM76.0622 70.9313L76.2183 70.0703L76.2166 70.07L76.0622 70.9313ZM74.1892 69.2549L73.3489 69.4989L73.3494 69.5006L74.1892 69.2549ZM72.8406 65.9976L73.6075 65.5762L73.6062 65.5739L72.8406 65.9976ZM72.9705 63.4957L73.6883 63.9961L73.6884 63.9958L72.9705 63.4957ZM75.28 60.1802L75.998 60.6804L76.4179 60.0775L75.8968 59.5596L75.28 60.1802ZM72.2151 57.1343L72.8319 56.5137L72.3171 56.0021L71.7192 56.4134L72.2151 57.1343ZM68.8787 59.4293L69.3727 60.1516L69.3746 60.1502L68.8787 59.4293ZM66.3632 59.5593L65.9456 60.3282L65.9466 60.3288L66.3632 59.5593ZM63.0831 58.2179L62.8402 59.0585L62.8422 59.0591L63.0831 58.2179ZM61.3951 56.3577L60.5343 56.5149L60.5344 56.5152L61.3951 56.3577ZM60.6687 52.3815L61.5294 52.2243L61.3983 51.5065H60.6687V52.3815ZM56.3323 52.3815V51.5065H55.6028L55.4716 52.2242L56.3323 52.3815ZM55.6055 56.3574L56.4662 56.5149L56.4662 56.5148L55.6055 56.3574ZM53.9174 58.2177L54.1584 59.0588L54.1604 59.0582L53.9174 58.2177ZM50.6374 59.5591L51.0541 60.3284L51.0549 60.328L50.6374 59.5591ZM48.1218 59.4291L47.6259 60.15L47.6277 60.1512L48.1218 59.4291ZM44.7854 57.1341L45.2813 56.4132L44.6834 56.0019L44.1687 56.5135L44.7854 57.1341ZM41.7205 60.18L41.1037 59.5594L40.5827 60.0772L41.0025 60.6801L41.7205 60.18ZM44.0296 63.4957L43.3115 63.9957L43.312 63.9964L44.0296 63.4957ZM44.1606 65.9976L43.3949 65.5742L43.3938 65.5762L44.1606 65.9976ZM42.8121 69.2549L43.6519 69.5006L43.6524 69.4989L42.8121 69.2549ZM40.939 70.9313L40.7847 70.07L40.7829 70.0703L40.939 70.9313ZM36.9381 71.6568L36.782 70.7958L36.0631 70.9262V71.6568H36.9381ZM36.9381 75.9629H36.0631V76.6935L36.7819 76.8239L36.9381 75.9629ZM40.9378 76.6884L40.7817 77.5493L40.7835 77.5497L40.9378 76.6884ZM42.8109 78.3648L43.6512 78.1208L43.6507 78.1191L42.8109 78.3648ZM44.1594 81.6224L43.3925 82.0436L43.3939 82.0461L44.1594 81.6224ZM44.0296 84.124L43.3118 83.6236L43.3117 83.6237L44.0296 84.124ZM41.7201 87.4378L41.0022 86.9375L40.5821 87.5402L41.1031 88.0582L41.7201 87.4378ZM44.785 90.4854L44.168 91.1058L44.6828 91.6177L45.2809 91.2063L44.785 90.4854ZM48.1213 88.1904L48.6172 88.9113L48.6173 88.9113L48.1213 88.1904ZM50.6369 88.0604L50.2182 88.8287L50.2192 88.8293L50.6369 88.0604ZM53.9169 89.4018L54.1599 88.5612L54.1578 88.5606L53.9169 89.4018ZM55.605 91.262L56.4657 91.1048L56.4657 91.1045L55.605 91.262ZM56.3314 95.2382L55.4706 95.3954L55.6017 96.1132H56.3314V95.2382ZM60.6677 95.2382V96.1132H61.3974L61.5285 95.3953L60.6677 95.2382ZM61.3936 91.2623L60.5329 91.1048L60.5329 91.1051L61.3936 91.2623ZM63.0817 89.402L62.8408 88.5609L62.8387 88.5614L63.0817 89.402ZM66.3617 88.0606L66.7794 88.8295L66.7805 88.8289L66.3617 88.0606ZM68.8773 88.1906L68.3814 88.9115L68.3816 88.9117L68.8773 88.1906ZM72.2146 90.4849L71.7189 91.2059L72.317 91.6171L72.8316 91.1053L72.2146 90.4849ZM75.2795 87.4373L75.8965 88.0578L76.4174 87.5398L75.9974 86.937L75.2795 87.4373ZM72.9705 84.124L73.6883 83.6237L73.688 83.6232L72.9705 84.124ZM72.8394 81.6224L73.6052 82.0457L73.6063 82.0437L72.8394 81.6224ZM74.188 78.3648L73.3482 78.1191L73.3477 78.1208L74.188 78.3648ZM58.5 61.9052L58.501 61.0302H58.5V61.9052ZM70.4789 73.8098H71.3539V73.8088L70.4789 73.8098ZM58.5 80.9526V81.8276H58.501L58.5 80.9526ZM65.6873 73.8098L66.5623 73.8108V73.8098H65.6873ZM100.058 29.6045C99.3315 19.1506 90.595 11.0436 80.063 11.0308L80.0609 12.7808C89.6835 12.7925 97.65 20.1974 98.3118 29.7258L100.058 29.6045ZM116.589 56.1106C118.44 44.0517 111.151 32.4624 99.4441 28.8294L98.9254 30.5008C109.812 33.8791 116.578 44.6497 114.859 55.845L116.589 56.1106ZM92.0406 77.0658C104.304 77.0683 114.737 68.1687 116.589 56.1106L114.859 55.845C113.14 67.0412 103.448 75.3181 92.041 75.3158L92.0406 77.0658ZM88.77 73.8098C88.77 75.6132 90.2395 77.0658 92.0408 77.0658V75.3158C91.1958 75.3158 90.52 74.6364 90.52 73.8098H88.77ZM92.0408 70.5539C90.2395 70.5539 88.77 72.0065 88.77 73.8098H90.52C90.52 72.9833 91.1958 72.3039 92.0408 72.3039V70.5539ZM110.218 54.4084C109.183 63.5999 101.359 70.557 92.0411 70.5539L92.0405 72.3039C102.241 72.3073 110.821 64.6897 111.957 54.6043L110.218 54.4084ZM96.0847 34.6714C105.172 36.7154 111.253 45.2176 110.218 54.4084L111.957 54.6043C113.093 44.5182 106.419 35.2021 96.4688 32.964L96.0847 34.6714ZM93.5366 31.3708C93.4761 32.9422 94.5513 34.3269 96.085 34.6714L96.4685 32.964C95.751 32.8028 95.2576 32.1587 95.2853 31.438L93.5366 31.3708ZM93.5459 31.201C93.5435 31.2414 93.5359 31.3558 93.5359 31.4044H95.2859C95.2859 31.414 95.2858 31.4212 95.2857 31.4238C95.2856 31.4271 95.2855 31.4293 95.2855 31.43C95.2854 31.4313 95.2855 31.4309 95.2856 31.428C95.2859 31.4222 95.2864 31.413 95.2871 31.4002C95.2886 31.3748 95.2906 31.3424 95.2927 31.308L93.5459 31.201ZM93.5522 31.1137C93.5522 31.1036 93.5524 31.0961 93.5525 31.0934C93.5526 31.09 93.5527 31.0877 93.5527 31.0869C93.5527 31.0853 93.5527 31.0855 93.5526 31.0881C93.5524 31.0932 93.5519 31.1016 93.5512 31.1136C93.5498 31.1373 93.548 31.1679 93.5459 31.2009L95.2927 31.3081C95.295 31.2705 95.3022 31.1609 95.3022 31.1137H93.5522ZM87.8493 19.9846C91.4823 22.5285 93.6152 26.6891 93.5523 31.1012L95.3021 31.1262C95.3733 26.1314 92.9586 21.4259 88.8531 18.5511L87.8493 19.9846ZM75.3865 18.3878C79.5517 16.8423 84.2159 17.4403 87.8493 19.9846L88.8531 18.5511C84.7481 15.6766 79.481 15.0019 74.7777 16.7471L75.3865 18.3878ZM72.84 18.2727C73.6382 18.6558 74.5591 18.6971 75.3885 18.387L74.7757 16.7478C74.3922 16.8912 73.9661 16.872 73.5973 16.695L72.84 18.2727ZM71.1526 16.3796C71.4363 17.214 72.0471 17.897 72.844 18.2746L73.5933 16.6931C73.2221 16.5172 72.94 16.2003 72.8095 15.8163L71.1526 16.3796ZM53.5199 5.84713C61.2042 4.5922 68.6665 9.05472 71.1524 16.3791L72.8096 15.8167C70.0465 7.67567 61.7594 2.72835 53.2378 4.12001L53.5199 5.84713ZM40.2089 21.4291C40.2056 13.7013 45.8364 7.10192 53.5199 5.84713L53.2378 4.12001C44.7154 5.5118 38.4552 12.8362 38.4589 21.4299L40.2089 21.4291ZM39.127 23.9346C39.8201 23.2841 40.2124 22.3763 40.2089 21.4263L38.4589 21.4328C38.4606 21.8954 38.2697 22.3392 37.9294 22.6587L39.127 23.9346ZM36.5826 24.8292C37.5193 24.9023 38.4443 24.5775 39.1281 23.9336L37.9283 22.6596C37.6048 22.9643 37.1653 23.1194 36.7187 23.0845L36.5826 24.8292ZM23.9999 28.6005C27.4303 25.5986 32.0027 24.2205 36.5351 24.8242L36.7661 23.0895C31.7354 22.4195 26.6585 23.9486 22.8474 27.2835L23.9999 28.6005ZM18.6469 40.4713C18.618 35.9323 20.5697 31.6021 23.9999 28.6005L22.8474 27.2835C19.0361 30.6186 16.8648 35.4329 16.897 40.4825L18.6469 40.4713ZM18.6796 41.0348L18.6456 40.4279L16.8983 40.5259L16.9323 41.1328L18.6796 41.0348ZM16.3362 44.2903C17.7651 43.8712 18.7329 42.5415 18.6804 41.053L16.9315 41.1146C16.9556 41.7974 16.5114 42.4152 15.8436 42.6111L16.3362 44.2903ZM6.80789 59.0679C5.84742 52.478 9.90185 46.1811 16.3366 44.2902L15.8432 42.6112C8.57959 44.7456 3.98895 51.8607 5.07619 59.3203L6.80789 59.0679ZM20.1676 70.5539C13.4557 70.5552 7.76849 65.6586 6.80789 59.0679L5.07619 59.3203C6.16331 66.7791 12.5951 72.3054 20.1679 72.3039L20.1676 70.5539ZM24.9593 70.5539H20.1677V72.3039H24.9593V70.5539ZM28.23 73.8098C28.23 72.0065 26.7605 70.5539 24.9593 70.5539V72.3039C25.8043 72.3039 26.48 72.9833 26.48 73.8098H28.23ZM24.9593 77.0658C26.7605 77.0658 28.23 75.6132 28.23 73.8098H26.48C26.48 74.6364 25.8043 75.3158 24.9593 75.3158V77.0658ZM20.1677 77.0658H24.9593V75.3158H20.1677V77.0658ZM0.493596 60.9411C2.32187 70.3096 10.5753 77.0679 20.1679 77.0658L20.1675 75.3158C11.4049 75.3177 3.87765 69.1452 2.2112 60.606L0.493596 60.9411ZM12.6792 38.6717C3.77912 42.2343 -1.33486 51.5717 0.493596 60.9411L2.2112 60.606C0.54493 52.0676 5.20366 43.5491 13.3295 40.2964L12.6792 38.6717ZM34.5413 18.1736C22.5653 18.1879 12.6998 27.5415 12.1304 39.4422L13.8784 39.5259C14.4027 28.5667 23.491 19.9368 34.5434 19.9236L34.5413 18.1736ZM34.6969 18.1736H34.5423V19.9236H34.6969V18.1736ZM52.5072 -0.584543C42.5785 1.02109 34.9374 9.00661 33.8273 18.9515L35.5665 19.1457C36.5886 9.98826 43.627 2.62427 52.7865 1.14301L52.5072 -0.584543ZM76.4521 12.0553C72.2275 2.97519 62.4353 -2.19008 52.5072 -0.584543L52.7865 1.14301C61.9467 -0.338336 70.9736 4.42866 74.8654 12.7935L76.4521 12.0553ZM80.0615 11.0308C78.5102 11.0316 76.9644 11.2136 75.4559 11.5732L75.8616 13.2755C77.2375 12.9476 78.6474 12.7815 80.0624 12.7808L80.0615 11.0308ZM83.0417 66.4663L78.4737 65.6394L78.162 67.3614L82.73 68.1883L83.0417 66.4663ZM85.7285 69.6689C85.7289 68.0908 84.5932 66.7451 83.0406 66.4661L82.7311 68.1885C83.4573 68.319 83.9787 68.9452 83.9785 69.6685L85.7285 69.6689ZM85.7285 77.951V69.6687H83.9785V77.951H85.7285ZM83.0423 81.1542C84.5945 80.8744 85.7295 79.5284 85.7285 77.9504L83.9785 77.9515C83.979 78.6747 83.4579 79.3011 82.7318 79.432L83.0423 81.1542ZM78.475 81.9817L83.043 81.1541L82.731 79.4321L78.163 80.2597L78.475 81.9817ZM78.5131 82.9377C78.7397 82.4434 78.9493 81.9374 79.1394 81.4251L77.4987 80.8163C77.3237 81.2878 77.1308 81.7537 76.9223 82.2084L78.5131 82.9377ZM81.0756 85.8603L78.4355 82.0727L76.9999 83.0734L79.64 86.861L81.0756 85.8603ZM80.6985 90.0204C81.8184 88.9078 81.9782 87.1559 81.0758 85.8605L79.6398 86.8608C80.0557 87.4577 79.9831 88.2643 79.4651 88.7789L80.6985 90.0204ZM74.805 95.8774L80.6986 90.0203L79.465 88.779L73.5714 94.6361L74.805 95.8774ZM70.6367 96.2525C71.9346 97.1429 73.6866 96.9864 74.8043 95.8781L73.5721 94.6354C73.052 95.1512 72.2329 95.2253 71.6267 94.8095L70.6367 96.2525ZM66.8212 93.6295L70.636 96.2521L71.6274 94.81L67.8126 92.1874L66.8212 93.6295ZM66.1527 94.3282C66.672 94.1392 67.1808 93.9314 67.679 93.705L66.9549 92.1118C66.4983 92.3194 66.0313 92.51 65.554 92.6838L66.1527 94.3282ZM65.8847 98.2019L66.7141 93.6633L64.9926 93.3487L64.1632 97.8872L65.8847 98.2019ZM62.6671 100.875C64.2437 100.875 65.6011 99.7535 65.8847 98.2019L64.1632 97.8872C64.0329 98.6001 63.4061 99.1249 62.6669 99.125L62.6671 100.875ZM54.3331 100.875H62.667V99.125H54.3331V100.875ZM51.1158 98.2019C51.3994 99.7532 52.7564 100.875 54.3328 100.875L54.3333 99.125C53.5943 99.1248 52.9676 98.6 52.8373 97.8872L51.1158 98.2019ZM50.2864 93.6633L51.1158 98.2019L52.8373 97.8872L52.0079 93.3487L50.2864 93.6633ZM49.3225 93.7055C49.8199 93.9308 50.328 94.1382 50.8468 94.3278L51.4476 92.6842C50.9694 92.5094 50.5017 92.3184 50.0447 92.1114L49.3225 93.7055ZM46.3639 96.2514L50.1792 93.6296L49.188 92.1873L45.3728 94.8092L46.3639 96.2514ZM42.1957 95.8773C43.3134 96.9858 45.0655 97.1423 46.3634 96.2518L45.3733 94.8088C44.7671 95.2247 43.9481 95.1506 43.428 94.6347L42.1957 95.8773ZM36.3026 90.0195L42.195 95.8766L43.4287 94.6354L37.5363 88.7784L36.3026 90.0195ZM35.9255 85.8598C35.0231 87.1552 35.1829 88.9071 36.3027 90.0197L37.5361 88.7782C37.0181 88.2636 36.9456 87.457 37.3614 86.8601L35.9255 85.8598ZM38.5657 82.072L35.9256 85.8596L37.3612 86.8603L40.0014 83.0727L38.5657 82.072ZM37.8617 81.4239C38.0517 81.9369 38.261 82.4436 38.4887 82.9383L40.0784 82.2065C39.8701 81.754 39.6778 81.2887 39.5027 80.8161L37.8617 81.4239ZM33.9582 81.1534L38.5262 81.981L38.8382 80.259L34.2702 79.4314L33.9582 81.1534ZM31.2716 77.9508C31.2712 79.5289 32.4069 80.8745 33.9594 81.1536L34.269 79.4312C33.5428 79.3007 33.0214 78.6744 33.0216 77.9512L31.2716 77.9508ZM31.2716 69.6687V77.951H33.0216V69.6687H31.2716ZM33.9594 66.4651C32.4064 66.7443 31.2705 68.0906 31.2716 69.6693L33.0216 69.6681C33.0211 68.9447 33.5425 68.3181 34.269 68.1875L33.9594 66.4651ZM38.5262 65.6378L33.9582 66.4654L34.2702 68.1873L38.8382 67.3597L38.5262 65.6378ZM38.4882 64.6817C38.2616 65.176 38.052 65.6821 37.8619 66.1943L39.5026 66.8032C39.6776 66.3316 39.8705 65.8657 40.079 65.411L38.4882 64.6817ZM35.9255 61.7566L38.5656 65.5465L40.0015 64.5462L37.3614 60.7563L35.9255 61.7566ZM36.3027 57.597C35.183 58.7095 35.0232 60.4612 35.9254 61.7565L37.3614 60.7563C36.9457 60.1594 37.0183 59.3529 37.5362 58.8383L36.3027 57.597ZM42.1951 51.7423L36.3027 57.597L37.5361 58.8384L43.4285 52.9837L42.1951 51.7423ZM46.3648 51.3681C45.0669 50.474 43.3115 50.6308 42.1945 51.7429L43.4292 52.9831C43.9479 52.4666 44.7669 52.3924 45.3719 52.8092L46.3648 51.3681ZM50.1788 53.9902L46.364 51.3676L45.3726 52.8097L49.1874 55.4323L50.1788 53.9902ZM50.8473 53.2915C50.328 53.4805 49.8193 53.6882 49.3211 53.9147L50.0452 55.5078C50.5018 55.3003 50.9687 55.1096 51.446 54.9359L50.8473 53.2915ZM51.1154 49.4178L50.2859 53.9563L52.0074 54.271L52.8369 49.7324L51.1154 49.4178ZM54.333 46.7447C52.7563 46.7448 51.3989 47.8662 51.1154 49.4178L52.8369 49.7324C52.9671 49.0196 53.594 48.4948 54.3332 48.4947L54.333 46.7447ZM62.667 46.7447H54.3331V48.4947H62.667V46.7447ZM65.8842 49.4178C65.6007 47.8665 64.2437 46.7452 62.6673 46.7447L62.6667 48.4947C63.4058 48.4949 64.0325 49.0197 64.1627 49.7324L65.8842 49.4178ZM66.7136 53.9563L65.8842 49.4178L64.1627 49.7324L64.9921 54.271L66.7136 53.9563ZM67.6775 53.9142C67.1801 53.6889 66.672 53.4815 66.1533 53.2918L65.5525 54.9355C66.0307 55.1103 66.4983 55.3012 66.9554 55.5083L67.6775 53.9142ZM70.635 51.3692L66.8209 53.9901L67.812 55.4324L71.6261 52.8115L70.635 51.3692ZM74.805 51.7451C73.6883 50.6313 71.9313 50.4743 70.6334 51.3703L71.6276 52.8104C72.232 52.3932 73.051 52.4674 73.5691 52.9841L74.805 51.7451ZM80.6973 57.5985L74.8037 51.7439L73.5704 52.9854L79.464 58.8401L80.6973 57.5985ZM81.0746 61.7582C81.9768 60.4628 81.817 58.7112 80.6974 57.5986L79.4639 58.84C79.9818 59.3546 80.0544 60.1611 79.6386 60.758L81.0746 61.7582ZM78.4345 65.5482L81.0746 61.7582L79.6387 60.7579L76.9985 64.5479L78.4345 65.5482ZM79.1383 66.1965C78.9483 65.6834 78.739 65.1768 78.5113 64.6821L76.9217 65.4139C77.13 65.8664 77.3222 66.3317 77.4973 66.8043L79.1383 66.1965ZM79.9058 75.1019L75.9049 75.8274L76.2171 77.5493L80.2181 76.8239L79.9058 75.1019ZM79.1881 71.6565L79.187 75.9627L80.937 75.9632L80.9381 71.657L79.1881 71.6565ZM75.9061 71.7923L79.907 72.5177L80.2193 70.7958L76.2183 70.0703L75.9061 71.7923ZM73.3494 69.5006C73.6968 70.6882 74.6895 71.5742 75.9078 71.7926L76.2166 70.07C75.6471 69.968 75.1887 69.5552 75.029 69.0092L73.3494 69.5006ZM72.0737 66.4189C72.6107 67.3963 73.0383 68.4291 73.3489 69.4988L75.0295 69.0109C74.6831 67.8178 74.2062 66.666 73.6075 65.5762L72.0737 66.4189ZM72.2527 62.9953C71.5447 64.0108 71.4756 65.3382 72.075 66.4212L73.6062 65.5739C73.3302 65.0751 73.3617 64.4645 73.6883 63.9961L72.2527 62.9953ZM74.562 59.6801L72.2525 62.9955L73.6884 63.9958L75.998 60.6804L74.562 59.6801ZM71.5983 57.755L74.6632 60.8009L75.8968 59.5596L72.8319 56.5137L71.5983 57.755ZM69.3746 60.1502L72.711 57.8552L71.7192 56.4134L68.3828 58.7084L69.3746 60.1502ZM65.9466 60.3288C67.031 60.9159 68.3549 60.8476 69.3727 60.1516L68.3848 58.7071C67.9088 59.0326 67.2878 59.0649 66.7798 58.7898L65.9466 60.3288ZM62.8422 59.0591C63.9204 59.3679 64.9611 59.7936 65.9456 60.3282L66.7808 58.7904C65.684 58.1948 64.5248 57.7207 63.3241 57.3767L62.8422 59.0591ZM60.5344 56.5152C60.757 57.7318 61.6517 58.715 62.8402 59.0585L63.3261 57.3773C62.7707 57.2168 62.3581 56.7593 62.2558 56.2002L60.5344 56.5152ZM59.8079 52.5388L60.5343 56.5149L62.2558 56.2004L61.5294 52.2243L59.8079 52.5388ZM56.3323 53.2565H60.6687V51.5065H56.3323V53.2565ZM56.4662 56.5148L57.1931 52.5389L55.4716 52.2242L54.7447 56.2001L56.4662 56.5148ZM54.1604 59.0582C55.3488 58.7147 56.2435 57.7315 56.4662 56.5149L54.7448 56.1999C54.6424 56.7591 54.2299 57.2165 53.6744 57.3771L54.1604 59.0582ZM51.0549 60.328C52.0395 59.7933 53.0802 59.3677 54.1584 59.0588L53.6764 57.3765C52.4757 57.7205 51.3165 58.1945 50.2198 58.7901L51.0549 60.328ZM47.6277 60.1512C48.6455 60.8476 49.9697 60.9158 51.0541 60.3284L50.2206 58.7897C49.7127 59.0648 49.0918 59.0325 48.6159 58.7069L47.6277 60.1512ZM44.2896 57.855L47.6259 60.15L48.6177 58.7081L45.2813 56.4132L44.2896 57.855ZM42.3373 60.8006L45.4022 57.7547L44.1687 56.5135L41.1037 59.5594L42.3373 60.8006ZM44.7476 62.9956L42.4386 59.68L41.0025 60.6801L43.3115 63.9957L44.7476 62.9956ZM44.9264 66.4209C45.5253 65.3375 45.4556 64.0101 44.7471 62.9949L43.312 63.9964C43.6389 64.4648 43.6707 65.0753 43.3949 65.5742L44.9264 66.4209ZM43.6524 69.4989C43.9629 68.4291 44.3905 67.3963 44.9275 66.4189L43.3938 65.5762C42.795 66.666 42.3181 67.8178 41.9717 69.0109L43.6524 69.4989ZM41.0934 71.7926C42.3117 71.5742 43.3044 70.6882 43.6519 69.5006L41.9723 69.0092C41.8125 69.5552 41.3541 69.968 40.7847 70.07L41.0934 71.7926ZM37.0942 72.5177L41.0952 71.7923L40.7829 70.0703L36.782 70.7958L37.0942 72.5177ZM37.8131 75.9629V71.6568H36.0631V75.9629H37.8131ZM41.094 75.8274L37.0943 75.102L36.7819 76.8239L40.7817 77.5493L41.094 75.8274ZM43.6507 78.1191C43.3032 76.9314 42.3105 76.0455 41.0922 75.8271L40.7835 77.5497C41.3529 77.6517 41.8113 78.0645 41.9711 78.6105L43.6507 78.1191ZM44.9263 81.2011C44.3894 80.2236 43.9618 79.1907 43.6512 78.1208L41.9706 78.6088C42.317 79.802 42.7938 80.9538 43.3925 82.0436L44.9263 81.2011ZM44.7474 84.6244C45.4553 83.609 45.5244 82.2817 44.925 81.1987L43.3939 82.0461C43.6698 82.5447 43.6384 83.1552 43.3118 83.6236L44.7474 84.6244ZM42.4379 87.9381L44.7474 84.6243L43.3117 83.6237L41.0022 86.9375L42.4379 87.9381ZM45.4019 89.8649L42.337 86.8173L41.1031 88.0582L44.168 91.1058L45.4019 89.8649ZM47.6254 87.4695L44.2891 89.7644L45.2809 91.2063L48.6172 88.9113L47.6254 87.4695ZM51.0556 87.2921C49.9707 86.7008 48.6433 86.7692 47.6254 87.4695L48.6173 88.9113C49.0915 88.585 49.7118 88.5527 50.2182 88.8287L51.0556 87.2921ZM54.1578 88.5606C53.0796 88.2518 52.039 87.8262 51.0545 87.2915L50.2192 88.8293C51.316 89.425 52.4752 89.8991 53.676 90.243L54.1578 88.5606ZM56.4657 91.1045C56.2431 89.8879 55.3484 88.9047 54.1599 88.5612L53.674 90.2424C54.2294 90.4029 54.642 90.8603 54.7443 91.4195L56.4657 91.1045ZM57.1921 95.0809L56.4657 91.1048L54.7442 91.4193L55.4706 95.3954L57.1921 95.0809ZM60.6677 94.3632H56.3314V96.1132H60.6677V94.3632ZM60.5329 91.1051L59.8069 95.081L61.5285 95.3953L62.2544 91.4194L60.5329 91.1051ZM62.8387 88.5614C61.6502 88.9049 60.7555 89.8881 60.5329 91.1048L62.2543 91.4197C62.3567 90.8606 62.7692 90.4032 63.3246 90.2426L62.8387 88.5614ZM65.9441 87.2917C64.9597 87.8265 63.919 88.2521 62.8408 88.5609L63.3226 90.2432C64.5234 89.8993 65.6827 89.4253 66.7794 88.8295L65.9441 87.2917ZM69.3732 87.4697C68.3553 86.7695 67.0279 86.7011 65.943 87.2923L66.7805 88.8289C67.2868 88.553 67.9071 88.5852 68.3814 88.9115L69.3732 87.4697ZM72.7103 89.7638L69.373 87.4696L68.3816 88.9117L71.7189 91.2059L72.7103 89.7638ZM74.6626 86.8168L71.5976 89.8644L72.8316 91.1053L75.8965 88.0578L74.6626 86.8168ZM72.2526 84.6243L74.5616 87.9376L75.9974 86.937L73.6883 83.6237L72.2526 84.6243ZM72.0736 81.199C71.4748 82.2824 71.5445 83.6097 72.2529 84.6248L73.688 83.6232C73.3612 83.155 73.3294 82.5445 73.6052 82.0457L72.0736 81.199ZM73.3477 78.1208C73.0371 79.1907 72.6095 80.2236 72.0725 81.2011L73.6063 82.0437C74.205 80.9538 74.6819 79.802 75.0283 78.6088L73.3477 78.1208ZM75.9066 75.8271C74.6883 76.0455 73.6956 76.9314 73.3482 78.1191L75.0278 78.6105C75.1875 78.0645 75.6459 77.6517 76.2154 77.5497L75.9066 75.8271ZM58.5 61.0302C51.4062 61.0302 45.6462 66.7467 45.6462 73.8098H47.3962C47.3962 67.7235 52.3624 62.7802 58.5 62.7802V61.0302ZM71.3539 73.8088C71.3455 66.7497 65.5909 61.0385 58.501 61.0302L58.499 62.7802C64.6342 62.7874 69.5967 67.7269 69.6039 73.8109L71.3539 73.8088ZM58.5 86.5895C65.5939 86.5895 71.3539 80.873 71.3539 73.8098H69.6039C69.6039 79.8962 64.6376 84.8395 58.5 84.8395V86.5895ZM45.6462 73.8098C45.6462 80.8729 51.4062 86.5895 58.5 86.5895V84.8395C52.3624 84.8395 47.3962 79.8962 47.3962 73.8098H45.6462ZM58.5 80.0776C55.0087 80.0776 52.1877 77.2663 52.1877 73.8098H50.4377C50.4377 78.243 54.0525 81.8276 58.5 81.8276V80.0776ZM64.8123 73.8089C64.8085 77.2643 61.9893 80.0738 58.4991 80.0776L58.501 81.8276C62.946 81.8228 66.5574 78.2415 66.5623 73.8108L64.8123 73.8089ZM58.5 67.5421C61.9914 67.5421 64.8123 70.3534 64.8123 73.8098H66.5623C66.5623 69.3766 62.9476 65.7921 58.5 65.7921V67.5421ZM52.1877 73.8098C52.1877 70.3534 55.0087 67.5421 58.5 67.5421V65.7921C54.0525 65.7921 50.4377 69.3766 50.4377 73.8098H52.1877Z" fill="white"/>
<path d="M99.1847 29.6651L98.3118 29.7258L98.3533 30.3233L98.9254 30.5008L99.1847 29.6651ZM80.062 11.9058L80.063 11.0308L80.0615 11.0308L80.062 11.9058ZM92.0408 76.1908L92.041 75.3158H92.0408V76.1908ZM92.0408 71.4289L92.0411 70.5539H92.0408V71.4289ZM96.2767 33.8177L96.4688 32.964L96.4685 32.964L96.2767 33.8177ZM94.4109 31.4044L95.2853 31.438L95.2859 31.4212V31.4044H94.4109ZM94.4193 31.2545L93.5459 31.2009V31.201L94.4193 31.2545ZM94.4272 31.1137L93.5522 31.1012V31.1137H94.4272ZM75.0821 17.5674L74.7777 16.7471L74.7757 16.7478L75.0821 17.5674ZM73.2187 17.4839L73.5973 16.695L73.5933 16.6931L73.2187 17.4839ZM71.981 16.0979L71.1524 16.3791L71.1526 16.3796L71.981 16.0979ZM53.3789 4.98357L53.5199 5.84713L53.3789 4.98357ZM39.3339 21.4295L38.4589 21.4299L38.4589 21.4328L39.3339 21.4295ZM38.5282 23.2966L37.9294 22.6586L37.9283 22.6596L38.5282 23.2966ZM36.6506 23.9569L36.5351 24.8242L36.5588 24.8274L36.5826 24.8292L36.6506 23.9569ZM17.772 40.4769L16.897 40.4825L16.8971 40.5042L16.8983 40.5259L17.772 40.4769ZM17.806 41.0838L18.6804 41.053L18.6801 41.0439L18.6796 41.0348L17.806 41.0838ZM16.0899 43.4507L15.8436 42.6111L15.8432 42.6112L16.0899 43.4507ZM20.1677 71.4289V70.5539H20.1676L20.1677 71.4289ZM20.1677 76.1908V75.3158H20.1675L20.1677 76.1908ZM13.0044 39.4841L13.3295 40.2964L13.8515 40.0875L13.8784 39.5259L13.0044 39.4841ZM34.5423 19.0486V18.1736H34.5413L34.5423 19.0486ZM34.6969 19.0486V19.9236H35.4796L35.5665 19.1457L34.6969 19.0486ZM52.6469 0.279236L52.7865 1.14301L52.6469 0.279236ZM75.6588 12.4244L74.8654 12.7935L75.1668 13.4412L75.8616 13.2755L75.6588 12.4244ZM82.8858 67.3273L82.73 68.1883L82.7311 68.1885L82.8858 67.3273ZM78.3178 66.5004L77.4973 66.8043L77.6707 67.2725L78.162 67.3614L78.3178 66.5004ZM84.8535 69.6687L83.9785 69.6685V69.6687H84.8535ZM84.8535 77.951H83.9785V77.9515L84.8535 77.951ZM82.887 80.2931L82.7318 79.432L82.731 79.4321L82.887 80.2931ZM78.319 81.1207L78.163 80.2597L77.6722 80.3486L77.4987 80.8163L78.319 81.1207ZM77.7177 82.5731L76.9223 82.2084L76.7138 82.6631L76.9999 83.0734L77.7177 82.5731ZM80.3578 86.3606L81.0758 85.8605L81.0756 85.8603L80.3578 86.3606ZM80.0818 89.3997L79.4651 88.7789L79.465 88.779L80.0818 89.3997ZM74.1882 95.2567L74.8043 95.8781L74.805 95.8774L74.1882 95.2567ZM71.1317 95.531L70.636 96.2521L70.6367 96.2525L71.1317 95.531ZM67.3169 92.9084L67.8126 92.1874L67.4051 91.9072L66.9549 92.1118L67.3169 92.9084ZM65.8534 93.506L65.554 92.6838L65.0828 92.8554L64.9926 93.3487L65.8534 93.506ZM65.0239 98.0445L65.8847 98.2019L65.0239 98.0445ZM62.667 100V100.875H62.6671L62.667 100ZM54.3331 100L54.3328 100.875H54.3331V100ZM51.9766 98.0445L51.1158 98.2019V98.2019L51.9766 98.0445ZM51.1472 93.506L52.0079 93.3487L51.9179 92.8561L51.4476 92.6842L51.1472 93.506ZM49.6836 92.9084L50.0447 92.1114L49.5949 91.9077L49.188 92.1873L49.6836 92.9084ZM45.8683 95.5303L46.3634 96.2518L46.3639 96.2514L45.8683 95.5303ZM42.8118 95.256L42.195 95.8766L42.1957 95.8773L42.8118 95.256ZM36.9194 89.3989L37.5363 88.7784L37.5361 88.7782L36.9194 89.3989ZM36.6434 86.3599L35.9256 85.8596L35.9255 85.8598L36.6434 86.3599ZM39.2836 82.5724L40.0014 83.0727L40.2879 82.6616L40.0784 82.2065L39.2836 82.5724ZM38.6822 81.12L39.5027 80.8161L39.3294 80.348L38.8382 80.259L38.6822 81.12ZM34.1142 80.2924L34.2702 79.4314L34.269 79.4312L34.1142 80.2924ZM32.1466 77.951L33.0216 77.9512V77.951H32.1466ZM32.1466 69.6687H33.0216V69.6681L32.1466 69.6687ZM34.1142 67.3263L34.269 68.1876L34.2702 68.1873L34.1142 67.3263ZM38.6822 66.4987L38.8382 67.3597L39.329 67.2708L39.5026 66.8032L38.6822 66.4987ZM39.2836 65.0464L40.079 65.411L40.2873 64.9565L40.0015 64.5462L39.2836 65.0464ZM36.6434 61.2564L35.9254 61.7565L35.9255 61.7566L36.6434 61.2564ZM36.9194 58.2177L36.3027 57.597L36.3027 57.597L36.9194 58.2177ZM42.8118 52.363L43.4285 52.9837L43.4292 52.9831L42.8118 52.363ZM45.8683 52.0887L45.3719 52.8092L45.3726 52.8097L45.8683 52.0887ZM49.6831 54.7113L49.1874 55.4323L49.5949 55.7125L50.0452 55.5078L49.6831 54.7113ZM51.1467 54.1137L51.446 54.9359L51.9173 54.7643L52.0074 54.271L51.1467 54.1137ZM51.9761 49.5751L51.1154 49.4178V49.4178L51.9761 49.5751ZM54.3331 47.6197V46.7447H54.333L54.3331 47.6197ZM62.667 47.6197L62.6673 46.7447H62.667V47.6197ZM65.0235 49.5751L65.8842 49.4178L65.8842 49.4178L65.0235 49.5751ZM65.8529 54.1137L64.9921 54.271L65.0822 54.7635L65.5525 54.9355L65.8529 54.1137ZM67.3165 54.7113L66.9554 55.5083L67.4051 55.712L67.812 55.4324L67.3165 54.7113ZM71.1305 52.0903L71.6261 52.8115L71.6276 52.8104L71.1305 52.0903ZM74.187 52.3646L73.5691 52.9841L73.5704 52.9854L74.187 52.3646ZM80.0806 58.2193L80.6974 57.5986L80.6973 57.5985L80.0806 58.2193ZM80.3566 61.2581L81.0746 61.7582L81.0746 61.7582L80.3566 61.2581ZM77.7165 65.048L76.9985 64.5479L76.7122 64.9589L76.9217 65.4139L77.7165 65.048ZM80.062 75.9629L80.2181 76.8239L80.9368 76.6936L80.937 75.9632L80.062 75.9629ZM76.061 76.6884L76.2154 77.5497L76.2171 77.5493L76.061 76.6884ZM80.0631 71.6568L80.9381 71.657L80.9383 70.9262L80.2193 70.7958L80.0631 71.6568ZM76.0622 70.9313L76.2183 70.0703L76.2166 70.07L76.0622 70.9313ZM74.1892 69.2549L73.3489 69.4989L73.3494 69.5006L74.1892 69.2549ZM72.8406 65.9976L73.6075 65.5762L73.6062 65.5739L72.8406 65.9976ZM72.9705 63.4957L73.6883 63.9961L73.6884 63.9958L72.9705 63.4957ZM75.28 60.1802L75.998 60.6804L76.4179 60.0775L75.8968 59.5596L75.28 60.1802ZM72.2151 57.1343L72.8319 56.5137L72.3171 56.0021L71.7192 56.4134L72.2151 57.1343ZM68.8787 59.4293L69.3727 60.1516L69.3746 60.1502L68.8787 59.4293ZM66.3632 59.5593L65.9456 60.3282L65.9466 60.3288L66.3632 59.5593ZM63.0831 58.2179L62.8402 59.0585L62.8422 59.0591L63.0831 58.2179ZM61.3951 56.3577L60.5343 56.5149L60.5344 56.5152L61.3951 56.3577ZM60.6687 52.3815L61.5294 52.2243L61.3983 51.5065H60.6687V52.3815ZM56.3323 52.3815V51.5065H55.6028L55.4716 52.2242L56.3323 52.3815ZM55.6055 56.3574L56.4662 56.5149L56.4662 56.5148L55.6055 56.3574ZM53.9174 58.2177L54.1584 59.0588L54.1604 59.0582L53.9174 58.2177ZM50.6374 59.5591L51.0541 60.3284L51.0549 60.328L50.6374 59.5591ZM48.1218 59.4291L47.6259 60.15L47.6277 60.1512L48.1218 59.4291ZM44.7854 57.1341L45.2813 56.4132L44.6834 56.0019L44.1687 56.5135L44.7854 57.1341ZM41.7205 60.18L41.1037 59.5594L40.5827 60.0772L41.0025 60.6801L41.7205 60.18ZM44.0296 63.4957L43.3115 63.9957L43.312 63.9964L44.0296 63.4957ZM44.1606 65.9976L43.3949 65.5742L43.3938 65.5762L44.1606 65.9976ZM42.8121 69.2549L43.6519 69.5006L43.6524 69.4989L42.8121 69.2549ZM40.939 70.9313L40.7847 70.07L40.7829 70.0703L40.939 70.9313ZM36.9381 71.6568L36.782 70.7958L36.0631 70.9262V71.6568H36.9381ZM36.9381 75.9629H36.0631V76.6935L36.7819 76.8239L36.9381 75.9629ZM40.9378 76.6884L40.7817 77.5493L40.7835 77.5497L40.9378 76.6884ZM42.8109 78.3648L43.6512 78.1208L43.6507 78.1191L42.8109 78.3648ZM44.1594 81.6224L43.3925 82.0436L43.3939 82.0461L44.1594 81.6224ZM44.0296 84.124L43.3118 83.6236L43.3117 83.6237L44.0296 84.124ZM41.7201 87.4378L41.0022 86.9375L40.5821 87.5402L41.1031 88.0582L41.7201 87.4378ZM44.785 90.4854L44.168 91.1058L44.6828 91.6177L45.2809 91.2063L44.785 90.4854ZM48.1213 88.1904L48.6172 88.9113L48.6173 88.9113L48.1213 88.1904ZM50.6369 88.0604L50.2182 88.8287L50.2192 88.8293L50.6369 88.0604ZM53.9169 89.4018L54.1599 88.5612L54.1578 88.5606L53.9169 89.4018ZM55.605 91.262L56.4657 91.1048L56.4657 91.1045L55.605 91.262ZM56.3314 95.2382L55.4706 95.3954L55.6017 96.1132H56.3314V95.2382ZM60.6677 95.2382V96.1132H61.3974L61.5285 95.3953L60.6677 95.2382ZM61.3936 91.2623L60.5329 91.1048L60.5329 91.1051L61.3936 91.2623ZM63.0817 89.402L62.8408 88.5609L62.8387 88.5614L63.0817 89.402ZM66.3617 88.0606L66.7794 88.8295L66.7805 88.8289L66.3617 88.0606ZM68.8773 88.1906L68.3814 88.9115L68.3816 88.9117L68.8773 88.1906ZM72.2146 90.4849L71.7189 91.2059L72.317 91.6171L72.8316 91.1053L72.2146 90.4849ZM75.2795 87.4373L75.8965 88.0578L76.4174 87.5398L75.9974 86.937L75.2795 87.4373ZM72.9705 84.124L73.6883 83.6237L73.688 83.6232L72.9705 84.124ZM72.8394 81.6224L73.6052 82.0457L73.6063 82.0437L72.8394 81.6224ZM74.188 78.3648L73.3482 78.1191L73.3477 78.1208L74.188 78.3648ZM58.5 61.9052L58.501 61.0302H58.5V61.9052ZM70.4789 73.8098H71.3539V73.8088L70.4789 73.8098ZM58.5 80.9526V81.8276H58.501L58.5 80.9526ZM65.6873 73.8098L66.5623 73.8108V73.8098H65.6873ZM100.058 29.6045C99.3315 19.1506 90.595 11.0436 80.063 11.0308L80.0609 12.7808C89.6835 12.7925 97.65 20.1974 98.3118 29.7258L100.058 29.6045ZM116.589 56.1106C118.44 44.0517 111.151 32.4624 99.4441 28.8294L98.9254 30.5008C109.812 33.8791 116.578 44.6497 114.859 55.845L116.589 56.1106ZM92.0406 77.0658C104.304 77.0683 114.737 68.1687 116.589 56.1106L114.859 55.845C113.14 67.0412 103.448 75.3181 92.041 75.3158L92.0406 77.0658ZM88.77 73.8098C88.77 75.6132 90.2395 77.0658 92.0408 77.0658V75.3158C91.1958 75.3158 90.52 74.6364 90.52 73.8098H88.77ZM92.0408 70.5539C90.2395 70.5539 88.77 72.0065 88.77 73.8098H90.52C90.52 72.9833 91.1958 72.3039 92.0408 72.3039V70.5539ZM110.218 54.4084C109.183 63.5999 101.359 70.557 92.0411 70.5539L92.0405 72.3039C102.241 72.3073 110.821 64.6897 111.957 54.6043L110.218 54.4084ZM96.0847 34.6714C105.172 36.7154 111.253 45.2176 110.218 54.4084L111.957 54.6043C113.093 44.5182 106.419 35.2021 96.4688 32.964L96.0847 34.6714ZM93.5366 31.3708C93.4761 32.9422 94.5513 34.3269 96.085 34.6714L96.4685 32.964C95.751 32.8028 95.2576 32.1587 95.2853 31.438L93.5366 31.3708ZM93.5459 31.201C93.5435 31.2414 93.5359 31.3558 93.5359 31.4044H95.2859C95.2859 31.414 95.2858 31.4212 95.2857 31.4238C95.2856 31.4271 95.2855 31.4293 95.2855 31.43C95.2854 31.4313 95.2855 31.4309 95.2856 31.428C95.2859 31.4222 95.2864 31.413 95.2871 31.4002C95.2886 31.3748 95.2906 31.3424 95.2927 31.308L93.5459 31.201ZM93.5522 31.1137C93.5522 31.1036 93.5524 31.0961 93.5525 31.0934C93.5526 31.09 93.5527 31.0877 93.5527 31.0869C93.5527 31.0853 93.5527 31.0855 93.5526 31.0881C93.5524 31.0932 93.5519 31.1016 93.5512 31.1136C93.5498 31.1373 93.548 31.1679 93.5459 31.2009L95.2927 31.3081C95.295 31.2705 95.3022 31.1609 95.3022 31.1137H93.5522ZM87.8493 19.9846C91.4823 22.5285 93.6152 26.6891 93.5523 31.1012L95.3021 31.1262C95.3733 26.1314 92.9586 21.4259 88.8531 18.5511L87.8493 19.9846ZM75.3865 18.3878C79.5517 16.8423 84.2159 17.4403 87.8493 19.9846L88.8531 18.5511C84.7481 15.6766 79.481 15.0019 74.7777 16.7471L75.3865 18.3878ZM72.84 18.2727C73.6382 18.6558 74.5591 18.6971 75.3885 18.387L74.7757 16.7478C74.3922 16.8912 73.9661 16.872 73.5973 16.695L72.84 18.2727ZM71.1526 16.3796C71.4363 17.214 72.0471 17.897 72.844 18.2746L73.5933 16.6931C73.2221 16.5172 72.94 16.2003 72.8095 15.8163L71.1526 16.3796ZM53.5199 5.84713C61.2042 4.5922 68.6665 9.05472 71.1524 16.3791L72.8096 15.8167C70.0465 7.67567 61.7594 2.72835 53.2378 4.12001L53.5199 5.84713ZM40.2089 21.4291C40.2056 13.7013 45.8364 7.10192 53.5199 5.84713L53.2378 4.12001C44.7154 5.5118 38.4552 12.8362 38.4589 21.4299L40.2089 21.4291ZM39.127 23.9346C39.8201 23.2841 40.2124 22.3763 40.2089 21.4263L38.4589 21.4328C38.4606 21.8954 38.2697 22.3392 37.9294 22.6587L39.127 23.9346ZM36.5826 24.8292C37.5193 24.9023 38.4443 24.5775 39.1281 23.9336L37.9283 22.6596C37.6048 22.9643 37.1653 23.1194 36.7187 23.0845L36.5826 24.8292ZM23.9999 28.6005C27.4303 25.5986 32.0027 24.2205 36.5351 24.8242L36.7661 23.0895C31.7354 22.4195 26.6585 23.9486 22.8474 27.2835L23.9999 28.6005ZM18.6469 40.4713C18.618 35.9323 20.5697 31.6021 23.9999 28.6005L22.8474 27.2835C19.0361 30.6186 16.8648 35.4329 16.897 40.4825L18.6469 40.4713ZM18.6796 41.0348L18.6456 40.4279L16.8983 40.5259L16.9323 41.1328L18.6796 41.0348ZM16.3362 44.2903C17.7651 43.8712 18.7329 42.5415 18.6804 41.053L16.9315 41.1146C16.9556 41.7974 16.5114 42.4152 15.8436 42.6111L16.3362 44.2903ZM6.80789 59.0679C5.84742 52.478 9.90185 46.1811 16.3366 44.2902L15.8432 42.6112C8.57959 44.7456 3.98895 51.8607 5.07619 59.3203L6.80789 59.0679ZM20.1676 70.5539C13.4557 70.5552 7.76849 65.6586 6.80789 59.0679L5.07619 59.3203C6.16331 66.7791 12.5951 72.3054 20.1679 72.3039L20.1676 70.5539ZM24.9593 70.5539H20.1677V72.3039H24.9593V70.5539ZM28.23 73.8098C28.23 72.0065 26.7605 70.5539 24.9593 70.5539V72.3039C25.8043 72.3039 26.48 72.9833 26.48 73.8098H28.23ZM24.9593 77.0658C26.7605 77.0658 28.23 75.6132 28.23 73.8098H26.48C26.48 74.6364 25.8043 75.3158 24.9593 75.3158V77.0658ZM20.1677 77.0658H24.9593V75.3158H20.1677V77.0658ZM0.493596 60.9411C2.32187 70.3096 10.5753 77.0679 20.1679 77.0658L20.1675 75.3158C11.4049 75.3177 3.87765 69.1452 2.2112 60.606L0.493596 60.9411ZM12.6792 38.6717C3.77912 42.2343 -1.33486 51.5717 0.493596 60.9411L2.2112 60.606C0.54493 52.0676 5.20366 43.5491 13.3295 40.2964L12.6792 38.6717ZM34.5413 18.1736C22.5653 18.1879 12.6998 27.5415 12.1304 39.4422L13.8784 39.5259C14.4027 28.5667 23.491 19.9368 34.5434 19.9236L34.5413 18.1736ZM34.6969 18.1736H34.5423V19.9236H34.6969V18.1736ZM52.5072 -0.584543C42.5785 1.02109 34.9374 9.00661 33.8273 18.9515L35.5665 19.1457C36.5886 9.98826 43.627 2.62427 52.7865 1.14301L52.5072 -0.584543ZM76.4521 12.0553C72.2275 2.97519 62.4353 -2.19008 52.5072 -0.584543L52.7865 1.14301C61.9467 -0.338336 70.9736 4.42866 74.8654 12.7935L76.4521 12.0553ZM80.0615 11.0308C78.5102 11.0316 76.9644 11.2136 75.4559 11.5732L75.8616 13.2755C77.2375 12.9476 78.6474 12.7815 80.0624 12.7808L80.0615 11.0308ZM83.0417 66.4663L78.4737 65.6394L78.162 67.3614L82.73 68.1883L83.0417 66.4663ZM85.7285 69.6689C85.7289 68.0908 84.5932 66.7451 83.0406 66.4661L82.7311 68.1885C83.4573 68.319 83.9787 68.9452 83.9785 69.6685L85.7285 69.6689ZM85.7285 77.951V69.6687H83.9785V77.951H85.7285ZM83.0423 81.1542C84.5945 80.8744 85.7295 79.5284 85.7285 77.9504L83.9785 77.9515C83.979 78.6747 83.4579 79.3011 82.7318 79.432L83.0423 81.1542ZM78.475 81.9817L83.043 81.1541L82.731 79.4321L78.163 80.2597L78.475 81.9817ZM78.5131 82.9377C78.7397 82.4434 78.9493 81.9374 79.1394 81.4251L77.4987 80.8163C77.3237 81.2878 77.1308 81.7537 76.9223 82.2084L78.5131 82.9377ZM81.0756 85.8603L78.4355 82.0727L76.9999 83.0734L79.64 86.861L81.0756 85.8603ZM80.6985 90.0204C81.8184 88.9078 81.9782 87.1559 81.0758 85.8605L79.6398 86.8608C80.0557 87.4577 79.9831 88.2643 79.4651 88.7789L80.6985 90.0204ZM74.805 95.8774L80.6986 90.0203L79.465 88.779L73.5714 94.6361L74.805 95.8774ZM70.6367 96.2525C71.9346 97.1429 73.6866 96.9864 74.8043 95.8781L73.5721 94.6354C73.052 95.1512 72.2329 95.2253 71.6267 94.8095L70.6367 96.2525ZM66.8212 93.6295L70.636 96.2521L71.6274 94.81L67.8126 92.1874L66.8212 93.6295ZM66.1527 94.3282C66.672 94.1392 67.1808 93.9314 67.679 93.705L66.9549 92.1118C66.4983 92.3194 66.0313 92.51 65.554 92.6838L66.1527 94.3282ZM65.8847 98.2019L66.7141 93.6633L64.9926 93.3487L64.1632 97.8872L65.8847 98.2019ZM62.6671 100.875C64.2437 100.875 65.6011 99.7535 65.8847 98.2019L64.1632 97.8872C64.0329 98.6001 63.4061 99.1249 62.6669 99.125L62.6671 100.875ZM54.3331 100.875H62.667V99.125H54.3331V100.875ZM51.1158 98.2019C51.3994 99.7532 52.7564 100.875 54.3328 100.875L54.3333 99.125C53.5943 99.1248 52.9676 98.6 52.8373 97.8872L51.1158 98.2019ZM50.2864 93.6633L51.1158 98.2019L52.8373 97.8872L52.0079 93.3487L50.2864 93.6633ZM49.3225 93.7055C49.8199 93.9308 50.328 94.1382 50.8468 94.3278L51.4476 92.6842C50.9694 92.5094 50.5017 92.3184 50.0447 92.1114L49.3225 93.7055ZM46.3639 96.2514L50.1792 93.6296L49.188 92.1873L45.3728 94.8092L46.3639 96.2514ZM42.1957 95.8773C43.3134 96.9858 45.0655 97.1423 46.3634 96.2518L45.3733 94.8088C44.7671 95.2247 43.9481 95.1506 43.428 94.6347L42.1957 95.8773ZM36.3026 90.0195L42.195 95.8766L43.4287 94.6354L37.5363 88.7784L36.3026 90.0195ZM35.9255 85.8598C35.0231 87.1552 35.1829 88.9071 36.3027 90.0197L37.5361 88.7782C37.0181 88.2636 36.9456 87.457 37.3614 86.8601L35.9255 85.8598ZM38.5657 82.072L35.9256 85.8596L37.3612 86.8603L40.0014 83.0727L38.5657 82.072ZM37.8617 81.4239C38.0517 81.9369 38.261 82.4436 38.4887 82.9383L40.0784 82.2065C39.8701 81.754 39.6778 81.2887 39.5027 80.8161L37.8617 81.4239ZM33.9582 81.1534L38.5262 81.981L38.8382 80.259L34.2702 79.4314L33.9582 81.1534ZM31.2716 77.9508C31.2712 79.5289 32.4069 80.8745 33.9594 81.1536L34.269 79.4312C33.5428 79.3007 33.0214 78.6744 33.0216 77.9512L31.2716 77.9508ZM31.2716 69.6687V77.951H33.0216V69.6687H31.2716ZM33.9594 66.4651C32.4064 66.7443 31.2705 68.0906 31.2716 69.6693L33.0216 69.6681C33.0211 68.9447 33.5425 68.3181 34.269 68.1875L33.9594 66.4651ZM38.5262 65.6378L33.9582 66.4654L34.2702 68.1873L38.8382 67.3597L38.5262 65.6378ZM38.4882 64.6817C38.2616 65.176 38.052 65.6821 37.8619 66.1943L39.5026 66.8032C39.6776 66.3316 39.8705 65.8657 40.079 65.411L38.4882 64.6817ZM35.9255 61.7566L38.5656 65.5465L40.0015 64.5462L37.3614 60.7563L35.9255 61.7566ZM36.3027 57.597C35.183 58.7095 35.0232 60.4612 35.9254 61.7565L37.3614 60.7563C36.9457 60.1594 37.0183 59.3529 37.5362 58.8383L36.3027 57.597ZM42.1951 51.7423L36.3027 57.597L37.5361 58.8384L43.4285 52.9837L42.1951 51.7423ZM46.3648 51.3681C45.0669 50.474 43.3115 50.6308 42.1945 51.7429L43.4292 52.9831C43.9479 52.4666 44.7669 52.3924 45.3719 52.8092L46.3648 51.3681ZM50.1788 53.9902L46.364 51.3676L45.3726 52.8097L49.1874 55.4323L50.1788 53.9902ZM50.8473 53.2915C50.328 53.4805 49.8193 53.6882 49.3211 53.9147L50.0452 55.5078C50.5018 55.3003 50.9687 55.1096 51.446 54.9359L50.8473 53.2915ZM51.1154 49.4178L50.2859 53.9563L52.0074 54.271L52.8369 49.7324L51.1154 49.4178ZM54.333 46.7447C52.7563 46.7448 51.3989 47.8662 51.1154 49.4178L52.8369 49.7324C52.9671 49.0196 53.594 48.4948 54.3332 48.4947L54.333 46.7447ZM62.667 46.7447H54.3331V48.4947H62.667V46.7447ZM65.8842 49.4178C65.6007 47.8665 64.2437 46.7452 62.6673 46.7447L62.6667 48.4947C63.4058 48.4949 64.0325 49.0197 64.1627 49.7324L65.8842 49.4178ZM66.7136 53.9563L65.8842 49.4178L64.1627 49.7324L64.9921 54.271L66.7136 53.9563ZM67.6775 53.9142C67.1801 53.6889 66.672 53.4815 66.1533 53.2918L65.5525 54.9355C66.0307 55.1103 66.4983 55.3012 66.9554 55.5083L67.6775 53.9142ZM70.635 51.3692L66.8209 53.9901L67.812 55.4324L71.6261 52.8115L70.635 51.3692ZM74.805 51.7451C73.6883 50.6313 71.9313 50.4743 70.6334 51.3703L71.6276 52.8104C72.232 52.3932 73.051 52.4674 73.5691 52.9841L74.805 51.7451ZM80.6973 57.5985L74.8037 51.7439L73.5704 52.9854L79.464 58.8401L80.6973 57.5985ZM81.0746 61.7582C81.9768 60.4628 81.817 58.7112 80.6974 57.5986L79.4639 58.84C79.9818 59.3546 80.0544 60.1611 79.6386 60.758L81.0746 61.7582ZM78.4345 65.5482L81.0746 61.7582L79.6387 60.7579L76.9985 64.5479L78.4345 65.5482ZM79.1383 66.1965C78.9483 65.6834 78.739 65.1768 78.5113 64.6821L76.9217 65.4139C77.13 65.8664 77.3222 66.3317 77.4973 66.8043L79.1383 66.1965ZM79.9058 75.1019L75.9049 75.8274L76.2171 77.5493L80.2181 76.8239L79.9058 75.1019ZM79.1881 71.6565L79.187 75.9627L80.937 75.9632L80.9381 71.657L79.1881 71.6565ZM75.9061 71.7923L79.907 72.5177L80.2193 70.7958L76.2183 70.0703L75.9061 71.7923ZM73.3494 69.5006C73.6968 70.6882 74.6895 71.5742 75.9078 71.7926L76.2166 70.07C75.6471 69.968 75.1887 69.5552 75.029 69.0092L73.3494 69.5006ZM72.0737 66.4189C72.6107 67.3963 73.0383 68.4291 73.3489 69.4988L75.0295 69.0109C74.6831 67.8178 74.2062 66.666 73.6075 65.5762L72.0737 66.4189ZM72.2527 62.9953C71.5447 64.0108 71.4756 65.3382 72.075 66.4212L73.6062 65.5739C73.3302 65.0751 73.3617 64.4645 73.6883 63.9961L72.2527 62.9953ZM74.562 59.6801L72.2525 62.9955L73.6884 63.9958L75.998 60.6804L74.562 59.6801ZM71.5983 57.755L74.6632 60.8009L75.8968 59.5596L72.8319 56.5137L71.5983 57.755ZM69.3746 60.1502L72.711 57.8552L71.7192 56.4134L68.3828 58.7084L69.3746 60.1502ZM65.9466 60.3288C67.031 60.9159 68.3549 60.8476 69.3727 60.1516L68.3848 58.7071C67.9088 59.0326 67.2878 59.0649 66.7798 58.7898L65.9466 60.3288ZM62.8422 59.0591C63.9204 59.3679 64.9611 59.7936 65.9456 60.3282L66.7808 58.7904C65.684 58.1948 64.5248 57.7207 63.3241 57.3767L62.8422 59.0591ZM60.5344 56.5152C60.757 57.7318 61.6517 58.715 62.8402 59.0585L63.3261 57.3773C62.7707 57.2168 62.3581 56.7593 62.2558 56.2002L60.5344 56.5152ZM59.8079 52.5388L60.5343 56.5149L62.2558 56.2004L61.5294 52.2243L59.8079 52.5388ZM56.3323 53.2565H60.6687V51.5065H56.3323V53.2565ZM56.4662 56.5148L57.1931 52.5389L55.4716 52.2242L54.7447 56.2001L56.4662 56.5148ZM54.1604 59.0582C55.3488 58.7147 56.2435 57.7315 56.4662 56.5149L54.7448 56.1999C54.6424 56.7591 54.2299 57.2165 53.6744 57.3771L54.1604 59.0582ZM51.0549 60.328C52.0395 59.7933 53.0802 59.3677 54.1584 59.0588L53.6764 57.3765C52.4757 57.7205 51.3165 58.1945 50.2198 58.7901L51.0549 60.328ZM47.6277 60.1512C48.6455 60.8476 49.9697 60.9158 51.0541 60.3284L50.2206 58.7897C49.7127 59.0648 49.0918 59.0325 48.6159 58.7069L47.6277 60.1512ZM44.2896 57.855L47.6259 60.15L48.6177 58.7081L45.2813 56.4132L44.2896 57.855ZM42.3373 60.8006L45.4022 57.7547L44.1687 56.5135L41.1037 59.5594L42.3373 60.8006ZM44.7476 62.9956L42.4386 59.68L41.0025 60.6801L43.3115 63.9957L44.7476 62.9956ZM44.9264 66.4209C45.5253 65.3375 45.4556 64.0101 44.7471 62.9949L43.312 63.9964C43.6389 64.4648 43.6707 65.0753 43.3949 65.5742L44.9264 66.4209ZM43.6524 69.4989C43.9629 68.4291 44.3905 67.3963 44.9275 66.4189L43.3938 65.5762C42.795 66.666 42.3181 67.8178 41.9717 69.0109L43.6524 69.4989ZM41.0934 71.7926C42.3117 71.5742 43.3044 70.6882 43.6519 69.5006L41.9723 69.0092C41.8125 69.5552 41.3541 69.968 40.7847 70.07L41.0934 71.7926ZM37.0942 72.5177L41.0952 71.7923L40.7829 70.0703L36.782 70.7958L37.0942 72.5177ZM37.8131 75.9629V71.6568H36.0631V75.9629H37.8131ZM41.094 75.8274L37.0943 75.102L36.7819 76.8239L40.7817 77.5493L41.094 75.8274ZM43.6507 78.1191C43.3032 76.9314 42.3105 76.0455 41.0922 75.8271L40.7835 77.5497C41.3529 77.6517 41.8113 78.0645 41.9711 78.6105L43.6507 78.1191ZM44.9263 81.2011C44.3894 80.2236 43.9618 79.1907 43.6512 78.1208L41.9706 78.6088C42.317 79.802 42.7938 80.9538 43.3925 82.0436L44.9263 81.2011ZM44.7474 84.6244C45.4553 83.609 45.5244 82.2817 44.925 81.1987L43.3939 82.0461C43.6698 82.5447 43.6384 83.1552 43.3118 83.6236L44.7474 84.6244ZM42.4379 87.9381L44.7474 84.6243L43.3117 83.6237L41.0022 86.9375L42.4379 87.9381ZM45.4019 89.8649L42.337 86.8173L41.1031 88.0582L44.168 91.1058L45.4019 89.8649ZM47.6254 87.4695L44.2891 89.7644L45.2809 91.2063L48.6172 88.9113L47.6254 87.4695ZM51.0556 87.2921C49.9707 86.7008 48.6433 86.7692 47.6254 87.4695L48.6173 88.9113C49.0915 88.585 49.7118 88.5527 50.2182 88.8287L51.0556 87.2921ZM54.1578 88.5606C53.0796 88.2518 52.039 87.8262 51.0545 87.2915L50.2192 88.8293C51.316 89.425 52.4752 89.8991 53.676 90.243L54.1578 88.5606ZM56.4657 91.1045C56.2431 89.8879 55.3484 88.9047 54.1599 88.5612L53.674 90.2424C54.2294 90.4029 54.642 90.8603 54.7443 91.4195L56.4657 91.1045ZM57.1921 95.0809L56.4657 91.1048L54.7442 91.4193L55.4706 95.3954L57.1921 95.0809ZM60.6677 94.3632H56.3314V96.1132H60.6677V94.3632ZM60.5329 91.1051L59.8069 95.081L61.5285 95.3953L62.2544 91.4194L60.5329 91.1051ZM62.8387 88.5614C61.6502 88.9049 60.7555 89.8881 60.5329 91.1048L62.2543 91.4197C62.3567 90.8606 62.7692 90.4032 63.3246 90.2426L62.8387 88.5614ZM65.9441 87.2917C64.9597 87.8265 63.919 88.2521 62.8408 88.5609L63.3226 90.2432C64.5234 89.8993 65.6827 89.4253 66.7794 88.8295L65.9441 87.2917ZM69.3732 87.4697C68.3553 86.7695 67.0279 86.7011 65.943 87.2923L66.7805 88.8289C67.2868 88.553 67.9071 88.5852 68.3814 88.9115L69.3732 87.4697ZM72.7103 89.7638L69.373 87.4696L68.3816 88.9117L71.7189 91.2059L72.7103 89.7638ZM74.6626 86.8168L71.5976 89.8644L72.8316 91.1053L75.8965 88.0578L74.6626 86.8168ZM72.2526 84.6243L74.5616 87.9376L75.9974 86.937L73.6883 83.6237L72.2526 84.6243ZM72.0736 81.199C71.4748 82.2824 71.5445 83.6097 72.2529 84.6248L73.688 83.6232C73.3612 83.155 73.3294 82.5445 73.6052 82.0457L72.0736 81.199ZM73.3477 78.1208C73.0371 79.1907 72.6095 80.2236 72.0725 81.2011L73.6063 82.0437C74.205 80.9538 74.6819 79.802 75.0283 78.6088L73.3477 78.1208ZM75.9066 75.8271C74.6883 76.0455 73.6956 76.9314 73.3482 78.1191L75.0278 78.6105C75.1875 78.0645 75.6459 77.6517 76.2154 77.5497L75.9066 75.8271ZM58.5 61.0302C51.4062 61.0302 45.6462 66.7467 45.6462 73.8098H47.3962C47.3962 67.7235 52.3624 62.7802 58.5 62.7802V61.0302ZM71.3539 73.8088C71.3455 66.7497 65.5909 61.0385 58.501 61.0302L58.499 62.7802C64.6342 62.7874 69.5967 67.7269 69.6039 73.8109L71.3539 73.8088ZM58.5 86.5895C65.5939 86.5895 71.3539 80.873 71.3539 73.8098H69.6039C69.6039 79.8962 64.6376 84.8395 58.5 84.8395V86.5895ZM45.6462 73.8098C45.6462 80.8729 51.4062 86.5895 58.5 86.5895V84.8395C52.3624 84.8395 47.3962 79.8962 47.3962 73.8098H45.6462ZM58.5 80.0776C55.0087 80.0776 52.1877 77.2663 52.1877 73.8098H50.4377C50.4377 78.243 54.0525 81.8276 58.5 81.8276V80.0776ZM64.8123 73.8089C64.8085 77.2643 61.9893 80.0738 58.4991 80.0776L58.501 81.8276C62.946 81.8228 66.5574 78.2415 66.5623 73.8108L64.8123 73.8089ZM58.5 67.5421C61.9914 67.5421 64.8123 70.3534 64.8123 73.8098H66.5623C66.5623 69.3766 62.9476 65.7921 58.5 65.7921V67.5421ZM52.1877 73.8098C52.1877 70.3534 55.0087 67.5421 58.5 67.5421V65.7921C54.0525 65.7921 50.4377 69.3766 50.4377 73.8098H52.1877Z" fill="#007AFF" fill-opacity="0.04"/>
</svg>
