<svg height="13" viewBox="0 0 13 13" width="13" xmlns="http://www.w3.org/2000/svg"><g fill="#007aff" fill-rule="evenodd"><path d="m6.18369662 12.018488c-2.86854416 0-5.20215024-2.33370422-5.20215024-5.20215023 0-2.86854417 2.33360608-5.20215025 5.20215024-5.20215025 2.86844602 0 5.20215028 2.33360608 5.20215028 5.20215025 0 2.86844601-2.33370426 5.20215023-5.20215028 5.20215023m0-11.38583826c-3.41516255 0-6.18368802 2.76852547-6.18368802 6.18368803 0 3.41516253 2.76852547 6.18368803 6.18368802 6.18368803 3.41516256 0 6.18368808-2.7685255 6.18368808-6.18368803 0-3.41516256-2.76852552-6.18368803-6.18368808-6.18368803"/><path d="m6.12441174 8.70187185c.29151672 0 .53003041.22967984.53003041.53876608 0 .29151673-.23851369.53012856-.53003041.53012856s-.53886424-.23861183-.53886424-.53012856c0-.30908624.22967984-.53876608.53886424-.53876608m-.3975228-.93638705c-.03533536-.41519048.15017528-.7950456.34451976-1.0158916.09717224-.11483992.22967984-.24724937.3975228-.40625849.03533536-.03543351.06183688-.05300304.0883384-.07950456.23851369-.23861184.31801825-.30035056.43285817-.54769808.06183688-.11483992.0883384-.23851368.0883384-.3533536 0-.45935969-.31801824-.75087641-.87455017-.75087641-.55653192 0-.87455016.25618136-.94512273.75971025-.03543351.23851368-.20327647.37975696-.41519048.37975696-.24734752 0-.43285816-.17657864-.43285816-.43276001 0-.45052584.1766768-.81271328.52119656-1.10423.34442161-.28268288.76844593-.42392617 1.28964249-.42392617 1.08656233 0 1.79317138.60060297 1.79317138 1.54582386 0 .45052584-.24734752.91862121-.75087641 1.39574672-.04407104.03523721-.2560832.23841553-.29141856.27384904-.0441692.04407105-.20317832.20308017-.23851368.27375089-.07950456.14134144-.17667681.32685208-.21201217.55653192-.02650152.17657865-.19434448.3091844-.3975228.3091844-.21201216 0-.37102128-.16784296-.3975228-.37985512"/></g></svg>