<svg width="94" height="104" viewBox="0 0 94 104" fill="none" xmlns="http://www.w3.org/2000/svg">
<path fill-rule="evenodd" clip-rule="evenodd" d="M47 2C30.2872 2 2 4.48731 2 13.8443V90.1557C2 99.4619 30.2872 102 47 102C63.7128 102 92 99.5127 92 90.1557V13.7936C92 4.48731 63.7128 2 47 2ZM86.8786 64.6058C85.786 67.0592 71.6339 71.3739 47 71.3739C22.3661 71.3739 8.11153 66.9915 7.1214 64.6058V45.2657C16.0497 49.7157 34.6745 51.0863 47 51.0863C59.3255 51.0863 77.9503 49.6819 86.8786 45.2657V64.6058ZM47 45.9932C71.6339 45.9932 85.786 41.6785 86.8786 39.225V19.7834C77.9503 24.2335 59.3255 25.5871 47 25.5871C34.6745 25.5871 16.0497 24.2335 7.1214 19.7834V39.225C8.11153 41.5939 22.3661 45.9932 47 45.9932ZM47 7.07614C71.3096 7.07614 85.4446 11.3232 86.8274 13.8443C85.4446 16.3147 71.3096 20.6125 47 20.6125C22.6904 20.6125 8.57246 16.264 7.17261 13.7936C8.57246 11.3232 22.6904 7.07614 47 7.07614ZM7.1214 90.1049C8.11153 92.4907 22.2978 96.8731 47 96.8731C71.6339 96.8731 85.786 92.5245 86.8786 90.0541V70.6464C77.9503 75.1134 59.3255 76.467 47 76.467C34.6745 76.467 16.0497 75.1134 7.1214 70.6464V90.1049Z" fill="#007AFF"/>
<path d="M86.8786 64.6058L88.1347 65.1651L88.2536 64.8981V64.6058H86.8786ZM7.1214 64.6058H5.7464V64.8797L5.85142 65.1328L7.1214 64.6058ZM7.1214 45.2657L7.73476 44.035L5.7464 43.044V45.2657H7.1214ZM86.8786 45.2657H88.2536V43.0515L86.269 44.0332L86.8786 45.2657ZM86.8786 39.225L88.1347 39.7844L88.2536 39.5174V39.225H86.8786ZM86.8786 19.7834H88.2536V17.5618L86.2652 18.5528L86.8786 19.7834ZM7.1214 19.7834L7.73476 18.5528L5.7464 17.5618V19.7834H7.1214ZM7.1214 39.225H5.7464V39.5008L5.85276 39.7553L7.1214 39.225ZM86.8274 13.8443L88.0272 14.5159L88.3993 13.8511L88.033 13.1831L86.8274 13.8443ZM7.17261 13.7936L5.97632 13.1157L5.5922 13.7936L5.97632 14.4714L7.17261 13.7936ZM7.1214 90.1049H5.7464V90.3789L5.85142 90.632L7.1214 90.1049ZM86.8786 90.0541L88.1361 90.6103L88.2536 90.3446V90.0541H86.8786ZM86.8786 70.6464H88.2536V68.4209L86.2634 69.4167L86.8786 70.6464ZM7.1214 70.6464L7.73663 69.4167L5.7464 68.4209V70.6464H7.1214ZM3.375 13.8443C3.375 12.302 4.53165 10.7464 7.32657 9.26019C10.0615 7.80589 13.9637 6.64916 18.4966 5.76272C27.5369 3.99485 38.6896 3.375 47 3.375V0.625C38.5976 0.625 27.2503 1.24881 17.9688 3.06384C13.3408 3.96886 9.12663 5.1884 6.03545 6.83213C3.00425 8.44396 0.625 10.7081 0.625 13.8443H3.375ZM3.375 90.1557V13.8443H0.625V90.1557H3.375ZM47 100.625C38.691 100.625 27.5381 99.9926 18.4975 98.2184C13.9644 97.3288 10.0615 96.1705 7.3258 94.718C4.52772 93.2324 3.375 91.6826 3.375 90.1557H0.625C0.625 93.2819 3.00818 95.5392 6.03622 97.1469C9.12663 98.7877 13.3401 100.009 17.9679 100.917C27.249 102.738 38.5962 103.375 47 103.375V100.625ZM90.625 90.1557C90.625 91.698 89.4684 93.2536 86.6734 94.7398C83.9385 96.1941 80.0363 97.3508 75.5034 98.2373C66.4631 100.005 55.3104 100.625 47 100.625V103.375C55.4024 103.375 66.7497 102.751 76.0312 100.936C80.6592 100.031 84.8734 98.8116 87.9646 97.1679C90.9958 95.556 93.375 93.2919 93.375 90.1557H90.625ZM90.625 13.7936V90.1557H93.375V13.7936H90.625ZM47 3.375C55.3103 3.375 66.4634 3.99483 75.5043 5.75655C80.0375 6.6399 83.9403 7.79214 86.6758 9.24001C89.4734 10.7208 90.625 12.2676 90.625 13.7936H93.375C93.375 10.6665 90.9907 8.41242 87.9622 6.80948C84.8716 5.1736 80.658 3.95908 76.0303 3.05732C66.7494 1.24882 55.4025 0.625 47 0.625V3.375ZM47 72.7489C59.3918 72.7489 69.1828 71.6642 76.0436 70.2569C79.4695 69.5541 82.1965 68.7646 84.1635 67.9742C85.1444 67.58 85.9725 67.1714 86.6141 66.7519C87.2096 66.3626 87.8315 65.8461 88.1347 65.1651L85.6225 64.0464C85.6526 63.9788 85.5932 64.1338 85.1094 64.4501C84.6718 64.7362 84.0225 65.0671 83.1381 65.4225C81.3745 66.1312 78.819 66.8803 75.491 67.5629C68.8441 68.9264 59.2421 69.9989 47 69.9989V72.7489ZM5.85142 65.1328C6.14155 65.8319 6.77428 66.3519 7.35653 66.7325C7.99204 67.1479 8.81631 67.5537 9.79406 67.9459C11.7555 68.7328 14.485 69.5243 17.9169 70.2312C24.79 71.647 34.6068 72.7489 47 72.7489V69.9989C34.7593 69.9989 25.1319 68.9097 18.4717 67.5378C15.1369 66.8509 12.5776 66.0995 10.8179 65.3936C9.93518 65.0395 9.29091 64.7115 8.86113 64.4306C8.3781 64.1149 8.34877 63.9761 8.39137 64.0787L5.85142 65.1328ZM5.7464 45.2657V64.6058H8.4964V45.2657H5.7464ZM47 49.7113C40.8808 49.7113 33.2006 49.3707 25.9545 48.48C18.6655 47.5841 11.9762 46.1491 7.73476 44.035L6.50803 46.4963C11.1949 48.8323 18.2822 50.3076 25.619 51.2095C32.9988 52.1166 40.7937 52.4613 47 52.4613V49.7113ZM86.269 44.0332C82.0253 46.1322 75.3337 47.5673 68.0447 48.4674C60.7982 49.3624 53.1181 49.7113 47 49.7113V52.4613C53.2074 52.4613 61.0025 52.108 68.3818 51.1967C75.7187 50.2906 82.8036 48.8153 87.4882 46.4981L86.269 44.0332ZM88.2536 64.6058V45.2657H85.5036V64.6058H88.2536ZM85.6225 38.6657C85.6526 38.5981 85.5932 38.7531 85.1094 39.0694C84.6718 39.3555 84.0225 39.6864 83.1381 40.0418C81.3745 40.7504 78.819 41.4996 75.491 42.1822C68.8441 43.5457 59.2421 44.6182 47 44.6182V47.3682C59.3918 47.3682 69.1828 46.2834 76.0436 44.8761C79.4695 44.1734 82.1965 43.3839 84.1635 42.5935C85.1444 42.1993 85.9725 41.7907 86.6141 41.3712C87.2096 40.9819 87.8315 40.4654 88.1347 39.7844L85.6225 38.6657ZM85.5036 19.7834V39.225H88.2536V19.7834H85.5036ZM47 26.9621C53.2057 26.9621 61.0005 26.6217 68.3802 25.7189C75.7169 24.8213 82.8046 23.3503 87.492 21.014L86.2652 18.5528C82.0243 20.6666 75.3355 22.0975 68.0463 22.9892C60.8002 23.8757 53.1198 24.2121 47 24.2121V26.9621ZM6.50803 21.014C11.1954 23.3503 18.2831 24.8213 25.6198 25.7189C32.9995 26.6217 40.7943 26.9621 47 26.9621V24.2121C40.8802 24.2121 33.1998 23.8757 25.9537 22.9892C18.6645 22.0975 11.9757 20.6666 7.73476 18.5528L6.50803 21.014ZM8.4964 39.225V19.7834H5.7464V39.225H8.4964ZM47 44.6182C34.7597 44.6182 25.1324 43.5248 18.4721 42.1508C15.1374 41.4629 12.5776 40.7109 10.8175 40.0056C9.93446 39.6518 9.28967 39.3242 8.85938 39.0439C8.37503 38.7284 8.34641 38.5904 8.39003 38.6948L5.85276 39.7553C6.14392 40.4519 6.77734 40.9696 7.35828 41.3481C7.99328 41.7618 8.81703 42.1666 9.79453 42.5583C11.7554 43.3441 14.4846 44.1361 17.9165 44.8441C24.7895 46.262 34.6064 47.3682 47 47.3682V44.6182ZM88.033 13.1831C87.6895 12.5569 87.0757 12.0618 86.45 11.6669C85.7877 11.2489 84.9434 10.8401 83.9461 10.4449C81.9478 9.65302 79.208 8.86607 75.7862 8.16759C68.9347 6.769 59.2296 5.70114 47 5.70114V8.45114C59.08 8.45114 68.5971 9.5068 75.2362 10.862C78.5597 11.5404 81.1324 12.288 82.933 13.0015C83.8351 13.359 84.5119 13.6956 84.9823 13.9925C85.2164 14.1402 85.3813 14.2668 85.4913 14.3674C85.6054 14.4718 85.63 14.5206 85.6218 14.5056L88.033 13.1831ZM47 21.9875C59.2308 21.9875 68.9362 20.9068 75.7875 19.5018C79.2093 18.8001 81.9478 18.0117 83.9447 17.2229C84.9413 16.8292 85.7841 16.4234 86.4449 16.0104C87.0677 15.6212 87.6817 15.1331 88.0272 14.5159L85.6276 13.1727C85.6373 13.1553 85.6136 13.2025 85.4986 13.3062C85.388 13.4059 85.2224 13.5316 84.9874 13.6784C84.5155 13.9733 83.8372 14.3086 82.9344 14.6652C81.1323 15.3771 78.5585 16.1263 75.235 16.8079C68.5957 18.1694 59.0788 19.2375 47 19.2375V21.9875ZM5.97632 14.4714C6.32323 15.0837 6.93526 15.5706 7.55907 15.9612C8.2202 16.3752 9.06302 16.7829 10.0599 17.179C12.0573 17.9727 14.7953 18.7677 18.2164 19.4759C25.0663 20.8939 34.7682 21.9875 47 21.9875V19.2375C34.9222 19.2375 25.4104 18.1568 18.7739 16.783C15.4519 16.0953 12.8785 15.3399 11.0754 14.6234C10.1721 14.2645 9.49234 13.9271 9.01849 13.6304C8.78249 13.4827 8.61533 13.356 8.50315 13.2551C8.38646 13.1501 8.36054 13.1009 8.3689 13.1157L5.97632 14.4714ZM47 5.70114C34.7702 5.70114 25.0699 6.76903 18.2213 8.16101C14.8009 8.85622 12.063 9.63804 10.0655 10.4218C9.06853 10.8129 8.22509 11.2165 7.56318 11.6277C6.93871 12.0157 6.32443 12.5014 5.97632 13.1157L8.3689 14.4714C8.35996 14.4872 8.38499 14.4391 8.50089 14.3352C8.61233 14.2354 8.7788 14.11 9.01438 13.9636C9.48745 13.6697 10.1666 13.3362 11.0699 12.9818C12.8728 12.2744 15.4463 11.5313 18.769 10.8559C25.4068 9.50677 34.9202 8.45114 47 8.45114V5.70114ZM47 95.4981C34.7249 95.4981 25.0977 94.4088 18.4464 93.037C15.1161 92.3502 12.5635 91.5989 10.8096 90.8933C9.92974 90.5393 9.28801 90.2115 8.86005 89.9309C8.37961 89.6158 8.34945 89.4768 8.39137 89.5778L5.85142 90.632C6.14088 91.3294 6.77063 91.8493 7.35201 92.2305C7.98588 92.6462 8.80788 93.0522 9.7832 93.4446C11.7396 94.2317 14.4631 95.0234 17.8909 95.7303C24.7559 97.1462 34.5729 98.2481 47 98.2481V95.4981ZM85.6211 89.498C85.6498 89.4332 85.5886 89.59 85.1056 89.908C84.6681 90.1961 84.019 90.5294 83.1349 90.8873C81.3717 91.601 78.8166 92.3557 75.489 93.0435C68.8428 94.4172 59.2415 95.4981 47 95.4981V98.2481C59.3924 98.2481 69.1841 97.1547 76.0456 95.7366C79.4718 95.0284 82.1993 94.2327 84.1667 93.4363C85.1479 93.0392 85.9762 92.6274 86.6179 92.2048C87.2142 91.8122 87.8343 91.2927 88.1361 90.6103L85.6211 89.498ZM85.5036 70.6464V90.0541H88.2536V70.6464H85.5036ZM47 77.842C53.2057 77.842 61.0006 77.5016 68.3806 76.5966C75.7174 75.6969 82.8059 74.2215 87.4938 71.876L86.2634 69.4167C82.023 71.5382 75.335 72.9732 68.0459 73.867C60.8 74.7556 53.1198 75.092 47 75.092V77.842ZM6.50616 71.876C11.1941 74.2215 18.2826 75.6969 25.6194 76.5966C32.9994 77.5016 40.7943 77.842 47 77.842V75.092C40.8802 75.092 33.2 74.7556 25.9541 73.867C18.665 72.9732 11.977 71.5382 7.73663 69.4167L6.50616 71.876ZM8.4964 90.1049V70.6464H5.7464V90.1049H8.4964Z" fill="white"/>
<path d="M86.8786 64.6058L88.1347 65.1651L88.2536 64.8981V64.6058H86.8786ZM7.1214 64.6058H5.7464V64.8797L5.85142 65.1328L7.1214 64.6058ZM7.1214 45.2657L7.73476 44.035L5.7464 43.044V45.2657H7.1214ZM86.8786 45.2657H88.2536V43.0515L86.269 44.0332L86.8786 45.2657ZM86.8786 39.225L88.1347 39.7844L88.2536 39.5174V39.225H86.8786ZM86.8786 19.7834H88.2536V17.5618L86.2652 18.5528L86.8786 19.7834ZM7.1214 19.7834L7.73476 18.5528L5.7464 17.5618V19.7834H7.1214ZM7.1214 39.225H5.7464V39.5008L5.85276 39.7553L7.1214 39.225ZM86.8274 13.8443L88.0272 14.5159L88.3993 13.8511L88.033 13.1831L86.8274 13.8443ZM7.17261 13.7936L5.97632 13.1157L5.5922 13.7936L5.97632 14.4714L7.17261 13.7936ZM7.1214 90.1049H5.7464V90.3789L5.85142 90.632L7.1214 90.1049ZM86.8786 90.0541L88.1361 90.6103L88.2536 90.3446V90.0541H86.8786ZM86.8786 70.6464H88.2536V68.4209L86.2634 69.4167L86.8786 70.6464ZM7.1214 70.6464L7.73663 69.4167L5.7464 68.4209V70.6464H7.1214ZM3.375 13.8443C3.375 12.302 4.53165 10.7464 7.32657 9.26019C10.0615 7.80589 13.9637 6.64916 18.4966 5.76272C27.5369 3.99485 38.6896 3.375 47 3.375V0.625C38.5976 0.625 27.2503 1.24881 17.9688 3.06384C13.3408 3.96886 9.12663 5.1884 6.03545 6.83213C3.00425 8.44396 0.625 10.7081 0.625 13.8443H3.375ZM3.375 90.1557V13.8443H0.625V90.1557H3.375ZM47 100.625C38.691 100.625 27.5381 99.9926 18.4975 98.2184C13.9644 97.3288 10.0615 96.1705 7.3258 94.718C4.52772 93.2324 3.375 91.6826 3.375 90.1557H0.625C0.625 93.2819 3.00818 95.5392 6.03622 97.1469C9.12663 98.7877 13.3401 100.009 17.9679 100.917C27.249 102.738 38.5962 103.375 47 103.375V100.625ZM90.625 90.1557C90.625 91.698 89.4684 93.2536 86.6734 94.7398C83.9385 96.1941 80.0363 97.3508 75.5034 98.2373C66.4631 100.005 55.3104 100.625 47 100.625V103.375C55.4024 103.375 66.7497 102.751 76.0312 100.936C80.6592 100.031 84.8734 98.8116 87.9646 97.1679C90.9958 95.556 93.375 93.2919 93.375 90.1557H90.625ZM90.625 13.7936V90.1557H93.375V13.7936H90.625ZM47 3.375C55.3103 3.375 66.4634 3.99483 75.5043 5.75655C80.0375 6.6399 83.9403 7.79214 86.6758 9.24001C89.4734 10.7208 90.625 12.2676 90.625 13.7936H93.375C93.375 10.6665 90.9907 8.41242 87.9622 6.80948C84.8716 5.1736 80.658 3.95908 76.0303 3.05732C66.7494 1.24882 55.4025 0.625 47 0.625V3.375ZM47 72.7489C59.3918 72.7489 69.1828 71.6642 76.0436 70.2569C79.4695 69.5541 82.1965 68.7646 84.1635 67.9742C85.1444 67.58 85.9725 67.1714 86.6141 66.7519C87.2096 66.3626 87.8315 65.8461 88.1347 65.1651L85.6225 64.0464C85.6526 63.9788 85.5932 64.1338 85.1094 64.4501C84.6718 64.7362 84.0225 65.0671 83.1381 65.4225C81.3745 66.1312 78.819 66.8803 75.491 67.5629C68.8441 68.9264 59.2421 69.9989 47 69.9989V72.7489ZM5.85142 65.1328C6.14155 65.8319 6.77428 66.3519 7.35653 66.7325C7.99204 67.1479 8.81631 67.5537 9.79406 67.9459C11.7555 68.7328 14.485 69.5243 17.9169 70.2312C24.79 71.647 34.6068 72.7489 47 72.7489V69.9989C34.7593 69.9989 25.1319 68.9097 18.4717 67.5378C15.1369 66.8509 12.5776 66.0995 10.8179 65.3936C9.93518 65.0395 9.29091 64.7115 8.86113 64.4306C8.3781 64.1149 8.34877 63.9761 8.39137 64.0787L5.85142 65.1328ZM5.7464 45.2657V64.6058H8.4964V45.2657H5.7464ZM47 49.7113C40.8808 49.7113 33.2006 49.3707 25.9545 48.48C18.6655 47.5841 11.9762 46.1491 7.73476 44.035L6.50803 46.4963C11.1949 48.8323 18.2822 50.3076 25.619 51.2095C32.9988 52.1166 40.7937 52.4613 47 52.4613V49.7113ZM86.269 44.0332C82.0253 46.1322 75.3337 47.5673 68.0447 48.4674C60.7982 49.3624 53.1181 49.7113 47 49.7113V52.4613C53.2074 52.4613 61.0025 52.108 68.3818 51.1967C75.7187 50.2906 82.8036 48.8153 87.4882 46.4981L86.269 44.0332ZM88.2536 64.6058V45.2657H85.5036V64.6058H88.2536ZM85.6225 38.6657C85.6526 38.5981 85.5932 38.7531 85.1094 39.0694C84.6718 39.3555 84.0225 39.6864 83.1381 40.0418C81.3745 40.7504 78.819 41.4996 75.491 42.1822C68.8441 43.5457 59.2421 44.6182 47 44.6182V47.3682C59.3918 47.3682 69.1828 46.2834 76.0436 44.8761C79.4695 44.1734 82.1965 43.3839 84.1635 42.5935C85.1444 42.1993 85.9725 41.7907 86.6141 41.3712C87.2096 40.9819 87.8315 40.4654 88.1347 39.7844L85.6225 38.6657ZM85.5036 19.7834V39.225H88.2536V19.7834H85.5036ZM47 26.9621C53.2057 26.9621 61.0005 26.6217 68.3802 25.7189C75.7169 24.8213 82.8046 23.3503 87.492 21.014L86.2652 18.5528C82.0243 20.6666 75.3355 22.0975 68.0463 22.9892C60.8002 23.8757 53.1198 24.2121 47 24.2121V26.9621ZM6.50803 21.014C11.1954 23.3503 18.2831 24.8213 25.6198 25.7189C32.9995 26.6217 40.7943 26.9621 47 26.9621V24.2121C40.8802 24.2121 33.1998 23.8757 25.9537 22.9892C18.6645 22.0975 11.9757 20.6666 7.73476 18.5528L6.50803 21.014ZM8.4964 39.225V19.7834H5.7464V39.225H8.4964ZM47 44.6182C34.7597 44.6182 25.1324 43.5248 18.4721 42.1508C15.1374 41.4629 12.5776 40.7109 10.8175 40.0056C9.93446 39.6518 9.28967 39.3242 8.85938 39.0439C8.37503 38.7284 8.34641 38.5904 8.39003 38.6948L5.85276 39.7553C6.14392 40.4519 6.77734 40.9696 7.35828 41.3481C7.99328 41.7618 8.81703 42.1666 9.79453 42.5583C11.7554 43.3441 14.4846 44.1361 17.9165 44.8441C24.7895 46.262 34.6064 47.3682 47 47.3682V44.6182ZM88.033 13.1831C87.6895 12.5569 87.0757 12.0618 86.45 11.6669C85.7877 11.2489 84.9434 10.8401 83.9461 10.4449C81.9478 9.65302 79.208 8.86607 75.7862 8.16759C68.9347 6.769 59.2296 5.70114 47 5.70114V8.45114C59.08 8.45114 68.5971 9.5068 75.2362 10.862C78.5597 11.5404 81.1324 12.288 82.933 13.0015C83.8351 13.359 84.5119 13.6956 84.9823 13.9925C85.2164 14.1402 85.3813 14.2668 85.4913 14.3674C85.6054 14.4718 85.63 14.5206 85.6218 14.5056L88.033 13.1831ZM47 21.9875C59.2308 21.9875 68.9362 20.9068 75.7875 19.5018C79.2093 18.8001 81.9478 18.0117 83.9447 17.2229C84.9413 16.8292 85.7841 16.4234 86.4449 16.0104C87.0677 15.6212 87.6817 15.1331 88.0272 14.5159L85.6276 13.1727C85.6373 13.1553 85.6136 13.2025 85.4986 13.3062C85.388 13.4059 85.2224 13.5316 84.9874 13.6784C84.5155 13.9733 83.8372 14.3086 82.9344 14.6652C81.1323 15.3771 78.5585 16.1263 75.235 16.8079C68.5957 18.1694 59.0788 19.2375 47 19.2375V21.9875ZM5.97632 14.4714C6.32323 15.0837 6.93526 15.5706 7.55907 15.9612C8.2202 16.3752 9.06302 16.7829 10.0599 17.179C12.0573 17.9727 14.7953 18.7677 18.2164 19.4759C25.0663 20.8939 34.7682 21.9875 47 21.9875V19.2375C34.9222 19.2375 25.4104 18.1568 18.7739 16.783C15.4519 16.0953 12.8785 15.3399 11.0754 14.6234C10.1721 14.2645 9.49234 13.9271 9.01849 13.6304C8.78249 13.4827 8.61533 13.356 8.50315 13.2551C8.38646 13.1501 8.36054 13.1009 8.3689 13.1157L5.97632 14.4714ZM47 5.70114C34.7702 5.70114 25.0699 6.76903 18.2213 8.16101C14.8009 8.85622 12.063 9.63804 10.0655 10.4218C9.06853 10.8129 8.22509 11.2165 7.56318 11.6277C6.93871 12.0157 6.32443 12.5014 5.97632 13.1157L8.3689 14.4714C8.35996 14.4872 8.38499 14.4391 8.50089 14.3352C8.61233 14.2354 8.7788 14.11 9.01438 13.9636C9.48745 13.6697 10.1666 13.3362 11.0699 12.9818C12.8728 12.2744 15.4463 11.5313 18.769 10.8559C25.4068 9.50677 34.9202 8.45114 47 8.45114V5.70114ZM47 95.4981C34.7249 95.4981 25.0977 94.4088 18.4464 93.037C15.1161 92.3502 12.5635 91.5989 10.8096 90.8933C9.92974 90.5393 9.28801 90.2115 8.86005 89.9309C8.37961 89.6158 8.34945 89.4768 8.39137 89.5778L5.85142 90.632C6.14088 91.3294 6.77063 91.8493 7.35201 92.2305C7.98588 92.6462 8.80788 93.0522 9.7832 93.4446C11.7396 94.2317 14.4631 95.0234 17.8909 95.7303C24.7559 97.1462 34.5729 98.2481 47 98.2481V95.4981ZM85.6211 89.498C85.6498 89.4332 85.5886 89.59 85.1056 89.908C84.6681 90.1961 84.019 90.5294 83.1349 90.8873C81.3717 91.601 78.8166 92.3557 75.489 93.0435C68.8428 94.4172 59.2415 95.4981 47 95.4981V98.2481C59.3924 98.2481 69.1841 97.1547 76.0456 95.7366C79.4718 95.0284 82.1993 94.2327 84.1667 93.4363C85.1479 93.0392 85.9762 92.6274 86.6179 92.2048C87.2142 91.8122 87.8343 91.2927 88.1361 90.6103L85.6211 89.498ZM85.5036 70.6464V90.0541H88.2536V70.6464H85.5036ZM47 77.842C53.2057 77.842 61.0006 77.5016 68.3806 76.5966C75.7174 75.6969 82.8059 74.2215 87.4938 71.876L86.2634 69.4167C82.023 71.5382 75.335 72.9732 68.0459 73.867C60.8 74.7556 53.1198 75.092 47 75.092V77.842ZM6.50616 71.876C11.1941 74.2215 18.2826 75.6969 25.6194 76.5966C32.9994 77.5016 40.7943 77.842 47 77.842V75.092C40.8802 75.092 33.2 74.7556 25.9541 73.867C18.665 72.9732 11.977 71.5382 7.73663 69.4167L6.50616 71.876ZM8.4964 90.1049V70.6464H5.7464V90.1049H8.4964Z" fill="#007AFF" fill-opacity="0.04"/>
<path d="M35.5804 32.8968L30.2883 32.5076C29.3735 32.429 28.4858 32.8401 27.9597 33.5861C27.4336 34.3321 27.349 35.2996 27.7378 36.1242C28.1266 36.9488 28.9296 37.5051 29.8445 37.5837C31.5516 37.7529 33.3782 37.8883 35.239 38.0067H35.4097C36.7599 38.0097 37.8804 36.9731 37.9704 35.6379C38.0221 34.9598 37.7989 34.2893 37.3503 33.7749C36.9018 33.2604 36.2648 32.9444 35.5804 32.8968Z" fill="#007AFF"/>
<path d="M35.5804 32.8968L30.2883 32.5076C29.3735 32.429 28.4858 32.8401 27.9597 33.5861C27.4336 34.3321 27.349 35.2996 27.7378 36.1242C28.1266 36.9488 28.9296 37.5051 29.8445 37.5837C31.5516 37.7529 33.3782 37.8883 35.239 38.0067H35.4097C36.7599 38.0097 37.8804 36.9731 37.9704 35.6379C38.0221 34.9598 37.7989 34.2893 37.3503 33.7749C36.9018 33.2604 36.2648 32.9444 35.5804 32.8968Z" stroke="white" stroke-width="2.75"/>
<path d="M35.5804 32.8968L30.2883 32.5076C29.3735 32.429 28.4858 32.8401 27.9597 33.5861C27.4336 34.3321 27.349 35.2996 27.7378 36.1242C28.1266 36.9488 28.9296 37.5051 29.8445 37.5837C31.5516 37.7529 33.3782 37.8883 35.239 38.0067H35.4097C36.7599 38.0097 37.8804 36.9731 37.9704 35.6379C38.0221 34.9598 37.7989 34.2893 37.3503 33.7749C36.9018 33.2604 36.2648 32.9444 35.5804 32.8968Z" stroke="#007AFF" stroke-opacity="0.04" stroke-width="2.75"/>
<path d="M21.207 31.3068C18.6362 30.8997 16.0934 30.3346 13.5932 29.6148C12.2356 29.213 10.8063 29.9781 10.4009 31.3238C9.99549 32.6694 10.7674 34.0861 12.1251 34.4879C14.8295 35.2603 17.5769 35.8761 20.3535 36.3322H20.7803C22.1945 36.449 23.4365 35.4074 23.5544 34.0057C23.6722 32.6039 22.6213 31.3729 21.207 31.2561V31.3068Z" fill="#007AFF"/>
<path d="M21.207 31.3068C18.6362 30.8997 16.0934 30.3346 13.5932 29.6148C12.2356 29.213 10.8063 29.9781 10.4009 31.3238C9.99549 32.6694 10.7674 34.0861 12.1251 34.4879C14.8295 35.2603 17.5769 35.8761 20.3535 36.3322H20.7803C22.1945 36.449 23.4365 35.4074 23.5544 34.0057C23.6722 32.6039 22.6213 31.3729 21.207 31.2561V31.3068Z" stroke="white" stroke-width="2.75"/>
<path d="M21.207 31.3068C18.6362 30.8997 16.0934 30.3346 13.5932 29.6148C12.2356 29.213 10.8063 29.9781 10.4009 31.3238C9.99549 32.6694 10.7674 34.0861 12.1251 34.4879C14.8295 35.2603 17.5769 35.8761 20.3535 36.3322H20.7803C22.1945 36.449 23.4365 35.4074 23.5544 34.0057C23.6722 32.6039 22.6213 31.3729 21.207 31.2561V31.3068Z" stroke="#007AFF" stroke-opacity="0.04" stroke-width="2.75"/>
<path d="M35.5804 58.4469C33.7538 58.3284 31.9955 58.1931 30.2883 58.0408C29.3735 57.9622 28.4858 58.3733 27.9597 59.1193C27.4336 59.8653 27.349 60.8328 27.7378 61.6574C28.1266 62.482 28.9296 63.0383 29.8445 63.1169C31.5516 63.2692 33.3782 63.4046 35.239 63.523H35.4097C36.824 63.5697 38.0086 62.4713 38.0558 61.0696C38.1029 59.6678 36.9947 58.4936 35.5804 58.4469Z" fill="#007AFF"/>
<path d="M35.5804 58.4469C33.7538 58.3284 31.9955 58.1931 30.2883 58.0408C29.3735 57.9622 28.4858 58.3733 27.9597 59.1193C27.4336 59.8653 27.349 60.8328 27.7378 61.6574C28.1266 62.482 28.9296 63.0383 29.8445 63.1169C31.5516 63.2692 33.3782 63.4046 35.239 63.523H35.4097C36.824 63.5697 38.0086 62.4713 38.0558 61.0696C38.1029 59.6678 36.9947 58.4936 35.5804 58.4469Z" stroke="white" stroke-width="2.75"/>
<path d="M35.5804 58.4469C33.7538 58.3284 31.9955 58.1931 30.2883 58.0408C29.3735 57.9622 28.4858 58.3733 27.9597 59.1193C27.4336 59.8653 27.349 60.8328 27.7378 61.6574C28.1266 62.482 28.9296 63.0383 29.8445 63.1169C31.5516 63.2692 33.3782 63.4046 35.239 63.523H35.4097C36.824 63.5697 38.0086 62.4713 38.0558 61.0696C38.1029 59.6678 36.9947 58.4936 35.5804 58.4469Z" stroke="#007AFF" stroke-opacity="0.04" stroke-width="2.75"/>
<path d="M21.2061 56.8392C18.6307 56.4263 16.0826 55.8613 13.5752 55.1471C12.2176 54.7546 10.796 55.5273 10.4 56.873C10.004 58.2187 10.7836 59.6277 12.1412 60.0202C14.8392 60.7952 17.5811 61.4111 20.3525 61.8645C20.4943 61.8812 20.6376 61.8812 20.7793 61.8645C22.1936 61.9813 23.4356 60.9397 23.5534 59.538C23.6713 58.1362 22.6203 56.9052 21.2061 56.7884V56.8392Z" fill="#007AFF"/>
<path d="M21.2061 56.8392C18.6307 56.4263 16.0826 55.8613 13.5752 55.1471C12.2176 54.7546 10.796 55.5273 10.4 56.873C10.004 58.2187 10.7836 59.6277 12.1412 60.0202C14.8392 60.7952 17.5811 61.4111 20.3525 61.8645C20.4943 61.8812 20.6376 61.8812 20.7793 61.8645C22.1936 61.9813 23.4356 60.9397 23.5534 59.538C23.6713 58.1362 22.6203 56.9052 21.2061 56.7884V56.8392Z" stroke="white" stroke-width="2.75"/>
<path d="M21.2061 56.8392C18.6307 56.4263 16.0826 55.8613 13.5752 55.1471C12.2176 54.7546 10.796 55.5273 10.4 56.873C10.004 58.2187 10.7836 59.6277 12.1412 60.0202C14.8392 60.7952 17.5811 61.4111 20.3525 61.8645C20.4943 61.8812 20.6376 61.8812 20.7793 61.8645C22.1936 61.9813 23.4356 60.9397 23.5534 59.538C23.6713 58.1362 22.6203 56.9052 21.2061 56.7884V56.8392Z" stroke="#007AFF" stroke-opacity="0.04" stroke-width="2.75"/>
<path d="M35.5809 83.9803C33.7543 83.8619 31.996 83.7265 30.2888 83.5742C28.8884 83.4663 27.6586 84.4896 27.5233 85.8754C27.4571 86.5611 27.6769 87.2438 28.1316 87.7647C28.5863 88.2857 29.2362 88.5996 29.9303 88.6334C31.6375 88.7857 33.4641 88.9211 35.3249 89.0395H35.4956C36.9098 89.0862 38.0945 87.9878 38.1416 86.5861C38.1888 85.1843 37.0805 84.0101 35.6663 83.9634L35.5809 83.9803Z" fill="#007AFF"/>
<path d="M35.5809 83.9803C33.7543 83.8619 31.996 83.7265 30.2888 83.5742C28.8884 83.4663 27.6586 84.4896 27.5233 85.8754C27.4571 86.5611 27.6769 87.2438 28.1316 87.7647C28.5863 88.2857 29.2362 88.5996 29.9303 88.6334C31.6375 88.7857 33.4641 88.9211 35.3249 89.0395H35.4956C36.9098 89.0862 38.0945 87.9878 38.1416 86.5861C38.1888 85.1843 37.0805 84.0101 35.6663 83.9634L35.5809 83.9803Z" stroke="white" stroke-width="2.75"/>
<path d="M35.5809 83.9803C33.7543 83.8619 31.996 83.7265 30.2888 83.5742C28.8884 83.4663 27.6586 84.4896 27.5233 85.8754C27.4571 86.5611 27.6769 87.2438 28.1316 87.7647C28.5863 88.2857 29.2362 88.5996 29.9303 88.6334C31.6375 88.7857 33.4641 88.9211 35.3249 89.0395H35.4956C36.9098 89.0862 38.0945 87.9878 38.1416 86.5861C38.1888 85.1843 37.0805 84.0101 35.6663 83.9634L35.5809 83.9803Z" stroke="#007AFF" stroke-opacity="0.04" stroke-width="2.75"/>
<path d="M21.2067 82.3884C18.6345 81.9593 16.0872 81.3945 13.5758 80.6963C12.6754 80.3555 11.6581 80.5448 10.9437 81.186C10.2292 81.8271 9.93845 82.8117 10.1914 83.7335C10.4443 84.6553 11.1981 85.3583 12.1418 85.5525C14.8397 86.3275 17.5816 86.9434 20.3531 87.3968C20.4949 87.4134 20.6381 87.4134 20.7799 87.3968C22.1941 87.5136 23.4361 86.472 23.554 85.0703C23.6718 83.6685 22.6209 82.4375 21.2067 82.3207V82.3884Z" fill="#007AFF"/>
<path d="M21.2067 82.3884C18.6345 81.9593 16.0872 81.3945 13.5758 80.6963C12.6754 80.3555 11.6581 80.5448 10.9437 81.186C10.2292 81.8271 9.93845 82.8117 10.1914 83.7335C10.4443 84.6553 11.1981 85.3583 12.1418 85.5525C14.8397 86.3275 17.5816 86.9434 20.3531 87.3968C20.4949 87.4134 20.6381 87.4134 20.7799 87.3968C22.1941 87.5136 23.4361 86.472 23.554 85.0703C23.6718 83.6685 22.6209 82.4375 21.2067 82.3207V82.3884Z" stroke="white" stroke-width="2.75"/>
<path d="M21.2067 82.3884C18.6345 81.9593 16.0872 81.3945 13.5758 80.6963C12.6754 80.3555 11.6581 80.5448 10.9437 81.186C10.2292 81.8271 9.93845 82.8117 10.1914 83.7335C10.4443 84.6553 11.1981 85.3583 12.1418 85.5525C14.8397 86.3275 17.5816 86.9434 20.3531 87.3968C20.4949 87.4134 20.6381 87.4134 20.7799 87.3968C22.1941 87.5136 23.4361 86.472 23.554 85.0703C23.6718 83.6685 22.6209 82.4375 21.2067 82.3207V82.3884Z" stroke="#007AFF" stroke-opacity="0.04" stroke-width="2.75"/>
</svg>
