<svg width="100" height="100" viewBox="0 0 100 100" fill="none" xmlns="http://www.w3.org/2000/svg">
<g clip-path="url(#clip0_0_1718)">
<path d="M85.3555 14.6447C75.9115 5.20098 63.3555 0 50 0C37.7678 0 25.993 4.4668 16.8449 12.5773C16.2396 13.1141 16.184 14.0398 16.7207 14.6453C17.2574 15.2506 18.183 15.3062 18.7885 14.7695C27.4002 7.13457 38.4846 2.92969 50 2.92969C75.9547 2.92969 97.0703 24.0453 97.0703 50C97.0703 75.9547 75.9547 97.0703 50 97.0703C24.0453 97.0703 2.92969 75.9547 2.92969 50C2.92969 38.4846 7.13457 27.4 14.7695 18.7885C15.3062 18.1832 15.2506 17.2572 14.6453 16.7207C14.0398 16.1838 13.1141 16.2396 12.5775 16.8449C4.4668 25.993 0 37.7676 0 50C0 63.3555 5.20098 75.9115 14.6445 85.3553C24.0885 94.799 36.6445 100 50 100C63.3555 100 75.9115 94.799 85.3555 85.3553C94.799 75.9115 100 63.3555 100 50C100 36.6445 94.799 24.0885 85.3555 14.6447Z" fill="#007AFF"/>
<path d="M37.7612 77.162C37.0412 77.162 36.3752 77.0315 35.7632 76.7705C35.1512 76.5095 34.6157 76.145 34.1567 75.677C33.6977 75.209 33.3377 74.66 33.0767 74.03C32.8247 73.4 32.6987 72.7115 32.6987 71.9645C32.6987 71.2175 32.8202 70.529 33.0632 69.899C33.3152 69.26 33.6662 68.711 34.1162 68.252C34.5752 67.784 35.1107 67.424 35.7227 67.172C36.3347 66.911 37.0007 66.7805 37.7207 66.7805C38.4407 66.7805 39.0842 66.902 39.6512 67.145C40.2272 67.388 40.7132 67.712 41.1092 68.117C41.5052 68.513 41.7887 68.9495 41.9597 69.4265L40.3262 70.2095C40.1372 69.6875 39.8177 69.2645 39.3677 68.9405C38.9177 68.6165 38.3687 68.4545 37.7207 68.4545C37.0907 68.4545 36.5327 68.603 36.0467 68.9C35.5697 69.197 35.1962 69.6065 34.9262 70.1285C34.6652 70.6505 34.5347 71.2625 34.5347 71.9645C34.5347 72.6665 34.6697 73.283 34.9397 73.814C35.2187 74.336 35.6012 74.7455 36.0872 75.0425C36.5732 75.3395 37.1312 75.488 37.7612 75.488C38.2742 75.488 38.7467 75.389 39.1787 75.191C39.6107 74.984 39.9572 74.696 40.2182 74.327C40.4792 73.949 40.6097 73.5035 40.6097 72.9905V72.221L41.4467 72.95H37.7207V71.3975H42.4457V72.41C42.4457 73.184 42.3152 73.868 42.0542 74.462C41.7932 75.056 41.4377 75.5555 40.9877 75.9605C40.5467 76.3565 40.0472 76.658 39.4892 76.865C38.9312 77.063 38.3552 77.162 37.7612 77.162ZM43.6389 77V66.9425H47.8779C48.5439 66.9425 49.1109 67.0595 49.5789 67.2935C50.0559 67.5185 50.4204 67.8425 50.6724 68.2655C50.9334 68.6795 51.0639 69.1835 51.0639 69.7775C51.0639 70.2365 50.9379 70.6685 50.6859 71.0735C50.4429 71.4695 50.0514 71.798 49.5114 72.059V71.2085C50.0064 71.3975 50.3979 71.6315 50.6859 71.9105C50.9739 72.1895 51.1764 72.5 51.2934 72.842C51.4104 73.184 51.4689 73.544 51.4689 73.922C51.4689 74.885 51.1494 75.641 50.5104 76.19C49.8804 76.73 49.0029 77 47.8779 77H43.6389ZM45.4749 75.38H48.0669C48.5439 75.38 48.9219 75.2495 49.2009 74.9885C49.4889 74.7185 49.6329 74.363 49.6329 73.922C49.6329 73.481 49.4889 73.1255 49.2009 72.8555C48.9219 72.5855 48.5439 72.4505 48.0669 72.4505H45.4749V75.38ZM45.4749 70.844H47.9724C48.3504 70.844 48.6519 70.736 48.8769 70.52C49.1019 70.295 49.2144 70.007 49.2144 69.656C49.2144 69.305 49.1019 69.026 48.8769 68.819C48.6519 68.612 48.3504 68.5085 47.9724 68.5085H45.4749V70.844ZM52.7133 77V66.9425H56.4663C57.1503 66.9425 57.7533 67.0685 58.2753 67.3205C58.8063 67.5635 59.2203 67.9235 59.5173 68.4005C59.8143 68.8685 59.9628 69.44 59.9628 70.115C59.9628 70.781 59.8098 71.3525 59.5038 71.8295C59.2068 72.2975 58.7973 72.6575 58.2753 72.9095C57.7533 73.1615 57.1503 73.2875 56.4663 73.2875H54.5493V77H52.7133ZM54.5493 71.6675H56.4933C56.8263 71.6675 57.1143 71.6045 57.3573 71.4785C57.6003 71.3435 57.7893 71.159 57.9243 70.925C58.0593 70.691 58.1268 70.421 58.1268 70.115C58.1268 69.8 58.0593 69.53 57.9243 69.305C57.7893 69.071 57.6003 68.891 57.3573 68.765C57.1143 68.63 56.8263 68.5625 56.4933 68.5625H54.5493V71.6675ZM64.7986 77.162C64.1596 77.162 63.5656 77.045 63.0166 76.811C62.4766 76.577 62.0086 76.253 61.6126 75.839C61.2256 75.416 60.9421 74.9255 60.7621 74.3675L62.2876 73.706C62.5306 74.282 62.8816 74.7365 63.3406 75.0695C63.7996 75.3935 64.3171 75.5555 64.8931 75.5555C65.2171 75.5555 65.4961 75.506 65.7301 75.407C65.9731 75.299 66.1576 75.155 66.2836 74.975C66.4186 74.795 66.4861 74.579 66.4861 74.327C66.4861 74.03 66.3961 73.787 66.2161 73.598C66.0451 73.4 65.7841 73.247 65.4331 73.139L63.5026 72.518C62.7196 72.275 62.1301 71.9105 61.7341 71.4245C61.3381 70.9385 61.1401 70.367 61.1401 69.71C61.1401 69.134 61.2796 68.6255 61.5586 68.1845C61.8466 67.7435 62.2426 67.4015 62.7466 67.1585C63.2596 66.9065 63.8446 66.7805 64.5016 66.7805C65.1046 66.7805 65.6581 66.8885 66.1621 67.1045C66.6661 67.3115 67.0981 67.604 67.4581 67.982C67.8271 68.351 68.1016 68.7875 68.2816 69.2915L66.7696 69.9665C66.5716 69.4625 66.2746 69.0755 65.8786 68.8055C65.4826 68.5265 65.0236 68.387 64.5016 68.387C64.1956 68.387 63.9256 68.441 63.6916 68.549C63.4576 68.648 63.2731 68.792 63.1381 68.981C63.0121 69.161 62.9491 69.377 62.9491 69.629C62.9491 69.908 63.0391 70.1555 63.2191 70.3715C63.3991 70.5785 63.6736 70.7405 64.0426 70.8575L65.8921 71.438C66.6931 71.699 67.2916 72.059 67.6876 72.518C68.0926 72.977 68.2951 73.544 68.2951 74.219C68.2951 74.795 68.1466 75.3035 67.8496 75.7445C67.5526 76.1855 67.1431 76.532 66.6211 76.784C66.0991 77.036 65.4916 77.162 64.7986 77.162Z" fill="#007AFF"/>
<path d="M24.6642 58V33.8125H19.3017V30.0625H29.0517V58H24.6642ZM43.9618 58.45C41.7368 58.45 39.7868 57.85 38.1118 56.65C36.4368 55.425 35.1243 53.7375 34.1743 51.5875C33.2493 49.4125 32.7868 46.8875 32.7868 44.0125C32.7868 41.1125 33.2493 38.5875 34.1743 36.4375C35.1243 34.2875 36.4243 32.6125 38.0743 31.4125C39.7493 30.2125 41.6993 29.6125 43.9243 29.6125C46.1493 29.6125 48.0868 30.2125 49.7368 31.4125C51.4118 32.6125 52.7118 34.3 53.6368 36.475C54.5868 38.625 55.0618 41.1375 55.0618 44.0125C55.0618 46.8875 54.5993 49.4125 53.6743 51.5875C52.7493 53.7375 51.4493 55.425 49.7743 56.65C48.1243 57.85 46.1868 58.45 43.9618 58.45ZM43.9618 54.4C45.3368 54.4 46.5243 53.975 47.5243 53.125C48.5243 52.275 49.2993 51.075 49.8493 49.525C50.3993 47.975 50.6743 46.1375 50.6743 44.0125C50.6743 41.8875 50.3993 40.05 49.8493 38.5C49.2993 36.95 48.5243 35.75 47.5243 34.9C46.5243 34.05 45.3243 33.625 43.9243 33.625C42.5493 33.625 41.3618 34.05 40.3618 34.9C39.3618 35.75 38.5868 36.95 38.0368 38.5C37.4868 40.05 37.2118 41.8875 37.2118 44.0125C37.2118 46.1125 37.4868 47.95 38.0368 49.525C38.5868 51.075 39.3618 52.275 40.3618 53.125C41.3868 53.975 42.5868 54.4 43.9618 54.4ZM68.555 58.45C66.33 58.45 64.38 57.85 62.705 56.65C61.03 55.425 59.7175 53.7375 58.7675 51.5875C57.8425 49.4125 57.38 46.8875 57.38 44.0125C57.38 41.1125 57.8425 38.5875 58.7675 36.4375C59.7175 34.2875 61.0175 32.6125 62.6675 31.4125C64.3425 30.2125 66.2925 29.6125 68.5175 29.6125C70.7425 29.6125 72.68 30.2125 74.33 31.4125C76.005 32.6125 77.305 34.3 78.23 36.475C79.18 38.625 79.655 41.1375 79.655 44.0125C79.655 46.8875 79.1925 49.4125 78.2675 51.5875C77.3425 53.7375 76.0425 55.425 74.3675 56.65C72.7175 57.85 70.78 58.45 68.555 58.45ZM68.555 54.4C69.93 54.4 71.1175 53.975 72.1175 53.125C73.1175 52.275 73.8925 51.075 74.4425 49.525C74.9925 47.975 75.2675 46.1375 75.2675 44.0125C75.2675 41.8875 74.9925 40.05 74.4425 38.5C73.8925 36.95 73.1175 35.75 72.1175 34.9C71.1175 34.05 69.9175 33.625 68.5175 33.625C67.1425 33.625 65.955 34.05 64.955 34.9C63.955 35.75 63.18 36.95 62.63 38.5C62.08 40.05 61.805 41.8875 61.805 44.0125C61.805 46.1125 62.08 47.95 62.63 49.525C63.18 51.075 63.955 52.275 64.955 53.125C65.98 53.975 67.18 54.4 68.555 54.4Z" fill="#007AFF"/>
</g>
<defs>
<clipPath id="clip0_0_1718">
<rect width="100" height="100" fill="white"/>
</clipPath>
</defs>
</svg>
