<svg width="116" height="101" viewBox="0 0 116 101" fill="none" xmlns="http://www.w3.org/2000/svg">
<path d="M73.1398 64.1383C72.4844 63.4813 71.4222 63.4813 70.767 64.1383L62.1124 72.819L53.458 64.1383C52.8025 63.4813 51.7404 63.4813 51.0852 64.1383C50.4299 64.7957 50.4299 65.8611 51.0852 66.5183L59.7396 75.1991L51.0852 83.8799C50.4299 84.5373 50.4299 85.6027 51.0852 86.2599C51.7408 86.9171 52.8028 86.9169 53.458 86.2599L62.1124 77.5791L70.7668 86.2599C71.4224 86.9171 72.4844 86.9169 73.1396 86.2599C73.7948 85.6025 73.7948 84.5371 73.1396 83.8799L64.4852 75.1991L73.1396 66.5183C73.7948 65.8611 73.7948 64.7957 73.1398 64.1383Z" fill="#007AFF"/>
<path d="M73.1398 64.1383C72.4844 63.4813 71.4222 63.4813 70.767 64.1383L62.1124 72.819L53.458 64.1383C52.8025 63.4813 51.7404 63.4813 51.0852 64.1383C50.4299 64.7957 50.4299 65.8611 51.0852 66.5183L59.7396 75.1991L51.0852 83.8799C50.4299 84.5373 50.4299 85.6027 51.0852 86.2599C51.7408 86.9171 52.8028 86.9169 53.458 86.2599L62.1124 77.5791L70.7668 86.2599C71.4224 86.9171 72.4844 86.9169 73.1396 86.2599C73.7948 85.6025 73.7948 84.5371 73.1396 83.8799L64.4852 75.1991L73.1396 66.5183C73.7948 65.8611 73.7948 64.7957 73.1398 64.1383Z" stroke="white" stroke-width="0.5"/>
<path d="M73.1398 64.1383C72.4844 63.4813 71.4222 63.4813 70.767 64.1383L62.1124 72.819L53.458 64.1383C52.8025 63.4813 51.7404 63.4813 51.0852 64.1383C50.4299 64.7957 50.4299 65.8611 51.0852 66.5183L59.7396 75.1991L51.0852 83.8799C50.4299 84.5373 50.4299 85.6027 51.0852 86.2599C51.7408 86.9171 52.8028 86.9169 53.458 86.2599L62.1124 77.5791L70.7668 86.2599C71.4224 86.9171 72.4844 86.9169 73.1396 86.2599C73.7948 85.6025 73.7948 84.5371 73.1396 83.8799L64.4852 75.1991L73.1396 66.5183C73.7948 65.8611 73.7948 64.7957 73.1398 64.1383Z" stroke="#007AFF" stroke-opacity="0.04" stroke-width="0.5"/>
<path fill-rule="evenodd" clip-rule="evenodd" d="M109.276 14.0694H104.949L104.504 10.1011C104.218 7.55728 102.078 5.63879 99.5256 5.63879H97.2281C96.3013 5.63879 95.5504 6.39205 95.5504 7.32168C95.5504 8.2513 96.3013 9.00456 97.2281 9.00456H99.5256C100.368 9.00456 101.075 9.638 101.169 10.4779L101.573 14.0692H55.5499C55.4595 14.0692 55.3787 14.0151 55.3429 13.9336L53.1766 9.00434H89.3988C90.3256 9.00434 91.0766 8.25108 91.0766 7.32145C91.0766 6.39182 90.3256 5.63857 89.3988 5.63857H51.6973L50.7595 3.50467C49.8477 1.43023 47.7983 0.085715 45.5381 0.0794322L16.6862 0H16.6701C13.5698 0 11.0585 2.43098 10.9507 5.54073L10.9473 5.63901H6.01023C3.02245 5.63901 0.69818 8.25018 1.03194 11.2264C1.04559 11.3483 8.48952 77.6499 8.50988 77.7706C8.84767 80.4354 11.1185 82.564 13.9501 82.564H37.6375C41.1228 92.699 50.7268 100 62.0003 100H62.0015C67.0498 100 71.9395 98.535 76.1401 95.7632C76.9144 95.2527 77.1291 94.2089 76.62 93.4325C76.1111 92.6557 75.0702 92.4398 74.2964 92.9512C70.6442 95.3604 66.393 96.634 62.0015 96.634H62.0003C49.613 96.634 39.5929 86.5147 39.5929 74.1583C39.5929 61.7653 49.645 51.6825 62.0003 51.6825C74.3557 51.6825 84.4075 61.7655 84.4075 74.1587C84.4075 79.1414 82.808 83.9731 79.635 88.0266C79.0626 88.7577 79.1897 89.8156 79.9185 90.3894C80.6473 90.9636 81.7021 90.8361 82.2741 90.1051C84.0782 87.8004 85.4545 85.2613 86.3779 82.5642H107.751C110.593 82.5642 112.896 80.3329 112.996 77.4841L114.996 20.0106C115.11 16.7597 112.519 14.0694 109.276 14.0694ZM6.01023 9.00456H10.8299L9.25168 54.348L4.36646 10.8497C4.25595 9.86777 5.0181 9.00456 6.01023 9.00456ZM107.751 79.1982C108.776 79.1982 109.607 78.3935 109.642 77.3663L111.643 19.8931C111.689 18.5485 110.618 17.4349 109.276 17.4349H55.5496C54.1327 17.4349 52.8451 16.5948 52.2722 15.2914C47.8198 5.15947 47.7853 5.08107 47.717 4.92565L47.6892 4.86242C47.312 4.00415 46.464 3.44812 45.5289 3.44543L16.677 3.36555H16.6703C15.3876 3.36555 14.3487 4.37124 14.304 5.65786C11.8256 76.8594 11.8076 77.0483 11.8301 77.2322C11.8317 77.2449 11.8334 77.2576 11.8345 77.2936C11.9491 78.3682 12.8508 79.1982 13.9501 79.1982H36.7286C36.4193 77.6315 36.2376 75.8937 36.2376 74.1585C36.2376 59.9094 47.7948 48.317 62.0006 48.317C76.2061 48.317 87.7633 59.9094 87.7633 74.1585C87.7633 75.8865 87.5807 77.6322 87.2743 79.1982H107.751Z" fill="#007AFF"/>
<path d="M104.949 14.0694L104.701 14.0973L104.726 14.3194H104.949V14.0694ZM104.504 10.1011L104.752 10.0732L104.504 10.1011ZM101.169 10.4779L101.418 10.45V10.4499L101.169 10.4779ZM101.573 14.0692V14.3192H101.852L101.821 14.0412L101.573 14.0692ZM55.3429 13.9336L55.5718 13.833V13.833L55.3429 13.9336ZM53.1766 9.00434V8.75434H52.7937L52.9477 9.10492L53.1766 9.00434ZM51.6973 5.63857L51.4684 5.73915L51.534 5.88857H51.6973V5.63857ZM50.7595 3.50467L50.9884 3.40408L50.9884 3.40407L50.7595 3.50467ZM45.5381 0.0794322L45.5387 -0.170567L45.5387 -0.170567L45.5381 0.0794322ZM16.6862 0L16.6869 -0.25H16.6862V0ZM10.9507 5.54073L10.7009 5.53207L10.7008 5.5322L10.9507 5.54073ZM10.9473 5.63901V5.88901H11.189L11.1972 5.64755L10.9473 5.63901ZM1.03194 11.2264L1.28039 11.1986L1.28039 11.1986L1.03194 11.2264ZM8.50988 77.7706L8.7581 77.7392L8.7564 77.7291L8.50988 77.7706ZM37.6375 82.564L37.874 82.4827L37.8159 82.314H37.6375V82.564ZM76.1401 95.7632L76.0025 95.5545L76.0025 95.5545L76.1401 95.7632ZM76.62 93.4325L76.4109 93.5695L76.4109 93.5696L76.62 93.4325ZM74.2964 92.9512L74.4341 93.1599L74.4342 93.1598L74.2964 92.9512ZM79.635 88.0266L79.8319 88.1807L79.8319 88.1807L79.635 88.0266ZM79.9185 90.3894L80.0732 90.193L80.0731 90.1929L79.9185 90.3894ZM82.2741 90.1051L82.0772 89.951L82.0772 89.951L82.2741 90.1051ZM86.3779 82.5642V82.3142H86.1992L86.1414 82.4832L86.3779 82.5642ZM112.996 77.4841L113.245 77.4928V77.4928L112.996 77.4841ZM114.996 20.0106L114.747 20.0019V20.0019L114.996 20.0106ZM10.8299 9.00456L11.0797 9.01326L11.0888 8.75456H10.8299V9.00456ZM9.25168 54.348L9.00324 54.3759L9.50153 54.3567L9.25168 54.348ZM4.36646 10.8497L4.6149 10.8218L4.61489 10.8217L4.36646 10.8497ZM109.642 77.3663L109.892 77.375V77.375L109.642 77.3663ZM111.643 19.8931L111.893 19.9018V19.9017L111.643 19.8931ZM52.2722 15.2914L52.0433 15.392L52.0433 15.392L52.2722 15.2914ZM47.717 4.92565L47.4881 5.02624L47.4881 5.02625L47.717 4.92565ZM47.6892 4.86242L47.4603 4.963L47.4603 4.96301L47.6892 4.86242ZM45.5289 3.44543L45.5296 3.19543H45.5296L45.5289 3.44543ZM16.677 3.36555L16.6777 3.11555H16.677V3.36555ZM14.304 5.65786L14.5539 5.66656L14.5539 5.66655L14.304 5.65786ZM11.8301 77.2322L12.0783 77.2019V77.2019L11.8301 77.2322ZM11.8345 77.2936L11.5847 77.3015L11.585 77.3108L11.586 77.3201L11.8345 77.2936ZM36.7286 79.1982V79.4482H37.0328L36.9739 79.1497L36.7286 79.1982ZM87.2743 79.1982L87.0289 79.1502L86.9706 79.4482H87.2743V79.1982ZM104.949 14.3194H109.276V13.8194H104.949V14.3194ZM104.255 10.129L104.701 14.0973L105.198 14.0415L104.752 10.0732L104.255 10.129ZM99.5256 5.88879C101.95 5.88879 103.984 7.71108 104.255 10.129L104.752 10.0732C104.452 7.40348 102.206 5.38879 99.5256 5.38879V5.88879ZM97.2281 5.88879H99.5256V5.38879H97.2281V5.88879ZM95.8004 7.32168C95.8004 6.5294 96.4401 5.88879 97.2281 5.88879V5.38879C96.1626 5.38879 95.3004 6.2547 95.3004 7.32168H95.8004ZM97.2281 8.75456C96.4401 8.75456 95.8004 8.11395 95.8004 7.32168H95.3004C95.3004 8.38865 96.1626 9.25456 97.2281 9.25456V8.75456ZM99.5256 8.75456H97.2281V9.25456H99.5256V8.75456ZM101.418 10.4499C101.309 9.48423 100.496 8.75456 99.5256 8.75456V9.25456C100.241 9.25456 100.841 9.79177 100.921 10.5058L101.418 10.4499ZM101.821 14.0412L101.418 10.45L100.921 10.5058L101.324 14.0971L101.821 14.0412ZM55.5499 14.3192H101.573V13.8192H55.5499V14.3192ZM55.1141 14.0342C55.1891 14.2049 55.3586 14.3192 55.5499 14.3192V13.8192C55.5604 13.8192 55.5684 13.8253 55.5718 13.833L55.1141 14.0342ZM52.9477 9.10492L55.1141 14.0342L55.5718 13.833L53.4055 8.90375L52.9477 9.10492ZM89.3988 8.75434H53.1766V9.25434H89.3988V8.75434ZM90.8266 7.32145C90.8266 8.11372 90.1868 8.75434 89.3988 8.75434V9.25434C90.4644 9.25434 91.3266 8.38843 91.3266 7.32145H90.8266ZM89.3988 5.88857C90.1868 5.88857 90.8266 6.52918 90.8266 7.32145H91.3266C91.3266 6.25447 90.4644 5.38857 89.3988 5.38857V5.88857ZM51.6973 5.88857H89.3988V5.38857H51.6973V5.88857ZM50.5306 3.60525L51.4684 5.73915L51.9261 5.53798L50.9884 3.40408L50.5306 3.60525ZM45.5374 0.329431C47.6984 0.335438 49.6585 1.62107 50.5306 3.60526L50.9884 3.40407C50.0369 1.23939 47.8983 -0.164008 45.5387 -0.170567L45.5374 0.329431ZM16.6855 0.249999L45.5374 0.329431L45.5387 -0.170567L16.6869 -0.249999L16.6855 0.249999ZM16.6701 0.25H16.6862V-0.25H16.6701V0.25ZM11.2006 5.5494C11.3037 2.57364 13.7051 0.25 16.6701 0.25V-0.25C13.4345 -0.25 10.8133 2.28833 10.7009 5.53207L11.2006 5.5494ZM11.1972 5.64755L11.2006 5.54927L10.7008 5.5322L10.6975 5.63048L11.1972 5.64755ZM6.01023 5.88901H10.9473V5.38901H6.01023V5.88901ZM1.28039 11.1986C0.963134 8.36955 3.17251 5.88901 6.01023 5.88901V5.38901C2.8724 5.38901 0.433227 8.13081 0.783502 11.2543L1.28039 11.1986ZM8.7564 77.7291C8.75664 77.7305 8.72772 77.4775 8.67111 76.9767C8.61548 76.4845 8.53447 75.766 8.43171 74.8537C8.22619 73.029 7.93369 70.4287 7.58322 67.3114C6.88228 61.0767 5.94945 52.7739 5.01683 44.471C3.1516 27.8653 1.28721 11.2595 1.28039 11.1986L0.783498 11.2542C0.796137 11.3671 8.24146 77.6824 8.26336 77.8122L8.7564 77.7291ZM13.9501 82.314C11.2484 82.314 9.08037 80.2831 8.7579 77.7392L8.26186 77.8021C8.61498 80.5877 10.9885 82.814 13.9501 82.814V82.314ZM37.6375 82.314H13.9501V82.814H37.6375V82.314ZM62.0003 99.75C50.8375 99.75 41.3258 92.5205 37.874 82.4827L37.4011 82.6453C40.9198 92.8774 50.6162 100.25 62.0003 100.25V99.75ZM62.0015 99.75H62.0003V100.25H62.0015V99.75ZM76.0025 95.5545C71.8428 98.2993 67.001 99.75 62.0015 99.75V100.25C67.0985 100.25 72.0361 98.7707 76.2778 95.9718L76.0025 95.5545ZM76.4109 93.5696C76.8447 94.231 76.6614 95.12 76.0025 95.5545L76.2778 95.9719C77.1674 95.3854 77.4136 94.1867 76.829 93.2954L76.4109 93.5696ZM74.4342 93.1598C75.0921 92.7249 75.9776 92.9081 76.4109 93.5695L76.8291 93.2955C76.2445 92.4032 75.0482 92.1547 74.1585 92.7426L74.4342 93.1598ZM62.0015 96.884C66.4417 96.884 70.7409 95.5961 74.4341 93.1599L74.1587 92.7425C70.5476 95.1247 66.3442 96.384 62.0015 96.384V96.884ZM62.0003 96.884H62.0015V96.384H62.0003V96.884ZM39.3429 74.1583C39.3429 86.6516 49.4737 96.884 62.0003 96.884V96.384C49.7523 96.384 39.8429 86.3778 39.8429 74.1583H39.3429ZM62.0003 51.4325C49.5062 51.4325 39.3429 61.6279 39.3429 74.1583H39.8429C39.8429 61.9026 49.7838 51.9325 62.0003 51.9325V51.4325ZM84.6575 74.1587C84.6575 61.6282 74.4945 51.4325 62.0003 51.4325V51.9325C74.2169 51.9325 84.1575 61.9028 84.1575 74.1587H84.6575ZM79.8319 88.1807C83.0401 84.0822 84.6575 79.196 84.6575 74.1587H84.1575C84.1575 79.0868 82.576 83.864 79.4382 87.8725L79.8319 88.1807ZM80.0731 90.1929C79.4527 89.7045 79.3443 88.8034 79.8319 88.1807L79.4382 87.8725C78.7809 88.7119 78.9266 89.9267 79.7638 90.5858L80.0731 90.1929ZM82.0772 89.951C81.5903 90.5732 80.6932 90.6814 80.0732 90.193L79.7638 90.5857C80.6014 91.2457 81.8138 91.099 82.471 90.2591L82.0772 89.951ZM86.1414 82.4832C85.2271 85.1536 83.8644 87.6681 82.0772 89.951L82.4709 90.2592C84.2921 87.9328 85.6818 85.369 86.6144 82.6452L86.1414 82.4832ZM107.751 82.3142H86.3779V82.8142H107.751V82.3142ZM112.746 77.4754C112.651 80.1903 110.457 82.3142 107.751 82.3142V82.8142C110.728 82.8142 113.141 80.4755 113.245 77.4928L112.746 77.4754ZM114.747 20.0019L112.746 77.4754L113.245 77.4928L115.246 20.0193L114.747 20.0019ZM109.276 14.3194C112.376 14.3194 114.855 16.8917 114.747 20.0019L115.246 20.0194C115.365 16.6278 112.661 13.8194 109.276 13.8194V14.3194ZM10.8299 8.75456H6.01023V9.25456H10.8299V8.75456ZM9.50153 54.3567L11.0797 9.01326L10.5801 8.99586L9.00183 54.3393L9.50153 54.3567ZM4.11802 10.8776L9.00324 54.3759L9.50012 54.3201L4.6149 10.8218L4.11802 10.8776ZM6.01023 8.75456C4.86745 8.75456 3.99101 9.74903 4.11803 10.8776L4.61489 10.8217C4.52089 9.98651 5.16876 9.25456 6.01023 9.25456V8.75456ZM109.392 77.3576C109.361 78.2509 108.641 78.9482 107.751 78.9482V79.4482C108.911 79.4482 109.852 78.5361 109.892 77.375L109.392 77.3576ZM111.393 19.8844L109.392 77.3576L109.892 77.375L111.893 19.9018L111.393 19.8844ZM109.276 17.6849C110.476 17.6849 111.435 18.6804 111.393 19.8844L111.893 19.9017C111.944 18.4167 110.761 17.1849 109.276 17.1849V17.6849ZM55.5496 17.6849H109.276V17.1849H55.5496V17.6849ZM52.0433 15.392C52.656 16.786 54.0333 17.6849 55.5496 17.6849V17.1849C54.2321 17.1849 53.0341 16.4036 52.501 15.1908L52.0433 15.392ZM47.4881 5.02625C47.5564 5.18166 47.5909 5.26004 52.0433 15.392L52.501 15.1908C48.0486 5.05891 48.0142 4.98049 47.9458 4.82504L47.4881 5.02625ZM47.4603 4.96301L47.4881 5.02624L47.9458 4.82505L47.918 4.76183L47.4603 4.96301ZM45.5282 3.69543C46.3641 3.69783 47.1228 4.19504 47.4603 4.963L47.9181 4.76184C47.5012 3.81325 46.5639 3.19841 45.5296 3.19543L45.5282 3.69543ZM16.6764 3.61555L45.5282 3.69543L45.5296 3.19543L16.6777 3.11555L16.6764 3.61555ZM16.6703 3.61555H16.677V3.11555H16.6703V3.61555ZM14.5539 5.66655C14.5939 4.51389 15.523 3.61555 16.6703 3.61555V3.11555C15.2523 3.11555 14.1036 4.22859 14.0542 5.64917L14.5539 5.66655ZM12.0783 77.2019C12.0779 77.1991 12.075 77.1932 12.0783 77.0292C12.0814 76.8692 12.0899 76.5701 12.1085 75.9919C12.1458 74.8362 12.2233 72.5706 12.3791 68.0853C12.6906 59.1149 13.3146 41.2674 14.5539 5.66656L14.0542 5.64917C12.815 41.2499 12.1909 59.0975 11.8794 68.0679C11.7236 72.553 11.646 74.8193 11.6088 75.9758C11.5902 76.5536 11.5816 76.8557 11.5784 77.0194C11.5752 77.179 11.5767 77.2193 11.582 77.2625L12.0783 77.2019ZM12.0844 77.2857C12.083 77.2401 12.0804 77.2197 12.0783 77.2019L11.582 77.2625C11.5829 77.2699 11.583 77.2713 11.5834 77.2749C11.5837 77.2788 11.5842 77.2865 11.5847 77.3015L12.0844 77.2857ZM13.9501 78.9482C12.9804 78.9482 12.1843 78.2164 12.0831 77.2671L11.586 77.3201C11.7139 78.52 12.7212 79.4482 13.9501 79.4482V78.9482ZM36.7286 78.9482H13.9501V79.4482H36.7286V78.9482ZM35.9876 74.1585C35.9876 75.9104 36.1709 77.6645 36.4834 79.2466L36.9739 79.1497C36.6676 77.5986 36.4876 75.8769 36.4876 74.1585H35.9876ZM62.0006 48.067C47.656 48.067 35.9876 59.772 35.9876 74.1585H36.4876C36.4876 60.0467 47.9336 48.567 62.0006 48.567V48.067ZM88.0133 74.1585C88.0133 59.772 76.3449 48.067 62.0006 48.067V48.567C76.0673 48.567 87.5133 60.0467 87.5133 74.1585H88.0133ZM87.5196 79.2462C87.8291 77.6651 88.0133 75.9033 88.0133 74.1585H87.5133C87.5133 75.8697 87.3324 77.5993 87.0289 79.1502L87.5196 79.2462ZM107.751 78.9482H87.2743V79.4482H107.751V78.9482Z" fill="white"/>
<path d="M104.949 14.0694L104.701 14.0973L104.726 14.3194H104.949V14.0694ZM104.504 10.1011L104.752 10.0732L104.504 10.1011ZM101.169 10.4779L101.418 10.45V10.4499L101.169 10.4779ZM101.573 14.0692V14.3192H101.852L101.821 14.0412L101.573 14.0692ZM55.3429 13.9336L55.5718 13.833V13.833L55.3429 13.9336ZM53.1766 9.00434V8.75434H52.7937L52.9477 9.10492L53.1766 9.00434ZM51.6973 5.63857L51.4684 5.73915L51.534 5.88857H51.6973V5.63857ZM50.7595 3.50467L50.9884 3.40408L50.9884 3.40407L50.7595 3.50467ZM45.5381 0.0794322L45.5387 -0.170567L45.5387 -0.170567L45.5381 0.0794322ZM16.6862 0L16.6869 -0.25H16.6862V0ZM10.9507 5.54073L10.7009 5.53207L10.7008 5.5322L10.9507 5.54073ZM10.9473 5.63901V5.88901H11.189L11.1972 5.64755L10.9473 5.63901ZM1.03194 11.2264L1.28039 11.1986L1.28039 11.1986L1.03194 11.2264ZM8.50988 77.7706L8.7581 77.7392L8.7564 77.7291L8.50988 77.7706ZM37.6375 82.564L37.874 82.4827L37.8159 82.314H37.6375V82.564ZM76.1401 95.7632L76.0025 95.5545L76.0025 95.5545L76.1401 95.7632ZM76.62 93.4325L76.4109 93.5695L76.4109 93.5696L76.62 93.4325ZM74.2964 92.9512L74.4341 93.1599L74.4342 93.1598L74.2964 92.9512ZM79.635 88.0266L79.8319 88.1807L79.8319 88.1807L79.635 88.0266ZM79.9185 90.3894L80.0732 90.193L80.0731 90.1929L79.9185 90.3894ZM82.2741 90.1051L82.0772 89.951L82.0772 89.951L82.2741 90.1051ZM86.3779 82.5642V82.3142H86.1992L86.1414 82.4832L86.3779 82.5642ZM112.996 77.4841L113.245 77.4928V77.4928L112.996 77.4841ZM114.996 20.0106L114.747 20.0019V20.0019L114.996 20.0106ZM10.8299 9.00456L11.0797 9.01326L11.0888 8.75456H10.8299V9.00456ZM9.25168 54.348L9.00324 54.3759L9.50153 54.3567L9.25168 54.348ZM4.36646 10.8497L4.6149 10.8218L4.61489 10.8217L4.36646 10.8497ZM109.642 77.3663L109.892 77.375V77.375L109.642 77.3663ZM111.643 19.8931L111.893 19.9018V19.9017L111.643 19.8931ZM52.2722 15.2914L52.0433 15.392L52.0433 15.392L52.2722 15.2914ZM47.717 4.92565L47.4881 5.02624L47.4881 5.02625L47.717 4.92565ZM47.6892 4.86242L47.4603 4.963L47.4603 4.96301L47.6892 4.86242ZM45.5289 3.44543L45.5296 3.19543H45.5296L45.5289 3.44543ZM16.677 3.36555L16.6777 3.11555H16.677V3.36555ZM14.304 5.65786L14.5539 5.66656L14.5539 5.66655L14.304 5.65786ZM11.8301 77.2322L12.0783 77.2019V77.2019L11.8301 77.2322ZM11.8345 77.2936L11.5847 77.3015L11.585 77.3108L11.586 77.3201L11.8345 77.2936ZM36.7286 79.1982V79.4482H37.0328L36.9739 79.1497L36.7286 79.1982ZM87.2743 79.1982L87.0289 79.1502L86.9706 79.4482H87.2743V79.1982ZM104.949 14.3194H109.276V13.8194H104.949V14.3194ZM104.255 10.129L104.701 14.0973L105.198 14.0415L104.752 10.0732L104.255 10.129ZM99.5256 5.88879C101.95 5.88879 103.984 7.71108 104.255 10.129L104.752 10.0732C104.452 7.40348 102.206 5.38879 99.5256 5.38879V5.88879ZM97.2281 5.88879H99.5256V5.38879H97.2281V5.88879ZM95.8004 7.32168C95.8004 6.5294 96.4401 5.88879 97.2281 5.88879V5.38879C96.1626 5.38879 95.3004 6.2547 95.3004 7.32168H95.8004ZM97.2281 8.75456C96.4401 8.75456 95.8004 8.11395 95.8004 7.32168H95.3004C95.3004 8.38865 96.1626 9.25456 97.2281 9.25456V8.75456ZM99.5256 8.75456H97.2281V9.25456H99.5256V8.75456ZM101.418 10.4499C101.309 9.48423 100.496 8.75456 99.5256 8.75456V9.25456C100.241 9.25456 100.841 9.79177 100.921 10.5058L101.418 10.4499ZM101.821 14.0412L101.418 10.45L100.921 10.5058L101.324 14.0971L101.821 14.0412ZM55.5499 14.3192H101.573V13.8192H55.5499V14.3192ZM55.1141 14.0342C55.1891 14.2049 55.3586 14.3192 55.5499 14.3192V13.8192C55.5604 13.8192 55.5684 13.8253 55.5718 13.833L55.1141 14.0342ZM52.9477 9.10492L55.1141 14.0342L55.5718 13.833L53.4055 8.90375L52.9477 9.10492ZM89.3988 8.75434H53.1766V9.25434H89.3988V8.75434ZM90.8266 7.32145C90.8266 8.11372 90.1868 8.75434 89.3988 8.75434V9.25434C90.4644 9.25434 91.3266 8.38843 91.3266 7.32145H90.8266ZM89.3988 5.88857C90.1868 5.88857 90.8266 6.52918 90.8266 7.32145H91.3266C91.3266 6.25447 90.4644 5.38857 89.3988 5.38857V5.88857ZM51.6973 5.88857H89.3988V5.38857H51.6973V5.88857ZM50.5306 3.60525L51.4684 5.73915L51.9261 5.53798L50.9884 3.40408L50.5306 3.60525ZM45.5374 0.329431C47.6984 0.335438 49.6585 1.62107 50.5306 3.60526L50.9884 3.40407C50.0369 1.23939 47.8983 -0.164008 45.5387 -0.170567L45.5374 0.329431ZM16.6855 0.249999L45.5374 0.329431L45.5387 -0.170567L16.6869 -0.249999L16.6855 0.249999ZM16.6701 0.25H16.6862V-0.25H16.6701V0.25ZM11.2006 5.5494C11.3037 2.57364 13.7051 0.25 16.6701 0.25V-0.25C13.4345 -0.25 10.8133 2.28833 10.7009 5.53207L11.2006 5.5494ZM11.1972 5.64755L11.2006 5.54927L10.7008 5.5322L10.6975 5.63048L11.1972 5.64755ZM6.01023 5.88901H10.9473V5.38901H6.01023V5.88901ZM1.28039 11.1986C0.963134 8.36955 3.17251 5.88901 6.01023 5.88901V5.38901C2.8724 5.38901 0.433227 8.13081 0.783502 11.2543L1.28039 11.1986ZM8.7564 77.7291C8.75664 77.7305 8.72772 77.4775 8.67111 76.9767C8.61548 76.4845 8.53447 75.766 8.43171 74.8537C8.22619 73.029 7.93369 70.4287 7.58322 67.3114C6.88228 61.0767 5.94945 52.7739 5.01683 44.471C3.1516 27.8653 1.28721 11.2595 1.28039 11.1986L0.783498 11.2542C0.796137 11.3671 8.24146 77.6824 8.26336 77.8122L8.7564 77.7291ZM13.9501 82.314C11.2484 82.314 9.08037 80.2831 8.7579 77.7392L8.26186 77.8021C8.61498 80.5877 10.9885 82.814 13.9501 82.814V82.314ZM37.6375 82.314H13.9501V82.814H37.6375V82.314ZM62.0003 99.75C50.8375 99.75 41.3258 92.5205 37.874 82.4827L37.4011 82.6453C40.9198 92.8774 50.6162 100.25 62.0003 100.25V99.75ZM62.0015 99.75H62.0003V100.25H62.0015V99.75ZM76.0025 95.5545C71.8428 98.2993 67.001 99.75 62.0015 99.75V100.25C67.0985 100.25 72.0361 98.7707 76.2778 95.9718L76.0025 95.5545ZM76.4109 93.5696C76.8447 94.231 76.6614 95.12 76.0025 95.5545L76.2778 95.9719C77.1674 95.3854 77.4136 94.1867 76.829 93.2954L76.4109 93.5696ZM74.4342 93.1598C75.0921 92.7249 75.9776 92.9081 76.4109 93.5695L76.8291 93.2955C76.2445 92.4032 75.0482 92.1547 74.1585 92.7426L74.4342 93.1598ZM62.0015 96.884C66.4417 96.884 70.7409 95.5961 74.4341 93.1599L74.1587 92.7425C70.5476 95.1247 66.3442 96.384 62.0015 96.384V96.884ZM62.0003 96.884H62.0015V96.384H62.0003V96.884ZM39.3429 74.1583C39.3429 86.6516 49.4737 96.884 62.0003 96.884V96.384C49.7523 96.384 39.8429 86.3778 39.8429 74.1583H39.3429ZM62.0003 51.4325C49.5062 51.4325 39.3429 61.6279 39.3429 74.1583H39.8429C39.8429 61.9026 49.7838 51.9325 62.0003 51.9325V51.4325ZM84.6575 74.1587C84.6575 61.6282 74.4945 51.4325 62.0003 51.4325V51.9325C74.2169 51.9325 84.1575 61.9028 84.1575 74.1587H84.6575ZM79.8319 88.1807C83.0401 84.0822 84.6575 79.196 84.6575 74.1587H84.1575C84.1575 79.0868 82.576 83.864 79.4382 87.8725L79.8319 88.1807ZM80.0731 90.1929C79.4527 89.7045 79.3443 88.8034 79.8319 88.1807L79.4382 87.8725C78.7809 88.7119 78.9266 89.9267 79.7638 90.5858L80.0731 90.1929ZM82.0772 89.951C81.5903 90.5732 80.6932 90.6814 80.0732 90.193L79.7638 90.5857C80.6014 91.2457 81.8138 91.099 82.471 90.2591L82.0772 89.951ZM86.1414 82.4832C85.2271 85.1536 83.8644 87.6681 82.0772 89.951L82.4709 90.2592C84.2921 87.9328 85.6818 85.369 86.6144 82.6452L86.1414 82.4832ZM107.751 82.3142H86.3779V82.8142H107.751V82.3142ZM112.746 77.4754C112.651 80.1903 110.457 82.3142 107.751 82.3142V82.8142C110.728 82.8142 113.141 80.4755 113.245 77.4928L112.746 77.4754ZM114.747 20.0019L112.746 77.4754L113.245 77.4928L115.246 20.0193L114.747 20.0019ZM109.276 14.3194C112.376 14.3194 114.855 16.8917 114.747 20.0019L115.246 20.0194C115.365 16.6278 112.661 13.8194 109.276 13.8194V14.3194ZM10.8299 8.75456H6.01023V9.25456H10.8299V8.75456ZM9.50153 54.3567L11.0797 9.01326L10.5801 8.99586L9.00183 54.3393L9.50153 54.3567ZM4.11802 10.8776L9.00324 54.3759L9.50012 54.3201L4.6149 10.8218L4.11802 10.8776ZM6.01023 8.75456C4.86745 8.75456 3.99101 9.74903 4.11803 10.8776L4.61489 10.8217C4.52089 9.98651 5.16876 9.25456 6.01023 9.25456V8.75456ZM109.392 77.3576C109.361 78.2509 108.641 78.9482 107.751 78.9482V79.4482C108.911 79.4482 109.852 78.5361 109.892 77.375L109.392 77.3576ZM111.393 19.8844L109.392 77.3576L109.892 77.375L111.893 19.9018L111.393 19.8844ZM109.276 17.6849C110.476 17.6849 111.435 18.6804 111.393 19.8844L111.893 19.9017C111.944 18.4167 110.761 17.1849 109.276 17.1849V17.6849ZM55.5496 17.6849H109.276V17.1849H55.5496V17.6849ZM52.0433 15.392C52.656 16.786 54.0333 17.6849 55.5496 17.6849V17.1849C54.2321 17.1849 53.0341 16.4036 52.501 15.1908L52.0433 15.392ZM47.4881 5.02625C47.5564 5.18166 47.5909 5.26004 52.0433 15.392L52.501 15.1908C48.0486 5.05891 48.0142 4.98049 47.9458 4.82504L47.4881 5.02625ZM47.4603 4.96301L47.4881 5.02624L47.9458 4.82505L47.918 4.76183L47.4603 4.96301ZM45.5282 3.69543C46.3641 3.69783 47.1228 4.19504 47.4603 4.963L47.9181 4.76184C47.5012 3.81325 46.5639 3.19841 45.5296 3.19543L45.5282 3.69543ZM16.6764 3.61555L45.5282 3.69543L45.5296 3.19543L16.6777 3.11555L16.6764 3.61555ZM16.6703 3.61555H16.677V3.11555H16.6703V3.61555ZM14.5539 5.66655C14.5939 4.51389 15.523 3.61555 16.6703 3.61555V3.11555C15.2523 3.11555 14.1036 4.22859 14.0542 5.64917L14.5539 5.66655ZM12.0783 77.2019C12.0779 77.1991 12.075 77.1932 12.0783 77.0292C12.0814 76.8692 12.0899 76.5701 12.1085 75.9919C12.1458 74.8362 12.2233 72.5706 12.3791 68.0853C12.6906 59.1149 13.3146 41.2674 14.5539 5.66656L14.0542 5.64917C12.815 41.2499 12.1909 59.0975 11.8794 68.0679C11.7236 72.553 11.646 74.8193 11.6088 75.9758C11.5902 76.5536 11.5816 76.8557 11.5784 77.0194C11.5752 77.179 11.5767 77.2193 11.582 77.2625L12.0783 77.2019ZM12.0844 77.2857C12.083 77.2401 12.0804 77.2197 12.0783 77.2019L11.582 77.2625C11.5829 77.2699 11.583 77.2713 11.5834 77.2749C11.5837 77.2788 11.5842 77.2865 11.5847 77.3015L12.0844 77.2857ZM13.9501 78.9482C12.9804 78.9482 12.1843 78.2164 12.0831 77.2671L11.586 77.3201C11.7139 78.52 12.7212 79.4482 13.9501 79.4482V78.9482ZM36.7286 78.9482H13.9501V79.4482H36.7286V78.9482ZM35.9876 74.1585C35.9876 75.9104 36.1709 77.6645 36.4834 79.2466L36.9739 79.1497C36.6676 77.5986 36.4876 75.8769 36.4876 74.1585H35.9876ZM62.0006 48.067C47.656 48.067 35.9876 59.772 35.9876 74.1585H36.4876C36.4876 60.0467 47.9336 48.567 62.0006 48.567V48.067ZM88.0133 74.1585C88.0133 59.772 76.3449 48.067 62.0006 48.067V48.567C76.0673 48.567 87.5133 60.0467 87.5133 74.1585H88.0133ZM87.5196 79.2462C87.8291 77.6651 88.0133 75.9033 88.0133 74.1585H87.5133C87.5133 75.8697 87.3324 77.5993 87.0289 79.1502L87.5196 79.2462ZM107.751 78.9482H87.2743V79.4482H107.751V78.9482Z" fill="#007AFF" fill-opacity="0.04"/>
</svg>
