<svg width="14" height="21" viewBox="0 0 14 21" fill="none" xmlns="http://www.w3.org/2000/svg">
<path fill-rule="evenodd" clip-rule="evenodd" d="M0 7.74321C0 3.7493 3.14018 0.5 7 0.5C10.8598 0.5 13.9999 3.7493 14 7.74321C14 12.6998 7.73569 19.9763 7.46898 20.2837C7.21892 20.5719 6.78154 20.5724 6.53102 20.2837C6.26431 19.9763 0 12.6998 0 7.74321ZM3.47816 7.74321C3.47816 9.75267 5.05803 11.3875 7 11.3875C8.94193 11.3875 10.5218 9.75271 10.5218 7.74325C10.5218 5.7338 8.94193 4.09899 7 4.09899C5.05807 4.09899 3.47816 5.73376 3.47816 7.74321Z" fill="#007AFF"/>
</svg>
