<svg width="90" height="101" viewBox="0 0 90 101" fill="none" xmlns="http://www.w3.org/2000/svg">
<path fill-rule="evenodd" clip-rule="evenodd" d="M71.7646 7.71014H82.7719C86.2057 7.7088 88.9921 10.4878 89 13.9215V78.2337C89.0007 81.6764 86.2146 84.47 82.7719 84.4784H73.28C72.3603 84.4784 71.6148 83.7329 71.6148 82.8132C71.6148 81.8935 72.3603 81.1479 73.28 81.1479H82.7719C84.375 81.139 85.6697 79.8368 85.6695 78.2337V31.2236H4.33848V50.2907C4.33848 51.2104 3.59293 51.956 2.67323 51.956C1.75354 51.956 1.00798 51.2104 1.00798 50.2907V13.9215C1.01584 10.4878 3.80232 7.7088 7.23603 7.71014H18.1767V5.07903C18.182 2.27614 20.4529 0.00525124 23.2558 1.30108e-07H25.7203C28.5232 0.00525124 30.7941 2.27614 30.7994 5.07903V7.71014H59.142V5.07903C59.1417 3.7319 59.6767 2.43985 60.6293 1.48728C61.5818 0.534708 62.8739 -0.000304605 64.221 1.30108e-07H66.6856C69.4885 0.00526037 71.7594 2.27614 71.7646 5.07903V7.71014ZM68.0971 63.4629V53.3881C68.0971 52.4684 67.3515 51.7229 66.4318 51.7229C65.5121 51.7229 64.7666 52.4684 64.7666 53.3881V58.0841C57.9076 49.735 46.5422 46.5962 36.3705 50.242C26.1989 53.8878 19.4152 63.5318 19.4217 74.337C19.4217 75.2567 20.1672 76.0023 21.0869 76.0023C22.0066 76.0023 22.7522 75.2567 22.7522 74.337C22.7436 64.571 29.1057 55.9414 38.4374 53.0616C47.7692 50.1817 57.888 53.7252 63.3844 61.7977H56.3404C55.4207 61.7977 54.6751 62.5432 54.6751 63.4629C54.6751 64.3826 55.4207 65.1282 56.3404 65.1282H66.4318C66.8739 65.1297 67.2984 64.9548 67.611 64.6421C67.9236 64.3295 68.0986 63.905 68.0971 63.4629ZM67.7172 73.2411C68.0298 72.9285 68.4543 72.7535 68.8964 72.755C69.815 72.7577 70.559 73.5017 70.5616 74.4203C70.5563 85.2242 63.7666 94.8609 53.5946 98.5017C43.4227 102.143 32.06 99.0032 25.2001 90.6565V95.3692C25.2001 96.2889 24.4546 97.0345 23.5349 97.0345C22.6152 97.0345 21.8696 96.2889 21.8696 95.3692V85.2778C21.8724 84.3592 22.6163 83.6152 23.5349 83.6125H33.6263C34.546 83.6125 35.2916 84.3581 35.2916 85.2778C35.2916 86.1975 34.546 86.943 33.6263 86.943H26.5989C32.0936 95.0129 42.208 98.557 51.5379 95.6815C60.8678 92.8061 67.2325 84.1833 67.2311 74.4203C67.2296 73.9782 67.4045 73.5537 67.7172 73.2411ZM2.66525 62.1796C1.74558 62.1796 1.00005 61.434 1 60.5143V57.5944C1 56.6748 1.74556 55.9292 2.66525 55.9292C3.58495 55.9292 4.33051 56.6748 4.33051 57.5944V60.5143C4.33045 61.434 3.58493 62.1795 2.66525 62.1796ZM62.4725 5.07903C62.4724 4.61528 62.6566 4.1705 62.9846 3.84258C63.3125 3.51466 63.7573 3.33045 64.221 3.33051H66.6856C67.1494 3.33045 67.5941 3.51466 67.9221 3.84258C68.25 4.1705 68.4342 4.61528 68.4341 5.07903V13.6551C68.4342 14.1188 68.25 14.5636 67.922 14.8915C67.5941 15.2195 67.1493 15.4037 66.6856 15.4036H64.221C63.7573 15.4037 63.3125 15.2195 62.9846 14.8915C62.6567 14.5636 62.4725 14.1188 62.4725 13.6551V5.07903ZM22.0193 3.84256C21.6914 4.17049 21.5072 4.61527 21.5073 5.07903V13.6551C21.5072 14.1189 21.6914 14.5636 22.0193 14.8916C22.3472 15.2195 22.792 15.4037 23.2558 15.4036H25.7203C26.1841 15.4037 26.6289 15.2195 26.9568 14.8916C27.2847 14.5636 27.4689 14.1189 27.4689 13.6551V5.07903C27.4689 4.61527 27.2847 4.17049 26.9568 3.84256C26.6289 3.51463 26.1841 3.33044 25.7203 3.33051H23.2558C22.792 3.33044 22.3472 3.51463 22.0193 3.84256ZM4.33848 27.893V13.9215C4.34683 12.3274 5.6419 11.0398 7.23603 11.0406H18.1767V13.6551C18.182 16.458 20.4529 18.7289 23.2558 18.7341H25.7203C28.5232 18.7289 30.7941 16.458 30.7994 13.6551V11.0406H59.142V13.6551C59.1417 15.0022 59.6767 16.2943 60.6293 17.2469C61.5818 18.1994 62.8739 18.7344 64.221 18.7341H66.6856C69.4885 18.7289 71.7594 16.458 71.7646 13.6551V11.0406H82.7719C84.3661 11.0398 85.6611 12.3274 85.6695 13.9215V27.893H4.33848ZM7.23576 84.4784C3.79323 84.4698 1.0073 81.6763 1.00813 78.2337ZM1.00813 78.2337V67.8096ZM1.00813 67.8096C1.00813 66.8899 1.75369 66.1443 2.67338 66.1443ZM2.67338 66.1443C3.59307 66.1443 4.33863 66.8899 4.33863 67.8096ZM4.33863 67.8096V78.2337ZM4.33863 78.2337C4.33571 79.8378 5.63175 81.1414 7.23576 81.1479ZM7.23576 81.1479H16.728ZM16.728 81.1479C17.6477 81.1479 18.3933 81.8935 18.3933 82.8132ZM18.3933 82.8132C18.3933 83.7329 17.6477 84.4784 16.728 84.4784Z" fill="#007AFF"/>
<path d="M82.7719 7.71014L82.7719 7.96014L82.772 7.96014L82.7719 7.71014ZM71.7646 7.71014H71.5146V7.96014H71.7646V7.71014ZM89 13.9215L89.25 13.9215L89.25 13.921L89 13.9215ZM89 78.2337L88.75 78.2337L88.75 78.2338L89 78.2337ZM82.7719 84.4784V84.7284L82.7726 84.7284L82.7719 84.4784ZM82.7719 81.1479L82.7719 81.3979L82.7733 81.3979L82.7719 81.1479ZM85.6695 78.2337L85.4195 78.2337L85.4195 78.2338L85.6695 78.2337ZM85.6695 31.2236H85.9195V30.9736H85.6695V31.2236ZM4.33848 31.2236V30.9736H4.08848V31.2236H4.33848ZM1.00798 13.9215L0.757977 13.921V13.9215H1.00798ZM7.23603 7.71014L7.23593 7.96014H7.23603V7.71014ZM18.1767 7.71014V7.96014H18.4267V7.71014H18.1767ZM18.1767 5.07903L17.9267 5.07856V5.07903H18.1767ZM23.2558 1.30108e-07L23.2558 -0.25L23.2553 -0.249999L23.2558 1.30108e-07ZM25.7203 1.30108e-07L25.7208 -0.25H25.7203V1.30108e-07ZM30.7994 5.07903L31.0494 5.07903L31.0494 5.07856L30.7994 5.07903ZM30.7994 7.71014H30.5494V7.96014H30.7994V7.71014ZM59.142 7.71014V7.96014H59.392V7.71014H59.142ZM59.142 5.07903L59.392 5.07903L59.392 5.07897L59.142 5.07903ZM60.6293 1.48728L60.4525 1.3105L60.4525 1.3105L60.6293 1.48728ZM64.221 1.30108e-07L64.221 0.25H64.221V1.30108e-07ZM66.6856 1.30108e-07L66.6861 -0.25H66.6856V1.30108e-07ZM71.7646 5.07903L72.0146 5.07903L72.0146 5.07856L71.7646 5.07903ZM68.0971 63.4629L67.8471 63.4629L67.8471 63.4638L68.0971 63.4629ZM64.7666 58.0841L64.5734 58.2428L65.0166 58.7823V58.0841H64.7666ZM36.3705 50.242L36.4549 50.4774L36.4549 50.4774L36.3705 50.242ZM19.4217 74.337L19.6717 74.337L19.6717 74.3369L19.4217 74.337ZM22.7522 74.337H23.0022L23.0022 74.3368L22.7522 74.337ZM38.4374 53.0616L38.3637 52.8227L38.3637 52.8227L38.4374 53.0616ZM63.3844 61.7977V62.0477H63.8571L63.591 61.657L63.3844 61.7977ZM66.4318 65.1282L66.4327 64.8782H66.4318V65.1282ZM68.8964 72.755L68.8955 73.005L68.8957 73.005L68.8964 72.755ZM70.5616 74.4203L70.8116 74.4204L70.8116 74.4196L70.5616 74.4203ZM53.5946 98.5017L53.5104 98.2664L53.5104 98.2664L53.5946 98.5017ZM25.2001 90.6565L25.3933 90.4978L24.9501 89.9586V90.6565H25.2001ZM21.8696 85.2778L21.6196 85.277V85.2778H21.8696ZM23.5349 83.6125L23.5349 83.3625L23.5341 83.3625L23.5349 83.6125ZM26.5989 86.943V86.693H26.1263L26.3923 87.0837L26.5989 86.943ZM67.2311 74.4203L67.4811 74.4203L67.4811 74.4194L67.2311 74.4203ZM1 60.5143L0.75 60.5143L0.75 60.5144L1 60.5143ZM2.66525 62.1796L2.66524 62.4296L2.66527 62.4296L2.66525 62.1796ZM4.33051 60.5143L4.58051 60.5144V60.5143H4.33051ZM62.9846 3.84258L62.8078 3.6658L62.8078 3.6658L62.9846 3.84258ZM62.4725 5.07903L62.7225 5.07903L62.7225 5.079L62.4725 5.07903ZM64.221 3.33051L64.221 3.58051H64.221V3.33051ZM66.6856 3.33051L66.6856 3.58051L66.6856 3.58051L66.6856 3.33051ZM67.9221 3.84258L68.0988 3.6658L68.0988 3.6658L67.9221 3.84258ZM68.4341 5.07903L68.1841 5.079V5.07903H68.4341ZM68.4341 13.6551L68.1841 13.6551L68.1841 13.6551L68.4341 13.6551ZM67.922 14.8915L67.7453 14.7148L67.7453 14.7148L67.922 14.8915ZM66.6856 15.4036L66.6856 15.1536H66.6856V15.4036ZM64.221 15.4036L64.221 15.1536L64.221 15.1536L64.221 15.4036ZM62.9846 14.8915L63.1614 14.7148L63.1614 14.7148L62.9846 14.8915ZM62.4725 13.6551L62.7225 13.6551V13.6551H62.4725ZM21.5073 5.07903L21.7573 5.07903L21.7573 5.07899L21.5073 5.07903ZM22.0193 3.84256L21.8425 3.66578L21.8425 3.66578L22.0193 3.84256ZM21.5073 13.6551L21.7573 13.6551V13.6551H21.5073ZM22.0193 14.8916L21.8425 15.0683L21.8425 15.0683L22.0193 14.8916ZM23.2558 15.4036L23.2558 15.1536L23.2557 15.1536L23.2558 15.4036ZM25.7203 15.4036L25.7204 15.1536H25.7203V15.4036ZM26.9568 14.8916L26.78 14.7148L26.78 14.7148L26.9568 14.8916ZM27.4689 13.6551L27.2189 13.6551L27.2189 13.6551L27.4689 13.6551ZM27.4689 5.07903L27.2189 5.07899V5.07903H27.4689ZM26.9568 3.84256L27.1336 3.66578L27.1336 3.66578L26.9568 3.84256ZM25.7203 3.33051L25.7203 3.58051L25.7204 3.58051L25.7203 3.33051ZM23.2558 3.33051L23.2557 3.58051H23.2558V3.33051ZM4.33848 13.9215L4.08848 13.9202V13.9215H4.33848ZM4.33848 27.893H4.08848V28.143H4.33848V27.893ZM7.23603 11.0406L7.2359 11.2906H7.23603V11.0406ZM18.1767 11.0406H18.4267V10.7906H18.1767V11.0406ZM18.1767 13.6551L17.9267 13.6551L17.9267 13.6556L18.1767 13.6551ZM23.2558 18.7341L23.2553 18.9841H23.2558V18.7341ZM25.7203 18.7341L25.7203 18.9841L25.7208 18.9841L25.7203 18.7341ZM30.7994 13.6551L31.0494 13.6556V13.6551H30.7994ZM30.7994 11.0406V10.7906H30.5494V11.0406H30.7994ZM59.142 11.0406H59.392V10.7906H59.142V11.0406ZM59.142 13.6551L59.392 13.6552V13.6551H59.142ZM60.6293 17.2469L60.4525 17.4236L60.4525 17.4236L60.6293 17.2469ZM64.221 18.7341L64.221 18.4841L64.221 18.4841L64.221 18.7341ZM66.6856 18.7341L66.6856 18.9841L66.6861 18.9841L66.6856 18.7341ZM71.7646 13.6551L72.0146 13.6556V13.6551H71.7646ZM71.7646 11.0406V10.7906H71.5146V11.0406H71.7646ZM82.7719 11.0406L82.7719 11.2906L82.7721 11.2906L82.7719 11.0406ZM85.6695 13.9215L85.9195 13.9215L85.9195 13.9202L85.6695 13.9215ZM85.6695 27.893V28.143H85.9195V27.893H85.6695ZM7.23576 84.4784L7.23514 84.7284L7.83965 84.73L7.41278 84.3019L7.23576 84.4784ZM7.23576 81.1479L7.23475 81.3979H7.23576V81.1479ZM16.728 84.4784L16.5512 84.3017L16.1244 84.7284H16.728V84.4784ZM82.7719 7.46014H71.7646V7.96014H82.7719V7.46014ZM89.25 13.921C89.2418 10.3494 86.3434 7.45875 82.7719 7.46014L82.772 7.96014C86.0679 7.95886 88.7425 10.6263 88.75 13.9221L89.25 13.921ZM89.25 78.2337V13.9215H88.75V78.2337H89.25ZM82.7726 84.7284C86.3531 84.7196 89.2507 81.8142 89.25 78.2337L88.75 78.2338C88.7507 81.5386 86.0761 84.2203 82.7713 84.2284L82.7726 84.7284ZM73.28 84.7284H82.7719V84.2284H73.28V84.7284ZM71.3648 82.8132C71.3648 83.871 72.2222 84.7284 73.28 84.7284V84.2284C72.4984 84.2284 71.8648 83.5948 71.8648 82.8132H71.3648ZM73.28 80.8979C72.2222 80.8979 71.3648 81.7554 71.3648 82.8132H71.8648C71.8648 82.0316 72.4984 81.3979 73.28 81.3979V80.8979ZM82.7719 80.8979H73.28V81.3979H82.7719V80.8979ZM85.4195 78.2338C85.4197 79.6993 84.236 80.8897 82.7706 80.8979L82.7733 81.3979C84.5139 81.3882 85.9197 79.9743 85.9195 78.2337L85.4195 78.2338ZM85.4195 31.2236V78.2337H85.9195V31.2236H85.4195ZM4.33848 31.4736H85.6695V30.9736H4.33848V31.4736ZM4.58848 50.2907V31.2236H4.08848V50.2907H4.58848ZM2.67323 52.206C3.731 52.206 4.58848 51.3485 4.58848 50.2907H4.08848C4.08848 51.0724 3.45485 51.706 2.67323 51.706V52.206ZM0.757977 50.2907C0.757977 51.3485 1.61546 52.206 2.67323 52.206V51.706C1.89161 51.706 1.25798 51.0724 1.25798 50.2907H0.757977ZM0.757977 13.9215V50.2907H1.25798V13.9215H0.757977ZM7.23612 7.46014C3.66453 7.45875 0.766155 10.3494 0.757977 13.921L1.25798 13.9221C1.26552 10.6263 3.94011 7.95886 7.23593 7.96014L7.23612 7.46014ZM18.1767 7.46014H7.23603V7.96014H18.1767V7.46014ZM17.9267 5.07903V7.71014H18.4267V5.07903H17.9267ZM23.2553 -0.249999C20.3147 -0.24449 17.9323 2.13796 17.9267 5.07856L18.4267 5.0795C18.4317 2.41431 20.5911 0.254993 23.2562 0.25L23.2553 -0.249999ZM25.7203 -0.25H23.2558V0.25H25.7203V-0.25ZM31.0494 5.07856C31.0439 2.13796 28.6614 -0.24449 25.7208 -0.249999L25.7199 0.25C28.3851 0.254993 30.5444 2.41431 30.5494 5.0795L31.0494 5.07856ZM31.0494 7.71014V5.07903H30.5494V7.71014H31.0494ZM59.142 7.46014H30.7994V7.96014H59.142V7.46014ZM58.892 5.07903V7.71014H59.392V5.07903H58.892ZM60.4525 1.3105C59.453 2.30997 58.8917 3.66563 58.892 5.07909L59.392 5.07897C59.3917 3.79816 59.9004 2.56973 60.806 1.66405L60.4525 1.3105ZM64.2211 -0.25C62.8076 -0.25032 61.452 0.311034 60.4525 1.3105L60.806 1.66405C61.7117 0.758383 62.9402 0.24971 64.221 0.25L64.2211 -0.25ZM66.6856 -0.25H64.221V0.25H66.6856V-0.25ZM72.0146 5.07856C72.0091 2.13797 69.6267 -0.244481 66.6861 -0.249999L66.6851 0.25C69.3503 0.255001 71.5096 2.41432 71.5146 5.0795L72.0146 5.07856ZM72.0146 7.71014V5.07903H71.5146V7.71014H72.0146ZM67.8471 53.3881V63.4629H68.3471V53.3881H67.8471ZM66.4318 51.9729C67.2134 51.9729 67.8471 52.6065 67.8471 53.3881H68.3471C68.3471 52.3303 67.4896 51.4729 66.4318 51.4729V51.9729ZM65.0166 53.3881C65.0166 52.6065 65.6502 51.9729 66.4318 51.9729V51.4729C65.374 51.4729 64.5166 52.3303 64.5166 53.3881H65.0166ZM65.0166 58.0841V53.3881H64.5166V58.0841H65.0166ZM36.4549 50.4774C46.5271 46.8672 57.7814 49.9753 64.5734 58.2428L64.9597 57.9254C58.0337 49.4947 46.5572 46.3252 36.2862 50.0067L36.4549 50.4774ZM19.6717 74.3369C19.6653 63.6372 26.3827 54.0875 36.4549 50.4774L36.2862 50.0067C26.0152 53.6881 19.1651 63.4263 19.1717 74.3372L19.6717 74.3369ZM21.0869 75.7523C20.3053 75.7523 19.6717 75.1187 19.6717 74.337H19.1717C19.1717 75.3948 20.0292 76.2523 21.0869 76.2523V75.7523ZM22.5022 74.337C22.5022 75.1187 21.8686 75.7523 21.0869 75.7523V76.2523C22.1447 76.2523 23.0022 75.3948 23.0022 74.337H22.5022ZM38.3637 52.8227C28.9271 55.7349 22.4935 64.4615 22.5022 74.3373L23.0022 74.3368C22.9937 64.6805 29.2843 56.1479 38.5111 53.3005L38.3637 52.8227ZM63.591 61.657C58.0328 53.4938 47.8003 49.9105 38.3637 52.8227L38.5111 53.3005C47.738 50.453 57.7431 53.9566 63.1777 61.9384L63.591 61.657ZM56.3404 62.0477H63.3844V61.5477H56.3404V62.0477ZM54.9251 63.4629C54.9251 62.6813 55.5587 62.0477 56.3404 62.0477V61.5477C55.2826 61.5477 54.4251 62.4051 54.4251 63.4629H54.9251ZM56.3404 64.8782C55.5587 64.8782 54.9251 64.2445 54.9251 63.4629H54.4251C54.4251 64.5207 55.2826 65.3782 56.3404 65.3782V64.8782ZM66.4318 64.8782H56.3404V65.3782H66.4318V64.8782ZM67.4342 64.4653C67.1687 64.7309 66.8082 64.8795 66.4327 64.8782L66.4309 65.3782C66.9397 65.3799 67.4281 65.1786 67.7878 64.8189L67.4342 64.4653ZM67.8471 63.4638C67.8484 63.8393 67.6998 64.1998 67.4342 64.4653L67.7878 64.8189C68.1475 64.4592 68.3488 63.9708 68.3471 63.462L67.8471 63.4638ZM68.8973 72.505C68.3885 72.5033 67.9001 72.7046 67.5404 73.0643L67.894 73.4179C68.1595 73.1523 68.52 73.0037 68.8955 73.005L68.8973 72.505ZM70.8116 74.4196C70.8086 73.3635 69.9532 72.5081 68.8971 72.505L68.8957 73.005C69.6767 73.0073 70.3094 73.6399 70.3116 74.421L70.8116 74.4196ZM53.6789 98.7371C63.9502 95.0607 70.8062 85.3299 70.8116 74.4204L70.3116 74.4202C70.3063 85.1185 63.583 94.6611 53.5104 98.2664L53.6789 98.7371ZM25.007 90.8153C31.9339 99.2434 43.4075 102.414 53.6789 98.7371L53.5104 98.2664C43.4378 101.872 32.1862 98.7629 25.3933 90.4978L25.007 90.8153ZM25.4501 95.3692V90.6565H24.9501V95.3692H25.4501ZM23.5349 97.2845C24.5926 97.2845 25.4501 96.427 25.4501 95.3692H24.9501C24.9501 96.1508 24.3165 96.7845 23.5349 96.7845V97.2845ZM21.6196 95.3692C21.6196 96.427 22.4771 97.2845 23.5349 97.2845V96.7845C22.7532 96.7845 22.1196 96.1508 22.1196 95.3692H21.6196ZM21.6196 85.2778V95.3692H22.1196V85.2778H21.6196ZM23.5341 83.3625C22.4781 83.3657 21.6228 84.221 21.6196 85.277L22.1196 85.2785C22.1219 84.4974 22.7545 83.8648 23.5356 83.8625L23.5341 83.3625ZM33.6263 83.3625H23.5349V83.8625H33.6263V83.3625ZM35.5416 85.2778C35.5416 84.22 34.6841 83.3625 33.6263 83.3625V83.8625C34.4079 83.8625 35.0416 84.4961 35.0416 85.2778H35.5416ZM33.6263 87.193C34.6841 87.193 35.5416 86.3355 35.5416 85.2778H35.0416C35.0416 86.0594 34.4079 86.693 33.6263 86.693V87.193ZM26.5989 87.193H33.6263V86.693H26.5989V87.193ZM51.4643 95.4426C42.2393 98.2858 32.2385 94.7815 26.8056 86.8023L26.3923 87.0837C31.9487 95.2443 42.1768 98.8282 51.6116 95.9204L51.4643 95.4426ZM66.9811 74.4203C66.9824 84.0736 60.6894 92.5995 51.4643 95.4426L51.6116 95.9204C61.0463 93.0127 67.4825 84.2929 67.4811 74.4203L66.9811 74.4203ZM67.5404 73.0643C67.1807 73.424 66.9794 73.9124 66.9811 74.4212L67.4811 74.4194C67.4798 74.0439 67.6284 73.6834 67.894 73.4179L67.5404 73.0643ZM0.75 60.5144C0.750053 61.5721 1.6075 62.4295 2.66524 62.4296L2.66527 61.9296C1.88365 61.9296 1.25004 61.2959 1.25 60.5143L0.75 60.5144ZM0.75 57.5944V60.5143H1.25V57.5944H0.75ZM2.66525 55.6792C1.60749 55.6792 0.75 56.5367 0.75 57.5944H1.25C1.25 56.8128 1.88363 56.1792 2.66525 56.1792V55.6792ZM4.58051 57.5944C4.58051 56.5367 3.72302 55.6792 2.66525 55.6792V56.1792C3.44688 56.1792 4.08051 56.8128 4.08051 57.5944H4.58051ZM4.58051 60.5143V57.5944H4.08051V60.5143H4.58051ZM2.66527 62.4296C3.723 62.4295 4.58044 61.5721 4.58051 60.5144L4.08051 60.5143C4.08046 61.2959 3.44685 61.9296 2.66524 61.9296L2.66527 62.4296ZM62.8078 3.6658C62.433 4.04062 62.2224 4.54899 62.2225 5.07906L62.7225 5.079C62.7225 4.68156 62.8803 4.30039 63.1613 4.01935L62.8078 3.6658ZM64.2211 3.08051C63.691 3.08045 63.1826 3.29099 62.8078 3.6658L63.1613 4.01935C63.4424 3.73832 63.8236 3.58046 64.221 3.58051L64.2211 3.08051ZM66.6856 3.08051H64.221V3.58051H66.6856V3.08051ZM68.0988 3.6658C67.724 3.29099 67.2156 3.08045 66.6856 3.08051L66.6856 3.58051C67.0831 3.58046 67.4642 3.73832 67.7453 4.01936L68.0988 3.6658ZM68.6841 5.07906C68.6842 4.54899 68.4736 4.04062 68.0988 3.6658L67.7453 4.01935C68.0263 4.30039 68.1842 4.68156 68.1841 5.079L68.6841 5.07906ZM68.6841 13.6551V5.07903H68.1841V13.6551H68.6841ZM68.0988 15.0683C68.4736 14.6935 68.6842 14.1851 68.6841 13.6551L68.1841 13.6551C68.1842 14.0526 68.0263 14.4337 67.7453 14.7148L68.0988 15.0683ZM66.6856 15.6536C67.2156 15.6537 67.724 15.4431 68.0988 15.0683L67.7453 14.7148C67.4642 14.9958 67.0831 15.1537 66.6856 15.1536L66.6856 15.6536ZM64.221 15.6536H66.6856V15.1536H64.221V15.6536ZM62.8078 15.0683C63.1826 15.4431 63.691 15.6537 64.221 15.6536L64.221 15.1536C63.8236 15.1537 63.4424 14.9958 63.1614 14.7148L62.8078 15.0683ZM62.2225 13.6551C62.2225 14.1851 62.433 14.6935 62.8078 15.0683L63.1614 14.7148C62.8803 14.4337 62.7225 14.0526 62.7225 13.6551L62.2225 13.6551ZM62.2225 5.07903V13.6551H62.7225V5.07903H62.2225ZM21.7573 5.07899C21.7572 4.68155 21.915 4.30037 22.1961 4.01934L21.8425 3.66578C21.4677 4.0406 21.2572 4.54899 21.2573 5.07907L21.7573 5.07899ZM21.7573 13.6551V5.07903H21.2573V13.6551H21.7573ZM22.1961 14.7148C21.9151 14.4337 21.7572 14.0526 21.7573 13.6551L21.2573 13.6551C21.2572 14.1851 21.4677 14.6935 21.8425 15.0683L22.1961 14.7148ZM23.2557 15.1536C22.8583 15.1537 22.4771 14.9958 22.1961 14.7148L21.8425 15.0683C22.2174 15.4432 22.7257 15.6537 23.2558 15.6536L23.2557 15.1536ZM25.7203 15.1536H23.2558V15.6536H25.7203V15.1536ZM26.78 14.7148C26.499 14.9958 26.1178 15.1537 25.7204 15.1536L25.7203 15.6536C26.2504 15.6537 26.7588 15.4431 27.1336 15.0683L26.78 14.7148ZM27.2189 13.6551C27.2189 14.0526 27.0611 14.4337 26.78 14.7148L27.1336 15.0683C27.5084 14.6935 27.7189 14.1851 27.7189 13.6551L27.2189 13.6551ZM27.2189 5.07903V13.6551H27.7189V5.07903H27.2189ZM26.78 4.01934C27.0611 4.30037 27.2189 4.68155 27.2189 5.07899L27.7189 5.07907C27.7189 4.54899 27.5084 4.0406 27.1336 3.66578L26.78 4.01934ZM25.7204 3.58051C26.1178 3.58045 26.499 3.7383 26.78 4.01934L27.1336 3.66578C26.7588 3.29096 26.2504 3.08043 25.7203 3.08051L25.7204 3.58051ZM23.2558 3.58051H25.7203V3.08051H23.2558V3.58051ZM22.1961 4.01934C22.4771 3.7383 22.8583 3.58045 23.2557 3.58051L23.2558 3.08051C22.7257 3.08043 22.2173 3.29096 21.8425 3.66578L22.1961 4.01934ZM4.08848 13.9215V27.893H4.58848V13.9215H4.08848ZM7.23616 10.7906C5.50442 10.7897 4.09756 12.1885 4.08849 13.9202L4.58848 13.9229C4.59611 12.4664 5.77938 11.2899 7.2359 11.2906L7.23616 10.7906ZM18.1767 10.7906H7.23603V11.2906H18.1767V10.7906ZM18.4267 13.6551V11.0406H17.9267V13.6551H18.4267ZM23.2562 18.4841C20.5911 18.4791 18.4317 16.3198 18.4267 13.6546L17.9267 13.6556C17.9323 16.5962 20.3147 18.9786 23.2553 18.9841L23.2562 18.4841ZM25.7203 18.4841H23.2558V18.9841H25.7203V18.4841ZM30.5494 13.6546C30.5444 16.3198 28.3851 18.4791 25.7199 18.4841L25.7208 18.9841C28.6614 18.9786 31.0439 16.5962 31.0494 13.6556L30.5494 13.6546ZM30.5494 11.0406V13.6551H31.0494V11.0406H30.5494ZM59.142 10.7906H30.7994V11.2906H59.142V10.7906ZM59.392 13.6551V11.0406H58.892V13.6551H59.392ZM60.806 17.0701C59.9004 16.1644 59.3917 14.936 59.392 13.6552L58.892 13.655C58.8917 15.0685 59.453 16.4242 60.4525 17.4236L60.806 17.0701ZM64.221 18.4841C62.9401 18.4844 61.7117 17.9757 60.806 17.0701L60.4525 17.4236C61.452 18.4231 62.8076 18.9845 64.2211 18.9841L64.221 18.4841ZM66.6856 18.4841H64.221V18.9841H66.6856V18.4841ZM71.5146 13.6546C71.5096 16.3198 69.3503 18.4791 66.6851 18.4841L66.6861 18.9841C69.6267 18.9786 72.0091 16.5962 72.0146 13.6556L71.5146 13.6546ZM71.5146 11.0406V13.6551H72.0146V11.0406H71.5146ZM82.7719 10.7906H71.7646V11.2906H82.7719V10.7906ZM85.9195 13.9202C85.9104 12.1885 84.5036 10.7897 82.7718 10.7906L82.7721 11.2906C84.2286 11.2899 85.4119 12.4664 85.4195 13.9229L85.9195 13.9202ZM85.9195 27.893V13.9215H85.4195V27.893H85.9195ZM4.33848 28.143H85.6695V27.643H4.33848V28.143ZM7.23638 84.2284C3.93171 84.2202 1.25733 81.5385 1.25813 78.2338L0.758126 78.2337C0.757265 81.8141 3.65476 84.7195 7.23514 84.7284L7.23638 84.2284ZM7.41278 84.3019L1.18515 78.0572L0.831108 78.4103L7.05874 84.655L7.41278 84.3019ZM1.25813 78.2337V67.8096H0.758126V78.2337H1.25813ZM1.25813 78.2337V67.8096H0.758126V78.2337H1.25813ZM1.25813 67.8096C1.25813 67.028 1.89176 66.3943 2.67338 66.3943V65.8943C1.61562 65.8943 0.758126 66.7518 0.758126 67.8096H1.25813ZM1.1849 67.9864L2.85016 66.3211L2.4966 65.9675L0.83135 67.6328L1.1849 67.9864ZM2.67338 66.3943C3.455 66.3943 4.08863 67.028 4.08863 67.8096H4.58863C4.58863 66.7518 3.73115 65.8943 2.67338 65.8943V66.3943ZM2.4966 66.3211L4.16186 67.9864L4.51541 67.6328L2.85016 65.9675L2.4966 66.3211ZM4.08863 67.8096V78.2337H4.58863V67.8096H4.08863ZM4.08863 67.8096V78.2337H4.58863V67.8096H4.08863ZM4.08863 78.2333C4.08546 79.9752 5.49289 81.3909 7.23475 81.3979L7.23677 80.8979C5.77062 80.892 4.58596 79.7004 4.58863 78.2342L4.08863 78.2333ZM4.16134 78.41L7.05846 81.3242L7.41306 80.9717L4.51593 78.0575L4.16134 78.41ZM7.23576 81.3979H16.728V80.8979H7.23576V81.3979ZM7.23576 81.3979H16.728V80.8979H7.23576V81.3979ZM16.728 81.3979C17.5096 81.3979 18.1433 82.0316 18.1433 82.8132H18.6433C18.6433 81.7554 17.7858 80.8979 16.728 80.8979V81.3979ZM16.5512 81.3247L18.2165 82.99L18.5701 82.6364L16.9048 80.9712L16.5512 81.3247ZM18.1433 82.8132C18.1433 83.5948 17.5097 84.2284 16.728 84.2284V84.7284C17.7858 84.7284 18.6433 83.871 18.6433 82.8132H18.1433ZM18.2165 82.6364L16.5512 84.3017L16.9047 84.6552L18.5701 82.99L18.2165 82.6364Z" fill="white"/>
<path d="M82.7719 7.71014L82.7719 7.96014L82.772 7.96014L82.7719 7.71014ZM71.7646 7.71014H71.5146V7.96014H71.7646V7.71014ZM89 13.9215L89.25 13.9215L89.25 13.921L89 13.9215ZM89 78.2337L88.75 78.2337L88.75 78.2338L89 78.2337ZM82.7719 84.4784V84.7284L82.7726 84.7284L82.7719 84.4784ZM82.7719 81.1479L82.7719 81.3979L82.7733 81.3979L82.7719 81.1479ZM85.6695 78.2337L85.4195 78.2337L85.4195 78.2338L85.6695 78.2337ZM85.6695 31.2236H85.9195V30.9736H85.6695V31.2236ZM4.33848 31.2236V30.9736H4.08848V31.2236H4.33848ZM1.00798 13.9215L0.757977 13.921V13.9215H1.00798ZM7.23603 7.71014L7.23593 7.96014H7.23603V7.71014ZM18.1767 7.71014V7.96014H18.4267V7.71014H18.1767ZM18.1767 5.07903L17.9267 5.07856V5.07903H18.1767ZM23.2558 1.30108e-07L23.2558 -0.25L23.2553 -0.249999L23.2558 1.30108e-07ZM25.7203 1.30108e-07L25.7208 -0.25H25.7203V1.30108e-07ZM30.7994 5.07903L31.0494 5.07903L31.0494 5.07856L30.7994 5.07903ZM30.7994 7.71014H30.5494V7.96014H30.7994V7.71014ZM59.142 7.71014V7.96014H59.392V7.71014H59.142ZM59.142 5.07903L59.392 5.07903L59.392 5.07897L59.142 5.07903ZM60.6293 1.48728L60.4525 1.3105L60.4525 1.3105L60.6293 1.48728ZM64.221 1.30108e-07L64.221 0.25H64.221V1.30108e-07ZM66.6856 1.30108e-07L66.6861 -0.25H66.6856V1.30108e-07ZM71.7646 5.07903L72.0146 5.07903L72.0146 5.07856L71.7646 5.07903ZM68.0971 63.4629L67.8471 63.4629L67.8471 63.4638L68.0971 63.4629ZM64.7666 58.0841L64.5734 58.2428L65.0166 58.7823V58.0841H64.7666ZM36.3705 50.242L36.4549 50.4774L36.4549 50.4774L36.3705 50.242ZM19.4217 74.337L19.6717 74.337L19.6717 74.3369L19.4217 74.337ZM22.7522 74.337H23.0022L23.0022 74.3368L22.7522 74.337ZM38.4374 53.0616L38.3637 52.8227L38.3637 52.8227L38.4374 53.0616ZM63.3844 61.7977V62.0477H63.8571L63.591 61.657L63.3844 61.7977ZM66.4318 65.1282L66.4327 64.8782H66.4318V65.1282ZM68.8964 72.755L68.8955 73.005L68.8957 73.005L68.8964 72.755ZM70.5616 74.4203L70.8116 74.4204L70.8116 74.4196L70.5616 74.4203ZM53.5946 98.5017L53.5104 98.2664L53.5104 98.2664L53.5946 98.5017ZM25.2001 90.6565L25.3933 90.4978L24.9501 89.9586V90.6565H25.2001ZM21.8696 85.2778L21.6196 85.277V85.2778H21.8696ZM23.5349 83.6125L23.5349 83.3625L23.5341 83.3625L23.5349 83.6125ZM26.5989 86.943V86.693H26.1263L26.3923 87.0837L26.5989 86.943ZM67.2311 74.4203L67.4811 74.4203L67.4811 74.4194L67.2311 74.4203ZM1 60.5143L0.75 60.5143L0.75 60.5144L1 60.5143ZM2.66525 62.1796L2.66524 62.4296L2.66527 62.4296L2.66525 62.1796ZM4.33051 60.5143L4.58051 60.5144V60.5143H4.33051ZM62.9846 3.84258L62.8078 3.6658L62.8078 3.6658L62.9846 3.84258ZM62.4725 5.07903L62.7225 5.07903L62.7225 5.079L62.4725 5.07903ZM64.221 3.33051L64.221 3.58051H64.221V3.33051ZM66.6856 3.33051L66.6856 3.58051L66.6856 3.58051L66.6856 3.33051ZM67.9221 3.84258L68.0988 3.6658L68.0988 3.6658L67.9221 3.84258ZM68.4341 5.07903L68.1841 5.079V5.07903H68.4341ZM68.4341 13.6551L68.1841 13.6551L68.1841 13.6551L68.4341 13.6551ZM67.922 14.8915L67.7453 14.7148L67.7453 14.7148L67.922 14.8915ZM66.6856 15.4036L66.6856 15.1536H66.6856V15.4036ZM64.221 15.4036L64.221 15.1536L64.221 15.1536L64.221 15.4036ZM62.9846 14.8915L63.1614 14.7148L63.1614 14.7148L62.9846 14.8915ZM62.4725 13.6551L62.7225 13.6551V13.6551H62.4725ZM21.5073 5.07903L21.7573 5.07903L21.7573 5.07899L21.5073 5.07903ZM22.0193 3.84256L21.8425 3.66578L21.8425 3.66578L22.0193 3.84256ZM21.5073 13.6551L21.7573 13.6551V13.6551H21.5073ZM22.0193 14.8916L21.8425 15.0683L21.8425 15.0683L22.0193 14.8916ZM23.2558 15.4036L23.2558 15.1536L23.2557 15.1536L23.2558 15.4036ZM25.7203 15.4036L25.7204 15.1536H25.7203V15.4036ZM26.9568 14.8916L26.78 14.7148L26.78 14.7148L26.9568 14.8916ZM27.4689 13.6551L27.2189 13.6551L27.2189 13.6551L27.4689 13.6551ZM27.4689 5.07903L27.2189 5.07899V5.07903H27.4689ZM26.9568 3.84256L27.1336 3.66578L27.1336 3.66578L26.9568 3.84256ZM25.7203 3.33051L25.7203 3.58051L25.7204 3.58051L25.7203 3.33051ZM23.2558 3.33051L23.2557 3.58051H23.2558V3.33051ZM4.33848 13.9215L4.08848 13.9202V13.9215H4.33848ZM4.33848 27.893H4.08848V28.143H4.33848V27.893ZM7.23603 11.0406L7.2359 11.2906H7.23603V11.0406ZM18.1767 11.0406H18.4267V10.7906H18.1767V11.0406ZM18.1767 13.6551L17.9267 13.6551L17.9267 13.6556L18.1767 13.6551ZM23.2558 18.7341L23.2553 18.9841H23.2558V18.7341ZM25.7203 18.7341L25.7203 18.9841L25.7208 18.9841L25.7203 18.7341ZM30.7994 13.6551L31.0494 13.6556V13.6551H30.7994ZM30.7994 11.0406V10.7906H30.5494V11.0406H30.7994ZM59.142 11.0406H59.392V10.7906H59.142V11.0406ZM59.142 13.6551L59.392 13.6552V13.6551H59.142ZM60.6293 17.2469L60.4525 17.4236L60.4525 17.4236L60.6293 17.2469ZM64.221 18.7341L64.221 18.4841L64.221 18.4841L64.221 18.7341ZM66.6856 18.7341L66.6856 18.9841L66.6861 18.9841L66.6856 18.7341ZM71.7646 13.6551L72.0146 13.6556V13.6551H71.7646ZM71.7646 11.0406V10.7906H71.5146V11.0406H71.7646ZM82.7719 11.0406L82.7719 11.2906L82.7721 11.2906L82.7719 11.0406ZM85.6695 13.9215L85.9195 13.9215L85.9195 13.9202L85.6695 13.9215ZM85.6695 27.893V28.143H85.9195V27.893H85.6695ZM7.23576 84.4784L7.23514 84.7284L7.83965 84.73L7.41278 84.3019L7.23576 84.4784ZM7.23576 81.1479L7.23475 81.3979H7.23576V81.1479ZM16.728 84.4784L16.5512 84.3017L16.1244 84.7284H16.728V84.4784ZM82.7719 7.46014H71.7646V7.96014H82.7719V7.46014ZM89.25 13.921C89.2418 10.3494 86.3434 7.45875 82.7719 7.46014L82.772 7.96014C86.0679 7.95886 88.7425 10.6263 88.75 13.9221L89.25 13.921ZM89.25 78.2337V13.9215H88.75V78.2337H89.25ZM82.7726 84.7284C86.3531 84.7196 89.2507 81.8142 89.25 78.2337L88.75 78.2338C88.7507 81.5386 86.0761 84.2203 82.7713 84.2284L82.7726 84.7284ZM73.28 84.7284H82.7719V84.2284H73.28V84.7284ZM71.3648 82.8132C71.3648 83.871 72.2222 84.7284 73.28 84.7284V84.2284C72.4984 84.2284 71.8648 83.5948 71.8648 82.8132H71.3648ZM73.28 80.8979C72.2222 80.8979 71.3648 81.7554 71.3648 82.8132H71.8648C71.8648 82.0316 72.4984 81.3979 73.28 81.3979V80.8979ZM82.7719 80.8979H73.28V81.3979H82.7719V80.8979ZM85.4195 78.2338C85.4197 79.6993 84.236 80.8897 82.7706 80.8979L82.7733 81.3979C84.5139 81.3882 85.9197 79.9743 85.9195 78.2337L85.4195 78.2338ZM85.4195 31.2236V78.2337H85.9195V31.2236H85.4195ZM4.33848 31.4736H85.6695V30.9736H4.33848V31.4736ZM4.58848 50.2907V31.2236H4.08848V50.2907H4.58848ZM2.67323 52.206C3.731 52.206 4.58848 51.3485 4.58848 50.2907H4.08848C4.08848 51.0724 3.45485 51.706 2.67323 51.706V52.206ZM0.757977 50.2907C0.757977 51.3485 1.61546 52.206 2.67323 52.206V51.706C1.89161 51.706 1.25798 51.0724 1.25798 50.2907H0.757977ZM0.757977 13.9215V50.2907H1.25798V13.9215H0.757977ZM7.23612 7.46014C3.66453 7.45875 0.766155 10.3494 0.757977 13.921L1.25798 13.9221C1.26552 10.6263 3.94011 7.95886 7.23593 7.96014L7.23612 7.46014ZM18.1767 7.46014H7.23603V7.96014H18.1767V7.46014ZM17.9267 5.07903V7.71014H18.4267V5.07903H17.9267ZM23.2553 -0.249999C20.3147 -0.24449 17.9323 2.13796 17.9267 5.07856L18.4267 5.0795C18.4317 2.41431 20.5911 0.254993 23.2562 0.25L23.2553 -0.249999ZM25.7203 -0.25H23.2558V0.25H25.7203V-0.25ZM31.0494 5.07856C31.0439 2.13796 28.6614 -0.24449 25.7208 -0.249999L25.7199 0.25C28.3851 0.254993 30.5444 2.41431 30.5494 5.0795L31.0494 5.07856ZM31.0494 7.71014V5.07903H30.5494V7.71014H31.0494ZM59.142 7.46014H30.7994V7.96014H59.142V7.46014ZM58.892 5.07903V7.71014H59.392V5.07903H58.892ZM60.4525 1.3105C59.453 2.30997 58.8917 3.66563 58.892 5.07909L59.392 5.07897C59.3917 3.79816 59.9004 2.56973 60.806 1.66405L60.4525 1.3105ZM64.2211 -0.25C62.8076 -0.25032 61.452 0.311034 60.4525 1.3105L60.806 1.66405C61.7117 0.758383 62.9402 0.24971 64.221 0.25L64.2211 -0.25ZM66.6856 -0.25H64.221V0.25H66.6856V-0.25ZM72.0146 5.07856C72.0091 2.13797 69.6267 -0.244481 66.6861 -0.249999L66.6851 0.25C69.3503 0.255001 71.5096 2.41432 71.5146 5.0795L72.0146 5.07856ZM72.0146 7.71014V5.07903H71.5146V7.71014H72.0146ZM67.8471 53.3881V63.4629H68.3471V53.3881H67.8471ZM66.4318 51.9729C67.2134 51.9729 67.8471 52.6065 67.8471 53.3881H68.3471C68.3471 52.3303 67.4896 51.4729 66.4318 51.4729V51.9729ZM65.0166 53.3881C65.0166 52.6065 65.6502 51.9729 66.4318 51.9729V51.4729C65.374 51.4729 64.5166 52.3303 64.5166 53.3881H65.0166ZM65.0166 58.0841V53.3881H64.5166V58.0841H65.0166ZM36.4549 50.4774C46.5271 46.8672 57.7814 49.9753 64.5734 58.2428L64.9597 57.9254C58.0337 49.4947 46.5572 46.3252 36.2862 50.0067L36.4549 50.4774ZM19.6717 74.3369C19.6653 63.6372 26.3827 54.0875 36.4549 50.4774L36.2862 50.0067C26.0152 53.6881 19.1651 63.4263 19.1717 74.3372L19.6717 74.3369ZM21.0869 75.7523C20.3053 75.7523 19.6717 75.1187 19.6717 74.337H19.1717C19.1717 75.3948 20.0292 76.2523 21.0869 76.2523V75.7523ZM22.5022 74.337C22.5022 75.1187 21.8686 75.7523 21.0869 75.7523V76.2523C22.1447 76.2523 23.0022 75.3948 23.0022 74.337H22.5022ZM38.3637 52.8227C28.9271 55.7349 22.4935 64.4615 22.5022 74.3373L23.0022 74.3368C22.9937 64.6805 29.2843 56.1479 38.5111 53.3005L38.3637 52.8227ZM63.591 61.657C58.0328 53.4938 47.8003 49.9105 38.3637 52.8227L38.5111 53.3005C47.738 50.453 57.7431 53.9566 63.1777 61.9384L63.591 61.657ZM56.3404 62.0477H63.3844V61.5477H56.3404V62.0477ZM54.9251 63.4629C54.9251 62.6813 55.5587 62.0477 56.3404 62.0477V61.5477C55.2826 61.5477 54.4251 62.4051 54.4251 63.4629H54.9251ZM56.3404 64.8782C55.5587 64.8782 54.9251 64.2445 54.9251 63.4629H54.4251C54.4251 64.5207 55.2826 65.3782 56.3404 65.3782V64.8782ZM66.4318 64.8782H56.3404V65.3782H66.4318V64.8782ZM67.4342 64.4653C67.1687 64.7309 66.8082 64.8795 66.4327 64.8782L66.4309 65.3782C66.9397 65.3799 67.4281 65.1786 67.7878 64.8189L67.4342 64.4653ZM67.8471 63.4638C67.8484 63.8393 67.6998 64.1998 67.4342 64.4653L67.7878 64.8189C68.1475 64.4592 68.3488 63.9708 68.3471 63.462L67.8471 63.4638ZM68.8973 72.505C68.3885 72.5033 67.9001 72.7046 67.5404 73.0643L67.894 73.4179C68.1595 73.1523 68.52 73.0037 68.8955 73.005L68.8973 72.505ZM70.8116 74.4196C70.8086 73.3635 69.9532 72.5081 68.8971 72.505L68.8957 73.005C69.6767 73.0073 70.3094 73.6399 70.3116 74.421L70.8116 74.4196ZM53.6789 98.7371C63.9502 95.0607 70.8062 85.3299 70.8116 74.4204L70.3116 74.4202C70.3063 85.1185 63.583 94.6611 53.5104 98.2664L53.6789 98.7371ZM25.007 90.8153C31.9339 99.2434 43.4075 102.414 53.6789 98.7371L53.5104 98.2664C43.4378 101.872 32.1862 98.7629 25.3933 90.4978L25.007 90.8153ZM25.4501 95.3692V90.6565H24.9501V95.3692H25.4501ZM23.5349 97.2845C24.5926 97.2845 25.4501 96.427 25.4501 95.3692H24.9501C24.9501 96.1508 24.3165 96.7845 23.5349 96.7845V97.2845ZM21.6196 95.3692C21.6196 96.427 22.4771 97.2845 23.5349 97.2845V96.7845C22.7532 96.7845 22.1196 96.1508 22.1196 95.3692H21.6196ZM21.6196 85.2778V95.3692H22.1196V85.2778H21.6196ZM23.5341 83.3625C22.4781 83.3657 21.6228 84.221 21.6196 85.277L22.1196 85.2785C22.1219 84.4974 22.7545 83.8648 23.5356 83.8625L23.5341 83.3625ZM33.6263 83.3625H23.5349V83.8625H33.6263V83.3625ZM35.5416 85.2778C35.5416 84.22 34.6841 83.3625 33.6263 83.3625V83.8625C34.4079 83.8625 35.0416 84.4961 35.0416 85.2778H35.5416ZM33.6263 87.193C34.6841 87.193 35.5416 86.3355 35.5416 85.2778H35.0416C35.0416 86.0594 34.4079 86.693 33.6263 86.693V87.193ZM26.5989 87.193H33.6263V86.693H26.5989V87.193ZM51.4643 95.4426C42.2393 98.2858 32.2385 94.7815 26.8056 86.8023L26.3923 87.0837C31.9487 95.2443 42.1768 98.8282 51.6116 95.9204L51.4643 95.4426ZM66.9811 74.4203C66.9824 84.0736 60.6894 92.5995 51.4643 95.4426L51.6116 95.9204C61.0463 93.0127 67.4825 84.2929 67.4811 74.4203L66.9811 74.4203ZM67.5404 73.0643C67.1807 73.424 66.9794 73.9124 66.9811 74.4212L67.4811 74.4194C67.4798 74.0439 67.6284 73.6834 67.894 73.4179L67.5404 73.0643ZM0.75 60.5144C0.750053 61.5721 1.6075 62.4295 2.66524 62.4296L2.66527 61.9296C1.88365 61.9296 1.25004 61.2959 1.25 60.5143L0.75 60.5144ZM0.75 57.5944V60.5143H1.25V57.5944H0.75ZM2.66525 55.6792C1.60749 55.6792 0.75 56.5367 0.75 57.5944H1.25C1.25 56.8128 1.88363 56.1792 2.66525 56.1792V55.6792ZM4.58051 57.5944C4.58051 56.5367 3.72302 55.6792 2.66525 55.6792V56.1792C3.44688 56.1792 4.08051 56.8128 4.08051 57.5944H4.58051ZM4.58051 60.5143V57.5944H4.08051V60.5143H4.58051ZM2.66527 62.4296C3.723 62.4295 4.58044 61.5721 4.58051 60.5144L4.08051 60.5143C4.08046 61.2959 3.44685 61.9296 2.66524 61.9296L2.66527 62.4296ZM62.8078 3.6658C62.433 4.04062 62.2224 4.54899 62.2225 5.07906L62.7225 5.079C62.7225 4.68156 62.8803 4.30039 63.1613 4.01935L62.8078 3.6658ZM64.2211 3.08051C63.691 3.08045 63.1826 3.29099 62.8078 3.6658L63.1613 4.01935C63.4424 3.73832 63.8236 3.58046 64.221 3.58051L64.2211 3.08051ZM66.6856 3.08051H64.221V3.58051H66.6856V3.08051ZM68.0988 3.6658C67.724 3.29099 67.2156 3.08045 66.6856 3.08051L66.6856 3.58051C67.0831 3.58046 67.4642 3.73832 67.7453 4.01936L68.0988 3.6658ZM68.6841 5.07906C68.6842 4.54899 68.4736 4.04062 68.0988 3.6658L67.7453 4.01935C68.0263 4.30039 68.1842 4.68156 68.1841 5.079L68.6841 5.07906ZM68.6841 13.6551V5.07903H68.1841V13.6551H68.6841ZM68.0988 15.0683C68.4736 14.6935 68.6842 14.1851 68.6841 13.6551L68.1841 13.6551C68.1842 14.0526 68.0263 14.4337 67.7453 14.7148L68.0988 15.0683ZM66.6856 15.6536C67.2156 15.6537 67.724 15.4431 68.0988 15.0683L67.7453 14.7148C67.4642 14.9958 67.0831 15.1537 66.6856 15.1536L66.6856 15.6536ZM64.221 15.6536H66.6856V15.1536H64.221V15.6536ZM62.8078 15.0683C63.1826 15.4431 63.691 15.6537 64.221 15.6536L64.221 15.1536C63.8236 15.1537 63.4424 14.9958 63.1614 14.7148L62.8078 15.0683ZM62.2225 13.6551C62.2225 14.1851 62.433 14.6935 62.8078 15.0683L63.1614 14.7148C62.8803 14.4337 62.7225 14.0526 62.7225 13.6551L62.2225 13.6551ZM62.2225 5.07903V13.6551H62.7225V5.07903H62.2225ZM21.7573 5.07899C21.7572 4.68155 21.915 4.30037 22.1961 4.01934L21.8425 3.66578C21.4677 4.0406 21.2572 4.54899 21.2573 5.07907L21.7573 5.07899ZM21.7573 13.6551V5.07903H21.2573V13.6551H21.7573ZM22.1961 14.7148C21.9151 14.4337 21.7572 14.0526 21.7573 13.6551L21.2573 13.6551C21.2572 14.1851 21.4677 14.6935 21.8425 15.0683L22.1961 14.7148ZM23.2557 15.1536C22.8583 15.1537 22.4771 14.9958 22.1961 14.7148L21.8425 15.0683C22.2174 15.4432 22.7257 15.6537 23.2558 15.6536L23.2557 15.1536ZM25.7203 15.1536H23.2558V15.6536H25.7203V15.1536ZM26.78 14.7148C26.499 14.9958 26.1178 15.1537 25.7204 15.1536L25.7203 15.6536C26.2504 15.6537 26.7588 15.4431 27.1336 15.0683L26.78 14.7148ZM27.2189 13.6551C27.2189 14.0526 27.0611 14.4337 26.78 14.7148L27.1336 15.0683C27.5084 14.6935 27.7189 14.1851 27.7189 13.6551L27.2189 13.6551ZM27.2189 5.07903V13.6551H27.7189V5.07903H27.2189ZM26.78 4.01934C27.0611 4.30037 27.2189 4.68155 27.2189 5.07899L27.7189 5.07907C27.7189 4.54899 27.5084 4.0406 27.1336 3.66578L26.78 4.01934ZM25.7204 3.58051C26.1178 3.58045 26.499 3.7383 26.78 4.01934L27.1336 3.66578C26.7588 3.29096 26.2504 3.08043 25.7203 3.08051L25.7204 3.58051ZM23.2558 3.58051H25.7203V3.08051H23.2558V3.58051ZM22.1961 4.01934C22.4771 3.7383 22.8583 3.58045 23.2557 3.58051L23.2558 3.08051C22.7257 3.08043 22.2173 3.29096 21.8425 3.66578L22.1961 4.01934ZM4.08848 13.9215V27.893H4.58848V13.9215H4.08848ZM7.23616 10.7906C5.50442 10.7897 4.09756 12.1885 4.08849 13.9202L4.58848 13.9229C4.59611 12.4664 5.77938 11.2899 7.2359 11.2906L7.23616 10.7906ZM18.1767 10.7906H7.23603V11.2906H18.1767V10.7906ZM18.4267 13.6551V11.0406H17.9267V13.6551H18.4267ZM23.2562 18.4841C20.5911 18.4791 18.4317 16.3198 18.4267 13.6546L17.9267 13.6556C17.9323 16.5962 20.3147 18.9786 23.2553 18.9841L23.2562 18.4841ZM25.7203 18.4841H23.2558V18.9841H25.7203V18.4841ZM30.5494 13.6546C30.5444 16.3198 28.3851 18.4791 25.7199 18.4841L25.7208 18.9841C28.6614 18.9786 31.0439 16.5962 31.0494 13.6556L30.5494 13.6546ZM30.5494 11.0406V13.6551H31.0494V11.0406H30.5494ZM59.142 10.7906H30.7994V11.2906H59.142V10.7906ZM59.392 13.6551V11.0406H58.892V13.6551H59.392ZM60.806 17.0701C59.9004 16.1644 59.3917 14.936 59.392 13.6552L58.892 13.655C58.8917 15.0685 59.453 16.4242 60.4525 17.4236L60.806 17.0701ZM64.221 18.4841C62.9401 18.4844 61.7117 17.9757 60.806 17.0701L60.4525 17.4236C61.452 18.4231 62.8076 18.9845 64.2211 18.9841L64.221 18.4841ZM66.6856 18.4841H64.221V18.9841H66.6856V18.4841ZM71.5146 13.6546C71.5096 16.3198 69.3503 18.4791 66.6851 18.4841L66.6861 18.9841C69.6267 18.9786 72.0091 16.5962 72.0146 13.6556L71.5146 13.6546ZM71.5146 11.0406V13.6551H72.0146V11.0406H71.5146ZM82.7719 10.7906H71.7646V11.2906H82.7719V10.7906ZM85.9195 13.9202C85.9104 12.1885 84.5036 10.7897 82.7718 10.7906L82.7721 11.2906C84.2286 11.2899 85.4119 12.4664 85.4195 13.9229L85.9195 13.9202ZM85.9195 27.893V13.9215H85.4195V27.893H85.9195ZM4.33848 28.143H85.6695V27.643H4.33848V28.143ZM7.23638 84.2284C3.93171 84.2202 1.25733 81.5385 1.25813 78.2338L0.758126 78.2337C0.757265 81.8141 3.65476 84.7195 7.23514 84.7284L7.23638 84.2284ZM7.41278 84.3019L1.18515 78.0572L0.831108 78.4103L7.05874 84.655L7.41278 84.3019ZM1.25813 78.2337V67.8096H0.758126V78.2337H1.25813ZM1.25813 78.2337V67.8096H0.758126V78.2337H1.25813ZM1.25813 67.8096C1.25813 67.028 1.89176 66.3943 2.67338 66.3943V65.8943C1.61562 65.8943 0.758126 66.7518 0.758126 67.8096H1.25813ZM1.1849 67.9864L2.85016 66.3211L2.4966 65.9675L0.83135 67.6328L1.1849 67.9864ZM2.67338 66.3943C3.455 66.3943 4.08863 67.028 4.08863 67.8096H4.58863C4.58863 66.7518 3.73115 65.8943 2.67338 65.8943V66.3943ZM2.4966 66.3211L4.16186 67.9864L4.51541 67.6328L2.85016 65.9675L2.4966 66.3211ZM4.08863 67.8096V78.2337H4.58863V67.8096H4.08863ZM4.08863 67.8096V78.2337H4.58863V67.8096H4.08863ZM4.08863 78.2333C4.08546 79.9752 5.49289 81.3909 7.23475 81.3979L7.23677 80.8979C5.77062 80.892 4.58596 79.7004 4.58863 78.2342L4.08863 78.2333ZM4.16134 78.41L7.05846 81.3242L7.41306 80.9717L4.51593 78.0575L4.16134 78.41ZM7.23576 81.3979H16.728V80.8979H7.23576V81.3979ZM7.23576 81.3979H16.728V80.8979H7.23576V81.3979ZM16.728 81.3979C17.5096 81.3979 18.1433 82.0316 18.1433 82.8132H18.6433C18.6433 81.7554 17.7858 80.8979 16.728 80.8979V81.3979ZM16.5512 81.3247L18.2165 82.99L18.5701 82.6364L16.9048 80.9712L16.5512 81.3247ZM18.1433 82.8132C18.1433 83.5948 17.5097 84.2284 16.728 84.2284V84.7284C17.7858 84.7284 18.6433 83.871 18.6433 82.8132H18.1433ZM18.2165 82.6364L16.5512 84.3017L16.9047 84.6552L18.5701 82.99L18.2165 82.6364Z" fill="#007AFF" fill-opacity="0.04"/>
</svg>
