<svg width="107" height="101" viewBox="0 0 107 101" fill="none" xmlns="http://www.w3.org/2000/svg">
<path fill-rule="evenodd" clip-rule="evenodd" d="M102.992 41.064C103.525 40.3065 104.556 40.1343 105.312 40.6853C106.051 41.219 106.223 42.2693 105.69 42.9924L100.552 50.1033C100.243 50.551 99.7271 50.792 99.2115 50.792C98.8679 50.792 98.5242 50.6887 98.232 50.4821L91.1349 45.334C90.3788 44.8003 90.2241 43.75 90.7569 43.0096C91.2896 42.2521 92.3206 42.0971 93.0767 42.6309L97.4072 45.7817C95.809 21.832 76.2361 3.34022 52.0405 3.34022C28.2402 3.34022 8.66727 21.7631 6.75981 45.1446L7.15505 44.7486C7.16364 44.74 7.16794 44.7314 7.17223 44.7228C7.17653 44.7142 7.18083 44.7056 7.18942 44.697C7.19801 44.6884 7.2066 44.6841 7.2152 44.6797C7.22379 44.6754 7.23238 44.6711 7.24097 44.6625L8.75319 43.1302C9.01096 42.8719 9.26872 42.6653 9.54367 42.4587C11.8807 40.9091 14.888 41.219 16.7783 43.1129L23.8926 50.241C26.1094 52.4449 26.1094 56.0606 23.8926 58.2817L18.5483 63.6364C18.4967 63.688 18.4795 63.7913 18.5139 63.843C20.765 67.4415 23.463 70.8161 26.5562 73.9153C29.804 77.1866 33.3783 80.0103 37.1933 82.3347C37.2448 82.3864 37.3479 82.3519 37.3995 82.3003L42.6407 77.0489C44.8575 74.8278 48.449 74.8278 50.6658 77.0489L57.7801 84.177C59.4126 85.8127 59.8938 88.2576 59.0002 90.4098C58.7081 91.0985 58.2785 91.7355 57.7801 92.2348L55.6836 94.3182C74.0193 92.8547 89.7086 80.5441 95.3623 62.741C95.6544 61.8629 96.5823 61.3809 97.4587 61.6563C98.3351 61.949 98.8163 62.8788 98.5414 63.7569C92.08 84.0909 73.4179 97.7617 52.1093 97.7961C50.5111 99.1736 48.5177 99.9656 46.3697 100H45.9917C36.6777 100 25.2158 94.2837 15.9534 85.0034C6.57078 75.6026 0.848399 63.9291 1.00306 54.5455C1.03743 52.376 1.84509 50.3616 3.23702 48.7431C3.32294 21.8492 25.1814 0 52.0405 0C77.5937 0 98.3351 19.2149 100.638 44.3182L102.992 41.064ZM55.4259 86.5358L48.3115 79.4077C47.4008 78.478 45.9057 78.478 44.9778 79.4077L44.5825 79.8037L55.0306 90.272L55.443 89.876C55.6493 89.6694 55.8211 89.4112 55.9414 89.1185C56.3023 88.2231 56.096 87.2073 55.4259 86.5358ZM16.2112 61.2603C15.0427 62.4311 14.8364 64.2218 15.6957 65.5992C18.0843 69.4043 20.9369 72.9855 24.2019 76.2569C27.6388 79.7004 31.4365 82.6963 35.4748 85.1584C36.8496 86.0021 38.6196 85.7782 39.7709 84.6247L42.2455 82.1453L52.6764 92.5964L50.2877 94.9897C49.2395 96.0399 47.8304 96.6253 46.3182 96.6426H45.9745C37.5198 96.6426 26.9686 91.3051 18.3077 82.6274C9.54367 73.8464 4.18216 63.1026 4.33682 54.5971C4.37119 53.082 4.95546 51.6701 5.98652 50.6026L8.35795 48.1922L18.7888 58.6433L16.2112 61.2603ZM12.7571 44.7658C12.3104 44.7658 11.8464 44.9036 11.4511 45.1618C11.3996 45.1963 11.2449 45.3168 11.1074 45.4545L10.7122 45.8505L21.1431 56.3017L21.5383 55.9056C22.4491 54.9931 22.4491 53.4952 21.5383 52.5826L14.424 45.4545C13.9772 45.0069 13.3758 44.7658 12.7571 44.7658Z" fill="#007AFF"/>
<path d="M105.312 40.6853L105.165 40.8873L105.166 40.8879L105.312 40.6853ZM102.992 41.064L103.195 41.2106L103.197 41.2079L102.992 41.064ZM105.69 42.9924L105.489 42.8441L105.487 42.846L105.69 42.9924ZM100.552 50.1033L100.349 49.9569L100.346 49.9612L100.552 50.1033ZM98.232 50.4821L98.0852 50.6845L98.0877 50.6862L98.232 50.4821ZM91.1349 45.334L91.2817 45.1316L91.2791 45.1298L91.1349 45.334ZM90.7569 43.0096L90.9598 43.1557L90.9613 43.1534L90.7569 43.0096ZM93.0767 42.6309L93.2238 42.4287L93.2209 42.4266L93.0767 42.6309ZM97.4072 45.7817L97.2601 45.9838L97.6922 46.2982L97.6566 45.765L97.4072 45.7817ZM6.75981 45.1446L6.51064 45.1243L6.45521 45.8037L6.93676 45.3212L6.75981 45.1446ZM7.15505 44.7486L7.332 44.9252L7.33201 44.9252L7.15505 44.7486ZM7.2152 44.6797L7.10325 44.4562L7.10317 44.4562L7.2152 44.6797ZM7.24097 44.6625L7.41793 44.8391L7.41891 44.8381L7.24097 44.6625ZM8.75319 43.1302L8.57624 42.9536L8.57525 42.9546L8.75319 43.1302ZM9.54367 42.4587L9.40552 42.2503L9.39938 42.2544L9.39349 42.2588L9.54367 42.4587ZM16.7783 43.1129L16.6013 43.2896L16.7783 43.1129ZM23.8926 50.241L23.7156 50.4177L23.7163 50.4183L23.8926 50.241ZM23.8926 58.2817L23.7156 58.1051L23.8926 58.2817ZM18.5483 63.6364L18.7252 63.813L18.7252 63.813L18.5483 63.6364ZM18.5139 63.843L18.7259 63.7103L18.722 63.7045L18.5139 63.843ZM26.5562 73.9153L26.7336 73.7392L26.7331 73.7387L26.5562 73.9153ZM37.1933 82.3347L37.3702 82.1581L37.349 82.1368L37.3233 82.1212L37.1933 82.3347ZM37.3995 82.3003L37.5764 82.4769H37.5764L37.3995 82.3003ZM42.6407 77.0489L42.8177 77.2255L42.6407 77.0489ZM50.6658 77.0489L50.4888 77.2255L50.6658 77.0489ZM57.7801 84.177L57.9571 84.0004L57.7801 84.177ZM59.0002 90.4098L59.2304 90.5074L59.2311 90.5056L59.0002 90.4098ZM57.7801 92.2348L57.9563 92.4122L57.9571 92.4115L57.7801 92.2348ZM55.6836 94.3182L55.5074 94.1409L55.0236 94.6217L55.7035 94.5674L55.6836 94.3182ZM95.3623 62.741L95.125 62.6621L95.124 62.6654L95.3623 62.741ZM97.4587 61.6563L97.5379 61.4192L97.5337 61.4178L97.4587 61.6563ZM98.5414 63.7569L98.7796 63.8326L98.7799 63.8316L98.5414 63.7569ZM52.1093 97.7961L52.1089 97.5461L52.0162 97.5463L51.9461 97.6068L52.1093 97.7961ZM46.3697 100V100.25L46.3737 100.25L46.3697 100ZM15.9534 85.0034L16.1304 84.8268L15.9534 85.0034ZM1.00306 54.5455L1.25302 54.5496L1.25303 54.5494L1.00306 54.5455ZM3.23702 48.7431L3.42656 48.9061L3.48673 48.8362L3.48702 48.7439L3.23702 48.7431ZM100.638 44.3182L100.389 44.341L100.45 45.0047L100.84 44.4647L100.638 44.3182ZM48.3115 79.4077L48.1329 79.5827L48.1346 79.5843L48.3115 79.4077ZM55.4259 86.5358L55.2489 86.7124L55.4259 86.5358ZM44.9778 79.4077L44.8008 79.2311L44.9778 79.4077ZM44.5825 79.8037L44.4056 79.6271L44.2293 79.8037L44.4056 79.9803L44.5825 79.8037ZM55.0306 90.272L54.8537 90.4486L55.0269 90.6222L55.2038 90.4524L55.0306 90.272ZM55.443 89.876L55.6162 90.0564L55.62 90.0526L55.443 89.876ZM55.9414 89.1185L56.1726 89.2135L56.1733 89.2119L55.9414 89.1185ZM15.6957 65.5992L15.4836 65.7315L15.4839 65.7321L15.6957 65.5992ZM16.2112 61.2603L16.3881 61.4369L16.3893 61.4358L16.2112 61.2603ZM24.2019 76.2569L24.3789 76.0803L24.2019 76.2569ZM35.4748 85.1584L35.6056 84.9453L35.605 84.9449L35.4748 85.1584ZM39.7709 84.6247L39.9479 84.8013L39.7709 84.6247ZM42.2455 82.1453L42.4224 81.9687L42.2455 81.7914L42.0685 81.9687L42.2455 82.1453ZM52.6764 92.5964L52.8533 92.773L53.0296 92.5964L52.8533 92.4198L52.6764 92.5964ZM50.2877 94.9897L50.1108 94.8131L50.2877 94.9897ZM46.3182 96.6426V96.8926L46.321 96.8925L46.3182 96.6426ZM18.3077 82.6274L18.4846 82.4508L18.3077 82.6274ZM4.33682 54.5971L4.08688 54.5914L4.08686 54.5926L4.33682 54.5971ZM5.98652 50.6026L5.80829 50.4273L5.8067 50.4289L5.98652 50.6026ZM8.35795 48.1922L8.5349 48.0155L8.35668 47.837L8.17974 48.0168L8.35795 48.1922ZM18.7888 58.6433L18.967 58.8187L19.1409 58.6421L18.9658 58.4666L18.7888 58.6433ZM11.4511 45.1618L11.3144 44.9525L11.3123 44.954L11.4511 45.1618ZM11.1074 45.4545L11.2844 45.6311L11.1074 45.4545ZM10.7122 45.8505L10.5353 45.6739L10.359 45.8505L10.5353 46.0272L10.7122 45.8505ZM21.1431 56.3017L20.9662 56.4783L21.1431 56.6555L21.32 56.4783L21.1431 56.3017ZM21.5383 55.9056L21.7153 56.0823H21.7153L21.5383 55.9056ZM21.5383 52.5826L21.7153 52.406L21.5383 52.5826ZM14.424 45.4545L14.2471 45.6311L14.424 45.4545ZM105.459 40.4832C104.591 39.8503 103.401 40.0479 102.788 40.9202L103.197 41.2079C103.649 40.565 104.521 40.4183 105.165 40.8873L105.459 40.4832ZM105.891 43.1407C106.508 42.3029 106.307 41.0957 105.458 40.4826L105.166 40.8879C105.795 41.3423 105.937 42.2356 105.489 42.8441L105.891 43.1407ZM100.755 50.2497L105.893 43.1388L105.487 42.846L100.349 49.9569L100.755 50.2497ZM99.2115 51.042C99.802 51.042 100.398 50.7663 100.758 50.2454L100.346 49.9612C100.088 50.3356 99.6521 50.542 99.2115 50.542V51.042ZM98.0877 50.6862C98.4235 50.9237 98.8179 51.042 99.2115 51.042V50.542C98.9178 50.542 98.6249 50.4537 98.3764 50.278L98.0877 50.6862ZM90.9881 45.5364L98.0853 50.6845L98.3788 50.2797L91.2817 45.1317L90.9881 45.5364ZM90.5539 42.8636C89.9427 43.7131 90.1174 44.9218 90.9907 45.5383L91.2791 45.1298C90.6402 44.6788 90.5055 43.7869 90.9598 43.1557L90.5539 42.8636ZM93.2209 42.4266C92.3572 41.8169 91.1683 41.9899 90.5524 42.8658L90.9613 43.1534C91.4109 42.5142 92.2841 42.3773 92.9326 42.8351L93.2209 42.4266ZM97.5543 45.5795L93.2238 42.4287L92.9296 42.833L97.2601 45.9838L97.5543 45.5795ZM52.0405 3.59022C76.1038 3.59022 95.5683 21.9792 97.1577 45.7983L97.6566 45.765C96.0498 21.6847 76.3684 3.09022 52.0405 3.09022V3.59022ZM7.00898 45.165C8.906 21.9115 28.3721 3.59022 52.0405 3.59022V3.09022C28.1084 3.09022 8.42855 21.6147 6.51064 45.1243L7.00898 45.165ZM6.9781 44.572L6.58286 44.968L6.93676 45.3212L7.332 44.9252L6.9781 44.572ZM6.94854 44.6112C6.94428 44.6197 6.9552 44.595 6.97809 44.572L7.33201 44.9252C7.37209 44.8851 7.3916 44.8431 7.39593 44.8344L6.94854 44.6112ZM7.0125 44.5203C6.97239 44.5605 6.95287 44.6025 6.94854 44.6112L7.39593 44.8344C7.4002 44.8259 7.38926 44.8506 7.36634 44.8736L7.0125 44.5203ZM7.10317 44.4562C7.09447 44.4606 7.05258 44.4802 7.0125 44.5203L7.36634 44.8736C7.34344 44.8965 7.31873 44.9075 7.32722 44.9032L7.10317 44.4562ZM7.06401 44.4859C7.08696 44.4629 7.11173 44.452 7.10325 44.4562L7.32714 44.9033C7.33585 44.8989 7.3778 44.8793 7.41793 44.8391L7.06401 44.4859ZM8.57525 42.9546L7.06303 44.4869L7.41891 44.8381L8.93114 43.3058L8.57525 42.9546ZM9.39349 42.2588C9.11453 42.4684 8.8461 42.6832 8.57625 42.9536L8.93014 43.3068C9.17582 43.0606 9.42292 42.8621 9.69386 42.6585L9.39349 42.2588ZM16.9552 42.9363C14.9789 40.9562 11.8394 40.6365 9.40552 42.2503L9.68183 42.667C11.9221 41.1817 14.7971 41.4819 16.6013 43.2896L16.9552 42.9363ZM24.0695 50.0644L16.9552 42.9363L16.6013 43.2896L23.7156 50.4177L24.0695 50.0644ZM24.0695 58.4583C26.3833 56.14 26.3843 52.3657 24.0689 50.0638L23.7163 50.4183C25.8344 52.5241 25.8354 55.9812 23.7156 58.1051L24.0695 58.4583ZM18.7252 63.813L24.0695 58.4583L23.7156 58.1051L18.3713 63.4598L18.7252 63.813ZM18.722 63.7045C18.7395 63.7307 18.7439 63.753 18.7452 63.7625C18.7466 63.7727 18.7458 63.7788 18.7455 63.7807C18.7451 63.7829 18.7445 63.7855 18.7427 63.7893C18.741 63.7928 18.7363 63.8019 18.7252 63.813L18.3713 63.4598C18.3003 63.5309 18.265 63.6218 18.2522 63.6987C18.2403 63.7706 18.2398 63.8824 18.3058 63.9815L18.722 63.7045ZM26.7331 73.7387C23.6527 70.6523 20.9666 67.2923 18.7258 63.7104L18.302 63.9756C20.5635 67.5906 23.2733 70.9799 26.3792 74.0919L26.7331 73.7387ZM37.3233 82.1212C33.526 79.8075 29.9675 76.9965 26.7336 73.7392L26.3788 74.0914C29.6405 77.3768 33.2307 80.2131 37.0632 82.5482L37.3233 82.1212ZM37.2225 82.1237C37.2285 82.1177 37.2322 82.1157 37.2329 82.1153C37.2337 82.1149 37.2363 82.1135 37.2421 82.1122C37.245 82.1116 37.3104 82.0982 37.3702 82.1581L37.0163 82.5113C37.1277 82.6229 37.2704 82.6181 37.3507 82.6003C37.435 82.5815 37.5164 82.537 37.5764 82.4769L37.2225 82.1237ZM42.4638 76.8723L37.2225 82.1237L37.5764 82.4769L42.8177 77.2255L42.4638 76.8723ZM50.8427 76.8723C48.5283 74.5534 44.7782 74.5534 42.4638 76.8723L42.8177 77.2255C44.9368 75.1023 48.3697 75.1023 50.4888 77.2255L50.8427 76.8723ZM57.9571 84.0004L50.8427 76.8723L50.4888 77.2255L57.6032 84.3536L57.9571 84.0004ZM59.2311 90.5056C60.1632 88.2607 59.6615 85.7081 57.9571 84.0004L57.6032 84.3536C59.1637 85.9172 59.6244 88.2544 58.7693 90.3139L59.2311 90.5056ZM57.9571 92.4115C58.4786 91.8889 58.926 91.2248 59.2303 90.5074L58.77 90.3122C58.4901 90.9721 58.0783 91.5822 57.6032 92.0582L57.9571 92.4115ZM55.8598 94.4955L57.9563 92.4122L57.6039 92.0575L55.5074 94.1409L55.8598 94.4955ZM95.124 62.6654C89.5012 80.3711 73.8986 92.6135 55.6637 94.069L55.7035 94.5674C74.14 93.0958 89.916 80.7171 95.6005 62.8167L95.124 62.6654ZM97.5337 61.4178C96.5247 61.1007 95.4594 61.657 95.125 62.6621L95.5995 62.82C95.8493 62.0689 96.64 61.661 97.3838 61.8948L97.5337 61.4178ZM98.7799 63.8316C99.0961 62.8218 98.5418 61.7545 97.5379 61.4192L97.3795 61.8935C98.1285 62.1436 98.5365 62.9358 98.3028 63.6822L98.7799 63.8316ZM52.1097 98.0461C73.5271 98.0115 92.2854 84.2702 98.7796 63.8326L98.3031 63.6812C91.8747 83.9116 73.3086 97.5119 52.1089 97.5461L52.1097 98.0461ZM46.3737 100.25C48.5824 100.215 50.6316 99.3998 52.2725 97.9855L51.9461 97.6068C50.3907 98.9473 48.4531 99.7166 46.3657 99.75L46.3737 100.25ZM45.9917 100.25H46.3697V99.75H45.9917V100.25ZM15.7765 85.18C25.0665 94.488 36.5883 100.25 45.9917 100.25V99.75C36.7672 99.75 25.3651 94.0794 16.1304 84.8268L15.7765 85.18ZM0.753091 54.5413C0.596924 64.0165 6.36606 75.7514 15.7765 85.18L16.1304 84.8268C6.77551 75.4538 1.09987 63.8417 1.25302 54.5496L0.753091 54.5413ZM3.04748 48.5801C1.6193 50.2407 0.788428 52.3108 0.753089 54.5415L1.25303 54.5494C1.28642 52.4413 2.07088 50.4824 3.42656 48.9061L3.04748 48.5801ZM52.0405 -0.25C25.0431 -0.25 3.07338 21.7111 2.98702 48.7423L3.48702 48.7439C3.5725 21.9872 25.3197 0.25 52.0405 0.25V-0.25ZM100.887 44.2953C98.5724 19.0643 77.7238 -0.25 52.0405 -0.25V0.25C77.4635 0.25 98.0979 19.3655 100.389 44.341L100.887 44.2953ZM102.79 40.9175L100.435 44.1716L100.84 44.4647L103.195 41.2106L102.79 40.9175ZM48.1346 79.5843L55.2489 86.7124L55.6028 86.3592L48.4885 79.2311L48.1346 79.5843ZM45.1547 79.5843C45.9859 78.7515 47.3211 78.7539 48.1329 79.5826L48.4901 79.2328C47.4804 78.202 45.8255 78.2044 44.8008 79.2311L45.1547 79.5843ZM44.7595 79.9803L45.1547 79.5843L44.8008 79.2311L44.4056 79.6271L44.7595 79.9803ZM55.2076 90.0954L44.7595 79.6271L44.4056 79.9803L54.8537 90.4486L55.2076 90.0954ZM55.2699 89.6957L54.8575 90.0917L55.2038 90.4524L55.6162 90.0564L55.2699 89.6957ZM55.7101 89.0234C55.6019 89.2869 55.4481 89.5171 55.2661 89.6994L55.62 90.0526C55.8504 89.8217 56.0403 89.5354 56.1726 89.2135L55.7101 89.0234ZM55.2489 86.7124C55.8476 87.3122 56.0333 88.2216 55.7095 89.025L56.1733 89.2119C56.5712 88.2247 56.3445 87.1023 55.6028 86.3592L55.2489 86.7124ZM15.9078 65.4669C15.111 64.1895 15.3006 62.5266 16.3881 61.4369L16.0342 61.0837C14.7848 62.3356 14.5619 64.2541 15.4836 65.7315L15.9078 65.4669ZM24.3789 76.0803C21.1268 72.822 18.2859 69.2553 15.9074 65.4663L15.4839 65.7321C17.8826 69.5533 20.747 73.1491 24.025 76.4335L24.3789 76.0803ZM35.605 84.9449C31.5841 82.4934 27.802 79.51 24.3789 76.0803L24.025 76.4335C27.4756 79.8908 31.289 82.8991 35.3447 85.3719L35.605 84.9449ZM39.594 84.4481C38.5225 85.5216 36.8794 85.7271 35.6056 84.9453L35.3441 85.3715C36.8197 86.2771 38.7166 86.0349 39.9479 84.8013L39.594 84.4481ZM42.0685 81.9687L39.594 84.4481L39.9479 84.8013L42.4224 82.3219L42.0685 81.9687ZM52.8533 92.4198L42.4224 81.9687L42.0685 82.3219L52.4994 92.773L52.8533 92.4198ZM50.4647 95.1663L52.8533 92.773L52.4994 92.4198L50.1108 94.8131L50.4647 95.1663ZM46.321 96.8925C47.897 96.8746 49.3691 96.264 50.4647 95.1663L50.1108 94.8131C49.1099 95.8159 47.7638 96.3761 46.3153 96.3926L46.321 96.8925ZM45.9745 96.8926H46.3182V96.3926H45.9745V96.8926ZM18.1307 82.804C26.8175 91.5077 37.4286 96.8926 45.9745 96.8926V96.3926C37.6109 96.3926 27.1196 91.1025 18.4846 82.4508L18.1307 82.804ZM4.08686 54.5926C3.9305 63.1919 9.34102 73.9973 18.1307 82.804L18.4846 82.4508C9.74633 73.6956 4.43382 63.0134 4.58678 54.6017L4.08686 54.5926ZM5.8067 50.4289C4.73111 51.5425 4.12265 53.0147 4.08688 54.5914L4.58675 54.6028C4.61973 53.1492 5.1798 51.7977 6.16633 50.7763L5.8067 50.4289ZM8.17974 48.0168L5.8083 50.4273L6.16473 50.7779L8.53617 48.3675L8.17974 48.0168ZM18.9658 58.4666L8.5349 48.0155L8.18101 48.3688L18.6119 58.8199L18.9658 58.4666ZM16.3893 61.4358L18.967 58.8187L18.6107 58.4678L16.0331 61.0849L16.3893 61.4358ZM11.5879 45.3711C11.9435 45.1388 12.3601 45.0158 12.7571 45.0158V44.5158C12.2606 44.5158 11.7493 44.6684 11.3144 44.9526L11.5879 45.3711ZM11.2844 45.6311C11.4114 45.5039 11.5534 45.3942 11.59 45.3697L11.3123 44.954C11.2458 44.9984 11.0785 45.1297 10.9305 45.2779L11.2844 45.6311ZM10.8892 46.0272L11.2844 45.6311L10.9305 45.2779L10.5353 45.6739L10.8892 46.0272ZM21.32 56.125L10.8892 45.6739L10.5353 46.0272L20.9662 56.4783L21.32 56.125ZM21.3614 55.729L20.9662 56.125L21.32 56.4783L21.7153 56.0823L21.3614 55.729ZM21.3614 52.7592C22.1748 53.5742 22.1748 54.9141 21.3614 55.729L21.7153 56.0823C22.7235 55.0721 22.7235 53.4162 21.7153 52.406L21.3614 52.7592ZM14.2471 45.6311L21.3614 52.7592L21.7153 52.406L14.601 45.2779L14.2471 45.6311ZM12.7571 45.0158C13.3109 45.0158 13.8482 45.2315 14.2471 45.6311L14.601 45.2779C14.1062 44.7822 13.4406 44.5158 12.7571 44.5158V45.0158Z" fill="white"/>
<path d="M52.0419 16.5291C52.9698 16.5291 53.7088 15.7887 53.7088 14.859V8.95331C53.7088 8.02356 52.9698 7.2832 52.0419 7.2832C51.1139 7.2832 50.375 8.02356 50.375 8.95331V14.859C50.375 15.7887 51.1139 16.5291 52.0419 16.5291Z" fill="#007AFF" stroke="white" stroke-width="0.5"/>
<path d="M30.4563 13.0858C29.6658 13.5506 29.3909 14.5665 29.8549 15.3585L32.7934 20.4721C33.1027 21.0059 33.6698 21.2986 34.2369 21.2986C34.5118 21.2986 34.804 21.2297 35.0617 21.0748C35.8522 20.6099 36.1271 19.594 35.6632 18.802L32.7246 13.6884C32.2779 12.8964 31.2468 12.6209 30.4563 13.0858Z" fill="#007AFF" stroke="white" stroke-width="0.5"/>
<path d="M71.3403 87.3794C71.6496 87.9131 72.2167 88.2058 72.7837 88.2058C73.0587 88.2058 73.3508 88.1369 73.6086 87.982C74.3991 87.5171 74.674 86.5013 74.21 85.7093L71.2715 80.5956C70.8075 79.8036 69.7937 79.5281 69.0032 79.993C68.2127 80.4579 67.9378 81.4737 68.4017 82.2657L71.3403 87.3794Z" fill="#007AFF" stroke="white" stroke-width="0.5"/>
<path d="M16.9318 28.3055C16.1413 27.8406 15.1103 28.1161 14.6635 28.9081C14.1995 29.7001 14.4744 30.7332 15.2649 31.1808L20.3687 34.1251C20.6264 34.28 20.9186 34.3489 21.1935 34.3489C21.7606 34.3489 22.3277 34.0562 22.637 33.5224C23.101 32.7304 22.826 31.6974 22.0355 31.2497L16.9318 28.3055Z" fill="#007AFF" stroke="white" stroke-width="0.5"/>
<path d="M88.8168 69.8864L83.713 66.9422C82.9226 66.4773 81.8915 66.7528 81.4447 67.5448C80.9807 68.3368 81.2557 69.3699 82.0462 69.8176L87.1499 72.7618C87.4077 72.9167 87.6998 72.9856 87.9748 72.9856C88.5418 72.9856 89.1089 72.6929 89.4182 72.1592C89.8822 71.3671 89.6073 70.3341 88.8168 69.8864Z" fill="#007AFF" stroke="white" stroke-width="0.5"/>
<path d="M89.4182 28.9081C88.9543 28.1161 87.9404 27.8406 87.1499 28.3055L82.0462 31.2497C81.2557 31.7146 80.9807 32.7304 81.4447 33.5224C81.754 34.0562 82.3211 34.3489 82.8882 34.3489C83.1631 34.3489 83.4553 34.28 83.713 34.1251L88.8168 31.1808C89.6073 30.7332 89.8822 29.7173 89.4182 28.9081Z" fill="#007AFF" stroke="white" stroke-width="0.5"/>
<path d="M73.6242 13.0858C72.8337 12.6209 71.8027 12.8964 71.3559 13.6884L68.4174 18.802C67.9534 19.594 68.2283 20.6271 69.0188 21.0748C69.2766 21.2297 69.5687 21.2986 69.8437 21.2986C70.4107 21.2986 70.9778 21.0059 71.2871 20.4721L74.2257 15.3585C74.6896 14.5665 74.4147 13.5506 73.6242 13.0858Z" fill="#007AFF" stroke="white" stroke-width="0.5"/>
<path fill-rule="evenodd" clip-rule="evenodd" d="M45.1484 48.6224C45.1484 45.5233 47.2793 42.9234 50.1319 42.183V23.0715C50.1319 22.1417 50.8708 21.4014 51.7988 21.4014C52.7267 21.4014 53.4657 22.1417 53.4657 23.0715V42.183C56.3354 42.9234 58.4663 45.5233 58.4663 48.6224C58.4663 49.6038 58.2257 50.5508 57.8305 51.4289L70.5813 61.9661C71.2858 62.5515 71.3889 63.6018 70.8047 64.3077C70.4782 64.7037 69.997 64.9103 69.5158 64.9103C69.1378 64.9103 68.7597 64.7898 68.4504 64.5315L55.7168 54.0116C54.5826 54.838 53.2251 55.3029 51.7988 55.3029C48.1385 55.3029 45.1484 52.307 45.1484 48.6224ZM54.3764 50.7402C54.8576 50.1548 55.1325 49.3972 55.1325 48.6224C55.1325 46.7802 53.6375 45.2822 51.7988 45.2822C49.9772 45.2822 48.4822 46.7802 48.4822 48.6224C48.4822 50.4647 49.9601 51.9627 51.7988 51.9627C52.7955 51.9627 53.7406 51.515 54.3764 50.7402Z" fill="#007AFF"/>
<path d="M50.1319 42.183L50.1947 42.425L50.3819 42.3764V42.183H50.1319ZM53.4657 42.183H53.2157V42.3767L53.4032 42.4251L53.4657 42.183ZM57.8305 51.4289L57.6025 51.3263L57.5243 51.5002L57.6712 51.6216L57.8305 51.4289ZM70.5813 61.9661L70.741 61.7738L70.7405 61.7734L70.5813 61.9661ZM70.8047 64.3077L70.6121 64.1483L70.6118 64.1487L70.8047 64.3077ZM68.4504 64.5315L68.6106 64.3396L68.6096 64.3388L68.4504 64.5315ZM55.7168 54.0116L55.876 53.8188L55.7264 53.6952L55.5696 53.8095L55.7168 54.0116ZM54.3764 50.7402L54.1833 50.5815L54.1832 50.5816L54.3764 50.7402ZM50.0691 41.9411C47.1097 42.7091 44.8984 45.4059 44.8984 48.6224H45.3984C45.3984 45.6407 47.4489 43.1377 50.1947 42.425L50.0691 41.9411ZM49.8819 23.0715V42.183H50.3819V23.0715H49.8819ZM51.7988 21.1514C50.7323 21.1514 49.8819 22.0041 49.8819 23.0715H50.3819C50.3819 22.2793 51.0093 21.6514 51.7988 21.6514V21.1514ZM53.7157 23.0715C53.7157 22.0041 52.8653 21.1514 51.7988 21.1514V21.6514C52.5882 21.6514 53.2157 22.2793 53.2157 23.0715H53.7157ZM53.7157 42.183V23.0715H53.2157V42.183H53.7157ZM58.7163 48.6224C58.7163 45.4056 56.5047 42.7089 53.5281 41.941L53.4032 42.4251C56.1662 43.1379 58.2163 45.641 58.2163 48.6224H58.7163ZM58.0584 51.5315C58.4656 50.627 58.7163 49.6451 58.7163 48.6224H58.2163C58.2163 49.5626 57.9858 50.4747 57.6025 51.3263L58.0584 51.5315ZM70.7405 61.7734L57.9897 51.2362L57.6712 51.6216L70.422 62.1588L70.7405 61.7734ZM70.9972 64.4671C71.6703 63.6539 71.5506 62.4465 70.741 61.7738L70.4215 62.1584C71.021 62.6566 71.1075 63.5497 70.6121 64.1483L70.9972 64.4671ZM69.5158 65.1603C70.0672 65.1603 70.6208 64.9237 70.9975 64.4667L70.6118 64.1487C70.3355 64.4837 69.9267 64.6603 69.5158 64.6603V65.1603ZM68.2902 64.7234C68.6484 65.0225 69.0846 65.1603 69.5158 65.1603V64.6603C69.191 64.6603 68.871 64.5571 68.6106 64.3396L68.2902 64.7234ZM55.5576 54.2043L68.2912 64.7243L68.6096 64.3388L55.876 53.8188L55.5576 54.2043ZM51.7988 55.5529C53.2802 55.5529 54.689 55.0699 55.864 54.2136L55.5696 53.8095C54.4763 54.6061 53.1699 55.0529 51.7988 55.0529V55.5529ZM44.8984 48.6224C44.8984 52.4442 47.9996 55.5529 51.7988 55.5529V55.0529C48.2775 55.0529 45.3984 52.1698 45.3984 48.6224H44.8984ZM54.8825 48.6224C54.8825 49.3392 54.6278 50.0407 54.1833 50.5815L54.5696 50.899C55.0874 50.2689 55.3825 49.4552 55.3825 48.6224H54.8825ZM51.7988 45.5322C53.499 45.5322 54.8825 46.9178 54.8825 48.6224H55.3825C55.3825 46.6425 53.776 45.0322 51.7988 45.0322V45.5322ZM48.7322 48.6224C48.7322 46.9169 50.1166 45.5322 51.7988 45.5322V45.0322C49.8379 45.0322 48.2322 46.6434 48.2322 48.6224H48.7322ZM51.7988 51.7127C50.1003 51.7127 48.7322 50.3288 48.7322 48.6224H48.2322C48.2322 50.6007 49.8198 52.2127 51.7988 52.2127V51.7127ZM54.1832 50.5816C53.5946 51.2988 52.7203 51.7127 51.7988 51.7127V52.2127C52.8707 52.2127 53.8866 51.7312 54.5697 50.8988L54.1832 50.5816Z" fill="white"/>
</svg>
