<svg width="94" height="102" viewBox="0 0 94 102" fill="none" xmlns="http://www.w3.org/2000/svg">
<path fill-rule="evenodd" clip-rule="evenodd" d="M47 0C30.2872 0 2 2.48731 2 11.8443V88.1557C2 97.4619 30.2872 100 47 100C63.7128 100 92 97.5127 92 88.1557V11.7936C92 2.48731 63.7128 0 47 0ZM86.8786 62.6058C85.786 65.0592 71.6339 69.3739 47 69.3739C22.3661 69.3739 8.11153 64.9915 7.1214 62.6058V43.2657C16.0497 47.7157 34.6745 49.0863 47 49.0863C59.3255 49.0863 77.9503 47.6819 86.8786 43.2657V62.6058ZM47 43.9932C71.6339 43.9932 85.786 39.6785 86.8786 37.225V17.7834C77.9503 22.2335 59.3255 23.5871 47 23.5871C34.6745 23.5871 16.0497 22.2335 7.1214 17.7834V37.225C8.11153 39.5939 22.3661 43.9932 47 43.9932ZM47 5.07614C71.3096 5.07614 85.4446 9.32318 86.8274 11.8443C85.4446 14.3147 71.3096 18.6125 47 18.6125C22.6904 18.6125 8.57246 14.264 7.17261 11.7936C8.57246 9.32318 22.6904 5.07614 47 5.07614ZM7.1214 88.1049C8.11153 90.4907 22.2978 94.8731 47 94.8731C71.6339 94.8731 85.786 90.5245 86.8786 88.0541V68.6464C77.9503 73.1134 59.3255 74.467 47 74.467C34.6745 74.467 16.0497 73.1134 7.1214 68.6464V88.1049Z" fill="#007AFF"/>
<path d="M86.8786 62.6058L88.1347 63.1651L88.2536 62.8981V62.6058H86.8786ZM7.1214 62.6058H5.7464V62.8797L5.85142 63.1328L7.1214 62.6058ZM7.1214 43.2657L7.73476 42.035L5.7464 41.044V43.2657H7.1214ZM86.8786 43.2657H88.2536V41.0515L86.269 42.0332L86.8786 43.2657ZM86.8786 37.225L88.1347 37.7844L88.2536 37.5174V37.225H86.8786ZM86.8786 17.7834H88.2536V15.5618L86.2652 16.5528L86.8786 17.7834ZM7.1214 17.7834L7.73476 16.5528L5.7464 15.5618V17.7834H7.1214ZM7.1214 37.225H5.7464V37.5008L5.85276 37.7553L7.1214 37.225ZM86.8274 11.8443L88.0272 12.5159L88.3993 11.8511L88.033 11.1831L86.8274 11.8443ZM7.17261 11.7936L5.97632 11.1157L5.5922 11.7936L5.97632 12.4714L7.17261 11.7936ZM7.1214 88.1049H5.7464V88.3789L5.85142 88.632L7.1214 88.1049ZM86.8786 88.0541L88.1361 88.6103L88.2536 88.3446V88.0541H86.8786ZM86.8786 68.6464H88.2536V66.4209L86.2634 67.4167L86.8786 68.6464ZM7.1214 68.6464L7.73663 67.4167L5.7464 66.4209V68.6464H7.1214ZM3.375 11.8443C3.375 10.302 4.53165 8.74639 7.32657 7.26019C10.0615 5.80589 13.9637 4.64916 18.4966 3.76272C27.5369 1.99485 38.6896 1.375 47 1.375V-1.375C38.5976 -1.375 27.2503 -0.751192 17.9688 1.06384C13.3408 1.96886 9.12663 3.1884 6.03545 4.83213C3.00425 6.44396 0.625 8.70812 0.625 11.8443H3.375ZM3.375 88.1557V11.8443H0.625V88.1557H3.375ZM47 98.625C38.691 98.625 27.5381 97.9926 18.4975 96.2184C13.9644 95.3288 10.0615 94.1705 7.3258 92.718C4.52772 91.2324 3.375 89.6826 3.375 88.1557H0.625C0.625 91.2819 3.00818 93.5392 6.03622 95.1469C9.12663 96.7877 13.3401 98.0087 17.9679 98.9169C27.249 100.738 38.5962 101.375 47 101.375V98.625ZM90.625 88.1557C90.625 89.698 89.4684 91.2536 86.6734 92.7398C83.9385 94.1941 80.0363 95.3508 75.5034 96.2373C66.4631 98.0052 55.3104 98.625 47 98.625V101.375C55.4024 101.375 66.7497 100.751 76.0312 98.9362C80.6592 98.0311 84.8734 96.8116 87.9646 95.1679C90.9958 93.556 93.375 91.2919 93.375 88.1557H90.625ZM90.625 11.7936V88.1557H93.375V11.7936H90.625ZM47 1.375C55.3103 1.375 66.4634 1.99483 75.5043 3.75655C80.0375 4.6399 83.9403 5.79214 86.6758 7.24001C89.4734 8.72083 90.625 10.2676 90.625 11.7936H93.375C93.375 8.66646 90.9907 6.41242 87.9622 4.80948C84.8716 3.1736 80.658 1.95908 76.0303 1.05732C66.7494 -0.751177 55.4025 -1.375 47 -1.375V1.375ZM47 70.7489C59.3918 70.7489 69.1828 69.6642 76.0436 68.2569C79.4695 67.5541 82.1965 66.7646 84.1635 65.9742C85.1444 65.58 85.9725 65.1714 86.6141 64.7519C87.2096 64.3626 87.8315 63.8461 88.1347 63.1651L85.6225 62.0464C85.6526 61.9788 85.5932 62.1338 85.1094 62.4501C84.6718 62.7362 84.0225 63.0671 83.1381 63.4225C81.3745 64.1312 78.819 64.8803 75.491 65.5629C68.8441 66.9264 59.2421 67.9989 47 67.9989V70.7489ZM5.85142 63.1328C6.14155 63.8319 6.77428 64.3519 7.35653 64.7325C7.99204 65.1479 8.81631 65.5537 9.79406 65.9459C11.7555 66.7328 14.485 67.5243 17.9169 68.2312C24.79 69.647 34.6068 70.7489 47 70.7489V67.9989C34.7593 67.9989 25.1319 66.9097 18.4717 65.5378C15.1369 64.8509 12.5776 64.0995 10.8179 63.3936C9.93518 63.0395 9.29091 62.7115 8.86113 62.4306C8.3781 62.1149 8.34877 61.9761 8.39137 62.0787L5.85142 63.1328ZM5.7464 43.2657V62.6058H8.4964V43.2657H5.7464ZM47 47.7113C40.8808 47.7113 33.2006 47.3707 25.9545 46.48C18.6655 45.5841 11.9762 44.1491 7.73476 42.035L6.50803 44.4963C11.1949 46.8323 18.2822 48.3076 25.619 49.2095C32.9988 50.1166 40.7937 50.4613 47 50.4613V47.7113ZM86.269 42.0332C82.0253 44.1322 75.3337 45.5673 68.0447 46.4674C60.7982 47.3624 53.1181 47.7113 47 47.7113V50.4613C53.2074 50.4613 61.0025 50.108 68.3818 49.1967C75.7187 48.2906 82.8036 46.8153 87.4882 44.4981L86.269 42.0332ZM88.2536 62.6058V43.2657H85.5036V62.6058H88.2536ZM85.6225 36.6657C85.6526 36.5981 85.5932 36.7531 85.1094 37.0694C84.6718 37.3555 84.0225 37.6864 83.1381 38.0418C81.3745 38.7504 78.819 39.4996 75.491 40.1822C68.8441 41.5457 59.2421 42.6182 47 42.6182V45.3682C59.3918 45.3682 69.1828 44.2834 76.0436 42.8761C79.4695 42.1734 82.1965 41.3839 84.1635 40.5935C85.1444 40.1993 85.9725 39.7907 86.6141 39.3712C87.2096 38.9819 87.8315 38.4654 88.1347 37.7844L85.6225 36.6657ZM85.5036 17.7834V37.225H88.2536V17.7834H85.5036ZM47 24.9621C53.2057 24.9621 61.0005 24.6217 68.3802 23.7189C75.7169 22.8213 82.8046 21.3503 87.492 19.014L86.2652 16.5528C82.0243 18.6666 75.3355 20.0975 68.0463 20.9892C60.8002 21.8757 53.1198 22.2121 47 22.2121V24.9621ZM6.50803 19.014C11.1954 21.3503 18.2831 22.8213 25.6198 23.7189C32.9995 24.6217 40.7943 24.9621 47 24.9621V22.2121C40.8802 22.2121 33.1998 21.8757 25.9537 20.9892C18.6645 20.0975 11.9757 18.6666 7.73476 16.5528L6.50803 19.014ZM8.4964 37.225V17.7834H5.7464V37.225H8.4964ZM47 42.6182C34.7597 42.6182 25.1324 41.5248 18.4721 40.1508C15.1374 39.4629 12.5776 38.7109 10.8175 38.0056C9.93446 37.6518 9.28967 37.3242 8.85938 37.0439C8.37503 36.7284 8.34641 36.5904 8.39003 36.6948L5.85276 37.7553C6.14392 38.4519 6.77734 38.9696 7.35828 39.3481C7.99328 39.7618 8.81703 40.1666 9.79453 40.5583C11.7554 41.3441 14.4846 42.1361 17.9165 42.8441C24.7895 44.262 34.6064 45.3682 47 45.3682V42.6182ZM88.033 11.1831C87.6895 10.5569 87.0757 10.0618 86.45 9.66687C85.7877 9.24889 84.9434 8.84011 83.9461 8.4449C81.9478 7.65302 79.208 6.86607 75.7862 6.16759C68.9347 4.769 59.2296 3.70114 47 3.70114V6.45114C59.08 6.45114 68.5971 7.5068 75.2362 8.86202C78.5597 9.54044 81.1324 10.288 82.933 11.0015C83.8351 11.359 84.5119 11.6956 84.9823 11.9925C85.2164 12.1402 85.3813 12.2668 85.4913 12.3674C85.6054 12.4718 85.63 12.5206 85.6218 12.5056L88.033 11.1831ZM47 19.9875C59.2308 19.9875 68.9362 18.9068 75.7875 17.5018C79.2093 16.8001 81.9478 16.0117 83.9447 15.2229C84.9413 14.8292 85.7841 14.4234 86.4449 14.0104C87.0677 13.6212 87.6817 13.1331 88.0272 12.5159L85.6276 11.1727C85.6373 11.1553 85.6136 11.2025 85.4986 11.3062C85.388 11.4059 85.2224 11.5316 84.9874 11.6784C84.5155 11.9733 83.8372 12.3086 82.9344 12.6652C81.1323 13.3771 78.5585 14.1263 75.235 14.8079C68.5957 16.1694 59.0788 17.2375 47 17.2375V19.9875ZM5.97632 12.4714C6.32323 13.0837 6.93526 13.5706 7.55907 13.9612C8.2202 14.3752 9.06302 14.7829 10.0599 15.179C12.0573 15.9727 14.7953 16.7677 18.2164 17.4759C25.0663 18.8939 34.7682 19.9875 47 19.9875V17.2375C34.9222 17.2375 25.4104 16.1568 18.7739 14.783C15.4519 14.0953 12.8785 13.3399 11.0754 12.6234C10.1721 12.2645 9.49234 11.9271 9.01849 11.6304C8.78249 11.4827 8.61533 11.356 8.50315 11.2551C8.38646 11.1501 8.36054 11.1009 8.3689 11.1157L5.97632 12.4714ZM47 3.70114C34.7702 3.70114 25.0699 4.76903 18.2213 6.16101C14.8009 6.85622 12.063 7.63804 10.0655 8.42177C9.06853 8.81292 8.22509 9.21649 7.56318 9.6277C6.93871 10.0157 6.32443 10.5014 5.97632 11.1157L8.3689 12.4714C8.35996 12.4872 8.38499 12.4391 8.50089 12.3352C8.61233 12.2354 8.7788 12.11 9.01438 11.9636C9.48745 11.6697 10.1666 11.3362 11.0699 10.9818C12.8728 10.2744 15.4463 9.53126 18.769 8.85591C25.4068 7.50677 34.9202 6.45114 47 6.45114V3.70114ZM47 93.4981C34.7249 93.4981 25.0977 92.4088 18.4464 91.037C15.1161 90.3502 12.5635 89.5989 10.8096 88.8933C9.92974 88.5393 9.28801 88.2115 8.86005 87.9309C8.37961 87.6158 8.34945 87.4768 8.39137 87.5778L5.85142 88.632C6.14088 89.3294 6.77063 89.8493 7.35201 90.2305C7.98588 90.6462 8.80788 91.0522 9.7832 91.4446C11.7396 92.2317 14.4631 93.0234 17.8909 93.7303C24.7559 95.1462 34.5729 96.2481 47 96.2481V93.4981ZM85.6211 87.498C85.6498 87.4332 85.5886 87.59 85.1056 87.908C84.6681 88.1961 84.019 88.5294 83.1349 88.8873C81.3717 89.601 78.8166 90.3557 75.489 91.0435C68.8428 92.4172 59.2415 93.4981 47 93.4981V96.2481C59.3924 96.2481 69.1841 95.1547 76.0456 93.7366C79.4718 93.0284 82.1993 92.2327 84.1667 91.4363C85.1479 91.0392 85.9762 90.6274 86.6179 90.2048C87.2142 89.8122 87.8343 89.2927 88.1361 88.6103L85.6211 87.498ZM85.5036 68.6464V88.0541H88.2536V68.6464H85.5036ZM47 75.842C53.2057 75.842 61.0006 75.5016 68.3806 74.5966C75.7174 73.6969 82.8059 72.2215 87.4938 69.876L86.2634 67.4167C82.023 69.5382 75.335 70.9732 68.0459 71.867C60.8 72.7556 53.1198 73.092 47 73.092V75.842ZM6.50616 69.876C11.1941 72.2215 18.2826 73.6969 25.6194 74.5966C32.9994 75.5016 40.7943 75.842 47 75.842V73.092C40.8802 73.092 33.2 72.7556 25.9541 71.867C18.665 70.9732 11.977 69.5382 7.73663 67.4167L6.50616 69.876ZM8.4964 88.1049V68.6464H5.7464V88.1049H8.4964Z" fill="white"/>
<path d="M35.5804 30.8968L30.2883 30.5076C29.3735 30.429 28.4858 30.8401 27.9597 31.5861C27.4336 32.3321 27.349 33.2996 27.7378 34.1242C28.1266 34.9488 28.9296 35.5051 29.8445 35.5837C31.5516 35.7529 33.3782 35.8883 35.239 36.0067H35.4097C36.7599 36.0097 37.8804 34.9731 37.9704 33.6379C38.0221 32.9598 37.7989 32.2893 37.3503 31.7749C36.9018 31.2604 36.2648 30.9444 35.5804 30.8968Z" fill="#007AFF" stroke="white" stroke-width="2.75"/>
<path d="M21.207 29.3059C18.6362 28.8988 16.0934 28.3337 13.5932 27.6138C12.2356 27.212 10.8063 27.9771 10.4009 29.3228C9.99549 30.6685 10.7674 32.0851 12.1251 32.4869C14.8295 33.2593 17.5769 33.8751 20.3535 34.3312H20.7803C22.1945 34.4481 23.4365 33.4064 23.5544 32.0047C23.6722 30.6029 22.6213 29.3719 21.207 29.2551V29.3059Z" fill="#007AFF" stroke="white" stroke-width="2.75"/>
<path d="M35.5804 56.4469C33.7538 56.3284 31.9955 56.1931 30.2883 56.0408C29.3735 55.9622 28.4858 56.3733 27.9597 57.1193C27.4336 57.8653 27.349 58.8328 27.7378 59.6574C28.1266 60.482 28.9296 61.0383 29.8445 61.1169C31.5516 61.2692 33.3782 61.4046 35.239 61.523H35.4097C36.824 61.5697 38.0086 60.4713 38.0558 59.0696C38.1029 57.6678 36.9947 56.4936 35.5804 56.4469Z" fill="#007AFF" stroke="white" stroke-width="2.75"/>
<path d="M21.2061 54.8392C18.6307 54.4263 16.0826 53.8613 13.5752 53.1471C12.2176 52.7546 10.796 53.5273 10.4 54.873C10.004 56.2187 10.7836 57.6277 12.1412 58.0202C14.8392 58.7952 17.5811 59.4111 20.3525 59.8645C20.4943 59.8812 20.6376 59.8812 20.7793 59.8645C22.1936 59.9813 23.4356 58.9397 23.5534 57.538C23.6713 56.1362 22.6203 54.9052 21.2061 54.7884V54.8392Z" fill="#007AFF" stroke="white" stroke-width="2.75"/>
<path d="M35.5809 81.9793C33.7543 81.8609 31.996 81.7255 30.2888 81.5732C28.8884 81.4653 27.6586 82.4886 27.5233 83.8744C27.4571 84.5601 27.6769 85.2428 28.1316 85.7637C28.5863 86.2847 29.2362 86.5986 29.9303 86.6325C31.6375 86.7847 33.4641 86.9201 35.3249 87.0385H35.4956C36.9098 87.0853 38.0945 85.9868 38.1416 84.5851C38.1888 83.1833 37.0805 82.0091 35.6663 81.9624L35.5809 81.9793Z" fill="#007AFF" stroke="white" stroke-width="2.75"/>
<path d="M21.2067 80.3893C18.6345 79.9603 16.0872 79.3955 13.5758 78.6973C12.6754 78.3565 11.6581 78.5457 10.9437 79.1869C10.2292 79.8281 9.93845 80.8126 10.1914 81.7345C10.4443 82.6563 11.1981 83.3593 12.1418 83.5535C14.8397 84.3285 17.5816 84.9443 20.3531 85.3978C20.4949 85.4143 20.6381 85.4143 20.7799 85.3978C22.1941 85.5146 23.4361 84.473 23.554 83.0712C23.6718 81.6695 22.6209 80.4385 21.2067 80.3217V80.3893Z" fill="#007AFF" stroke="white" stroke-width="2.75"/>
</svg>
