<svg width="38" height="31" viewBox="0 0 38 31" fill="none" xmlns="http://www.w3.org/2000/svg">
<path fill-rule="evenodd" clip-rule="evenodd" d="M35.1467 30H22.1735C21.1516 30 20.3202 29.1718 20.3202 28.1538V16.1538C20.3202 7.24662 27.5949 0 36.5367 0C36.7925 0 37 0.206585 37 0.461538V6.46154C37 6.71649 36.7925 6.92308 36.5367 6.92308C32.1437 6.92308 28.3364 10.0622 27.468 14.3077H35.1467C36.1686 14.3077 37 15.1359 37 16.1538V28.1538C37 29.1718 36.1686 30 35.1467 30ZM36.0733 0.929909C27.8559 1.17471 21.2469 7.90985 21.2469 16.1538V28.1538C21.2469 28.6628 21.6626 29.0769 22.1735 29.0769H35.1467C35.6576 29.0769 36.0733 28.6628 36.0733 28.1538V16.1538C36.0733 15.6449 35.6576 15.2308 35.1467 15.2308H26.9175C26.7833 15.2308 26.6555 15.1727 26.5674 15.0715C26.4794 14.9705 26.4398 14.8362 26.4589 14.7037C26.8037 12.3082 28.0036 10.1077 29.8376 8.50754C31.5746 6.99194 33.7734 6.11465 36.0733 6.01043V0.929909ZM1.85331 30H14.8265C15.8484 30 16.6798 29.1718 16.6798 28.1538V16.1538C16.6798 15.1359 15.8484 14.3077 14.8265 14.3077H7.14738C8.01584 10.0622 11.8232 6.92308 16.2165 6.92308C16.4724 6.92308 16.6798 6.71649 16.6798 6.46154V0.461538C16.6798 0.206585 16.4724 0 16.2165 0C7.2747 0 0 7.24662 0 16.1538V28.1538C0 29.1718 0.831303 30 1.85331 30ZM15.7531 0.929909C7.53565 1.17471 0.926655 7.90985 0.926655 16.1538V28.1538C0.926655 28.6628 1.34235 29.0769 1.85331 29.0769H14.8265C15.3374 29.0769 15.7531 28.6628 15.7531 28.1538V16.1538C15.7531 15.6449 15.3374 15.2308 14.8265 15.2308H6.59695C6.46258 15.2308 6.33489 15.1727 6.24686 15.0715C6.15892 14.9705 6.11926 14.8362 6.13835 14.7037C6.48315 12.3082 7.68308 10.1077 9.51721 8.50754C11.2543 6.99194 13.4532 6.11455 15.7531 6.01043V0.929909Z" fill="url(#paint0_linear_0_3800)"/>
<path d="M27.468 14.3077L27.1006 14.2325L27.0085 14.6827H27.468V14.3077ZM36.0733 0.929909H36.4483V0.543571L36.0622 0.555075L36.0733 0.929909ZM26.5674 15.0715L26.8503 14.8254L26.8502 14.8253L26.5674 15.0715ZM26.4589 14.7037L26.8301 14.7571L26.8301 14.7571L26.4589 14.7037ZM29.8376 8.50754L30.0841 8.79011L30.0842 8.7901L29.8376 8.50754ZM36.0733 6.01043L36.0903 6.38505L36.4483 6.36882V6.01043H36.0733ZM7.14738 14.3077L6.77999 14.2325L6.68791 14.6827H7.14738V14.3077ZM15.7531 0.929909H16.1281V0.543571L15.742 0.555075L15.7531 0.929909ZM6.24686 15.0715L5.96395 15.3177L5.96396 15.3177L6.24686 15.0715ZM6.13835 14.7037L6.50952 14.7571L6.50952 14.7571L6.13835 14.7037ZM9.51721 8.50754L9.76373 8.79011L9.76374 8.79011L9.51721 8.50754ZM15.7531 6.01043L15.7701 6.38505L16.1281 6.36884V6.01043H15.7531ZM22.1735 30.375H35.1467V29.625H22.1735V30.375ZM19.9452 28.1538C19.9452 29.3803 20.9459 30.375 22.1735 30.375V29.625C21.3573 29.625 20.6952 28.9633 20.6952 28.1538H19.9452ZM19.9452 16.1538V28.1538H20.6952V16.1538H19.9452ZM36.5367 -0.375C27.3892 -0.375 19.9452 7.03814 19.9452 16.1538H20.6952C20.6952 7.45509 27.8007 0.375 36.5367 0.375V-0.375ZM37.375 0.461538C37.375 -0.00193596 36.9982 -0.375 36.5367 -0.375V0.375C36.5868 0.375 36.625 0.415106 36.625 0.461538H37.375ZM37.375 6.46154V0.461538H36.625V6.46154H37.375ZM36.5367 7.29808C36.9982 7.29808 37.375 6.92501 37.375 6.46154H36.625C36.625 6.50797 36.5868 6.54808 36.5367 6.54808V7.29808ZM27.8354 14.3828C28.6682 10.3114 32.3223 7.29808 36.5367 7.29808V6.54808C31.9651 6.54808 28.0046 9.81295 27.1006 14.2325L27.8354 14.3828ZM35.1467 13.9327H27.468V14.6827H35.1467V13.9327ZM37.375 16.1538C37.375 14.9274 36.3743 13.9327 35.1467 13.9327V14.6827C35.9629 14.6827 36.625 15.3443 36.625 16.1538H37.375ZM37.375 28.1538V16.1538H36.625V28.1538H37.375ZM35.1467 30.375C36.3743 30.375 37.375 29.3803 37.375 28.1538H36.625C36.625 28.9633 35.9629 29.625 35.1467 29.625V30.375ZM21.6219 16.1538C21.6219 8.11457 28.0677 1.54356 36.0845 1.30474L36.0622 0.555075C27.644 0.805855 20.8719 7.70512 20.8719 16.1538H21.6219ZM21.6219 28.1538V16.1538H20.8719V28.1538H21.6219ZM22.1735 28.7019C21.8683 28.7019 21.6219 28.4544 21.6219 28.1538H20.8719C20.8719 28.8713 21.4568 29.4519 22.1735 29.4519V28.7019ZM35.1467 28.7019H22.1735V29.4519H35.1467V28.7019ZM35.6983 28.1538C35.6983 28.4544 35.4519 28.7019 35.1467 28.7019V29.4519C35.8634 29.4519 36.4483 28.8713 36.4483 28.1538H35.6983ZM35.6983 16.1538V28.1538H36.4483V16.1538H35.6983ZM35.1467 15.6058C35.4519 15.6058 35.6983 15.8533 35.6983 16.1538H36.4483C36.4483 15.4364 35.8634 14.8558 35.1467 14.8558V15.6058ZM26.9175 15.6058H35.1467V14.8558H26.9175V15.6058ZM26.2845 15.3177C26.444 15.501 26.6751 15.6058 26.9175 15.6058V14.8558C26.8914 14.8558 26.8669 14.8444 26.8503 14.8254L26.2845 15.3177ZM26.0878 14.6502C26.0531 14.8908 26.125 15.1345 26.2847 15.3178L26.8502 14.8253C26.8338 14.8064 26.8266 14.7817 26.8301 14.7571L26.0878 14.6502ZM29.5911 8.22497C27.6898 9.88376 26.4454 12.1654 26.0878 14.6503L26.8301 14.7571C27.1621 12.451 28.3173 10.3316 30.0841 8.79011L29.5911 8.22497ZM36.0564 5.63582C33.6721 5.74385 31.3923 6.65334 29.5911 8.22498L30.0842 8.7901C31.7569 7.33054 33.8747 6.48544 36.0903 6.38505L36.0564 5.63582ZM35.6983 0.929909V6.01043H36.4483V0.929909H35.6983ZM14.8265 29.625H1.85331V30.375H14.8265V29.625ZM16.3048 28.1538C16.3048 28.9633 15.6427 29.625 14.8265 29.625V30.375C16.0541 30.375 17.0548 29.3803 17.0548 28.1538H16.3048ZM16.3048 16.1538V28.1538H17.0548V16.1538H16.3048ZM14.8265 14.6827C15.6427 14.6827 16.3048 15.3443 16.3048 16.1538H17.0548C17.0548 14.9274 16.0541 13.9327 14.8265 13.9327V14.6827ZM7.14738 14.6827H14.8265V13.9327H7.14738V14.6827ZM16.2165 6.54808C11.6446 6.54808 7.68406 9.81294 6.77999 14.2325L7.51477 14.3828C8.34762 10.3114 12.0018 7.29808 16.2165 7.29808V6.54808ZM16.3048 6.46154C16.3048 6.50802 16.2667 6.54808 16.2165 6.54808V7.29808C16.6781 7.29808 17.0548 6.92496 17.0548 6.46154H16.3048ZM16.3048 0.461538V6.46154H17.0548V0.461538H16.3048ZM16.2165 0.375C16.2667 0.375 16.3048 0.415058 16.3048 0.461538H17.0548C17.0548 -0.00188828 16.6781 -0.375 16.2165 -0.375V0.375ZM0.375 16.1538C0.375 7.45509 7.48044 0.375 16.2165 0.375V-0.375C7.06896 -0.375 -0.375 7.03814 -0.375 16.1538H0.375ZM0.375 28.1538V16.1538H-0.375V28.1538H0.375ZM1.85331 29.625C1.03705 29.625 0.375 28.9634 0.375 28.1538H-0.375C-0.375 29.3803 0.625553 30.375 1.85331 30.375V29.625ZM1.30165 16.1538C1.30165 8.11457 7.74751 1.54356 15.7643 1.30474L15.742 0.555075C7.32378 0.805855 0.551655 7.70512 0.551655 16.1538H1.30165ZM1.30165 28.1538V16.1538H0.551655V28.1538H1.30165ZM1.85331 28.7019C1.54809 28.7019 1.30165 28.4544 1.30165 28.1538H0.551655C0.551655 28.8713 1.13661 29.4519 1.85331 29.4519V28.7019ZM14.8265 28.7019H1.85331V29.4519H14.8265V28.7019ZM15.3781 28.1538C15.3781 28.4544 15.1317 28.7019 14.8265 28.7019V29.4519C15.5432 29.4519 16.1281 28.8713 16.1281 28.1538H15.3781ZM15.3781 16.1538V28.1538H16.1281V16.1538H15.3781ZM14.8265 15.6058C15.1317 15.6058 15.3781 15.8533 15.3781 16.1538H16.1281C16.1281 15.4364 15.5432 14.8558 14.8265 14.8558V15.6058ZM6.59695 15.6058H14.8265V14.8558H6.59695V15.6058ZM5.96396 15.3177C6.1234 15.5009 6.35438 15.6058 6.59695 15.6058V14.8558C6.57079 14.8558 6.54637 14.8445 6.52975 14.8254L5.96396 15.3177ZM5.76717 14.6502C5.7325 14.891 5.80459 15.1345 5.96395 15.3177L6.52977 14.8254C6.51324 14.8064 6.50601 14.7815 6.50952 14.7571L5.76717 14.6502ZM9.27068 8.22496C7.36934 9.88375 6.12485 12.1654 5.76717 14.6503L6.50952 14.7571C6.84146 12.451 7.99682 10.3316 9.76373 8.79011L9.27068 8.22496ZM15.7362 5.63581C13.3519 5.74376 11.072 6.65334 9.27067 8.22497L9.76374 8.79011C11.4366 7.33053 13.5545 6.48535 15.7701 6.38505L15.7362 5.63581ZM15.3781 0.929909V6.01043H16.1281V0.929909H15.3781Z" fill="url(#paint1_linear_0_3800)"/>
<defs>
<linearGradient id="paint0_linear_0_3800" x1="25.721" y1="-36.6737" x2="-16.3725" y2="17.2099" gradientUnits="userSpaceOnUse">
<stop stop-color="#151D9C"/>
<stop offset="0.486381" stop-color="#00A4FF"/>
<stop offset="1" stop-color="#00D97B"/>
<stop offset="1" stop-color="#3FBAFF"/>
</linearGradient>
<linearGradient id="paint1_linear_0_3800" x1="25.721" y1="-36.6737" x2="-16.3725" y2="17.2099" gradientUnits="userSpaceOnUse">
<stop stop-color="#151D9C"/>
<stop offset="0.486381" stop-color="#00A4FF"/>
<stop offset="1" stop-color="#00D97B"/>
<stop offset="1" stop-color="#3FBAFF"/>
</linearGradient>
</defs>
</svg>
