<svg width="89" height="101" viewBox="0 0 89 101" fill="none" xmlns="http://www.w3.org/2000/svg">
<path fill-rule="evenodd" clip-rule="evenodd" d="M44.4265 7.72754C48.3468 7.72754 51.5132 10.9094 51.5132 14.8488C51.5132 18.7881 48.3468 21.97 44.4265 21.97C40.5062 21.97 37.3398 18.7881 37.3398 14.8488C37.3398 10.9094 40.5062 7.72754 44.4265 7.72754ZM44.4265 10.7578C42.1648 10.7578 40.3554 12.576 40.3554 14.8488C40.3554 17.1215 42.1648 18.9397 44.4265 18.9397C46.6882 18.9397 48.4976 17.1215 48.4976 14.8488C48.4976 12.576 46.6882 10.7578 44.4265 10.7578Z" fill="#007AFF"/>
<path d="M51.7632 14.8488C51.7632 10.7724 48.486 7.47754 44.4265 7.47754V7.97754C48.2076 7.97754 51.2632 11.0463 51.2632 14.8488H51.7632ZM44.4265 22.22C48.486 22.22 51.7632 18.9251 51.7632 14.8488H51.2632C51.2632 18.6512 48.2076 21.72 44.4265 21.72V22.22ZM37.0898 14.8488C37.0898 18.9251 40.367 22.22 44.4265 22.22V21.72C40.6454 21.72 37.5898 18.6512 37.5898 14.8488H37.0898ZM44.4265 7.47754C40.367 7.47754 37.0898 10.7724 37.0898 14.8488H37.5898C37.5898 11.0463 40.6454 7.97754 44.4265 7.97754V7.47754ZM40.6054 14.8488C40.6054 12.7129 42.304 11.0078 44.4265 11.0078V10.5078C42.0256 10.5078 40.1054 12.4391 40.1054 14.8488H40.6054ZM44.4265 18.6897C42.304 18.6897 40.6054 16.9846 40.6054 14.8488H40.1054C40.1054 17.2584 42.0256 19.1897 44.4265 19.1897V18.6897ZM48.2476 14.8488C48.2476 16.9846 46.549 18.6897 44.4265 18.6897V19.1897C46.8274 19.1897 48.7476 17.2584 48.7476 14.8488H48.2476ZM44.4265 11.0078C46.549 11.0078 48.2476 12.7129 48.2476 14.8488H48.7476C48.7476 12.4391 46.8274 10.5078 44.4265 10.5078V11.0078Z" fill="white"/>
<path fill-rule="evenodd" clip-rule="evenodd" d="M81.818 75.1515C78.8024 75.1515 76.3899 77.2727 75.7868 80H68.0971L62.2166 74.0909C61.9151 73.7879 61.6135 73.6364 61.1612 73.6364H52.1144V65.6061H66.4385C67.4939 67.5758 69.6049 68.7879 71.8666 68.7879C75.3345 68.7879 78.0485 65.9091 78.0485 62.5758C78.0485 59.0909 75.1837 56.3636 71.8666 56.3636C68.3986 56.3636 65.6846 59.2424 65.6846 62.5758H52.1144V51.5152H61.1612C61.6135 51.5152 61.9151 51.3636 62.2166 51.0606L68.0971 45.1515H75.7868C76.3899 47.8788 78.9532 50 81.818 50C85.286 50 88 47.1212 88 43.7879C88 40.303 85.1352 37.5758 81.818 37.5758C78.9532 37.5758 76.5407 39.5455 75.7868 42.2727H67.4939C67.0416 42.2727 66.74 42.4242 66.4385 42.7273L60.4073 48.4848H51.9636V46.8182C61.4627 43.6364 68.3986 34.697 68.3986 24.0909C68.3986 10.7576 57.5425 0 44.4246 0C31.3068 0 20.4506 10.7576 20.4506 24.0909C20.4506 34.697 27.3865 43.6364 36.8856 46.8182V58.7879H28.4419L22.5615 52.8788C22.26 52.5758 21.9584 52.4242 21.5061 52.4242H13.2132C12.4593 49.697 10.0468 47.7273 7.18198 47.7273C3.71404 47.7273 1 50.6061 1 53.9394C1 57.4242 3.86482 60.1515 7.18198 60.1515C10.1976 60.1515 12.6101 58.0303 13.2132 55.303H20.9029L26.7834 61.2121C27.0849 61.5152 27.3865 61.6667 27.8388 61.6667H36.8856V71.2121H23.1646C22.4107 68.4848 19.9983 66.5152 17.1334 66.5152C13.6655 66.5152 10.9515 69.3939 10.9515 72.7273C10.9515 76.2121 13.8163 78.9394 17.1334 78.9394C19.9983 78.9394 22.5615 76.9697 23.1646 74.2424H36.8856V83.7879H27.8388C27.3865 83.7879 27.0849 83.9394 26.7834 84.2424L20.9029 90.1515H13.2132C12.6101 87.4242 10.0468 85.303 7.18198 85.303C3.71404 85.303 1 88.1818 1 91.5152C1 95 3.86482 97.7273 7.18198 97.7273C10.0468 97.7273 12.4593 95.7576 13.2132 93.0303H21.5061C21.9584 93.0303 22.26 92.8788 22.5615 92.5758L28.4419 86.6667H36.8856V92.4242C36.8856 92.8788 37.0364 93.1818 37.338 93.4848L43.3692 99.5455C43.6707 99.8485 44.1231 100 44.4246 100C44.8769 100 45.1785 99.8485 45.4801 99.5455L51.5113 93.4848C51.8128 93.1818 51.9636 92.8788 51.9636 92.4242V76.6667H60.4073L66.2877 82.5758C66.5893 82.8788 66.8908 83.0303 67.3432 83.0303H75.636C76.3899 85.7576 78.8024 87.7273 81.6672 87.7273C85.1352 87.7273 87.8492 84.8485 87.8492 81.5152C88.1508 78.0303 85.286 75.1515 81.818 75.1515ZM71.7158 59.3939C73.5251 59.3939 74.8821 60.9091 74.8821 62.5758C74.8821 64.3939 73.3744 65.7576 71.7158 65.7576C69.9064 65.7576 68.5494 64.2424 68.5494 62.5758C68.5494 60.7576 69.9064 59.3939 71.7158 59.3939ZM84.9844 43.6364C84.9844 41.9697 83.6274 40.4545 81.818 40.4545C80.0087 40.4545 78.6516 41.8182 78.6516 43.6364C78.6516 45.303 80.1594 46.8182 81.818 46.8182C83.4766 46.8182 84.9844 45.4545 84.9844 43.6364ZM7.0312 57.1212C5.22184 57.1212 3.86482 55.6061 3.86482 53.9394C3.86482 52.1212 5.37262 50.7576 7.0312 50.7576C8.68977 50.7576 10.1976 52.2727 10.1976 53.9394C10.1976 55.7576 8.84055 57.1212 7.0312 57.1212ZM13.9671 72.8788C13.9671 74.5455 15.3241 76.0606 17.1334 76.0606C18.9428 76.0606 20.2998 74.697 20.2998 72.8788C20.2998 71.2121 18.792 69.697 17.1334 69.697C15.4749 69.697 13.9671 71.0606 13.9671 72.8788ZM7.0312 95C5.22184 95 3.86482 93.4848 3.86482 91.8182C3.86482 90.1515 5.37262 88.6364 7.0312 88.6364C8.68977 88.6364 10.1976 90.1515 10.1976 91.8182C10.1976 93.4848 8.84055 95 7.0312 95ZM44.4246 3.0303C32.9653 3.0303 23.4662 12.4242 23.4662 24.0909C23.4662 35.6061 32.9653 45 44.4246 45.1515C56.0347 45.1515 65.383 35.6061 65.383 24.0909C65.383 12.4242 55.8839 3.0303 44.4246 3.0303ZM44.4246 96.3636L39.9012 91.8182V47.5758C41.409 47.8788 42.9168 48.0303 44.4246 48.0303C45.9324 48.0303 47.4402 47.8788 48.948 47.5758V91.6667L44.4246 96.3636ZM78.6516 81.5152C78.6516 83.1818 80.0087 84.697 81.818 84.697C83.6274 84.697 84.9844 83.1818 84.9844 81.5152C84.9844 79.8485 83.4766 78.3333 81.818 78.3333C80.1594 78.3333 78.6516 79.8485 78.6516 81.5152Z" fill="#007AFF"/>
<path d="M75.7868 80V80.25H75.9876L76.0309 80.054L75.7868 80ZM68.0971 80L67.9198 80.1763L67.9931 80.25H68.0971V80ZM62.2166 74.0909L62.0394 74.2673L62.2166 74.0909ZM52.1144 73.6364H51.8644V73.8864H52.1144V73.6364ZM52.1144 65.6061V65.3561H51.8644V65.6061H52.1144ZM66.4385 65.6061L66.6588 65.488L66.5881 65.3561H66.4385V65.6061ZM65.6846 62.5758V62.8258H65.9346V62.5758H65.6846ZM52.1144 62.5758H51.8644V62.8258H52.1144V62.5758ZM52.1144 51.5152V51.2652H51.8644V51.5152H52.1144ZM62.2166 51.0606L62.0394 50.8843L62.2166 51.0606ZM68.0971 45.1515V44.9015H67.9931L67.9198 44.9752L68.0971 45.1515ZM75.7868 45.1515L76.0309 45.0975L75.9876 44.9015H75.7868V45.1515ZM75.7868 42.2727V42.5227H75.9771L76.0278 42.3393L75.7868 42.2727ZM66.4385 42.7273L66.6112 42.9082L66.6157 42.9036L66.4385 42.7273ZM60.4073 48.4848V48.7348H60.5075L60.5799 48.6657L60.4073 48.4848ZM51.9636 48.4848H51.7136V48.7348H51.9636V48.4848ZM51.9636 46.8182L51.8842 46.5811L51.7136 46.6383V46.8182H51.9636ZM36.8856 46.8182H37.1356V46.6383L36.965 46.5811L36.8856 46.8182ZM36.8856 58.7879V59.0379H37.1356V58.7879H36.8856ZM28.4419 58.7879L28.2647 58.9642L28.338 59.0379H28.4419V58.7879ZM22.5615 52.8788L22.3843 53.0551L22.5615 52.8788ZM13.2132 52.4242L12.9722 52.4909L13.0229 52.6742H13.2132V52.4242ZM13.2132 55.303V55.053H13.0124L12.9691 55.2491L13.2132 55.303ZM20.9029 55.303L21.0802 55.1267L21.0069 55.053H20.9029V55.303ZM26.7834 61.2121L26.9606 61.0358L26.7834 61.2121ZM36.8856 61.6667H37.1356V61.4167H36.8856V61.6667ZM36.8856 71.2121V71.4621H37.1356V71.2121H36.8856ZM23.1646 71.2121L22.9237 71.2787L22.9744 71.4621H23.1646V71.2121ZM23.1646 74.2424V73.9924H22.9639L22.9205 74.1884L23.1646 74.2424ZM36.8856 74.2424H37.1356V73.9924H36.8856V74.2424ZM36.8856 83.7879V84.0379H37.1356V83.7879H36.8856ZM26.7834 84.2424L26.9606 84.4188L26.7834 84.2424ZM20.9029 90.1515V90.4015H21.0069L21.0802 90.3279L20.9029 90.1515ZM13.2132 90.1515L12.9691 90.2055L13.0124 90.4015H13.2132V90.1515ZM13.2132 93.0303V92.7803H13.0229L12.9722 92.9637L13.2132 93.0303ZM22.5615 92.5758L22.3843 92.3994L22.5615 92.5758ZM28.4419 86.6667V86.4167H28.338L28.2647 86.4903L28.4419 86.6667ZM36.8856 86.6667H37.1356V86.4167H36.8856V86.6667ZM37.338 93.4848L37.1607 93.6612L37.338 93.4848ZM43.3692 99.5455L43.5464 99.3691L43.3692 99.5455ZM45.4801 99.5455L45.3029 99.3691L45.4801 99.5455ZM51.5113 93.4848L51.6885 93.6612L51.5113 93.4848ZM51.9636 76.6667V76.4167H51.7136V76.6667H51.9636ZM60.4073 76.6667L60.5845 76.4903L60.5112 76.4167H60.4073V76.6667ZM66.2877 82.5758L66.4649 82.3994L66.2877 82.5758ZM75.636 83.0303L75.877 82.9637L75.8263 82.7803H75.636V83.0303ZM87.8492 81.5152L87.6002 81.4936L87.5992 81.5044V81.5152H87.8492ZM44.4246 45.1515L44.4213 45.4015H44.4246V45.1515ZM39.9012 91.8182H39.6512V91.9214L39.724 91.9945L39.9012 91.8182ZM44.4246 96.3636L44.2474 96.54L44.4275 96.721L44.6047 96.537L44.4246 96.3636ZM39.9012 47.5758L39.9505 47.3307L39.6512 47.2705V47.5758H39.9012ZM48.948 47.5758H49.198V47.2705L48.8988 47.3307L48.948 47.5758ZM48.948 91.6667L49.1281 91.8401L49.198 91.7675V91.6667H48.948ZM76.0309 80.054C76.61 77.4355 78.9254 75.4015 81.818 75.4015V74.9015C78.6794 74.9015 76.1699 77.1099 75.5427 79.946L76.0309 80.054ZM68.0971 80.25H75.7868V79.75H68.0971V80.25ZM62.0394 74.2673L67.9198 80.1763L68.2743 79.8237L62.3938 73.9146L62.0394 74.2673ZM61.1612 73.8864C61.358 73.8864 61.5109 73.919 61.6435 73.9783C61.7773 74.038 61.9034 74.1305 62.0394 74.2673L62.3938 73.9146C62.2284 73.7483 62.0529 73.6135 61.8474 73.5217C61.6408 73.4295 61.4167 73.3864 61.1612 73.3864V73.8864ZM52.1144 73.8864H61.1612V73.3864H52.1144V73.8864ZM51.8644 65.6061V73.6364H52.3644V65.6061H51.8644ZM66.4385 65.3561H52.1144V65.8561H66.4385V65.3561ZM71.8666 68.5379C69.6924 68.5379 67.6686 67.3725 66.6588 65.488L66.2181 65.7241C67.3192 67.779 69.5173 69.0379 71.8666 69.0379V68.5379ZM77.7985 62.5758C77.7985 65.7762 75.1913 68.5379 71.8666 68.5379V69.0379C75.4776 69.0379 78.2985 66.042 78.2985 62.5758H77.7985ZM71.8666 56.6136C75.0485 56.6136 77.7985 59.2318 77.7985 62.5758H78.2985C78.2985 58.95 75.319 56.1136 71.8666 56.1136V56.6136ZM65.9346 62.5758C65.9346 59.3754 68.5418 56.6136 71.8666 56.6136V56.1136C68.2555 56.1136 65.4346 59.1095 65.4346 62.5758H65.9346ZM52.1144 62.8258H65.6846V62.3258H52.1144V62.8258ZM51.8644 51.5152V62.5758H52.3644V51.5152H51.8644ZM61.1612 51.2652H52.1144V51.7652H61.1612V51.2652ZM62.0394 50.8843C61.9034 51.021 61.7773 51.1135 61.6435 51.1732C61.5109 51.2325 61.358 51.2652 61.1612 51.2652V51.7652C61.4167 51.7652 61.6408 51.7221 61.8474 51.6298C62.0529 51.538 62.2284 51.4032 62.3938 51.237L62.0394 50.8843ZM67.9198 44.9752L62.0394 50.8843L62.3938 51.237L68.2743 45.3279L67.9198 44.9752ZM75.7868 44.9015H68.0971V45.4015H75.7868V44.9015ZM81.818 49.75C79.0725 49.75 76.6092 47.7123 76.0309 45.0975L75.5427 45.2055C76.1707 48.0453 78.8339 50.25 81.818 50.25V49.75ZM87.75 43.7879C87.75 46.9883 85.1428 49.75 81.818 49.75V50.25C85.4291 50.25 88.25 47.2541 88.25 43.7879H87.75ZM81.818 37.8258C84.9999 37.8258 87.75 40.4439 87.75 43.7879H88.25C88.25 40.1622 85.2704 37.3258 81.818 37.3258V37.8258ZM76.0278 42.3393C76.7537 39.7132 79.073 37.8258 81.818 37.8258V37.3258C78.8334 37.3258 76.3277 39.3778 75.5459 42.2061L76.0278 42.3393ZM67.4939 42.5227H75.7868V42.0227H67.4939V42.5227ZM66.6157 42.9036C66.7518 42.7669 66.8778 42.6744 67.0116 42.6146C67.1442 42.5554 67.2971 42.5227 67.4939 42.5227V42.0227C67.2384 42.0227 67.0143 42.0658 66.8077 42.1581C66.6022 42.2499 66.4268 42.3846 66.2613 42.5509L66.6157 42.9036ZM60.5799 48.6657L66.6111 42.9081L66.2658 42.5464L60.2347 48.304L60.5799 48.6657ZM51.9636 48.7348H60.4073V48.2348H51.9636V48.7348ZM51.7136 46.8182V48.4848H52.2136V46.8182H51.7136ZM68.1486 24.0909C68.1486 34.5846 61.2861 43.4319 51.8842 46.5811L52.043 47.0552C61.6393 43.8409 68.6486 34.8093 68.6486 24.0909H68.1486ZM44.4246 0.25C57.4043 0.25 68.1486 10.8955 68.1486 24.0909H68.6486C68.6486 10.6196 57.6807 -0.25 44.4246 -0.25V0.25ZM20.7006 24.0909C20.7006 10.8955 31.445 0.25 44.4246 0.25V-0.25C31.1686 -0.25 20.2006 10.6196 20.2006 24.0909H20.7006ZM36.965 46.5811C27.5631 43.4319 20.7006 34.5846 20.7006 24.0909H20.2006C20.2006 34.8093 27.2099 43.8409 36.8062 47.0552L36.965 46.5811ZM37.1356 58.7879V46.8182H36.6356V58.7879H37.1356ZM28.4419 59.0379H36.8856V58.5379H28.4419V59.0379ZM22.3843 53.0551L28.2647 58.9642L28.6191 58.6115L22.7387 52.7024L22.3843 53.0551ZM21.5061 52.6742C21.7029 52.6742 21.8557 52.7069 21.9884 52.7661C22.1222 52.8259 22.2482 52.9184 22.3843 53.0551L22.7387 52.7024C22.5732 52.5361 22.3978 52.4014 22.1923 52.3096C21.9857 52.2173 21.7616 52.1742 21.5061 52.1742V52.6742ZM13.2132 52.6742H21.5061V52.1742H13.2132V52.6742ZM7.18198 47.9773C9.92701 47.9773 12.2463 49.8647 12.9722 52.4909L13.4541 52.3576C12.6723 49.5293 10.1666 47.4773 7.18198 47.4773V47.9773ZM1.25 53.9394C1.25 50.739 3.85719 47.9773 7.18198 47.9773V47.4773C3.57089 47.4773 0.75 50.4731 0.75 53.9394H1.25ZM7.18198 59.9015C4.00007 59.9015 1.25 57.2834 1.25 53.9394H0.75C0.75 57.5651 3.72957 60.4015 7.18198 60.4015V59.9015ZM12.9691 55.2491C12.39 57.8675 10.0746 59.9015 7.18198 59.9015V60.4015C10.3206 60.4015 12.8301 58.1931 13.4573 55.357L12.9691 55.2491ZM20.9029 55.053H13.2132V55.553H20.9029V55.053ZM26.9606 61.0358L21.0802 55.1267L20.7257 55.4794L26.6062 61.3885L26.9606 61.0358ZM27.8388 61.4167C27.642 61.4167 27.4891 61.384 27.3565 61.3248C27.2227 61.265 27.0966 61.1725 26.9606 61.0358L26.6062 61.3885C26.7716 61.5548 26.9471 61.6895 27.1526 61.7813C27.3592 61.8736 27.5833 61.9167 27.8388 61.9167V61.4167ZM36.8856 61.4167H27.8388V61.9167H36.8856V61.4167ZM37.1356 71.2121V61.6667H36.6356V71.2121H37.1356ZM23.1646 71.4621H36.8856V70.9621H23.1646V71.4621ZM17.1334 66.7652C19.8785 66.7652 22.1977 68.6525 22.9237 71.2787L23.4056 71.1455C22.6238 68.3171 20.118 66.2652 17.1334 66.2652V66.7652ZM11.2015 72.7273C11.2015 69.5269 13.8087 66.7652 17.1334 66.7652V66.2652C13.5224 66.2652 10.7015 69.261 10.7015 72.7273H11.2015ZM17.1334 78.6894C13.9515 78.6894 11.2015 76.0712 11.2015 72.7273H10.7015C10.7015 76.353 13.681 79.1894 17.1334 79.1894V78.6894ZM22.9205 74.1884C22.3443 76.7943 19.8883 78.6894 17.1334 78.6894V79.1894C20.1083 79.1894 22.7788 77.1451 23.4087 74.2964L22.9205 74.1884ZM36.8856 73.9924H23.1646V74.4924H36.8856V73.9924ZM37.1356 83.7879V74.2424H36.6356V83.7879H37.1356ZM27.8388 84.0379H36.8856V83.5379H27.8388V84.0379ZM26.9606 84.4188C27.0966 84.282 27.2227 84.1895 27.3565 84.1298C27.4891 84.0705 27.642 84.0379 27.8388 84.0379V83.5379C27.5833 83.5379 27.3592 83.581 27.1526 83.6732C26.9471 83.765 26.7716 83.8998 26.6062 84.0661L26.9606 84.4188ZM21.0802 90.3279L26.9606 84.4188L26.6062 84.0661L20.7257 89.9752L21.0802 90.3279ZM13.2132 90.4015H20.9029V89.9015H13.2132V90.4015ZM7.18198 85.553C9.92747 85.553 12.3908 87.5907 12.9691 90.2055L13.4573 90.0975C12.8293 87.2578 10.1661 85.053 7.18198 85.053V85.553ZM1.25 91.5152C1.25 88.3148 3.85719 85.553 7.18198 85.553V85.053C3.57089 85.053 0.75 88.0489 0.75 91.5152H1.25ZM7.18198 97.4773C4.00007 97.4773 1.25 94.8591 1.25 91.5152H0.75C0.75 95.1409 3.72957 97.9773 7.18198 97.9773V97.4773ZM12.9722 92.9637C12.2463 95.5899 9.92701 97.4773 7.18198 97.4773V97.9773C10.1666 97.9773 12.6723 95.9253 13.4541 93.0969L12.9722 92.9637ZM21.5061 92.7803H13.2132V93.2803H21.5061V92.7803ZM22.3843 92.3994C22.2482 92.5361 22.1222 92.6287 21.9884 92.6884C21.8557 92.7476 21.7029 92.7803 21.5061 92.7803V93.2803C21.7616 93.2803 21.9857 93.2372 22.1923 93.1449C22.3978 93.0532 22.5732 92.9184 22.7387 92.7521L22.3843 92.3994ZM28.2647 86.4903L22.3843 92.3994L22.7387 92.7521L28.6191 86.843L28.2647 86.4903ZM36.8856 86.4167H28.4419V86.9167H36.8856V86.4167ZM37.1356 92.4242V86.6667H36.6356V92.4242H37.1356ZM37.5152 93.3085C37.3791 93.1718 37.2869 93.045 37.2273 92.9102C37.1682 92.7766 37.1356 92.6225 37.1356 92.4242H36.6356C36.6356 92.6805 36.6784 92.9053 36.7701 93.1125C36.8613 93.3187 36.9952 93.4949 37.1607 93.6612L37.5152 93.3085ZM43.5464 99.3691L37.5152 93.3085L37.1607 93.6612L43.1919 99.7218L43.5464 99.3691ZM44.4246 99.75C44.1853 99.75 43.7981 99.622 43.5464 99.3691L43.1919 99.7218C43.5434 100.075 44.0608 100.25 44.4246 100.25V99.75ZM45.3029 99.3691C45.1668 99.5058 45.0407 99.5984 44.9069 99.6581C44.7743 99.7173 44.6215 99.75 44.4246 99.75V100.25C44.6801 100.25 44.9042 100.207 45.1108 100.115C45.3163 100.023 45.4918 99.8881 45.6573 99.7218L45.3029 99.3691ZM51.3341 93.3085L45.3029 99.3691L45.6573 99.7218L51.6885 93.6612L51.3341 93.3085ZM51.7136 92.4242C51.7136 92.6225 51.681 92.7766 51.6219 92.9102C51.5623 93.045 51.4701 93.1718 51.3341 93.3085L51.6885 93.6612C51.854 93.4949 51.988 93.3187 52.0792 93.1125C52.1708 92.9053 52.2136 92.6805 52.2136 92.4242H51.7136ZM51.7136 76.6667V92.4242H52.2136V76.6667H51.7136ZM60.4073 76.4167H51.9636V76.9167H60.4073V76.4167ZM66.4649 82.3994L60.5845 76.4903L60.2301 76.843L66.1105 82.7521L66.4649 82.3994ZM67.3432 82.7803C67.1463 82.7803 66.9935 82.7476 66.8608 82.6884C66.7271 82.6287 66.601 82.5361 66.4649 82.3994L66.1105 82.7521C66.276 82.9184 66.4514 83.0532 66.6569 83.1449C66.8635 83.2372 67.0877 83.2803 67.3432 83.2803V82.7803ZM75.636 82.7803H67.3432V83.2803H75.636V82.7803ZM81.6672 87.4773C78.9222 87.4773 76.603 85.5899 75.877 82.9637L75.3951 83.0969C76.1769 85.9253 78.6826 87.9773 81.6672 87.9773V87.4773ZM87.5992 81.5152C87.5992 84.7156 84.992 87.4773 81.6672 87.4773V87.9773C85.2783 87.9773 88.0992 84.9814 88.0992 81.5152H87.5992ZM81.818 75.4015C85.1514 75.4015 87.8881 78.1665 87.6002 81.4936L88.0983 81.5367C88.4135 77.8941 85.4205 74.9015 81.818 74.9015V75.4015ZM75.1321 62.5758C75.1321 60.78 73.672 59.1439 71.7158 59.1439V59.6439C73.3783 59.6439 74.6321 61.0382 74.6321 62.5758H75.1321ZM71.7158 66.0076C73.5058 66.0076 75.1321 64.5386 75.1321 62.5758H74.6321C74.6321 64.2493 73.2429 65.5076 71.7158 65.5076V66.0076ZM68.2994 62.5758C68.2994 64.3715 69.7596 66.0076 71.7158 66.0076V65.5076C70.0533 65.5076 68.7994 64.1133 68.7994 62.5758H68.2994ZM71.7158 59.1439C69.7672 59.1439 68.2994 60.6207 68.2994 62.5758H68.7994C68.7994 60.8945 70.0456 59.6439 71.7158 59.6439V59.1439ZM81.818 40.7045C83.4805 40.7045 84.7344 42.0988 84.7344 43.6364H85.2344C85.2344 41.8406 83.7742 40.2045 81.818 40.2045V40.7045ZM78.9016 43.6364C78.9016 41.9551 80.1479 40.7045 81.818 40.7045V40.2045C79.8695 40.2045 78.4016 41.6813 78.4016 43.6364H78.9016ZM81.818 46.5682C80.2987 46.5682 78.9016 45.1661 78.9016 43.6364H78.4016C78.4016 45.44 80.0202 47.0682 81.818 47.0682V46.5682ZM84.7344 43.6364C84.7344 45.3099 83.3452 46.5682 81.818 46.5682V47.0682C83.6081 47.0682 85.2344 45.5992 85.2344 43.6364H84.7344ZM3.61482 53.9394C3.61482 55.7352 5.07498 57.3712 7.0312 57.3712V56.8712C5.3687 56.8712 4.11482 55.4769 4.11482 53.9394H3.61482ZM7.0312 50.5076C5.24117 50.5076 3.61482 51.9766 3.61482 53.9394H4.11482C4.11482 52.2658 5.50406 51.0076 7.0312 51.0076V50.5076ZM10.4476 53.9394C10.4476 52.1358 8.82899 50.5076 7.0312 50.5076V51.0076C8.55056 51.0076 9.94757 52.4097 9.94757 53.9394H10.4476ZM7.0312 57.3712C8.97977 57.3712 10.4476 55.8945 10.4476 53.9394H9.94757C9.94757 55.6207 8.70134 56.8712 7.0312 56.8712V57.3712ZM17.1334 75.8106C15.471 75.8106 14.2171 74.4163 14.2171 72.8788H13.7171C13.7171 74.6746 15.1772 76.3106 17.1334 76.3106V75.8106ZM20.0498 72.8788C20.0498 74.56 18.8036 75.8106 17.1334 75.8106V76.3106C19.082 76.3106 20.5498 74.8339 20.5498 72.8788H20.0498ZM17.1334 69.947C18.6528 69.947 20.0498 71.349 20.0498 72.8788H20.5498C20.5498 71.0752 18.9312 69.447 17.1334 69.447V69.947ZM14.2171 72.8788C14.2171 71.2052 15.6063 69.947 17.1334 69.947V69.447C15.3434 69.447 13.7171 70.916 13.7171 72.8788H14.2171ZM3.61482 91.8182C3.61482 93.614 5.07498 95.25 7.0312 95.25V94.75C5.3687 94.75 4.11482 93.3557 4.11482 91.8182H3.61482ZM7.0312 88.3864C5.2334 88.3864 3.61482 90.0146 3.61482 91.8182H4.11482C4.11482 90.2884 5.51183 88.8864 7.0312 88.8864V88.3864ZM10.4476 91.8182C10.4476 90.0146 8.82899 88.3864 7.0312 88.3864V88.8864C8.55056 88.8864 9.94757 90.2884 9.94757 91.8182H10.4476ZM7.0312 95.25C8.98742 95.25 10.4476 93.614 10.4476 91.8182H9.94757C9.94757 93.3557 8.69369 94.75 7.0312 94.75V95.25ZM23.7162 24.0909C23.7162 12.5623 33.1034 3.2803 44.4246 3.2803V2.7803C32.8273 2.7803 23.2162 12.2861 23.2162 24.0909H23.7162ZM44.4279 44.9015C33.1023 44.7518 23.7162 35.4662 23.7162 24.0909H23.2162C23.2162 35.7459 32.8284 45.2482 44.4213 45.4015L44.4279 44.9015ZM65.133 24.0909C65.133 35.4703 55.8943 44.9015 44.4246 44.9015V45.4015C56.175 45.4015 65.633 35.7418 65.633 24.0909H65.133ZM44.4246 3.2803C55.7458 3.2803 65.133 12.5623 65.133 24.0909H65.633C65.633 12.2861 56.0219 2.7803 44.4246 2.7803V3.2803ZM39.724 91.9945L44.2474 96.54L44.6018 96.1873L40.0784 91.6418L39.724 91.9945ZM39.6512 47.5758V91.8182H40.1512V47.5758H39.6512ZM44.4246 47.7803C42.9337 47.7803 41.4424 47.6305 39.9505 47.3307L39.852 47.8209C41.3756 48.1271 42.8999 48.2803 44.4246 48.2803V47.7803ZM48.8988 47.3307C47.4068 47.6305 45.9155 47.7803 44.4246 47.7803V48.2803C45.9493 48.2803 47.4736 48.1271 48.9973 47.8209L48.8988 47.3307ZM49.198 91.6667V47.5758H48.698V91.6667H49.198ZM44.6047 96.537L49.1281 91.8401L48.7679 91.4932L44.2445 96.1902L44.6047 96.537ZM81.818 84.447C80.1555 84.447 78.9016 83.0527 78.9016 81.5152H78.4016C78.4016 83.3109 79.8618 84.947 81.818 84.947V84.447ZM84.7344 81.5152C84.7344 83.0527 83.4805 84.447 81.818 84.447V84.947C83.7742 84.947 85.2344 83.3109 85.2344 81.5152H84.7344ZM81.818 78.5833C83.3374 78.5833 84.7344 79.9854 84.7344 81.5152H85.2344C85.2344 79.7116 83.6158 78.0833 81.818 78.0833V78.5833ZM78.9016 81.5152C78.9016 79.9854 80.2987 78.5833 81.818 78.5833V78.0833C80.0202 78.0833 78.4016 79.7116 78.4016 81.5152H78.9016Z" fill="white"/>
</svg>
