<svg width="102" height="101" viewBox="0 0 102 101" fill="none" xmlns="http://www.w3.org/2000/svg">
<path fill-rule="evenodd" clip-rule="evenodd" d="M30.0291 64.9289C30.4075 63.2828 31.1203 62.1556 32.208 61.4828C34.0928 60.3169 46.7053 63.2353 47.8906 65.1114C48.5746 66.1943 48.7231 67.5209 48.3445 69.167C47.3431 73.522 43.4648 76.4765 39.1876 76.4765C38.4901 76.4765 37.7824 76.398 37.0745 76.2343C34.6283 75.6683 32.5483 74.1805 31.2176 72.0453C29.8869 69.9099 29.4648 67.3827 30.0291 64.9289ZM37.7342 73.3656C41.2062 74.1689 44.6835 71.9888 45.4848 68.5054C45.6751 67.6773 45.6505 67.0657 45.4118 66.6873C44.8829 65.8502 35.7784 63.7587 34.8166 63.7587C34.3775 63.7587 34.0122 63.8257 33.7488 63.9886C33.3687 64.2237 33.0795 64.7627 32.8891 65.5907C32.5009 67.2783 32.7913 69.0162 33.7064 70.4847C34.6215 71.9532 36.052 72.9764 37.7342 73.3656Z" fill="#007AFF"/>
<path d="M32.208 61.4828L32.0765 61.2702L32.0765 61.2702L32.208 61.4828ZM30.0291 64.9289L30.2728 64.9849L30.2728 64.9849L30.0291 64.9289ZM47.8906 65.1114L48.102 64.9779L48.102 64.9779L47.8906 65.1114ZM48.3445 69.167L48.1009 69.1109L48.1009 69.111L48.3445 69.167ZM37.0745 76.2343L37.0181 76.4779L37.0182 76.4779L37.0745 76.2343ZM31.2176 72.0453L31.0054 72.1775L31.0054 72.1775L31.2176 72.0453ZM45.4848 68.5054L45.7284 68.5614L45.7284 68.5614L45.4848 68.5054ZM37.7342 73.3656L37.7906 73.122L37.7906 73.122L37.7342 73.3656ZM45.4118 66.6873L45.6232 66.5539L45.6231 66.5538L45.4118 66.6873ZM33.7488 63.9886L33.8803 64.2012L33.8803 64.2012L33.7488 63.9886ZM32.8891 65.5907L33.1327 65.6468L33.1327 65.6467L32.8891 65.5907ZM33.7064 70.4847L33.9186 70.3525L33.7064 70.4847ZM32.0765 61.2702C30.9156 61.9883 30.1739 63.1833 29.7855 64.8729L30.2728 64.9849C30.6412 63.3822 31.3251 62.3229 32.3395 61.6954L32.0765 61.2702ZM48.102 64.9779C47.9177 64.6862 47.5415 64.41 47.0753 64.1506C46.5985 63.8853 45.9887 63.617 45.2933 63.3551C43.9015 62.8309 42.1437 62.3237 40.368 61.9128C38.5922 61.5019 36.7906 61.1855 35.3105 61.0452C34.5709 60.9751 33.9056 60.9484 33.3611 60.9774C32.8287 61.0057 32.3698 61.0888 32.0765 61.2702L32.3395 61.6954C32.5175 61.5853 32.8649 61.5045 33.3877 61.4767C33.8983 61.4495 34.5368 61.4741 35.2633 61.543C36.7152 61.6806 38.4941 61.9924 40.2553 62.3999C42.0164 62.8074 43.7518 63.3087 45.1171 63.823C45.8002 64.0803 46.385 64.3387 46.8322 64.5875C47.2899 64.8422 47.5672 65.0676 47.6792 65.245L48.102 64.9779ZM48.5882 69.223C48.9768 67.5334 48.8319 66.1334 48.102 64.9779L47.6792 65.245C48.3174 66.2552 48.4695 67.5083 48.1009 69.1109L48.5882 69.223ZM39.1876 76.7265C43.5789 76.7265 47.5602 73.6938 48.5882 69.223L48.1009 69.111C47.1261 73.3503 43.3506 76.2265 39.1876 76.2265V76.7265ZM37.0182 76.4779C37.7447 76.6459 38.4713 76.7265 39.1876 76.7265V76.2265C38.5089 76.2265 37.8201 76.1501 37.1308 75.9907L37.0182 76.4779ZM31.0054 72.1775C32.3711 74.3689 34.5072 75.8968 37.0181 76.4779L37.1308 75.9907C34.7495 75.4397 32.7254 73.9921 31.4297 71.9131L31.0054 72.1775ZM29.7855 64.8729C29.2064 67.391 29.6397 69.9859 31.0054 72.1775L31.4297 71.9131C30.1341 69.8338 29.7233 67.3743 30.2728 64.9849L29.7855 64.8729ZM45.2411 68.4493C44.4707 71.7987 41.1273 73.8941 37.7906 73.122L37.6779 73.6092C41.2852 74.4438 44.8963 72.1788 45.7284 68.5614L45.2411 68.4493ZM45.2003 66.8207C45.3827 67.1097 45.4285 67.6342 45.2411 68.4493L45.7284 68.5614C45.9218 67.7203 45.9183 67.0217 45.6232 66.5539L45.2003 66.8207ZM34.8166 64.0087C34.9117 64.0087 35.1377 64.0371 35.4839 64.0966C35.8219 64.1548 36.2553 64.2391 36.7521 64.3433C37.7456 64.5517 38.9868 64.8384 40.2148 65.1514C41.4435 65.4645 42.6547 65.8027 43.5895 66.1138C44.0575 66.2695 44.4508 66.4167 44.7405 66.5486C44.8856 66.6147 44.9994 66.6746 45.0816 66.7271C45.1226 66.7533 45.1526 66.7757 45.1735 66.7939C45.1953 66.8128 45.2013 66.8221 45.2004 66.8208L45.6231 66.5538C45.5595 66.453 45.4537 66.3715 45.3508 66.3058C45.2411 66.2357 45.1041 66.1648 44.9477 66.0936C44.6346 65.951 44.2222 65.7974 43.7474 65.6393C42.7962 65.3228 41.572 64.9812 40.3383 64.6668C39.1038 64.3523 37.8555 64.0639 36.8548 63.8539C36.3546 63.749 35.9147 63.6634 35.5687 63.6039C35.2308 63.5458 34.9619 63.5087 34.8166 63.5087V64.0087ZM33.8803 64.2012C34.0855 64.0743 34.3955 64.0087 34.8166 64.0087V63.5087C34.3595 63.5087 33.9389 63.5771 33.6173 63.776L33.8803 64.2012ZM33.1327 65.6467C33.3202 64.8315 33.5904 64.3805 33.8803 64.2012L33.6173 63.776C33.147 64.0669 32.8388 64.6938 32.6455 65.5347L33.1327 65.6467ZM33.9186 70.3525C33.0384 68.9402 32.7594 67.2699 33.1327 65.6468L32.6455 65.5347C32.2425 67.2866 32.5441 69.0923 33.4942 70.617L33.9186 70.3525ZM37.7906 73.122C36.1731 72.7478 34.7986 71.7648 33.9186 70.3525L33.4942 70.617C34.4443 72.1417 35.9308 73.205 37.6779 73.6092L37.7906 73.122Z" fill="white"/>
<path d="M32.208 61.4828L32.0765 61.2702L32.0765 61.2702L32.208 61.4828ZM30.0291 64.9289L30.2728 64.9849L30.2728 64.9849L30.0291 64.9289ZM47.8906 65.1114L48.102 64.9779L48.102 64.9779L47.8906 65.1114ZM48.3445 69.167L48.1009 69.1109L48.1009 69.111L48.3445 69.167ZM37.0745 76.2343L37.0181 76.4779L37.0182 76.4779L37.0745 76.2343ZM31.2176 72.0453L31.0054 72.1775L31.0054 72.1775L31.2176 72.0453ZM45.4848 68.5054L45.7284 68.5614L45.7284 68.5614L45.4848 68.5054ZM37.7342 73.3656L37.7906 73.122L37.7906 73.122L37.7342 73.3656ZM45.4118 66.6873L45.6232 66.5539L45.6231 66.5538L45.4118 66.6873ZM33.7488 63.9886L33.8803 64.2012L33.8803 64.2012L33.7488 63.9886ZM32.8891 65.5907L33.1327 65.6468L33.1327 65.6467L32.8891 65.5907ZM33.7064 70.4847L33.9186 70.3525L33.7064 70.4847ZM32.0765 61.2702C30.9156 61.9883 30.1739 63.1833 29.7855 64.8729L30.2728 64.9849C30.6412 63.3822 31.3251 62.3229 32.3395 61.6954L32.0765 61.2702ZM48.102 64.9779C47.9177 64.6862 47.5415 64.41 47.0753 64.1506C46.5985 63.8853 45.9887 63.617 45.2933 63.3551C43.9015 62.8309 42.1437 62.3237 40.368 61.9128C38.5922 61.5019 36.7906 61.1855 35.3105 61.0452C34.5709 60.9751 33.9056 60.9484 33.3611 60.9774C32.8287 61.0057 32.3698 61.0888 32.0765 61.2702L32.3395 61.6954C32.5175 61.5853 32.8649 61.5045 33.3877 61.4767C33.8983 61.4495 34.5368 61.4741 35.2633 61.543C36.7152 61.6806 38.4941 61.9924 40.2553 62.3999C42.0164 62.8074 43.7518 63.3087 45.1171 63.823C45.8002 64.0803 46.385 64.3387 46.8322 64.5875C47.2899 64.8422 47.5672 65.0676 47.6792 65.245L48.102 64.9779ZM48.5882 69.223C48.9768 67.5334 48.8319 66.1334 48.102 64.9779L47.6792 65.245C48.3174 66.2552 48.4695 67.5083 48.1009 69.1109L48.5882 69.223ZM39.1876 76.7265C43.5789 76.7265 47.5602 73.6938 48.5882 69.223L48.1009 69.111C47.1261 73.3503 43.3506 76.2265 39.1876 76.2265V76.7265ZM37.0182 76.4779C37.7447 76.6459 38.4713 76.7265 39.1876 76.7265V76.2265C38.5089 76.2265 37.8201 76.1501 37.1308 75.9907L37.0182 76.4779ZM31.0054 72.1775C32.3711 74.3689 34.5072 75.8968 37.0181 76.4779L37.1308 75.9907C34.7495 75.4397 32.7254 73.9921 31.4297 71.9131L31.0054 72.1775ZM29.7855 64.8729C29.2064 67.391 29.6397 69.9859 31.0054 72.1775L31.4297 71.9131C30.1341 69.8338 29.7233 67.3743 30.2728 64.9849L29.7855 64.8729ZM45.2411 68.4493C44.4707 71.7987 41.1273 73.8941 37.7906 73.122L37.6779 73.6092C41.2852 74.4438 44.8963 72.1788 45.7284 68.5614L45.2411 68.4493ZM45.2003 66.8207C45.3827 67.1097 45.4285 67.6342 45.2411 68.4493L45.7284 68.5614C45.9218 67.7203 45.9183 67.0217 45.6232 66.5539L45.2003 66.8207ZM34.8166 64.0087C34.9117 64.0087 35.1377 64.0371 35.4839 64.0966C35.8219 64.1548 36.2553 64.2391 36.7521 64.3433C37.7456 64.5517 38.9868 64.8384 40.2148 65.1514C41.4435 65.4645 42.6547 65.8027 43.5895 66.1138C44.0575 66.2695 44.4508 66.4167 44.7405 66.5486C44.8856 66.6147 44.9994 66.6746 45.0816 66.7271C45.1226 66.7533 45.1526 66.7757 45.1735 66.7939C45.1953 66.8128 45.2013 66.8221 45.2004 66.8208L45.6231 66.5538C45.5595 66.453 45.4537 66.3715 45.3508 66.3058C45.2411 66.2357 45.1041 66.1648 44.9477 66.0936C44.6346 65.951 44.2222 65.7974 43.7474 65.6393C42.7962 65.3228 41.572 64.9812 40.3383 64.6668C39.1038 64.3523 37.8555 64.0639 36.8548 63.8539C36.3546 63.749 35.9147 63.6634 35.5687 63.6039C35.2308 63.5458 34.9619 63.5087 34.8166 63.5087V64.0087ZM33.8803 64.2012C34.0855 64.0743 34.3955 64.0087 34.8166 64.0087V63.5087C34.3595 63.5087 33.9389 63.5771 33.6173 63.776L33.8803 64.2012ZM33.1327 65.6467C33.3202 64.8315 33.5904 64.3805 33.8803 64.2012L33.6173 63.776C33.147 64.0669 32.8388 64.6938 32.6455 65.5347L33.1327 65.6467ZM33.9186 70.3525C33.0384 68.9402 32.7594 67.2699 33.1327 65.6468L32.6455 65.5347C32.2425 67.2866 32.5441 69.0923 33.4942 70.617L33.9186 70.3525ZM37.7906 73.122C36.1731 72.7478 34.7986 71.7648 33.9186 70.3525L33.4942 70.617C34.4443 72.1417 35.9308 73.205 37.6779 73.6092L37.7906 73.122Z" fill="#007AFF" fill-opacity="0.04"/>
<path fill-rule="evenodd" clip-rule="evenodd" d="M54.1105 65.1116C55.2958 63.2355 67.9083 60.3169 69.7931 61.4828C70.8806 62.1554 71.5934 63.2828 71.9718 64.9291C72.5361 67.3829 72.1141 69.9102 70.7834 72.0455C69.4527 74.1807 67.3726 75.6684 64.9267 76.2345C64.2191 76.3982 63.5107 76.4767 62.8135 76.4767C58.536 76.4767 54.6582 73.5224 53.6566 69.1672C53.2782 67.5208 53.4265 66.1944 54.1105 65.1116ZM64.2673 73.3656C65.9494 72.9762 67.3798 71.9532 68.295 70.4847C69.2099 69.0162 69.5002 67.2783 69.1124 65.5909C68.9218 64.7628 68.6327 64.2239 68.2527 63.9888C67.9891 63.8258 67.6236 63.7589 67.185 63.7589C66.2233 63.7589 57.1186 65.8502 56.5898 66.6875C56.3508 67.0657 56.3262 67.6773 56.5166 68.5053C57.3176 71.9886 60.7939 74.1689 64.2673 73.3656Z" fill="#007AFF"/>
<path d="M69.7931 61.4828L69.6616 61.6954L69.6616 61.6954L69.7931 61.4828ZM54.1105 65.1116L53.8992 64.9781L53.8992 64.9781L54.1105 65.1116ZM71.9718 64.9291L71.7282 64.9851L71.7282 64.9851L71.9718 64.9291ZM64.9267 76.2345L64.983 76.4781L64.983 76.478L64.9267 76.2345ZM53.6566 69.1672L53.413 69.2232L53.413 69.2232L53.6566 69.1672ZM68.295 70.4847L68.5071 70.6169L68.5071 70.6169L68.295 70.4847ZM64.2673 73.3656L64.3236 73.6092L64.3237 73.6092L64.2673 73.3656ZM69.1124 65.5909L69.3561 65.5349L69.3561 65.5348L69.1124 65.5909ZM68.2527 63.9888L68.3842 63.7762L68.3841 63.7761L68.2527 63.9888ZM56.5898 66.6875L56.8011 66.821L56.8011 66.821L56.5898 66.6875ZM56.5166 68.5053L56.2729 68.5614L56.2729 68.5614L56.5166 68.5053ZM69.9246 61.2702C69.6314 61.0888 69.1724 61.0057 68.64 60.9774C68.0955 60.9484 67.4302 60.9751 66.6907 61.0452C65.2106 61.1855 63.4089 61.502 61.6332 61.9129C59.8574 62.3238 58.0996 62.831 56.7078 63.3552C56.0124 63.6171 55.4026 63.8854 54.9258 64.1508C54.4596 64.4102 54.0835 64.6864 53.8992 64.9781L54.3219 65.2451C54.4339 65.0678 54.7112 64.8424 55.169 64.5877C55.6162 64.3388 56.2009 64.0804 56.8841 63.8231C58.2494 63.3089 59.9847 62.8075 61.7459 62.4C63.507 61.9925 65.286 61.6806 66.7379 61.543C67.4643 61.4741 68.1028 61.4495 68.6134 61.4767C69.1362 61.5045 69.4837 61.5853 69.6616 61.6954L69.9246 61.2702ZM72.2155 64.8731C71.8271 63.1834 71.0854 61.9881 69.9246 61.2702L69.6616 61.6954C70.6758 62.3227 71.3597 63.3822 71.7282 64.9851L72.2155 64.8731ZM70.9955 72.1777C72.3612 69.9863 72.7945 67.3912 72.2154 64.8731L71.7282 64.9851C72.2776 67.3745 71.8669 69.8342 70.5712 71.9133L70.9955 72.1777ZM64.983 76.478C67.4938 75.897 69.6298 74.3691 70.9955 72.1777L70.5712 71.9133C69.2755 73.9923 67.2514 75.4399 64.8703 75.9909L64.983 76.478ZM62.8135 76.7267C63.5295 76.7267 64.2569 76.6461 64.983 76.4781L64.8703 75.9909C64.1814 76.1503 63.4919 76.2267 62.8135 76.2267V76.7267ZM53.413 69.2232C54.4412 73.6942 58.4218 76.7267 62.8135 76.7267V76.2267C58.6502 76.2267 54.8752 73.3506 53.9002 69.1111L53.413 69.2232ZM53.8992 64.9781C53.1693 66.1336 53.0246 67.5334 53.413 69.2232L53.9002 69.1112C53.5318 67.5083 53.6837 66.2553 54.3219 65.2451L53.8992 64.9781ZM68.0828 70.3525C67.2027 71.7648 65.8282 72.7476 64.2109 73.122L64.3237 73.6092C66.0705 73.2048 67.557 72.1417 68.5071 70.6169L68.0828 70.3525ZM68.8688 65.6469C69.2418 67.2699 68.9627 68.9402 68.0828 70.3525L68.5071 70.6169C69.457 69.0923 69.7587 67.2866 69.3561 65.5349L68.8688 65.6469ZM68.1211 64.2013C68.411 64.3807 68.6812 64.8317 68.8688 65.647L69.3561 65.5348C69.1625 64.694 68.8544 64.0671 68.3842 63.7762L68.1211 64.2013ZM67.185 64.0089C67.6056 64.0089 67.9158 64.0745 68.1212 64.2014L68.3841 63.7761C68.0624 63.5772 67.6417 63.5089 67.185 63.5089V64.0089ZM56.8011 66.821C56.8003 66.8223 56.8062 66.813 56.8281 66.794C56.849 66.7758 56.879 66.7535 56.9199 66.7273C57.0022 66.6747 57.1159 66.6149 57.261 66.5488C57.5508 66.4168 57.944 66.2696 58.4121 66.1139C59.3469 65.8028 60.5581 65.4646 61.7868 65.1515C63.0148 64.8386 64.2561 64.5518 65.2495 64.3434C65.7463 64.2392 66.1797 64.1549 66.5177 64.0968C66.8639 64.0373 67.0899 64.0089 67.185 64.0089V63.5089C67.0397 63.5089 66.7708 63.5459 66.4329 63.604C66.0869 63.6635 65.647 63.7492 65.1468 63.8541C64.1461 64.064 62.8979 64.3524 61.6633 64.667C60.4296 64.9813 59.2053 65.3229 58.2542 65.6394C57.7793 65.7975 57.367 65.9511 57.0538 66.0937C56.8975 66.1649 56.7604 66.2359 56.6507 66.3059C56.5478 66.3717 56.442 66.4532 56.3784 66.554L56.8011 66.821ZM56.7602 68.4493C56.5728 67.6342 56.6187 67.1098 56.8011 66.821L56.3784 66.554C56.083 67.0216 56.0796 67.7204 56.2729 68.5614L56.7602 68.4493ZM64.2109 73.122C60.8729 73.8941 57.5304 71.7985 56.7602 68.4493L56.2729 68.5614C57.1048 72.1786 60.715 74.4438 64.3236 73.6092L64.2109 73.122Z" fill="white"/>
<path d="M69.7931 61.4828L69.6616 61.6954L69.6616 61.6954L69.7931 61.4828ZM54.1105 65.1116L53.8992 64.9781L53.8992 64.9781L54.1105 65.1116ZM71.9718 64.9291L71.7282 64.9851L71.7282 64.9851L71.9718 64.9291ZM64.9267 76.2345L64.983 76.4781L64.983 76.478L64.9267 76.2345ZM53.6566 69.1672L53.413 69.2232L53.413 69.2232L53.6566 69.1672ZM68.295 70.4847L68.5071 70.6169L68.5071 70.6169L68.295 70.4847ZM64.2673 73.3656L64.3236 73.6092L64.3237 73.6092L64.2673 73.3656ZM69.1124 65.5909L69.3561 65.5349L69.3561 65.5348L69.1124 65.5909ZM68.2527 63.9888L68.3842 63.7762L68.3841 63.7761L68.2527 63.9888ZM56.5898 66.6875L56.8011 66.821L56.8011 66.821L56.5898 66.6875ZM56.5166 68.5053L56.2729 68.5614L56.2729 68.5614L56.5166 68.5053ZM69.9246 61.2702C69.6314 61.0888 69.1724 61.0057 68.64 60.9774C68.0955 60.9484 67.4302 60.9751 66.6907 61.0452C65.2106 61.1855 63.4089 61.502 61.6332 61.9129C59.8574 62.3238 58.0996 62.831 56.7078 63.3552C56.0124 63.6171 55.4026 63.8854 54.9258 64.1508C54.4596 64.4102 54.0835 64.6864 53.8992 64.9781L54.3219 65.2451C54.4339 65.0678 54.7112 64.8424 55.169 64.5877C55.6162 64.3388 56.2009 64.0804 56.8841 63.8231C58.2494 63.3089 59.9847 62.8075 61.7459 62.4C63.507 61.9925 65.286 61.6806 66.7379 61.543C67.4643 61.4741 68.1028 61.4495 68.6134 61.4767C69.1362 61.5045 69.4837 61.5853 69.6616 61.6954L69.9246 61.2702ZM72.2155 64.8731C71.8271 63.1834 71.0854 61.9881 69.9246 61.2702L69.6616 61.6954C70.6758 62.3227 71.3597 63.3822 71.7282 64.9851L72.2155 64.8731ZM70.9955 72.1777C72.3612 69.9863 72.7945 67.3912 72.2154 64.8731L71.7282 64.9851C72.2776 67.3745 71.8669 69.8342 70.5712 71.9133L70.9955 72.1777ZM64.983 76.478C67.4938 75.897 69.6298 74.3691 70.9955 72.1777L70.5712 71.9133C69.2755 73.9923 67.2514 75.4399 64.8703 75.9909L64.983 76.478ZM62.8135 76.7267C63.5295 76.7267 64.2569 76.6461 64.983 76.4781L64.8703 75.9909C64.1814 76.1503 63.4919 76.2267 62.8135 76.2267V76.7267ZM53.413 69.2232C54.4412 73.6942 58.4218 76.7267 62.8135 76.7267V76.2267C58.6502 76.2267 54.8752 73.3506 53.9002 69.1111L53.413 69.2232ZM53.8992 64.9781C53.1693 66.1336 53.0246 67.5334 53.413 69.2232L53.9002 69.1112C53.5318 67.5083 53.6837 66.2553 54.3219 65.2451L53.8992 64.9781ZM68.0828 70.3525C67.2027 71.7648 65.8282 72.7476 64.2109 73.122L64.3237 73.6092C66.0705 73.2048 67.557 72.1417 68.5071 70.6169L68.0828 70.3525ZM68.8688 65.6469C69.2418 67.2699 68.9627 68.9402 68.0828 70.3525L68.5071 70.6169C69.457 69.0923 69.7587 67.2866 69.3561 65.5349L68.8688 65.6469ZM68.1211 64.2013C68.411 64.3807 68.6812 64.8317 68.8688 65.647L69.3561 65.5348C69.1625 64.694 68.8544 64.0671 68.3842 63.7762L68.1211 64.2013ZM67.185 64.0089C67.6056 64.0089 67.9158 64.0745 68.1212 64.2014L68.3841 63.7761C68.0624 63.5772 67.6417 63.5089 67.185 63.5089V64.0089ZM56.8011 66.821C56.8003 66.8223 56.8062 66.813 56.8281 66.794C56.849 66.7758 56.879 66.7535 56.9199 66.7273C57.0022 66.6747 57.1159 66.6149 57.261 66.5488C57.5508 66.4168 57.944 66.2696 58.4121 66.1139C59.3469 65.8028 60.5581 65.4646 61.7868 65.1515C63.0148 64.8386 64.2561 64.5518 65.2495 64.3434C65.7463 64.2392 66.1797 64.1549 66.5177 64.0968C66.8639 64.0373 67.0899 64.0089 67.185 64.0089V63.5089C67.0397 63.5089 66.7708 63.5459 66.4329 63.604C66.0869 63.6635 65.647 63.7492 65.1468 63.8541C64.1461 64.064 62.8979 64.3524 61.6633 64.667C60.4296 64.9813 59.2053 65.3229 58.2542 65.6394C57.7793 65.7975 57.367 65.9511 57.0538 66.0937C56.8975 66.1649 56.7604 66.2359 56.6507 66.3059C56.5478 66.3717 56.442 66.4532 56.3784 66.554L56.8011 66.821ZM56.7602 68.4493C56.5728 67.6342 56.6187 67.1098 56.8011 66.821L56.3784 66.554C56.083 67.0216 56.0796 67.7204 56.2729 68.5614L56.7602 68.4493ZM64.2109 73.122C60.8729 73.8941 57.5304 71.7985 56.7602 68.4493L56.2729 68.5614C57.1048 72.1786 60.715 74.4438 64.3236 73.6092L64.2109 73.122Z" fill="#007AFF" fill-opacity="0.04"/>
<path fill-rule="evenodd" clip-rule="evenodd" d="M94.1533 74.6897C92.7447 74.6897 91.4344 75.1189 90.3445 75.8532L85.2875 70.7804C84.9048 70.3965 84.3755 70.1764 83.8351 70.1764H78.9475V66.0548H83.8351C84.381 66.0548 84.9138 65.8306 85.2873 65.4493L90.3455 60.3768C91.435 61.1107 92.7449 61.5397 94.1531 61.5397C97.9291 61.5397 101.001 58.4581 101.001 54.6703C101.001 50.8824 97.9291 47.8008 94.1531 47.8008C90.377 47.8008 87.3049 50.8824 87.3049 54.6703C87.3049 55.9821 87.674 57.209 88.3126 58.2528L83.468 63.1109H78.9475V60.7125C78.9475 57.0402 78.2498 53.4689 76.8737 50.0977C76.5665 49.3454 75.7097 48.9851 74.9595 49.2932C74.2096 49.6012 73.8505 50.4608 74.1575 51.2131C75.3884 54.2287 76.0124 57.4245 76.0124 60.7123V80.6338C76.0124 81.4734 75.6866 82.2618 75.0928 82.8561C74.5029 83.4493 73.7169 83.7761 72.8797 83.7761C69.5341 83.7761 66.8122 86.5064 66.8122 89.8624V93.9134C66.8122 95.6461 65.407 97.0557 63.6797 97.0557H61.4441V90.6495C61.4441 89.8365 60.7871 89.1774 59.9766 89.1774C59.1662 89.1774 58.5092 89.8365 58.5092 90.6495V97.0557H52.4684V90.6495C52.4684 89.8365 51.8113 89.1774 51.0009 89.1774C50.1905 89.1774 49.5334 89.8365 49.5334 90.6495V97.0557H43.4926V90.6495C43.4926 89.8365 42.8356 89.1774 42.0252 89.1774C41.2147 89.1774 40.5577 89.8365 40.5577 90.6495V97.0557H38.5471C36.8198 97.0557 35.4146 95.6461 35.4146 93.9134V89.8624C35.4146 86.5064 32.6927 83.7761 29.3471 83.7761H29.1221C27.3948 83.7761 25.9896 82.3664 25.9896 80.6338V80.569C25.9896 79.756 25.3326 79.097 24.5221 79.097C23.7117 79.097 23.0547 79.756 23.0547 80.569V80.6338C23.0547 83.9898 25.7765 86.7201 29.1221 86.7201H29.3471C31.0744 86.7201 32.4797 88.1297 32.4797 89.8624V93.9134C32.4797 97.2695 35.2015 99.9998 38.5471 99.9998H63.6797C67.0253 99.9998 69.7471 97.2695 69.7471 93.9134V89.8624C69.7471 88.1297 71.1524 86.7201 72.8797 86.7201C74.5021 86.7201 76.0259 86.0864 77.168 84.938C78.3153 83.7898 78.9471 82.2612 78.9471 80.6338V73.1205H83.4694L88.3116 77.9778C87.6734 79.0214 87.3047 80.2479 87.3047 81.5592C87.3047 85.347 90.3768 88.4286 94.1529 88.4286C97.9289 88.4286 101.001 85.347 101.001 81.5592C101.001 77.7713 97.9293 74.6897 94.1533 74.6897ZM94.1533 50.7446C96.311 50.7446 98.0665 52.5056 98.0665 54.6701C98.0665 56.8345 96.311 58.5955 94.1533 58.5955C91.9955 58.5955 90.2401 56.8345 90.2401 54.6701C90.2401 52.5056 91.9955 50.7446 94.1533 50.7446ZM90.2401 81.5592C90.2401 83.7236 91.9955 85.4846 94.1533 85.4846C96.311 85.4846 98.0665 83.7236 98.0665 81.5592C98.0665 79.3947 96.311 77.6338 94.1533 77.6338C91.9955 77.6338 90.2401 79.3947 90.2401 81.5592Z" fill="#007AFF"/>
<path d="M90.3445 75.8532L90.1675 76.0297L90.3131 76.1758L90.4842 76.0605L90.3445 75.8532ZM85.2875 70.7804L85.4645 70.6039L85.2875 70.7804ZM78.9475 70.1764H78.6975V70.4264H78.9475V70.1764ZM78.9475 66.0548V65.8048H78.6975V66.0548H78.9475ZM85.2873 65.4493L85.1103 65.2727L85.1087 65.2743L85.2873 65.4493ZM90.3455 60.3768L90.4852 60.1695L90.3141 60.0543L90.1685 60.2003L90.3455 60.3768ZM88.3126 58.2528L88.4896 58.4293L88.6285 58.2901L88.5258 58.1223L88.3126 58.2528ZM83.468 63.1109V63.3609H83.5718L83.6451 63.2874L83.468 63.1109ZM78.9475 63.1109H78.6975V63.3609H78.9475V63.1109ZM76.8737 50.0977L77.1052 50.0033L77.1051 50.0032L76.8737 50.0977ZM74.9595 49.2932L75.0545 49.5245L75.0545 49.5245L74.9595 49.2932ZM74.1575 51.2131L73.9261 51.3076L73.9261 51.3076L74.1575 51.2131ZM75.0928 82.8561L74.9159 82.6794L74.9155 82.6798L75.0928 82.8561ZM61.4441 97.0557H61.1941V97.3057H61.4441V97.0557ZM58.5092 97.0557V97.3057H58.7592V97.0557H58.5092ZM52.4684 97.0557H52.2184V97.3057H52.4684V97.0557ZM49.5334 97.0557V97.3057H49.7834V97.0557H49.5334ZM43.4926 97.0557H43.2426V97.3057H43.4926V97.0557ZM40.5577 97.0557V97.3057H40.8077V97.0557H40.5577ZM77.168 84.938L76.9911 84.7613L76.9907 84.7617L77.168 84.938ZM78.9471 73.1205V72.8705H78.6971V73.1205H78.9471ZM83.4694 73.1205L83.6465 72.944L83.5732 72.8705H83.4694V73.1205ZM88.3116 77.9778L88.5249 78.1083L88.6275 77.9405L88.4887 77.8013L88.3116 77.9778ZM90.4842 76.0605C91.5343 75.3531 92.7963 74.9397 94.1533 74.9397V74.4397C92.6931 74.4397 91.3344 74.8848 90.2048 75.6459L90.4842 76.0605ZM85.1104 70.9569L90.1675 76.0297L90.5216 75.6767L85.4645 70.6039L85.1104 70.9569ZM83.8351 70.4264C84.3089 70.4264 84.7745 70.6199 85.1104 70.9569L85.4645 70.6039C85.0351 70.1731 84.4422 69.9264 83.8351 69.9264V70.4264ZM78.9475 70.4264H83.8351V69.9264H78.9475V70.4264ZM78.6975 66.0548V70.1764H79.1975V66.0548H78.6975ZM83.8351 65.8048H78.9475V66.3048H83.8351V65.8048ZM85.1087 65.2743C84.7827 65.6072 84.3145 65.8048 83.8351 65.8048V66.3048C84.4475 66.3048 85.0448 66.0541 85.4659 65.6242L85.1087 65.2743ZM90.1685 60.2003L85.1103 65.2727L85.4643 65.6258L90.5225 60.5534L90.1685 60.2003ZM94.1531 61.2897C92.7965 61.2897 91.5349 60.8766 90.4852 60.1695L90.2058 60.5842C91.335 61.3448 92.6933 61.7897 94.1531 61.7897V61.2897ZM100.751 54.6703C100.751 58.3208 97.7903 61.2897 94.1531 61.2897V61.7897C98.0679 61.7897 101.251 58.5954 101.251 54.6703H100.751ZM94.1531 48.0508C97.7903 48.0508 100.751 51.0198 100.751 54.6703H101.251C101.251 50.7451 98.0679 47.5508 94.1531 47.5508V48.0508ZM87.5549 54.6703C87.5549 51.0198 90.5158 48.0508 94.1531 48.0508V47.5508C90.2382 47.5508 87.0549 50.7451 87.0549 54.6703H87.5549ZM88.5258 58.1223C87.9105 57.1166 87.5549 55.9346 87.5549 54.6703H87.0549C87.0549 56.0296 87.4375 57.3015 88.0993 58.3833L88.5258 58.1223ZM83.6451 63.2874L88.4896 58.4293L88.1356 58.0763L83.291 62.9344L83.6451 63.2874ZM78.9475 63.3609H83.468V62.8609H78.9475V63.3609ZM78.6975 60.7125V63.1109H79.1975V60.7125H78.6975ZM76.6422 50.1922C78.006 53.5331 78.6975 57.0723 78.6975 60.7125H79.1975C79.1975 57.0081 78.4936 53.4047 77.1052 50.0033L76.6422 50.1922ZM75.0545 49.5245C75.6762 49.2691 76.3871 49.5674 76.6422 50.1922L77.1051 50.0032C76.7459 49.1235 75.7432 48.7011 74.8646 49.062L75.0545 49.5245ZM74.389 51.1187C74.1339 50.4935 74.4326 49.7799 75.0545 49.5245L74.8646 49.062C73.9866 49.4225 73.5672 50.4282 73.9261 51.3076L74.389 51.1187ZM76.2624 60.7123C76.2624 57.3925 75.6323 54.1645 74.389 51.1187L73.9261 51.3076C75.1446 54.2928 75.7624 57.4566 75.7624 60.7123H76.2624ZM76.2624 80.6338V60.7123H75.7624V80.6338H76.2624ZM75.2696 83.0328C75.9104 82.3916 76.2624 81.5396 76.2624 80.6338H75.7624C75.7624 81.4072 75.4629 82.1321 74.9159 82.6794L75.2696 83.0328ZM72.8797 84.0261C73.7834 84.0261 74.6332 83.6728 75.27 83.0324L74.9155 82.6798C74.3726 83.2258 73.6504 83.5261 72.8797 83.5261V84.0261ZM67.0622 89.8624C67.0622 86.6437 69.6729 84.0261 72.8797 84.0261V83.5261C69.3953 83.5261 66.5622 86.369 66.5622 89.8624H67.0622ZM67.0622 93.9134V89.8624H66.5622V93.9134H67.0622ZM63.6797 97.3057C65.5458 97.3057 67.0622 95.7835 67.0622 93.9134H66.5622C66.5622 95.5088 65.2682 96.8057 63.6797 96.8057V97.3057ZM61.4441 97.3057H63.6797V96.8057H61.4441V97.3057ZM61.1941 90.6495V97.0557H61.6941V90.6495H61.1941ZM59.9766 89.4274C60.6483 89.4274 61.1941 89.9738 61.1941 90.6495H61.6941C61.6941 89.6992 60.9259 88.9274 59.9766 88.9274V89.4274ZM58.7592 90.6495C58.7592 89.9738 59.305 89.4274 59.9766 89.4274V88.9274C59.0274 88.9274 58.2592 89.6992 58.2592 90.6495H58.7592ZM58.7592 97.0557V90.6495H58.2592V97.0557H58.7592ZM52.4684 97.3057H58.5092V96.8057H52.4684V97.3057ZM52.2184 90.6495V97.0557H52.7184V90.6495H52.2184ZM51.0009 89.4274C51.6725 89.4274 52.2184 89.9738 52.2184 90.6495H52.7184C52.7184 89.6992 51.9501 88.9274 51.0009 88.9274V89.4274ZM49.7834 90.6495C49.7834 89.9738 50.3293 89.4274 51.0009 89.4274V88.9274C50.0517 88.9274 49.2834 89.6992 49.2834 90.6495H49.7834ZM49.7834 97.0557V90.6495H49.2834V97.0557H49.7834ZM43.4926 97.3057H49.5334V96.8057H43.4926V97.3057ZM43.2426 90.6495V97.0557H43.7426V90.6495H43.2426ZM42.0252 89.4274C42.6968 89.4274 43.2426 89.9738 43.2426 90.6495H43.7426C43.7426 89.6992 42.9744 88.9274 42.0252 88.9274V89.4274ZM40.8077 90.6495C40.8077 89.9738 41.3535 89.4274 42.0252 89.4274V88.9274C41.0759 88.9274 40.3077 89.6992 40.3077 90.6495H40.8077ZM40.8077 97.0557V90.6495H40.3077V97.0557H40.8077ZM38.5471 97.3057H40.5577V96.8057H38.5471V97.3057ZM35.1646 93.9134C35.1646 95.7835 36.681 97.3057 38.5471 97.3057V96.8057C36.9586 96.8057 35.6646 95.5088 35.6646 93.9134H35.1646ZM35.1646 89.8624V93.9134H35.6646V89.8624H35.1646ZM29.3471 84.0261C32.5539 84.0261 35.1646 86.6437 35.1646 89.8624H35.6646C35.6646 86.369 32.8315 83.5261 29.3471 83.5261V84.0261ZM29.1221 84.0261H29.3471V83.5261H29.1221V84.0261ZM25.7396 80.6338C25.7396 82.5038 27.256 84.0261 29.1221 84.0261V83.5261C27.5336 83.5261 26.2396 82.2291 26.2396 80.6338H25.7396ZM25.7396 80.569V80.6338H26.2396V80.569H25.7396ZM24.5221 79.347C25.1938 79.347 25.7396 79.8934 25.7396 80.569H26.2396C26.2396 79.6187 25.4714 78.847 24.5221 78.847V79.347ZM23.3047 80.569C23.3047 79.8934 23.8505 79.347 24.5221 79.347V78.847C23.5729 78.847 22.8047 79.6187 22.8047 80.569H23.3047ZM23.3047 80.6338V80.569H22.8047V80.6338H23.3047ZM29.1221 86.4701C25.9153 86.4701 23.3047 83.8525 23.3047 80.6338H22.8047C22.8047 84.1271 25.6377 86.9701 29.1221 86.9701V86.4701ZM29.3471 86.4701H29.1221V86.9701H29.3471V86.4701ZM32.7297 89.8624C32.7297 87.9924 31.2132 86.4701 29.3471 86.4701V86.9701C30.9356 86.9701 32.2297 88.2671 32.2297 89.8624H32.7297ZM32.7297 93.9134V89.8624H32.2297V93.9134H32.7297ZM38.5471 99.7498C35.3403 99.7498 32.7297 97.1321 32.7297 93.9134H32.2297C32.2297 97.4068 35.0627 100.25 38.5471 100.25V99.7498ZM63.6797 99.7498H38.5471V100.25H63.6797V99.7498ZM69.4971 93.9134C69.4971 97.1321 66.8865 99.7498 63.6797 99.7498V100.25C67.1641 100.25 69.9971 97.4068 69.9971 93.9134H69.4971ZM69.4971 89.8624V93.9134H69.9971V89.8624H69.4971ZM72.8797 86.4701C71.0136 86.4701 69.4971 87.9924 69.4971 89.8624H69.9971C69.9971 88.2671 71.2912 86.9701 72.8797 86.9701V86.4701ZM76.9907 84.7617C75.8956 85.8628 74.4356 86.4701 72.8797 86.4701V86.9701C74.5686 86.9701 76.1562 86.3099 77.3452 85.1143L76.9907 84.7617ZM78.6971 80.6338C78.6971 82.1952 78.0915 83.6601 76.9911 84.7613L77.3448 85.1147C78.5391 83.9195 79.1971 82.3273 79.1971 80.6338H78.6971ZM78.6971 73.1205V80.6338H79.1971V73.1205H78.6971ZM83.4694 72.8705H78.9471V73.3705H83.4694V72.8705ZM88.4887 77.8013L83.6465 72.944L83.2924 73.297L88.1346 78.1543L88.4887 77.8013ZM87.5547 81.5592C87.5547 80.2954 87.9099 79.1138 88.5249 78.1083L88.0984 77.8474C87.4369 78.929 87.0547 80.2004 87.0547 81.5592H87.5547ZM94.1529 88.1786C90.5156 88.1786 87.5547 85.2097 87.5547 81.5592H87.0547C87.0547 85.4843 90.238 88.6786 94.1529 88.6786V88.1786ZM100.751 81.5592C100.751 85.2097 97.7901 88.1786 94.1529 88.1786V88.6786C98.0677 88.6786 101.251 85.4843 101.251 81.5592H100.751ZM94.1533 74.9397C97.7905 74.9397 100.751 77.9087 100.751 81.5592H101.251C101.251 77.634 98.0681 74.4397 94.1533 74.4397V74.9397ZM98.3165 54.6701C98.3165 52.3683 96.4498 50.4946 94.1533 50.4946V50.9946C96.1722 50.9946 97.8165 52.6429 97.8165 54.6701H98.3165ZM94.1533 58.8455C96.4498 58.8455 98.3165 56.9719 98.3165 54.6701H97.8165C97.8165 56.6972 96.1722 58.3455 94.1533 58.3455V58.8455ZM89.9901 54.6701C89.9901 56.9719 91.8567 58.8455 94.1533 58.8455V58.3455C92.1343 58.3455 90.4901 56.6972 90.4901 54.6701H89.9901ZM94.1533 50.4946C91.8567 50.4946 89.9901 52.3683 89.9901 54.6701H90.4901C90.4901 52.6429 92.1343 50.9946 94.1533 50.9946V50.4946ZM94.1533 85.2346C92.1343 85.2346 90.4901 83.5863 90.4901 81.5592H89.9901C89.9901 83.861 91.8567 85.7346 94.1533 85.7346V85.2346ZM97.8165 81.5592C97.8165 83.5863 96.1722 85.2346 94.1533 85.2346V85.7346C96.4498 85.7346 98.3165 83.861 98.3165 81.5592H97.8165ZM94.1533 77.8838C96.1722 77.8838 97.8165 79.532 97.8165 81.5592H98.3165C98.3165 79.2574 96.4498 77.3838 94.1533 77.3838V77.8838ZM90.4901 81.5592C90.4901 79.532 92.1343 77.8838 94.1533 77.8838V77.3838C91.8567 77.3838 89.9901 79.2574 89.9901 81.5592H90.4901Z" fill="white"/>
<path d="M90.3445 75.8532L90.1675 76.0297L90.3131 76.1758L90.4842 76.0605L90.3445 75.8532ZM85.2875 70.7804L85.4645 70.6039L85.2875 70.7804ZM78.9475 70.1764H78.6975V70.4264H78.9475V70.1764ZM78.9475 66.0548V65.8048H78.6975V66.0548H78.9475ZM85.2873 65.4493L85.1103 65.2727L85.1087 65.2743L85.2873 65.4493ZM90.3455 60.3768L90.4852 60.1695L90.3141 60.0543L90.1685 60.2003L90.3455 60.3768ZM88.3126 58.2528L88.4896 58.4293L88.6285 58.2901L88.5258 58.1223L88.3126 58.2528ZM83.468 63.1109V63.3609H83.5718L83.6451 63.2874L83.468 63.1109ZM78.9475 63.1109H78.6975V63.3609H78.9475V63.1109ZM76.8737 50.0977L77.1052 50.0033L77.1051 50.0032L76.8737 50.0977ZM74.9595 49.2932L75.0545 49.5245L75.0545 49.5245L74.9595 49.2932ZM74.1575 51.2131L73.9261 51.3076L73.9261 51.3076L74.1575 51.2131ZM75.0928 82.8561L74.9159 82.6794L74.9155 82.6798L75.0928 82.8561ZM61.4441 97.0557H61.1941V97.3057H61.4441V97.0557ZM58.5092 97.0557V97.3057H58.7592V97.0557H58.5092ZM52.4684 97.0557H52.2184V97.3057H52.4684V97.0557ZM49.5334 97.0557V97.3057H49.7834V97.0557H49.5334ZM43.4926 97.0557H43.2426V97.3057H43.4926V97.0557ZM40.5577 97.0557V97.3057H40.8077V97.0557H40.5577ZM77.168 84.938L76.9911 84.7613L76.9907 84.7617L77.168 84.938ZM78.9471 73.1205V72.8705H78.6971V73.1205H78.9471ZM83.4694 73.1205L83.6465 72.944L83.5732 72.8705H83.4694V73.1205ZM88.3116 77.9778L88.5249 78.1083L88.6275 77.9405L88.4887 77.8013L88.3116 77.9778ZM90.4842 76.0605C91.5343 75.3531 92.7963 74.9397 94.1533 74.9397V74.4397C92.6931 74.4397 91.3344 74.8848 90.2048 75.6459L90.4842 76.0605ZM85.1104 70.9569L90.1675 76.0297L90.5216 75.6767L85.4645 70.6039L85.1104 70.9569ZM83.8351 70.4264C84.3089 70.4264 84.7745 70.6199 85.1104 70.9569L85.4645 70.6039C85.0351 70.1731 84.4422 69.9264 83.8351 69.9264V70.4264ZM78.9475 70.4264H83.8351V69.9264H78.9475V70.4264ZM78.6975 66.0548V70.1764H79.1975V66.0548H78.6975ZM83.8351 65.8048H78.9475V66.3048H83.8351V65.8048ZM85.1087 65.2743C84.7827 65.6072 84.3145 65.8048 83.8351 65.8048V66.3048C84.4475 66.3048 85.0448 66.0541 85.4659 65.6242L85.1087 65.2743ZM90.1685 60.2003L85.1103 65.2727L85.4643 65.6258L90.5225 60.5534L90.1685 60.2003ZM94.1531 61.2897C92.7965 61.2897 91.5349 60.8766 90.4852 60.1695L90.2058 60.5842C91.335 61.3448 92.6933 61.7897 94.1531 61.7897V61.2897ZM100.751 54.6703C100.751 58.3208 97.7903 61.2897 94.1531 61.2897V61.7897C98.0679 61.7897 101.251 58.5954 101.251 54.6703H100.751ZM94.1531 48.0508C97.7903 48.0508 100.751 51.0198 100.751 54.6703H101.251C101.251 50.7451 98.0679 47.5508 94.1531 47.5508V48.0508ZM87.5549 54.6703C87.5549 51.0198 90.5158 48.0508 94.1531 48.0508V47.5508C90.2382 47.5508 87.0549 50.7451 87.0549 54.6703H87.5549ZM88.5258 58.1223C87.9105 57.1166 87.5549 55.9346 87.5549 54.6703H87.0549C87.0549 56.0296 87.4375 57.3015 88.0993 58.3833L88.5258 58.1223ZM83.6451 63.2874L88.4896 58.4293L88.1356 58.0763L83.291 62.9344L83.6451 63.2874ZM78.9475 63.3609H83.468V62.8609H78.9475V63.3609ZM78.6975 60.7125V63.1109H79.1975V60.7125H78.6975ZM76.6422 50.1922C78.006 53.5331 78.6975 57.0723 78.6975 60.7125H79.1975C79.1975 57.0081 78.4936 53.4047 77.1052 50.0033L76.6422 50.1922ZM75.0545 49.5245C75.6762 49.2691 76.3871 49.5674 76.6422 50.1922L77.1051 50.0032C76.7459 49.1235 75.7432 48.7011 74.8646 49.062L75.0545 49.5245ZM74.389 51.1187C74.1339 50.4935 74.4326 49.7799 75.0545 49.5245L74.8646 49.062C73.9866 49.4225 73.5672 50.4282 73.9261 51.3076L74.389 51.1187ZM76.2624 60.7123C76.2624 57.3925 75.6323 54.1645 74.389 51.1187L73.9261 51.3076C75.1446 54.2928 75.7624 57.4566 75.7624 60.7123H76.2624ZM76.2624 80.6338V60.7123H75.7624V80.6338H76.2624ZM75.2696 83.0328C75.9104 82.3916 76.2624 81.5396 76.2624 80.6338H75.7624C75.7624 81.4072 75.4629 82.1321 74.9159 82.6794L75.2696 83.0328ZM72.8797 84.0261C73.7834 84.0261 74.6332 83.6728 75.27 83.0324L74.9155 82.6798C74.3726 83.2258 73.6504 83.5261 72.8797 83.5261V84.0261ZM67.0622 89.8624C67.0622 86.6437 69.6729 84.0261 72.8797 84.0261V83.5261C69.3953 83.5261 66.5622 86.369 66.5622 89.8624H67.0622ZM67.0622 93.9134V89.8624H66.5622V93.9134H67.0622ZM63.6797 97.3057C65.5458 97.3057 67.0622 95.7835 67.0622 93.9134H66.5622C66.5622 95.5088 65.2682 96.8057 63.6797 96.8057V97.3057ZM61.4441 97.3057H63.6797V96.8057H61.4441V97.3057ZM61.1941 90.6495V97.0557H61.6941V90.6495H61.1941ZM59.9766 89.4274C60.6483 89.4274 61.1941 89.9738 61.1941 90.6495H61.6941C61.6941 89.6992 60.9259 88.9274 59.9766 88.9274V89.4274ZM58.7592 90.6495C58.7592 89.9738 59.305 89.4274 59.9766 89.4274V88.9274C59.0274 88.9274 58.2592 89.6992 58.2592 90.6495H58.7592ZM58.7592 97.0557V90.6495H58.2592V97.0557H58.7592ZM52.4684 97.3057H58.5092V96.8057H52.4684V97.3057ZM52.2184 90.6495V97.0557H52.7184V90.6495H52.2184ZM51.0009 89.4274C51.6725 89.4274 52.2184 89.9738 52.2184 90.6495H52.7184C52.7184 89.6992 51.9501 88.9274 51.0009 88.9274V89.4274ZM49.7834 90.6495C49.7834 89.9738 50.3293 89.4274 51.0009 89.4274V88.9274C50.0517 88.9274 49.2834 89.6992 49.2834 90.6495H49.7834ZM49.7834 97.0557V90.6495H49.2834V97.0557H49.7834ZM43.4926 97.3057H49.5334V96.8057H43.4926V97.3057ZM43.2426 90.6495V97.0557H43.7426V90.6495H43.2426ZM42.0252 89.4274C42.6968 89.4274 43.2426 89.9738 43.2426 90.6495H43.7426C43.7426 89.6992 42.9744 88.9274 42.0252 88.9274V89.4274ZM40.8077 90.6495C40.8077 89.9738 41.3535 89.4274 42.0252 89.4274V88.9274C41.0759 88.9274 40.3077 89.6992 40.3077 90.6495H40.8077ZM40.8077 97.0557V90.6495H40.3077V97.0557H40.8077ZM38.5471 97.3057H40.5577V96.8057H38.5471V97.3057ZM35.1646 93.9134C35.1646 95.7835 36.681 97.3057 38.5471 97.3057V96.8057C36.9586 96.8057 35.6646 95.5088 35.6646 93.9134H35.1646ZM35.1646 89.8624V93.9134H35.6646V89.8624H35.1646ZM29.3471 84.0261C32.5539 84.0261 35.1646 86.6437 35.1646 89.8624H35.6646C35.6646 86.369 32.8315 83.5261 29.3471 83.5261V84.0261ZM29.1221 84.0261H29.3471V83.5261H29.1221V84.0261ZM25.7396 80.6338C25.7396 82.5038 27.256 84.0261 29.1221 84.0261V83.5261C27.5336 83.5261 26.2396 82.2291 26.2396 80.6338H25.7396ZM25.7396 80.569V80.6338H26.2396V80.569H25.7396ZM24.5221 79.347C25.1938 79.347 25.7396 79.8934 25.7396 80.569H26.2396C26.2396 79.6187 25.4714 78.847 24.5221 78.847V79.347ZM23.3047 80.569C23.3047 79.8934 23.8505 79.347 24.5221 79.347V78.847C23.5729 78.847 22.8047 79.6187 22.8047 80.569H23.3047ZM23.3047 80.6338V80.569H22.8047V80.6338H23.3047ZM29.1221 86.4701C25.9153 86.4701 23.3047 83.8525 23.3047 80.6338H22.8047C22.8047 84.1271 25.6377 86.9701 29.1221 86.9701V86.4701ZM29.3471 86.4701H29.1221V86.9701H29.3471V86.4701ZM32.7297 89.8624C32.7297 87.9924 31.2132 86.4701 29.3471 86.4701V86.9701C30.9356 86.9701 32.2297 88.2671 32.2297 89.8624H32.7297ZM32.7297 93.9134V89.8624H32.2297V93.9134H32.7297ZM38.5471 99.7498C35.3403 99.7498 32.7297 97.1321 32.7297 93.9134H32.2297C32.2297 97.4068 35.0627 100.25 38.5471 100.25V99.7498ZM63.6797 99.7498H38.5471V100.25H63.6797V99.7498ZM69.4971 93.9134C69.4971 97.1321 66.8865 99.7498 63.6797 99.7498V100.25C67.1641 100.25 69.9971 97.4068 69.9971 93.9134H69.4971ZM69.4971 89.8624V93.9134H69.9971V89.8624H69.4971ZM72.8797 86.4701C71.0136 86.4701 69.4971 87.9924 69.4971 89.8624H69.9971C69.9971 88.2671 71.2912 86.9701 72.8797 86.9701V86.4701ZM76.9907 84.7617C75.8956 85.8628 74.4356 86.4701 72.8797 86.4701V86.9701C74.5686 86.9701 76.1562 86.3099 77.3452 85.1143L76.9907 84.7617ZM78.6971 80.6338C78.6971 82.1952 78.0915 83.6601 76.9911 84.7613L77.3448 85.1147C78.5391 83.9195 79.1971 82.3273 79.1971 80.6338H78.6971ZM78.6971 73.1205V80.6338H79.1971V73.1205H78.6971ZM83.4694 72.8705H78.9471V73.3705H83.4694V72.8705ZM88.4887 77.8013L83.6465 72.944L83.2924 73.297L88.1346 78.1543L88.4887 77.8013ZM87.5547 81.5592C87.5547 80.2954 87.9099 79.1138 88.5249 78.1083L88.0984 77.8474C87.4369 78.929 87.0547 80.2004 87.0547 81.5592H87.5547ZM94.1529 88.1786C90.5156 88.1786 87.5547 85.2097 87.5547 81.5592H87.0547C87.0547 85.4843 90.238 88.6786 94.1529 88.6786V88.1786ZM100.751 81.5592C100.751 85.2097 97.7901 88.1786 94.1529 88.1786V88.6786C98.0677 88.6786 101.251 85.4843 101.251 81.5592H100.751ZM94.1533 74.9397C97.7905 74.9397 100.751 77.9087 100.751 81.5592H101.251C101.251 77.634 98.0681 74.4397 94.1533 74.4397V74.9397ZM98.3165 54.6701C98.3165 52.3683 96.4498 50.4946 94.1533 50.4946V50.9946C96.1722 50.9946 97.8165 52.6429 97.8165 54.6701H98.3165ZM94.1533 58.8455C96.4498 58.8455 98.3165 56.9719 98.3165 54.6701H97.8165C97.8165 56.6972 96.1722 58.3455 94.1533 58.3455V58.8455ZM89.9901 54.6701C89.9901 56.9719 91.8567 58.8455 94.1533 58.8455V58.3455C92.1343 58.3455 90.4901 56.6972 90.4901 54.6701H89.9901ZM94.1533 50.4946C91.8567 50.4946 89.9901 52.3683 89.9901 54.6701H90.4901C90.4901 52.6429 92.1343 50.9946 94.1533 50.9946V50.4946ZM94.1533 85.2346C92.1343 85.2346 90.4901 83.5863 90.4901 81.5592H89.9901C89.9901 83.861 91.8567 85.7346 94.1533 85.7346V85.2346ZM97.8165 81.5592C97.8165 83.5863 96.1722 85.2346 94.1533 85.2346V85.7346C96.4498 85.7346 98.3165 83.861 98.3165 81.5592H97.8165ZM94.1533 77.8838C96.1722 77.8838 97.8165 79.532 97.8165 81.5592H98.3165C98.3165 79.2574 96.4498 77.3838 94.1533 77.3838V77.8838ZM90.4901 81.5592C90.4901 79.532 92.1343 77.8838 94.1533 77.8838V77.3838C91.8567 77.3838 89.9901 79.2574 89.9901 81.5592H90.4901Z" fill="#007AFF" fill-opacity="0.04"/>
<path fill-rule="evenodd" clip-rule="evenodd" d="M23.0539 73.6997V73.1207H18.5333L13.6894 77.9782C14.3276 79.0216 14.6962 80.2481 14.6962 81.5594C14.6962 85.3472 11.6242 88.4288 7.84812 88.4288C4.07207 88.4288 1 85.3472 1 81.5594C1 77.7715 4.07207 74.6899 7.84812 74.6899C9.25688 74.6899 10.5672 75.1191 11.6569 75.8536L16.7159 70.7804C17.0982 70.3969 17.6276 70.1766 18.168 70.1766H23.0537V66.055H18.168C17.6276 66.055 17.0982 65.8347 16.7157 65.451L11.6567 60.3763C10.567 61.1105 9.25668 61.5397 7.84812 61.5397C4.07207 61.5397 1 58.4581 1 54.6703C1 50.8824 4.07207 47.8008 7.84812 47.8008C11.6242 47.8008 14.6962 50.8824 14.6962 54.6703C14.6962 55.9817 14.3274 57.2082 13.6892 58.2516L18.5333 63.1107H23.0539V60.7123C23.0539 53.2249 25.961 46.1853 31.2397 40.8903C33.339 38.7845 35.7141 37.0563 38.2822 35.7368V29.3633L33.9608 25.0285C33.1783 25.3413 32.3262 25.5152 31.434 25.5152C27.658 25.5152 24.5859 22.4336 24.5859 18.6457C24.5859 14.8579 27.658 11.7763 31.434 11.7763C35.2101 11.7763 38.2822 14.8579 38.2822 18.6457C38.2822 20.4597 37.5764 22.1105 36.4275 23.3395L40.615 27.5401C40.9975 27.9238 41.2171 28.4548 41.2171 28.9971V34.4394C43.8581 33.4512 46.6549 32.8659 49.5326 32.7176V13.5784C46.4596 12.9026 44.152 10.1521 44.152 6.86948C44.152 3.08165 47.224 0 51.0001 0C54.7762 0 57.8482 3.08165 57.8482 6.86948C57.8482 10.1519 55.5406 12.9025 52.4676 13.5784V32.7185C55.3539 32.8665 58.1503 33.4504 60.7831 34.4322V28.9971C60.7831 28.455 61.0027 27.9238 61.3852 27.5401L66.4432 22.4663C65.7112 21.3731 65.2833 20.0587 65.2833 18.6457C65.2833 14.8579 68.3554 11.7763 72.1314 11.7763C75.9075 11.7763 78.9796 14.8579 78.9796 18.6457C78.9796 22.4336 75.9075 25.5152 72.1314 25.5152C70.8242 25.5152 69.6016 25.1454 68.5612 24.5052L63.718 29.3635V35.7266C67.4074 37.6179 70.6767 40.3448 73.2813 43.792C73.7709 44.4396 73.6441 45.3631 72.9982 45.8542C72.3521 46.3452 71.4318 46.2181 70.9424 45.5702C66.1657 39.2487 58.8972 35.6232 51.0001 35.6232C44.3199 35.6232 38.0391 38.233 33.3149 42.9721C28.5907 47.7113 25.9888 54.0114 25.9888 60.7125V73.6997C25.9888 74.5127 25.3318 75.1717 24.5213 75.1717C23.7109 75.1717 23.0539 74.5127 23.0539 73.6997ZM76.0447 18.6457C76.0447 16.4813 74.2892 14.7203 72.1314 14.7203C69.9737 14.7203 68.2182 16.4813 68.2182 18.6457C68.2182 20.8102 69.9737 22.5711 72.1314 22.5711C74.2892 22.5711 76.0447 20.8102 76.0447 18.6457ZM27.5208 18.6457C27.5208 16.4813 29.2763 14.7203 31.434 14.7203C33.5918 14.7203 35.3472 16.4813 35.3472 18.6457C35.3472 20.8102 33.5918 22.5711 31.434 22.5711C29.2763 22.5711 27.5208 20.8102 27.5208 18.6457ZM51.0001 2.94406C48.8424 2.94406 47.0869 4.705 47.0869 6.86948C47.0869 9.03395 48.8424 10.7949 51.0001 10.7949C53.1578 10.7949 54.9133 9.03395 54.9133 6.86948C54.9133 4.705 53.1578 2.94406 51.0001 2.94406ZM3.93491 54.6703C3.93491 52.5058 5.69038 50.7448 7.84812 50.7448C10.0059 50.7448 11.7613 52.5058 11.7613 54.6703C11.7613 56.8347 10.0059 58.5957 7.84812 58.5957C5.69038 58.5957 3.93491 56.8347 3.93491 54.6703ZM3.93491 81.5594C3.93491 83.7238 5.69038 85.4848 7.84812 85.4848C10.0059 85.4848 11.7613 83.7238 11.7613 81.5594C11.7613 79.3949 10.0059 77.634 7.84812 77.634C5.69038 77.634 3.93491 79.3949 3.93491 81.5594Z" fill="#007AFF"/>
<path d="M23.0539 73.1207H23.3039V72.8707H23.0539V73.1207ZM18.5333 73.1207V72.8707H18.4296L18.3563 72.9442L18.5333 73.1207ZM13.6894 77.9782L13.5124 77.8017L13.3735 77.9409L13.4761 78.1087L13.6894 77.9782ZM11.6569 75.8536L11.5171 76.0609L11.6882 76.1762L11.8339 76.0301L11.6569 75.8536ZM16.7159 70.7804L16.8929 70.9569L16.8929 70.9569L16.7159 70.7804ZM23.0537 70.1766V70.4266H23.3037V70.1766H23.0537ZM23.0537 66.055H23.3037V65.805H23.0537V66.055ZM16.7157 65.451L16.8927 65.2745H16.8927L16.7157 65.451ZM11.6567 60.3763L11.8337 60.1997L11.688 60.0536L11.517 60.1689L11.6567 60.3763ZM13.6892 58.2516L13.4759 58.1212L13.3733 58.2889L13.5121 58.4281L13.6892 58.2516ZM18.5333 63.1107L18.3563 63.2872L18.4296 63.3607H18.5333V63.1107ZM23.0539 63.1107V63.3607H23.3039V63.1107H23.0539ZM31.2397 40.8903L31.4168 41.0668L31.4168 41.0668L31.2397 40.8903ZM38.2822 35.7368L38.3964 35.9592L38.5322 35.8894V35.7368H38.2822ZM38.2822 29.3633H38.5322V29.26L38.4592 29.1868L38.2822 29.3633ZM33.9608 25.0285L34.1378 24.852L34.0213 24.735L33.868 24.7963L33.9608 25.0285ZM36.4275 23.3395L36.2449 23.1688L36.0801 23.3451L36.2504 23.516L36.4275 23.3395ZM40.615 27.5401L40.7921 27.3636L40.615 27.5401ZM41.2171 34.4394H40.9671V34.7999L41.3047 34.6736L41.2171 34.4394ZM49.5326 32.7176L49.5455 32.9672L49.7826 32.955V32.7176H49.5326ZM49.5326 13.5784H49.7826V13.3774L49.5863 13.3342L49.5326 13.5784ZM52.4676 13.5784L52.4138 13.3342L52.2176 13.3774V13.5784H52.4676ZM52.4676 32.7185H52.2176V32.9561L52.4548 32.9682L52.4676 32.7185ZM60.7831 34.4322L60.6958 34.6664L61.0331 34.7922V34.4322H60.7831ZM61.3852 27.5401L61.2081 27.3636L61.3852 27.5401ZM66.4432 22.4663L66.6203 22.6428L66.765 22.4976L66.6509 22.3273L66.4432 22.4663ZM68.5612 24.5052L68.6923 24.2923L68.5238 24.1886L68.3842 24.3287L68.5612 24.5052ZM63.718 29.3635L63.541 29.187L63.468 29.2602V29.3635H63.718ZM63.718 35.7266H63.468V35.8794L63.604 35.9491L63.718 35.7266ZM73.2813 43.792L73.0819 43.9427L73.0819 43.9427L73.2813 43.792ZM72.9982 45.8542L73.1495 46.0532L73.1495 46.0532L72.9982 45.8542ZM70.9424 45.5702L71.1419 45.4195L71.1419 45.4194L70.9424 45.5702ZM33.3149 42.9721L33.1379 42.7956L33.3149 42.9721ZM22.8039 73.1207V73.6997H23.3039V73.1207H22.8039ZM18.5333 73.3707H23.0539V72.8707H18.5333V73.3707ZM13.8664 78.1547L18.7104 73.2972L18.3563 72.9442L13.5124 77.8017L13.8664 78.1547ZM14.9462 81.5594C14.9462 80.2006 14.5641 78.9292 13.9026 77.8478L13.4761 78.1087C14.0911 79.114 14.4462 80.2956 14.4462 81.5594H14.9462ZM7.84812 88.6788C11.763 88.6788 14.9462 85.4845 14.9462 81.5594H14.4462C14.4462 85.2099 11.4854 88.1788 7.84812 88.1788V88.6788ZM0.75 81.5594C0.75 85.4845 3.93326 88.6788 7.84812 88.6788V88.1788C4.21087 88.1788 1.25 85.2099 1.25 81.5594H0.75ZM7.84812 74.4399C3.93326 74.4399 0.75 77.6342 0.75 81.5594H1.25C1.25 77.9089 4.21087 74.9399 7.84812 74.9399V74.4399ZM11.7966 75.6463C10.6672 74.885 9.30844 74.4399 7.84812 74.4399V74.9399C9.20531 74.9399 10.4673 75.3533 11.5171 76.0609L11.7966 75.6463ZM16.5388 70.6038L11.4798 75.6771L11.8339 76.0301L16.8929 70.9569L16.5388 70.6038ZM18.168 69.9266C17.561 69.9266 16.9679 70.1734 16.5388 70.6039L16.8929 70.9569C17.2285 70.6203 17.6943 70.4266 18.168 70.4266V69.9266ZM23.0537 69.9266H18.168V70.4266H23.0537V69.9266ZM22.8037 66.055V70.1766H23.3037V66.055H22.8037ZM18.168 66.305H23.0537V65.805H18.168V66.305ZM16.5386 65.6275C16.9679 66.0581 17.561 66.305 18.168 66.305V65.805C17.6943 65.805 17.2285 65.6113 16.8927 65.2745L16.5386 65.6275ZM11.4796 60.5528L16.5386 65.6275L16.8927 65.2745L11.8337 60.1997L11.4796 60.5528ZM7.84812 61.7897C9.30825 61.7897 10.667 61.3446 11.7964 60.5836L11.517 60.1689C10.4671 60.8764 9.20512 61.2897 7.84812 61.2897V61.7897ZM0.75 54.6703C0.75 58.5954 3.93326 61.7897 7.84812 61.7897V61.2897C4.21087 61.2897 1.25 58.3208 1.25 54.6703H0.75ZM7.84812 47.5508C3.93326 47.5508 0.75 50.7451 0.75 54.6703H1.25C1.25 51.0198 4.21087 48.0508 7.84812 48.0508V47.5508ZM14.9462 54.6703C14.9462 50.7451 11.763 47.5508 7.84812 47.5508V48.0508C11.4854 48.0508 14.4462 51.0198 14.4462 54.6703H14.9462ZM13.9024 58.3821C14.5639 57.3007 14.9462 56.0292 14.9462 54.6703H14.4462C14.4462 55.9343 14.0909 57.1158 13.4759 58.1212L13.9024 58.3821ZM18.7104 62.9342L13.8662 58.0751L13.5121 58.4281L18.3563 63.2872L18.7104 62.9342ZM23.0539 62.8607H18.5333V63.3607H23.0539V62.8607ZM22.8039 60.7123V63.1107H23.3039V60.7123H22.8039ZM31.0627 40.7138C25.7372 46.0557 22.8039 53.1589 22.8039 60.7123H23.3039C23.3039 53.291 26.1849 46.3148 31.4168 41.0668L31.0627 40.7138ZM38.1679 35.5144C35.5766 36.8459 33.1803 38.5896 31.0627 40.7138L31.4168 41.0668C33.4977 38.9794 35.8516 37.2667 38.3964 35.9592L38.1679 35.5144ZM38.0322 29.3633V35.7368H38.5322V29.3633H38.0322ZM33.7837 25.205L38.1051 29.5398L38.4592 29.1868L34.1378 24.852L33.7837 25.205ZM31.434 25.7652C32.359 25.7652 33.2426 25.5849 34.0536 25.2606L33.868 24.7963C33.1141 25.0977 32.2935 25.2652 31.434 25.2652V25.7652ZM24.3359 18.6457C24.3359 22.5709 27.5192 25.7652 31.434 25.7652V25.2652C27.7968 25.2652 24.8359 22.2962 24.8359 18.6457H24.3359ZM31.434 11.5263C27.5192 11.5263 24.3359 14.7206 24.3359 18.6457H24.8359C24.8359 14.9952 27.7968 12.0263 31.434 12.0263V11.5263ZM38.5322 18.6457C38.5322 14.7206 35.3489 11.5263 31.434 11.5263V12.0263C35.0713 12.0263 38.0322 14.9952 38.0322 18.6457H38.5322ZM36.6101 23.5103C37.8004 22.237 38.5322 20.5258 38.5322 18.6457H38.0322C38.0322 20.3935 37.3524 21.984 36.2449 23.1688L36.6101 23.5103ZM40.7921 27.3636L36.6045 23.163L36.2504 23.516L40.438 27.7166L40.7921 27.3636ZM41.4671 28.9971C41.4671 28.3886 41.2213 27.7942 40.7921 27.3636L40.438 27.7166C40.7738 28.0535 40.9671 28.5209 40.9671 28.9971H41.4671ZM41.4671 34.4394V28.9971H40.9671V34.4394H41.4671ZM49.5198 32.4679C46.6165 32.6176 43.7945 33.2081 41.1295 34.2053L41.3047 34.6736C43.9217 33.6943 46.6933 33.1143 49.5455 32.9672L49.5198 32.4679ZM49.2826 13.5784V32.7176H49.7826V13.5784H49.2826ZM43.902 6.86948C43.902 10.2718 46.2935 13.1221 49.479 13.8226L49.5863 13.3342C46.6257 12.6832 44.402 10.0325 44.402 6.86948H43.902ZM51.0001 -0.25C47.0852 -0.25 43.902 2.94431 43.902 6.86948H44.402C44.402 3.21899 47.3629 0.25 51.0001 0.25V-0.25ZM58.0982 6.86948C58.0982 2.94431 54.915 -0.25 51.0001 -0.25V0.25C54.6373 0.25 57.5982 3.21899 57.5982 6.86948H58.0982ZM52.5213 13.8226C55.7067 13.1219 58.0982 10.2716 58.0982 6.86948H57.5982C57.5982 10.0323 55.3745 12.683 52.4138 13.3342L52.5213 13.8226ZM52.7176 32.7185V13.5784H52.2176V32.7185H52.7176ZM60.8705 34.1979C58.2137 33.2073 55.3922 32.6182 52.4804 32.4689L52.4548 32.9682C55.3157 33.1149 58.0869 33.6936 60.6958 34.6664L60.8705 34.1979ZM60.5331 28.9971V34.4322H61.0331V28.9971H60.5331ZM61.2081 27.3636C60.7789 27.7942 60.5331 28.3888 60.5331 28.9971H61.0331C61.0331 28.5211 61.2264 28.0535 61.5622 27.7166L61.2081 27.3636ZM66.2661 22.2898L61.2081 27.3636L61.5622 27.7166L66.6203 22.6428L66.2661 22.2898ZM65.0333 18.6457C65.0333 20.1099 65.4769 21.4725 66.2355 22.6054L66.6509 22.3273C65.9456 21.2737 65.5333 20.0075 65.5333 18.6457H65.0333ZM72.1314 11.5263C68.2166 11.5263 65.0333 14.7206 65.0333 18.6457H65.5333C65.5333 14.9952 68.4942 12.0263 72.1314 12.0263V11.5263ZM79.2296 18.6457C79.2296 14.7206 76.0463 11.5263 72.1314 11.5263V12.0263C75.7687 12.0263 78.7296 14.9952 78.7296 18.6457H79.2296ZM72.1314 25.7652C76.0463 25.7652 79.2296 22.5709 79.2296 18.6457H78.7296C78.7296 22.2962 75.7687 25.2652 72.1314 25.2652V25.7652ZM68.4302 24.7181C69.5086 25.3818 70.7764 25.7652 72.1314 25.7652V25.2652C70.872 25.2652 69.6945 24.9091 68.6923 24.2923L68.4302 24.7181ZM63.8951 29.54L68.7383 24.6817L68.3842 24.3287L63.541 29.187L63.8951 29.54ZM63.968 35.7266V29.3635H63.468V35.7266H63.968ZM73.4808 43.6412C70.8536 40.1642 67.5551 37.4127 63.8321 35.5041L63.604 35.9491C67.2597 37.8231 70.4998 40.5255 73.0819 43.9427L73.4808 43.6412ZM73.1495 46.0532C73.9052 45.4786 74.0533 44.3987 73.4808 43.6412L73.0819 43.9427C73.4884 44.4806 73.383 45.2476 72.8469 45.6552L73.1495 46.0532ZM70.7429 45.7208C71.3156 46.479 72.3932 46.6281 73.1495 46.0532L72.8469 45.6551C72.3111 46.0624 71.5479 45.9571 71.1419 45.4195L70.7429 45.7208ZM51.0001 35.8732C58.8185 35.8732 66.0134 39.4617 70.743 45.7209L71.1419 45.4194C66.3181 39.0357 58.9758 35.3732 51.0001 35.3732V35.8732ZM33.492 43.1486C38.1694 38.4564 44.3864 35.8732 51.0001 35.8732V35.3732C44.2533 35.3732 37.9089 38.0095 33.1379 42.7956L33.492 43.1486ZM26.2388 60.7125C26.2388 54.0775 28.8145 47.8409 33.492 43.1486L33.1379 42.7956C28.3669 47.5817 25.7388 53.9453 25.7388 60.7125H26.2388ZM26.2388 73.6997V60.7125H25.7388V73.6997H26.2388ZM24.5213 75.4217C25.4706 75.4217 26.2388 74.65 26.2388 73.6997H25.7388C25.7388 74.3753 25.193 74.9217 24.5213 74.9217V75.4217ZM22.8039 73.6997C22.8039 74.65 23.5721 75.4217 24.5213 75.4217V74.9217C23.8497 74.9217 23.3039 74.3753 23.3039 73.6997H22.8039ZM72.1314 14.9703C74.1504 14.9703 75.7947 16.6186 75.7947 18.6457H76.2947C76.2947 16.3439 74.428 14.4703 72.1314 14.4703V14.9703ZM68.4682 18.6457C68.4682 16.6186 70.1125 14.9703 72.1314 14.9703V14.4703C69.8349 14.4703 67.9682 16.3439 67.9682 18.6457H68.4682ZM72.1314 22.3211C70.1125 22.3211 68.4682 20.6729 68.4682 18.6457H67.9682C67.9682 20.9475 69.8349 22.8211 72.1314 22.8211V22.3211ZM75.7947 18.6457C75.7947 20.6729 74.1504 22.3211 72.1314 22.3211V22.8211C74.428 22.8211 76.2947 20.9475 76.2947 18.6457H75.7947ZM31.434 14.4703C29.1375 14.4703 27.2708 16.3439 27.2708 18.6457H27.7708C27.7708 16.6186 29.4151 14.9703 31.434 14.9703V14.4703ZM35.5972 18.6457C35.5972 16.3439 33.7306 14.4703 31.434 14.4703V14.9703C33.453 14.9703 35.0972 16.6186 35.0972 18.6457H35.5972ZM31.434 22.8211C33.7306 22.8211 35.5972 20.9475 35.5972 18.6457H35.0972C35.0972 20.6729 33.453 22.3211 31.434 22.3211V22.8211ZM27.2708 18.6457C27.2708 20.9475 29.1375 22.8211 31.434 22.8211V22.3211C29.4151 22.3211 27.7708 20.6729 27.7708 18.6457H27.2708ZM47.3369 6.86948C47.3369 4.84234 48.9812 3.19406 51.0001 3.19406V2.69406C48.7035 2.69406 46.8369 4.56767 46.8369 6.86948H47.3369ZM51.0001 10.5449C48.9812 10.5449 47.3369 8.89662 47.3369 6.86948H46.8369C46.8369 9.17129 48.7035 11.0449 51.0001 11.0449V10.5449ZM54.6633 6.86948C54.6633 8.89662 53.019 10.5449 51.0001 10.5449V11.0449C53.2966 11.0449 55.1633 9.17129 55.1633 6.86948H54.6633ZM51.0001 3.19406C53.019 3.19406 54.6633 4.84234 54.6633 6.86948H55.1633C55.1633 4.56767 53.2966 2.69406 51.0001 2.69406V3.19406ZM7.84812 50.4948C5.55157 50.4948 3.68491 52.3685 3.68491 54.6703H4.18491C4.18491 52.6431 5.82918 50.9948 7.84812 50.9948V50.4948ZM12.0113 54.6703C12.0113 52.3685 10.1447 50.4948 7.84812 50.4948V50.9948C9.86706 50.9948 11.5113 52.6431 11.5113 54.6703H12.0113ZM7.84812 58.8457C10.1447 58.8457 12.0113 56.9721 12.0113 54.6703H11.5113C11.5113 56.6974 9.86706 58.3457 7.84812 58.3457V58.8457ZM3.68491 54.6703C3.68491 56.9721 5.55157 58.8457 7.84812 58.8457V58.3457C5.82918 58.3457 4.18491 56.6974 4.18491 54.6703H3.68491ZM7.84812 85.2348C5.82918 85.2348 4.18491 83.5865 4.18491 81.5594H3.68491C3.68491 83.8612 5.55157 85.7348 7.84812 85.7348V85.2348ZM11.5113 81.5594C11.5113 83.5865 9.86706 85.2348 7.84812 85.2348V85.7348C10.1447 85.7348 12.0113 83.8612 12.0113 81.5594H11.5113ZM7.84812 77.884C9.86706 77.884 11.5113 79.5322 11.5113 81.5594H12.0113C12.0113 79.2576 10.1447 77.384 7.84812 77.384V77.884ZM4.18491 81.5594C4.18491 79.5322 5.82918 77.884 7.84812 77.884V77.384C5.55157 77.384 3.68491 79.2576 3.68491 81.5594H4.18491Z" fill="white"/>
<path d="M23.0539 73.1207H23.3039V72.8707H23.0539V73.1207ZM18.5333 73.1207V72.8707H18.4296L18.3563 72.9442L18.5333 73.1207ZM13.6894 77.9782L13.5124 77.8017L13.3735 77.9409L13.4761 78.1087L13.6894 77.9782ZM11.6569 75.8536L11.5171 76.0609L11.6882 76.1762L11.8339 76.0301L11.6569 75.8536ZM16.7159 70.7804L16.8929 70.9569L16.8929 70.9569L16.7159 70.7804ZM23.0537 70.1766V70.4266H23.3037V70.1766H23.0537ZM23.0537 66.055H23.3037V65.805H23.0537V66.055ZM16.7157 65.451L16.8927 65.2745H16.8927L16.7157 65.451ZM11.6567 60.3763L11.8337 60.1997L11.688 60.0536L11.517 60.1689L11.6567 60.3763ZM13.6892 58.2516L13.4759 58.1212L13.3733 58.2889L13.5121 58.4281L13.6892 58.2516ZM18.5333 63.1107L18.3563 63.2872L18.4296 63.3607H18.5333V63.1107ZM23.0539 63.1107V63.3607H23.3039V63.1107H23.0539ZM31.2397 40.8903L31.4168 41.0668L31.4168 41.0668L31.2397 40.8903ZM38.2822 35.7368L38.3964 35.9592L38.5322 35.8894V35.7368H38.2822ZM38.2822 29.3633H38.5322V29.26L38.4592 29.1868L38.2822 29.3633ZM33.9608 25.0285L34.1378 24.852L34.0213 24.735L33.868 24.7963L33.9608 25.0285ZM36.4275 23.3395L36.2449 23.1688L36.0801 23.3451L36.2504 23.516L36.4275 23.3395ZM40.615 27.5401L40.7921 27.3636L40.615 27.5401ZM41.2171 34.4394H40.9671V34.7999L41.3047 34.6736L41.2171 34.4394ZM49.5326 32.7176L49.5455 32.9672L49.7826 32.955V32.7176H49.5326ZM49.5326 13.5784H49.7826V13.3774L49.5863 13.3342L49.5326 13.5784ZM52.4676 13.5784L52.4138 13.3342L52.2176 13.3774V13.5784H52.4676ZM52.4676 32.7185H52.2176V32.9561L52.4548 32.9682L52.4676 32.7185ZM60.7831 34.4322L60.6958 34.6664L61.0331 34.7922V34.4322H60.7831ZM61.3852 27.5401L61.2081 27.3636L61.3852 27.5401ZM66.4432 22.4663L66.6203 22.6428L66.765 22.4976L66.6509 22.3273L66.4432 22.4663ZM68.5612 24.5052L68.6923 24.2923L68.5238 24.1886L68.3842 24.3287L68.5612 24.5052ZM63.718 29.3635L63.541 29.187L63.468 29.2602V29.3635H63.718ZM63.718 35.7266H63.468V35.8794L63.604 35.9491L63.718 35.7266ZM73.2813 43.792L73.0819 43.9427L73.0819 43.9427L73.2813 43.792ZM72.9982 45.8542L73.1495 46.0532L73.1495 46.0532L72.9982 45.8542ZM70.9424 45.5702L71.1419 45.4195L71.1419 45.4194L70.9424 45.5702ZM33.3149 42.9721L33.1379 42.7956L33.3149 42.9721ZM22.8039 73.1207V73.6997H23.3039V73.1207H22.8039ZM18.5333 73.3707H23.0539V72.8707H18.5333V73.3707ZM13.8664 78.1547L18.7104 73.2972L18.3563 72.9442L13.5124 77.8017L13.8664 78.1547ZM14.9462 81.5594C14.9462 80.2006 14.5641 78.9292 13.9026 77.8478L13.4761 78.1087C14.0911 79.114 14.4462 80.2956 14.4462 81.5594H14.9462ZM7.84812 88.6788C11.763 88.6788 14.9462 85.4845 14.9462 81.5594H14.4462C14.4462 85.2099 11.4854 88.1788 7.84812 88.1788V88.6788ZM0.75 81.5594C0.75 85.4845 3.93326 88.6788 7.84812 88.6788V88.1788C4.21087 88.1788 1.25 85.2099 1.25 81.5594H0.75ZM7.84812 74.4399C3.93326 74.4399 0.75 77.6342 0.75 81.5594H1.25C1.25 77.9089 4.21087 74.9399 7.84812 74.9399V74.4399ZM11.7966 75.6463C10.6672 74.885 9.30844 74.4399 7.84812 74.4399V74.9399C9.20531 74.9399 10.4673 75.3533 11.5171 76.0609L11.7966 75.6463ZM16.5388 70.6038L11.4798 75.6771L11.8339 76.0301L16.8929 70.9569L16.5388 70.6038ZM18.168 69.9266C17.561 69.9266 16.9679 70.1734 16.5388 70.6039L16.8929 70.9569C17.2285 70.6203 17.6943 70.4266 18.168 70.4266V69.9266ZM23.0537 69.9266H18.168V70.4266H23.0537V69.9266ZM22.8037 66.055V70.1766H23.3037V66.055H22.8037ZM18.168 66.305H23.0537V65.805H18.168V66.305ZM16.5386 65.6275C16.9679 66.0581 17.561 66.305 18.168 66.305V65.805C17.6943 65.805 17.2285 65.6113 16.8927 65.2745L16.5386 65.6275ZM11.4796 60.5528L16.5386 65.6275L16.8927 65.2745L11.8337 60.1997L11.4796 60.5528ZM7.84812 61.7897C9.30825 61.7897 10.667 61.3446 11.7964 60.5836L11.517 60.1689C10.4671 60.8764 9.20512 61.2897 7.84812 61.2897V61.7897ZM0.75 54.6703C0.75 58.5954 3.93326 61.7897 7.84812 61.7897V61.2897C4.21087 61.2897 1.25 58.3208 1.25 54.6703H0.75ZM7.84812 47.5508C3.93326 47.5508 0.75 50.7451 0.75 54.6703H1.25C1.25 51.0198 4.21087 48.0508 7.84812 48.0508V47.5508ZM14.9462 54.6703C14.9462 50.7451 11.763 47.5508 7.84812 47.5508V48.0508C11.4854 48.0508 14.4462 51.0198 14.4462 54.6703H14.9462ZM13.9024 58.3821C14.5639 57.3007 14.9462 56.0292 14.9462 54.6703H14.4462C14.4462 55.9343 14.0909 57.1158 13.4759 58.1212L13.9024 58.3821ZM18.7104 62.9342L13.8662 58.0751L13.5121 58.4281L18.3563 63.2872L18.7104 62.9342ZM23.0539 62.8607H18.5333V63.3607H23.0539V62.8607ZM22.8039 60.7123V63.1107H23.3039V60.7123H22.8039ZM31.0627 40.7138C25.7372 46.0557 22.8039 53.1589 22.8039 60.7123H23.3039C23.3039 53.291 26.1849 46.3148 31.4168 41.0668L31.0627 40.7138ZM38.1679 35.5144C35.5766 36.8459 33.1803 38.5896 31.0627 40.7138L31.4168 41.0668C33.4977 38.9794 35.8516 37.2667 38.3964 35.9592L38.1679 35.5144ZM38.0322 29.3633V35.7368H38.5322V29.3633H38.0322ZM33.7837 25.205L38.1051 29.5398L38.4592 29.1868L34.1378 24.852L33.7837 25.205ZM31.434 25.7652C32.359 25.7652 33.2426 25.5849 34.0536 25.2606L33.868 24.7963C33.1141 25.0977 32.2935 25.2652 31.434 25.2652V25.7652ZM24.3359 18.6457C24.3359 22.5709 27.5192 25.7652 31.434 25.7652V25.2652C27.7968 25.2652 24.8359 22.2962 24.8359 18.6457H24.3359ZM31.434 11.5263C27.5192 11.5263 24.3359 14.7206 24.3359 18.6457H24.8359C24.8359 14.9952 27.7968 12.0263 31.434 12.0263V11.5263ZM38.5322 18.6457C38.5322 14.7206 35.3489 11.5263 31.434 11.5263V12.0263C35.0713 12.0263 38.0322 14.9952 38.0322 18.6457H38.5322ZM36.6101 23.5103C37.8004 22.237 38.5322 20.5258 38.5322 18.6457H38.0322C38.0322 20.3935 37.3524 21.984 36.2449 23.1688L36.6101 23.5103ZM40.7921 27.3636L36.6045 23.163L36.2504 23.516L40.438 27.7166L40.7921 27.3636ZM41.4671 28.9971C41.4671 28.3886 41.2213 27.7942 40.7921 27.3636L40.438 27.7166C40.7738 28.0535 40.9671 28.5209 40.9671 28.9971H41.4671ZM41.4671 34.4394V28.9971H40.9671V34.4394H41.4671ZM49.5198 32.4679C46.6165 32.6176 43.7945 33.2081 41.1295 34.2053L41.3047 34.6736C43.9217 33.6943 46.6933 33.1143 49.5455 32.9672L49.5198 32.4679ZM49.2826 13.5784V32.7176H49.7826V13.5784H49.2826ZM43.902 6.86948C43.902 10.2718 46.2935 13.1221 49.479 13.8226L49.5863 13.3342C46.6257 12.6832 44.402 10.0325 44.402 6.86948H43.902ZM51.0001 -0.25C47.0852 -0.25 43.902 2.94431 43.902 6.86948H44.402C44.402 3.21899 47.3629 0.25 51.0001 0.25V-0.25ZM58.0982 6.86948C58.0982 2.94431 54.915 -0.25 51.0001 -0.25V0.25C54.6373 0.25 57.5982 3.21899 57.5982 6.86948H58.0982ZM52.5213 13.8226C55.7067 13.1219 58.0982 10.2716 58.0982 6.86948H57.5982C57.5982 10.0323 55.3745 12.683 52.4138 13.3342L52.5213 13.8226ZM52.7176 32.7185V13.5784H52.2176V32.7185H52.7176ZM60.8705 34.1979C58.2137 33.2073 55.3922 32.6182 52.4804 32.4689L52.4548 32.9682C55.3157 33.1149 58.0869 33.6936 60.6958 34.6664L60.8705 34.1979ZM60.5331 28.9971V34.4322H61.0331V28.9971H60.5331ZM61.2081 27.3636C60.7789 27.7942 60.5331 28.3888 60.5331 28.9971H61.0331C61.0331 28.5211 61.2264 28.0535 61.5622 27.7166L61.2081 27.3636ZM66.2661 22.2898L61.2081 27.3636L61.5622 27.7166L66.6203 22.6428L66.2661 22.2898ZM65.0333 18.6457C65.0333 20.1099 65.4769 21.4725 66.2355 22.6054L66.6509 22.3273C65.9456 21.2737 65.5333 20.0075 65.5333 18.6457H65.0333ZM72.1314 11.5263C68.2166 11.5263 65.0333 14.7206 65.0333 18.6457H65.5333C65.5333 14.9952 68.4942 12.0263 72.1314 12.0263V11.5263ZM79.2296 18.6457C79.2296 14.7206 76.0463 11.5263 72.1314 11.5263V12.0263C75.7687 12.0263 78.7296 14.9952 78.7296 18.6457H79.2296ZM72.1314 25.7652C76.0463 25.7652 79.2296 22.5709 79.2296 18.6457H78.7296C78.7296 22.2962 75.7687 25.2652 72.1314 25.2652V25.7652ZM68.4302 24.7181C69.5086 25.3818 70.7764 25.7652 72.1314 25.7652V25.2652C70.872 25.2652 69.6945 24.9091 68.6923 24.2923L68.4302 24.7181ZM63.8951 29.54L68.7383 24.6817L68.3842 24.3287L63.541 29.187L63.8951 29.54ZM63.968 35.7266V29.3635H63.468V35.7266H63.968ZM73.4808 43.6412C70.8536 40.1642 67.5551 37.4127 63.8321 35.5041L63.604 35.9491C67.2597 37.8231 70.4998 40.5255 73.0819 43.9427L73.4808 43.6412ZM73.1495 46.0532C73.9052 45.4786 74.0533 44.3987 73.4808 43.6412L73.0819 43.9427C73.4884 44.4806 73.383 45.2476 72.8469 45.6552L73.1495 46.0532ZM70.7429 45.7208C71.3156 46.479 72.3932 46.6281 73.1495 46.0532L72.8469 45.6551C72.3111 46.0624 71.5479 45.9571 71.1419 45.4195L70.7429 45.7208ZM51.0001 35.8732C58.8185 35.8732 66.0134 39.4617 70.743 45.7209L71.1419 45.4194C66.3181 39.0357 58.9758 35.3732 51.0001 35.3732V35.8732ZM33.492 43.1486C38.1694 38.4564 44.3864 35.8732 51.0001 35.8732V35.3732C44.2533 35.3732 37.9089 38.0095 33.1379 42.7956L33.492 43.1486ZM26.2388 60.7125C26.2388 54.0775 28.8145 47.8409 33.492 43.1486L33.1379 42.7956C28.3669 47.5817 25.7388 53.9453 25.7388 60.7125H26.2388ZM26.2388 73.6997V60.7125H25.7388V73.6997H26.2388ZM24.5213 75.4217C25.4706 75.4217 26.2388 74.65 26.2388 73.6997H25.7388C25.7388 74.3753 25.193 74.9217 24.5213 74.9217V75.4217ZM22.8039 73.6997C22.8039 74.65 23.5721 75.4217 24.5213 75.4217V74.9217C23.8497 74.9217 23.3039 74.3753 23.3039 73.6997H22.8039ZM72.1314 14.9703C74.1504 14.9703 75.7947 16.6186 75.7947 18.6457H76.2947C76.2947 16.3439 74.428 14.4703 72.1314 14.4703V14.9703ZM68.4682 18.6457C68.4682 16.6186 70.1125 14.9703 72.1314 14.9703V14.4703C69.8349 14.4703 67.9682 16.3439 67.9682 18.6457H68.4682ZM72.1314 22.3211C70.1125 22.3211 68.4682 20.6729 68.4682 18.6457H67.9682C67.9682 20.9475 69.8349 22.8211 72.1314 22.8211V22.3211ZM75.7947 18.6457C75.7947 20.6729 74.1504 22.3211 72.1314 22.3211V22.8211C74.428 22.8211 76.2947 20.9475 76.2947 18.6457H75.7947ZM31.434 14.4703C29.1375 14.4703 27.2708 16.3439 27.2708 18.6457H27.7708C27.7708 16.6186 29.4151 14.9703 31.434 14.9703V14.4703ZM35.5972 18.6457C35.5972 16.3439 33.7306 14.4703 31.434 14.4703V14.9703C33.453 14.9703 35.0972 16.6186 35.0972 18.6457H35.5972ZM31.434 22.8211C33.7306 22.8211 35.5972 20.9475 35.5972 18.6457H35.0972C35.0972 20.6729 33.453 22.3211 31.434 22.3211V22.8211ZM27.2708 18.6457C27.2708 20.9475 29.1375 22.8211 31.434 22.8211V22.3211C29.4151 22.3211 27.7708 20.6729 27.7708 18.6457H27.2708ZM47.3369 6.86948C47.3369 4.84234 48.9812 3.19406 51.0001 3.19406V2.69406C48.7035 2.69406 46.8369 4.56767 46.8369 6.86948H47.3369ZM51.0001 10.5449C48.9812 10.5449 47.3369 8.89662 47.3369 6.86948H46.8369C46.8369 9.17129 48.7035 11.0449 51.0001 11.0449V10.5449ZM54.6633 6.86948C54.6633 8.89662 53.019 10.5449 51.0001 10.5449V11.0449C53.2966 11.0449 55.1633 9.17129 55.1633 6.86948H54.6633ZM51.0001 3.19406C53.019 3.19406 54.6633 4.84234 54.6633 6.86948H55.1633C55.1633 4.56767 53.2966 2.69406 51.0001 2.69406V3.19406ZM7.84812 50.4948C5.55157 50.4948 3.68491 52.3685 3.68491 54.6703H4.18491C4.18491 52.6431 5.82918 50.9948 7.84812 50.9948V50.4948ZM12.0113 54.6703C12.0113 52.3685 10.1447 50.4948 7.84812 50.4948V50.9948C9.86706 50.9948 11.5113 52.6431 11.5113 54.6703H12.0113ZM7.84812 58.8457C10.1447 58.8457 12.0113 56.9721 12.0113 54.6703H11.5113C11.5113 56.6974 9.86706 58.3457 7.84812 58.3457V58.8457ZM3.68491 54.6703C3.68491 56.9721 5.55157 58.8457 7.84812 58.8457V58.3457C5.82918 58.3457 4.18491 56.6974 4.18491 54.6703H3.68491ZM7.84812 85.2348C5.82918 85.2348 4.18491 83.5865 4.18491 81.5594H3.68491C3.68491 83.8612 5.55157 85.7348 7.84812 85.7348V85.2348ZM11.5113 81.5594C11.5113 83.5865 9.86706 85.2348 7.84812 85.2348V85.7348C10.1447 85.7348 12.0113 83.8612 12.0113 81.5594H11.5113ZM7.84812 77.884C9.86706 77.884 11.5113 79.5322 11.5113 81.5594H12.0113C12.0113 79.2576 10.1447 77.384 7.84812 77.384V77.884ZM4.18491 81.5594C4.18491 79.5322 5.82918 77.884 7.84812 77.884V77.384C5.55157 77.384 3.68491 79.2576 3.68491 81.5594H4.18491Z" fill="#007AFF" fill-opacity="0.04"/>
</svg>
