<svg width="106" height="101" viewBox="0 0 106 101" fill="none" xmlns="http://www.w3.org/2000/svg">
<path fill-rule="evenodd" clip-rule="evenodd" d="M23.2377 53.1823C23.15 52.3459 22.401 51.7385 21.5635 51.8273C20.7269 51.9152 20.1197 52.6641 20.2077 53.5005C21.943 70.0219 36.386 82.9788 52.9998 82.9788C70.9585 82.9788 85.9729 67.9652 85.9729 50.0245C85.9729 32.082 70.981 17.0703 52.9998 17.0703C36.389 17.0703 21.9434 30.0235 20.2077 46.5486C20.1197 47.385 20.7269 48.1339 21.5635 48.2218C22.4014 48.3118 23.15 47.7031 23.2377 46.8667C23.657 42.8746 24.8434 39.1394 26.6419 35.8001H79.3197C84.0613 44.5287 84.0625 55.5186 79.3197 64.2492H26.6419C24.8432 60.9097 23.657 57.1745 23.2377 53.1823ZM51.4766 20.2955V32.755H41.4418C43.8313 25.7906 47.5126 21.2346 51.4766 20.2955ZM64.5578 32.755C62.1681 25.7906 58.487 21.2346 54.523 20.2955V32.755H64.5578ZM44.319 21.3845C41.8555 24.069 39.7625 27.9311 38.2334 32.755H28.5273C32.3355 27.3602 37.8777 23.3197 44.319 21.3845ZM61.6976 21.4031C64.1536 24.0871 66.2405 27.9422 67.766 32.755H77.4209C73.6237 27.4069 68.1141 23.3547 61.6976 21.4031ZM54.523 79.7534V67.2939H64.5578C62.1683 74.2581 58.487 78.8142 54.523 79.7534ZM41.4418 67.2939C43.8315 74.2583 47.5126 78.8142 51.4766 79.7534V67.2939H41.4418ZM61.6976 78.6455C64.1536 75.9616 66.2405 72.1064 67.766 67.2937H77.4209C73.6237 72.6418 68.1141 76.6942 61.6976 78.6455ZM44.3192 78.6644C41.8557 75.9798 39.7625 72.1178 38.2336 67.2939H28.5275C32.3355 72.6886 37.8779 76.7291 44.3192 78.6644Z" fill="#007AFF"/>
<path d="M21.5635 51.8273L21.5897 52.0759L21.5899 52.0759L21.5635 51.8273ZM23.2377 53.1823L22.9891 53.2084L22.9891 53.2085L23.2377 53.1823ZM20.2077 53.5005L20.4563 53.4743L20.4563 53.4743L20.2077 53.5005ZM20.2077 46.5486L20.4563 46.5748L20.4563 46.5747L20.2077 46.5486ZM21.5635 48.2218L21.5902 47.9732L21.5897 47.9732L21.5635 48.2218ZM23.2377 46.8667L22.9891 46.8406L22.9891 46.8407L23.2377 46.8667ZM26.6419 35.8001V35.5501H26.4926L26.4218 35.6816L26.6419 35.8001ZM79.3197 35.8001L79.5394 35.6808L79.4684 35.5501H79.3197V35.8001ZM79.3197 64.2492V64.4992H79.4684L79.5394 64.3685L79.3197 64.2492ZM26.6419 64.2492L26.4218 64.3677L26.4926 64.4992H26.6419V64.2492ZM51.4766 32.755V33.005H51.7266V32.755H51.4766ZM51.4766 20.2955H51.7266V19.9794L51.4189 20.0522L51.4766 20.2955ZM41.4418 32.755L41.2053 32.6738L41.0917 33.005H41.4418V32.755ZM54.523 20.2955L54.5807 20.0522L54.273 19.9794V20.2955H54.523ZM64.5578 32.755V33.005H64.9079L64.7943 32.6738L64.5578 32.755ZM54.523 32.755H54.273V33.005H54.523V32.755ZM38.2334 32.755V33.005H38.4164L38.4717 32.8305L38.2334 32.755ZM44.319 21.3845L44.5032 21.5535L45.1182 20.8833L44.2471 21.145L44.319 21.3845ZM28.5273 32.755L28.323 32.6108L28.0448 33.005H28.5273V32.755ZM67.766 32.755L67.5277 32.8305L67.583 33.005H67.766V32.755ZM61.6976 21.4031L61.7704 21.1639L60.8968 20.8982L61.5132 21.5719L61.6976 21.4031ZM77.4209 32.755V33.005H77.905L77.6248 32.6102L77.4209 32.755ZM54.523 67.2939V67.0439H54.273V67.2939H54.523ZM54.523 79.7534H54.273V80.0695L54.5807 79.9966L54.523 79.7534ZM64.5578 67.2939L64.7943 67.375L64.9079 67.0439H64.5578V67.2939ZM51.4766 79.7534L51.4189 79.9966L51.7266 80.0695V79.7534H51.4766ZM41.4418 67.2939V67.0439H41.0917L41.2053 67.375L41.4418 67.2939ZM51.4766 67.2939H51.7266V67.0439H51.4766V67.2939ZM67.766 67.2937V67.0437H67.583L67.5277 67.2182L67.766 67.2937ZM61.6976 78.6455L61.5132 78.4768L60.8968 79.1504L61.7704 78.8847L61.6976 78.6455ZM77.4209 67.2937L77.6248 67.4384L77.905 67.0437H77.4209V67.2937ZM38.2336 67.2939L38.4719 67.2184L38.4166 67.0439H38.2336V67.2939ZM44.3192 78.6644L44.2473 78.9038L45.1184 79.1656L44.5034 78.4954L44.3192 78.6644ZM28.5275 67.2939V67.0439H28.045L28.3232 67.4381L28.5275 67.2939ZM21.5899 52.0759C22.2898 52.0017 22.9157 52.5093 22.9891 53.2084L23.4863 53.1563C23.3842 52.1826 22.5123 51.4754 21.5372 51.5786L21.5899 52.0759ZM20.4563 53.4743C20.3828 52.7754 20.8901 52.1494 21.5897 52.0759L21.5374 51.5786C20.5636 51.6809 19.8566 52.5527 19.9591 53.5266L20.4563 53.4743ZM52.9998 82.7288C36.5134 82.7288 22.1782 69.868 20.4563 53.4743L19.9591 53.5266C21.7078 70.1758 36.2586 83.2288 52.9998 83.2288V82.7288ZM85.7229 50.0245C85.7229 67.8271 70.8205 82.7288 52.9998 82.7288V83.2288C71.0965 83.2288 86.2229 68.1034 86.2229 50.0245H85.7229ZM52.9998 17.3203C70.843 17.3203 85.7229 32.2201 85.7229 50.0245H86.2229C86.2229 31.9439 71.1191 16.8203 52.9998 16.8203V17.3203ZM20.4563 46.5747C22.1786 30.1774 36.5165 17.3203 52.9998 17.3203V16.8203C36.2616 16.8203 21.7082 29.8696 19.9591 46.5225L20.4563 46.5747ZM21.5897 47.9732C20.8901 47.8997 20.3828 47.2736 20.4563 46.5748L19.9591 46.5225C19.8566 47.4964 20.5636 48.3681 21.5374 48.4705L21.5897 47.9732ZM22.9891 46.8407C22.9157 47.5402 22.2899 48.0483 21.5902 47.9732L21.5369 48.4704C22.513 48.5752 23.3842 47.8661 23.4863 46.8928L22.9891 46.8407ZM26.4218 35.6816C24.6081 39.0491 23.4118 42.8156 22.9891 46.8406L23.4863 46.8928C23.9021 42.9335 25.0787 39.2297 26.862 35.9187L26.4218 35.6816ZM79.3197 35.5501H26.6419V36.0501H79.3197V35.5501ZM79.5394 64.3685C84.3226 55.5635 84.3214 44.4838 79.5394 35.6808L79.1001 35.9194C83.8012 44.5736 83.8024 55.4737 79.1001 64.1298L79.5394 64.3685ZM26.6419 64.4992H79.3197V63.9992H26.6419V64.4992ZM22.9891 53.2085C23.4118 57.2335 24.6079 61 26.4218 64.3677L26.862 64.1306C25.0785 60.8194 23.9021 57.1156 23.4863 53.1562L22.9891 53.2085ZM51.7266 32.755V20.2955H51.2266V32.755H51.7266ZM41.4418 33.005H51.4766V32.505H41.4418V33.005ZM51.4189 20.0522C49.3655 20.5387 47.4102 21.9552 45.6741 24.1089C43.9369 26.264 42.4069 29.1719 41.2053 32.6738L41.6782 32.8361C42.8663 29.3737 44.3717 26.5214 46.0634 24.4227C47.7563 22.3225 49.6236 20.9914 51.5342 20.5388L51.4189 20.0522ZM54.4654 20.5388C56.376 20.9914 58.2432 22.3225 59.9361 24.4227C61.6278 26.5214 63.1333 29.3737 64.3214 32.8361L64.7943 32.6738C63.5926 29.1719 62.0626 26.264 60.3254 24.1089C58.5893 21.9552 56.6341 20.5387 54.5807 20.0522L54.4654 20.5388ZM54.773 32.755V20.2955H54.273V32.755H54.773ZM64.5578 32.505H54.523V33.005H64.5578V32.505ZM38.4717 32.8305C39.9934 28.0302 42.0712 24.2038 44.5032 21.5535L44.1348 21.2154C41.6399 23.9343 39.5317 27.832 37.9951 32.6794L38.4717 32.8305ZM28.5273 33.005H38.2334V32.505H28.5273V33.005ZM44.2471 21.145C37.7518 23.0965 32.1631 27.1709 28.323 32.6108L28.7315 32.8992C32.5078 27.5496 38.0037 23.5429 44.391 21.6239L44.2471 21.145ZM68.0043 32.6794C66.4714 27.8432 64.3693 23.9526 61.8821 21.2344L61.5132 21.5719C63.9379 24.2217 66.0097 28.0413 67.5277 32.8305L68.0043 32.6794ZM77.4209 32.505H67.766V33.005H77.4209V32.505ZM61.6249 21.6423C67.9873 23.5774 73.4512 27.5958 77.2171 32.8997L77.6248 32.6102C73.7962 27.218 68.2409 23.1319 61.7704 21.1639L61.6249 21.6423ZM54.273 67.2939V79.7534H54.773V67.2939H54.273ZM64.5578 67.0439H54.523V67.5439H64.5578V67.0439ZM54.5807 79.9966C56.6341 79.5101 58.5894 78.0937 60.3255 75.9399C62.0627 73.7848 63.5927 70.8769 64.7943 67.375L64.3214 67.2128C63.1334 70.6751 61.628 73.5274 59.9362 75.6261C58.2433 77.7263 56.376 79.0575 54.4654 79.5101L54.5807 79.9966ZM51.5342 79.5101C49.6236 79.0575 47.7564 77.7264 46.0635 75.6262C44.3718 73.5275 42.8664 70.6752 41.6782 67.2127L41.2053 67.375C42.407 70.877 43.937 73.7849 45.6742 75.94C47.4103 78.0937 49.3655 79.5101 51.4189 79.9966L51.5342 79.5101ZM51.2266 67.2939V79.7534H51.7266V67.2939H51.2266ZM41.4418 67.5439H51.4766V67.0439H41.4418V67.5439ZM67.5277 67.2182C66.0097 72.0073 63.9379 75.827 61.5132 78.4768L61.8821 78.8143C64.3693 76.0961 66.4714 72.2055 68.0043 67.3692L67.5277 67.2182ZM77.4209 67.0437H67.766V67.5437H77.4209V67.0437ZM61.7704 78.8847C68.2409 76.917 73.7962 72.8307 77.6248 67.4384L77.2171 67.149C73.4512 72.4529 67.9873 76.4715 61.6249 78.4064L61.7704 78.8847ZM37.9953 67.3694C39.5317 72.2169 41.6401 76.1146 44.135 78.8334L44.5034 78.4954C42.0714 75.8451 39.9934 72.0187 38.4719 67.2184L37.9953 67.3694ZM28.5275 67.5439H38.2336V67.0439H28.5275V67.5439ZM44.3912 78.425C38.0039 76.5059 32.5078 72.4993 28.7317 67.1497L28.3232 67.4381C32.1631 72.878 37.752 76.9523 44.2473 78.9038L44.3912 78.425Z" fill="white"/>
<path d="M21.5635 51.8273L21.5897 52.0759L21.5899 52.0759L21.5635 51.8273ZM23.2377 53.1823L22.9891 53.2084L22.9891 53.2085L23.2377 53.1823ZM20.2077 53.5005L20.4563 53.4743L20.4563 53.4743L20.2077 53.5005ZM20.2077 46.5486L20.4563 46.5748L20.4563 46.5747L20.2077 46.5486ZM21.5635 48.2218L21.5902 47.9732L21.5897 47.9732L21.5635 48.2218ZM23.2377 46.8667L22.9891 46.8406L22.9891 46.8407L23.2377 46.8667ZM26.6419 35.8001V35.5501H26.4926L26.4218 35.6816L26.6419 35.8001ZM79.3197 35.8001L79.5394 35.6808L79.4684 35.5501H79.3197V35.8001ZM79.3197 64.2492V64.4992H79.4684L79.5394 64.3685L79.3197 64.2492ZM26.6419 64.2492L26.4218 64.3677L26.4926 64.4992H26.6419V64.2492ZM51.4766 32.755V33.005H51.7266V32.755H51.4766ZM51.4766 20.2955H51.7266V19.9794L51.4189 20.0522L51.4766 20.2955ZM41.4418 32.755L41.2053 32.6738L41.0917 33.005H41.4418V32.755ZM54.523 20.2955L54.5807 20.0522L54.273 19.9794V20.2955H54.523ZM64.5578 32.755V33.005H64.9079L64.7943 32.6738L64.5578 32.755ZM54.523 32.755H54.273V33.005H54.523V32.755ZM38.2334 32.755V33.005H38.4164L38.4717 32.8305L38.2334 32.755ZM44.319 21.3845L44.5032 21.5535L45.1182 20.8833L44.2471 21.145L44.319 21.3845ZM28.5273 32.755L28.323 32.6108L28.0448 33.005H28.5273V32.755ZM67.766 32.755L67.5277 32.8305L67.583 33.005H67.766V32.755ZM61.6976 21.4031L61.7704 21.1639L60.8968 20.8982L61.5132 21.5719L61.6976 21.4031ZM77.4209 32.755V33.005H77.905L77.6248 32.6102L77.4209 32.755ZM54.523 67.2939V67.0439H54.273V67.2939H54.523ZM54.523 79.7534H54.273V80.0695L54.5807 79.9966L54.523 79.7534ZM64.5578 67.2939L64.7943 67.375L64.9079 67.0439H64.5578V67.2939ZM51.4766 79.7534L51.4189 79.9966L51.7266 80.0695V79.7534H51.4766ZM41.4418 67.2939V67.0439H41.0917L41.2053 67.375L41.4418 67.2939ZM51.4766 67.2939H51.7266V67.0439H51.4766V67.2939ZM67.766 67.2937V67.0437H67.583L67.5277 67.2182L67.766 67.2937ZM61.6976 78.6455L61.5132 78.4768L60.8968 79.1504L61.7704 78.8847L61.6976 78.6455ZM77.4209 67.2937L77.6248 67.4384L77.905 67.0437H77.4209V67.2937ZM38.2336 67.2939L38.4719 67.2184L38.4166 67.0439H38.2336V67.2939ZM44.3192 78.6644L44.2473 78.9038L45.1184 79.1656L44.5034 78.4954L44.3192 78.6644ZM28.5275 67.2939V67.0439H28.045L28.3232 67.4381L28.5275 67.2939ZM21.5899 52.0759C22.2898 52.0017 22.9157 52.5093 22.9891 53.2084L23.4863 53.1563C23.3842 52.1826 22.5123 51.4754 21.5372 51.5786L21.5899 52.0759ZM20.4563 53.4743C20.3828 52.7754 20.8901 52.1494 21.5897 52.0759L21.5374 51.5786C20.5636 51.6809 19.8566 52.5527 19.9591 53.5266L20.4563 53.4743ZM52.9998 82.7288C36.5134 82.7288 22.1782 69.868 20.4563 53.4743L19.9591 53.5266C21.7078 70.1758 36.2586 83.2288 52.9998 83.2288V82.7288ZM85.7229 50.0245C85.7229 67.8271 70.8205 82.7288 52.9998 82.7288V83.2288C71.0965 83.2288 86.2229 68.1034 86.2229 50.0245H85.7229ZM52.9998 17.3203C70.843 17.3203 85.7229 32.2201 85.7229 50.0245H86.2229C86.2229 31.9439 71.1191 16.8203 52.9998 16.8203V17.3203ZM20.4563 46.5747C22.1786 30.1774 36.5165 17.3203 52.9998 17.3203V16.8203C36.2616 16.8203 21.7082 29.8696 19.9591 46.5225L20.4563 46.5747ZM21.5897 47.9732C20.8901 47.8997 20.3828 47.2736 20.4563 46.5748L19.9591 46.5225C19.8566 47.4964 20.5636 48.3681 21.5374 48.4705L21.5897 47.9732ZM22.9891 46.8407C22.9157 47.5402 22.2899 48.0483 21.5902 47.9732L21.5369 48.4704C22.513 48.5752 23.3842 47.8661 23.4863 46.8928L22.9891 46.8407ZM26.4218 35.6816C24.6081 39.0491 23.4118 42.8156 22.9891 46.8406L23.4863 46.8928C23.9021 42.9335 25.0787 39.2297 26.862 35.9187L26.4218 35.6816ZM79.3197 35.5501H26.6419V36.0501H79.3197V35.5501ZM79.5394 64.3685C84.3226 55.5635 84.3214 44.4838 79.5394 35.6808L79.1001 35.9194C83.8012 44.5736 83.8024 55.4737 79.1001 64.1298L79.5394 64.3685ZM26.6419 64.4992H79.3197V63.9992H26.6419V64.4992ZM22.9891 53.2085C23.4118 57.2335 24.6079 61 26.4218 64.3677L26.862 64.1306C25.0785 60.8194 23.9021 57.1156 23.4863 53.1562L22.9891 53.2085ZM51.7266 32.755V20.2955H51.2266V32.755H51.7266ZM41.4418 33.005H51.4766V32.505H41.4418V33.005ZM51.4189 20.0522C49.3655 20.5387 47.4102 21.9552 45.6741 24.1089C43.9369 26.264 42.4069 29.1719 41.2053 32.6738L41.6782 32.8361C42.8663 29.3737 44.3717 26.5214 46.0634 24.4227C47.7563 22.3225 49.6236 20.9914 51.5342 20.5388L51.4189 20.0522ZM54.4654 20.5388C56.376 20.9914 58.2432 22.3225 59.9361 24.4227C61.6278 26.5214 63.1333 29.3737 64.3214 32.8361L64.7943 32.6738C63.5926 29.1719 62.0626 26.264 60.3254 24.1089C58.5893 21.9552 56.6341 20.5387 54.5807 20.0522L54.4654 20.5388ZM54.773 32.755V20.2955H54.273V32.755H54.773ZM64.5578 32.505H54.523V33.005H64.5578V32.505ZM38.4717 32.8305C39.9934 28.0302 42.0712 24.2038 44.5032 21.5535L44.1348 21.2154C41.6399 23.9343 39.5317 27.832 37.9951 32.6794L38.4717 32.8305ZM28.5273 33.005H38.2334V32.505H28.5273V33.005ZM44.2471 21.145C37.7518 23.0965 32.1631 27.1709 28.323 32.6108L28.7315 32.8992C32.5078 27.5496 38.0037 23.5429 44.391 21.6239L44.2471 21.145ZM68.0043 32.6794C66.4714 27.8432 64.3693 23.9526 61.8821 21.2344L61.5132 21.5719C63.9379 24.2217 66.0097 28.0413 67.5277 32.8305L68.0043 32.6794ZM77.4209 32.505H67.766V33.005H77.4209V32.505ZM61.6249 21.6423C67.9873 23.5774 73.4512 27.5958 77.2171 32.8997L77.6248 32.6102C73.7962 27.218 68.2409 23.1319 61.7704 21.1639L61.6249 21.6423ZM54.273 67.2939V79.7534H54.773V67.2939H54.273ZM64.5578 67.0439H54.523V67.5439H64.5578V67.0439ZM54.5807 79.9966C56.6341 79.5101 58.5894 78.0937 60.3255 75.9399C62.0627 73.7848 63.5927 70.8769 64.7943 67.375L64.3214 67.2128C63.1334 70.6751 61.628 73.5274 59.9362 75.6261C58.2433 77.7263 56.376 79.0575 54.4654 79.5101L54.5807 79.9966ZM51.5342 79.5101C49.6236 79.0575 47.7564 77.7264 46.0635 75.6262C44.3718 73.5275 42.8664 70.6752 41.6782 67.2127L41.2053 67.375C42.407 70.877 43.937 73.7849 45.6742 75.94C47.4103 78.0937 49.3655 79.5101 51.4189 79.9966L51.5342 79.5101ZM51.2266 67.2939V79.7534H51.7266V67.2939H51.2266ZM41.4418 67.5439H51.4766V67.0439H41.4418V67.5439ZM67.5277 67.2182C66.0097 72.0073 63.9379 75.827 61.5132 78.4768L61.8821 78.8143C64.3693 76.0961 66.4714 72.2055 68.0043 67.3692L67.5277 67.2182ZM77.4209 67.0437H67.766V67.5437H77.4209V67.0437ZM61.7704 78.8847C68.2409 76.917 73.7962 72.8307 77.6248 67.4384L77.2171 67.149C73.4512 72.4529 67.9873 76.4715 61.6249 78.4064L61.7704 78.8847ZM37.9953 67.3694C39.5317 72.2169 41.6401 76.1146 44.135 78.8334L44.5034 78.4954C42.0714 75.8451 39.9934 72.0187 38.4719 67.2184L37.9953 67.3694ZM28.5275 67.5439H38.2336V67.0439H28.5275V67.5439ZM44.3912 78.425C38.0039 76.5059 32.5078 72.4993 28.7317 67.1497L28.3232 67.4381C32.1631 72.878 37.752 76.9523 44.2473 78.9038L44.3912 78.425Z" fill="#007AFF" fill-opacity="0.04"/>
<path d="M103.537 46.0853L97.7385 37.8484C97.1305 36.9838 96.8181 35.9712 96.8352 34.9182L96.9875 24.8457C97.0404 21.3661 94.862 18.2733 91.568 17.15L82.0316 13.8915C81.0337 13.5509 80.1854 12.9146 79.5779 12.0506L73.7793 3.81537C71.7769 0.970403 68.1962 -0.253943 64.868 0.77044L56.4491 3.36449C55.6451 3.61236 55.1943 4.46439 55.4422 5.2679C55.69 6.0712 56.5427 6.52127 57.3467 6.27421L65.7652 3.68037C67.8277 3.04597 70.0467 3.8042 71.2878 5.56774L77.0862 13.8028C78.066 15.1958 79.4357 16.2231 81.0467 16.7732L90.5836 20.0319C92.6248 20.7278 93.9744 22.6438 93.9417 24.7998L93.7893 34.8707C93.7617 36.5696 94.2655 38.2047 95.2468 39.5999L101.045 47.837C102.286 49.6006 102.251 51.9441 100.957 53.6685L94.911 61.7263C93.8889 63.086 93.3352 64.705 93.31 66.4075L93.1556 76.4804C93.1229 78.6361 91.7167 80.5105 89.6559 81.1445L80.024 84.1123C78.3941 84.6149 76.9941 85.6003 75.9763 86.9597L69.9301 95.0159C68.6341 96.7415 66.392 97.4323 64.3514 96.7346L54.8153 93.4765C53.2066 92.9271 51.4956 92.9007 49.8664 93.4011L40.2354 96.3687C38.1731 97.0037 35.9539 96.2451 34.7128 94.4814L28.9144 86.2463C27.9346 84.8533 26.5649 83.826 24.9539 83.2759L15.417 80.0172C13.3758 79.3213 12.0262 77.4053 12.0589 75.2493L12.2112 65.1785C12.2389 63.4795 11.7351 61.8444 10.7538 60.4492L4.95521 52.2121C3.71452 50.4485 3.75007 48.105 5.04377 46.3806L11.0892 38.323C12.1113 36.9633 12.665 35.3443 12.6902 33.6418L12.8446 23.5689C12.8773 21.4132 14.2835 19.5388 16.3442 18.9048L25.9762 15.937C27.6061 15.4344 29.006 14.449 30.0239 13.0896L36.0701 5.03342C37.3661 3.30805 39.6079 2.61701 41.6489 3.31475L49.7673 6.08765C50.5633 6.36009 51.4294 5.93478 51.7014 5.13939C51.9734 4.3436 51.5487 3.47817 50.7524 3.20634L42.6345 0.433445C39.3414 -0.691427 35.7242 0.422076 33.6332 3.20573L27.5856 11.264C26.9553 12.106 26.0881 12.7159 25.0784 13.0273L15.4474 15.9949C12.1215 17.0183 9.85134 20.0433 9.79832 23.5223L9.64395 33.5958C9.62831 34.6506 9.28563 35.6526 8.65249 36.4947L2.60607 44.554C0.518552 47.3366 0.460864 51.1181 2.46307 53.9636L8.26148 62.2005C8.86943 63.0651 9.18184 64.0777 9.16478 65.1307L9.01243 75.2032C8.95962 78.6828 11.1379 81.7756 14.432 82.8989L23.9683 86.1574C24.9663 86.498 25.8145 87.1343 26.4221 87.9983L32.2207 96.2335C34.2231 99.0791 37.8036 100.304 41.132 99.2789L50.7622 96.3115C51.7717 96.0013 52.8324 96.0173 53.8293 96.3578L63.3655 99.6155C66.4723 100.677 70.3914 99.4731 72.3668 96.8432L78.4144 88.7849C79.0447 87.9428 79.9118 87.333 80.9216 87.0216L90.5525 84.054C93.8785 83.0306 96.1486 80.0056 96.2017 76.5266L96.356 66.4531C96.3717 65.3983 96.7143 64.3963 97.3475 63.5542L103.394 55.4951C105.481 52.7125 105.539 48.931 103.537 46.0853Z" fill="#007AFF"/>
<path d="M103.537 46.0853L97.7385 37.8484C97.1305 36.9838 96.8181 35.9712 96.8352 34.9182L96.9875 24.8457C97.0404 21.3661 94.862 18.2733 91.568 17.15L82.0316 13.8915C81.0337 13.5509 80.1854 12.9146 79.5779 12.0506L73.7793 3.81537C71.7769 0.970403 68.1962 -0.253943 64.868 0.77044L56.4491 3.36449C55.6451 3.61236 55.1943 4.46439 55.4422 5.2679C55.69 6.0712 56.5427 6.52127 57.3467 6.27421L65.7652 3.68037C67.8277 3.04597 70.0467 3.8042 71.2878 5.56774L77.0862 13.8028C78.066 15.1958 79.4357 16.2231 81.0467 16.7732L90.5836 20.0319C92.6248 20.7278 93.9744 22.6438 93.9417 24.7998L93.7893 34.8707C93.7617 36.5696 94.2655 38.2047 95.2468 39.5999L101.045 47.837C102.286 49.6006 102.251 51.9441 100.957 53.6685L94.911 61.7263C93.8889 63.086 93.3352 64.705 93.31 66.4075L93.1556 76.4804C93.1229 78.6361 91.7167 80.5105 89.6559 81.1445L80.024 84.1123C78.3941 84.6149 76.9941 85.6003 75.9763 86.9597L69.9301 95.0159C68.6341 96.7415 66.392 97.4323 64.3514 96.7346L54.8153 93.4765C53.2066 92.9271 51.4956 92.9007 49.8664 93.4011L40.2354 96.3687C38.1731 97.0037 35.9539 96.2451 34.7128 94.4814L28.9144 86.2463C27.9346 84.8533 26.5649 83.826 24.9539 83.2759L15.417 80.0172C13.3758 79.3213 12.0262 77.4053 12.0589 75.2493L12.2112 65.1785C12.2389 63.4795 11.7351 61.8444 10.7538 60.4492L4.95521 52.2121C3.71452 50.4485 3.75007 48.105 5.04377 46.3806L11.0892 38.323C12.1113 36.9633 12.665 35.3443 12.6902 33.6418L12.8446 23.5689C12.8773 21.4132 14.2835 19.5388 16.3442 18.9048L25.9762 15.937C27.6061 15.4344 29.006 14.449 30.0239 13.0896L36.0701 5.03342C37.3661 3.30805 39.6079 2.61701 41.6489 3.31475L49.7673 6.08765C50.5633 6.36009 51.4294 5.93478 51.7014 5.13939C51.9734 4.3436 51.5487 3.47817 50.7524 3.20634L42.6345 0.433445C39.3414 -0.691427 35.7242 0.422076 33.6332 3.20573L27.5856 11.264C26.9553 12.106 26.0881 12.7159 25.0784 13.0273L15.4474 15.9949C12.1215 17.0183 9.85134 20.0433 9.79832 23.5223L9.64395 33.5958C9.62831 34.6506 9.28563 35.6526 8.65249 36.4947L2.60607 44.554C0.518552 47.3366 0.460864 51.1181 2.46307 53.9636L8.26148 62.2005C8.86943 63.0651 9.18184 64.0777 9.16478 65.1307L9.01243 75.2032C8.95962 78.6828 11.1379 81.7756 14.432 82.8989L23.9683 86.1574C24.9663 86.498 25.8145 87.1343 26.4221 87.9983L32.2207 96.2335C34.2231 99.0791 37.8036 100.304 41.132 99.2789L50.7622 96.3115C51.7717 96.0013 52.8324 96.0173 53.8293 96.3578L63.3655 99.6155C66.4723 100.677 70.3914 99.4731 72.3668 96.8432L78.4144 88.7849C79.0447 87.9428 79.9118 87.333 80.9216 87.0216L90.5525 84.054C93.8785 83.0306 96.1486 80.0056 96.2017 76.5266L96.356 66.4531C96.3717 65.3983 96.7143 64.3963 97.3475 63.5542L103.394 55.4951C105.481 52.7125 105.539 48.931 103.537 46.0853Z" stroke="white" stroke-width="0.5"/>
<path d="M103.537 46.0853L97.7385 37.8484C97.1305 36.9838 96.8181 35.9712 96.8352 34.9182L96.9875 24.8457C97.0404 21.3661 94.862 18.2733 91.568 17.15L82.0316 13.8915C81.0337 13.5509 80.1854 12.9146 79.5779 12.0506L73.7793 3.81537C71.7769 0.970403 68.1962 -0.253943 64.868 0.77044L56.4491 3.36449C55.6451 3.61236 55.1943 4.46439 55.4422 5.2679C55.69 6.0712 56.5427 6.52127 57.3467 6.27421L65.7652 3.68037C67.8277 3.04597 70.0467 3.8042 71.2878 5.56774L77.0862 13.8028C78.066 15.1958 79.4357 16.2231 81.0467 16.7732L90.5836 20.0319C92.6248 20.7278 93.9744 22.6438 93.9417 24.7998L93.7893 34.8707C93.7617 36.5696 94.2655 38.2047 95.2468 39.5999L101.045 47.837C102.286 49.6006 102.251 51.9441 100.957 53.6685L94.911 61.7263C93.8889 63.086 93.3352 64.705 93.31 66.4075L93.1556 76.4804C93.1229 78.6361 91.7167 80.5105 89.6559 81.1445L80.024 84.1123C78.3941 84.6149 76.9941 85.6003 75.9763 86.9597L69.9301 95.0159C68.6341 96.7415 66.392 97.4323 64.3514 96.7346L54.8153 93.4765C53.2066 92.9271 51.4956 92.9007 49.8664 93.4011L40.2354 96.3687C38.1731 97.0037 35.9539 96.2451 34.7128 94.4814L28.9144 86.2463C27.9346 84.8533 26.5649 83.826 24.9539 83.2759L15.417 80.0172C13.3758 79.3213 12.0262 77.4053 12.0589 75.2493L12.2112 65.1785C12.2389 63.4795 11.7351 61.8444 10.7538 60.4492L4.95521 52.2121C3.71452 50.4485 3.75007 48.105 5.04377 46.3806L11.0892 38.323C12.1113 36.9633 12.665 35.3443 12.6902 33.6418L12.8446 23.5689C12.8773 21.4132 14.2835 19.5388 16.3442 18.9048L25.9762 15.937C27.6061 15.4344 29.006 14.449 30.0239 13.0896L36.0701 5.03342C37.3661 3.30805 39.6079 2.61701 41.6489 3.31475L49.7673 6.08765C50.5633 6.36009 51.4294 5.93478 51.7014 5.13939C51.9734 4.3436 51.5487 3.47817 50.7524 3.20634L42.6345 0.433445C39.3414 -0.691427 35.7242 0.422076 33.6332 3.20573L27.5856 11.264C26.9553 12.106 26.0881 12.7159 25.0784 13.0273L15.4474 15.9949C12.1215 17.0183 9.85134 20.0433 9.79832 23.5223L9.64395 33.5958C9.62831 34.6506 9.28563 35.6526 8.65249 36.4947L2.60607 44.554C0.518552 47.3366 0.460864 51.1181 2.46307 53.9636L8.26148 62.2005C8.86943 63.0651 9.18184 64.0777 9.16478 65.1307L9.01243 75.2032C8.95962 78.6828 11.1379 81.7756 14.432 82.8989L23.9683 86.1574C24.9663 86.498 25.8145 87.1343 26.4221 87.9983L32.2207 96.2335C34.2231 99.0791 37.8036 100.304 41.132 99.2789L50.7622 96.3115C51.7717 96.0013 52.8324 96.0173 53.8293 96.3578L63.3655 99.6155C66.4723 100.677 70.3914 99.4731 72.3668 96.8432L78.4144 88.7849C79.0447 87.9428 79.9118 87.333 80.9216 87.0216L90.5525 84.054C93.8785 83.0306 96.1486 80.0056 96.2017 76.5266L96.356 66.4531C96.3717 65.3983 96.7143 64.3963 97.3475 63.5542L103.394 55.4951C105.481 52.7125 105.539 48.931 103.537 46.0853Z" stroke="#007AFF" stroke-opacity="0.04" stroke-width="0.5"/>
<path d="M90.794 48.2245C91.6321 48.1514 92.2522 47.4129 92.1789 46.5755C91.327 36.8296 86.87 27.7896 79.6288 21.1208C72.3441 14.4116 62.8864 10.7168 52.9985 10.7168C31.3116 10.7168 13.668 28.3501 13.668 50.0246C13.668 71.699 31.3116 89.3326 52.9985 89.3326C73.0829 89.3326 90.4294 73.4922 92.1791 53.4741C92.2522 52.6365 91.6323 51.8982 90.7942 51.8251C89.9549 51.7514 89.2173 52.3718 89.144 53.2094C87.5226 71.7577 71.6458 86.2877 52.9985 86.2877C32.9915 86.2877 16.7146 70.0201 16.7146 50.0248C16.7146 30.0294 32.9915 13.7617 52.9985 13.7617C71.6458 13.7617 87.5226 28.2915 89.1438 46.8402C89.2171 47.678 89.9549 48.299 90.794 48.2245Z" fill="#007AFF"/>
<path d="M90.794 48.2245C91.6321 48.1514 92.2522 47.4129 92.1789 46.5755C91.327 36.8296 86.87 27.7896 79.6288 21.1208C72.3441 14.4116 62.8864 10.7168 52.9985 10.7168C31.3116 10.7168 13.668 28.3501 13.668 50.0246C13.668 71.699 31.3116 89.3326 52.9985 89.3326C73.0829 89.3326 90.4294 73.4922 92.1791 53.4741C92.2522 52.6365 91.6323 51.8982 90.7942 51.8251C89.9549 51.7514 89.2173 52.3718 89.144 53.2094C87.5226 71.7577 71.6458 86.2877 52.9985 86.2877C32.9915 86.2877 16.7146 70.0201 16.7146 50.0248C16.7146 30.0294 32.9915 13.7617 52.9985 13.7617C71.6458 13.7617 87.5226 28.2915 89.1438 46.8402C89.2171 47.678 89.9549 48.299 90.794 48.2245Z" stroke="white" stroke-width="0.5"/>
<path d="M90.794 48.2245C91.6321 48.1514 92.2522 47.4129 92.1789 46.5755C91.327 36.8296 86.87 27.7896 79.6288 21.1208C72.3441 14.4116 62.8864 10.7168 52.9985 10.7168C31.3116 10.7168 13.668 28.3501 13.668 50.0246C13.668 71.699 31.3116 89.3326 52.9985 89.3326C73.0829 89.3326 90.4294 73.4922 92.1791 53.4741C92.2522 52.6365 91.6323 51.8982 90.7942 51.8251C89.9549 51.7514 89.2173 52.3718 89.144 53.2094C87.5226 71.7577 71.6458 86.2877 52.9985 86.2877C32.9915 86.2877 16.7146 70.0201 16.7146 50.0248C16.7146 30.0294 32.9915 13.7617 52.9985 13.7617C71.6458 13.7617 87.5226 28.2915 89.1438 46.8402C89.2171 47.678 89.9549 48.299 90.794 48.2245Z" stroke="#007AFF" stroke-opacity="0.04" stroke-width="0.5"/>
<path d="M34.9371 57.9063V42.1425C34.9371 41.3016 34.255 40.6201 33.4139 40.6201C32.5725 40.6201 31.8906 41.3016 31.8906 42.1425V57.9063C31.8906 58.7472 32.5727 59.4287 33.4139 59.4287C34.255 59.4287 34.9371 58.7472 34.9371 57.9063Z" fill="#007AFF"/>
<path d="M34.9371 57.9063V42.1425C34.9371 41.3016 34.255 40.6201 33.4139 40.6201C32.5725 40.6201 31.8906 41.3016 31.8906 42.1425V57.9063C31.8906 58.7472 32.5727 59.4287 33.4139 59.4287C34.255 59.4287 34.9371 58.7472 34.9371 57.9063Z" stroke="white" stroke-width="0.5"/>
<path d="M34.9371 57.9063V42.1425C34.9371 41.3016 34.255 40.6201 33.4139 40.6201C32.5725 40.6201 31.8906 41.3016 31.8906 42.1425V57.9063C31.8906 58.7472 32.5727 59.4287 33.4139 59.4287C34.255 59.4287 34.9371 58.7472 34.9371 57.9063Z" stroke="#007AFF" stroke-opacity="0.04" stroke-width="0.5"/>
<path d="M45.7385 56.3839C44.0465 56.3839 42.4137 55.6971 41.3709 54.5473C40.806 53.9242 39.8426 53.8769 39.2192 54.4415C38.5958 55.0061 38.5483 55.969 39.1134 56.592C40.724 58.3683 43.2009 59.429 45.7385 59.429C48.7949 59.429 51.4585 57.4209 51.9342 54.7578C52.295 52.7383 51.3551 50.0918 47.6353 48.7207C45.625 47.9795 43.7588 47.1708 43.2661 46.9545C42.8048 46.6109 42.5813 46.0658 42.6658 45.4764C42.7745 44.72 43.3611 44.1112 44.2348 43.8481C46.696 43.1071 48.9314 44.8873 48.9887 44.9334C49.6326 45.4689 50.5895 45.3845 51.1292 44.743C51.6706 44.0992 51.5873 43.1388 50.9434 42.5978C50.8022 42.479 47.4364 39.7033 43.356 40.9325C41.3475 41.5373 39.9275 43.1126 39.6502 45.0438C39.3917 46.8449 40.1723 48.5772 41.6878 49.5646C41.755 49.6085 41.8257 49.6469 41.899 49.6795C41.9898 49.7199 44.1486 50.6802 46.5811 51.5771C48.2666 52.1985 49.1246 53.1626 48.9353 54.2223C48.7454 55.285 47.4978 56.3839 45.7385 56.3839Z" fill="#007AFF"/>
<path d="M45.7385 56.3839C44.0465 56.3839 42.4137 55.6971 41.3709 54.5473C40.806 53.9242 39.8426 53.8769 39.2192 54.4415C38.5958 55.0061 38.5483 55.969 39.1134 56.592C40.724 58.3683 43.2009 59.429 45.7385 59.429C48.7949 59.429 51.4585 57.4209 51.9342 54.7578C52.295 52.7383 51.3551 50.0918 47.6353 48.7207C45.625 47.9795 43.7588 47.1708 43.2661 46.9545C42.8048 46.6109 42.5813 46.0658 42.6658 45.4764C42.7745 44.72 43.3611 44.1112 44.2348 43.8481C46.696 43.1071 48.9314 44.8873 48.9887 44.9334C49.6326 45.4689 50.5895 45.3845 51.1292 44.743C51.6706 44.0992 51.5873 43.1388 50.9434 42.5978C50.8022 42.479 47.4364 39.7033 43.356 40.9325C41.3475 41.5373 39.9275 43.1126 39.6502 45.0438C39.3917 46.8449 40.1723 48.5772 41.6878 49.5646C41.755 49.6085 41.8257 49.6469 41.899 49.6795C41.9898 49.7199 44.1486 50.6802 46.5811 51.5771C48.2666 52.1985 49.1246 53.1626 48.9353 54.2223C48.7454 55.285 47.4978 56.3839 45.7385 56.3839Z" stroke="white" stroke-width="0.5"/>
<path d="M45.7385 56.3839C44.0465 56.3839 42.4137 55.6971 41.3709 54.5473C40.806 53.9242 39.8426 53.8769 39.2192 54.4415C38.5958 55.0061 38.5483 55.969 39.1134 56.592C40.724 58.3683 43.2009 59.429 45.7385 59.429C48.7949 59.429 51.4585 57.4209 51.9342 54.7578C52.295 52.7383 51.3551 50.0918 47.6353 48.7207C45.625 47.9795 43.7588 47.1708 43.2661 46.9545C42.8048 46.6109 42.5813 46.0658 42.6658 45.4764C42.7745 44.72 43.3611 44.1112 44.2348 43.8481C46.696 43.1071 48.9314 44.8873 48.9887 44.9334C49.6326 45.4689 50.5895 45.3845 51.1292 44.743C51.6706 44.0992 51.5873 43.1388 50.9434 42.5978C50.8022 42.479 47.4364 39.7033 43.356 40.9325C41.3475 41.5373 39.9275 43.1126 39.6502 45.0438C39.3917 46.8449 40.1723 48.5772 41.6878 49.5646C41.755 49.6085 41.8257 49.6469 41.899 49.6795C41.9898 49.7199 44.1486 50.6802 46.5811 51.5771C48.2666 52.1985 49.1246 53.1626 48.9353 54.2223C48.7454 55.285 47.4978 56.3839 45.7385 56.3839Z" stroke="#007AFF" stroke-opacity="0.04" stroke-width="0.5"/>
<path fill-rule="evenodd" clip-rule="evenodd" d="M64.7025 40.6201C69.891 40.6201 74.1121 44.8388 74.1121 50.0245C74.1121 55.2102 69.891 59.4289 64.7025 59.4289C59.5141 59.4289 55.293 55.2102 55.293 50.0245C55.293 44.8388 59.5141 40.6201 64.7025 40.6201ZM64.7023 43.665C61.194 43.665 58.3394 46.5179 58.3394 50.0245C58.3394 53.5313 61.1938 56.384 64.7023 56.384C68.2109 56.384 71.0654 53.5311 71.0654 50.0245C71.0654 46.5179 68.2107 43.665 64.7023 43.665Z" fill="#007AFF"/>
<path d="M74.3621 50.0245C74.3621 44.7006 70.0289 40.3701 64.7025 40.3701V40.8701C69.753 40.8701 73.8621 44.977 73.8621 50.0245H74.3621ZM64.7025 59.6789C70.0289 59.6789 74.3621 55.3484 74.3621 50.0245H73.8621C73.8621 55.072 69.753 59.1789 64.7025 59.1789V59.6789ZM55.043 50.0245C55.043 55.3484 59.3762 59.6789 64.7025 59.6789V59.1789C59.6521 59.1789 55.543 55.072 55.543 50.0245H55.043ZM64.7025 40.3701C59.3762 40.3701 55.043 44.7006 55.043 50.0245H55.543C55.543 44.977 59.6521 40.8701 64.7025 40.8701V40.3701ZM58.5894 50.0245C58.5894 46.6561 61.3319 43.915 64.7023 43.915V43.415C61.056 43.415 58.0894 46.3797 58.0894 50.0245H58.5894ZM64.7023 56.134C61.3317 56.134 58.5894 53.3931 58.5894 50.0245H58.0894C58.0894 53.6695 61.0558 56.634 64.7023 56.634V56.134ZM70.8154 50.0245C70.8154 53.3929 68.073 56.134 64.7023 56.134V56.634C68.3489 56.634 71.3154 53.6693 71.3154 50.0245H70.8154ZM64.7023 43.915C68.0728 43.915 70.8154 46.6561 70.8154 50.0245H71.3154C71.3154 46.3797 68.3486 43.415 64.7023 43.415V43.915Z" fill="white"/>
<path d="M74.3621 50.0245C74.3621 44.7006 70.0289 40.3701 64.7025 40.3701V40.8701C69.753 40.8701 73.8621 44.977 73.8621 50.0245H74.3621ZM64.7025 59.6789C70.0289 59.6789 74.3621 55.3484 74.3621 50.0245H73.8621C73.8621 55.072 69.753 59.1789 64.7025 59.1789V59.6789ZM55.043 50.0245C55.043 55.3484 59.3762 59.6789 64.7025 59.6789V59.1789C59.6521 59.1789 55.543 55.072 55.543 50.0245H55.043ZM64.7025 40.3701C59.3762 40.3701 55.043 44.7006 55.043 50.0245H55.543C55.543 44.977 59.6521 40.8701 64.7025 40.8701V40.3701ZM58.5894 50.0245C58.5894 46.6561 61.3319 43.915 64.7023 43.915V43.415C61.056 43.415 58.0894 46.3797 58.0894 50.0245H58.5894ZM64.7023 56.134C61.3317 56.134 58.5894 53.3931 58.5894 50.0245H58.0894C58.0894 53.6695 61.0558 56.634 64.7023 56.634V56.134ZM70.8154 50.0245C70.8154 53.3929 68.073 56.134 64.7023 56.134V56.634C68.3489 56.634 71.3154 53.6693 71.3154 50.0245H70.8154ZM64.7023 43.915C68.0728 43.915 70.8154 46.6561 70.8154 50.0245H71.3154C71.3154 46.3797 68.3486 43.415 64.7023 43.415V43.915Z" fill="#007AFF" fill-opacity="0.04"/>
</svg>
