<svg width="105" height="101" viewBox="0 0 105 101" fill="none" xmlns="http://www.w3.org/2000/svg">
<path fill-rule="evenodd" clip-rule="evenodd" d="M22.2377 53.1823C22.15 52.3459 21.401 51.7385 20.5635 51.8273C19.7269 51.9152 19.1197 52.6641 19.2077 53.5005C20.943 70.0219 35.386 82.9788 51.9998 82.9788C69.9585 82.9788 84.9729 67.9652 84.9729 50.0245C84.9729 32.082 69.981 17.0703 51.9998 17.0703C35.389 17.0703 20.9434 30.0235 19.2077 46.5486C19.1197 47.385 19.7269 48.1339 20.5635 48.2218C21.4014 48.3118 22.15 47.7031 22.2377 46.8667C22.657 42.8746 23.8434 39.1394 25.6419 35.8001H78.3197C83.0613 44.5287 83.0625 55.5186 78.3197 64.2492H25.6419C23.8432 60.9097 22.657 57.1745 22.2377 53.1823ZM50.4766 20.2955V32.755H40.4418C42.8313 25.7906 46.5126 21.2346 50.4766 20.2955ZM63.5578 32.755C61.1681 25.7906 57.487 21.2346 53.523 20.2955V32.755H63.5578ZM43.319 21.3845C40.8555 24.069 38.7625 27.9311 37.2334 32.755H27.5273C31.3355 27.3602 36.8777 23.3197 43.319 21.3845ZM60.6976 21.4031C63.1536 24.0871 65.2405 27.9422 66.766 32.755H76.4209C72.6237 27.4069 67.1141 23.3547 60.6976 21.4031ZM53.523 79.7534V67.2939H63.5578C61.1683 74.2581 57.487 78.8142 53.523 79.7534ZM40.4418 67.2939C42.8315 74.2583 46.5126 78.8142 50.4766 79.7534V67.2939H40.4418ZM60.6976 78.6455C63.1536 75.9616 65.2405 72.1064 66.766 67.2937H76.4209C72.6237 72.6418 67.1141 76.6942 60.6976 78.6455ZM43.3192 78.6644C40.8557 75.9798 38.7625 72.1178 37.2336 67.2939H27.5275C31.3355 72.6886 36.8779 76.7291 43.3192 78.6644Z" fill="#007AFF"/>
<path d="M20.5635 51.8273L20.5897 52.0759L20.5899 52.0759L20.5635 51.8273ZM22.2377 53.1823L21.9891 53.2084L21.9891 53.2085L22.2377 53.1823ZM19.2077 53.5005L19.4563 53.4743L19.4563 53.4743L19.2077 53.5005ZM19.2077 46.5486L19.4563 46.5748L19.4563 46.5747L19.2077 46.5486ZM20.5635 48.2218L20.5902 47.9732L20.5897 47.9732L20.5635 48.2218ZM22.2377 46.8667L21.9891 46.8406L21.9891 46.8407L22.2377 46.8667ZM25.6419 35.8001V35.5501H25.4926L25.4218 35.6816L25.6419 35.8001ZM78.3197 35.8001L78.5394 35.6808L78.4684 35.5501H78.3197V35.8001ZM78.3197 64.2492V64.4992H78.4684L78.5394 64.3685L78.3197 64.2492ZM25.6419 64.2492L25.4218 64.3677L25.4926 64.4992H25.6419V64.2492ZM50.4766 32.755V33.005H50.7266V32.755H50.4766ZM50.4766 20.2955H50.7266V19.9794L50.4189 20.0522L50.4766 20.2955ZM40.4418 32.755L40.2053 32.6738L40.0917 33.005H40.4418V32.755ZM53.523 20.2955L53.5807 20.0522L53.273 19.9794V20.2955H53.523ZM63.5578 32.755V33.005H63.9079L63.7943 32.6738L63.5578 32.755ZM53.523 32.755H53.273V33.005H53.523V32.755ZM37.2334 32.755V33.005H37.4164L37.4717 32.8305L37.2334 32.755ZM43.319 21.3845L43.5032 21.5535L44.1182 20.8833L43.2471 21.145L43.319 21.3845ZM27.5273 32.755L27.323 32.6108L27.0448 33.005H27.5273V32.755ZM66.766 32.755L66.5277 32.8305L66.583 33.005H66.766V32.755ZM60.6976 21.4031L60.7704 21.1639L59.8968 20.8982L60.5132 21.5719L60.6976 21.4031ZM76.4209 32.755V33.005H76.905L76.6248 32.6102L76.4209 32.755ZM53.523 67.2939V67.0439H53.273V67.2939H53.523ZM53.523 79.7534H53.273V80.0695L53.5807 79.9966L53.523 79.7534ZM63.5578 67.2939L63.7943 67.375L63.9079 67.0439H63.5578V67.2939ZM50.4766 79.7534L50.4189 79.9966L50.7266 80.0695V79.7534H50.4766ZM40.4418 67.2939V67.0439H40.0917L40.2053 67.375L40.4418 67.2939ZM50.4766 67.2939H50.7266V67.0439H50.4766V67.2939ZM66.766 67.2937V67.0437H66.583L66.5277 67.2182L66.766 67.2937ZM60.6976 78.6455L60.5132 78.4768L59.8968 79.1504L60.7704 78.8847L60.6976 78.6455ZM76.4209 67.2937L76.6248 67.4384L76.905 67.0437H76.4209V67.2937ZM37.2336 67.2939L37.4719 67.2184L37.4166 67.0439H37.2336V67.2939ZM43.3192 78.6644L43.2473 78.9038L44.1184 79.1656L43.5034 78.4954L43.3192 78.6644ZM27.5275 67.2939V67.0439H27.045L27.3232 67.4381L27.5275 67.2939ZM20.5899 52.0759C21.2898 52.0017 21.9157 52.5093 21.9891 53.2084L22.4863 53.1563C22.3842 52.1826 21.5123 51.4754 20.5372 51.5786L20.5899 52.0759ZM19.4563 53.4743C19.3828 52.7754 19.8901 52.1494 20.5897 52.0759L20.5374 51.5786C19.5636 51.6809 18.8566 52.5527 18.9591 53.5266L19.4563 53.4743ZM51.9998 82.7288C35.5134 82.7288 21.1782 69.868 19.4563 53.4743L18.9591 53.5266C20.7078 70.1758 35.2586 83.2288 51.9998 83.2288V82.7288ZM84.7229 50.0245C84.7229 67.8271 69.8205 82.7288 51.9998 82.7288V83.2288C70.0965 83.2288 85.2229 68.1034 85.2229 50.0245H84.7229ZM51.9998 17.3203C69.843 17.3203 84.7229 32.2201 84.7229 50.0245H85.2229C85.2229 31.9439 70.1191 16.8203 51.9998 16.8203V17.3203ZM19.4563 46.5747C21.1786 30.1774 35.5165 17.3203 51.9998 17.3203V16.8203C35.2616 16.8203 20.7082 29.8696 18.9591 46.5225L19.4563 46.5747ZM20.5897 47.9732C19.8901 47.8997 19.3828 47.2736 19.4563 46.5748L18.9591 46.5225C18.8566 47.4964 19.5636 48.3681 20.5374 48.4705L20.5897 47.9732ZM21.9891 46.8407C21.9157 47.5402 21.2899 48.0483 20.5902 47.9732L20.5369 48.4704C21.513 48.5752 22.3842 47.8661 22.4863 46.8928L21.9891 46.8407ZM25.4218 35.6816C23.6081 39.0491 22.4118 42.8156 21.9891 46.8406L22.4863 46.8928C22.9021 42.9335 24.0787 39.2297 25.862 35.9187L25.4218 35.6816ZM78.3197 35.5501H25.6419V36.0501H78.3197V35.5501ZM78.5394 64.3685C83.3226 55.5635 83.3214 44.4838 78.5394 35.6808L78.1001 35.9194C82.8012 44.5736 82.8024 55.4737 78.1001 64.1298L78.5394 64.3685ZM25.6419 64.4992H78.3197V63.9992H25.6419V64.4992ZM21.9891 53.2085C22.4118 57.2335 23.6079 61 25.4218 64.3677L25.862 64.1306C24.0785 60.8194 22.9021 57.1156 22.4863 53.1562L21.9891 53.2085ZM50.7266 32.755V20.2955H50.2266V32.755H50.7266ZM40.4418 33.005H50.4766V32.505H40.4418V33.005ZM50.4189 20.0522C48.3655 20.5387 46.4102 21.9552 44.6741 24.1089C42.9369 26.264 41.4069 29.1719 40.2053 32.6738L40.6782 32.8361C41.8663 29.3737 43.3717 26.5214 45.0634 24.4227C46.7563 22.3225 48.6236 20.9914 50.5342 20.5388L50.4189 20.0522ZM53.4654 20.5388C55.376 20.9914 57.2432 22.3225 58.9361 24.4227C60.6278 26.5214 62.1333 29.3737 63.3214 32.8361L63.7943 32.6738C62.5926 29.1719 61.0626 26.264 59.3254 24.1089C57.5893 21.9552 55.6341 20.5387 53.5807 20.0522L53.4654 20.5388ZM53.773 32.755V20.2955H53.273V32.755H53.773ZM63.5578 32.505H53.523V33.005H63.5578V32.505ZM37.4717 32.8305C38.9934 28.0302 41.0712 24.2038 43.5032 21.5535L43.1348 21.2154C40.6399 23.9343 38.5317 27.832 36.9951 32.6794L37.4717 32.8305ZM27.5273 33.005H37.2334V32.505H27.5273V33.005ZM43.2471 21.145C36.7518 23.0965 31.1631 27.1709 27.323 32.6108L27.7315 32.8992C31.5078 27.5496 37.0037 23.5429 43.391 21.6239L43.2471 21.145ZM67.0043 32.6794C65.4714 27.8432 63.3693 23.9526 60.8821 21.2344L60.5132 21.5719C62.9379 24.2217 65.0097 28.0413 66.5277 32.8305L67.0043 32.6794ZM76.4209 32.505H66.766V33.005H76.4209V32.505ZM60.6249 21.6423C66.9873 23.5774 72.4512 27.5958 76.2171 32.8997L76.6248 32.6102C72.7962 27.218 67.2409 23.1319 60.7704 21.1639L60.6249 21.6423ZM53.273 67.2939V79.7534H53.773V67.2939H53.273ZM63.5578 67.0439H53.523V67.5439H63.5578V67.0439ZM53.5807 79.9966C55.6341 79.5101 57.5894 78.0937 59.3255 75.9399C61.0627 73.7848 62.5927 70.8769 63.7943 67.375L63.3214 67.2128C62.1334 70.6751 60.628 73.5274 58.9362 75.6261C57.2433 77.7263 55.376 79.0575 53.4654 79.5101L53.5807 79.9966ZM50.5342 79.5101C48.6236 79.0575 46.7564 77.7264 45.0635 75.6262C43.3718 73.5275 41.8664 70.6752 40.6782 67.2127L40.2053 67.375C41.407 70.877 42.937 73.7849 44.6742 75.94C46.4103 78.0937 48.3655 79.5101 50.4189 79.9966L50.5342 79.5101ZM50.2266 67.2939V79.7534H50.7266V67.2939H50.2266ZM40.4418 67.5439H50.4766V67.0439H40.4418V67.5439ZM66.5277 67.2182C65.0097 72.0073 62.9379 75.827 60.5132 78.4768L60.8821 78.8143C63.3693 76.0961 65.4714 72.2055 67.0043 67.3692L66.5277 67.2182ZM76.4209 67.0437H66.766V67.5437H76.4209V67.0437ZM60.7704 78.8847C67.2409 76.917 72.7962 72.8307 76.6248 67.4384L76.2171 67.149C72.4512 72.4529 66.9873 76.4715 60.6249 78.4064L60.7704 78.8847ZM36.9953 67.3694C38.5317 72.2169 40.6401 76.1146 43.135 78.8334L43.5034 78.4954C41.0714 75.8451 38.9934 72.0187 37.4719 67.2184L36.9953 67.3694ZM27.5275 67.5439H37.2336V67.0439H27.5275V67.5439ZM43.3912 78.425C37.0039 76.5059 31.5078 72.4993 27.7317 67.1497L27.3232 67.4381C31.1631 72.878 36.752 76.9523 43.2473 78.9038L43.3912 78.425Z" fill="white"/>
<path d="M20.5635 51.8273L20.5897 52.0759L20.5899 52.0759L20.5635 51.8273ZM22.2377 53.1823L21.9891 53.2084L21.9891 53.2085L22.2377 53.1823ZM19.2077 53.5005L19.4563 53.4743L19.4563 53.4743L19.2077 53.5005ZM19.2077 46.5486L19.4563 46.5748L19.4563 46.5747L19.2077 46.5486ZM20.5635 48.2218L20.5902 47.9732L20.5897 47.9732L20.5635 48.2218ZM22.2377 46.8667L21.9891 46.8406L21.9891 46.8407L22.2377 46.8667ZM25.6419 35.8001V35.5501H25.4926L25.4218 35.6816L25.6419 35.8001ZM78.3197 35.8001L78.5394 35.6808L78.4684 35.5501H78.3197V35.8001ZM78.3197 64.2492V64.4992H78.4684L78.5394 64.3685L78.3197 64.2492ZM25.6419 64.2492L25.4218 64.3677L25.4926 64.4992H25.6419V64.2492ZM50.4766 32.755V33.005H50.7266V32.755H50.4766ZM50.4766 20.2955H50.7266V19.9794L50.4189 20.0522L50.4766 20.2955ZM40.4418 32.755L40.2053 32.6738L40.0917 33.005H40.4418V32.755ZM53.523 20.2955L53.5807 20.0522L53.273 19.9794V20.2955H53.523ZM63.5578 32.755V33.005H63.9079L63.7943 32.6738L63.5578 32.755ZM53.523 32.755H53.273V33.005H53.523V32.755ZM37.2334 32.755V33.005H37.4164L37.4717 32.8305L37.2334 32.755ZM43.319 21.3845L43.5032 21.5535L44.1182 20.8833L43.2471 21.145L43.319 21.3845ZM27.5273 32.755L27.323 32.6108L27.0448 33.005H27.5273V32.755ZM66.766 32.755L66.5277 32.8305L66.583 33.005H66.766V32.755ZM60.6976 21.4031L60.7704 21.1639L59.8968 20.8982L60.5132 21.5719L60.6976 21.4031ZM76.4209 32.755V33.005H76.905L76.6248 32.6102L76.4209 32.755ZM53.523 67.2939V67.0439H53.273V67.2939H53.523ZM53.523 79.7534H53.273V80.0695L53.5807 79.9966L53.523 79.7534ZM63.5578 67.2939L63.7943 67.375L63.9079 67.0439H63.5578V67.2939ZM50.4766 79.7534L50.4189 79.9966L50.7266 80.0695V79.7534H50.4766ZM40.4418 67.2939V67.0439H40.0917L40.2053 67.375L40.4418 67.2939ZM50.4766 67.2939H50.7266V67.0439H50.4766V67.2939ZM66.766 67.2937V67.0437H66.583L66.5277 67.2182L66.766 67.2937ZM60.6976 78.6455L60.5132 78.4768L59.8968 79.1504L60.7704 78.8847L60.6976 78.6455ZM76.4209 67.2937L76.6248 67.4384L76.905 67.0437H76.4209V67.2937ZM37.2336 67.2939L37.4719 67.2184L37.4166 67.0439H37.2336V67.2939ZM43.3192 78.6644L43.2473 78.9038L44.1184 79.1656L43.5034 78.4954L43.3192 78.6644ZM27.5275 67.2939V67.0439H27.045L27.3232 67.4381L27.5275 67.2939ZM20.5899 52.0759C21.2898 52.0017 21.9157 52.5093 21.9891 53.2084L22.4863 53.1563C22.3842 52.1826 21.5123 51.4754 20.5372 51.5786L20.5899 52.0759ZM19.4563 53.4743C19.3828 52.7754 19.8901 52.1494 20.5897 52.0759L20.5374 51.5786C19.5636 51.6809 18.8566 52.5527 18.9591 53.5266L19.4563 53.4743ZM51.9998 82.7288C35.5134 82.7288 21.1782 69.868 19.4563 53.4743L18.9591 53.5266C20.7078 70.1758 35.2586 83.2288 51.9998 83.2288V82.7288ZM84.7229 50.0245C84.7229 67.8271 69.8205 82.7288 51.9998 82.7288V83.2288C70.0965 83.2288 85.2229 68.1034 85.2229 50.0245H84.7229ZM51.9998 17.3203C69.843 17.3203 84.7229 32.2201 84.7229 50.0245H85.2229C85.2229 31.9439 70.1191 16.8203 51.9998 16.8203V17.3203ZM19.4563 46.5747C21.1786 30.1774 35.5165 17.3203 51.9998 17.3203V16.8203C35.2616 16.8203 20.7082 29.8696 18.9591 46.5225L19.4563 46.5747ZM20.5897 47.9732C19.8901 47.8997 19.3828 47.2736 19.4563 46.5748L18.9591 46.5225C18.8566 47.4964 19.5636 48.3681 20.5374 48.4705L20.5897 47.9732ZM21.9891 46.8407C21.9157 47.5402 21.2899 48.0483 20.5902 47.9732L20.5369 48.4704C21.513 48.5752 22.3842 47.8661 22.4863 46.8928L21.9891 46.8407ZM25.4218 35.6816C23.6081 39.0491 22.4118 42.8156 21.9891 46.8406L22.4863 46.8928C22.9021 42.9335 24.0787 39.2297 25.862 35.9187L25.4218 35.6816ZM78.3197 35.5501H25.6419V36.0501H78.3197V35.5501ZM78.5394 64.3685C83.3226 55.5635 83.3214 44.4838 78.5394 35.6808L78.1001 35.9194C82.8012 44.5736 82.8024 55.4737 78.1001 64.1298L78.5394 64.3685ZM25.6419 64.4992H78.3197V63.9992H25.6419V64.4992ZM21.9891 53.2085C22.4118 57.2335 23.6079 61 25.4218 64.3677L25.862 64.1306C24.0785 60.8194 22.9021 57.1156 22.4863 53.1562L21.9891 53.2085ZM50.7266 32.755V20.2955H50.2266V32.755H50.7266ZM40.4418 33.005H50.4766V32.505H40.4418V33.005ZM50.4189 20.0522C48.3655 20.5387 46.4102 21.9552 44.6741 24.1089C42.9369 26.264 41.4069 29.1719 40.2053 32.6738L40.6782 32.8361C41.8663 29.3737 43.3717 26.5214 45.0634 24.4227C46.7563 22.3225 48.6236 20.9914 50.5342 20.5388L50.4189 20.0522ZM53.4654 20.5388C55.376 20.9914 57.2432 22.3225 58.9361 24.4227C60.6278 26.5214 62.1333 29.3737 63.3214 32.8361L63.7943 32.6738C62.5926 29.1719 61.0626 26.264 59.3254 24.1089C57.5893 21.9552 55.6341 20.5387 53.5807 20.0522L53.4654 20.5388ZM53.773 32.755V20.2955H53.273V32.755H53.773ZM63.5578 32.505H53.523V33.005H63.5578V32.505ZM37.4717 32.8305C38.9934 28.0302 41.0712 24.2038 43.5032 21.5535L43.1348 21.2154C40.6399 23.9343 38.5317 27.832 36.9951 32.6794L37.4717 32.8305ZM27.5273 33.005H37.2334V32.505H27.5273V33.005ZM43.2471 21.145C36.7518 23.0965 31.1631 27.1709 27.323 32.6108L27.7315 32.8992C31.5078 27.5496 37.0037 23.5429 43.391 21.6239L43.2471 21.145ZM67.0043 32.6794C65.4714 27.8432 63.3693 23.9526 60.8821 21.2344L60.5132 21.5719C62.9379 24.2217 65.0097 28.0413 66.5277 32.8305L67.0043 32.6794ZM76.4209 32.505H66.766V33.005H76.4209V32.505ZM60.6249 21.6423C66.9873 23.5774 72.4512 27.5958 76.2171 32.8997L76.6248 32.6102C72.7962 27.218 67.2409 23.1319 60.7704 21.1639L60.6249 21.6423ZM53.273 67.2939V79.7534H53.773V67.2939H53.273ZM63.5578 67.0439H53.523V67.5439H63.5578V67.0439ZM53.5807 79.9966C55.6341 79.5101 57.5894 78.0937 59.3255 75.9399C61.0627 73.7848 62.5927 70.8769 63.7943 67.375L63.3214 67.2128C62.1334 70.6751 60.628 73.5274 58.9362 75.6261C57.2433 77.7263 55.376 79.0575 53.4654 79.5101L53.5807 79.9966ZM50.5342 79.5101C48.6236 79.0575 46.7564 77.7264 45.0635 75.6262C43.3718 73.5275 41.8664 70.6752 40.6782 67.2127L40.2053 67.375C41.407 70.877 42.937 73.7849 44.6742 75.94C46.4103 78.0937 48.3655 79.5101 50.4189 79.9966L50.5342 79.5101ZM50.2266 67.2939V79.7534H50.7266V67.2939H50.2266ZM40.4418 67.5439H50.4766V67.0439H40.4418V67.5439ZM66.5277 67.2182C65.0097 72.0073 62.9379 75.827 60.5132 78.4768L60.8821 78.8143C63.3693 76.0961 65.4714 72.2055 67.0043 67.3692L66.5277 67.2182ZM76.4209 67.0437H66.766V67.5437H76.4209V67.0437ZM60.7704 78.8847C67.2409 76.917 72.7962 72.8307 76.6248 67.4384L76.2171 67.149C72.4512 72.4529 66.9873 76.4715 60.6249 78.4064L60.7704 78.8847ZM36.9953 67.3694C38.5317 72.2169 40.6401 76.1146 43.135 78.8334L43.5034 78.4954C41.0714 75.8451 38.9934 72.0187 37.4719 67.2184L36.9953 67.3694ZM27.5275 67.5439H37.2336V67.0439H27.5275V67.5439ZM43.3912 78.425C37.0039 76.5059 31.5078 72.4993 27.7317 67.1497L27.3232 67.4381C31.1631 72.878 36.752 76.9523 43.2473 78.9038L43.3912 78.425Z" fill="#007AFF" fill-opacity="0.04"/>
<path d="M102.537 46.0853L96.7385 37.8484C96.1305 36.9838 95.8181 35.9712 95.8352 34.9182L95.9875 24.8457C96.0404 21.3661 93.862 18.2733 90.568 17.15L81.0316 13.8915C80.0337 13.5509 79.1854 12.9146 78.5779 12.0506L72.7793 3.81537C70.7769 0.970403 67.1962 -0.253943 63.868 0.77044L55.4491 3.36449C54.6451 3.61236 54.1943 4.46439 54.4422 5.2679C54.69 6.0712 55.5427 6.52127 56.3467 6.27421L64.7652 3.68037C66.8277 3.04597 69.0467 3.8042 70.2878 5.56774L76.0862 13.8028C77.066 15.1958 78.4357 16.2231 80.0467 16.7732L89.5836 20.0319C91.6248 20.7278 92.9744 22.6438 92.9417 24.7998L92.7893 34.8707C92.7617 36.5696 93.2655 38.2047 94.2468 39.5999L100.045 47.837C101.286 49.6006 101.251 51.9441 99.9568 53.6685L93.911 61.7263C92.8889 63.086 92.3352 64.705 92.31 66.4075L92.1556 76.4804C92.1229 78.6361 90.7167 80.5105 88.6559 81.1445L79.024 84.1123C77.3941 84.6149 75.9941 85.6003 74.9763 86.9597L68.9301 95.0159C67.6341 96.7415 65.392 97.4323 63.3514 96.7346L53.8153 93.4765C52.2066 92.9271 50.4956 92.9007 48.8664 93.4011L39.2354 96.3687C37.1731 97.0037 34.9539 96.2451 33.7128 94.4814L27.9144 86.2463C26.9346 84.8533 25.5649 83.826 23.9539 83.2759L14.417 80.0172C12.3758 79.3213 11.0262 77.4053 11.0589 75.2493L11.2112 65.1785C11.2389 63.4795 10.7351 61.8444 9.75382 60.4492L3.95521 52.2121C2.71452 50.4485 2.75007 48.105 4.04377 46.3806L10.0892 38.323C11.1113 36.9633 11.665 35.3443 11.6902 33.6418L11.8446 23.5689C11.8773 21.4132 13.2835 19.5388 15.3442 18.9048L24.9762 15.937C26.6061 15.4344 28.006 14.449 29.0239 13.0896L35.0701 5.03342C36.3661 3.30805 38.6079 2.61701 40.6489 3.31475L48.7673 6.08765C49.5633 6.36009 50.4294 5.93478 50.7014 5.13939C50.9734 4.3436 50.5487 3.47817 49.7524 3.20634L41.6345 0.433445C38.3414 -0.691427 34.7242 0.422076 32.6332 3.20573L26.5856 11.264C25.9553 12.106 25.0881 12.7159 24.0784 13.0273L14.4474 15.9949C11.1215 17.0183 8.85134 20.0433 8.79832 23.5223L8.64395 33.5958C8.62831 34.6506 8.28563 35.6526 7.65249 36.4947L1.60607 44.554C-0.481448 47.3366 -0.539136 51.1181 1.46307 53.9636L7.26148 62.2005C7.86943 63.0651 8.18184 64.0777 8.16478 65.1307L8.01243 75.2032C7.95962 78.6828 10.1379 81.7756 13.432 82.8989L22.9683 86.1574C23.9663 86.498 24.8145 87.1343 25.4221 87.9983L31.2207 96.2335C33.2231 99.0791 36.8036 100.304 40.132 99.2789L49.7622 96.3115C50.7717 96.0013 51.8324 96.0173 52.8293 96.3578L62.3655 99.6155C65.4723 100.677 69.3914 99.4731 71.3668 96.8432L77.4144 88.7849C78.0447 87.9428 78.9118 87.333 79.9216 87.0216L89.5525 84.054C92.8785 83.0306 95.1486 80.0056 95.2017 76.5266L95.356 66.4531C95.3717 65.3983 95.7143 64.3963 96.3475 63.5542L102.394 55.4951C104.481 52.7125 104.539 48.931 102.537 46.0853Z" fill="#007AFF"/>
<path d="M102.537 46.0853L96.7385 37.8484C96.1305 36.9838 95.8181 35.9712 95.8352 34.9182L95.9875 24.8457C96.0404 21.3661 93.862 18.2733 90.568 17.15L81.0316 13.8915C80.0337 13.5509 79.1854 12.9146 78.5779 12.0506L72.7793 3.81537C70.7769 0.970403 67.1962 -0.253943 63.868 0.77044L55.4491 3.36449C54.6451 3.61236 54.1943 4.46439 54.4422 5.2679C54.69 6.0712 55.5427 6.52127 56.3467 6.27421L64.7652 3.68037C66.8277 3.04597 69.0467 3.8042 70.2878 5.56774L76.0862 13.8028C77.066 15.1958 78.4357 16.2231 80.0467 16.7732L89.5836 20.0319C91.6248 20.7278 92.9744 22.6438 92.9417 24.7998L92.7893 34.8707C92.7617 36.5696 93.2655 38.2047 94.2468 39.5999L100.045 47.837C101.286 49.6006 101.251 51.9441 99.9568 53.6685L93.911 61.7263C92.8889 63.086 92.3352 64.705 92.31 66.4075L92.1556 76.4804C92.1229 78.6361 90.7167 80.5105 88.6559 81.1445L79.024 84.1123C77.3941 84.6149 75.9941 85.6003 74.9763 86.9597L68.9301 95.0159C67.6341 96.7415 65.392 97.4323 63.3514 96.7346L53.8153 93.4765C52.2066 92.9271 50.4956 92.9007 48.8664 93.4011L39.2354 96.3687C37.1731 97.0037 34.9539 96.2451 33.7128 94.4814L27.9144 86.2463C26.9346 84.8533 25.5649 83.826 23.9539 83.2759L14.417 80.0172C12.3758 79.3213 11.0262 77.4053 11.0589 75.2493L11.2112 65.1785C11.2389 63.4795 10.7351 61.8444 9.75382 60.4492L3.95521 52.2121C2.71452 50.4485 2.75007 48.105 4.04377 46.3806L10.0892 38.323C11.1113 36.9633 11.665 35.3443 11.6902 33.6418L11.8446 23.5689C11.8773 21.4132 13.2835 19.5388 15.3442 18.9048L24.9762 15.937C26.6061 15.4344 28.006 14.449 29.0239 13.0896L35.0701 5.03342C36.3661 3.30805 38.6079 2.61701 40.6489 3.31475L48.7673 6.08765C49.5633 6.36009 50.4294 5.93478 50.7014 5.13939C50.9734 4.3436 50.5487 3.47817 49.7524 3.20634L41.6345 0.433445C38.3414 -0.691427 34.7242 0.422076 32.6332 3.20573L26.5856 11.264C25.9553 12.106 25.0881 12.7159 24.0784 13.0273L14.4474 15.9949C11.1215 17.0183 8.85134 20.0433 8.79832 23.5223L8.64395 33.5958C8.62831 34.6506 8.28563 35.6526 7.65249 36.4947L1.60607 44.554C-0.481448 47.3366 -0.539136 51.1181 1.46307 53.9636L7.26148 62.2005C7.86943 63.0651 8.18184 64.0777 8.16478 65.1307L8.01243 75.2032C7.95962 78.6828 10.1379 81.7756 13.432 82.8989L22.9683 86.1574C23.9663 86.498 24.8145 87.1343 25.4221 87.9983L31.2207 96.2335C33.2231 99.0791 36.8036 100.304 40.132 99.2789L49.7622 96.3115C50.7717 96.0013 51.8324 96.0173 52.8293 96.3578L62.3655 99.6155C65.4723 100.677 69.3914 99.4731 71.3668 96.8432L77.4144 88.7849C78.0447 87.9428 78.9118 87.333 79.9216 87.0216L89.5525 84.054C92.8785 83.0306 95.1486 80.0056 95.2017 76.5266L95.356 66.4531C95.3717 65.3983 95.7143 64.3963 96.3475 63.5542L102.394 55.4951C104.481 52.7125 104.539 48.931 102.537 46.0853Z" stroke="white" stroke-width="0.5"/>
<path d="M102.537 46.0853L96.7385 37.8484C96.1305 36.9838 95.8181 35.9712 95.8352 34.9182L95.9875 24.8457C96.0404 21.3661 93.862 18.2733 90.568 17.15L81.0316 13.8915C80.0337 13.5509 79.1854 12.9146 78.5779 12.0506L72.7793 3.81537C70.7769 0.970403 67.1962 -0.253943 63.868 0.77044L55.4491 3.36449C54.6451 3.61236 54.1943 4.46439 54.4422 5.2679C54.69 6.0712 55.5427 6.52127 56.3467 6.27421L64.7652 3.68037C66.8277 3.04597 69.0467 3.8042 70.2878 5.56774L76.0862 13.8028C77.066 15.1958 78.4357 16.2231 80.0467 16.7732L89.5836 20.0319C91.6248 20.7278 92.9744 22.6438 92.9417 24.7998L92.7893 34.8707C92.7617 36.5696 93.2655 38.2047 94.2468 39.5999L100.045 47.837C101.286 49.6006 101.251 51.9441 99.9568 53.6685L93.911 61.7263C92.8889 63.086 92.3352 64.705 92.31 66.4075L92.1556 76.4804C92.1229 78.6361 90.7167 80.5105 88.6559 81.1445L79.024 84.1123C77.3941 84.6149 75.9941 85.6003 74.9763 86.9597L68.9301 95.0159C67.6341 96.7415 65.392 97.4323 63.3514 96.7346L53.8153 93.4765C52.2066 92.9271 50.4956 92.9007 48.8664 93.4011L39.2354 96.3687C37.1731 97.0037 34.9539 96.2451 33.7128 94.4814L27.9144 86.2463C26.9346 84.8533 25.5649 83.826 23.9539 83.2759L14.417 80.0172C12.3758 79.3213 11.0262 77.4053 11.0589 75.2493L11.2112 65.1785C11.2389 63.4795 10.7351 61.8444 9.75382 60.4492L3.95521 52.2121C2.71452 50.4485 2.75007 48.105 4.04377 46.3806L10.0892 38.323C11.1113 36.9633 11.665 35.3443 11.6902 33.6418L11.8446 23.5689C11.8773 21.4132 13.2835 19.5388 15.3442 18.9048L24.9762 15.937C26.6061 15.4344 28.006 14.449 29.0239 13.0896L35.0701 5.03342C36.3661 3.30805 38.6079 2.61701 40.6489 3.31475L48.7673 6.08765C49.5633 6.36009 50.4294 5.93478 50.7014 5.13939C50.9734 4.3436 50.5487 3.47817 49.7524 3.20634L41.6345 0.433445C38.3414 -0.691427 34.7242 0.422076 32.6332 3.20573L26.5856 11.264C25.9553 12.106 25.0881 12.7159 24.0784 13.0273L14.4474 15.9949C11.1215 17.0183 8.85134 20.0433 8.79832 23.5223L8.64395 33.5958C8.62831 34.6506 8.28563 35.6526 7.65249 36.4947L1.60607 44.554C-0.481448 47.3366 -0.539136 51.1181 1.46307 53.9636L7.26148 62.2005C7.86943 63.0651 8.18184 64.0777 8.16478 65.1307L8.01243 75.2032C7.95962 78.6828 10.1379 81.7756 13.432 82.8989L22.9683 86.1574C23.9663 86.498 24.8145 87.1343 25.4221 87.9983L31.2207 96.2335C33.2231 99.0791 36.8036 100.304 40.132 99.2789L49.7622 96.3115C50.7717 96.0013 51.8324 96.0173 52.8293 96.3578L62.3655 99.6155C65.4723 100.677 69.3914 99.4731 71.3668 96.8432L77.4144 88.7849C78.0447 87.9428 78.9118 87.333 79.9216 87.0216L89.5525 84.054C92.8785 83.0306 95.1486 80.0056 95.2017 76.5266L95.356 66.4531C95.3717 65.3983 95.7143 64.3963 96.3475 63.5542L102.394 55.4951C104.481 52.7125 104.539 48.931 102.537 46.0853Z" stroke="#007AFF" stroke-opacity="0.04" stroke-width="0.5"/>
<path d="M89.794 48.2245C90.6321 48.1514 91.2522 47.4129 91.1789 46.5755C90.327 36.8296 85.87 27.7896 78.6288 21.1208C71.3441 14.4116 61.8864 10.7168 51.9985 10.7168C30.3116 10.7168 12.668 28.3501 12.668 50.0246C12.668 71.699 30.3116 89.3326 51.9985 89.3326C72.0829 89.3326 89.4294 73.4922 91.1791 53.4741C91.2522 52.6365 90.6323 51.8982 89.7942 51.8251C88.9549 51.7514 88.2173 52.3718 88.144 53.2094C86.5226 71.7577 70.6458 86.2877 51.9985 86.2877C31.9915 86.2877 15.7146 70.0201 15.7146 50.0248C15.7146 30.0294 31.9915 13.7617 51.9985 13.7617C70.6458 13.7617 86.5226 28.2915 88.1438 46.8402C88.2171 47.678 88.9549 48.299 89.794 48.2245Z" fill="#007AFF"/>
<path d="M89.794 48.2245C90.6321 48.1514 91.2522 47.4129 91.1789 46.5755C90.327 36.8296 85.87 27.7896 78.6288 21.1208C71.3441 14.4116 61.8864 10.7168 51.9985 10.7168C30.3116 10.7168 12.668 28.3501 12.668 50.0246C12.668 71.699 30.3116 89.3326 51.9985 89.3326C72.0829 89.3326 89.4294 73.4922 91.1791 53.4741C91.2522 52.6365 90.6323 51.8982 89.7942 51.8251C88.9549 51.7514 88.2173 52.3718 88.144 53.2094C86.5226 71.7577 70.6458 86.2877 51.9985 86.2877C31.9915 86.2877 15.7146 70.0201 15.7146 50.0248C15.7146 30.0294 31.9915 13.7617 51.9985 13.7617C70.6458 13.7617 86.5226 28.2915 88.1438 46.8402C88.2171 47.678 88.9549 48.299 89.794 48.2245Z" stroke="white" stroke-width="0.5"/>
<path d="M89.794 48.2245C90.6321 48.1514 91.2522 47.4129 91.1789 46.5755C90.327 36.8296 85.87 27.7896 78.6288 21.1208C71.3441 14.4116 61.8864 10.7168 51.9985 10.7168C30.3116 10.7168 12.668 28.3501 12.668 50.0246C12.668 71.699 30.3116 89.3326 51.9985 89.3326C72.0829 89.3326 89.4294 73.4922 91.1791 53.4741C91.2522 52.6365 90.6323 51.8982 89.7942 51.8251C88.9549 51.7514 88.2173 52.3718 88.144 53.2094C86.5226 71.7577 70.6458 86.2877 51.9985 86.2877C31.9915 86.2877 15.7146 70.0201 15.7146 50.0248C15.7146 30.0294 31.9915 13.7617 51.9985 13.7617C70.6458 13.7617 86.5226 28.2915 88.1438 46.8402C88.2171 47.678 88.9549 48.299 89.794 48.2245Z" stroke="#007AFF" stroke-opacity="0.04" stroke-width="0.5"/>
<path d="M33.9371 57.9073V42.1435C33.9371 41.3026 33.255 40.6211 32.4139 40.6211C31.5725 40.6211 30.8906 41.3026 30.8906 42.1435V57.9073C30.8906 58.7482 31.5727 59.4297 32.4139 59.4297C33.255 59.4297 33.9371 58.7482 33.9371 57.9073Z" fill="#007AFF"/>
<path d="M33.9371 57.9073V42.1435C33.9371 41.3026 33.255 40.6211 32.4139 40.6211C31.5725 40.6211 30.8906 41.3026 30.8906 42.1435V57.9073C30.8906 58.7482 31.5727 59.4297 32.4139 59.4297C33.255 59.4297 33.9371 58.7482 33.9371 57.9073Z" stroke="white" stroke-width="0.5"/>
<path d="M33.9371 57.9073V42.1435C33.9371 41.3026 33.255 40.6211 32.4139 40.6211C31.5725 40.6211 30.8906 41.3026 30.8906 42.1435V57.9073C30.8906 58.7482 31.5727 59.4297 32.4139 59.4297C33.255 59.4297 33.9371 58.7482 33.9371 57.9073Z" stroke="#007AFF" stroke-opacity="0.04" stroke-width="0.5"/>
<path d="M44.7385 56.3839C43.0465 56.3839 41.4137 55.6971 40.3709 54.5473C39.806 53.9242 38.8426 53.8769 38.2192 54.4415C37.5958 55.0061 37.5483 55.969 38.1134 56.592C39.724 58.3683 42.2009 59.429 44.7385 59.429C47.7949 59.429 50.4585 57.4209 50.9342 54.7578C51.295 52.7383 50.3551 50.0918 46.6353 48.7207C44.625 47.9795 42.7588 47.1708 42.2661 46.9545C41.8048 46.6109 41.5813 46.0658 41.6658 45.4764C41.7745 44.72 42.3611 44.1112 43.2348 43.8481C45.696 43.1071 47.9314 44.8873 47.9887 44.9334C48.6326 45.4689 49.5895 45.3845 50.1292 44.743C50.6706 44.0992 50.5873 43.1388 49.9434 42.5978C49.8022 42.479 46.4364 39.7033 42.356 40.9325C40.3475 41.5373 38.9275 43.1126 38.6502 45.0438C38.3917 46.8449 39.1723 48.5772 40.6878 49.5646C40.755 49.6085 40.8257 49.6469 40.899 49.6795C40.9898 49.7199 43.1486 50.6802 45.5811 51.5771C47.2666 52.1985 48.1246 53.1626 47.9353 54.2223C47.7454 55.285 46.4978 56.3839 44.7385 56.3839Z" fill="#007AFF"/>
<path d="M44.7385 56.3839C43.0465 56.3839 41.4137 55.6971 40.3709 54.5473C39.806 53.9242 38.8426 53.8769 38.2192 54.4415C37.5958 55.0061 37.5483 55.969 38.1134 56.592C39.724 58.3683 42.2009 59.429 44.7385 59.429C47.7949 59.429 50.4585 57.4209 50.9342 54.7578C51.295 52.7383 50.3551 50.0918 46.6353 48.7207C44.625 47.9795 42.7588 47.1708 42.2661 46.9545C41.8048 46.6109 41.5813 46.0658 41.6658 45.4764C41.7745 44.72 42.3611 44.1112 43.2348 43.8481C45.696 43.1071 47.9314 44.8873 47.9887 44.9334C48.6326 45.4689 49.5895 45.3845 50.1292 44.743C50.6706 44.0992 50.5873 43.1388 49.9434 42.5978C49.8022 42.479 46.4364 39.7033 42.356 40.9325C40.3475 41.5373 38.9275 43.1126 38.6502 45.0438C38.3917 46.8449 39.1723 48.5772 40.6878 49.5646C40.755 49.6085 40.8257 49.6469 40.899 49.6795C40.9898 49.7199 43.1486 50.6802 45.5811 51.5771C47.2666 52.1985 48.1246 53.1626 47.9353 54.2223C47.7454 55.285 46.4978 56.3839 44.7385 56.3839Z" stroke="white" stroke-width="0.5"/>
<path d="M44.7385 56.3839C43.0465 56.3839 41.4137 55.6971 40.3709 54.5473C39.806 53.9242 38.8426 53.8769 38.2192 54.4415C37.5958 55.0061 37.5483 55.969 38.1134 56.592C39.724 58.3683 42.2009 59.429 44.7385 59.429C47.7949 59.429 50.4585 57.4209 50.9342 54.7578C51.295 52.7383 50.3551 50.0918 46.6353 48.7207C44.625 47.9795 42.7588 47.1708 42.2661 46.9545C41.8048 46.6109 41.5813 46.0658 41.6658 45.4764C41.7745 44.72 42.3611 44.1112 43.2348 43.8481C45.696 43.1071 47.9314 44.8873 47.9887 44.9334C48.6326 45.4689 49.5895 45.3845 50.1292 44.743C50.6706 44.0992 50.5873 43.1388 49.9434 42.5978C49.8022 42.479 46.4364 39.7033 42.356 40.9325C40.3475 41.5373 38.9275 43.1126 38.6502 45.0438C38.3917 46.8449 39.1723 48.5772 40.6878 49.5646C40.755 49.6085 40.8257 49.6469 40.899 49.6795C40.9898 49.7199 43.1486 50.6802 45.5811 51.5771C47.2666 52.1985 48.1246 53.1626 47.9353 54.2223C47.7454 55.285 46.4978 56.3839 44.7385 56.3839Z" stroke="#007AFF" stroke-opacity="0.04" stroke-width="0.5"/>
<path fill-rule="evenodd" clip-rule="evenodd" d="M63.7025 40.6191C68.891 40.6191 73.1121 44.8379 73.1121 50.0235C73.1121 55.2092 68.891 59.4279 63.7025 59.4279C58.5141 59.4279 54.293 55.2092 54.293 50.0235C54.293 44.8379 58.5141 40.6191 63.7025 40.6191ZM63.7023 43.6641C60.194 43.6641 57.3394 46.517 57.3394 50.0235C57.3394 53.5303 60.1938 56.383 63.7023 56.383C67.2109 56.383 70.0654 53.5301 70.0654 50.0235C70.0654 46.517 67.2107 43.6641 63.7023 43.6641Z" fill="#007AFF"/>
<path d="M73.3621 50.0235C73.3621 44.6997 69.0289 40.3691 63.7025 40.3691V40.8691C68.753 40.8691 72.8621 44.9761 72.8621 50.0235H73.3621ZM63.7025 59.6779C69.0289 59.6779 73.3621 55.3474 73.3621 50.0235H72.8621C72.8621 55.071 68.753 59.1779 63.7025 59.1779V59.6779ZM54.043 50.0235C54.043 55.3474 58.3762 59.6779 63.7025 59.6779V59.1779C58.6521 59.1779 54.543 55.071 54.543 50.0235H54.043ZM63.7025 40.3691C58.3762 40.3691 54.043 44.6997 54.043 50.0235H54.543C54.543 44.9761 58.6521 40.8691 63.7025 40.8691V40.3691ZM57.5894 50.0235C57.5894 46.6552 60.3319 43.9141 63.7023 43.9141V43.4141C60.056 43.4141 57.0894 46.3788 57.0894 50.0235H57.5894ZM63.7023 56.133C60.3317 56.133 57.5894 53.3921 57.5894 50.0235H57.0894C57.0894 53.6685 60.0558 56.633 63.7023 56.633V56.133ZM69.8154 50.0235C69.8154 53.3919 67.073 56.133 63.7023 56.133V56.633C67.3489 56.633 70.3154 53.6683 70.3154 50.0235H69.8154ZM63.7023 43.9141C67.0728 43.9141 69.8154 46.6552 69.8154 50.0235H70.3154C70.3154 46.3787 67.3486 43.4141 63.7023 43.4141V43.9141Z" fill="white"/>
<path d="M73.3621 50.0235C73.3621 44.6997 69.0289 40.3691 63.7025 40.3691V40.8691C68.753 40.8691 72.8621 44.9761 72.8621 50.0235H73.3621ZM63.7025 59.6779C69.0289 59.6779 73.3621 55.3474 73.3621 50.0235H72.8621C72.8621 55.071 68.753 59.1779 63.7025 59.1779V59.6779ZM54.043 50.0235C54.043 55.3474 58.3762 59.6779 63.7025 59.6779V59.1779C58.6521 59.1779 54.543 55.071 54.543 50.0235H54.043ZM63.7025 40.3691C58.3762 40.3691 54.043 44.6997 54.043 50.0235H54.543C54.543 44.9761 58.6521 40.8691 63.7025 40.8691V40.3691ZM57.5894 50.0235C57.5894 46.6552 60.3319 43.9141 63.7023 43.9141V43.4141C60.056 43.4141 57.0894 46.3788 57.0894 50.0235H57.5894ZM63.7023 56.133C60.3317 56.133 57.5894 53.3921 57.5894 50.0235H57.0894C57.0894 53.6685 60.0558 56.633 63.7023 56.633V56.133ZM69.8154 50.0235C69.8154 53.3919 67.073 56.133 63.7023 56.133V56.633C67.3489 56.633 70.3154 53.6683 70.3154 50.0235H69.8154ZM63.7023 43.9141C67.0728 43.9141 69.8154 46.6552 69.8154 50.0235H70.3154C70.3154 46.3787 67.3486 43.4141 63.7023 43.4141V43.9141Z" fill="#007AFF" fill-opacity="0.04"/>
</svg>
