<svg width="112" height="112" viewBox="0 0 112 112" fill="none" xmlns="http://www.w3.org/2000/svg">
<path fill-rule="evenodd" clip-rule="evenodd" d="M107.333 89V24.8333C107.327 19.7733 103.227 15.6728 98.1667 15.6665H79.8334V12C79.8334 4.77846 63.2326 1 46.8334 1C30.4341 1 13.8333 4.77846 13.8333 12V15.6667C8.77328 15.6728 4.67276 19.7733 4.66653 24.8335V89C2.64162 89 1 90.6416 1 92.6667V98.1667C1.00816 105.251 6.74902 110.992 13.8333 111H98.1667C105.251 110.992 110.992 105.251 111 98.1667V92.6667C111 90.6416 109.359 89 107.333 89ZM17.5 37.5071C22.6681 40.8565 32.592 42.6735 42.5433 43.0694C40.0084 48.1157 39.024 53.7996 39.7145 59.4044C25.3945 58.4127 17.5 54.691 17.5 52.3333V37.5071ZM17.5002 57.7071L17.5 57.7069H17.5002V57.7071ZM17.5002 57.7071C22.4888 60.9189 31.7836 62.6019 40.4168 63.1225C42.0986 69.7966 46.0711 75.6683 51.6405 79.7123C50.0382 79.7838 48.4359 79.8333 46.8336 79.8333C27.5835 79.8333 17.5002 75.0665 17.5002 72.5V57.7071ZM43.1668 56C43.1668 41.8246 54.6582 30.3333 68.8336 30.3333C83.009 30.3333 94.5002 41.8246 94.5002 56C94.5002 70.1754 83.0088 81.6667 68.8334 81.6667C54.6644 81.6515 43.1819 70.1689 43.1668 56ZM44.6333 39.4562C50.0947 31.4599 59.1502 26.6743 68.8334 26.6667C71.309 26.6762 73.7733 27.0008 76.1667 27.6327V17.3019C70.3863 21.0531 58.5666 23 46.8334 23C35.1001 23 23.2806 21.0529 17.5 17.3019V32.1667C17.5 34.9662 28.0435 39.1169 44.6333 39.4562ZM46.8334 4.66674C66.0926 4.66674 76.1667 9.43348 76.1667 12C76.1667 14.5665 66.0924 19.3333 46.8334 19.3333C27.5743 19.3333 17.5 14.5667 17.5 12C17.5 9.43326 27.5833 4.66674 46.8334 4.66674ZM13.8333 19.3333C10.7958 19.3333 8.33328 21.7958 8.33328 24.8333V89H103.667V24.8333C103.667 21.7958 101.204 19.3333 98.1667 19.3333H79.8334V28.8263C89.6168 32.7717 96.527 41.6684 97.9289 52.1238C99.3307 62.5792 95.0085 72.9819 86.61 79.3653C78.2116 85.7488 67.0315 87.1289 57.3328 82.9794C53.8807 83.3167 50.3534 83.5 46.8334 83.5C30.4341 83.5 13.8333 79.7215 13.8333 72.5V19.3333ZM39.5001 92.6667H72.5001V94.5C72.5001 96.5251 70.8585 98.1667 68.8334 98.1667H43.1668C41.1417 98.1667 39.5001 96.5251 39.5001 94.5V92.6667ZM98.1667 107.333C103.227 107.327 107.327 103.227 107.333 98.1667V92.6667H76.1667V94.5C76.1667 98.55 72.8834 101.833 68.8334 101.833H43.1666C39.1166 101.833 35.8333 98.55 35.8333 94.5V92.6667H4.66653V98.1667C4.67276 103.227 8.77328 107.327 13.8333 107.333H98.1667Z" fill="white"/>
<path d="M107.333 24.8333H107.833V24.8327L107.333 24.8333ZM107.333 89H106.833V89.5H107.333V89ZM98.1667 15.6665L98.1673 15.1665H98.1667V15.6665ZM79.8334 15.6665H79.3334V16.1665H79.8334V15.6665ZM13.8333 15.6667L13.8339 16.1667L14.3333 16.1661V15.6667H13.8333ZM4.66653 24.8335L4.16653 24.8329V24.8335H4.66653ZM4.66653 89V89.5H5.16653V89H4.66653ZM1 98.1667H0.5L0.5 98.1673L1 98.1667ZM13.8333 111L13.8327 111.5H13.8333V111ZM98.1667 111V111.5H98.1673L98.1667 111ZM111 98.1667L111.5 98.1673V98.1667H111ZM111 92.6667L110.5 92.6667V92.6667H111ZM42.5433 43.0694L42.9901 43.2939L43.3384 42.6007L42.5632 42.5698L42.5433 43.0694ZM17.5 37.5071L17.772 37.0875L17 36.5872V37.5071H17.5ZM39.7145 59.4044L39.6799 59.9032L40.2849 59.9451L40.2107 59.3433L39.7145 59.4044ZM17.5 57.7069V57.2069H15.7848L17.2314 58.1286L17.5 57.7069ZM17.5002 57.7069H18.0002V57.2069H17.5002V57.7069ZM40.4168 63.1225L40.9017 63.0003L40.8122 62.6454L40.4469 62.6234L40.4168 63.1225ZM51.6405 79.7123L51.6628 80.2118L53.0915 80.148L51.9343 79.3077L51.6405 79.7123ZM43.1668 56H42.6668V56.0005L43.1668 56ZM68.8334 81.6667L68.8329 82.1667H68.8334V81.6667ZM68.8334 26.6667L68.8353 26.1667L68.833 26.1667L68.8334 26.6667ZM44.6333 39.4562L44.6231 39.9561L44.8936 39.9616L45.0462 39.7382L44.6333 39.4562ZM76.1667 27.6327L76.039 28.1161L76.6667 28.2818V27.6327H76.1667ZM76.1667 17.3019H76.6667V16.3814L75.8945 16.8825L76.1667 17.3019ZM17.5 17.3019L17.7722 16.8825L17 16.3814V17.3019H17.5ZM13.8333 19.3333H14.3333V18.8333H13.8333V19.3333ZM8.33328 89H7.83328V89.5H8.33328V89ZM103.667 89V89.5H104.167V89H103.667ZM79.8334 19.3333V18.8333H79.3334V19.3333H79.8334ZM79.8334 28.8263H79.3334V29.1638L79.6464 29.2901L79.8334 28.8263ZM97.9289 52.1238L97.4333 52.1902L97.9289 52.1238ZM57.3328 82.9794L57.5295 82.5197L57.4117 82.4693L57.2842 82.4818L57.3328 82.9794ZM72.5001 92.6667H73.0001V92.1667H72.5001V92.6667ZM39.5001 92.6667V92.1667H39.0001V92.6667H39.5001ZM107.333 98.1667L107.833 98.1673V98.1667H107.333ZM98.1667 107.333V107.833H98.1673L98.1667 107.333ZM107.333 92.6667H107.833V92.1667H107.333V92.6667ZM76.1667 92.6667V92.1667H75.6667V92.6667H76.1667ZM35.8333 92.6667H36.3333V92.1667H35.8333V92.6667ZM4.66653 92.6667V92.1667H4.16653V92.6667H4.66653ZM4.66653 98.1667H4.16653L4.16653 98.1674L4.66653 98.1667ZM13.8333 107.333L13.8327 107.833H13.8333V107.333ZM106.833 24.8333V89H107.833V24.8333H106.833ZM98.1661 16.1665C102.951 16.1724 106.828 20.0495 106.833 24.8339L107.833 24.8327C107.827 19.497 103.503 15.1731 98.1673 15.1665L98.1661 16.1665ZM79.8334 16.1665H98.1667V15.1665H79.8334V16.1665ZM79.3334 12V15.6665H80.3334V12H79.3334ZM46.8334 1.5C55.0025 1.5 63.201 2.44191 69.3403 4.2711C72.4129 5.18657 74.9367 6.31473 76.6818 7.63357C78.4256 8.95133 79.3334 10.4105 79.3334 12H80.3334C80.3334 9.97874 79.1661 8.25751 77.2848 6.83576C75.4048 5.41507 72.7534 4.24458 69.6259 3.31274C63.365 1.44732 55.0635 0.5 46.8334 0.5V1.5ZM14.3333 12C14.3333 10.4105 15.2411 8.95133 16.9849 7.63357C18.73 6.31473 21.2538 5.18657 24.3264 4.2711C30.4657 2.44191 38.6642 1.5 46.8334 1.5V0.5C38.6032 0.5 30.3017 1.44732 24.0408 3.31274C20.9133 4.24458 18.2619 5.41507 16.3819 6.83576C14.5006 8.25751 13.3333 9.97874 13.3333 12H14.3333ZM14.3333 15.6667V12H13.3333V15.6667H14.3333ZM5.16653 24.8341C5.17242 20.0495 9.04956 16.1724 13.8339 16.1667L13.8327 15.1667C8.49699 15.1731 4.1731 19.497 4.16653 24.8329L5.16653 24.8341ZM5.16653 89V24.8335H4.16653V89H5.16653ZM1.5 92.6667C1.5 90.9177 2.91779 89.5 4.66653 89.5V88.5C2.36546 88.5 0.5 90.3655 0.5 92.6667H1.5ZM1.5 98.1667V92.6667H0.5V98.1667H1.5ZM13.8339 110.5C7.02528 110.492 1.50785 104.975 1.5 98.1662L0.5 98.1673C0.508482 105.527 6.47275 111.492 13.8327 111.5L13.8339 110.5ZM98.1667 110.5H13.8333V111.5H98.1667V110.5ZM110.5 98.1662C110.492 104.975 104.975 110.492 98.1661 110.5L98.1673 111.5C105.527 111.492 111.492 105.527 111.5 98.1673L110.5 98.1662ZM110.5 92.6667V98.1667H111.5V92.6667H110.5ZM107.333 89.5C109.082 89.5 110.5 90.9178 110.5 92.6667L111.5 92.6668C111.5 90.3655 109.635 88.5 107.333 88.5V89.5ZM42.5632 42.5698C37.6093 42.3727 32.6691 41.822 28.3312 40.9066C23.984 39.9892 20.2806 38.7134 17.772 37.0875L17.2281 37.9267C19.8876 39.6503 23.7301 40.9576 28.1247 41.885C32.5286 42.8144 37.526 43.3702 42.5235 43.569L42.5632 42.5698ZM40.2107 59.3433C39.5323 53.8364 40.4995 48.2519 42.9901 43.2939L42.0965 42.845C39.5173 47.9794 38.5157 53.7627 39.2182 59.4656L40.2107 59.3433ZM17 52.3333C17 52.7697 17.182 53.1881 17.4654 53.5709C17.7496 53.9547 18.1567 54.332 18.6646 54.6987C19.6805 55.4322 21.1624 56.1685 23.0685 56.8518C26.8862 58.2202 32.4872 59.4051 39.6799 59.9032L39.749 58.9056C32.6218 58.412 27.1156 57.2402 23.406 55.9104C21.5485 55.2446 20.1618 54.5463 19.25 53.888C18.794 53.5587 18.4725 53.2506 18.2691 52.9758C18.0648 52.6999 18 52.4863 18 52.3333H17ZM17 37.5071V52.3333H18V37.5071H17ZM17.2314 58.1286L17.2316 58.1287L17.7689 57.2854L17.7687 57.2853L17.2314 58.1286ZM17.5002 57.2069H17.5V58.2069H17.5002V57.2069ZM18.0002 57.7071V57.7069H17.0002V57.7071H18.0002ZM40.4469 62.6234C36.1498 62.3643 31.6946 61.8162 27.6994 60.9357C23.6954 60.0534 20.1918 58.8454 17.7709 57.2867L17.2296 58.1275C19.7972 59.7806 23.4353 61.02 27.4842 61.9123C31.5419 62.8065 36.0506 63.3601 40.3867 63.6216L40.4469 62.6234ZM51.9343 79.3077C46.4597 75.3326 42.5548 69.5608 40.9017 63.0003L39.932 63.2447C41.6424 70.0324 45.6825 76.004 51.3467 80.1169L51.9343 79.3077ZM46.8336 80.3333C48.4459 80.3333 50.0562 80.2835 51.6628 80.2118L51.6182 79.2128C50.0202 79.2841 48.4259 79.3333 46.8336 79.3333V80.3333ZM17.0002 72.5C17.0002 72.9841 17.2351 73.4497 17.587 73.8721C17.9432 74.2995 18.4562 74.7278 19.1046 75.1481C20.4027 75.9897 22.3118 76.8428 24.8014 77.6071C29.786 79.1372 37.1705 80.3333 46.8336 80.3333V79.3333C37.2466 79.3333 29.9644 78.1459 25.0949 76.6511C22.6574 75.9029 20.8425 75.0831 19.6485 74.309C19.0508 73.9215 18.6256 73.5564 18.3552 73.2319C18.0805 72.9023 18.0002 72.6576 18.0002 72.5H17.0002ZM17.0002 57.7071V72.5H18.0002V57.7071H17.0002ZM68.8336 29.8333C54.382 29.8333 42.6668 41.5485 42.6668 56H43.6668C43.6668 42.1007 54.9343 30.8333 68.8336 30.8333V29.8333ZM95.0002 56C95.0002 41.5485 83.2852 29.8333 68.8336 29.8333V30.8333C82.7329 30.8333 94.0002 42.1007 94.0002 56H95.0002ZM68.8334 82.1667C83.285 82.1667 95.0002 70.4515 95.0002 56H94.0002C94.0002 69.8992 82.7327 81.1667 68.8334 81.1667V82.1667ZM42.6668 56.0005C42.6822 70.4452 54.3882 82.1512 68.8329 82.1667L68.8339 81.1667C54.9407 81.1518 43.6816 69.8927 43.6668 55.9995L42.6668 56.0005ZM68.833 26.1667C58.9847 26.1744 49.7749 31.0416 44.2205 39.1742L45.0462 39.7382C50.4145 31.8782 59.3156 27.1741 68.8338 27.1667L68.833 26.1667ZM76.2943 27.1492C73.8599 26.5066 71.3534 26.1764 68.8353 26.1667L68.8315 27.1667C71.2647 27.176 73.6867 27.4951 76.039 28.1161L76.2943 27.1492ZM75.6667 17.3019V27.6327H76.6667V17.3019H75.6667ZM46.8334 23.5C52.7255 23.5 58.6448 23.0113 63.8237 22.0492C68.9911 21.0893 73.467 19.6499 76.4389 17.7213L75.8945 16.8825C73.086 18.7051 68.7619 20.1148 63.641 21.0661C58.5317 22.0152 52.6745 22.5 46.8334 22.5V23.5ZM17.2279 17.7213C20.1998 19.6498 24.6757 21.0892 29.8431 22.0492C35.022 23.0113 40.9412 23.5 46.8334 23.5V22.5C40.9922 22.5 35.1351 22.0152 30.0258 21.066C24.9049 20.1146 20.5809 18.705 17.7722 16.8825L17.2279 17.7213ZM18 32.1667V17.3019H17V32.1667H18ZM44.6436 38.9563C36.3846 38.7874 29.648 37.6697 24.9908 36.2556C22.6591 35.5476 20.8693 34.7715 19.6737 34.0163C19.0753 33.6383 18.6445 33.2772 18.3684 32.9483C18.0904 32.6171 18 32.3564 18 32.1667H17C17 32.6769 17.2392 33.1584 17.6025 33.5912C17.9679 34.0265 18.4904 34.4516 19.1396 34.8617C20.4394 35.6827 22.3223 36.4904 24.7002 37.2125C29.4622 38.6584 36.2923 39.7857 44.6231 39.9561L44.6436 38.9563ZM76.6667 12C76.6667 11.5161 76.4321 11.0504 76.0804 10.6281C75.7244 10.2006 75.2118 9.77227 74.5638 9.35194C73.2663 8.51035 71.3581 7.65722 68.869 6.89295C63.8855 5.36277 56.5011 4.16674 46.8334 4.16674V5.16674C56.4249 5.16674 63.7071 6.35407 68.5755 7.8489C71.0123 8.59713 72.8263 9.4169 74.0196 10.1909C74.6169 10.5784 75.0418 10.9435 75.312 11.268C75.5864 11.5975 75.6667 11.8423 75.6667 12H76.6667ZM46.8334 19.8333C56.501 19.8333 63.8854 18.6372 68.8689 17.1071C71.358 16.3428 73.2663 15.4897 74.5637 14.6481C75.2118 14.2277 75.7244 13.7994 76.0804 13.3719C76.4321 12.9496 76.6667 12.4839 76.6667 12H75.6667C75.6667 12.1577 75.5864 12.4025 75.312 12.732C75.0418 13.0565 74.6169 13.4216 74.0196 13.8091C72.8263 14.5831 71.0122 15.4029 68.5754 16.1511C63.707 17.6459 56.4248 18.8333 46.8334 18.8333V19.8333ZM17 12C17 12.484 17.2346 12.9496 17.5863 13.372C17.9423 13.7995 18.455 14.2278 19.103 14.6481C20.4005 15.4898 22.3087 16.3429 24.7978 17.1071C29.7813 18.6373 37.1658 19.8333 46.8334 19.8333V18.8333C37.2419 18.8333 29.9597 17.646 25.0913 16.1512C22.6545 15.403 20.8404 14.5832 19.6472 13.8092C19.0498 13.4217 18.6249 13.0566 18.3548 12.7321C18.0803 12.4025 18 12.1577 18 12H17ZM46.8334 4.16674C37.1702 4.16674 29.7858 5.36273 24.8012 6.89286C22.3116 7.65711 20.4025 8.51021 19.1043 9.35178C18.456 9.77209 17.943 10.2004 17.5868 10.6279C17.2348 11.0502 17 11.5159 17 12H18C18 11.8424 18.0803 11.5977 18.355 11.2681C18.6254 10.9436 19.0506 10.5784 19.6483 10.1909C20.8423 9.41684 22.6572 8.59705 25.0947 7.84883C29.9642 6.35401 37.2464 5.16674 46.8334 5.16674V4.16674ZM8.83328 24.8333C8.83328 22.0719 11.072 19.8333 13.8333 19.8333V18.8333C10.5197 18.8333 7.83328 21.5197 7.83328 24.8333H8.83328ZM8.83328 89V24.8333H7.83328V89H8.83328ZM103.667 88.5H8.33328V89.5H103.667V88.5ZM103.167 24.8333V89H104.167V24.8333H103.167ZM98.1667 19.8333C100.928 19.8333 103.167 22.0719 103.167 24.8333H104.167C104.167 21.5197 101.48 18.8333 98.1667 18.8333V19.8333ZM79.8334 19.8333H98.1667V18.8333H79.8334V19.8333ZM80.3334 28.8263V19.3333H79.3334V28.8263H80.3334ZM98.4244 52.0573C96.9987 41.4237 89.9706 32.3753 80.0204 28.3626L79.6464 29.2901C89.2629 33.1682 96.0554 41.9132 97.4333 52.1902L98.4244 52.0573ZM86.9126 79.7634C95.4543 73.2711 99.8502 62.691 98.4244 52.0573L97.4333 52.1902C98.8113 62.4673 94.5627 72.6927 86.3075 78.9673L86.9126 79.7634ZM57.1361 83.4391C67.0002 87.6594 78.3709 86.2557 86.9126 79.7634L86.3075 78.9673C78.0522 85.2419 67.0628 86.5985 57.5295 82.5197L57.1361 83.4391ZM46.8334 84C50.3705 84 53.9141 83.8158 57.3814 83.4771L57.2842 82.4818C53.8472 82.8176 50.3362 83 46.8334 83V84ZM13.3333 72.5C13.3333 74.5213 14.5006 76.2425 16.3819 77.6642C18.2619 79.0849 20.9133 80.2554 24.0408 81.1873C30.3017 83.0527 38.6032 84 46.8334 84V83C38.6642 83 30.4657 82.0581 24.3264 80.2289C21.2538 79.3134 18.73 78.1853 16.9849 76.8664C15.2411 75.5487 14.3333 74.0895 14.3333 72.5H13.3333ZM13.3333 19.3333V72.5H14.3333V19.3333H13.3333ZM72.5001 92.1667H39.5001V93.1667H72.5001V92.1667ZM73.0001 94.5V92.6667H72.0001V94.5H73.0001ZM68.8334 98.6667C71.1347 98.6667 73.0001 96.8013 73.0001 94.5H72.0001C72.0001 96.249 70.5824 97.6667 68.8334 97.6667V98.6667ZM43.1668 98.6667H68.8334V97.6667H43.1668V98.6667ZM39.0001 94.5C39.0001 96.8013 40.8656 98.6667 43.1668 98.6667V97.6667C41.4178 97.6667 40.0001 96.249 40.0001 94.5H39.0001ZM39.0001 92.6667V94.5H40.0001V92.6667H39.0001ZM106.833 98.1661C106.828 102.95 102.951 106.828 98.1661 106.833L98.1673 107.833C103.503 107.827 107.827 103.503 107.833 98.1673L106.833 98.1661ZM106.833 92.6667V98.1667H107.833V92.6667H106.833ZM76.1667 93.1667H107.333V92.1667H76.1667V93.1667ZM76.6667 94.5V92.6667H75.6667V94.5H76.6667ZM68.8334 102.333C73.1596 102.333 76.6667 98.8262 76.6667 94.5H75.6667C75.6667 98.2739 72.6073 101.333 68.8334 101.333V102.333ZM43.1666 102.333H68.8334V101.333H43.1666V102.333ZM35.3333 94.5C35.3333 98.8262 38.8404 102.333 43.1666 102.333V101.333C39.3927 101.333 36.3333 98.2739 36.3333 94.5H35.3333ZM35.3333 92.6667V94.5H36.3333V92.6667H35.3333ZM4.66653 93.1667H35.8333V92.1667H4.66653V93.1667ZM5.16653 98.1667V92.6667H4.16653V98.1667H5.16653ZM13.8339 106.833C9.04956 106.828 5.17242 102.951 5.16653 98.1661L4.16653 98.1674C4.1731 103.503 8.49699 107.827 13.8327 107.833L13.8339 106.833ZM98.1667 106.833H13.8333V107.833H98.1667V106.833Z" fill="#00A4FF"/>
<mask id="path-3-inside-1_0_9326" fill="white">
<path fill-rule="evenodd" clip-rule="evenodd" d="M78.3692 50.2053C78.8573 49.7171 78.8573 48.9257 78.3692 48.4375L76.6014 46.6698C76.1132 46.1816 75.3218 46.1816 74.8336 46.6698L69.0069 52.4965L63.1733 46.6628C62.6851 46.1747 61.8937 46.1747 61.4055 46.6628L59.6239 48.4445C59.1357 48.9326 59.1357 49.7241 59.6239 50.2122L65.4575 56.0459L59.6308 61.8726C59.1427 62.3607 59.1427 63.1522 59.6308 63.6403L61.3986 65.4081C61.8868 65.8962 62.6782 65.8962 63.1664 65.4081L68.9931 59.5814L74.8267 65.415C75.3149 65.9032 76.1063 65.9032 76.5945 65.415L78.3761 63.6334C78.8643 63.1452 78.8643 62.3538 78.3761 61.8656L72.5425 56.032L78.3692 50.2053Z"/>
</mask>
<path fill-rule="evenodd" clip-rule="evenodd" d="M78.3692 50.2053C78.8573 49.7171 78.8573 48.9257 78.3692 48.4375L76.6014 46.6698C76.1132 46.1816 75.3218 46.1816 74.8336 46.6698L69.0069 52.4965L63.1733 46.6628C62.6851 46.1747 61.8937 46.1747 61.4055 46.6628L59.6239 48.4445C59.1357 48.9326 59.1357 49.7241 59.6239 50.2122L65.4575 56.0459L59.6308 61.8726C59.1427 62.3607 59.1427 63.1522 59.6308 63.6403L61.3986 65.4081C61.8868 65.8962 62.6782 65.8962 63.1664 65.4081L68.9931 59.5814L74.8267 65.415C75.3149 65.9032 76.1063 65.9032 76.5945 65.415L78.3761 63.6334C78.8643 63.1452 78.8643 62.3538 78.3761 61.8656L72.5425 56.032L78.3692 50.2053Z" fill="white"/>
<path d="M78.3692 50.2053L79.0763 50.9124L78.3692 50.2053ZM69.0069 52.4965L68.2998 53.2036C68.6904 53.5941 69.3235 53.5941 69.714 53.2036L69.0069 52.4965ZM65.4575 56.0459L66.1646 56.753C66.5552 56.3624 66.5552 55.7293 66.1646 55.3387L65.4575 56.0459ZM68.9931 59.5814L69.7002 58.8743C69.3096 58.4838 68.6765 58.4838 68.286 58.8743L68.9931 59.5814ZM72.5425 56.032L71.8354 55.3249C71.6478 55.5124 71.5425 55.7668 71.5425 56.032C71.5425 56.2972 71.6478 56.5516 71.8354 56.7391L72.5425 56.032ZM77.6621 49.1446C77.7597 49.2423 77.7597 49.4006 77.6621 49.4982L79.0763 50.9124C79.955 50.0337 79.955 48.6091 79.0763 47.7304L77.6621 49.1446ZM75.8943 47.3769L77.6621 49.1446L79.0763 47.7304L77.3085 45.9627L75.8943 47.3769ZM75.5407 47.3769C75.6384 47.2792 75.7967 47.2792 75.8943 47.3769L77.3085 45.9627C76.4298 45.084 75.0052 45.084 74.1265 45.9627L75.5407 47.3769ZM69.714 53.2036L75.5407 47.3769L74.1265 45.9627L68.2998 51.7893L69.714 53.2036ZM62.4662 47.3699L68.2998 53.2036L69.714 51.7893L63.8804 45.9557L62.4662 47.3699ZM62.1126 47.3699C62.2103 47.2723 62.3686 47.2723 62.4662 47.3699L63.8804 45.9557C63.0017 45.077 61.5771 45.077 60.6984 45.9557L62.1126 47.3699ZM60.331 49.1516L62.1126 47.3699L60.6984 45.9557L58.9168 47.7374L60.331 49.1516ZM60.331 49.5051C60.2334 49.4075 60.2334 49.2492 60.331 49.1516L58.9168 47.7374C58.0381 48.616 58.0381 50.0407 58.9168 50.9193L60.331 49.5051ZM66.1646 55.3387L60.331 49.5051L58.9168 50.9193L64.7504 56.753L66.1646 55.3387ZM60.3379 62.5797L66.1646 56.753L64.7504 55.3387L58.9237 61.1654L60.3379 62.5797ZM60.3379 62.9332C60.2403 62.8356 60.2403 62.6773 60.3379 62.5797L58.9237 61.1654C58.045 62.0441 58.045 63.4687 58.9237 64.3474L60.3379 62.9332ZM62.1057 64.701L60.3379 62.9332L58.9237 64.3474L60.6915 66.1152L62.1057 64.701ZM62.4593 64.701C62.3616 64.7986 62.2033 64.7986 62.1057 64.701L60.6915 66.1152C61.5702 66.9939 62.9948 66.9939 63.8735 66.1152L62.4593 64.701ZM68.286 58.8743L62.4593 64.701L63.8735 66.1152L69.7002 60.2885L68.286 58.8743ZM75.5338 64.7079L69.7002 58.8743L68.286 60.2885L74.1196 66.1221L75.5338 64.7079ZM75.8874 64.7079C75.7897 64.8055 75.6314 64.8055 75.5338 64.7079L74.1196 66.1221C74.9983 67.0008 76.4229 67.0008 77.3016 66.1221L75.8874 64.7079ZM77.669 62.9263L75.8874 64.7079L77.3016 66.1221L79.0832 64.3405L77.669 62.9263ZM77.669 62.5727C77.7666 62.6704 77.7666 62.8286 77.669 62.9263L79.0832 64.3405C79.9619 63.4618 79.9619 62.0372 79.0832 61.1585L77.669 62.5727ZM71.8354 56.7391L77.669 62.5727L79.0832 61.1585L73.2496 55.3249L71.8354 56.7391ZM77.6621 49.4982L71.8354 55.3249L73.2496 56.7391L79.0763 50.9124L77.6621 49.4982Z" fill="#00A6FF" mask="url(#path-3-inside-1_0_9326)"/>
<path d="M30.3333 96.333H24.8333C23.8207 96.333 23 97.1537 23 98.1663C23 99.1788 23.8209 99.9995 24.8333 99.9995H30.3333C31.3458 99.9995 32.1665 99.1788 32.1665 98.1663C32.1665 97.1537 31.3458 96.333 30.3333 96.333Z" fill="white" stroke="#00A4FF"/>
<ellipse cx="10.1653" cy="98.1663" rx="1.83327" ry="1.83326" fill="white" stroke="#00A4FF"/>
<ellipse cx="17.4973" cy="98.1663" rx="1.83327" ry="1.83326" fill="white" stroke="#00A4FF"/>
</svg>
