<svg width="14" height="16" viewBox="0 0 14 16" fill="none" xmlns="http://www.w3.org/2000/svg">
<path d="M12.432 10.9402C11.5245 10.1652 10.6036 9.69572 9.70727 10.4696L9.17206 10.9373C8.78047 11.2768 8.0524 12.8632 5.23742 9.62957C2.42302 6.40007 4.09783 5.89723 4.49 5.56064L5.02814 5.09234C5.91977 4.31672 5.58328 3.34032 4.94021 2.33523L4.55214 1.72644C3.90614 0.723698 3.20268 0.0651525 2.30871 0.839602L1.82567 1.26107C1.43057 1.54849 0.326148 2.48275 0.0582502 4.2576C-0.264165 6.38719 0.752909 8.82585 3.0831 11.5016C5.41035 14.1785 7.68895 15.5231 9.84738 15.4997C11.6412 15.4804 12.7245 14.5192 13.0633 14.1697L13.5481 13.7477C14.4397 12.9738 13.8858 12.1859 12.9777 11.4091L12.432 10.9402Z" fill="white"/>
</svg>
