<svg width="98" height="112" viewBox="0 0 98 112" fill="none" xmlns="http://www.w3.org/2000/svg">
<path fill-rule="evenodd" clip-rule="evenodd" d="M7.52941 0H4.76471C3.2378 0 2 1.23122 2 2.75V24.75C2 26.2688 3.2378 27.5 4.76471 27.5H7.52941V33H4.76471C3.2378 33 2 34.2312 2 35.75V57.75C2 59.2688 3.2378 60.5 4.76471 60.5H18.5882C19.3231 60.5042 20.0294 60.2173 20.5512 59.7025L25.2512 55H31.7482L36.6971 57.4475C37.7612 57.9896 39.0552 57.7899 39.9041 56.9525L47.3688 49.5H58.9253L66.39 56.9525C67.1185 57.6631 68.1813 57.9168 69.1547 57.6125L76.1494 55.275L83.3376 60.0325C83.8109 60.3491 84.371 60.5124 84.9412 60.5H93.2353C94.7622 60.5 96 59.2688 96 57.75V35.75C96 34.2312 94.7622 33 93.2353 33H90.4706V27.5H93.2353C94.7622 27.5 96 26.2688 96 24.75V2.75C96 1.23122 94.7622 0 93.2353 0H90.4706H84.9412H13.0588H7.52941ZM90.4706 55H85.7706L78.1676 49.9675C77.4599 49.4945 76.5724 49.3727 75.7624 49.6375L69.0994 51.865L62.0218 44.7975C61.5 44.2827 60.7937 43.9958 60.0588 44H46.2353C45.5004 43.9958 44.7941 44.2827 44.2724 44.7975L37.3882 51.645L33.6559 49.8025C33.2707 49.6062 32.8446 49.5026 32.4118 49.5H24.1176C23.3828 49.4958 22.6765 49.7827 22.1547 50.2975L17.4547 55H7.52941V38.5H90.4706V55ZM13.0588 33H84.9412V27.5H13.0588V33ZM90.4706 22H7.52941V5.5H90.4706V22Z" fill="white"/>
<path d="M7.52941 27.5H8.90441V26.125H7.52941V27.5ZM7.52941 33V34.375H8.90441V33H7.52941ZM18.5882 60.5L18.5961 59.125H18.5882V60.5ZM20.5512 59.7025L21.5169 60.6813L21.5237 60.6745L20.5512 59.7025ZM25.2512 55V53.625H24.6814L24.2786 54.028L25.2512 55ZM31.7482 55L32.3578 53.7675L32.0697 53.625H31.7482V55ZM36.6971 57.4475L37.3212 56.2223L37.3139 56.2186L37.3066 56.215L36.6971 57.4475ZM39.9041 56.9525L40.8697 57.9314L40.8756 57.9256L39.9041 56.9525ZM47.3688 49.5V48.125H46.7999L46.3973 48.5269L47.3688 49.5ZM58.9253 49.5L59.8968 48.5269L59.4942 48.125H58.9253V49.5ZM66.39 56.9525L65.4185 57.9256L65.4242 57.9312L65.4299 57.9368L66.39 56.9525ZM69.1547 57.6125L69.565 58.9249L69.5778 58.9209L69.5905 58.9166L69.1547 57.6125ZM76.1494 55.275L76.9083 54.1284L76.3493 53.7584L75.7136 53.9709L76.1494 55.275ZM83.3376 60.0325L84.1023 58.8897L84.0965 58.8859L83.3376 60.0325ZM84.9412 60.5V59.125H84.9262L84.9112 59.1253L84.9412 60.5ZM90.4706 33H89.0956V34.375H90.4706V33ZM90.4706 27.5V26.125H89.0956V27.5H90.4706ZM85.7706 55L85.0117 56.1466L85.3567 56.375H85.7706V55ZM90.4706 55V56.375H91.8456V55H90.4706ZM78.1676 49.9675L77.4035 51.1107L77.4087 51.1141L78.1676 49.9675ZM75.7624 49.6375L75.3351 48.3305L75.3264 48.3334L75.7624 49.6375ZM69.0994 51.865L68.1278 52.838L68.7293 53.4385L69.5354 53.1691L69.0994 51.865ZM62.0218 44.7975L62.9934 43.8245L62.9875 43.8187L62.0218 44.7975ZM60.0588 44V45.375L60.0667 45.375L60.0588 44ZM46.2353 44L46.2274 45.375H46.2353V44ZM44.2724 44.7975L43.3067 43.8187L43.3027 43.8226L44.2724 44.7975ZM37.3882 51.645L36.7796 52.8779L37.661 53.3131L38.3579 52.6199L37.3882 51.645ZM33.6559 49.8025L33.0315 51.0276L33.0394 51.0316L33.0472 51.0354L33.6559 49.8025ZM32.4118 49.5L32.42 48.125H32.4118V49.5ZM24.1176 49.5L24.1097 50.875H24.1176V49.5ZM22.1547 50.2975L21.189 49.3187L21.1822 49.3255L22.1547 50.2975ZM17.4547 55V56.375H18.0245L18.4272 55.972L17.4547 55ZM7.52941 55H6.15441V56.375H7.52941V55ZM7.52941 38.5V37.125H6.15441V38.5H7.52941ZM90.4706 38.5H91.8456V37.125H90.4706V38.5ZM84.9412 33V34.375H86.3162V33H84.9412ZM13.0588 33H11.6838V34.375H13.0588V33ZM84.9412 27.5H86.3162V26.125H84.9412V27.5ZM13.0588 27.5V26.125H11.6838V27.5H13.0588ZM7.52941 22H6.15441V23.375H7.52941V22ZM90.4706 22V23.375H91.8456V22H90.4706ZM7.52941 5.5V4.125H6.15441V5.5H7.52941ZM90.4706 5.5H91.8456V4.125H90.4706V5.5ZM4.76471 1.375H7.52941V-1.375H4.76471V1.375ZM3.375 2.75C3.375 1.99751 3.99027 1.375 4.76471 1.375V-1.375C2.48533 -1.375 0.625 0.464921 0.625 2.75H3.375ZM3.375 24.75V2.75H0.625V24.75H3.375ZM4.76471 26.125C3.99027 26.125 3.375 25.5025 3.375 24.75H0.625C0.625 27.0351 2.48533 28.875 4.76471 28.875V26.125ZM7.52941 26.125H4.76471V28.875H7.52941V26.125ZM8.90441 33V27.5H6.15441V33H8.90441ZM4.76471 34.375H7.52941V31.625H4.76471V34.375ZM3.375 35.75C3.375 34.9975 3.99027 34.375 4.76471 34.375V31.625C2.48533 31.625 0.625 33.4649 0.625 35.75H3.375ZM3.375 57.75V35.75H0.625V57.75H3.375ZM4.76471 59.125C3.99027 59.125 3.375 58.5025 3.375 57.75H0.625C0.625 60.0351 2.48533 61.875 4.76471 61.875V59.125ZM18.5882 59.125H4.76471V61.875H18.5882V59.125ZM19.5855 58.7237C19.3238 58.9819 18.9679 59.1272 18.5961 59.125L18.5803 61.875C19.6783 61.8813 20.7351 61.4526 21.5169 60.6813L19.5855 58.7237ZM24.2786 54.028L19.5786 58.7305L21.5237 60.6745L26.2237 55.972L24.2786 54.028ZM31.7482 53.625H25.2512V56.375H31.7482V53.625ZM37.3066 56.215L32.3578 53.7675L31.1387 56.2325L36.0875 58.68L37.3066 56.215ZM38.9385 55.9736C38.5121 56.3943 37.8588 56.4962 37.3212 56.2223L36.0729 58.6727C37.6636 59.483 39.5983 59.1856 40.8697 57.9314L38.9385 55.9736ZM46.3973 48.5269L38.9326 55.9794L40.8756 57.9256L48.3403 50.4731L46.3973 48.5269ZM58.9253 48.125H47.3688V50.875H58.9253V48.125ZM67.3615 55.9794L59.8968 48.5269L57.9538 50.4731L65.4185 57.9256L67.3615 55.9794ZM68.7444 56.3001C68.2521 56.4541 67.7159 56.325 67.3501 55.9682L65.4299 57.9368C66.5212 59.0012 68.1105 59.3796 69.565 58.9249L68.7444 56.3001ZM75.7136 53.9709L68.7189 56.3084L69.5905 58.9166L76.5852 56.5791L75.7136 53.9709ZM84.0965 58.8859L76.9083 54.1284L75.3905 56.4216L82.5788 61.1791L84.0965 58.8859ZM84.9112 59.1253C84.6229 59.1316 84.3403 59.049 84.1022 58.8897L82.573 61.1753C83.2814 61.6493 84.119 61.8932 84.9711 61.8747L84.9112 59.1253ZM93.2353 59.125H84.9412V61.875H93.2353V59.125ZM94.625 57.75C94.625 58.5025 94.0097 59.125 93.2353 59.125V61.875C95.5147 61.875 97.375 60.0351 97.375 57.75H94.625ZM94.625 35.75V57.75H97.375V35.75H94.625ZM93.2353 34.375C94.0097 34.375 94.625 34.9975 94.625 35.75H97.375C97.375 33.4649 95.5147 31.625 93.2353 31.625V34.375ZM90.4706 34.375H93.2353V31.625H90.4706V34.375ZM89.0956 27.5V33H91.8456V27.5H89.0956ZM93.2353 26.125H90.4706V28.875H93.2353V26.125ZM94.625 24.75C94.625 25.5025 94.0097 26.125 93.2353 26.125V28.875C95.5147 28.875 97.375 27.0351 97.375 24.75H94.625ZM94.625 2.75V24.75H97.375V2.75H94.625ZM93.2353 1.375C94.0097 1.375 94.625 1.99752 94.625 2.75H97.375C97.375 0.464917 95.5147 -1.375 93.2353 -1.375V1.375ZM90.4706 1.375H93.2353V-1.375H90.4706V1.375ZM84.9412 1.375H90.4706V-1.375H84.9412V1.375ZM13.0588 1.375H84.9412V-1.375H13.0588V1.375ZM7.52941 1.375H13.0588V-1.375H7.52941V1.375ZM85.7706 56.375H90.4706V53.625H85.7706V56.375ZM77.4087 51.1141L85.0117 56.1466L86.5295 53.8534L78.9266 48.8209L77.4087 51.1141ZM76.1896 50.9444C76.599 50.8106 77.0472 50.8725 77.4035 51.1106L78.9317 48.8244C77.8726 48.1164 76.5458 47.9348 75.3351 48.3306L76.1896 50.9444ZM69.5354 53.1691L76.1983 50.9416L75.3264 48.3334L68.6635 50.5609L69.5354 53.1691ZM61.0502 45.7705L68.1278 52.838L70.071 50.892L62.9933 43.8245L61.0502 45.7705ZM60.0667 45.375C60.4385 45.3728 60.7943 45.5181 61.0561 45.7763L62.9875 43.8187C62.2057 43.0474 61.1489 42.6187 60.0509 42.625L60.0667 45.375ZM46.2353 45.375H60.0588V42.625H46.2353V45.375ZM45.238 45.7763C45.4998 45.5181 45.8556 45.3728 46.2274 45.375L46.2432 42.625C45.1452 42.6187 44.0884 43.0474 43.3067 43.8187L45.238 45.7763ZM38.3579 52.6199L45.242 45.7724L43.3027 43.8226L36.4186 50.6701L38.3579 52.6199ZM33.0472 51.0354L36.7796 52.8779L37.9969 50.4121L34.2645 48.5695L33.0472 51.0354ZM32.4036 50.875C32.6224 50.8763 32.8375 50.9287 33.0315 51.0276L34.2802 48.5774C33.7039 48.2837 33.0668 48.1289 32.42 48.125L32.4036 50.875ZM24.1176 50.875H32.4118V48.125H24.1176V50.875ZM23.1204 51.2763C23.3821 51.0181 23.738 50.8728 24.1097 50.875L24.1256 48.125C23.0276 48.1187 21.9708 48.5474 21.189 49.3187L23.1204 51.2763ZM18.4272 55.972L23.1272 51.2695L21.1822 49.3255L16.4822 54.028L18.4272 55.972ZM7.52941 56.375H17.4547V53.625H7.52941V56.375ZM6.15441 38.5V55H8.90441V38.5H6.15441ZM90.4706 37.125H7.52941V39.875H90.4706V37.125ZM91.8456 55V38.5H89.0956V55H91.8456ZM84.9412 31.625H13.0588V34.375H84.9412V31.625ZM83.5662 27.5V33H86.3162V27.5H83.5662ZM13.0588 28.875H84.9412V26.125H13.0588V28.875ZM14.4338 33V27.5H11.6838V33H14.4338ZM7.52941 23.375H90.4706V20.625H7.52941V23.375ZM6.15441 5.5V22H8.90441V5.5H6.15441ZM90.4706 4.125H7.52941V6.875H90.4706V4.125ZM91.8456 22V5.5H89.0956V22H91.8456Z" fill="#00C6D5"/>
<path d="M79.4102 11H84.9396V16.5H79.4102V11Z" fill="white" stroke="#00C6D5" stroke-width="2.75"/>
<path d="M68.3516 11H73.881V16.5H68.3516V11Z" fill="white" stroke="#00C6D5" stroke-width="2.75"/>
<path d="M57.293 11H62.8224V16.5H57.293V11Z" fill="white" stroke="#00C6D5" stroke-width="2.75"/>
<path d="M13.0586 11H18.588V16.5H13.0586V11Z" fill="white" stroke="#00C6D5" stroke-width="2.75"/>
<path fill-rule="evenodd" clip-rule="evenodd" d="M26.8812 71.5V77C26.8812 81.5563 23.1678 85.25 18.5871 85.25C14.0064 85.25 10.293 81.5563 10.293 77V71.5C10.293 66.9437 14.0064 63.25 18.5871 63.25C23.1678 63.25 26.8812 66.9437 26.8812 71.5ZM18.5871 79.75C20.114 79.75 21.3518 78.5188 21.3518 77V71.5C21.3518 69.9812 20.114 68.75 18.5871 68.75C17.0602 68.75 15.8224 69.9812 15.8224 71.5V77C15.8224 78.5188 17.0602 79.75 18.5871 79.75Z" fill="white"/>
<path d="M28.2562 77V71.5H25.5062V77H28.2562ZM18.5871 86.625C23.9203 86.625 28.2562 82.3226 28.2562 77H25.5062C25.5062 80.7901 22.4153 83.875 18.5871 83.875V86.625ZM8.91797 77C8.91797 82.3226 13.2539 86.625 18.5871 86.625V83.875C14.7588 83.875 11.668 80.7901 11.668 77H8.91797ZM8.91797 71.5V77H11.668V71.5H8.91797ZM18.5871 61.875C13.2539 61.875 8.91797 66.1774 8.91797 71.5H11.668C11.668 67.7099 14.7588 64.625 18.5871 64.625V61.875ZM28.2562 71.5C28.2562 66.1774 23.9203 61.875 18.5871 61.875V64.625C22.4153 64.625 25.5062 67.7099 25.5062 71.5H28.2562ZM19.9768 77C19.9768 77.7525 19.3615 78.375 18.5871 78.375V81.125C20.8665 81.125 22.7268 79.2851 22.7268 77H19.9768ZM19.9768 71.5V77H22.7268V71.5H19.9768ZM18.5871 70.125C19.3615 70.125 19.9768 70.7475 19.9768 71.5H22.7268C22.7268 69.2149 20.8665 67.375 18.5871 67.375V70.125ZM17.1974 71.5C17.1974 70.7475 17.8126 70.125 18.5871 70.125V67.375C16.3077 67.375 14.4474 69.2149 14.4474 71.5H17.1974ZM17.1974 77V71.5H14.4474V77H17.1974ZM18.5871 78.375C17.8126 78.375 17.1974 77.7525 17.1974 77H14.4474C14.4474 79.2851 16.3077 81.125 18.5871 81.125V78.375Z" fill="#00C6D5"/>
<path fill-rule="evenodd" clip-rule="evenodd" d="M51.7629 88C56.3436 88 60.057 91.6937 60.057 96.25V101.75C60.057 106.306 56.3436 110 51.7629 110C47.1822 110 43.4688 106.306 43.4688 101.75V96.25C43.4688 91.6937 47.1822 88 51.7629 88ZM51.7629 104.5C53.2898 104.5 54.5276 103.269 54.5276 101.75V96.25C54.5276 94.7312 53.2898 93.5 51.7629 93.5C50.236 93.5 48.9982 94.7312 48.9982 96.25V101.75C48.9982 103.269 50.236 104.5 51.7629 104.5Z" fill="white"/>
<path d="M61.432 96.25C61.432 90.9274 57.0961 86.625 51.7629 86.625V89.375C55.5911 89.375 58.682 92.4599 58.682 96.25H61.432ZM61.432 101.75V96.25H58.682V101.75H61.432ZM51.7629 111.375C57.0961 111.375 61.432 107.073 61.432 101.75H58.682C58.682 105.54 55.5911 108.625 51.7629 108.625V111.375ZM42.0938 101.75C42.0938 107.073 46.4297 111.375 51.7629 111.375V108.625C47.9346 108.625 44.8438 105.54 44.8438 101.75H42.0938ZM42.0938 96.25V101.75H44.8438V96.25H42.0938ZM51.7629 86.625C46.4297 86.625 42.0938 90.9274 42.0938 96.25H44.8438C44.8438 92.4599 47.9346 89.375 51.7629 89.375V86.625ZM53.1526 101.75C53.1526 102.502 52.5373 103.125 51.7629 103.125V105.875C54.0422 105.875 55.9026 104.035 55.9026 101.75H53.1526ZM53.1526 96.25V101.75H55.9026V96.25H53.1526ZM51.7629 94.875C52.5373 94.875 53.1526 95.4975 53.1526 96.25H55.9026C55.9026 93.9649 54.0422 92.125 51.7629 92.125V94.875ZM50.3732 96.25C50.3732 95.4975 50.9884 94.875 51.7629 94.875V92.125C49.4835 92.125 47.6232 93.9649 47.6232 96.25H50.3732ZM50.3732 101.75V96.25H47.6232V101.75H50.3732ZM51.7629 103.125C50.9884 103.125 50.3732 102.502 50.3732 101.75H47.6232C47.6232 104.035 49.4835 105.875 51.7629 105.875V103.125Z" fill="#00C6D5"/>
<path fill-rule="evenodd" clip-rule="evenodd" d="M79.4125 68.75V74.25C79.4125 78.8063 75.6991 82.5 71.1183 82.5C66.5376 82.5 62.8242 78.8063 62.8242 74.25V68.75C62.8242 64.1937 66.5376 60.5 71.1183 60.5C75.6991 60.5 79.4125 64.1937 79.4125 68.75ZM68.3536 68.75V74.25C68.3536 75.7688 69.5914 77 71.1183 77C72.6452 77 73.883 75.7688 73.883 74.25V68.75C73.883 67.2312 72.6452 66 71.1183 66C69.5914 66 68.3536 67.2312 68.3536 68.75Z" fill="white"/>
<path d="M80.7875 74.25V68.75H78.0375V74.25H80.7875ZM71.1183 83.875C76.4515 83.875 80.7875 79.5726 80.7875 74.25H78.0375C78.0375 78.0401 74.9466 81.125 71.1183 81.125V83.875ZM61.4492 74.25C61.4492 79.5726 65.7852 83.875 71.1183 83.875V81.125C67.2901 81.125 64.1992 78.0401 64.1992 74.25H61.4492ZM61.4492 68.75V74.25H64.1992V68.75H61.4492ZM71.1183 59.125C65.7852 59.125 61.4492 63.4274 61.4492 68.75H64.1992C64.1992 64.9599 67.2901 61.875 71.1183 61.875V59.125ZM80.7875 68.75C80.7875 63.4274 76.4515 59.125 71.1183 59.125V61.875C74.9466 61.875 78.0375 64.9599 78.0375 68.75H80.7875ZM69.7286 74.25V68.75H66.9786V74.25H69.7286ZM71.1183 75.625C70.3439 75.625 69.7286 75.0025 69.7286 74.25H66.9786C66.9786 76.5351 68.839 78.375 71.1183 78.375V75.625ZM72.508 74.25C72.508 75.0025 71.8928 75.625 71.1183 75.625V78.375C73.3977 78.375 75.258 76.5351 75.258 74.25H72.508ZM72.508 68.75V74.25H75.258V68.75H72.508ZM71.1183 67.375C71.8928 67.375 72.508 67.9975 72.508 68.75H75.258C75.258 66.4649 73.3977 64.625 71.1183 64.625V67.375ZM69.7286 68.75C69.7286 67.9975 70.3439 67.375 71.1183 67.375V64.625C68.839 64.625 66.9786 66.4649 66.9786 68.75H69.7286Z" fill="#00C6D5"/>
<path d="M47.2851 57.97C46.2556 57.5393 45.0666 57.7672 44.2716 58.5475L38.7422 64.0475L42.6681 67.9525L43.4698 67.1275V74.25H40.7051V79.75H51.764V74.25H48.9992V60.5C48.9937 59.3898 48.3175 58.3918 47.2851 57.97Z" fill="white" stroke="#00C6D5" stroke-width="2.75"/>
<path d="M82.175 88C82.1695 86.8898 81.4933 85.8918 80.4609 85.47C79.4313 85.0393 78.2424 85.2672 77.4474 86.0475L71.918 91.5475L75.8439 95.4525L76.6456 94.6275V101.75H73.8809V107.25H84.9397V101.75H82.175V88Z" fill="white" stroke="#00C6D5" stroke-width="2.75"/>
<path d="M29.6477 90.75C29.6421 89.6398 28.966 88.6418 27.9336 88.22C26.904 87.7893 25.7151 88.0172 24.92 88.7975L19.3906 94.2975L23.3165 98.2025L24.1183 97.3775V104.5H21.3536V110H32.4124V104.5H29.6477V90.75Z" fill="white" stroke="#00C6D5" stroke-width="2.75"/>
</svg>
