<svg width="111" height="102" viewBox="0 0 111 102" fill="none" xmlns="http://www.w3.org/2000/svg">
<path d="M19.1682 42.7645H42.7849C43.7895 42.7645 44.6016 41.951 44.6016 40.9487C44.6016 39.9463 43.7895 39.1328 42.7849 39.1328H19.1682C18.1636 39.1328 17.3516 39.9463 17.3516 40.9487C17.3516 41.951 18.1636 42.7645 19.1682 42.7645Z" fill="#007AFF"/>
<path d="M19.1682 42.7645H42.7849C43.7895 42.7645 44.6016 41.951 44.6016 40.9487C44.6016 39.9463 43.7895 39.1328 42.7849 39.1328H19.1682C18.1636 39.1328 17.3516 39.9463 17.3516 40.9487C17.3516 41.951 18.1636 42.7645 19.1682 42.7645Z" stroke="white" stroke-width="1.25"/>
<path d="M19.1682 42.7645H42.7849C43.7895 42.7645 44.6016 41.951 44.6016 40.9487C44.6016 39.9463 43.7895 39.1328 42.7849 39.1328H19.1682C18.1636 39.1328 17.3516 39.9463 17.3516 40.9487C17.3516 41.951 18.1636 42.7645 19.1682 42.7645Z" stroke="#007AFF" stroke-opacity="0.04" stroke-width="1.25"/>
<path d="M66.4016 50.0273H19.1682C18.1636 50.0273 17.3516 50.8408 17.3516 51.8432C17.3516 52.8455 18.1636 53.659 19.1682 53.659H66.4016C67.4062 53.659 68.2182 52.8455 68.2182 51.8432C68.2182 50.8408 67.4062 50.0273 66.4016 50.0273Z" fill="#007AFF"/>
<path d="M66.4016 50.0273H19.1682C18.1636 50.0273 17.3516 50.8408 17.3516 51.8432C17.3516 52.8455 18.1636 53.659 19.1682 53.659H66.4016C67.4062 53.659 68.2182 52.8455 68.2182 51.8432C68.2182 50.8408 67.4062 50.0273 66.4016 50.0273Z" stroke="white" stroke-width="1.25"/>
<path d="M66.4016 50.0273H19.1682C18.1636 50.0273 17.3516 50.8408 17.3516 51.8432C17.3516 52.8455 18.1636 53.659 19.1682 53.659H66.4016C67.4062 53.659 68.2182 52.8455 68.2182 51.8432C68.2182 50.8408 67.4062 50.0273 66.4016 50.0273Z" stroke="#007AFF" stroke-opacity="0.04" stroke-width="1.25"/>
<path d="M66.4016 60.9219H19.1682C18.1636 60.9219 17.3516 61.7354 17.3516 62.7377C17.3516 63.7401 18.1636 64.5536 19.1682 64.5536H66.4016C67.4062 64.5536 68.2182 63.7401 68.2182 62.7377C68.2182 61.7354 67.4062 60.9219 66.4016 60.9219Z" fill="#007AFF"/>
<path d="M66.4016 60.9219H19.1682C18.1636 60.9219 17.3516 61.7354 17.3516 62.7377C17.3516 63.7401 18.1636 64.5536 19.1682 64.5536H66.4016C67.4062 64.5536 68.2182 63.7401 68.2182 62.7377C68.2182 61.7354 67.4062 60.9219 66.4016 60.9219Z" stroke="white" stroke-width="1.25"/>
<path d="M66.4016 60.9219H19.1682C18.1636 60.9219 17.3516 61.7354 17.3516 62.7377C17.3516 63.7401 18.1636 64.5536 19.1682 64.5536H66.4016C67.4062 64.5536 68.2182 63.7401 68.2182 62.7377C68.2182 61.7354 67.4062 60.9219 66.4016 60.9219Z" stroke="#007AFF" stroke-opacity="0.04" stroke-width="1.25"/>
<path fill-rule="evenodd" clip-rule="evenodd" d="M99.2308 1.12711L37.2062 1C31.2657 1 26.4333 5.83013 26.4333 11.7679V21.0723L11.7728 21.1031C5.83233 21.1031 1 25.9333 1 31.8711V70.2597C1 76.1975 5.83233 81.0258 11.7728 81.0258H22.8V99.1842C22.8 99.9341 23.2614 100.608 23.9627 100.878C24.1752 100.96 24.3969 101 24.6167 101C25.1181 101 25.6104 100.791 25.961 100.406L43.5899 81.0222L73.7938 80.8987C79.7343 80.8987 84.5667 76.0686 84.5667 70.1326V69.9274L94.1223 80.4338C94.4729 80.8188 94.9653 81.0276 95.4667 81.0276C95.6865 81.0276 95.9081 80.9876 96.1207 80.9059C96.8219 80.6354 97.2833 79.9617 97.2833 79.2118V61.0534H99.2272C105.168 61.0534 110 56.2233 110 50.2873V11.895C110 5.95905 105.169 1.12892 99.2308 1.12711ZM80.9333 70.1308C80.9333 74.0657 77.7306 77.2652 73.7866 77.2652L42.7761 77.3923C42.2674 77.3941 41.7805 77.6102 41.439 77.9861L26.4333 94.4866V79.2081C26.4333 78.2058 25.6213 77.3923 24.6167 77.3923H11.7728C7.83612 77.3923 4.63333 74.191 4.63333 70.2579V31.8692C4.63333 27.9343 7.83612 24.733 11.7765 24.733L28.25 24.6985H28.2536L73.7938 24.6041C77.7306 24.6041 80.9333 27.8054 80.9333 31.7403V65.2262V70.1308ZM99.2272 57.4181C103.164 57.4181 106.367 54.2186 106.367 50.2837H106.368V11.8932C106.368 7.95829 103.166 4.75697 99.229 4.75697H99.2253L37.2025 4.62986C33.2695 4.62986 30.0667 7.83118 30.0667 11.7661V21.0632L73.7902 20.9742C79.7343 20.9742 84.5667 25.8043 84.5667 31.7421V64.5253L93.65 74.5124V59.2339C93.65 58.2316 94.4621 57.4181 95.4667 57.4181H99.2272Z" fill="#007AFF"/>
<path d="M37.2062 1L37.2074 0.375H37.2062V1ZM99.2308 1.12711L99.2295 1.75211L99.2306 1.75211L99.2308 1.12711ZM26.4333 21.0723L26.4346 21.6973L27.0583 21.696V21.0723H26.4333ZM11.7728 21.1031V21.7281L11.7741 21.7281L11.7728 21.1031ZM22.8 81.0258H23.425V80.4008H22.8V81.0258ZM23.9627 100.878L23.7377 101.461L23.7384 101.462L23.9627 100.878ZM25.961 100.406L26.4231 100.827L26.4234 100.827L25.961 100.406ZM43.5899 81.0222L43.5874 80.3972L43.3125 80.3983L43.1276 80.6016L43.5899 81.0222ZM73.7938 80.8987V80.2737L73.7913 80.2737L73.7938 80.8987ZM84.5667 69.9274L85.029 69.5069L83.9417 68.3113V69.9274H84.5667ZM94.1223 80.4338L93.66 80.8543L93.6603 80.8547L94.1223 80.4338ZM96.1207 80.9059L96.3449 81.4893L96.3456 81.489L96.1207 80.9059ZM97.2833 61.0534V60.4284H96.6583V61.0534H97.2833ZM73.7866 77.2652V76.6402L73.784 76.6402L73.7866 77.2652ZM42.7761 77.3923L42.7783 78.0173H42.7786L42.7761 77.3923ZM41.439 77.9861L41.9014 78.4066L41.9016 78.4064L41.439 77.9861ZM26.4333 94.4866H25.8083V96.1028L26.8957 94.9071L26.4333 94.4866ZM11.7765 24.733V25.358L11.7778 25.358L11.7765 24.733ZM28.25 24.6985V24.0735L28.2487 24.0735L28.25 24.6985ZM28.2536 24.6985V25.3235L28.2549 25.3235L28.2536 24.6985ZM73.7938 24.6041V23.9791L73.7925 23.9791L73.7938 24.6041ZM106.367 50.2837V49.6587H105.742V50.2837H106.367ZM106.368 50.2837V50.9087H106.993V50.2837H106.368ZM99.2253 4.75697L99.2241 5.38197H99.2253V4.75697ZM37.2025 4.62986L37.2038 4.00486H37.2025V4.62986ZM30.0667 21.0632H29.4417V21.6895L30.0679 21.6882L30.0667 21.0632ZM73.7902 20.9742V20.3492L73.7889 20.3492L73.7902 20.9742ZM84.5667 64.5253H83.9417V64.767L84.1043 64.9458L84.5667 64.5253ZM93.65 74.5124L93.1876 74.9329L94.275 76.1285V74.5124H93.65ZM37.2049 1.625L99.2295 1.75211L99.2321 0.50211L37.2074 0.375001L37.2049 1.625ZM27.0583 11.7679C27.0583 6.17558 31.6106 1.625 37.2062 1.625V0.375C30.9208 0.375 25.8083 5.48468 25.8083 11.7679H27.0583ZM27.0583 21.0723V11.7679H25.8083V21.0723H27.0583ZM11.7741 21.7281L26.4346 21.6973L26.432 20.4473L11.7715 20.4781L11.7741 21.7281ZM1.625 31.8711C1.625 26.2787 6.17724 21.7281 11.7728 21.7281V20.4781C5.48742 20.4781 0.375 25.5878 0.375 31.8711H1.625ZM1.625 70.2597V31.8711H0.375V70.2597H1.625ZM11.7728 80.4008C6.1771 80.4008 1.625 75.8519 1.625 70.2597H0.375C0.375 76.5431 5.48756 81.6508 11.7728 81.6508V80.4008ZM22.8 80.4008H11.7728V81.6508H22.8V80.4008ZM23.425 99.1842V81.0258H22.175V99.1842H23.425ZM24.1876 100.295C23.7275 100.118 23.425 99.6758 23.425 99.1842H22.175C22.175 100.192 22.7953 101.098 23.7377 101.461L24.1876 100.295ZM24.6167 100.375C24.4727 100.375 24.3271 100.349 24.1869 100.295L23.7384 101.462C24.0233 101.571 24.321 101.625 24.6167 101.625V100.375ZM25.4989 99.9854C25.2692 100.238 24.9459 100.375 24.6167 100.375V101.625C25.2903 101.625 25.9516 101.345 26.4231 100.827L25.4989 99.9854ZM43.1276 80.6016L25.4986 99.9857L26.4234 100.827L44.0523 81.4427L43.1276 80.6016ZM73.7913 80.2737L43.5874 80.3972L43.5925 81.6471L73.7964 81.5237L73.7913 80.2737ZM83.9417 70.1326C83.9417 75.723 79.3895 80.2737 73.7938 80.2737V81.5237C80.0792 81.5237 85.1917 76.4141 85.1917 70.1326H83.9417ZM83.9417 69.9274V70.1326H85.1917V69.9274H83.9417ZM94.5847 80.0133L85.029 69.5069L84.1043 70.3479L93.66 80.8543L94.5847 80.0133ZM95.4667 80.4026C95.1375 80.4026 94.8141 80.2652 94.5844 80.013L93.6603 80.8547C94.1318 81.3724 94.7931 81.6526 95.4667 81.6526V80.4026ZM95.8964 80.3226C95.7562 80.3765 95.6106 80.4026 95.4667 80.4026V81.6526C95.7623 81.6526 96.06 81.5988 96.3449 81.4893L95.8964 80.3226ZM96.6583 79.2118C96.6583 79.7034 96.3558 80.1453 95.8957 80.3228L96.3456 81.489C97.288 81.1254 97.9083 80.22 97.9083 79.2118H96.6583ZM96.6583 61.0534V79.2118H97.9083V61.0534H96.6583ZM99.2272 60.4284H97.2833V61.6784H99.2272V60.4284ZM109.375 50.2873C109.375 55.8777 104.823 60.4284 99.2272 60.4284V61.6784C105.513 61.6784 110.625 56.5688 110.625 50.2873H109.375ZM109.375 11.895V50.2873H110.625V11.895H109.375ZM99.2306 1.75211C104.824 1.75382 109.375 6.3044 109.375 11.895H110.625C110.625 5.61371 105.515 0.50403 99.231 0.502109L99.2306 1.75211ZM73.7866 77.8902C78.0748 77.8902 81.5583 74.4118 81.5583 70.1308H80.3083C80.3083 73.7196 77.3863 76.6402 73.7866 76.6402V77.8902ZM42.7786 78.0173L73.7891 77.8902L73.784 76.6402L42.7735 76.7673L42.7786 78.0173ZM41.9016 78.4064C42.1248 78.1607 42.4445 78.0185 42.7783 78.0173L42.7738 76.7673C42.0903 76.7697 41.4362 77.0597 40.9764 77.5658L41.9016 78.4064ZM26.8957 94.9071L41.9014 78.4066L40.9766 77.5656L25.9709 94.0661L26.8957 94.9071ZM25.8083 79.2081V94.4866H27.0583V79.2081H25.8083ZM24.6167 78.0173C25.276 78.0173 25.8083 78.5508 25.8083 79.2081H27.0583C27.0583 77.8607 25.9666 76.7673 24.6167 76.7673V78.0173ZM11.7728 78.0173H24.6167V76.7673H11.7728V78.0173ZM4.00833 70.2579C4.00833 74.5365 7.49131 78.0173 11.7728 78.0173V76.7673C8.18092 76.7673 5.25833 73.8454 5.25833 70.2579H4.00833ZM4.00833 31.8692V70.2579H5.25833V31.8692H4.00833ZM11.7765 24.108C7.49142 24.108 4.00833 27.5887 4.00833 31.8692H5.25833C5.25833 28.28 8.18082 25.358 11.7765 25.358V24.108ZM28.2487 24.0735L11.7752 24.108L11.7778 25.358L28.2513 25.3235L28.2487 24.0735ZM28.2536 24.0735H28.25V25.3235H28.2536V24.0735ZM73.7925 23.9791L28.2523 24.0735L28.2549 25.3235L73.7951 25.2291L73.7925 23.9791ZM81.5583 31.7403C81.5583 27.4599 78.0755 23.9791 73.7938 23.9791V25.2291C77.3856 25.2291 80.3083 28.1508 80.3083 31.7403H81.5583ZM81.5583 65.2262V31.7403H80.3083V65.2262H81.5583ZM81.5583 70.1308V65.2262H80.3083V70.1308H81.5583ZM105.742 50.2837C105.742 53.8729 102.819 56.7931 99.2272 56.7931V58.0431C103.509 58.0431 106.992 54.5642 106.992 50.2837H105.742ZM106.368 49.6587H106.367V50.9087H106.368V49.6587ZM105.743 11.8932V50.2837H106.993V11.8932H105.743ZM99.229 5.38197C102.821 5.38197 105.743 8.30374 105.743 11.8932H106.993C106.993 7.61284 103.511 4.13197 99.229 4.13197V5.38197ZM99.2253 5.38197H99.229V4.13197H99.2253V5.38197ZM37.2013 5.25486L99.2241 5.38197L99.2266 4.13197L37.2038 4.00486L37.2013 5.25486ZM30.6917 11.7661C30.6917 8.17642 33.6146 5.25486 37.2025 5.25486V4.00486C32.9243 4.00486 29.4417 7.48594 29.4417 11.7661H30.6917ZM30.6917 21.0632V11.7661H29.4417V21.0632H30.6917ZM73.7889 20.3492L30.0654 20.4382L30.0679 21.6882L73.7915 21.5992L73.7889 20.3492ZM85.1917 31.7421C85.1917 25.4588 80.0791 20.3492 73.7902 20.3492V21.5992C79.3896 21.5992 83.9417 26.1499 83.9417 31.7421H85.1917ZM85.1917 64.5253V31.7421H83.9417V64.5253H85.1917ZM94.1124 74.0919L85.029 64.1047L84.1043 64.9458L93.1876 74.9329L94.1124 74.0919ZM93.025 59.2339V74.5124H94.275V59.2339H93.025ZM95.4667 56.7931C94.1167 56.7931 93.025 57.8865 93.025 59.2339H94.275C94.275 58.5766 94.8074 58.0431 95.4667 58.0431V56.7931ZM99.2272 56.7931H95.4667V58.0431H99.2272V56.7931Z" fill="white"/>
<path d="M37.2062 1L37.2074 0.375H37.2062V1ZM99.2308 1.12711L99.2295 1.75211L99.2306 1.75211L99.2308 1.12711ZM26.4333 21.0723L26.4346 21.6973L27.0583 21.696V21.0723H26.4333ZM11.7728 21.1031V21.7281L11.7741 21.7281L11.7728 21.1031ZM22.8 81.0258H23.425V80.4008H22.8V81.0258ZM23.9627 100.878L23.7377 101.461L23.7384 101.462L23.9627 100.878ZM25.961 100.406L26.4231 100.827L26.4234 100.827L25.961 100.406ZM43.5899 81.0222L43.5874 80.3972L43.3125 80.3983L43.1276 80.6016L43.5899 81.0222ZM73.7938 80.8987V80.2737L73.7913 80.2737L73.7938 80.8987ZM84.5667 69.9274L85.029 69.5069L83.9417 68.3113V69.9274H84.5667ZM94.1223 80.4338L93.66 80.8543L93.6603 80.8547L94.1223 80.4338ZM96.1207 80.9059L96.3449 81.4893L96.3456 81.489L96.1207 80.9059ZM97.2833 61.0534V60.4284H96.6583V61.0534H97.2833ZM73.7866 77.2652V76.6402L73.784 76.6402L73.7866 77.2652ZM42.7761 77.3923L42.7783 78.0173H42.7786L42.7761 77.3923ZM41.439 77.9861L41.9014 78.4066L41.9016 78.4064L41.439 77.9861ZM26.4333 94.4866H25.8083V96.1028L26.8957 94.9071L26.4333 94.4866ZM11.7765 24.733V25.358L11.7778 25.358L11.7765 24.733ZM28.25 24.6985V24.0735L28.2487 24.0735L28.25 24.6985ZM28.2536 24.6985V25.3235L28.2549 25.3235L28.2536 24.6985ZM73.7938 24.6041V23.9791L73.7925 23.9791L73.7938 24.6041ZM106.367 50.2837V49.6587H105.742V50.2837H106.367ZM106.368 50.2837V50.9087H106.993V50.2837H106.368ZM99.2253 4.75697L99.2241 5.38197H99.2253V4.75697ZM37.2025 4.62986L37.2038 4.00486H37.2025V4.62986ZM30.0667 21.0632H29.4417V21.6895L30.0679 21.6882L30.0667 21.0632ZM73.7902 20.9742V20.3492L73.7889 20.3492L73.7902 20.9742ZM84.5667 64.5253H83.9417V64.767L84.1043 64.9458L84.5667 64.5253ZM93.65 74.5124L93.1876 74.9329L94.275 76.1285V74.5124H93.65ZM37.2049 1.625L99.2295 1.75211L99.2321 0.50211L37.2074 0.375001L37.2049 1.625ZM27.0583 11.7679C27.0583 6.17558 31.6106 1.625 37.2062 1.625V0.375C30.9208 0.375 25.8083 5.48468 25.8083 11.7679H27.0583ZM27.0583 21.0723V11.7679H25.8083V21.0723H27.0583ZM11.7741 21.7281L26.4346 21.6973L26.432 20.4473L11.7715 20.4781L11.7741 21.7281ZM1.625 31.8711C1.625 26.2787 6.17724 21.7281 11.7728 21.7281V20.4781C5.48742 20.4781 0.375 25.5878 0.375 31.8711H1.625ZM1.625 70.2597V31.8711H0.375V70.2597H1.625ZM11.7728 80.4008C6.1771 80.4008 1.625 75.8519 1.625 70.2597H0.375C0.375 76.5431 5.48756 81.6508 11.7728 81.6508V80.4008ZM22.8 80.4008H11.7728V81.6508H22.8V80.4008ZM23.425 99.1842V81.0258H22.175V99.1842H23.425ZM24.1876 100.295C23.7275 100.118 23.425 99.6758 23.425 99.1842H22.175C22.175 100.192 22.7953 101.098 23.7377 101.461L24.1876 100.295ZM24.6167 100.375C24.4727 100.375 24.3271 100.349 24.1869 100.295L23.7384 101.462C24.0233 101.571 24.321 101.625 24.6167 101.625V100.375ZM25.4989 99.9854C25.2692 100.238 24.9459 100.375 24.6167 100.375V101.625C25.2903 101.625 25.9516 101.345 26.4231 100.827L25.4989 99.9854ZM43.1276 80.6016L25.4986 99.9857L26.4234 100.827L44.0523 81.4427L43.1276 80.6016ZM73.7913 80.2737L43.5874 80.3972L43.5925 81.6471L73.7964 81.5237L73.7913 80.2737ZM83.9417 70.1326C83.9417 75.723 79.3895 80.2737 73.7938 80.2737V81.5237C80.0792 81.5237 85.1917 76.4141 85.1917 70.1326H83.9417ZM83.9417 69.9274V70.1326H85.1917V69.9274H83.9417ZM94.5847 80.0133L85.029 69.5069L84.1043 70.3479L93.66 80.8543L94.5847 80.0133ZM95.4667 80.4026C95.1375 80.4026 94.8141 80.2652 94.5844 80.013L93.6603 80.8547C94.1318 81.3724 94.7931 81.6526 95.4667 81.6526V80.4026ZM95.8964 80.3226C95.7562 80.3765 95.6106 80.4026 95.4667 80.4026V81.6526C95.7623 81.6526 96.06 81.5988 96.3449 81.4893L95.8964 80.3226ZM96.6583 79.2118C96.6583 79.7034 96.3558 80.1453 95.8957 80.3228L96.3456 81.489C97.288 81.1254 97.9083 80.22 97.9083 79.2118H96.6583ZM96.6583 61.0534V79.2118H97.9083V61.0534H96.6583ZM99.2272 60.4284H97.2833V61.6784H99.2272V60.4284ZM109.375 50.2873C109.375 55.8777 104.823 60.4284 99.2272 60.4284V61.6784C105.513 61.6784 110.625 56.5688 110.625 50.2873H109.375ZM109.375 11.895V50.2873H110.625V11.895H109.375ZM99.2306 1.75211C104.824 1.75382 109.375 6.3044 109.375 11.895H110.625C110.625 5.61371 105.515 0.50403 99.231 0.502109L99.2306 1.75211ZM73.7866 77.8902C78.0748 77.8902 81.5583 74.4118 81.5583 70.1308H80.3083C80.3083 73.7196 77.3863 76.6402 73.7866 76.6402V77.8902ZM42.7786 78.0173L73.7891 77.8902L73.784 76.6402L42.7735 76.7673L42.7786 78.0173ZM41.9016 78.4064C42.1248 78.1607 42.4445 78.0185 42.7783 78.0173L42.7738 76.7673C42.0903 76.7697 41.4362 77.0597 40.9764 77.5658L41.9016 78.4064ZM26.8957 94.9071L41.9014 78.4066L40.9766 77.5656L25.9709 94.0661L26.8957 94.9071ZM25.8083 79.2081V94.4866H27.0583V79.2081H25.8083ZM24.6167 78.0173C25.276 78.0173 25.8083 78.5508 25.8083 79.2081H27.0583C27.0583 77.8607 25.9666 76.7673 24.6167 76.7673V78.0173ZM11.7728 78.0173H24.6167V76.7673H11.7728V78.0173ZM4.00833 70.2579C4.00833 74.5365 7.49131 78.0173 11.7728 78.0173V76.7673C8.18092 76.7673 5.25833 73.8454 5.25833 70.2579H4.00833ZM4.00833 31.8692V70.2579H5.25833V31.8692H4.00833ZM11.7765 24.108C7.49142 24.108 4.00833 27.5887 4.00833 31.8692H5.25833C5.25833 28.28 8.18082 25.358 11.7765 25.358V24.108ZM28.2487 24.0735L11.7752 24.108L11.7778 25.358L28.2513 25.3235L28.2487 24.0735ZM28.2536 24.0735H28.25V25.3235H28.2536V24.0735ZM73.7925 23.9791L28.2523 24.0735L28.2549 25.3235L73.7951 25.2291L73.7925 23.9791ZM81.5583 31.7403C81.5583 27.4599 78.0755 23.9791 73.7938 23.9791V25.2291C77.3856 25.2291 80.3083 28.1508 80.3083 31.7403H81.5583ZM81.5583 65.2262V31.7403H80.3083V65.2262H81.5583ZM81.5583 70.1308V65.2262H80.3083V70.1308H81.5583ZM105.742 50.2837C105.742 53.8729 102.819 56.7931 99.2272 56.7931V58.0431C103.509 58.0431 106.992 54.5642 106.992 50.2837H105.742ZM106.368 49.6587H106.367V50.9087H106.368V49.6587ZM105.743 11.8932V50.2837H106.993V11.8932H105.743ZM99.229 5.38197C102.821 5.38197 105.743 8.30374 105.743 11.8932H106.993C106.993 7.61284 103.511 4.13197 99.229 4.13197V5.38197ZM99.2253 5.38197H99.229V4.13197H99.2253V5.38197ZM37.2013 5.25486L99.2241 5.38197L99.2266 4.13197L37.2038 4.00486L37.2013 5.25486ZM30.6917 11.7661C30.6917 8.17642 33.6146 5.25486 37.2025 5.25486V4.00486C32.9243 4.00486 29.4417 7.48594 29.4417 11.7661H30.6917ZM30.6917 21.0632V11.7661H29.4417V21.0632H30.6917ZM73.7889 20.3492L30.0654 20.4382L30.0679 21.6882L73.7915 21.5992L73.7889 20.3492ZM85.1917 31.7421C85.1917 25.4588 80.0791 20.3492 73.7902 20.3492V21.5992C79.3896 21.5992 83.9417 26.1499 83.9417 31.7421H85.1917ZM85.1917 64.5253V31.7421H83.9417V64.5253H85.1917ZM94.1124 74.0919L85.029 64.1047L84.1043 64.9458L93.1876 74.9329L94.1124 74.0919ZM93.025 59.2339V74.5124H94.275V59.2339H93.025ZM95.4667 56.7931C94.1167 56.7931 93.025 57.8865 93.025 59.2339H94.275C94.275 58.5766 94.8074 58.0431 95.4667 58.0431V56.7931ZM99.2272 56.7931H95.4667V58.0431H99.2272V56.7931Z" fill="#007AFF" fill-opacity="0.04"/>
</svg>
