<svg width="92" height="101" viewBox="0 0 92 101" fill="none" xmlns="http://www.w3.org/2000/svg">
<path fill-rule="evenodd" clip-rule="evenodd" d="M46.9542 0.247924C60.1721 7.62055 74.8962 13.5201 89.5342 17.309C90.3972 17.5324 90.9998 18.3098 91 19.1996V40.761C91 62.9359 80.1817 77.6044 71.1067 86.005C61.3717 95.0162 50.0821 100 46 100C41.9179 100 30.6283 95.0162 20.8933 86.005C11.8179 77.6044 1 62.9357 1 40.761V19.1998C1 18.3099 1.6026 17.5326 2.46542 17.3092C17.5194 13.4125 31.4475 7.83187 45.0456 0.247924C45.6388 -0.0827389 46.3614 -0.0825436 46.9542 0.247924ZM54.3689 93.0457C57.8151 91.2815 63.0545 88.1307 68.446 83.1399C76.9498 75.2683 87.0866 61.5262 87.0868 40.7606H87.0866V20.7041C72.9659 16.9178 58.8147 11.2291 46 4.18638C32.8519 11.4229 19.3839 16.8375 4.91281 20.7047V40.7606C4.91281 61.5262 15.0499 75.2683 23.5536 83.1399C28.9453 88.1307 34.1849 91.2815 37.6307 93.0457C41.9976 95.2817 45.0282 96.0932 45.9998 96.0932C46.9714 96.0932 50.0022 95.2815 54.3689 93.0457Z" fill="#007AFF"/>
<path d="M89.5342 17.309L89.6908 16.7039L89.6908 16.7039L89.5342 17.309ZM46.9542 0.247924L47.2586 -0.29791L47.2585 -0.297985L46.9542 0.247924ZM91 19.1996H91.625V19.1995L91 19.1996ZM71.1067 86.005L71.5312 86.4636V86.4636L71.1067 86.005ZM20.8933 86.005L21.3179 85.5463H21.3179L20.8933 86.005ZM2.46542 17.3092L2.3088 16.7041L2.30874 16.7041L2.46542 17.3092ZM45.0456 0.247924L44.7413 -0.297994L44.7412 -0.297922L45.0456 0.247924ZM68.446 83.1399L68.0214 82.6813L68.446 83.1399ZM54.3689 93.0457L54.0841 92.4894L54.0841 92.4894L54.3689 93.0457ZM87.0868 40.7606L87.7118 40.7606L87.7118 40.1356H87.0868V40.7606ZM87.0866 40.7606H86.4616V41.3856H87.0866V40.7606ZM87.0866 20.7041H87.7116V20.2246L87.2485 20.1004L87.0866 20.7041ZM46 4.18638L46.301 3.63865L45.9998 3.47309L45.6986 3.63884L46 4.18638ZM4.91281 20.7047L4.75145 20.1009L4.28781 20.2248V20.7047H4.91281ZM23.5536 83.1399L23.129 83.5986L23.129 83.5986L23.5536 83.1399ZM37.6307 93.0457L37.9155 92.4894H37.9155L37.6307 93.0457ZM89.6908 16.7039C75.1045 12.9284 60.4301 7.04877 47.2586 -0.29791L46.6497 0.793757C59.9142 8.19232 74.688 14.1118 89.3776 17.914L89.6908 16.7039ZM91.625 19.1995C91.6247 18.0241 90.8289 16.9986 89.6908 16.7039L89.3775 17.914C89.9655 18.0663 90.3749 18.5954 90.375 19.1997L91.625 19.1995ZM91.625 40.761V19.1996H90.375V40.761H91.625ZM71.5312 86.4636C80.69 77.9855 91.625 63.1622 91.625 40.761H90.375C90.375 62.7097 79.6734 77.2233 70.6821 85.5463L71.5312 86.4636ZM46 100.625C47.123 100.625 48.6709 100.288 50.4776 99.6721C52.2975 99.052 54.425 98.1339 56.7225 96.9359C61.317 94.5401 66.6196 91.0101 71.5312 86.4636L70.6821 85.5463C65.8587 90.0111 60.649 93.4787 56.1445 95.8275C53.8924 97.0019 51.8237 97.8929 50.0745 98.4889C48.3121 99.0893 46.918 99.375 46 99.375V100.625ZM20.4688 86.4636C25.3804 91.0101 30.683 94.5401 35.2775 96.9359C37.575 98.1339 39.7025 99.052 41.5224 99.6721C43.3291 100.288 44.877 100.625 46 100.625V99.375C45.082 99.375 43.6879 99.0893 41.9255 98.4889C40.1763 97.8929 38.1076 97.0019 35.8555 95.8275C31.351 93.4787 26.1413 90.0111 21.3179 85.5463L20.4688 86.4636ZM0.375 40.761C0.375 63.162 11.3096 77.9855 20.4688 86.4636L21.3179 85.5463C12.3262 77.2233 1.625 62.7095 1.625 40.761H0.375ZM0.375 19.1998V40.761H1.625V19.1998H0.375ZM2.30874 16.7041C1.17089 16.9988 0.375 18.0244 0.375 19.1998H1.625C1.625 18.5955 2.03431 18.0664 2.6221 17.9142L2.30874 16.7041ZM44.7412 -0.297922C31.1896 7.2601 17.3111 12.8208 2.3088 16.7041L2.62204 17.9142C17.7276 14.0042 31.7055 8.40365 45.35 0.793769L44.7412 -0.297922ZM47.2585 -0.297985C46.4766 -0.733877 45.5238 -0.73413 44.7413 -0.297994L45.3499 0.793842C45.7539 0.568653 46.2462 0.56879 46.6499 0.793832L47.2585 -0.297985ZM68.0214 82.6813C62.6809 87.6249 57.4918 90.7449 54.0841 92.4894L54.6538 93.6021C58.1384 91.8181 63.428 88.6366 68.8706 83.5986L68.0214 82.6813ZM86.4618 40.7606C86.4616 61.2998 76.4416 74.887 68.0214 82.6813L68.8706 83.5986C77.458 75.6495 87.7116 61.7525 87.7118 40.7606L86.4618 40.7606ZM87.0866 41.3856H87.0868V40.1356H87.0866V41.3856ZM86.4616 20.7041V40.7606H87.7116V20.7041H86.4616ZM45.699 4.73411C58.5577 11.801 72.7556 17.5084 86.9247 21.3078L87.2485 20.1004C73.1762 16.3271 59.0718 10.6572 46.301 3.63865L45.699 4.73411ZM5.07417 21.3085C19.5941 17.4282 33.1091 11.9947 46.3014 4.73393L45.6986 3.63884C32.5947 10.851 19.1737 16.2467 4.75145 20.1009L5.07417 21.3085ZM5.53781 40.7606V20.7047H4.28781V40.7606H5.53781ZM23.9782 82.6813C15.5581 74.887 5.53781 61.2998 5.53781 40.7606H4.28781C4.28781 61.7525 14.5417 75.6495 23.129 83.5986L23.9782 82.6813ZM37.9155 92.4894C34.5082 90.7449 29.3189 87.6249 23.9782 82.6813L23.129 83.5986C28.5718 88.6366 33.8616 91.8181 37.3458 93.6021L37.9155 92.4894ZM45.9998 95.4682C45.6236 95.4682 44.7061 95.2957 43.2889 94.8159C41.8961 94.3445 40.0749 93.5951 37.9155 92.4894L37.3458 93.6021C39.5533 94.7323 41.4309 95.5067 42.8881 95.9999C44.3208 96.4849 45.4044 96.7182 45.9998 96.7182V95.4682ZM54.0841 92.4894C51.9248 93.595 50.1036 94.3444 48.7108 94.8159C47.2936 95.2956 46.376 95.4682 45.9998 95.4682V96.7182C46.5952 96.7182 47.6788 96.4849 49.1116 95.9999C50.5688 95.5066 52.4464 94.7322 54.6538 93.6021L54.0841 92.4894Z" fill="white"/>
<path d="M89.5342 17.309L89.6908 16.7039L89.6908 16.7039L89.5342 17.309ZM46.9542 0.247924L47.2586 -0.29791L47.2585 -0.297985L46.9542 0.247924ZM91 19.1996H91.625V19.1995L91 19.1996ZM71.1067 86.005L71.5312 86.4636V86.4636L71.1067 86.005ZM20.8933 86.005L21.3179 85.5463H21.3179L20.8933 86.005ZM2.46542 17.3092L2.3088 16.7041L2.30874 16.7041L2.46542 17.3092ZM45.0456 0.247924L44.7413 -0.297994L44.7412 -0.297922L45.0456 0.247924ZM68.446 83.1399L68.0214 82.6813L68.446 83.1399ZM54.3689 93.0457L54.0841 92.4894L54.0841 92.4894L54.3689 93.0457ZM87.0868 40.7606L87.7118 40.7606L87.7118 40.1356H87.0868V40.7606ZM87.0866 40.7606H86.4616V41.3856H87.0866V40.7606ZM87.0866 20.7041H87.7116V20.2246L87.2485 20.1004L87.0866 20.7041ZM46 4.18638L46.301 3.63865L45.9998 3.47309L45.6986 3.63884L46 4.18638ZM4.91281 20.7047L4.75145 20.1009L4.28781 20.2248V20.7047H4.91281ZM23.5536 83.1399L23.129 83.5986L23.129 83.5986L23.5536 83.1399ZM37.6307 93.0457L37.9155 92.4894H37.9155L37.6307 93.0457ZM89.6908 16.7039C75.1045 12.9284 60.4301 7.04877 47.2586 -0.29791L46.6497 0.793757C59.9142 8.19232 74.688 14.1118 89.3776 17.914L89.6908 16.7039ZM91.625 19.1995C91.6247 18.0241 90.8289 16.9986 89.6908 16.7039L89.3775 17.914C89.9655 18.0663 90.3749 18.5954 90.375 19.1997L91.625 19.1995ZM91.625 40.761V19.1996H90.375V40.761H91.625ZM71.5312 86.4636C80.69 77.9855 91.625 63.1622 91.625 40.761H90.375C90.375 62.7097 79.6734 77.2233 70.6821 85.5463L71.5312 86.4636ZM46 100.625C47.123 100.625 48.6709 100.288 50.4776 99.6721C52.2975 99.052 54.425 98.1339 56.7225 96.9359C61.317 94.5401 66.6196 91.0101 71.5312 86.4636L70.6821 85.5463C65.8587 90.0111 60.649 93.4787 56.1445 95.8275C53.8924 97.0019 51.8237 97.8929 50.0745 98.4889C48.3121 99.0893 46.918 99.375 46 99.375V100.625ZM20.4688 86.4636C25.3804 91.0101 30.683 94.5401 35.2775 96.9359C37.575 98.1339 39.7025 99.052 41.5224 99.6721C43.3291 100.288 44.877 100.625 46 100.625V99.375C45.082 99.375 43.6879 99.0893 41.9255 98.4889C40.1763 97.8929 38.1076 97.0019 35.8555 95.8275C31.351 93.4787 26.1413 90.0111 21.3179 85.5463L20.4688 86.4636ZM0.375 40.761C0.375 63.162 11.3096 77.9855 20.4688 86.4636L21.3179 85.5463C12.3262 77.2233 1.625 62.7095 1.625 40.761H0.375ZM0.375 19.1998V40.761H1.625V19.1998H0.375ZM2.30874 16.7041C1.17089 16.9988 0.375 18.0244 0.375 19.1998H1.625C1.625 18.5955 2.03431 18.0664 2.6221 17.9142L2.30874 16.7041ZM44.7412 -0.297922C31.1896 7.2601 17.3111 12.8208 2.3088 16.7041L2.62204 17.9142C17.7276 14.0042 31.7055 8.40365 45.35 0.793769L44.7412 -0.297922ZM47.2585 -0.297985C46.4766 -0.733877 45.5238 -0.73413 44.7413 -0.297994L45.3499 0.793842C45.7539 0.568653 46.2462 0.56879 46.6499 0.793832L47.2585 -0.297985ZM68.0214 82.6813C62.6809 87.6249 57.4918 90.7449 54.0841 92.4894L54.6538 93.6021C58.1384 91.8181 63.428 88.6366 68.8706 83.5986L68.0214 82.6813ZM86.4618 40.7606C86.4616 61.2998 76.4416 74.887 68.0214 82.6813L68.8706 83.5986C77.458 75.6495 87.7116 61.7525 87.7118 40.7606L86.4618 40.7606ZM87.0866 41.3856H87.0868V40.1356H87.0866V41.3856ZM86.4616 20.7041V40.7606H87.7116V20.7041H86.4616ZM45.699 4.73411C58.5577 11.801 72.7556 17.5084 86.9247 21.3078L87.2485 20.1004C73.1762 16.3271 59.0718 10.6572 46.301 3.63865L45.699 4.73411ZM5.07417 21.3085C19.5941 17.4282 33.1091 11.9947 46.3014 4.73393L45.6986 3.63884C32.5947 10.851 19.1737 16.2467 4.75145 20.1009L5.07417 21.3085ZM5.53781 40.7606V20.7047H4.28781V40.7606H5.53781ZM23.9782 82.6813C15.5581 74.887 5.53781 61.2998 5.53781 40.7606H4.28781C4.28781 61.7525 14.5417 75.6495 23.129 83.5986L23.9782 82.6813ZM37.9155 92.4894C34.5082 90.7449 29.3189 87.6249 23.9782 82.6813L23.129 83.5986C28.5718 88.6366 33.8616 91.8181 37.3458 93.6021L37.9155 92.4894ZM45.9998 95.4682C45.6236 95.4682 44.7061 95.2957 43.2889 94.8159C41.8961 94.3445 40.0749 93.5951 37.9155 92.4894L37.3458 93.6021C39.5533 94.7323 41.4309 95.5067 42.8881 95.9999C44.3208 96.4849 45.4044 96.7182 45.9998 96.7182V95.4682ZM54.0841 92.4894C51.9248 93.595 50.1036 94.3444 48.7108 94.8159C47.2936 95.2956 46.376 95.4682 45.9998 95.4682V96.7182C46.5952 96.7182 47.6788 96.4849 49.1116 95.9999C50.5688 95.5066 52.4464 94.7322 54.6538 93.6021L54.0841 92.4894Z" fill="#007AFF" fill-opacity="0.04"/>
<path fill-rule="evenodd" clip-rule="evenodd" d="M46.9206 8.01374C58.2979 14.0514 70.35 18.9363 82.7417 22.5326C83.5771 22.7754 84.1519 23.5396 84.1517 24.4082V40.7605C84.1517 48.3929 82.7029 55.6358 79.8459 62.2881C77.0029 68.9076 72.7631 74.9486 67.2442 80.2437C63.2966 84.0308 58.7389 87.3681 54.0638 89.8946C53.226 90.3474 48.9172 92.6296 46.3548 93.1018C46.2374 93.1233 46.1186 93.1342 45.9997 93.1342C45.8807 93.1342 45.762 93.1233 45.6446 93.1018C43.0822 92.6296 38.7733 90.3474 37.9356 89.8946C33.2599 87.3681 28.7024 84.0308 24.7552 80.2437C19.2363 74.9482 14.9963 68.9074 12.1535 62.2881C9.29645 55.6356 7.84766 48.3927 7.84766 40.7605V24.4125C7.84766 23.5428 8.42385 22.7779 9.26064 22.5363C21.6355 18.9635 33.6874 14.0778 45.0821 8.01492C45.6565 7.70906 46.3458 7.70847 46.9206 8.01374ZM64.5329 77.4271C74.9548 67.4279 80.2389 55.0917 80.2389 40.7605H80.2387V25.8685C68.4187 22.3393 56.9121 17.661 46.0032 11.9479C35.0767 17.6852 23.569 22.3652 11.7607 25.8748V40.7605C11.7607 55.0915 17.045 67.4281 27.4667 77.4271C31.1639 80.9741 35.4281 84.0974 39.7984 86.4593C41.7873 87.5341 44.4726 88.7872 45.9997 89.1807C47.5267 88.7872 50.2121 87.5341 52.2012 86.4593C56.5713 84.0976 60.8355 80.9743 64.5329 77.4271Z" fill="#007AFF"/>
<path d="M82.7417 22.5326L82.9161 21.9325L82.9159 21.9324L82.7417 22.5326ZM46.9206 8.01374L46.6275 8.56573L46.6276 8.56582L46.9206 8.01374ZM84.1517 24.4082L83.5267 24.4081V24.4082H84.1517ZM79.8459 62.2881L80.4201 62.5347L79.8459 62.2881ZM67.2442 80.2437L67.6769 80.6947L67.6769 80.6947L67.2442 80.2437ZM54.0638 89.8946L54.361 90.4445L54.361 90.4445L54.0638 89.8946ZM46.3548 93.1018L46.4673 93.7166L46.4681 93.7165L46.3548 93.1018ZM45.6446 93.1018L45.5313 93.7165L45.5321 93.7166L45.6446 93.1018ZM37.9356 89.8946L38.2327 89.3448L38.2327 89.3448L37.9356 89.8946ZM24.7552 80.2437L24.3225 80.6947L24.3225 80.6947L24.7552 80.2437ZM12.1535 62.2881L12.7278 62.0415L12.7278 62.0415L12.1535 62.2881ZM9.26064 22.5363L9.08728 21.9359L9.08728 21.9359L9.26064 22.5363ZM45.0821 8.01492L45.3757 8.56667L45.3758 8.56659L45.0821 8.01492ZM80.2389 40.7605H80.8639V40.1355H80.2389V40.7605ZM64.5329 77.4271L64.9656 77.8781L64.9656 77.8781L64.5329 77.4271ZM80.2387 40.7605H79.6137V41.3855H80.2387V40.7605ZM80.2387 25.8685H80.8637V25.4029L80.4175 25.2697L80.2387 25.8685ZM46.0032 11.9479L46.2932 11.3942L46.0028 11.2422L45.7127 11.3946L46.0032 11.9479ZM11.7607 25.8748L11.5826 25.2757L11.1357 25.4085V25.8748H11.7607ZM27.4667 77.4271L27.034 77.8781L27.034 77.8781L27.4667 77.4271ZM39.7984 86.4593L39.5012 87.0091L39.5012 87.0091L39.7984 86.4593ZM45.9997 89.1807L45.8437 89.786L45.9997 89.8262L46.1557 89.786L45.9997 89.1807ZM52.2012 86.4593L52.4983 87.0091L52.4984 87.0091L52.2012 86.4593ZM82.9159 21.9324C70.5652 18.348 58.553 13.4792 47.2136 7.46167L46.6276 8.56582C58.0428 14.6236 70.1347 19.5247 82.5675 23.1329L82.9159 21.9324ZM84.7767 24.4083C84.777 23.2609 84.0177 22.2526 82.9161 21.9325L82.5673 23.1328C83.1365 23.2982 83.5269 23.8184 83.5267 24.4081L84.7767 24.4083ZM84.7767 40.7605V24.4082H83.5267V40.7605H84.7767ZM80.4201 62.5347C83.3125 55.8003 84.7767 48.473 84.7767 40.7605H83.5267C83.5267 48.3127 82.0934 55.4712 79.2716 62.0415L80.4201 62.5347ZM67.6769 80.6947C73.2524 75.3453 77.5421 69.2358 80.4201 62.5347L79.2716 62.0415C76.4636 68.5794 72.2738 74.5519 66.8115 79.7927L67.6769 80.6947ZM54.361 90.4445C59.0869 87.8904 63.6899 84.5195 67.6769 80.6947L66.8115 79.7927C62.9032 83.542 58.3909 86.8457 53.7667 89.3448L54.361 90.4445ZM46.4681 93.7165C47.8321 93.4651 49.6114 92.7465 51.1157 92.0594C52.6357 91.3651 53.9359 90.6742 54.361 90.4445L53.7667 89.3448C53.3539 89.5678 52.0809 90.2443 50.5964 90.9224C49.0963 91.6076 47.4399 92.2663 46.2415 92.4872L46.4681 93.7165ZM45.9997 93.7592C46.157 93.7592 46.3134 93.7448 46.4673 93.7166L46.2423 92.487C46.1614 92.5018 46.0803 92.5092 45.9997 92.5092V93.7592ZM45.5321 93.7166C45.686 93.7448 45.8424 93.7592 45.9997 93.7592V92.5092C45.9191 92.5092 45.838 92.5018 45.7571 92.487L45.5321 93.7166ZM37.6384 90.4445C38.0635 90.6742 39.3637 91.3651 40.8837 92.0594C42.388 92.7465 44.1672 93.4651 45.5313 93.7165L45.7579 92.4872C44.5595 92.2663 42.9031 91.6076 41.403 90.9224C39.9185 90.2443 38.6454 89.5678 38.2327 89.3448L37.6384 90.4445ZM24.3225 80.6947C28.3091 84.5195 32.9119 87.8904 37.6384 90.4445L38.2327 89.3448C33.6079 86.8457 29.0958 83.542 25.1879 79.7927L24.3225 80.6947ZM11.5793 62.5347C14.4571 69.2356 18.747 75.3449 24.3225 80.6947L25.1879 79.7927C19.7256 74.5515 15.5356 68.5792 12.7278 62.0415L11.5793 62.5347ZM7.22266 40.7605C7.22266 48.4728 8.68691 55.8001 11.5793 62.5347L12.7278 62.0415C9.90598 55.4711 8.47266 48.3125 8.47266 40.7605H7.22266ZM7.22266 24.4125V40.7605H8.47266V24.4125H7.22266ZM9.08728 21.9359C7.98368 22.2545 7.22266 23.2637 7.22266 24.4125H8.47266C8.47266 23.8219 8.86402 23.3014 9.43401 23.1368L9.08728 21.9359ZM44.7885 7.46316C33.432 13.5057 21.4204 18.3751 9.08728 21.9359L9.43401 23.1368C21.8506 19.5519 33.9428 14.6499 45.3757 8.56667L44.7885 7.46316ZM47.2138 7.46176C46.4553 7.05895 45.5461 7.0598 44.7884 7.46324L45.3758 8.56659C45.767 8.35832 46.2363 8.35799 46.6275 8.56573L47.2138 7.46176ZM79.6139 40.7605C79.6139 54.9199 74.4003 67.0938 64.1002 76.9761L64.9656 77.8781C75.5093 67.7621 80.8639 55.2634 80.8639 40.7605H79.6139ZM80.2387 41.3855H80.2389V40.1355H80.2387V41.3855ZM79.6137 25.8685V40.7605H80.8637V25.8685H79.6137ZM45.7133 12.5016C56.6577 18.2333 68.2016 22.9267 80.0599 26.4674L80.4175 25.2697C68.6358 21.7518 57.1665 17.0887 46.2932 11.3942L45.7133 12.5016ZM11.9387 26.4739C23.786 22.9528 35.3314 18.2574 46.2938 12.5013L45.7127 11.3946C34.822 17.113 23.3519 21.7777 11.5826 25.2757L11.9387 26.4739ZM12.3857 40.7605V25.8748H11.1357V40.7605H12.3857ZM27.8994 76.9761C17.5995 67.0939 12.3857 54.9197 12.3857 40.7605H11.1357C11.1357 55.2632 16.4905 67.7623 27.034 77.8781L27.8994 76.9761ZM40.0955 85.9094C35.7762 83.5751 31.5573 80.4855 27.8994 76.9761L27.034 77.8781C30.7705 81.4628 35.08 84.6197 39.5012 87.0091L40.0955 85.9094ZM46.1557 88.5755C44.7085 88.2025 42.0809 86.9823 40.0955 85.9094L39.5012 87.0091C41.4937 88.0858 44.2368 89.3718 45.8437 89.786L46.1557 88.5755ZM51.9041 85.9094C49.9184 86.9823 47.2909 88.2025 45.8437 88.5755L46.1557 89.786C47.7626 89.3718 50.5057 88.0858 52.4983 87.0091L51.9041 85.9094ZM64.1002 76.9761C60.442 80.4857 56.2232 83.5753 51.9041 85.9094L52.4984 87.0091C56.9194 84.6199 61.2289 81.463 64.9656 77.8781L64.1002 76.9761Z" fill="white"/>
<path d="M82.7417 22.5326L82.9161 21.9325L82.9159 21.9324L82.7417 22.5326ZM46.9206 8.01374L46.6275 8.56573L46.6276 8.56582L46.9206 8.01374ZM84.1517 24.4082L83.5267 24.4081V24.4082H84.1517ZM79.8459 62.2881L80.4201 62.5347L79.8459 62.2881ZM67.2442 80.2437L67.6769 80.6947L67.6769 80.6947L67.2442 80.2437ZM54.0638 89.8946L54.361 90.4445L54.361 90.4445L54.0638 89.8946ZM46.3548 93.1018L46.4673 93.7166L46.4681 93.7165L46.3548 93.1018ZM45.6446 93.1018L45.5313 93.7165L45.5321 93.7166L45.6446 93.1018ZM37.9356 89.8946L38.2327 89.3448L38.2327 89.3448L37.9356 89.8946ZM24.7552 80.2437L24.3225 80.6947L24.3225 80.6947L24.7552 80.2437ZM12.1535 62.2881L12.7278 62.0415L12.7278 62.0415L12.1535 62.2881ZM9.26064 22.5363L9.08728 21.9359L9.08728 21.9359L9.26064 22.5363ZM45.0821 8.01492L45.3757 8.56667L45.3758 8.56659L45.0821 8.01492ZM80.2389 40.7605H80.8639V40.1355H80.2389V40.7605ZM64.5329 77.4271L64.9656 77.8781L64.9656 77.8781L64.5329 77.4271ZM80.2387 40.7605H79.6137V41.3855H80.2387V40.7605ZM80.2387 25.8685H80.8637V25.4029L80.4175 25.2697L80.2387 25.8685ZM46.0032 11.9479L46.2932 11.3942L46.0028 11.2422L45.7127 11.3946L46.0032 11.9479ZM11.7607 25.8748L11.5826 25.2757L11.1357 25.4085V25.8748H11.7607ZM27.4667 77.4271L27.034 77.8781L27.034 77.8781L27.4667 77.4271ZM39.7984 86.4593L39.5012 87.0091L39.5012 87.0091L39.7984 86.4593ZM45.9997 89.1807L45.8437 89.786L45.9997 89.8262L46.1557 89.786L45.9997 89.1807ZM52.2012 86.4593L52.4983 87.0091L52.4984 87.0091L52.2012 86.4593ZM82.9159 21.9324C70.5652 18.348 58.553 13.4792 47.2136 7.46167L46.6276 8.56582C58.0428 14.6236 70.1347 19.5247 82.5675 23.1329L82.9159 21.9324ZM84.7767 24.4083C84.777 23.2609 84.0177 22.2526 82.9161 21.9325L82.5673 23.1328C83.1365 23.2982 83.5269 23.8184 83.5267 24.4081L84.7767 24.4083ZM84.7767 40.7605V24.4082H83.5267V40.7605H84.7767ZM80.4201 62.5347C83.3125 55.8003 84.7767 48.473 84.7767 40.7605H83.5267C83.5267 48.3127 82.0934 55.4712 79.2716 62.0415L80.4201 62.5347ZM67.6769 80.6947C73.2524 75.3453 77.5421 69.2358 80.4201 62.5347L79.2716 62.0415C76.4636 68.5794 72.2738 74.5519 66.8115 79.7927L67.6769 80.6947ZM54.361 90.4445C59.0869 87.8904 63.6899 84.5195 67.6769 80.6947L66.8115 79.7927C62.9032 83.542 58.3909 86.8457 53.7667 89.3448L54.361 90.4445ZM46.4681 93.7165C47.8321 93.4651 49.6114 92.7465 51.1157 92.0594C52.6357 91.3651 53.9359 90.6742 54.361 90.4445L53.7667 89.3448C53.3539 89.5678 52.0809 90.2443 50.5964 90.9224C49.0963 91.6076 47.4399 92.2663 46.2415 92.4872L46.4681 93.7165ZM45.9997 93.7592C46.157 93.7592 46.3134 93.7448 46.4673 93.7166L46.2423 92.487C46.1614 92.5018 46.0803 92.5092 45.9997 92.5092V93.7592ZM45.5321 93.7166C45.686 93.7448 45.8424 93.7592 45.9997 93.7592V92.5092C45.9191 92.5092 45.838 92.5018 45.7571 92.487L45.5321 93.7166ZM37.6384 90.4445C38.0635 90.6742 39.3637 91.3651 40.8837 92.0594C42.388 92.7465 44.1672 93.4651 45.5313 93.7165L45.7579 92.4872C44.5595 92.2663 42.9031 91.6076 41.403 90.9224C39.9185 90.2443 38.6454 89.5678 38.2327 89.3448L37.6384 90.4445ZM24.3225 80.6947C28.3091 84.5195 32.9119 87.8904 37.6384 90.4445L38.2327 89.3448C33.6079 86.8457 29.0958 83.542 25.1879 79.7927L24.3225 80.6947ZM11.5793 62.5347C14.4571 69.2356 18.747 75.3449 24.3225 80.6947L25.1879 79.7927C19.7256 74.5515 15.5356 68.5792 12.7278 62.0415L11.5793 62.5347ZM7.22266 40.7605C7.22266 48.4728 8.68691 55.8001 11.5793 62.5347L12.7278 62.0415C9.90598 55.4711 8.47266 48.3125 8.47266 40.7605H7.22266ZM7.22266 24.4125V40.7605H8.47266V24.4125H7.22266ZM9.08728 21.9359C7.98368 22.2545 7.22266 23.2637 7.22266 24.4125H8.47266C8.47266 23.8219 8.86402 23.3014 9.43401 23.1368L9.08728 21.9359ZM44.7885 7.46316C33.432 13.5057 21.4204 18.3751 9.08728 21.9359L9.43401 23.1368C21.8506 19.5519 33.9428 14.6499 45.3757 8.56667L44.7885 7.46316ZM47.2138 7.46176C46.4553 7.05895 45.5461 7.0598 44.7884 7.46324L45.3758 8.56659C45.767 8.35832 46.2363 8.35799 46.6275 8.56573L47.2138 7.46176ZM79.6139 40.7605C79.6139 54.9199 74.4003 67.0938 64.1002 76.9761L64.9656 77.8781C75.5093 67.7621 80.8639 55.2634 80.8639 40.7605H79.6139ZM80.2387 41.3855H80.2389V40.1355H80.2387V41.3855ZM79.6137 25.8685V40.7605H80.8637V25.8685H79.6137ZM45.7133 12.5016C56.6577 18.2333 68.2016 22.9267 80.0599 26.4674L80.4175 25.2697C68.6358 21.7518 57.1665 17.0887 46.2932 11.3942L45.7133 12.5016ZM11.9387 26.4739C23.786 22.9528 35.3314 18.2574 46.2938 12.5013L45.7127 11.3946C34.822 17.113 23.3519 21.7777 11.5826 25.2757L11.9387 26.4739ZM12.3857 40.7605V25.8748H11.1357V40.7605H12.3857ZM27.8994 76.9761C17.5995 67.0939 12.3857 54.9197 12.3857 40.7605H11.1357C11.1357 55.2632 16.4905 67.7623 27.034 77.8781L27.8994 76.9761ZM40.0955 85.9094C35.7762 83.5751 31.5573 80.4855 27.8994 76.9761L27.034 77.8781C30.7705 81.4628 35.08 84.6197 39.5012 87.0091L40.0955 85.9094ZM46.1557 88.5755C44.7085 88.2025 42.0809 86.9823 40.0955 85.9094L39.5012 87.0091C41.4937 88.0858 44.2368 89.3718 45.8437 89.786L46.1557 88.5755ZM51.9041 85.9094C49.9184 86.9823 47.2909 88.2025 45.8437 88.5755L46.1557 89.786C47.7626 89.3718 50.5057 88.0858 52.4983 87.0091L51.9041 85.9094ZM64.1002 76.9761C60.442 80.4857 56.2232 83.5753 51.9041 85.9094L52.4984 87.0091C56.9194 84.6199 61.2289 81.463 64.9656 77.8781L64.1002 76.9761Z" fill="#007AFF" fill-opacity="0.04"/>
<path fill-rule="evenodd" clip-rule="evenodd" d="M56.3487 43.8357V37.4058C56.3487 31.709 51.7059 27.0742 45.9988 27.0742C40.292 27.0742 35.6492 31.709 35.6492 37.4058V43.8357C33.3214 43.9195 31.4531 45.8347 31.4531 48.1786V63.1725C31.4529 65.5695 33.4065 67.5195 35.8077 67.5195H56.1906C58.5918 67.5195 60.5454 65.5695 60.5454 63.1725V48.1786C60.5454 45.8345 58.6769 43.9191 56.3487 43.8357ZM39.5621 37.4058C39.5621 33.8629 42.4497 30.9805 45.999 30.9805C49.5481 30.9805 52.4355 33.8629 52.4355 37.4058V43.8316H39.5619V37.4058H39.5621ZM56.1904 63.6135C56.4299 63.6135 56.6322 63.4117 56.6322 63.1727V48.1788C56.6322 47.9397 56.4299 47.738 56.1904 47.738H54.392H37.6054H35.8075C35.568 47.738 35.3657 47.9397 35.3657 48.1788H35.3655V63.1727C35.3655 63.4117 35.5679 63.6135 35.8073 63.6135H56.1904Z" fill="#007AFF"/>
<path d="M56.3487 43.8357H55.7237V44.4387L56.3263 44.4603L56.3487 43.8357ZM35.6492 43.8357L35.6717 44.4603L36.2742 44.4386V43.8357H35.6492ZM31.4531 63.1725L32.0781 63.1725V63.1725H31.4531ZM39.5621 37.4058V38.0308H40.1871V37.4058H39.5621ZM52.4355 43.8316V44.4566H53.0605V43.8316H52.4355ZM39.5619 43.8316H38.9369V44.4566H39.5619V43.8316ZM39.5619 37.4058V36.7808H38.9369V37.4058H39.5619ZM35.3657 48.1788V48.8038H35.9907V48.1788H35.3657ZM35.3655 48.1788V47.5538H34.7405V48.1788H35.3655ZM55.7237 37.4058V43.8357H56.9737V37.4058H55.7237ZM45.9988 27.6992C51.3617 27.6992 55.7237 32.0552 55.7237 37.4058H56.9737C56.9737 31.3627 52.05 26.4492 45.9988 26.4492V27.6992ZM36.2742 37.4058C36.2742 32.0552 40.6362 27.6992 45.9988 27.6992V26.4492C39.9479 26.4492 35.0242 31.3628 35.0242 37.4058H36.2742ZM36.2742 43.8357V37.4058H35.0242V43.8357H36.2742ZM32.0781 48.1786C32.0781 46.1737 33.6775 44.532 35.6717 44.4603L35.6268 43.2111C32.9653 43.3069 30.8281 45.4956 30.8281 48.1786H32.0781ZM32.0781 63.1725V48.1786H30.8281V63.1725H32.0781ZM35.8077 66.8945C33.7506 66.8945 32.078 65.2233 32.0781 63.1725L30.8281 63.1724C30.8279 65.9158 33.0624 68.1445 35.8077 68.1445V66.8945ZM56.1906 66.8945H35.8077V68.1445H56.1906V66.8945ZM59.9204 63.1725C59.9204 65.2233 58.2477 66.8945 56.1906 66.8945V68.1445C58.9359 68.1445 61.1704 65.9158 61.1704 63.1725H59.9204ZM59.9204 48.1786V63.1725H61.1704V48.1786H59.9204ZM56.3263 44.4603C58.3209 44.5317 59.9204 46.1735 59.9204 48.1786H61.1704C61.1704 45.4954 59.033 43.3064 56.371 43.2111L56.3263 44.4603ZM45.999 30.3555C42.1055 30.3555 38.9371 33.5166 38.9371 37.4058H40.1871C40.1871 34.2091 42.7938 31.6055 45.999 31.6055V30.3555ZM53.0605 37.4058C53.0605 33.5167 49.8922 30.3555 45.999 30.3555V31.6055C49.2039 31.6055 51.8105 34.2091 51.8105 37.4058H53.0605ZM53.0605 43.8316V37.4058H51.8105V43.8316H53.0605ZM39.5619 44.4566H52.4355V43.2066H39.5619V44.4566ZM38.9369 37.4058V43.8316H40.1869V37.4058H38.9369ZM39.5621 36.7808H39.5619V38.0308H39.5621V36.7808ZM56.0072 63.1727C56.0072 63.1132 56.0322 63.0677 56.0597 63.0403C56.0871 63.0129 56.132 62.9885 56.1904 62.9885V64.2385C56.7737 64.2385 57.2572 63.7583 57.2572 63.1727H56.0072ZM56.0072 48.1788V63.1727H57.2572V48.1788H56.0072ZM56.1904 48.363C56.132 48.363 56.0871 48.3386 56.0597 48.3112C56.0322 48.2838 56.0072 48.2383 56.0072 48.1788H57.2572C57.2572 47.5932 56.7737 47.113 56.1904 47.113V48.363ZM54.392 48.363H56.1904V47.113H54.392V48.363ZM37.6054 48.363H54.392V47.113H37.6054V48.363ZM35.8075 48.363H37.6054V47.113H35.8075V48.363ZM35.9907 48.1788C35.9907 48.2383 35.9657 48.2838 35.9383 48.3112C35.9108 48.3386 35.8659 48.363 35.8075 48.363V47.113C35.2242 47.113 34.7407 47.5932 34.7407 48.1788H35.9907ZM35.3655 48.8038H35.3657V47.5538H35.3655V48.8038ZM35.9905 63.1727V48.1788H34.7405V63.1727H35.9905ZM35.8073 62.9885C35.8657 62.9885 35.9106 63.0129 35.9381 63.0403C35.9655 63.0677 35.9905 63.1132 35.9905 63.1727H34.7405C34.7405 63.7583 35.2241 64.2385 35.8073 64.2385V62.9885ZM56.1904 62.9885H35.8073V64.2385H56.1904V62.9885Z" fill="white"/>
<path d="M56.3487 43.8357H55.7237V44.4387L56.3263 44.4603L56.3487 43.8357ZM35.6492 43.8357L35.6717 44.4603L36.2742 44.4386V43.8357H35.6492ZM31.4531 63.1725L32.0781 63.1725V63.1725H31.4531ZM39.5621 37.4058V38.0308H40.1871V37.4058H39.5621ZM52.4355 43.8316V44.4566H53.0605V43.8316H52.4355ZM39.5619 43.8316H38.9369V44.4566H39.5619V43.8316ZM39.5619 37.4058V36.7808H38.9369V37.4058H39.5619ZM35.3657 48.1788V48.8038H35.9907V48.1788H35.3657ZM35.3655 48.1788V47.5538H34.7405V48.1788H35.3655ZM55.7237 37.4058V43.8357H56.9737V37.4058H55.7237ZM45.9988 27.6992C51.3617 27.6992 55.7237 32.0552 55.7237 37.4058H56.9737C56.9737 31.3627 52.05 26.4492 45.9988 26.4492V27.6992ZM36.2742 37.4058C36.2742 32.0552 40.6362 27.6992 45.9988 27.6992V26.4492C39.9479 26.4492 35.0242 31.3628 35.0242 37.4058H36.2742ZM36.2742 43.8357V37.4058H35.0242V43.8357H36.2742ZM32.0781 48.1786C32.0781 46.1737 33.6775 44.532 35.6717 44.4603L35.6268 43.2111C32.9653 43.3069 30.8281 45.4956 30.8281 48.1786H32.0781ZM32.0781 63.1725V48.1786H30.8281V63.1725H32.0781ZM35.8077 66.8945C33.7506 66.8945 32.078 65.2233 32.0781 63.1725L30.8281 63.1724C30.8279 65.9158 33.0624 68.1445 35.8077 68.1445V66.8945ZM56.1906 66.8945H35.8077V68.1445H56.1906V66.8945ZM59.9204 63.1725C59.9204 65.2233 58.2477 66.8945 56.1906 66.8945V68.1445C58.9359 68.1445 61.1704 65.9158 61.1704 63.1725H59.9204ZM59.9204 48.1786V63.1725H61.1704V48.1786H59.9204ZM56.3263 44.4603C58.3209 44.5317 59.9204 46.1735 59.9204 48.1786H61.1704C61.1704 45.4954 59.033 43.3064 56.371 43.2111L56.3263 44.4603ZM45.999 30.3555C42.1055 30.3555 38.9371 33.5166 38.9371 37.4058H40.1871C40.1871 34.2091 42.7938 31.6055 45.999 31.6055V30.3555ZM53.0605 37.4058C53.0605 33.5167 49.8922 30.3555 45.999 30.3555V31.6055C49.2039 31.6055 51.8105 34.2091 51.8105 37.4058H53.0605ZM53.0605 43.8316V37.4058H51.8105V43.8316H53.0605ZM39.5619 44.4566H52.4355V43.2066H39.5619V44.4566ZM38.9369 37.4058V43.8316H40.1869V37.4058H38.9369ZM39.5621 36.7808H39.5619V38.0308H39.5621V36.7808ZM56.0072 63.1727C56.0072 63.1132 56.0322 63.0677 56.0597 63.0403C56.0871 63.0129 56.132 62.9885 56.1904 62.9885V64.2385C56.7737 64.2385 57.2572 63.7583 57.2572 63.1727H56.0072ZM56.0072 48.1788V63.1727H57.2572V48.1788H56.0072ZM56.1904 48.363C56.132 48.363 56.0871 48.3386 56.0597 48.3112C56.0322 48.2838 56.0072 48.2383 56.0072 48.1788H57.2572C57.2572 47.5932 56.7737 47.113 56.1904 47.113V48.363ZM54.392 48.363H56.1904V47.113H54.392V48.363ZM37.6054 48.363H54.392V47.113H37.6054V48.363ZM35.8075 48.363H37.6054V47.113H35.8075V48.363ZM35.9907 48.1788C35.9907 48.2383 35.9657 48.2838 35.9383 48.3112C35.9108 48.3386 35.8659 48.363 35.8075 48.363V47.113C35.2242 47.113 34.7407 47.5932 34.7407 48.1788H35.9907ZM35.3655 48.8038H35.3657V47.5538H35.3655V48.8038ZM35.9905 63.1727V48.1788H34.7405V63.1727H35.9905ZM35.8073 62.9885C35.8657 62.9885 35.9106 63.0129 35.9381 63.0403C35.9655 63.0677 35.9905 63.1132 35.9905 63.1727H34.7405C34.7405 63.7583 35.2241 64.2385 35.8073 64.2385V62.9885ZM56.1904 62.9885H35.8073V64.2385H56.1904V62.9885Z" fill="#007AFF" fill-opacity="0.04"/>
<path d="M46.0012 51.7578C44.4945 51.7578 43.2656 52.9846 43.2656 54.4887C43.2656 55.2281 43.5636 55.8998 44.0447 56.3922V58.3037C44.0447 59.3822 44.9206 60.2568 46.0012 60.2568C47.0818 60.2568 47.9577 59.3822 47.9577 58.3037V56.3922C48.4388 55.8996 48.7368 55.2281 48.7368 54.4887C48.7368 52.9846 47.5079 51.7578 46.0012 51.7578Z" fill="#007AFF"/>
<path d="M46.0012 51.7578C44.4945 51.7578 43.2656 52.9846 43.2656 54.4887C43.2656 55.2281 43.5636 55.8998 44.0447 56.3922V58.3037C44.0447 59.3822 44.9206 60.2568 46.0012 60.2568C47.0818 60.2568 47.9577 59.3822 47.9577 58.3037V56.3922C48.4388 55.8996 48.7368 55.2281 48.7368 54.4887C48.7368 52.9846 47.5079 51.7578 46.0012 51.7578Z" stroke="white" stroke-width="1.25"/>
<path d="M46.0012 51.7578C44.4945 51.7578 43.2656 52.9846 43.2656 54.4887C43.2656 55.2281 43.5636 55.8998 44.0447 56.3922V58.3037C44.0447 59.3822 44.9206 60.2568 46.0012 60.2568C47.0818 60.2568 47.9577 59.3822 47.9577 58.3037V56.3922C48.4388 55.8996 48.7368 55.2281 48.7368 54.4887C48.7368 52.9846 47.5079 51.7578 46.0012 51.7578Z" stroke="#007AFF" stroke-opacity="0.04" stroke-width="1.25"/>
</svg>
