<svg width="14" height="18" viewBox="0 0 14 18" fill="none" xmlns="http://www.w3.org/2000/svg">
<path d="M6.9991 8.81631C9.37814 8.81631 11.3068 6.84273 11.3068 4.40816C11.3068 1.9736 9.37814 0 6.9991 0C4.62003 0 2.69141 1.9736 2.69141 4.40816C2.69141 6.84273 4.62003 8.81631 6.9991 8.81631Z" fill="#0BD47D"/>
<path d="M9.24359 10.6533H4.75641C2.15385 10.6533 0 12.8575 0 15.5207C0 16.1636 0.269229 16.7146 0.807695 16.9901C1.61538 17.4493 3.41026 18.0002 7 18.0002C10.5898 18.0002 12.3846 17.4493 13.1923 16.9901C13.641 16.7146 14 16.1636 14 15.5207C14 12.7656 11.8462 10.6533 9.24359 10.6533Z" fill="#0BD47D"/>
</svg>
