<svg width="92" height="102" viewBox="0 0 92 102" fill="none" xmlns="http://www.w3.org/2000/svg">
<path fill-rule="evenodd" clip-rule="evenodd" d="M46.9542 1.24792C60.1721 8.62055 74.8962 14.5201 89.5342 18.309C90.3972 18.5324 90.9998 19.3098 91 20.1996V41.761C91 63.9359 80.1817 78.6044 71.1067 87.005C61.3717 96.0162 50.0821 101 46 101C41.9179 101 30.6283 96.0162 20.8933 87.005C11.8179 78.6044 1 63.9357 1 41.761V20.1998C1 19.3099 1.6026 18.5326 2.46542 18.3092C17.5194 14.4125 31.4475 8.83187 45.0456 1.24792C45.6388 0.917261 46.3614 0.917456 46.9542 1.24792ZM54.3689 94.0457C57.8151 92.2815 63.0545 89.1307 68.446 84.1399C76.9498 76.2683 87.0866 62.5262 87.0868 41.7606H87.0866V21.7041C72.9659 17.9178 58.8147 12.2291 46 5.18638C32.8519 12.4229 19.3839 17.8375 4.91281 21.7047V41.7606C4.91281 62.5262 15.0499 76.2683 23.5536 84.1399C28.9453 89.1307 34.1849 92.2815 37.6307 94.0457C41.9976 96.2817 45.0282 97.0932 45.9998 97.0932C46.9714 97.0932 50.0022 96.2815 54.3689 94.0457Z" fill="#007AFF"/>
<path d="M89.5342 18.309L89.6908 17.7039L89.6908 17.7039L89.5342 18.309ZM46.9542 1.24792L47.2586 0.70209L47.2585 0.702015L46.9542 1.24792ZM91 20.1996H91.625V20.1995L91 20.1996ZM71.1067 87.005L71.5312 87.4636V87.4636L71.1067 87.005ZM20.8933 87.005L21.3179 86.5463H21.3179L20.8933 87.005ZM2.46542 18.3092L2.3088 17.7041L2.30874 17.7041L2.46542 18.3092ZM45.0456 1.24792L44.7413 0.702006L44.7412 0.702078L45.0456 1.24792ZM68.446 84.1399L68.0214 83.6813L68.446 84.1399ZM54.3689 94.0457L54.0841 93.4894L54.0841 93.4894L54.3689 94.0457ZM87.0868 41.7606L87.7118 41.7606L87.7118 41.1356H87.0868V41.7606ZM87.0866 41.7606H86.4616V42.3856H87.0866V41.7606ZM87.0866 21.7041H87.7116V21.2246L87.2485 21.1004L87.0866 21.7041ZM46 5.18638L46.301 4.63865L45.9998 4.47309L45.6986 4.63884L46 5.18638ZM4.91281 21.7047L4.75145 21.1009L4.28781 21.2248V21.7047H4.91281ZM23.5536 84.1399L23.129 84.5986L23.129 84.5986L23.5536 84.1399ZM37.6307 94.0457L37.9155 93.4894H37.9155L37.6307 94.0457ZM89.6908 17.7039C75.1045 13.9284 60.4301 8.04877 47.2586 0.70209L46.6497 1.79376C59.9142 9.19232 74.688 15.1118 89.3776 18.914L89.6908 17.7039ZM91.625 20.1995C91.6247 19.0241 90.8289 17.9986 89.6908 17.7039L89.3775 18.914C89.9655 19.0663 90.3749 19.5954 90.375 20.1997L91.625 20.1995ZM91.625 41.761V20.1996H90.375V41.761H91.625ZM71.5312 87.4636C80.69 78.9855 91.625 64.1622 91.625 41.761H90.375C90.375 63.7097 79.6734 78.2233 70.6821 86.5463L71.5312 87.4636ZM46 101.625C47.123 101.625 48.6709 101.288 50.4776 100.672C52.2975 100.052 54.425 99.1339 56.7225 97.9359C61.317 95.5401 66.6196 92.0101 71.5312 87.4636L70.6821 86.5463C65.8587 91.0111 60.649 94.4787 56.1445 96.8275C53.8924 98.0019 51.8237 98.8929 50.0745 99.4889C48.3121 100.089 46.918 100.375 46 100.375V101.625ZM20.4688 87.4636C25.3804 92.0101 30.683 95.5401 35.2775 97.9359C37.575 99.1339 39.7025 100.052 41.5224 100.672C43.3291 101.288 44.877 101.625 46 101.625V100.375C45.082 100.375 43.6879 100.089 41.9255 99.4889C40.1763 98.8929 38.1076 98.0019 35.8555 96.8275C31.351 94.4787 26.1413 91.0111 21.3179 86.5463L20.4688 87.4636ZM0.375 41.761C0.375 64.162 11.3096 78.9855 20.4688 87.4636L21.3179 86.5463C12.3262 78.2233 1.625 63.7095 1.625 41.761H0.375ZM0.375 20.1998V41.761H1.625V20.1998H0.375ZM2.30874 17.7041C1.17089 17.9988 0.375 19.0244 0.375 20.1998H1.625C1.625 19.5955 2.03431 19.0664 2.6221 18.9142L2.30874 17.7041ZM44.7412 0.702078C31.1896 8.2601 17.3111 13.8208 2.3088 17.7041L2.62204 18.9142C17.7276 15.0042 31.7055 9.40365 45.35 1.79377L44.7412 0.702078ZM47.2585 0.702015C46.4766 0.266123 45.5238 0.26587 44.7413 0.702006L45.3499 1.79384C45.7539 1.56865 46.2462 1.56879 46.6499 1.79383L47.2585 0.702015ZM68.0214 83.6813C62.6809 88.6249 57.4918 91.7449 54.0841 93.4894L54.6538 94.6021C58.1384 92.8181 63.428 89.6366 68.8706 84.5986L68.0214 83.6813ZM86.4618 41.7606C86.4616 62.2998 76.4416 75.887 68.0214 83.6813L68.8706 84.5986C77.458 76.6495 87.7116 62.7525 87.7118 41.7606L86.4618 41.7606ZM87.0866 42.3856H87.0868V41.1356H87.0866V42.3856ZM86.4616 21.7041V41.7606H87.7116V21.7041H86.4616ZM45.699 5.73411C58.5577 12.801 72.7556 18.5084 86.9247 22.3078L87.2485 21.1004C73.1762 17.3271 59.0718 11.6572 46.301 4.63865L45.699 5.73411ZM5.07417 22.3085C19.5941 18.4282 33.1091 12.9947 46.3014 5.73393L45.6986 4.63884C32.5947 11.851 19.1737 17.2467 4.75145 21.1009L5.07417 22.3085ZM5.53781 41.7606V21.7047H4.28781V41.7606H5.53781ZM23.9782 83.6813C15.5581 75.887 5.53781 62.2998 5.53781 41.7606H4.28781C4.28781 62.7525 14.5417 76.6495 23.129 84.5986L23.9782 83.6813ZM37.9155 93.4894C34.5082 91.7449 29.3189 88.6249 23.9782 83.6813L23.129 84.5986C28.5718 89.6366 33.8616 92.8181 37.3458 94.6021L37.9155 93.4894ZM45.9998 96.4682C45.6236 96.4682 44.7061 96.2957 43.2889 95.8159C41.8961 95.3445 40.0749 94.5951 37.9155 93.4894L37.3458 94.6021C39.5533 95.7323 41.4309 96.5067 42.8881 96.9999C44.3208 97.4849 45.4044 97.7182 45.9998 97.7182V96.4682ZM54.0841 93.4894C51.9248 94.595 50.1036 95.3444 48.7108 95.8159C47.2936 96.2956 46.376 96.4682 45.9998 96.4682V97.7182C46.5952 97.7182 47.6788 97.4849 49.1116 96.9999C50.5688 96.5066 52.4464 95.7322 54.6538 94.6021L54.0841 93.4894Z" fill="white"/>
<path d="M89.5342 18.309L89.6908 17.7039L89.6908 17.7039L89.5342 18.309ZM46.9542 1.24792L47.2586 0.70209L47.2585 0.702015L46.9542 1.24792ZM91 20.1996H91.625V20.1995L91 20.1996ZM71.1067 87.005L71.5312 87.4636V87.4636L71.1067 87.005ZM20.8933 87.005L21.3179 86.5463H21.3179L20.8933 87.005ZM2.46542 18.3092L2.3088 17.7041L2.30874 17.7041L2.46542 18.3092ZM45.0456 1.24792L44.7413 0.702006L44.7412 0.702078L45.0456 1.24792ZM68.446 84.1399L68.0214 83.6813L68.446 84.1399ZM54.3689 94.0457L54.0841 93.4894L54.0841 93.4894L54.3689 94.0457ZM87.0868 41.7606L87.7118 41.7606L87.7118 41.1356H87.0868V41.7606ZM87.0866 41.7606H86.4616V42.3856H87.0866V41.7606ZM87.0866 21.7041H87.7116V21.2246L87.2485 21.1004L87.0866 21.7041ZM46 5.18638L46.301 4.63865L45.9998 4.47309L45.6986 4.63884L46 5.18638ZM4.91281 21.7047L4.75145 21.1009L4.28781 21.2248V21.7047H4.91281ZM23.5536 84.1399L23.129 84.5986L23.129 84.5986L23.5536 84.1399ZM37.6307 94.0457L37.9155 93.4894H37.9155L37.6307 94.0457ZM89.6908 17.7039C75.1045 13.9284 60.4301 8.04877 47.2586 0.70209L46.6497 1.79376C59.9142 9.19232 74.688 15.1118 89.3776 18.914L89.6908 17.7039ZM91.625 20.1995C91.6247 19.0241 90.8289 17.9986 89.6908 17.7039L89.3775 18.914C89.9655 19.0663 90.3749 19.5954 90.375 20.1997L91.625 20.1995ZM91.625 41.761V20.1996H90.375V41.761H91.625ZM71.5312 87.4636C80.69 78.9855 91.625 64.1622 91.625 41.761H90.375C90.375 63.7097 79.6734 78.2233 70.6821 86.5463L71.5312 87.4636ZM46 101.625C47.123 101.625 48.6709 101.288 50.4776 100.672C52.2975 100.052 54.425 99.1339 56.7225 97.9359C61.317 95.5401 66.6196 92.0101 71.5312 87.4636L70.6821 86.5463C65.8587 91.0111 60.649 94.4787 56.1445 96.8275C53.8924 98.0019 51.8237 98.8929 50.0745 99.4889C48.3121 100.089 46.918 100.375 46 100.375V101.625ZM20.4688 87.4636C25.3804 92.0101 30.683 95.5401 35.2775 97.9359C37.575 99.1339 39.7025 100.052 41.5224 100.672C43.3291 101.288 44.877 101.625 46 101.625V100.375C45.082 100.375 43.6879 100.089 41.9255 99.4889C40.1763 98.8929 38.1076 98.0019 35.8555 96.8275C31.351 94.4787 26.1413 91.0111 21.3179 86.5463L20.4688 87.4636ZM0.375 41.761C0.375 64.162 11.3096 78.9855 20.4688 87.4636L21.3179 86.5463C12.3262 78.2233 1.625 63.7095 1.625 41.761H0.375ZM0.375 20.1998V41.761H1.625V20.1998H0.375ZM2.30874 17.7041C1.17089 17.9988 0.375 19.0244 0.375 20.1998H1.625C1.625 19.5955 2.03431 19.0664 2.6221 18.9142L2.30874 17.7041ZM44.7412 0.702078C31.1896 8.2601 17.3111 13.8208 2.3088 17.7041L2.62204 18.9142C17.7276 15.0042 31.7055 9.40365 45.35 1.79377L44.7412 0.702078ZM47.2585 0.702015C46.4766 0.266123 45.5238 0.26587 44.7413 0.702006L45.3499 1.79384C45.7539 1.56865 46.2462 1.56879 46.6499 1.79383L47.2585 0.702015ZM68.0214 83.6813C62.6809 88.6249 57.4918 91.7449 54.0841 93.4894L54.6538 94.6021C58.1384 92.8181 63.428 89.6366 68.8706 84.5986L68.0214 83.6813ZM86.4618 41.7606C86.4616 62.2998 76.4416 75.887 68.0214 83.6813L68.8706 84.5986C77.458 76.6495 87.7116 62.7525 87.7118 41.7606L86.4618 41.7606ZM87.0866 42.3856H87.0868V41.1356H87.0866V42.3856ZM86.4616 21.7041V41.7606H87.7116V21.7041H86.4616ZM45.699 5.73411C58.5577 12.801 72.7556 18.5084 86.9247 22.3078L87.2485 21.1004C73.1762 17.3271 59.0718 11.6572 46.301 4.63865L45.699 5.73411ZM5.07417 22.3085C19.5941 18.4282 33.1091 12.9947 46.3014 5.73393L45.6986 4.63884C32.5947 11.851 19.1737 17.2467 4.75145 21.1009L5.07417 22.3085ZM5.53781 41.7606V21.7047H4.28781V41.7606H5.53781ZM23.9782 83.6813C15.5581 75.887 5.53781 62.2998 5.53781 41.7606H4.28781C4.28781 62.7525 14.5417 76.6495 23.129 84.5986L23.9782 83.6813ZM37.9155 93.4894C34.5082 91.7449 29.3189 88.6249 23.9782 83.6813L23.129 84.5986C28.5718 89.6366 33.8616 92.8181 37.3458 94.6021L37.9155 93.4894ZM45.9998 96.4682C45.6236 96.4682 44.7061 96.2957 43.2889 95.8159C41.8961 95.3445 40.0749 94.5951 37.9155 93.4894L37.3458 94.6021C39.5533 95.7323 41.4309 96.5067 42.8881 96.9999C44.3208 97.4849 45.4044 97.7182 45.9998 97.7182V96.4682ZM54.0841 93.4894C51.9248 94.595 50.1036 95.3444 48.7108 95.8159C47.2936 96.2956 46.376 96.4682 45.9998 96.4682V97.7182C46.5952 97.7182 47.6788 97.4849 49.1116 96.9999C50.5688 96.5066 52.4464 95.7322 54.6538 94.6021L54.0841 93.4894Z" fill="#007AFF" fill-opacity="0.04"/>
<path fill-rule="evenodd" clip-rule="evenodd" d="M46.9206 9.01374C58.2979 15.0514 70.35 19.9363 82.7417 23.5326C83.5771 23.7754 84.1519 24.5396 84.1517 25.4082V41.7605C84.1517 49.3929 82.7029 56.6358 79.8459 63.2881C77.0029 69.9076 72.7631 75.9486 67.2442 81.2437C63.2966 85.0308 58.7389 88.3681 54.0638 90.8946C53.226 91.3474 48.9172 93.6296 46.3548 94.1018C46.2374 94.1233 46.1186 94.1342 45.9997 94.1342C45.8807 94.1342 45.762 94.1233 45.6446 94.1018C43.0822 93.6296 38.7733 91.3474 37.9356 90.8946C33.2599 88.3681 28.7024 85.0308 24.7552 81.2437C19.2363 75.9482 14.9963 69.9074 12.1535 63.2881C9.29645 56.6356 7.84766 49.3927 7.84766 41.7605V25.4125C7.84766 24.5428 8.42385 23.7779 9.26064 23.5363C21.6355 19.9635 33.6874 15.0778 45.0821 9.01492C45.6565 8.70906 46.3458 8.70847 46.9206 9.01374ZM64.5329 78.4271C74.9548 68.4279 80.2389 56.0917 80.2389 41.7605H80.2387V26.8685C68.4187 23.3393 56.9121 18.661 46.0032 12.9479C35.0767 18.6852 23.569 23.3652 11.7607 26.8748V41.7605C11.7607 56.0915 17.045 68.4281 27.4667 78.4271C31.1639 81.9741 35.4281 85.0974 39.7984 87.4593C41.7873 88.5341 44.4726 89.7872 45.9997 90.1807C47.5267 89.7872 50.2121 88.5341 52.2012 87.4593C56.5713 85.0976 60.8355 81.9743 64.5329 78.4271Z" fill="#007AFF"/>
<path d="M82.7417 23.5326L82.9161 22.9325L82.9159 22.9324L82.7417 23.5326ZM46.9206 9.01374L46.6275 9.56573L46.6276 9.56582L46.9206 9.01374ZM84.1517 25.4082L83.5267 25.4081V25.4082H84.1517ZM79.8459 63.2881L80.4201 63.5347L79.8459 63.2881ZM67.2442 81.2437L67.6769 81.6947L67.6769 81.6947L67.2442 81.2437ZM54.0638 90.8946L54.361 91.4445L54.361 91.4445L54.0638 90.8946ZM46.3548 94.1018L46.4673 94.7166L46.4681 94.7165L46.3548 94.1018ZM45.6446 94.1018L45.5313 94.7165L45.5321 94.7166L45.6446 94.1018ZM37.9356 90.8946L38.2327 90.3448L38.2327 90.3448L37.9356 90.8946ZM24.7552 81.2437L24.3225 81.6947L24.3225 81.6947L24.7552 81.2437ZM12.1535 63.2881L12.7278 63.0415L12.7278 63.0415L12.1535 63.2881ZM9.26064 23.5363L9.08728 22.9359L9.08728 22.9359L9.26064 23.5363ZM45.0821 9.01492L45.3757 9.56667L45.3758 9.56659L45.0821 9.01492ZM80.2389 41.7605H80.8639V41.1355H80.2389V41.7605ZM64.5329 78.4271L64.9656 78.8781L64.9656 78.8781L64.5329 78.4271ZM80.2387 41.7605H79.6137V42.3855H80.2387V41.7605ZM80.2387 26.8685H80.8637V26.4029L80.4175 26.2697L80.2387 26.8685ZM46.0032 12.9479L46.2932 12.3942L46.0028 12.2422L45.7127 12.3946L46.0032 12.9479ZM11.7607 26.8748L11.5826 26.2757L11.1357 26.4085V26.8748H11.7607ZM27.4667 78.4271L27.034 78.8781L27.034 78.8781L27.4667 78.4271ZM39.7984 87.4593L39.5012 88.0091L39.5012 88.0091L39.7984 87.4593ZM45.9997 90.1807L45.8437 90.786L45.9997 90.8262L46.1557 90.786L45.9997 90.1807ZM52.2012 87.4593L52.4983 88.0091L52.4984 88.0091L52.2012 87.4593ZM82.9159 22.9324C70.5652 19.348 58.553 14.4792 47.2136 8.46167L46.6276 9.56582C58.0428 15.6236 70.1347 20.5247 82.5675 24.1329L82.9159 22.9324ZM84.7767 25.4083C84.777 24.2609 84.0177 23.2526 82.9161 22.9325L82.5673 24.1328C83.1365 24.2982 83.5269 24.8184 83.5267 25.4081L84.7767 25.4083ZM84.7767 41.7605V25.4082H83.5267V41.7605H84.7767ZM80.4201 63.5347C83.3125 56.8003 84.7767 49.473 84.7767 41.7605H83.5267C83.5267 49.3127 82.0934 56.4712 79.2716 63.0415L80.4201 63.5347ZM67.6769 81.6947C73.2524 76.3453 77.5421 70.2358 80.4201 63.5347L79.2716 63.0415C76.4636 69.5794 72.2738 75.5519 66.8115 80.7927L67.6769 81.6947ZM54.361 91.4445C59.0869 88.8904 63.6899 85.5195 67.6769 81.6947L66.8115 80.7927C62.9032 84.542 58.3909 87.8457 53.7667 90.3448L54.361 91.4445ZM46.4681 94.7165C47.8321 94.4651 49.6114 93.7465 51.1157 93.0594C52.6357 92.3651 53.9359 91.6742 54.361 91.4445L53.7667 90.3448C53.3539 90.5678 52.0809 91.2443 50.5964 91.9224C49.0963 92.6076 47.4399 93.2663 46.2415 93.4872L46.4681 94.7165ZM45.9997 94.7592C46.157 94.7592 46.3134 94.7448 46.4673 94.7166L46.2423 93.487C46.1614 93.5018 46.0803 93.5092 45.9997 93.5092V94.7592ZM45.5321 94.7166C45.686 94.7448 45.8424 94.7592 45.9997 94.7592V93.5092C45.9191 93.5092 45.838 93.5018 45.7571 93.487L45.5321 94.7166ZM37.6384 91.4445C38.0635 91.6742 39.3637 92.3651 40.8837 93.0594C42.388 93.7465 44.1672 94.4651 45.5313 94.7165L45.7579 93.4872C44.5595 93.2663 42.9031 92.6076 41.403 91.9224C39.9185 91.2443 38.6454 90.5678 38.2327 90.3448L37.6384 91.4445ZM24.3225 81.6947C28.3091 85.5195 32.9119 88.8904 37.6384 91.4445L38.2327 90.3448C33.6079 87.8457 29.0958 84.542 25.1879 80.7927L24.3225 81.6947ZM11.5793 63.5347C14.4571 70.2356 18.747 76.3449 24.3225 81.6947L25.1879 80.7927C19.7256 75.5515 15.5356 69.5792 12.7278 63.0415L11.5793 63.5347ZM7.22266 41.7605C7.22266 49.4728 8.68691 56.8001 11.5793 63.5347L12.7278 63.0415C9.90598 56.4711 8.47266 49.3125 8.47266 41.7605H7.22266ZM7.22266 25.4125V41.7605H8.47266V25.4125H7.22266ZM9.08728 22.9359C7.98368 23.2545 7.22266 24.2637 7.22266 25.4125H8.47266C8.47266 24.8219 8.86402 24.3014 9.43401 24.1368L9.08728 22.9359ZM44.7885 8.46316C33.432 14.5057 21.4204 19.3751 9.08728 22.9359L9.43401 24.1368C21.8506 20.5519 33.9428 15.6499 45.3757 9.56667L44.7885 8.46316ZM47.2138 8.46176C46.4553 8.05895 45.5461 8.0598 44.7884 8.46324L45.3758 9.56659C45.767 9.35832 46.2363 9.35799 46.6275 9.56573L47.2138 8.46176ZM79.6139 41.7605C79.6139 55.9199 74.4003 68.0938 64.1002 77.9761L64.9656 78.8781C75.5093 68.7621 80.8639 56.2634 80.8639 41.7605H79.6139ZM80.2387 42.3855H80.2389V41.1355H80.2387V42.3855ZM79.6137 26.8685V41.7605H80.8637V26.8685H79.6137ZM45.7133 13.5016C56.6577 19.2333 68.2016 23.9267 80.0599 27.4674L80.4175 26.2697C68.6358 22.7518 57.1665 18.0887 46.2932 12.3942L45.7133 13.5016ZM11.9387 27.4739C23.786 23.9528 35.3314 19.2574 46.2938 13.5013L45.7127 12.3946C34.822 18.113 23.3519 22.7777 11.5826 26.2757L11.9387 27.4739ZM12.3857 41.7605V26.8748H11.1357V41.7605H12.3857ZM27.8994 77.9761C17.5995 68.0939 12.3857 55.9197 12.3857 41.7605H11.1357C11.1357 56.2632 16.4905 68.7623 27.034 78.8781L27.8994 77.9761ZM40.0955 86.9094C35.7762 84.5751 31.5573 81.4855 27.8994 77.9761L27.034 78.8781C30.7705 82.4628 35.08 85.6197 39.5012 88.0091L40.0955 86.9094ZM46.1557 89.5755C44.7085 89.2025 42.0809 87.9823 40.0955 86.9094L39.5012 88.0091C41.4937 89.0858 44.2368 90.3718 45.8437 90.786L46.1557 89.5755ZM51.9041 86.9094C49.9184 87.9823 47.2909 89.2025 45.8437 89.5755L46.1557 90.786C47.7626 90.3718 50.5057 89.0858 52.4983 88.0091L51.9041 86.9094ZM64.1002 77.9761C60.442 81.4857 56.2232 84.5753 51.9041 86.9094L52.4984 88.0091C56.9194 85.6199 61.2289 82.463 64.9656 78.8781L64.1002 77.9761Z" fill="white"/>
<path d="M82.7417 23.5326L82.9161 22.9325L82.9159 22.9324L82.7417 23.5326ZM46.9206 9.01374L46.6275 9.56573L46.6276 9.56582L46.9206 9.01374ZM84.1517 25.4082L83.5267 25.4081V25.4082H84.1517ZM79.8459 63.2881L80.4201 63.5347L79.8459 63.2881ZM67.2442 81.2437L67.6769 81.6947L67.6769 81.6947L67.2442 81.2437ZM54.0638 90.8946L54.361 91.4445L54.361 91.4445L54.0638 90.8946ZM46.3548 94.1018L46.4673 94.7166L46.4681 94.7165L46.3548 94.1018ZM45.6446 94.1018L45.5313 94.7165L45.5321 94.7166L45.6446 94.1018ZM37.9356 90.8946L38.2327 90.3448L38.2327 90.3448L37.9356 90.8946ZM24.7552 81.2437L24.3225 81.6947L24.3225 81.6947L24.7552 81.2437ZM12.1535 63.2881L12.7278 63.0415L12.7278 63.0415L12.1535 63.2881ZM9.26064 23.5363L9.08728 22.9359L9.08728 22.9359L9.26064 23.5363ZM45.0821 9.01492L45.3757 9.56667L45.3758 9.56659L45.0821 9.01492ZM80.2389 41.7605H80.8639V41.1355H80.2389V41.7605ZM64.5329 78.4271L64.9656 78.8781L64.9656 78.8781L64.5329 78.4271ZM80.2387 41.7605H79.6137V42.3855H80.2387V41.7605ZM80.2387 26.8685H80.8637V26.4029L80.4175 26.2697L80.2387 26.8685ZM46.0032 12.9479L46.2932 12.3942L46.0028 12.2422L45.7127 12.3946L46.0032 12.9479ZM11.7607 26.8748L11.5826 26.2757L11.1357 26.4085V26.8748H11.7607ZM27.4667 78.4271L27.034 78.8781L27.034 78.8781L27.4667 78.4271ZM39.7984 87.4593L39.5012 88.0091L39.5012 88.0091L39.7984 87.4593ZM45.9997 90.1807L45.8437 90.786L45.9997 90.8262L46.1557 90.786L45.9997 90.1807ZM52.2012 87.4593L52.4983 88.0091L52.4984 88.0091L52.2012 87.4593ZM82.9159 22.9324C70.5652 19.348 58.553 14.4792 47.2136 8.46167L46.6276 9.56582C58.0428 15.6236 70.1347 20.5247 82.5675 24.1329L82.9159 22.9324ZM84.7767 25.4083C84.777 24.2609 84.0177 23.2526 82.9161 22.9325L82.5673 24.1328C83.1365 24.2982 83.5269 24.8184 83.5267 25.4081L84.7767 25.4083ZM84.7767 41.7605V25.4082H83.5267V41.7605H84.7767ZM80.4201 63.5347C83.3125 56.8003 84.7767 49.473 84.7767 41.7605H83.5267C83.5267 49.3127 82.0934 56.4712 79.2716 63.0415L80.4201 63.5347ZM67.6769 81.6947C73.2524 76.3453 77.5421 70.2358 80.4201 63.5347L79.2716 63.0415C76.4636 69.5794 72.2738 75.5519 66.8115 80.7927L67.6769 81.6947ZM54.361 91.4445C59.0869 88.8904 63.6899 85.5195 67.6769 81.6947L66.8115 80.7927C62.9032 84.542 58.3909 87.8457 53.7667 90.3448L54.361 91.4445ZM46.4681 94.7165C47.8321 94.4651 49.6114 93.7465 51.1157 93.0594C52.6357 92.3651 53.9359 91.6742 54.361 91.4445L53.7667 90.3448C53.3539 90.5678 52.0809 91.2443 50.5964 91.9224C49.0963 92.6076 47.4399 93.2663 46.2415 93.4872L46.4681 94.7165ZM45.9997 94.7592C46.157 94.7592 46.3134 94.7448 46.4673 94.7166L46.2423 93.487C46.1614 93.5018 46.0803 93.5092 45.9997 93.5092V94.7592ZM45.5321 94.7166C45.686 94.7448 45.8424 94.7592 45.9997 94.7592V93.5092C45.9191 93.5092 45.838 93.5018 45.7571 93.487L45.5321 94.7166ZM37.6384 91.4445C38.0635 91.6742 39.3637 92.3651 40.8837 93.0594C42.388 93.7465 44.1672 94.4651 45.5313 94.7165L45.7579 93.4872C44.5595 93.2663 42.9031 92.6076 41.403 91.9224C39.9185 91.2443 38.6454 90.5678 38.2327 90.3448L37.6384 91.4445ZM24.3225 81.6947C28.3091 85.5195 32.9119 88.8904 37.6384 91.4445L38.2327 90.3448C33.6079 87.8457 29.0958 84.542 25.1879 80.7927L24.3225 81.6947ZM11.5793 63.5347C14.4571 70.2356 18.747 76.3449 24.3225 81.6947L25.1879 80.7927C19.7256 75.5515 15.5356 69.5792 12.7278 63.0415L11.5793 63.5347ZM7.22266 41.7605C7.22266 49.4728 8.68691 56.8001 11.5793 63.5347L12.7278 63.0415C9.90598 56.4711 8.47266 49.3125 8.47266 41.7605H7.22266ZM7.22266 25.4125V41.7605H8.47266V25.4125H7.22266ZM9.08728 22.9359C7.98368 23.2545 7.22266 24.2637 7.22266 25.4125H8.47266C8.47266 24.8219 8.86402 24.3014 9.43401 24.1368L9.08728 22.9359ZM44.7885 8.46316C33.432 14.5057 21.4204 19.3751 9.08728 22.9359L9.43401 24.1368C21.8506 20.5519 33.9428 15.6499 45.3757 9.56667L44.7885 8.46316ZM47.2138 8.46176C46.4553 8.05895 45.5461 8.0598 44.7884 8.46324L45.3758 9.56659C45.767 9.35832 46.2363 9.35799 46.6275 9.56573L47.2138 8.46176ZM79.6139 41.7605C79.6139 55.9199 74.4003 68.0938 64.1002 77.9761L64.9656 78.8781C75.5093 68.7621 80.8639 56.2634 80.8639 41.7605H79.6139ZM80.2387 42.3855H80.2389V41.1355H80.2387V42.3855ZM79.6137 26.8685V41.7605H80.8637V26.8685H79.6137ZM45.7133 13.5016C56.6577 19.2333 68.2016 23.9267 80.0599 27.4674L80.4175 26.2697C68.6358 22.7518 57.1665 18.0887 46.2932 12.3942L45.7133 13.5016ZM11.9387 27.4739C23.786 23.9528 35.3314 19.2574 46.2938 13.5013L45.7127 12.3946C34.822 18.113 23.3519 22.7777 11.5826 26.2757L11.9387 27.4739ZM12.3857 41.7605V26.8748H11.1357V41.7605H12.3857ZM27.8994 77.9761C17.5995 68.0939 12.3857 55.9197 12.3857 41.7605H11.1357C11.1357 56.2632 16.4905 68.7623 27.034 78.8781L27.8994 77.9761ZM40.0955 86.9094C35.7762 84.5751 31.5573 81.4855 27.8994 77.9761L27.034 78.8781C30.7705 82.4628 35.08 85.6197 39.5012 88.0091L40.0955 86.9094ZM46.1557 89.5755C44.7085 89.2025 42.0809 87.9823 40.0955 86.9094L39.5012 88.0091C41.4937 89.0858 44.2368 90.3718 45.8437 90.786L46.1557 89.5755ZM51.9041 86.9094C49.9184 87.9823 47.2909 89.2025 45.8437 89.5755L46.1557 90.786C47.7626 90.3718 50.5057 89.0858 52.4983 88.0091L51.9041 86.9094ZM64.1002 77.9761C60.442 81.4857 56.2232 84.5753 51.9041 86.9094L52.4984 88.0091C56.9194 85.6199 61.2289 82.463 64.9656 78.8781L64.1002 77.9761Z" fill="#007AFF" fill-opacity="0.04"/>
<path fill-rule="evenodd" clip-rule="evenodd" d="M56.3487 44.8357V38.4058C56.3487 32.709 51.7059 28.0742 45.9988 28.0742C40.292 28.0742 35.6492 32.709 35.6492 38.4058V44.8357C33.3214 44.9195 31.4531 46.8347 31.4531 49.1786V64.1725C31.4529 66.5695 33.4065 68.5195 35.8077 68.5195H56.1906C58.5918 68.5195 60.5454 66.5695 60.5454 64.1725V49.1786C60.5454 46.8345 58.6769 44.9191 56.3487 44.8357ZM39.5621 38.4058C39.5621 34.8629 42.4497 31.9805 45.999 31.9805C49.5481 31.9805 52.4355 34.8629 52.4355 38.4058V44.8316H39.5619V38.4058H39.5621ZM56.1904 64.6135C56.4299 64.6135 56.6322 64.4117 56.6322 64.1727V49.1788C56.6322 48.9397 56.4299 48.738 56.1904 48.738H54.392H37.6054H35.8075C35.568 48.738 35.3657 48.9397 35.3657 49.1788H35.3655V64.1727C35.3655 64.4117 35.5679 64.6135 35.8073 64.6135H56.1904Z" fill="#007AFF"/>
<path d="M56.3487 44.8357H55.7237V45.4387L56.3263 45.4603L56.3487 44.8357ZM35.6492 44.8357L35.6717 45.4603L36.2742 45.4386V44.8357H35.6492ZM31.4531 64.1725L32.0781 64.1725V64.1725H31.4531ZM39.5621 38.4058V39.0308H40.1871V38.4058H39.5621ZM52.4355 44.8316V45.4566H53.0605V44.8316H52.4355ZM39.5619 44.8316H38.9369V45.4566H39.5619V44.8316ZM39.5619 38.4058V37.7808H38.9369V38.4058H39.5619ZM35.3657 49.1788V49.8038H35.9907V49.1788H35.3657ZM35.3655 49.1788V48.5538H34.7405V49.1788H35.3655ZM55.7237 38.4058V44.8357H56.9737V38.4058H55.7237ZM45.9988 28.6992C51.3617 28.6992 55.7237 33.0552 55.7237 38.4058H56.9737C56.9737 32.3627 52.05 27.4492 45.9988 27.4492V28.6992ZM36.2742 38.4058C36.2742 33.0552 40.6362 28.6992 45.9988 28.6992V27.4492C39.9479 27.4492 35.0242 32.3628 35.0242 38.4058H36.2742ZM36.2742 44.8357V38.4058H35.0242V44.8357H36.2742ZM32.0781 49.1786C32.0781 47.1737 33.6775 45.532 35.6717 45.4603L35.6268 44.2111C32.9653 44.3069 30.8281 46.4956 30.8281 49.1786H32.0781ZM32.0781 64.1725V49.1786H30.8281V64.1725H32.0781ZM35.8077 67.8945C33.7506 67.8945 32.078 66.2233 32.0781 64.1725L30.8281 64.1724C30.8279 66.9158 33.0624 69.1445 35.8077 69.1445V67.8945ZM56.1906 67.8945H35.8077V69.1445H56.1906V67.8945ZM59.9204 64.1725C59.9204 66.2233 58.2477 67.8945 56.1906 67.8945V69.1445C58.9359 69.1445 61.1704 66.9158 61.1704 64.1725H59.9204ZM59.9204 49.1786V64.1725H61.1704V49.1786H59.9204ZM56.3263 45.4603C58.3209 45.5317 59.9204 47.1735 59.9204 49.1786H61.1704C61.1704 46.4954 59.033 44.3064 56.371 44.2111L56.3263 45.4603ZM45.999 31.3555C42.1055 31.3555 38.9371 34.5166 38.9371 38.4058H40.1871C40.1871 35.2091 42.7938 32.6055 45.999 32.6055V31.3555ZM53.0605 38.4058C53.0605 34.5167 49.8922 31.3555 45.999 31.3555V32.6055C49.2039 32.6055 51.8105 35.2091 51.8105 38.4058H53.0605ZM53.0605 44.8316V38.4058H51.8105V44.8316H53.0605ZM39.5619 45.4566H52.4355V44.2066H39.5619V45.4566ZM38.9369 38.4058V44.8316H40.1869V38.4058H38.9369ZM39.5621 37.7808H39.5619V39.0308H39.5621V37.7808ZM56.0072 64.1727C56.0072 64.1132 56.0322 64.0677 56.0597 64.0403C56.0871 64.0129 56.132 63.9885 56.1904 63.9885V65.2385C56.7737 65.2385 57.2572 64.7583 57.2572 64.1727H56.0072ZM56.0072 49.1788V64.1727H57.2572V49.1788H56.0072ZM56.1904 49.363C56.132 49.363 56.0871 49.3386 56.0597 49.3112C56.0322 49.2838 56.0072 49.2383 56.0072 49.1788H57.2572C57.2572 48.5932 56.7737 48.113 56.1904 48.113V49.363ZM54.392 49.363H56.1904V48.113H54.392V49.363ZM37.6054 49.363H54.392V48.113H37.6054V49.363ZM35.8075 49.363H37.6054V48.113H35.8075V49.363ZM35.9907 49.1788C35.9907 49.2383 35.9657 49.2838 35.9383 49.3112C35.9108 49.3386 35.8659 49.363 35.8075 49.363V48.113C35.2242 48.113 34.7407 48.5932 34.7407 49.1788H35.9907ZM35.3655 49.8038H35.3657V48.5538H35.3655V49.8038ZM35.9905 64.1727V49.1788H34.7405V64.1727H35.9905ZM35.8073 63.9885C35.8657 63.9885 35.9106 64.0129 35.9381 64.0403C35.9655 64.0677 35.9905 64.1132 35.9905 64.1727H34.7405C34.7405 64.7583 35.2241 65.2385 35.8073 65.2385V63.9885ZM56.1904 63.9885H35.8073V65.2385H56.1904V63.9885Z" fill="white"/>
<path d="M56.3487 44.8357H55.7237V45.4387L56.3263 45.4603L56.3487 44.8357ZM35.6492 44.8357L35.6717 45.4603L36.2742 45.4386V44.8357H35.6492ZM31.4531 64.1725L32.0781 64.1725V64.1725H31.4531ZM39.5621 38.4058V39.0308H40.1871V38.4058H39.5621ZM52.4355 44.8316V45.4566H53.0605V44.8316H52.4355ZM39.5619 44.8316H38.9369V45.4566H39.5619V44.8316ZM39.5619 38.4058V37.7808H38.9369V38.4058H39.5619ZM35.3657 49.1788V49.8038H35.9907V49.1788H35.3657ZM35.3655 49.1788V48.5538H34.7405V49.1788H35.3655ZM55.7237 38.4058V44.8357H56.9737V38.4058H55.7237ZM45.9988 28.6992C51.3617 28.6992 55.7237 33.0552 55.7237 38.4058H56.9737C56.9737 32.3627 52.05 27.4492 45.9988 27.4492V28.6992ZM36.2742 38.4058C36.2742 33.0552 40.6362 28.6992 45.9988 28.6992V27.4492C39.9479 27.4492 35.0242 32.3628 35.0242 38.4058H36.2742ZM36.2742 44.8357V38.4058H35.0242V44.8357H36.2742ZM32.0781 49.1786C32.0781 47.1737 33.6775 45.532 35.6717 45.4603L35.6268 44.2111C32.9653 44.3069 30.8281 46.4956 30.8281 49.1786H32.0781ZM32.0781 64.1725V49.1786H30.8281V64.1725H32.0781ZM35.8077 67.8945C33.7506 67.8945 32.078 66.2233 32.0781 64.1725L30.8281 64.1724C30.8279 66.9158 33.0624 69.1445 35.8077 69.1445V67.8945ZM56.1906 67.8945H35.8077V69.1445H56.1906V67.8945ZM59.9204 64.1725C59.9204 66.2233 58.2477 67.8945 56.1906 67.8945V69.1445C58.9359 69.1445 61.1704 66.9158 61.1704 64.1725H59.9204ZM59.9204 49.1786V64.1725H61.1704V49.1786H59.9204ZM56.3263 45.4603C58.3209 45.5317 59.9204 47.1735 59.9204 49.1786H61.1704C61.1704 46.4954 59.033 44.3064 56.371 44.2111L56.3263 45.4603ZM45.999 31.3555C42.1055 31.3555 38.9371 34.5166 38.9371 38.4058H40.1871C40.1871 35.2091 42.7938 32.6055 45.999 32.6055V31.3555ZM53.0605 38.4058C53.0605 34.5167 49.8922 31.3555 45.999 31.3555V32.6055C49.2039 32.6055 51.8105 35.2091 51.8105 38.4058H53.0605ZM53.0605 44.8316V38.4058H51.8105V44.8316H53.0605ZM39.5619 45.4566H52.4355V44.2066H39.5619V45.4566ZM38.9369 38.4058V44.8316H40.1869V38.4058H38.9369ZM39.5621 37.7808H39.5619V39.0308H39.5621V37.7808ZM56.0072 64.1727C56.0072 64.1132 56.0322 64.0677 56.0597 64.0403C56.0871 64.0129 56.132 63.9885 56.1904 63.9885V65.2385C56.7737 65.2385 57.2572 64.7583 57.2572 64.1727H56.0072ZM56.0072 49.1788V64.1727H57.2572V49.1788H56.0072ZM56.1904 49.363C56.132 49.363 56.0871 49.3386 56.0597 49.3112C56.0322 49.2838 56.0072 49.2383 56.0072 49.1788H57.2572C57.2572 48.5932 56.7737 48.113 56.1904 48.113V49.363ZM54.392 49.363H56.1904V48.113H54.392V49.363ZM37.6054 49.363H54.392V48.113H37.6054V49.363ZM35.8075 49.363H37.6054V48.113H35.8075V49.363ZM35.9907 49.1788C35.9907 49.2383 35.9657 49.2838 35.9383 49.3112C35.9108 49.3386 35.8659 49.363 35.8075 49.363V48.113C35.2242 48.113 34.7407 48.5932 34.7407 49.1788H35.9907ZM35.3655 49.8038H35.3657V48.5538H35.3655V49.8038ZM35.9905 64.1727V49.1788H34.7405V64.1727H35.9905ZM35.8073 63.9885C35.8657 63.9885 35.9106 64.0129 35.9381 64.0403C35.9655 64.0677 35.9905 64.1132 35.9905 64.1727H34.7405C34.7405 64.7583 35.2241 65.2385 35.8073 65.2385V63.9885ZM56.1904 63.9885H35.8073V65.2385H56.1904V63.9885Z" fill="#007AFF" fill-opacity="0.04"/>
<path d="M46.0012 52.7578C44.4945 52.7578 43.2656 53.9846 43.2656 55.4887C43.2656 56.2281 43.5636 56.8998 44.0447 57.3922V59.3037C44.0447 60.3822 44.9206 61.2568 46.0012 61.2568C47.0818 61.2568 47.9577 60.3822 47.9577 59.3037V57.3922C48.4388 56.8996 48.7368 56.2281 48.7368 55.4887C48.7368 53.9846 47.5079 52.7578 46.0012 52.7578Z" fill="#007AFF"/>
<path d="M46.0012 52.7578C44.4945 52.7578 43.2656 53.9846 43.2656 55.4887C43.2656 56.2281 43.5636 56.8998 44.0447 57.3922V59.3037C44.0447 60.3822 44.9206 61.2568 46.0012 61.2568C47.0818 61.2568 47.9577 60.3822 47.9577 59.3037V57.3922C48.4388 56.8996 48.7368 56.2281 48.7368 55.4887C48.7368 53.9846 47.5079 52.7578 46.0012 52.7578Z" stroke="white" stroke-width="1.25"/>
<path d="M46.0012 52.7578C44.4945 52.7578 43.2656 53.9846 43.2656 55.4887C43.2656 56.2281 43.5636 56.8998 44.0447 57.3922V59.3037C44.0447 60.3822 44.9206 61.2568 46.0012 61.2568C47.0818 61.2568 47.9577 60.3822 47.9577 59.3037V57.3922C48.4388 56.8996 48.7368 56.2281 48.7368 55.4887C48.7368 53.9846 47.5079 52.7578 46.0012 52.7578Z" stroke="#007AFF" stroke-opacity="0.04" stroke-width="1.25"/>
</svg>
