<svg width="104" height="102" viewBox="0 0 104 102" fill="none" xmlns="http://www.w3.org/2000/svg">
<path fill-rule="evenodd" clip-rule="evenodd" d="M90.3297 17.6174C87.7897 20.1575 83.6716 20.1575 81.1316 17.6174C78.5916 15.0774 78.5916 10.9593 81.1316 8.41926C83.6716 5.87922 87.7897 5.87922 90.3297 8.41926C92.8698 10.9593 92.8698 15.0774 90.3297 17.6174Z" stroke="#007AFF" stroke-width="2.75" stroke-linecap="round" stroke-linejoin="round"/>
<path fill-rule="evenodd" clip-rule="evenodd" d="M22.8688 91.5803C20.3288 94.1204 16.2107 94.1204 13.6707 91.5803C11.1306 89.0403 11.1306 84.9222 13.6707 82.3821C16.2107 79.8421 20.3288 79.8421 22.8688 82.3821C25.4088 84.9222 25.4088 89.0403 22.8688 91.5803Z" stroke="#007AFF" stroke-width="2.75" stroke-linecap="round" stroke-linejoin="round"/>
<path d="M42.1406 99.0278C45.3284 99.6654 48.6256 100 52.001 100C79.6152 100 102.001 77.6142 102.001 50C102.001 37.9453 97.7342 26.8876 90.6296 18.2528" stroke="#007AFF" stroke-width="2.75" stroke-linecap="round" stroke-linejoin="round"/>
<path d="M61.9552 0.991158C58.7379 0.341157 55.4089 -9.91821e-05 51.9999 -9.91821e-05C24.3857 -9.91821e-05 2 22.3857 2 49.9999C2 62.0546 6.26666 73.1123 13.3713 81.7471" stroke="#007AFF" stroke-width="2.75" stroke-linecap="round" stroke-linejoin="round"/>
<path d="M81.4398 43.6271V45.0021C80.7917 45.0021 80.2316 44.5495 80.0955 43.9159L81.4398 43.6271ZM77.3097 33.66L76.1549 34.4063C75.8031 33.862 75.8792 33.146 76.3374 32.6877L77.3097 33.66ZM81.204 29.7655L82.1759 28.7929C82.4339 29.0507 82.5789 29.4005 82.579 29.7652C82.5791 30.13 82.4342 30.4798 82.1763 30.7377L81.204 29.7655ZM72.2144 20.7823L71.2421 19.8101C71.7789 19.2732 72.6493 19.2731 73.1863 19.8097L72.2144 20.7823ZM68.3231 24.6736L69.2954 25.6459C68.8372 26.1041 68.1211 26.1802 67.5768 25.8284L68.3231 24.6736ZM58.3563 20.5437L58.0675 21.8881C57.4339 21.7519 56.9813 21.1918 56.9813 20.5437H58.3563ZM58.3563 15.0403V13.6653C59.1157 13.6653 59.7313 14.2809 59.7313 15.0403H58.3563ZM45.6474 15.0403H44.2724C44.2724 14.2809 44.888 13.6653 45.6474 13.6653V15.0403ZM45.6474 20.5437H47.0224C47.0224 21.1918 46.5698 21.7519 45.9361 21.8881L45.6474 20.5437ZM35.6805 24.6736L36.4268 25.8284C35.8825 26.1802 35.1665 26.1041 34.7082 25.6459L35.6805 24.6736ZM31.7892 20.7823L30.8173 19.8097C31.3544 19.2731 32.2247 19.2732 32.7615 19.8101L31.7892 20.7823ZM22.7996 29.7655L21.8273 30.7377C21.5694 30.4798 21.4246 30.13 21.4246 29.7652C21.4247 29.4005 21.5697 29.0507 21.8277 28.7929L22.7996 29.7655ZM26.6939 33.66L27.6662 32.6877C28.1245 33.146 28.2005 33.862 27.8488 34.4063L26.6939 33.66ZM22.5639 43.6271L23.9082 43.9159C23.772 44.5495 23.2119 45.0021 22.5639 45.0021V43.6271ZM17.046 43.6271L15.671 43.6263C15.6714 42.8672 16.2869 42.2521 17.046 42.2521V43.6271ZM17.0391 56.3358V57.7108C16.6743 57.7108 16.3244 57.5658 16.0665 57.3078C15.8086 57.0498 15.6639 56.6999 15.6641 56.3351L17.0391 56.3358ZM22.5636 56.3358V54.9608C23.2117 54.9608 23.7718 55.4133 23.908 56.047L22.5636 56.3358ZM26.6937 66.3031L27.8486 65.5568C28.2003 66.1011 28.1242 66.8171 27.666 67.2754L26.6937 66.3031ZM22.7846 70.2122L21.8119 71.1841C21.2753 70.6471 21.2755 69.7768 21.8123 69.24L22.7846 70.2122ZM31.7677 79.2021L32.74 80.1743C32.4821 80.4323 32.1322 80.5771 31.7675 80.5771C31.4027 80.577 31.0529 80.432 30.7951 80.174L31.7677 79.2021ZM35.6801 75.2895L34.7078 74.3172C35.1661 73.8589 35.8821 73.7829 36.4264 74.1347L35.6801 75.2895ZM45.6474 79.4198L45.9362 78.0754C46.5698 78.2116 47.0224 78.7717 47.0224 79.4198H45.6474ZM45.6474 84.959V86.334C44.888 86.334 44.2724 85.7184 44.2724 84.959H45.6474ZM58.3563 84.959H59.7313C59.7313 85.7184 59.1157 86.334 58.3563 86.334V84.959ZM58.3563 79.4198H56.9813C56.9813 78.7717 57.4338 78.2116 58.0674 78.0754L58.3563 79.4198ZM68.3235 75.2895L67.5772 74.1347C68.1215 73.7829 68.8376 73.8589 69.2958 74.3172L68.3235 75.2895ZM72.2359 79.2021L73.2086 80.174C72.9507 80.432 72.6009 80.577 72.2362 80.5771C71.8714 80.5771 71.5216 80.4323 71.2636 80.1743L72.2359 79.2021ZM81.2191 70.2122L82.1913 69.24C82.7282 69.7768 82.7283 70.6471 82.1917 71.1841L81.2191 70.2122ZM77.3099 66.3031L76.3376 67.2754C75.8794 66.8171 75.8033 66.1011 76.1551 65.5568L77.3099 66.3031ZM81.44 56.3358L80.0957 56.047C80.2318 55.4133 80.7919 54.9608 81.44 54.9608V56.3358ZM86.9646 56.3358H88.3396C88.3396 57.0952 87.724 57.7108 86.9646 57.7108V56.3358ZM86.9646 43.6271V42.2521C87.724 42.2521 88.3396 42.8677 88.3396 43.6271H86.9646ZM52.0018 66.1368C43.0896 66.1368 35.8646 58.9121 35.8646 49.9996H38.6146C38.6146 57.3933 44.6084 63.3868 52.0018 63.3868V66.1368ZM35.8646 49.9996C35.8646 41.0874 43.0896 33.8626 52.0018 33.8626V36.6126C44.6084 36.6126 38.6146 42.6062 38.6146 49.9996H35.8646ZM52.0018 33.8626C60.914 33.8626 68.139 41.0874 68.139 49.9996H65.389C65.389 42.6062 59.3953 36.6126 52.0018 36.6126V33.8626ZM68.139 49.9996C68.139 58.9121 60.914 66.1368 52.0018 66.1368V63.3868C59.3953 63.3868 65.389 57.3933 65.389 49.9996H68.139ZM80.0955 43.9159C79.3567 40.4776 78.0038 37.2673 76.1549 34.4063L78.4645 32.9137C80.4908 36.049 81.9741 39.5684 82.7841 43.3382L80.0955 43.9159ZM76.3374 32.6877L80.2317 28.7932L82.1763 30.7377L78.282 34.6322L76.3374 32.6877ZM80.2321 30.7381L71.2425 21.755L73.1863 19.8097L82.1759 28.7929L80.2321 30.7381ZM73.1867 21.7546L69.2954 25.6459L67.3509 23.7013L71.2421 19.8101L73.1867 21.7546ZM67.5768 25.8284C64.7158 23.9795 61.5058 22.6266 58.0675 21.8881L58.6451 19.1994C62.4149 20.0092 65.9342 21.4925 69.0695 23.5188L67.5768 25.8284ZM56.9813 20.5437V15.0403H59.7313V20.5437H56.9813ZM58.3563 16.4153H45.6474V13.6653H58.3563V16.4153ZM47.0224 15.0403V20.5437H44.2724V15.0403H47.0224ZM45.9361 21.8881C42.4979 22.6266 39.2879 23.9795 36.4268 25.8284L34.9342 23.5188C38.0695 21.4925 41.5887 20.0092 45.3586 19.1994L45.9361 21.8881ZM34.7082 25.6459L30.817 21.7546L32.7615 19.8101L36.6528 23.7013L34.7082 25.6459ZM32.7612 21.755L23.7715 30.7381L21.8277 28.7929L30.8173 19.8097L32.7612 21.755ZM23.7719 28.7932L27.6662 32.6877L25.7216 34.6322L21.8273 30.7377L23.7719 28.7932ZM27.8488 34.4063C25.9998 37.2673 24.647 40.4776 23.9082 43.9159L21.2195 43.3382C22.0295 39.5684 23.5129 36.049 25.5391 32.9137L27.8488 34.4063ZM22.5639 45.0021H17.046V42.2521H22.5639V45.0021ZM18.421 43.6278L18.4141 56.3366L15.6641 56.3351L15.671 43.6263L18.421 43.6278ZM17.0391 54.9608H22.5636V57.7108H17.0391V54.9608ZM23.908 56.047C24.6467 59.4853 25.9996 62.6956 27.8486 65.5568L25.5389 67.0494C23.5127 63.9139 22.0293 60.3944 21.2193 56.6247L23.908 56.047ZM27.666 67.2754L23.7569 71.1845L21.8123 69.24L25.7215 65.3308L27.666 67.2754ZM23.7572 69.2403L32.7403 78.2302L30.7951 80.174L21.8119 71.1841L23.7572 69.2403ZM30.7954 78.2298L34.7078 74.3172L36.6524 76.2617L32.74 80.1743L30.7954 78.2298ZM36.4264 74.1347C39.2876 75.9838 42.4979 77.3367 45.9362 78.0754L45.3585 80.7641C41.5887 79.9541 38.0693 78.4707 34.9338 76.4443L36.4264 74.1347ZM47.0224 79.4198V84.959H44.2724V79.4198H47.0224ZM45.6474 83.584H58.3563V86.334H45.6474V83.584ZM56.9813 84.959V79.4198H59.7313V84.959H56.9813ZM58.0674 78.0754C61.5058 77.3367 64.716 75.9838 67.5772 74.1347L69.0699 76.4443C65.9344 78.4707 62.4149 79.9541 58.6451 80.7641L58.0674 78.0754ZM69.2958 74.3172L73.2082 78.2298L71.2636 80.1743L67.3512 76.2617L69.2958 74.3172ZM71.2633 78.2302L80.2464 69.2403L82.1917 71.1841L73.2086 80.174L71.2633 78.2302ZM80.2468 71.1845L76.3376 67.2754L78.2822 65.3308L82.1913 69.24L80.2468 71.1845ZM76.1551 65.5568C78.004 62.6956 79.3569 59.4853 80.0957 56.047L82.7843 56.6247C81.9743 60.3944 80.491 63.9139 78.4648 67.0494L76.1551 65.5568ZM81.44 54.9608H86.9646V57.7108H81.44V54.9608ZM85.5896 56.3358V43.6271H88.3396V56.3358H85.5896ZM86.9646 45.0021H81.4398V42.2521H86.9646V45.0021Z" fill="#007AFF"/>
</svg>
