<svg width="108" height="111" viewBox="0 0 108 111" fill="none" xmlns="http://www.w3.org/2000/svg">
<path fill-rule="evenodd" clip-rule="evenodd" d="M53.4998 0C69.3805 0 82.3004 12.8397 82.3004 28.6219C82.3004 44.4073 69.3808 57.2499 53.4998 57.2499C37.6193 57.2499 24.6994 44.4075 24.6994 28.6219C24.6994 12.8397 37.6193 0 53.4998 0ZM27.8238 28.6219C27.8238 42.6954 39.3423 54.1451 53.5 54.1451C67.658 54.1451 79.1762 42.6954 79.1764 28.6219C79.1764 14.5516 67.658 3.10481 53.5 3.10481C39.3421 3.10481 27.8238 14.5518 27.8238 28.6219ZM67.7082 23.9867L59.002 22.4888L54.8818 14.7215C54.6116 14.2118 54.0796 13.8932 53.5 13.8932C52.9205 13.8932 52.3885 14.2121 52.1182 14.7215L47.9981 22.4886L39.2919 23.9865C38.7208 24.0847 38.2515 24.4892 38.0725 25.037C37.8936 25.585 38.0346 26.1862 38.439 26.5989L44.6012 32.8906L43.3388 41.5761C43.2558 42.1463 43.4975 42.7151 43.9663 43.0538C44.4354 43.3924 45.0547 43.4454 45.5744 43.1911L53.5 39.3163L61.4263 43.1911C61.6448 43.298 61.8807 43.3505 62.1157 43.3505C62.4399 43.3505 62.7624 43.2503 63.0344 43.0538C63.5032 42.7151 63.7449 42.1463 63.6619 41.5761L62.3993 32.8906L68.5615 26.5989C68.9659 26.1862 69.1067 25.585 68.928 25.037C68.7488 24.4892 68.2793 24.0849 67.7082 23.9867ZM59.197 32.5779C59.1274 32.1007 59.2851 31.6188 59.6234 31.2732L64.2557 26.5435L57.7121 25.4178C57.2348 25.3357 56.8228 25.0379 56.5968 24.6121L53.5 18.7744L50.4035 24.6121C50.1774 25.0379 49.7655 25.3355 49.2882 25.4178L42.7445 26.5435L47.3768 31.273C47.7149 31.6185 47.8729 32.1007 47.8033 32.5777L46.8546 39.1051L52.8105 36.1933C53.0278 36.0868 53.2639 36.0338 53.5 36.0338C53.7361 36.0338 53.972 36.087 54.1896 36.1933L60.1459 39.1051L59.197 32.5779ZM38.2885 96.6755C37.8724 94.8804 37.5126 93.3303 37.1308 92.2345C35.6555 88.0082 31.1174 84.395 29.2342 83.0376L24.9478 79.9494L30.4522 72.2546C31.2622 71.1186 31.5776 69.7337 31.3397 68.3547C31.1027 66.9806 30.3451 65.7837 29.2114 64.9882C28.5846 64.5442 27.8919 64.259 27.1811 64.1215C28.2822 61.7696 27.575 58.8899 25.3709 57.3308C24.4573 56.6846 23.4116 56.3559 22.3663 56.32C22.6941 54.0945 21.5545 52.0205 19.8275 50.801C17.9344 49.4646 15.2826 49.1523 13.1602 50.6621L12.8859 49.0507C12.2852 45.5348 8.91911 43.16 5.38698 43.7564C1.98719 44.3248 -0.359079 47.5589 0.0452806 51.1196L3.25918 79.3422C3.66578 82.8555 4.22568 85.7809 5.13013 89.121L6.87655 95.6107C7.33938 97.3211 8.03474 98.7007 9.13044 100.083L10.3397 101.612C11.1734 102.664 11.6796 103.668 12.0315 104.969L13.0752 108.848C13.262 109.542 13.8933 109.999 14.5833 109.999C14.7169 109.999 14.8526 109.982 14.9879 109.946C15.8211 109.725 16.3161 108.874 16.0934 108.046L15.049 104.165C14.5862 102.454 13.8906 101.074 12.7949 99.692L11.5856 98.1631C10.7521 97.1113 10.246 96.1066 9.89408 94.8062L8.14766 88.3162C7.28471 85.1298 6.75092 82.3397 6.36329 78.9898L3.14984 50.7704C2.93137 48.8487 4.14177 47.1124 5.90739 46.8173C7.74642 46.5077 9.49329 47.7423 9.80526 49.5688L12.6204 66.1192C12.3066 66.1514 11.9915 66.2077 11.6773 66.292C10.1346 66.7 8.84301 67.6854 8.04009 69.0668C7.23829 70.4467 7.02495 72.0485 7.43913 73.5752L11.7407 89.5175C11.9641 90.3454 12.8201 90.8369 13.654 90.6149C14.4871 90.3929 14.9816 89.5415 14.758 88.7134L10.456 72.7691C10.2592 72.043 10.3618 71.2794 10.7456 70.6194C11.1301 69.9579 11.7463 69.4864 12.4856 69.2908C14.0046 68.8841 15.5743 69.786 15.9847 71.2983L16.6495 73.771C17.5622 77.1464 19.3865 79.7804 22.2257 81.8229L27.3998 85.5505C30.8226 88.0181 33.3568 90.897 34.1784 93.2506C34.5052 94.1883 34.8471 95.6628 35.243 97.3699L35.2436 97.3723L35.2443 97.3755C36.1786 101.402 37.3409 106.413 39.4275 109.343C39.7319 109.77 40.2142 109.999 40.704 109.999C41.0157 109.999 41.3311 109.906 41.6049 109.713C42.3092 109.218 42.4761 108.249 41.9778 107.549C40.2479 105.12 39.1162 100.243 38.2895 96.6797L38.2895 96.6797L38.2885 96.6755ZM18.0179 53.3318C16.9923 52.608 15.384 52.3376 14.2253 53.9568L13.8178 54.5285L15.1184 62.1746L17.657 58.6262C17.676 58.5998 17.6961 58.5747 17.7155 58.5488L18.7264 57.1361C19.9645 55.4025 18.8636 53.9291 18.0179 53.3318ZM15.891 66.7169L15.855 66.5058L20.2305 60.3915C21.0086 59.3463 22.4917 59.1048 23.5593 59.8604C24.6405 60.625 24.8958 62.1187 24.1281 63.1907L22.3866 65.6258C22.2112 65.8074 22.0465 66.0032 21.8952 66.2144L18.9529 70.3282C18.4602 68.6993 17.3203 67.427 15.891 66.7169ZM24.7666 67.6574L20.0769 74.2152C20.6344 75.6594 21.44 76.9124 22.5131 77.9951L27.9048 70.4575C28.2304 70.0009 28.3574 69.4398 28.2606 68.8792C28.1648 68.3234 27.8607 67.8411 27.4039 67.5206C26.5826 66.9389 25.4901 67.0229 24.7666 67.6574ZM101.615 43.7566C99.9064 43.4681 98.1838 43.8615 96.7643 44.8639C95.3457 45.8656 94.4044 47.3524 94.1141 49.0516L93.8403 50.6615C91.7185 49.1519 89.0659 49.4641 87.1726 50.801C85.4456 52.0205 84.3059 54.0943 84.634 56.3198C83.5887 56.3557 82.5428 56.6844 81.6289 57.3306C79.4299 58.8861 78.723 61.7643 79.8202 64.1193C79.0974 64.2586 78.4081 64.5491 77.7942 64.984C76.6552 65.7835 75.8971 66.9806 75.6604 68.3547C75.4227 69.7337 75.738 71.1186 76.5492 72.2561L82.052 79.9492L77.7654 83.0376C75.8826 84.3948 71.3445 88.0079 69.8683 92.2354C69.4875 93.3292 69.1282 94.8774 68.7122 96.6702L68.7113 96.6744C67.8849 100.238 66.7531 105.118 65.0216 107.55C64.5233 108.25 64.6902 109.218 65.3945 109.714C65.6685 109.907 65.9834 109.999 66.2954 109.999C66.785 109.999 67.2672 109.771 67.5718 109.343C69.659 106.412 70.8214 101.4 71.7555 97.3731L71.7558 97.3718C72.1519 95.664 72.4942 94.189 72.8205 93.252C73.6426 90.8974 76.177 88.0184 79.5995 85.5509L84.773 81.8238C87.6133 79.7806 89.4374 77.1466 90.3508 73.769L91.0142 71.3018C91.4251 69.7865 92.9994 68.8845 94.5243 69.2921C95.2558 69.4862 95.8701 69.957 96.254 70.6181C96.6378 71.279 96.7407 72.043 96.5429 72.772L92.2478 88.7143C92.0247 89.5426 92.5194 90.3938 93.3527 90.6155C94.1871 90.8375 95.0427 90.3454 95.2656 89.5175L99.56 73.5777C99.9744 72.049 99.7613 70.4469 98.96 69.0666C98.1581 67.6861 96.869 66.7009 95.3325 66.2933C95.015 66.2086 94.6965 66.152 94.3794 66.1201L97.1946 49.5703C97.3452 48.6895 97.835 47.9168 98.5741 47.395C99.313 46.8734 100.206 46.6682 101.095 46.8181C102.858 47.1129 104.068 48.8491 103.85 50.7706L100.637 78.9874C100.249 82.3401 99.7153 85.1302 98.8517 88.3191L97.1066 94.8048C96.7545 96.1068 96.2482 97.1115 95.4133 98.1649L94.2063 99.6914C93.1092 101.076 92.4139 102.455 91.9508 104.167L90.9069 108.046C90.6842 108.874 91.1791 109.725 92.0124 109.947C92.1474 109.983 92.2833 110 92.417 110C93.107 110 93.7383 109.542 93.9251 108.848L94.9684 104.972C95.3205 103.67 95.8268 102.665 96.6617 101.611L97.8687 100.085C98.9658 98.7009 99.6611 97.3211 100.124 95.6092L101.869 89.1239C102.774 85.7811 103.334 82.8559 103.741 79.3397L106.955 51.1196C107.359 47.5589 105.012 44.3248 101.615 43.7566ZM92.7729 53.9548C91.6161 52.3378 90.0078 52.6082 88.9819 53.3321C88.1362 53.9291 87.0356 55.4025 88.2745 57.1377L89.2845 58.549C89.2893 58.5553 89.294 58.5616 89.2988 58.5678L89.3078 58.5796C89.3131 58.5864 89.3183 58.5932 89.3235 58.6C89.33 58.6085 89.3363 58.6171 89.3426 58.6258L91.8819 62.175L93.1824 54.5292L92.7729 53.9548ZM84.4869 77.9949L79.0968 70.4593C78.7699 70.0009 78.6431 69.4398 78.7395 68.8794C78.8355 68.3236 79.1396 67.8413 79.6018 67.5168C80.0597 67.1926 80.6203 67.0662 81.1808 67.1602C81.5796 67.2272 81.9407 67.4015 82.2344 67.659L86.9231 74.2155C86.3652 75.6597 85.5598 76.9124 84.4869 77.9949ZM85.1037 66.2126L88.0471 70.328C88.5403 68.7007 89.6795 67.4299 91.1088 66.7198L91.1452 66.5058L86.7693 60.3911C85.9919 59.3461 84.5094 59.1048 83.4405 59.8604C82.3622 60.623 82.1078 62.118 82.8737 63.1927L84.6342 65.6544C84.8009 65.8296 84.9604 66.013 85.1037 66.2126Z" fill="#007AFF"/>
<path d="M79.1764 28.6219L79.4514 28.622V28.6219H79.1764ZM59.002 22.4888L58.759 22.6177L58.8223 22.737L58.9553 22.7598L59.002 22.4888ZM67.7082 23.9867L67.6616 24.2577L67.7082 23.9867ZM54.8818 14.7215L54.6389 14.8503L54.6389 14.8503L54.8818 14.7215ZM52.1182 14.7215L51.8753 14.5926L51.8753 14.5926L52.1182 14.7215ZM47.9981 22.4886L48.0447 22.7596L48.1778 22.7367L48.241 22.6175L47.9981 22.4886ZM39.2919 23.9865L39.3385 24.2575L39.2919 23.9865ZM38.0725 25.037L37.8111 24.9516L37.8111 24.9516L38.0725 25.037ZM38.439 26.5989L38.6354 26.4065L38.6354 26.4065L38.439 26.5989ZM44.6012 32.8906L44.8733 32.9302L44.8929 32.7955L44.7977 32.6982L44.6012 32.8906ZM43.3388 41.5761L43.6109 41.6157L43.6109 41.6157L43.3388 41.5761ZM43.9663 43.0538L43.8053 43.2767L43.8054 43.2768L43.9663 43.0538ZM45.5744 43.1911L45.4536 42.944L45.4535 42.9441L45.5744 43.1911ZM53.5 39.3163L53.6208 39.0692L53.5 39.0102L53.3792 39.0692L53.5 39.3163ZM61.4263 43.1911L61.5472 42.944L61.5471 42.944L61.4263 43.1911ZM63.0344 43.0538L62.8734 42.8309V42.8309L63.0344 43.0538ZM63.6619 41.5761L63.3898 41.6157L63.3898 41.6157L63.6619 41.5761ZM62.3993 32.8906L62.2028 32.6982L62.1076 32.7955L62.1272 32.9302L62.3993 32.8906ZM68.5615 26.5989L68.3651 26.4065L68.3651 26.4065L68.5615 26.5989ZM68.928 25.037L69.1894 24.9517L69.1893 24.9515L68.928 25.037ZM59.6234 31.2732L59.427 31.0808L59.4269 31.0808L59.6234 31.2732ZM59.197 32.5779L59.4691 32.5384L59.4691 32.5382L59.197 32.5779ZM64.2557 26.5435L64.4522 26.7359L64.819 26.3614L64.3024 26.2725L64.2557 26.5435ZM57.7121 25.4178L57.7587 25.1468L57.7587 25.1468L57.7121 25.4178ZM56.5968 24.6121L56.3538 24.7409L56.3539 24.741L56.5968 24.6121ZM53.5 18.7744L53.743 18.6455L53.5 18.1875L53.2571 18.6455L53.5 18.7744ZM50.4035 24.6121L50.6464 24.741L50.6464 24.7409L50.4035 24.6121ZM49.2882 25.4178L49.3348 25.6888L49.3349 25.6888L49.2882 25.4178ZM42.7445 26.5435L42.6979 26.2725L42.1812 26.3614L42.5481 26.7359L42.7445 26.5435ZM47.3768 31.273L47.5734 31.0807L47.5733 31.0806L47.3768 31.273ZM47.8033 32.5777L47.5312 32.538L47.5311 32.5382L47.8033 32.5777ZM46.8546 39.1051L46.5825 39.0656L46.5076 39.5809L46.9754 39.3522L46.8546 39.1051ZM52.8105 36.1933L52.9313 36.4403L52.9314 36.4402L52.8105 36.1933ZM54.1896 36.1933L54.3104 35.9462L54.3102 35.9461L54.1896 36.1933ZM60.1459 39.1051L60.0251 39.3522L60.4929 39.5809L60.418 39.0656L60.1459 39.1051ZM37.1308 92.2345L37.3905 92.144L37.3904 92.1439L37.1308 92.2345ZM38.2885 96.6755L38.5565 96.6136L38.5564 96.6134L38.2885 96.6755ZM29.2342 83.0376L29.395 82.8145L29.3949 82.8145L29.2342 83.0376ZM24.9478 79.9494L24.7241 79.7894L24.5647 80.0123L24.787 80.1725L24.9478 79.9494ZM30.4522 72.2546L30.6758 72.4146L30.6761 72.4142L30.4522 72.2546ZM31.3397 68.3547L31.0687 68.4014L31.0687 68.4014L31.3397 68.3547ZM29.2114 64.9882L29.0525 65.2126L29.0535 65.2133L29.2114 64.9882ZM27.1811 64.1215L26.9321 64.0049L26.7825 64.3245L27.1289 64.3915L27.1811 64.1215ZM25.3709 57.3308L25.2121 57.5553H25.2121L25.3709 57.3308ZM22.3663 56.32L22.0942 56.2799L22.0494 56.5843L22.3569 56.5948L22.3663 56.32ZM19.8275 50.801L19.9861 50.5763L19.9861 50.5763L19.8275 50.801ZM13.1602 50.6621L12.8891 50.7083L12.9626 51.1402L13.3196 50.8862L13.1602 50.6621ZM12.8859 49.0507L13.157 49.0046L13.157 49.0044L12.8859 49.0507ZM5.38698 43.7564L5.43233 44.0276L5.43277 44.0275L5.38698 43.7564ZM0.0452806 51.1196L-0.227963 51.1507L-0.227953 51.1508L0.0452806 51.1196ZM3.25918 79.3422L2.98595 79.3733L2.98601 79.3738L3.25918 79.3422ZM5.13013 89.121L5.39568 89.0496L5.39557 89.0491L5.13013 89.121ZM6.87655 95.6107L6.611 95.6822L6.6111 95.6826L6.87655 95.6107ZM9.13044 100.083L9.34613 99.9126L9.34596 99.9124L9.13044 100.083ZM10.3397 101.612L10.124 101.783L10.1242 101.783L10.3397 101.612ZM12.0315 104.969L12.297 104.897L12.2969 104.897L12.0315 104.969ZM13.0752 108.848L12.8096 108.919L12.8096 108.919L13.0752 108.848ZM14.9879 109.946L15.0585 110.212L15.0585 110.212L14.9879 109.946ZM16.0934 108.046L16.3589 107.974L16.3589 107.974L16.0934 108.046ZM15.049 104.165L15.3146 104.093L15.3145 104.093L15.049 104.165ZM12.7949 99.692L12.5792 99.8626L12.5794 99.8628L12.7949 99.692ZM11.5856 98.1631L11.8013 97.9925L11.8011 97.9923L11.5856 98.1631ZM9.89408 94.8062L9.62853 94.8776L9.62863 94.878L9.89408 94.8062ZM8.14766 88.3162L8.41321 88.2447L8.41309 88.2443L8.14766 88.3162ZM6.36329 78.9898L6.09006 79.0209L6.09012 79.0214L6.36329 78.9898ZM3.14984 50.7704L2.8766 50.8014L2.8766 50.8015L3.14984 50.7704ZM5.90739 46.8173L5.95273 47.0885L5.95304 47.0884L5.90739 46.8173ZM9.80526 49.5688L10.0764 49.5227L10.0763 49.5225L9.80526 49.5688ZM12.6204 66.1192L12.6484 66.3928L12.9408 66.3628L12.8915 66.0731L12.6204 66.1192ZM11.6773 66.292L11.7476 66.5578L11.7486 66.5576L11.6773 66.292ZM8.04009 69.0668L7.80234 68.9286L7.80232 68.9286L8.04009 69.0668ZM7.43913 73.5752L7.70464 73.5036L7.70454 73.5032L7.43913 73.5752ZM11.7407 89.5175L11.4752 89.5892L11.7407 89.5175ZM13.654 90.6149L13.7248 90.8806L13.7249 90.8806L13.654 90.6149ZM14.758 88.7134L14.4925 88.785L14.4925 88.7851L14.758 88.7134ZM10.456 72.7691L10.7215 72.6974L10.7214 72.6971L10.456 72.7691ZM10.7456 70.6194L10.9834 70.7577L10.9834 70.7576L10.7456 70.6194ZM12.4856 69.2908L12.5559 69.5566L12.5567 69.5564L12.4856 69.2908ZM15.9847 71.2983L16.2503 71.2269L16.2501 71.2263L15.9847 71.2983ZM16.6495 73.771L16.3839 73.8424L16.384 73.8428L16.6495 73.771ZM22.2257 81.8229L22.3865 81.5998L22.3863 81.5997L22.2257 81.8229ZM27.3998 85.5505L27.5607 85.3274L27.5606 85.3273L27.3998 85.5505ZM34.1784 93.2506L34.4381 93.1601L34.4381 93.16L34.1784 93.2506ZM35.243 97.3699L34.9751 97.432L34.9752 97.4324L35.243 97.3699ZM35.2436 97.3723L34.9758 97.4348L34.9758 97.4349L35.2436 97.3723ZM35.2443 97.3755L35.5122 97.3134L35.5121 97.3128L35.2443 97.3755ZM39.4275 109.343L39.6516 109.183L39.6515 109.183L39.4275 109.343ZM41.6049 109.713L41.4467 109.489L41.4466 109.489L41.6049 109.713ZM41.9778 107.549L41.7537 107.709H41.7537L41.9778 107.549ZM38.2895 96.6797L38.5574 96.6176L38.5545 96.605L38.5504 96.5928L38.2895 96.6797ZM38.2895 96.6797L38.0216 96.7416L38.0245 96.7543L38.0286 96.7666L38.2895 96.6797ZM14.2253 53.9568L14.0017 53.7968L14.0014 53.7972L14.2253 53.9568ZM18.0179 53.3318L18.1765 53.1072L18.1765 53.1072L18.0179 53.3318ZM13.8178 54.5285L13.5939 54.3689L13.5276 54.462L13.5467 54.5746L13.8178 54.5285ZM15.1184 62.1746L14.8473 62.2207L14.958 62.8714L15.3421 62.3346L15.1184 62.1746ZM17.657 58.6262L17.4337 58.4657L17.4334 58.4662L17.657 58.6262ZM17.7155 58.5488L17.9357 58.7136L17.9391 58.7088L17.7155 58.5488ZM18.7264 57.1361L18.95 57.2961L18.9502 57.2959L18.7264 57.1361ZM15.855 66.5058L15.6314 66.3457L15.5647 66.4389L15.5839 66.5519L15.855 66.5058ZM15.891 66.7169L15.6199 66.763L15.6433 66.9009L15.7686 66.9632L15.891 66.7169ZM20.2305 60.3915L20.0099 60.2273L20.0068 60.2315L20.2305 60.3915ZM23.5593 59.8604L23.4004 60.0848L23.4005 60.0849L23.5593 59.8604ZM24.1281 63.1907L23.9045 63.0306L23.9045 63.0308L24.1281 63.1907ZM22.3866 65.6258L22.5844 65.8168L22.5985 65.8022L22.6103 65.7858L22.3866 65.6258ZM21.8952 66.2144L21.6717 66.0542L21.6715 66.0544L21.8952 66.2144ZM18.9529 70.3282L18.6897 70.4079L18.8515 70.9428L19.1766 70.4882L18.9529 70.3282ZM20.0769 74.2152L19.8533 74.0553L19.767 74.1759L19.8204 74.3143L20.0769 74.2152ZM24.7666 67.6574L24.5853 67.4507L24.5614 67.4716L24.5429 67.4975L24.7666 67.6574ZM22.5131 77.9951L22.3178 78.1887L22.5472 78.4202L22.7368 78.1551L22.5131 77.9951ZM27.9048 70.4575L28.1285 70.6175L28.1287 70.6172L27.9048 70.4575ZM28.2606 68.8792L27.9895 68.9259L27.9896 68.926L28.2606 68.8792ZM27.4039 67.5206L27.2449 67.745L27.2459 67.7457L27.4039 67.5206ZM96.7643 44.8639L96.9229 45.0885L96.7643 44.8639ZM101.615 43.7566L101.569 44.0277L101.57 44.0278L101.615 43.7566ZM94.1141 49.0516L93.843 49.0053L93.843 49.0055L94.1141 49.0516ZM93.8403 50.6615L93.6809 50.8855L94.0379 51.1396L94.1114 50.7076L93.8403 50.6615ZM87.1726 50.801L87.014 50.5763L87.014 50.5763L87.1726 50.801ZM84.634 56.3198L84.6434 56.5946L84.9509 56.584L84.906 56.2797L84.634 56.3198ZM81.6289 57.3306L81.4701 57.1061L81.4701 57.1061L81.6289 57.3306ZM79.8202 64.1193L79.8723 64.3893L80.2184 64.3226L80.0695 64.0031L79.8202 64.1193ZM77.7942 64.984L77.9522 65.2091L77.9532 65.2084L77.7942 64.984ZM75.6604 68.3547L75.9314 68.4014V68.4014L75.6604 68.3547ZM76.5492 72.2561L76.3253 72.4158L76.3255 72.4161L76.5492 72.2561ZM82.052 79.9492L82.2128 80.1723L82.4352 80.0121L82.2757 79.7892L82.052 79.9492ZM77.7654 83.0376L77.6047 82.8145L77.6046 82.8145L77.7654 83.0376ZM69.8683 92.2354L69.6087 92.1447L69.6086 92.1449L69.8683 92.2354ZM68.7122 96.6702L68.9801 96.7324V96.7324L68.7122 96.6702ZM68.7113 96.6744L68.4434 96.6122L68.4434 96.6122L68.7113 96.6744ZM65.0216 107.55L64.7976 107.39L64.7976 107.39L65.0216 107.55ZM65.3945 109.714L65.2363 109.939L65.2363 109.939L65.3945 109.714ZM67.5718 109.343L67.7958 109.503L67.7958 109.503L67.5718 109.343ZM71.7555 97.3731L71.4881 97.3087L71.4876 97.3109L71.7555 97.3731ZM71.7558 97.3718L72.0232 97.4362L72.0237 97.434L71.7558 97.3718ZM72.8205 93.252L72.5609 93.1613L72.5608 93.1615L72.8205 93.252ZM79.5995 85.5509L79.4388 85.3278L79.4387 85.3278L79.5995 85.5509ZM84.773 81.8238L84.6124 81.6006L84.6122 81.6007L84.773 81.8238ZM90.3508 73.769L90.6163 73.8408L90.6164 73.8405L90.3508 73.769ZM91.0142 71.3018L90.7488 71.2299L90.7487 71.2304L91.0142 71.3018ZM94.5243 69.2921L94.4532 69.5578L94.4538 69.5579L94.5243 69.2921ZM96.254 70.6181L96.0161 70.7562L96.0162 70.7562L96.254 70.6181ZM96.5429 72.772L96.2775 72.7L96.2774 72.7004L96.5429 72.772ZM92.2478 88.7143L91.9823 88.6427L92.2478 88.7143ZM93.3527 90.6155L93.282 90.8813L93.282 90.8813L93.3527 90.6155ZM95.2656 89.5175L95.0001 89.446L95.0001 89.446L95.2656 89.5175ZM99.56 73.5777L99.2946 73.5057L99.2945 73.5061L99.56 73.5777ZM98.96 69.0666L99.1978 68.9285L99.1978 68.9285L98.96 69.0666ZM95.3325 66.2933L95.2617 66.559L95.262 66.5591L95.3325 66.2933ZM94.3794 66.1201L94.1083 66.074L94.059 66.3642L94.3519 66.3937L94.3794 66.1201ZM97.1946 49.5703L96.9235 49.524L96.9235 49.5242L97.1946 49.5703ZM98.5741 47.395L98.4155 47.1703L98.4155 47.1703L98.5741 47.395ZM101.095 46.8181L101.049 47.0893L101.049 47.0894L101.095 46.8181ZM103.85 50.7706L104.123 50.8017L104.123 50.8016L103.85 50.7706ZM100.637 78.9874L100.91 79.019L100.91 79.0185L100.637 78.9874ZM98.8517 88.3191L98.5863 88.2472L98.5862 88.2476L98.8517 88.3191ZM97.1066 94.8048L97.3721 94.8766L97.3722 94.8763L97.1066 94.8048ZM95.4133 98.1649L95.1978 97.9941L95.1976 97.9943L95.4133 98.1649ZM94.2063 99.6914L94.4218 99.8622L94.422 99.8619L94.2063 99.6914ZM91.9508 104.167L91.6854 104.095L91.6853 104.096L91.9508 104.167ZM90.9069 108.046L90.6413 107.974L90.6413 107.975L90.9069 108.046ZM92.0124 109.947L92.0831 109.681L92.0831 109.681L92.0124 109.947ZM93.9251 108.848L94.1906 108.92L94.1907 108.92L93.9251 108.848ZM94.9684 104.972L94.7029 104.9L94.7028 104.9L94.9684 104.972ZM96.6617 101.611L96.8772 101.782L96.8774 101.782L96.6617 101.611ZM97.8687 100.085L97.6532 99.9142L97.653 99.9144L97.8687 100.085ZM100.124 95.6092L100.39 95.681L100.39 95.6806L100.124 95.6092ZM101.869 89.1239L101.604 89.052L101.604 89.0524L101.869 89.1239ZM103.741 79.3397L104.014 79.3714L104.015 79.3709L103.741 79.3397ZM106.955 51.1196L107.228 51.1508L107.228 51.1507L106.955 51.1196ZM88.9819 53.3321L88.8234 53.1074L88.8234 53.1074L88.9819 53.3321ZM92.7729 53.9548L92.9969 53.7952L92.9966 53.7948L92.7729 53.9548ZM88.2745 57.1377L88.0507 57.2975L88.0509 57.2977L88.2745 57.1377ZM89.2845 58.549L89.0609 58.7091L89.0642 58.7136L89.2845 58.549ZM89.2988 58.5678L89.0805 58.7351L89.0808 58.7355L89.2988 58.5678ZM89.3078 58.5796L89.0899 58.7472L89.09 58.7475L89.3078 58.5796ZM89.3235 58.6L89.5426 58.4338L89.5425 58.4337L89.3235 58.6ZM89.3426 58.6258L89.5662 58.4657L89.5661 58.4655L89.3426 58.6258ZM91.8819 62.175L91.6582 62.335L92.0423 62.8718L92.153 62.2211L91.8819 62.175ZM93.1824 54.5292L93.4535 54.5753L93.4727 54.4626L93.4063 54.3695L93.1824 54.5292ZM79.0968 70.4593L78.8729 70.619L78.8731 70.6193L79.0968 70.4593ZM84.4869 77.9949L84.2632 78.1549L84.4528 78.42L84.6822 78.1885L84.4869 77.9949ZM78.7395 68.8794L78.4685 68.8326L78.4685 68.8328L78.7395 68.8794ZM79.6018 67.5168L79.7598 67.7419L79.7607 67.7413L79.6018 67.5168ZM81.1808 67.1602L81.2264 66.889L81.2263 66.889L81.1808 67.1602ZM82.2344 67.659L82.458 67.499L82.4396 67.4732L82.4157 67.4522L82.2344 67.659ZM86.9231 74.2155L87.1796 74.3146L87.2331 74.1762L87.1468 74.0555L86.9231 74.2155ZM88.0471 70.328L87.8235 70.488L88.1484 70.9422L88.3103 70.4078L88.0471 70.328ZM85.1037 66.2126L85.3274 66.0526L85.3271 66.0522L85.1037 66.2126ZM91.1088 66.7198L91.2312 66.9661L91.3565 66.9038L91.38 66.7659L91.1088 66.7198ZM91.1452 66.5058L91.4163 66.5519L91.4355 66.4389L91.3689 66.3457L91.1452 66.5058ZM86.7693 60.3911L86.993 60.231L86.99 60.2269L86.7693 60.3911ZM83.4405 59.8604L83.2818 59.6358L83.2817 59.6358L83.4405 59.8604ZM82.8737 63.1927L82.6497 63.3523L82.65 63.3527L82.8737 63.1927ZM84.6342 65.6544L84.4105 65.8144L84.4217 65.83L84.435 65.8439L84.6342 65.6544ZM82.5754 28.6219C82.5754 12.6862 69.5308 -0.275 53.4998 -0.275V0.275C69.2303 0.275 82.0254 12.9932 82.0254 28.6219H82.5754ZM53.4998 57.5249C69.5311 57.5249 82.5754 44.5607 82.5754 28.6219H82.0254C82.0254 44.2538 69.2304 56.9749 53.4998 56.9749V57.5249ZM24.4244 28.6219C24.4244 44.5609 37.469 57.5249 53.4998 57.5249V56.9749C37.7696 56.9749 24.9744 44.2541 24.9744 28.6219H24.4244ZM53.4998 -0.275C37.469 -0.275 24.4244 12.6862 24.4244 28.6219H24.9744C24.9744 12.9932 37.7696 0.275 53.4998 0.275V-0.275ZM53.5 53.8701C39.4926 53.8701 28.0988 42.542 28.0988 28.6219H27.5488C27.5488 42.8488 39.192 54.4201 53.5 54.4201V53.8701ZM78.9014 28.6219C78.9012 42.542 67.5077 53.8701 53.5 53.8701V54.4201C67.8083 54.4201 79.4512 42.8488 79.4514 28.622L78.9014 28.6219ZM53.5 3.37981C67.5077 3.37981 78.9014 14.7051 78.9014 28.6219H79.4514C79.4514 14.3981 67.8082 2.82981 53.5 2.82981V3.37981ZM28.0988 28.6219C28.0988 14.7053 39.4923 3.37981 53.5 3.37981V2.82981C39.1918 2.82981 27.5488 14.3983 27.5488 28.6219H28.0988ZM58.9553 22.7598L67.6616 24.2577L67.7548 23.7157L59.0486 22.2178L58.9553 22.7598ZM54.6389 14.8503L58.759 22.6177L59.2449 22.36L55.1248 14.5926L54.6389 14.8503ZM53.5 14.1682C53.9785 14.1682 54.4166 14.4312 54.6389 14.8503L55.1248 14.5926C54.8065 13.9924 54.1806 13.6182 53.5 13.6182V14.1682ZM52.3612 14.8504C52.5834 14.4314 53.0216 14.1682 53.5 14.1682V13.6182C52.8194 13.6182 52.1936 13.9927 51.8753 14.5926L52.3612 14.8504ZM48.241 22.6175L52.3612 14.8503L51.8753 14.5926L47.7552 22.3597L48.241 22.6175ZM39.3385 24.2575L48.0447 22.7596L47.9515 22.2176L39.2452 23.7154L39.3385 24.2575ZM38.3339 25.1224C38.481 24.6721 38.8673 24.3385 39.3385 24.2575L39.2452 23.7154C38.5743 23.8309 38.0219 24.3063 37.8111 24.9516L38.3339 25.1224ZM38.6354 26.4065C38.3026 26.0668 38.1869 25.5726 38.3339 25.1224L37.8111 24.9516C37.6002 25.5974 37.7666 26.3056 38.2425 26.7914L38.6354 26.4065ZM44.7977 32.6982L38.6354 26.4065L38.2425 26.7914L44.4047 33.083L44.7977 32.6982ZM43.6109 41.6157L44.8733 32.9302L44.3291 32.8511L43.0667 41.5366L43.6109 41.6157ZM44.1273 42.8309C43.7411 42.5519 43.5428 42.084 43.6109 41.6157L43.0667 41.5365C42.9688 42.2086 43.2538 42.8784 43.8053 43.2767L44.1273 42.8309ZM45.4535 42.9441C45.025 43.1538 44.5141 43.1101 44.1273 42.8308L43.8054 43.2768C44.3567 43.6748 45.0843 43.7371 45.6953 43.4381L45.4535 42.9441ZM53.3792 39.0692L45.4536 42.944L45.6952 43.4381L53.6208 39.5633L53.3792 39.0692ZM61.5471 42.944L53.6208 39.0692L53.3792 39.5633L61.3056 43.4381L61.5471 42.944ZM62.1157 43.0755C61.9217 43.0755 61.7273 43.0322 61.5472 42.944L61.3055 43.4381C61.5623 43.5638 61.8396 43.6255 62.1157 43.6255V43.0755ZM62.8734 42.8309C62.6492 42.9928 62.3833 43.0755 62.1157 43.0755V43.6255C62.4965 43.6255 62.8755 43.5078 63.1954 43.2767L62.8734 42.8309ZM63.3898 41.6157C63.458 42.084 63.2596 42.5519 62.8734 42.8309L63.1954 43.2767C63.7469 42.8784 64.0319 42.2086 63.934 41.5365L63.3898 41.6157ZM62.1272 32.9302L63.3898 41.6157L63.9341 41.5366L62.6714 32.8511L62.1272 32.9302ZM68.3651 26.4065L62.2028 32.6982L62.5958 33.083L68.758 26.7914L68.3651 26.4065ZM68.6665 25.1223C68.8134 25.5727 68.6978 26.0669 68.3651 26.4065L68.758 26.7914C69.234 26.3056 69.4 25.5973 69.1894 24.9517L68.6665 25.1223ZM67.6616 24.2577C68.1329 24.3388 68.5193 24.6722 68.6666 25.1225L69.1893 24.9515C68.9782 24.3062 68.4256 23.8311 67.7548 23.7157L67.6616 24.2577ZM59.4269 31.0808C59.0289 31.4874 58.8428 32.055 58.9249 32.6176L59.4691 32.5382C59.4119 32.1463 59.5414 31.7501 59.8199 31.4656L59.4269 31.0808ZM64.0593 26.3511L59.427 31.0808L59.8199 31.4657L64.4522 26.7359L64.0593 26.3511ZM57.6655 25.6888L64.2091 26.8145L64.3024 26.2725L57.7587 25.1468L57.6655 25.6888ZM56.3539 24.741C56.62 25.2423 57.1046 25.5924 57.6655 25.6888L57.7587 25.1468C57.3649 25.0791 57.0257 24.8335 56.8397 24.4831L56.3539 24.741ZM53.2571 18.9032L56.3538 24.7409L56.8397 24.4832L53.743 18.6455L53.2571 18.9032ZM50.6464 24.7409L53.743 18.9032L53.2571 18.6455L50.1606 24.4832L50.6464 24.7409ZM49.3349 25.6888C49.8956 25.5921 50.3802 25.2424 50.6464 24.741L50.1606 24.4831C49.9747 24.8334 49.6354 25.0789 49.2415 25.1468L49.3349 25.6888ZM42.7912 26.8145L49.3348 25.6888L49.2415 25.1468L42.6979 26.2725L42.7912 26.8145ZM47.5733 31.0806L42.941 26.3511L42.5481 26.7359L47.1804 31.4654L47.5733 31.0806ZM48.0754 32.6174C48.1575 32.055 47.9711 31.4871 47.5734 31.0807L47.1803 31.4653C47.4587 31.7499 47.5883 32.1464 47.5312 32.538L48.0754 32.6174ZM47.1268 39.1447L48.0754 32.6173L47.5311 32.5382L46.5825 39.0656L47.1268 39.1447ZM52.6897 35.9462L46.7338 38.8581L46.9754 39.3522L52.9313 36.4403L52.6897 35.9462ZM53.5 35.7588C53.2228 35.7588 52.9452 35.821 52.6895 35.9463L52.9314 36.4402C53.1104 36.3526 53.3051 36.3088 53.5 36.3088V35.7588ZM54.3102 35.9461C54.0547 35.8214 53.7775 35.7588 53.5 35.7588V36.3088C53.6948 36.3088 53.8893 36.3527 54.0689 36.4404L54.3102 35.9461ZM60.2666 38.8581L54.3104 35.9462L54.0688 36.4403L60.0251 39.3522L60.2666 38.8581ZM58.9249 32.6175L59.8737 39.1447L60.418 39.0656L59.4691 32.5384L58.9249 32.6175ZM36.8711 92.325C37.2469 93.4034 37.603 94.9364 38.0206 96.7376L38.5564 96.6134C38.1417 94.8244 37.7783 93.2571 37.3905 92.144L36.8711 92.325ZM29.0734 83.2607C30.0074 83.9339 31.5989 85.166 33.1381 86.7518C34.6803 88.3405 36.1525 90.2664 36.8712 92.3251L37.3904 92.1439C36.6338 89.9762 35.0993 87.9825 33.5328 86.3687C31.9634 84.7519 30.3442 83.4987 29.395 82.8145L29.0734 83.2607ZM24.787 80.1725L29.0734 83.2607L29.3949 82.8145L25.1085 79.7263L24.787 80.1725ZM30.2285 72.0946L24.7241 79.7894L25.1715 80.1094L30.6758 72.4146L30.2285 72.0946ZM31.0687 68.4014C31.2941 69.7083 30.9956 71.0189 30.2283 72.0949L30.6761 72.4142C31.5289 71.2184 31.861 69.759 31.6107 68.3079L31.0687 68.4014ZM29.0535 65.2133C30.1269 65.9665 30.8441 67.0991 31.0687 68.4014L31.6107 68.308C31.3613 66.8621 30.5632 65.6008 29.3694 64.7631L29.0535 65.2133ZM27.1289 64.3915C27.8025 64.5218 28.4586 64.792 29.0525 65.2126L29.3704 64.7638C28.7105 64.2964 27.9812 63.9962 27.2334 63.8515L27.1289 64.3915ZM25.2121 57.5553C27.306 59.0364 27.9775 61.7718 26.9321 64.0049L27.4302 64.2381C28.5869 61.7674 27.844 58.7433 25.5297 57.1063L25.2121 57.5553ZM22.3569 56.5948C23.3507 56.629 24.344 56.9413 25.2121 57.5553L25.5297 57.1063C24.5706 56.4279 23.4725 56.0828 22.3758 56.0452L22.3569 56.5948ZM19.6688 51.0256C21.328 52.1972 22.4042 54.1759 22.0942 56.2799L22.6384 56.3601C22.9841 54.0131 21.7809 51.8437 19.9861 50.5763L19.6688 51.0256ZM13.3196 50.8862C15.3292 49.4567 17.8521 49.7431 19.6689 51.0256L19.9861 50.5763C18.0167 49.186 15.2361 48.8479 13.0008 50.438L13.3196 50.8862ZM12.6148 49.0969L12.8891 50.7083L13.4313 50.616L13.157 49.0046L12.6148 49.0969ZM5.43277 44.0275C8.81663 43.4562 12.0399 45.7318 12.6149 49.097L13.157 49.0044C12.5305 45.3377 9.02159 42.8638 5.3412 43.4852L5.43277 44.0275ZM0.318524 51.0886C-0.0703932 47.6638 2.18589 44.5704 5.43233 44.0276L5.34164 43.4851C1.78849 44.0792 -0.647766 47.4539 -0.227963 51.1507L0.318524 51.0886ZM3.53242 79.3111L0.318515 51.0885L-0.227953 51.1508L2.98595 79.3733L3.53242 79.3111ZM5.39557 89.0491C4.49477 85.7225 3.93741 82.8106 3.53236 79.3106L2.98601 79.3738C3.39414 82.9004 3.95658 85.8393 4.86469 89.1929L5.39557 89.0491ZM7.14211 95.5393L5.39568 89.0496L4.86458 89.1925L6.611 95.6822L7.14211 95.5393ZM9.34596 99.9124C8.27355 98.5593 7.59512 97.2133 7.14201 95.5389L6.6111 95.6826C7.08364 97.4288 7.79593 98.8421 8.91492 100.254L9.34596 99.9124ZM10.5554 101.442L9.34613 99.9126L8.91475 100.254L10.124 101.783L10.5554 101.442ZM12.2969 104.897C11.9353 103.561 11.4122 102.523 10.5552 101.441L10.1242 101.783C10.9346 102.805 11.4238 103.776 11.766 105.041L12.2969 104.897ZM13.3407 108.776L12.297 104.897L11.7659 105.04L12.8096 108.919L13.3407 108.776ZM14.5833 109.724C14.0134 109.724 13.4941 109.346 13.3407 108.776L12.8096 108.919C13.0298 109.737 13.7731 110.274 14.5833 110.274V109.724ZM14.9172 109.681C14.8054 109.71 14.6934 109.724 14.5833 109.724V110.274C14.7405 110.274 14.8999 110.254 15.0585 110.212L14.9172 109.681ZM15.8278 108.117C16.0106 108.797 15.6047 109.498 14.9172 109.681L15.0585 110.212C16.0375 109.952 16.6215 108.951 16.3589 107.974L15.8278 108.117ZM14.7834 104.236L15.8278 108.117L16.3589 107.974L15.3146 104.093L14.7834 104.236ZM12.5794 99.8628C13.6518 101.216 14.3304 102.562 14.7835 104.236L15.3145 104.093C14.8419 102.346 14.1294 100.933 13.0104 99.5212L12.5794 99.8628ZM11.3699 98.3337L12.5792 99.8626L13.0106 99.5214L11.8013 97.9925L11.3699 98.3337ZM9.62863 94.878C9.99025 96.2143 10.5133 97.2527 11.3701 98.3339L11.8011 97.9923C10.9909 96.9698 10.5017 95.9989 10.1595 94.7343L9.62863 94.878ZM7.8821 88.3877L9.62853 94.8776L10.1596 94.7347L8.41321 88.2447L7.8821 88.3877ZM6.09012 79.0214C6.47928 82.3846 7.01561 85.1882 7.88222 88.3881L8.41309 88.2443C7.5538 85.0714 7.02256 82.2947 6.63647 78.9582L6.09012 79.0214ZM2.8766 50.8015L6.09006 79.0209L6.63653 78.9587L3.42307 50.7392L2.8766 50.8015ZM5.86204 46.546C3.93408 46.8683 2.64376 48.7533 2.8766 50.8014L3.42308 50.7393C3.21898 48.944 4.34946 47.3565 5.95273 47.0885L5.86204 46.546ZM10.0763 49.5225C9.73861 47.5452 7.84897 46.2115 5.86173 46.5461L5.95304 47.0884C7.64387 46.8038 9.24797 47.9393 9.53419 49.6151L10.0763 49.5225ZM12.8915 66.0731L10.0764 49.5227L9.53416 49.6149L12.3493 66.1653L12.8915 66.0731ZM11.7486 66.5576C12.0479 66.4773 12.3485 66.4235 12.6484 66.3928L12.5923 65.8457C12.2647 65.8792 11.9352 65.9381 11.6061 66.0264L11.7486 66.5576ZM8.27785 69.205C9.04415 67.8866 10.2756 66.9472 11.7476 66.5578L11.607 66.0261C9.99369 66.4529 8.64187 67.4842 7.80234 68.9286L8.27785 69.205ZM7.70454 73.5032C7.30979 72.0481 7.51264 70.5219 8.27787 69.205L7.80232 68.9286C6.96394 70.3715 6.74012 72.0489 7.17373 73.6472L7.70454 73.5032ZM12.0062 89.4459L7.70464 73.5036L7.17363 73.6469L11.4752 89.5892L12.0062 89.4459ZM13.5833 90.3491C12.8944 90.5325 12.1898 90.1262 12.0062 89.4459L11.4752 89.5892C11.7384 90.5647 12.7458 91.1412 13.7248 90.8806L13.5833 90.3491ZM14.4925 88.7851C14.6761 89.4648 14.2706 90.166 13.5832 90.3491L13.7249 90.8806C14.7036 90.6198 15.2872 89.6182 15.0235 88.6417L14.4925 88.7851ZM10.1905 72.8407L14.4925 88.785L15.0235 88.6418L10.7215 72.6974L10.1905 72.8407ZM10.5079 70.4812C10.0877 71.2037 9.97422 72.0429 10.1906 72.841L10.7214 72.6971C10.5441 72.0431 10.6359 71.3551 10.9834 70.7577L10.5079 70.4812ZM12.4153 69.0249C11.6051 69.2393 10.9289 69.7569 10.5079 70.4812L10.9834 70.7576C11.3314 70.1588 11.8875 69.7335 12.5559 69.5566L12.4153 69.0249ZM16.2501 71.2263C15.7999 69.5673 14.0794 68.5794 12.4145 69.0251L12.5567 69.5564C13.9299 69.1888 15.3487 70.0048 15.7193 71.3703L16.2501 71.2263ZM16.9151 73.6996L16.2503 71.2269L15.7191 71.3697L16.3839 73.8424L16.9151 73.6996ZM22.3863 81.5997C19.5984 79.5941 17.8111 77.0136 16.9149 73.6992L16.384 73.8428C17.3132 77.2793 19.1746 79.9667 22.0651 82.0462L22.3863 81.5997ZM27.5606 85.3273L22.3865 81.5998L22.065 82.0461L27.2391 85.7736L27.5606 85.3273ZM34.4381 93.16C33.5889 90.7276 31.0008 87.8076 27.5607 85.3274L27.239 85.7735C30.6445 88.2287 33.1246 91.0664 33.9188 93.3413L34.4381 93.16ZM35.5109 97.3077C35.1167 95.6078 34.771 94.1153 34.4381 93.1601L33.9188 93.3411C34.2394 94.2613 34.5776 95.7178 34.9751 97.432L35.5109 97.3077ZM35.5114 97.3098L35.5108 97.3074L34.9752 97.4324L34.9758 97.4348L35.5114 97.3098ZM35.5121 97.3128L35.5113 97.3096L34.9758 97.4349L34.9766 97.4382L35.5121 97.3128ZM39.6515 109.183C38.6334 107.754 37.8315 105.801 37.1661 103.688C36.5016 101.577 35.9797 99.3285 35.5122 97.3134L34.9764 97.4377C35.4431 99.4493 35.9696 101.719 36.6415 103.853C37.3124 105.984 38.135 108.002 39.2035 109.502L39.6515 109.183ZM40.704 109.724C40.2988 109.724 39.9019 109.535 39.6516 109.183L39.2035 109.502C39.5619 110.006 40.1295 110.274 40.704 110.274V109.724ZM41.4466 109.489C41.2208 109.647 40.9612 109.724 40.704 109.724V110.274C41.0703 110.274 41.4413 110.165 41.7632 109.938L41.4466 109.489ZM41.7537 107.709C42.1633 108.284 42.0267 109.081 41.4467 109.489L41.7631 109.938C42.5917 109.356 42.7889 108.214 42.2018 107.39L41.7537 107.709ZM38.0217 96.7419C38.4347 98.5218 38.9263 100.641 39.532 102.62C40.1359 104.593 40.8616 106.456 41.7537 107.709L42.2018 107.39C41.3641 106.213 40.659 104.423 40.0579 102.459C39.4587 100.501 38.9711 98.4006 38.5574 96.6176L38.0217 96.7419ZM38.0286 96.7666L38.0287 96.7667L38.5504 96.5928L38.5504 96.5927L38.0286 96.7666ZM38.0206 96.7374L38.0216 96.7416L38.5575 96.6178L38.5565 96.6136L38.0206 96.7374ZM14.449 54.1168C14.9845 53.3684 15.6036 53.0786 16.1895 53.0401C16.7872 53.0008 17.3845 53.2214 17.8593 53.5565L18.1765 53.1072C17.6256 52.7184 16.906 52.4419 16.1535 52.4913C15.3892 52.5414 14.6247 52.926 14.0017 53.7968L14.449 54.1168ZM14.0418 54.6881L14.4493 54.1164L14.0014 53.7972L13.5939 54.3689L14.0418 54.6881ZM15.3895 62.1284L14.089 54.4824L13.5467 54.5746L14.8473 62.2207L15.3895 62.1284ZM17.4334 58.4662L14.8947 62.0145L15.3421 62.3346L17.8807 58.7862L17.4334 58.4662ZM17.4953 58.384C17.4847 58.3982 17.4532 58.4386 17.4337 58.4657L17.8803 58.7867C17.8988 58.761 17.9075 58.7513 17.9357 58.7136L17.4953 58.384ZM18.5028 56.9761L17.4919 58.3888L17.9391 58.7088L18.95 57.2961L18.5028 56.9761ZM17.8593 53.5565C18.2482 53.8312 18.6907 54.3057 18.8934 54.897C19.0906 55.4722 19.0704 56.1813 18.5026 56.9763L18.9502 57.2959C19.6205 56.3574 19.6689 55.4629 19.4137 54.7187C19.1641 53.9906 18.6333 53.4297 18.1765 53.1072L17.8593 53.5565ZM15.5839 66.5519L15.6199 66.763L16.1621 66.6708L16.1261 66.4596L15.5839 66.5519ZM20.0068 60.2315L15.6314 66.3457L16.0787 66.6658L20.4541 60.5515L20.0068 60.2315ZM23.7182 59.6359C22.528 58.7935 20.8767 59.063 20.0099 60.2273L20.4511 60.5557C21.1406 59.6296 22.4555 59.416 23.4004 60.0848L23.7182 59.6359ZM24.3517 63.3508C25.2089 62.1538 24.9228 60.4879 23.7181 59.6358L23.4005 60.0849C24.3582 60.7622 24.5827 62.0835 23.9045 63.0306L24.3517 63.3508ZM22.6103 65.7858L24.3518 63.3507L23.9045 63.0308L22.1629 65.4658L22.6103 65.7858ZM22.1188 66.3746C22.2619 66.1748 22.4179 65.9893 22.5844 65.8168L22.1888 65.4348C22.0045 65.6256 21.8312 65.8317 21.6717 66.0542L22.1188 66.3746ZM19.1766 70.4882L22.1189 66.3744L21.6715 66.0544L18.7292 70.1683L19.1766 70.4882ZM15.7686 66.9632C17.1332 67.6411 18.2199 68.8549 18.6897 70.4079L19.2161 70.2486C18.7004 68.5438 17.5074 67.2129 16.0133 66.4706L15.7686 66.9632ZM20.3006 74.3752L24.9903 67.8174L24.5429 67.4975L19.8533 74.0553L20.3006 74.3752ZM22.7085 77.8015C21.6627 76.7465 20.8776 75.5259 20.3335 74.1162L19.8204 74.3143C20.3912 75.793 21.2173 77.0784 22.3178 78.1887L22.7085 77.8015ZM27.6812 70.2975L22.2895 77.8352L22.7368 78.1551L28.1285 70.6175L27.6812 70.2975ZM27.9896 68.926C28.0741 69.4152 27.9634 69.9018 27.6809 70.2979L28.1287 70.6172C28.4975 70.1 28.6407 69.4645 28.5315 68.8324L27.9896 68.926ZM27.2459 67.7457C27.6421 68.0236 27.9061 68.4414 27.9895 68.9259L28.5316 68.8325C28.4235 68.2054 28.0792 67.6585 27.5618 67.2955L27.2459 67.7457ZM24.9479 67.8642C25.5783 67.3113 26.5303 67.2388 27.2449 67.745L27.5628 67.2962C26.635 66.639 25.4018 66.7346 24.5853 67.4507L24.9479 67.8642ZM96.9229 45.0885C98.2833 44.1279 99.9324 43.7514 101.569 44.0277L101.661 43.4854C99.8803 43.1848 98.0843 43.5951 96.6057 44.6393L96.9229 45.0885ZM94.3852 49.0979C94.6631 47.4714 95.5635 46.0485 96.9229 45.0885L96.6057 44.6393C95.1279 45.6828 94.1458 47.2334 93.843 49.0053L94.3852 49.0979ZM94.1114 50.7076L94.3852 49.0977L93.843 49.0055L93.5692 50.6154L94.1114 50.7076ZM87.3312 51.0256C89.1482 49.7426 91.672 49.4562 93.6809 50.8855L93.9997 50.4374C91.7651 48.8475 88.9835 49.1856 87.014 50.5763L87.3312 51.0256ZM84.906 56.2797C84.5959 54.1757 85.672 52.1973 87.3312 51.0256L87.014 50.5763C85.2192 51.8437 84.0159 54.0128 84.3619 56.3599L84.906 56.2797ZM81.7877 57.5551C82.656 56.9411 83.6496 56.6288 84.6434 56.5946L84.6245 56.0449C83.5278 56.0826 82.4295 56.4276 81.4701 57.1061L81.7877 57.5551ZM80.0695 64.0031C79.0274 61.7665 79.6992 59.0325 81.7877 57.5551L81.4701 57.1061C79.1607 58.7397 78.4186 61.7621 79.571 64.2354L80.0695 64.0031ZM77.9532 65.2084C78.5348 64.7964 79.1876 64.5212 79.8723 64.3893L79.7682 63.8492C79.0073 63.9959 78.2815 64.3018 77.6352 64.7596L77.9532 65.2084ZM75.9314 68.4014C76.1557 67.0993 76.8732 65.9664 77.9522 65.2091L77.6362 64.7589C76.4372 65.6005 75.6385 66.8619 75.3894 68.308L75.9314 68.4014ZM76.7731 72.0964C76.0046 71.0189 75.7062 69.7082 75.9314 68.4014L75.3894 68.308C75.1393 69.7591 75.4714 71.2184 76.3253 72.4158L76.7731 72.0964ZM82.2757 79.7892L76.7729 72.0961L76.3255 72.4161L81.8284 80.1092L82.2757 79.7892ZM77.9262 83.2607L82.2128 80.1723L81.8913 79.7261L77.6047 82.8145L77.9262 83.2607ZM70.128 92.326C70.8471 90.2667 72.3195 88.3405 73.8617 86.7517C75.401 85.1659 76.9925 83.9338 77.9262 83.2607L77.6046 82.8145C76.6556 83.4986 75.0366 84.7517 73.4671 86.3686C71.9005 87.9825 70.3658 89.9766 69.6087 92.1447L70.128 92.326ZM68.9801 96.7324C69.3976 94.9334 69.7532 93.4024 70.1281 92.3258L69.6086 92.1449C69.2218 93.256 68.8589 94.8214 68.4444 96.6081L68.9801 96.7324ZM68.9792 96.7365L68.9801 96.7324L68.4444 96.6081L68.4434 96.6122L68.9792 96.7365ZM65.2456 107.709C66.1386 106.455 66.8648 104.591 67.4688 102.617C68.0748 100.637 68.5664 98.5167 68.9792 96.7365L68.4434 96.6122C68.0299 98.3955 67.5424 100.497 66.9429 102.456C66.3416 104.421 65.6361 106.213 64.7976 107.39L65.2456 107.709ZM65.5527 109.489C64.9727 109.081 64.8361 108.285 65.2456 107.709L64.7976 107.39C64.2105 108.215 64.4077 109.356 65.2363 109.939L65.5527 109.489ZM66.2954 109.724C66.038 109.724 65.7788 109.648 65.5527 109.489L65.2363 109.939C65.5583 110.165 65.9288 110.274 66.2954 110.274V109.724ZM67.3479 109.184C67.0973 109.536 66.7003 109.724 66.2954 109.724V110.274C66.8697 110.274 67.4372 110.006 67.7958 109.503L67.3479 109.184ZM71.4876 97.3109C71.0202 99.3264 70.4983 101.576 69.8338 103.687C69.1683 105.801 68.3662 107.754 67.3478 109.184L67.7958 109.503C68.8647 108.002 69.6874 105.983 70.3584 103.852C71.0304 101.717 71.5568 99.4472 72.0234 97.4352L71.4876 97.3109ZM71.4884 97.3075L71.4881 97.3087L72.0229 97.4374L72.0232 97.4362L71.4884 97.3075ZM72.5608 93.1615C72.2284 94.116 71.8824 95.6089 71.4879 97.3097L72.0237 97.434C72.4214 95.719 72.76 94.2619 73.0802 93.3424L72.5608 93.1615ZM79.4387 85.3278C75.9988 87.8078 73.4105 90.728 72.5609 93.1613L73.0801 93.3426C73.8747 91.0668 76.3551 88.2289 79.7604 85.774L79.4387 85.3278ZM84.6122 81.6007L79.4388 85.3278L79.7603 85.774L84.9337 82.0469L84.6122 81.6007ZM90.0853 73.6973C89.1885 77.0138 87.4014 79.5943 84.6124 81.6006L84.9336 82.0471C87.8252 79.9669 89.6864 77.2795 90.6163 73.8408L90.0853 73.6973ZM90.7487 71.2304L90.0852 73.6976L90.6164 73.8405L91.2798 71.3732L90.7487 71.2304ZM94.5953 69.0265C92.9253 68.58 91.1996 69.5671 90.7488 71.2299L91.2797 71.3738C91.6505 70.0058 93.0736 69.189 94.4532 69.5578L94.5953 69.0265ZM96.4918 70.48C96.0717 69.7565 95.3975 69.2393 94.5948 69.0263L94.4538 69.5579C95.114 69.7331 95.6685 70.1575 96.0161 70.7562L96.4918 70.48ZM96.8084 72.8439C97.0256 72.043 96.9119 71.2034 96.4918 70.48L96.0162 70.7562C96.3637 71.3545 96.4557 72.043 96.2775 72.7L96.8084 72.8439ZM92.5134 88.7858L96.8085 72.8435L96.2774 72.7004L91.9823 88.6427L92.5134 88.7858ZM93.4234 90.3498C92.7359 90.1668 92.3302 89.4658 92.5134 88.7858L91.9823 88.6427C91.7192 89.6194 92.303 90.6207 93.282 90.8813L93.4234 90.3498ZM95.0001 89.446C94.8169 90.1263 94.1126 90.5331 93.4234 90.3498L93.282 90.8813C94.2616 91.1419 95.2685 90.5645 95.5311 89.5891L95.0001 89.446ZM99.2945 73.5061L95.0001 89.446L95.5311 89.5891L99.8256 73.6492L99.2945 73.5061ZM98.7221 69.2047C99.4869 70.522 99.6896 72.0485 99.2946 73.5057L99.8254 73.6496C100.259 72.0494 100.036 70.3718 99.1978 68.9285L98.7221 69.2047ZM95.262 66.5591C96.7277 66.948 97.9568 67.887 98.7222 69.2047L99.1978 68.9285C98.3595 67.4851 97.0102 66.4539 95.4031 66.0275L95.262 66.5591ZM94.3519 66.3937C94.655 66.4243 94.9589 66.4783 95.2617 66.559L95.4034 66.0276C95.071 65.9389 94.7381 65.8798 94.407 65.8465L94.3519 66.3937ZM96.9235 49.5242L94.1083 66.074L94.6505 66.1662L97.4657 49.6165L96.9235 49.5242ZM98.4155 47.1703C97.6175 47.7337 97.0866 48.5702 96.9235 49.524L97.4656 49.6167C97.6038 48.8088 98.0525 48.0999 98.7327 47.6196L98.4155 47.1703ZM101.14 46.547C100.18 46.3849 99.2132 46.6072 98.4155 47.1703L98.7327 47.6196C99.4127 47.1396 100.233 46.9516 101.049 47.0893L101.14 46.547ZM104.123 50.8016C104.356 48.7539 103.066 46.8688 101.14 46.5469L101.049 47.0894C102.65 47.357 103.781 48.9444 103.577 50.7395L104.123 50.8016ZM100.91 79.0185L104.123 50.8017L103.577 50.7395L100.364 78.9562L100.91 79.0185ZM99.1172 88.391C99.9844 85.1886 100.521 82.385 100.91 79.019L100.364 78.9557C99.9775 82.2952 99.4462 85.0718 98.5863 88.2472L99.1172 88.391ZM97.3722 94.8763L99.1173 88.3905L98.5862 88.2476L96.8411 94.7334L97.3722 94.8763ZM95.6288 98.3357C96.487 97.2529 97.0102 96.2146 97.3721 94.8766L96.8412 94.733C96.4987 95.9991 96.0094 96.97 95.1978 97.9941L95.6288 98.3357ZM94.422 99.8619L95.629 98.3355L95.1976 97.9943L93.9906 99.5208L94.422 99.8619ZM92.2163 104.239C92.6696 102.563 93.348 101.217 94.4218 99.8622L93.9907 99.5206C92.8704 100.934 92.1581 102.348 91.6854 104.095L92.2163 104.239ZM91.1724 108.117L92.2164 104.239L91.6853 104.096L90.6413 107.974L91.1724 108.117ZM92.0831 109.681C91.3955 109.498 90.9896 108.797 91.1725 108.117L90.6413 107.975C90.3787 108.951 90.9628 109.952 91.9417 110.213L92.0831 109.681ZM92.417 109.725C92.3071 109.725 92.195 109.711 92.0831 109.681L91.9417 110.213C92.0999 110.255 92.2596 110.275 92.417 110.275V109.725ZM93.6595 108.777C93.5062 109.347 92.9868 109.725 92.417 109.725V110.275C93.2272 110.275 93.9705 109.738 94.1906 108.92L93.6595 108.777ZM94.7028 104.9L93.6595 108.777L94.1907 108.92L95.2339 105.043L94.7028 104.9ZM96.4461 101.441C95.588 102.523 95.0647 103.562 94.7029 104.9L95.2338 105.043C95.5762 103.777 96.0656 102.806 96.8772 101.782L96.4461 101.441ZM97.653 99.9144L96.446 101.441L96.8774 101.782L98.0844 100.256L97.653 99.9144ZM99.8587 95.5374C99.4054 97.2133 98.727 98.5595 97.6532 99.9142L98.0842 100.256C99.2046 98.8423 99.9169 97.4288 100.39 95.681L99.8587 95.5374ZM101.604 89.0524L99.8586 95.5377L100.39 95.6806L102.135 89.1954L101.604 89.0524ZM103.468 79.3081C103.062 82.811 102.505 85.7227 101.604 89.052L102.135 89.1958C103.043 85.8395 103.606 82.9009 104.014 79.3714L103.468 79.3081ZM106.682 51.0885L103.468 79.3086L104.015 79.3709L107.228 51.1508L106.682 51.0885ZM101.57 44.0278C104.814 44.5703 107.07 47.6638 106.682 51.0886L107.228 51.1507C107.648 47.454 105.211 44.0792 101.66 43.4854L101.57 44.0278ZM89.1405 53.5567C89.6154 53.2216 90.2129 53.001 90.8104 53.04C91.3962 53.0783 92.0147 53.3676 92.5493 54.1148L92.9966 53.7948C92.3743 52.9251 91.6103 52.5411 90.8462 52.4912C90.0939 52.4421 89.3743 52.7186 88.8234 53.1074L89.1405 53.5567ZM88.4983 56.9779C87.9301 56.182 87.9096 55.4724 88.1066 54.8972C88.3092 54.3057 88.7516 53.8313 89.1405 53.5567L88.8234 53.1074C88.3665 53.4298 87.8357 53.9907 87.5863 54.719C87.3313 55.4634 87.3801 56.3582 88.0507 57.2975L88.4983 56.9779ZM89.5082 58.389L88.4982 56.9776L88.0509 57.2977L89.0609 58.7091L89.5082 58.389ZM89.517 58.4005C89.5127 58.3948 89.5087 58.3895 89.5049 58.3844L89.0642 58.7136C89.0698 58.7211 89.0753 58.7283 89.0805 58.7351L89.517 58.4005ZM89.5258 58.4119L89.5168 58.4001L89.0808 58.7355L89.0899 58.7472L89.5258 58.4119ZM89.5425 58.4337C89.5366 58.4259 89.5308 58.4183 89.5256 58.4117L89.09 58.7475C89.0954 58.7544 89.1 58.7604 89.1045 58.7664L89.5425 58.4337ZM89.5661 58.4655C89.5579 58.4541 89.5499 58.4435 89.5426 58.4338L89.1045 58.7663C89.11 58.7735 89.1148 58.78 89.1191 58.786L89.5661 58.4655ZM92.1055 62.015L89.5662 58.4657L89.1189 58.7858L91.6582 62.335L92.1055 62.015ZM92.9113 54.4831L91.6108 62.1289L92.153 62.2211L93.4535 54.5753L92.9113 54.4831ZM92.549 54.1144L92.9585 54.6888L93.4063 54.3695L92.9969 53.7952L92.549 54.1144ZM78.8731 70.6193L84.2632 78.1549L84.7106 77.8349L79.3204 70.2993L78.8731 70.6193ZM78.4685 68.8328C78.3598 69.4646 78.5028 70.1001 78.8729 70.619L79.3207 70.2996C79.0369 69.9017 78.9264 69.415 79.0105 68.926L78.4685 68.8328ZM79.4438 67.2918C78.9214 67.6585 78.5768 68.2052 78.4685 68.8326L79.0105 68.9262C79.0941 68.4421 79.3578 68.0241 79.7598 67.7419L79.4438 67.2918ZM81.2263 66.889C80.5953 66.7832 79.961 66.9255 79.4429 67.2924L79.7607 67.7413C80.1584 67.4597 80.6453 67.3492 81.1353 67.4314L81.2263 66.889ZM82.4157 67.4522C82.0839 67.1613 81.6759 66.9645 81.2264 66.889L81.1353 67.4314C81.4833 67.4899 81.7975 67.6417 82.0531 67.8658L82.4157 67.4522ZM87.1468 74.0555L82.458 67.499L82.0107 67.819L86.6994 74.3754L87.1468 74.0555ZM84.6822 78.1885C85.7825 77.0784 86.6084 75.7932 87.1796 74.3146L86.6666 74.1164C86.122 75.5261 85.3372 76.7465 84.2916 77.8013L84.6822 78.1885ZM88.2708 70.168L85.3274 66.0526L84.88 66.3726L87.8235 70.488L88.2708 70.168ZM90.9865 66.4735C89.4925 67.2158 88.3001 68.545 87.784 70.2483L88.3103 70.4078C88.7805 68.8563 89.8666 67.6441 91.2312 66.9661L90.9865 66.4735ZM90.8741 66.4597L90.8377 66.6737L91.38 66.7659L91.4163 66.5519L90.8741 66.4597ZM86.5457 60.5511L90.9216 66.6658L91.3689 66.3457L86.993 60.231L86.5457 60.5511ZM83.5993 60.0849C84.5458 59.4159 85.86 59.6295 86.5487 60.5552L86.99 60.2269C86.1238 59.0626 84.4731 58.7937 83.2818 59.6358L83.5993 60.0849ZM83.0976 63.0331C82.4203 62.0826 82.6451 60.7598 83.5993 60.0849L83.2817 59.6358C82.0793 60.4863 81.7954 62.1534 82.6497 63.3523L83.0976 63.0331ZM84.8579 65.4944L83.0974 63.0327L82.65 63.3527L84.4105 65.8144L84.8579 65.4944ZM85.3271 66.0522C85.1741 65.8391 85.0055 65.6457 84.8334 65.4648L84.435 65.8439C84.5962 66.0134 84.7467 66.1869 84.8803 66.3729L85.3271 66.0522Z" fill="white"/>
<path d="M79.1764 28.6219L79.4514 28.622V28.6219H79.1764ZM59.002 22.4888L58.759 22.6177L58.8223 22.737L58.9553 22.7598L59.002 22.4888ZM67.7082 23.9867L67.6616 24.2577L67.7082 23.9867ZM54.8818 14.7215L54.6389 14.8503L54.6389 14.8503L54.8818 14.7215ZM52.1182 14.7215L51.8753 14.5926L51.8753 14.5926L52.1182 14.7215ZM47.9981 22.4886L48.0447 22.7596L48.1778 22.7367L48.241 22.6175L47.9981 22.4886ZM39.2919 23.9865L39.3385 24.2575L39.2919 23.9865ZM38.0725 25.037L37.8111 24.9516L37.8111 24.9516L38.0725 25.037ZM38.439 26.5989L38.6354 26.4065L38.6354 26.4065L38.439 26.5989ZM44.6012 32.8906L44.8733 32.9302L44.8929 32.7955L44.7977 32.6982L44.6012 32.8906ZM43.3388 41.5761L43.6109 41.6157L43.6109 41.6157L43.3388 41.5761ZM43.9663 43.0538L43.8053 43.2767L43.8054 43.2768L43.9663 43.0538ZM45.5744 43.1911L45.4536 42.944L45.4535 42.9441L45.5744 43.1911ZM53.5 39.3163L53.6208 39.0692L53.5 39.0102L53.3792 39.0692L53.5 39.3163ZM61.4263 43.1911L61.5472 42.944L61.5471 42.944L61.4263 43.1911ZM63.0344 43.0538L62.8734 42.8309V42.8309L63.0344 43.0538ZM63.6619 41.5761L63.3898 41.6157L63.3898 41.6157L63.6619 41.5761ZM62.3993 32.8906L62.2028 32.6982L62.1076 32.7955L62.1272 32.9302L62.3993 32.8906ZM68.5615 26.5989L68.3651 26.4065L68.3651 26.4065L68.5615 26.5989ZM68.928 25.037L69.1894 24.9517L69.1893 24.9515L68.928 25.037ZM59.6234 31.2732L59.427 31.0808L59.4269 31.0808L59.6234 31.2732ZM59.197 32.5779L59.4691 32.5384L59.4691 32.5382L59.197 32.5779ZM64.2557 26.5435L64.4522 26.7359L64.819 26.3614L64.3024 26.2725L64.2557 26.5435ZM57.7121 25.4178L57.7587 25.1468L57.7587 25.1468L57.7121 25.4178ZM56.5968 24.6121L56.3538 24.7409L56.3539 24.741L56.5968 24.6121ZM53.5 18.7744L53.743 18.6455L53.5 18.1875L53.2571 18.6455L53.5 18.7744ZM50.4035 24.6121L50.6464 24.741L50.6464 24.7409L50.4035 24.6121ZM49.2882 25.4178L49.3348 25.6888L49.3349 25.6888L49.2882 25.4178ZM42.7445 26.5435L42.6979 26.2725L42.1812 26.3614L42.5481 26.7359L42.7445 26.5435ZM47.3768 31.273L47.5734 31.0807L47.5733 31.0806L47.3768 31.273ZM47.8033 32.5777L47.5312 32.538L47.5311 32.5382L47.8033 32.5777ZM46.8546 39.1051L46.5825 39.0656L46.5076 39.5809L46.9754 39.3522L46.8546 39.1051ZM52.8105 36.1933L52.9313 36.4403L52.9314 36.4402L52.8105 36.1933ZM54.1896 36.1933L54.3104 35.9462L54.3102 35.9461L54.1896 36.1933ZM60.1459 39.1051L60.0251 39.3522L60.4929 39.5809L60.418 39.0656L60.1459 39.1051ZM37.1308 92.2345L37.3905 92.144L37.3904 92.1439L37.1308 92.2345ZM38.2885 96.6755L38.5565 96.6136L38.5564 96.6134L38.2885 96.6755ZM29.2342 83.0376L29.395 82.8145L29.3949 82.8145L29.2342 83.0376ZM24.9478 79.9494L24.7241 79.7894L24.5647 80.0123L24.787 80.1725L24.9478 79.9494ZM30.4522 72.2546L30.6758 72.4146L30.6761 72.4142L30.4522 72.2546ZM31.3397 68.3547L31.0687 68.4014L31.0687 68.4014L31.3397 68.3547ZM29.2114 64.9882L29.0525 65.2126L29.0535 65.2133L29.2114 64.9882ZM27.1811 64.1215L26.9321 64.0049L26.7825 64.3245L27.1289 64.3915L27.1811 64.1215ZM25.3709 57.3308L25.2121 57.5553H25.2121L25.3709 57.3308ZM22.3663 56.32L22.0942 56.2799L22.0494 56.5843L22.3569 56.5948L22.3663 56.32ZM19.8275 50.801L19.9861 50.5763L19.9861 50.5763L19.8275 50.801ZM13.1602 50.6621L12.8891 50.7083L12.9626 51.1402L13.3196 50.8862L13.1602 50.6621ZM12.8859 49.0507L13.157 49.0046L13.157 49.0044L12.8859 49.0507ZM5.38698 43.7564L5.43233 44.0276L5.43277 44.0275L5.38698 43.7564ZM0.0452806 51.1196L-0.227963 51.1507L-0.227953 51.1508L0.0452806 51.1196ZM3.25918 79.3422L2.98595 79.3733L2.98601 79.3738L3.25918 79.3422ZM5.13013 89.121L5.39568 89.0496L5.39557 89.0491L5.13013 89.121ZM6.87655 95.6107L6.611 95.6822L6.6111 95.6826L6.87655 95.6107ZM9.13044 100.083L9.34613 99.9126L9.34596 99.9124L9.13044 100.083ZM10.3397 101.612L10.124 101.783L10.1242 101.783L10.3397 101.612ZM12.0315 104.969L12.297 104.897L12.2969 104.897L12.0315 104.969ZM13.0752 108.848L12.8096 108.919L12.8096 108.919L13.0752 108.848ZM14.9879 109.946L15.0585 110.212L15.0585 110.212L14.9879 109.946ZM16.0934 108.046L16.3589 107.974L16.3589 107.974L16.0934 108.046ZM15.049 104.165L15.3146 104.093L15.3145 104.093L15.049 104.165ZM12.7949 99.692L12.5792 99.8626L12.5794 99.8628L12.7949 99.692ZM11.5856 98.1631L11.8013 97.9925L11.8011 97.9923L11.5856 98.1631ZM9.89408 94.8062L9.62853 94.8776L9.62863 94.878L9.89408 94.8062ZM8.14766 88.3162L8.41321 88.2447L8.41309 88.2443L8.14766 88.3162ZM6.36329 78.9898L6.09006 79.0209L6.09012 79.0214L6.36329 78.9898ZM3.14984 50.7704L2.8766 50.8014L2.8766 50.8015L3.14984 50.7704ZM5.90739 46.8173L5.95273 47.0885L5.95304 47.0884L5.90739 46.8173ZM9.80526 49.5688L10.0764 49.5227L10.0763 49.5225L9.80526 49.5688ZM12.6204 66.1192L12.6484 66.3928L12.9408 66.3628L12.8915 66.0731L12.6204 66.1192ZM11.6773 66.292L11.7476 66.5578L11.7486 66.5576L11.6773 66.292ZM8.04009 69.0668L7.80234 68.9286L7.80232 68.9286L8.04009 69.0668ZM7.43913 73.5752L7.70464 73.5036L7.70454 73.5032L7.43913 73.5752ZM11.7407 89.5175L11.4752 89.5892L11.7407 89.5175ZM13.654 90.6149L13.7248 90.8806L13.7249 90.8806L13.654 90.6149ZM14.758 88.7134L14.4925 88.785L14.4925 88.7851L14.758 88.7134ZM10.456 72.7691L10.7215 72.6974L10.7214 72.6971L10.456 72.7691ZM10.7456 70.6194L10.9834 70.7577L10.9834 70.7576L10.7456 70.6194ZM12.4856 69.2908L12.5559 69.5566L12.5567 69.5564L12.4856 69.2908ZM15.9847 71.2983L16.2503 71.2269L16.2501 71.2263L15.9847 71.2983ZM16.6495 73.771L16.3839 73.8424L16.384 73.8428L16.6495 73.771ZM22.2257 81.8229L22.3865 81.5998L22.3863 81.5997L22.2257 81.8229ZM27.3998 85.5505L27.5607 85.3274L27.5606 85.3273L27.3998 85.5505ZM34.1784 93.2506L34.4381 93.1601L34.4381 93.16L34.1784 93.2506ZM35.243 97.3699L34.9751 97.432L34.9752 97.4324L35.243 97.3699ZM35.2436 97.3723L34.9758 97.4348L34.9758 97.4349L35.2436 97.3723ZM35.2443 97.3755L35.5122 97.3134L35.5121 97.3128L35.2443 97.3755ZM39.4275 109.343L39.6516 109.183L39.6515 109.183L39.4275 109.343ZM41.6049 109.713L41.4467 109.489L41.4466 109.489L41.6049 109.713ZM41.9778 107.549L41.7537 107.709H41.7537L41.9778 107.549ZM38.2895 96.6797L38.5574 96.6176L38.5545 96.605L38.5504 96.5928L38.2895 96.6797ZM38.2895 96.6797L38.0216 96.7416L38.0245 96.7543L38.0286 96.7666L38.2895 96.6797ZM14.2253 53.9568L14.0017 53.7968L14.0014 53.7972L14.2253 53.9568ZM18.0179 53.3318L18.1765 53.1072L18.1765 53.1072L18.0179 53.3318ZM13.8178 54.5285L13.5939 54.3689L13.5276 54.462L13.5467 54.5746L13.8178 54.5285ZM15.1184 62.1746L14.8473 62.2207L14.958 62.8714L15.3421 62.3346L15.1184 62.1746ZM17.657 58.6262L17.4337 58.4657L17.4334 58.4662L17.657 58.6262ZM17.7155 58.5488L17.9357 58.7136L17.9391 58.7088L17.7155 58.5488ZM18.7264 57.1361L18.95 57.2961L18.9502 57.2959L18.7264 57.1361ZM15.855 66.5058L15.6314 66.3457L15.5647 66.4389L15.5839 66.5519L15.855 66.5058ZM15.891 66.7169L15.6199 66.763L15.6433 66.9009L15.7686 66.9632L15.891 66.7169ZM20.2305 60.3915L20.0099 60.2273L20.0068 60.2315L20.2305 60.3915ZM23.5593 59.8604L23.4004 60.0848L23.4005 60.0849L23.5593 59.8604ZM24.1281 63.1907L23.9045 63.0306L23.9045 63.0308L24.1281 63.1907ZM22.3866 65.6258L22.5844 65.8168L22.5985 65.8022L22.6103 65.7858L22.3866 65.6258ZM21.8952 66.2144L21.6717 66.0542L21.6715 66.0544L21.8952 66.2144ZM18.9529 70.3282L18.6897 70.4079L18.8515 70.9428L19.1766 70.4882L18.9529 70.3282ZM20.0769 74.2152L19.8533 74.0553L19.767 74.1759L19.8204 74.3143L20.0769 74.2152ZM24.7666 67.6574L24.5853 67.4507L24.5614 67.4716L24.5429 67.4975L24.7666 67.6574ZM22.5131 77.9951L22.3178 78.1887L22.5472 78.4202L22.7368 78.1551L22.5131 77.9951ZM27.9048 70.4575L28.1285 70.6175L28.1287 70.6172L27.9048 70.4575ZM28.2606 68.8792L27.9895 68.9259L27.9896 68.926L28.2606 68.8792ZM27.4039 67.5206L27.2449 67.745L27.2459 67.7457L27.4039 67.5206ZM96.7643 44.8639L96.9229 45.0885L96.7643 44.8639ZM101.615 43.7566L101.569 44.0277L101.57 44.0278L101.615 43.7566ZM94.1141 49.0516L93.843 49.0053L93.843 49.0055L94.1141 49.0516ZM93.8403 50.6615L93.6809 50.8855L94.0379 51.1396L94.1114 50.7076L93.8403 50.6615ZM87.1726 50.801L87.014 50.5763L87.014 50.5763L87.1726 50.801ZM84.634 56.3198L84.6434 56.5946L84.9509 56.584L84.906 56.2797L84.634 56.3198ZM81.6289 57.3306L81.4701 57.1061L81.4701 57.1061L81.6289 57.3306ZM79.8202 64.1193L79.8723 64.3893L80.2184 64.3226L80.0695 64.0031L79.8202 64.1193ZM77.7942 64.984L77.9522 65.2091L77.9532 65.2084L77.7942 64.984ZM75.6604 68.3547L75.9314 68.4014V68.4014L75.6604 68.3547ZM76.5492 72.2561L76.3253 72.4158L76.3255 72.4161L76.5492 72.2561ZM82.052 79.9492L82.2128 80.1723L82.4352 80.0121L82.2757 79.7892L82.052 79.9492ZM77.7654 83.0376L77.6047 82.8145L77.6046 82.8145L77.7654 83.0376ZM69.8683 92.2354L69.6087 92.1447L69.6086 92.1449L69.8683 92.2354ZM68.7122 96.6702L68.9801 96.7324V96.7324L68.7122 96.6702ZM68.7113 96.6744L68.4434 96.6122L68.4434 96.6122L68.7113 96.6744ZM65.0216 107.55L64.7976 107.39L64.7976 107.39L65.0216 107.55ZM65.3945 109.714L65.2363 109.939L65.2363 109.939L65.3945 109.714ZM67.5718 109.343L67.7958 109.503L67.7958 109.503L67.5718 109.343ZM71.7555 97.3731L71.4881 97.3087L71.4876 97.3109L71.7555 97.3731ZM71.7558 97.3718L72.0232 97.4362L72.0237 97.434L71.7558 97.3718ZM72.8205 93.252L72.5609 93.1613L72.5608 93.1615L72.8205 93.252ZM79.5995 85.5509L79.4388 85.3278L79.4387 85.3278L79.5995 85.5509ZM84.773 81.8238L84.6124 81.6006L84.6122 81.6007L84.773 81.8238ZM90.3508 73.769L90.6163 73.8408L90.6164 73.8405L90.3508 73.769ZM91.0142 71.3018L90.7488 71.2299L90.7487 71.2304L91.0142 71.3018ZM94.5243 69.2921L94.4532 69.5578L94.4538 69.5579L94.5243 69.2921ZM96.254 70.6181L96.0161 70.7562L96.0162 70.7562L96.254 70.6181ZM96.5429 72.772L96.2775 72.7L96.2774 72.7004L96.5429 72.772ZM92.2478 88.7143L91.9823 88.6427L92.2478 88.7143ZM93.3527 90.6155L93.282 90.8813L93.282 90.8813L93.3527 90.6155ZM95.2656 89.5175L95.0001 89.446L95.0001 89.446L95.2656 89.5175ZM99.56 73.5777L99.2946 73.5057L99.2945 73.5061L99.56 73.5777ZM98.96 69.0666L99.1978 68.9285L99.1978 68.9285L98.96 69.0666ZM95.3325 66.2933L95.2617 66.559L95.262 66.5591L95.3325 66.2933ZM94.3794 66.1201L94.1083 66.074L94.059 66.3642L94.3519 66.3937L94.3794 66.1201ZM97.1946 49.5703L96.9235 49.524L96.9235 49.5242L97.1946 49.5703ZM98.5741 47.395L98.4155 47.1703L98.4155 47.1703L98.5741 47.395ZM101.095 46.8181L101.049 47.0893L101.049 47.0894L101.095 46.8181ZM103.85 50.7706L104.123 50.8017L104.123 50.8016L103.85 50.7706ZM100.637 78.9874L100.91 79.019L100.91 79.0185L100.637 78.9874ZM98.8517 88.3191L98.5863 88.2472L98.5862 88.2476L98.8517 88.3191ZM97.1066 94.8048L97.3721 94.8766L97.3722 94.8763L97.1066 94.8048ZM95.4133 98.1649L95.1978 97.9941L95.1976 97.9943L95.4133 98.1649ZM94.2063 99.6914L94.4218 99.8622L94.422 99.8619L94.2063 99.6914ZM91.9508 104.167L91.6854 104.095L91.6853 104.096L91.9508 104.167ZM90.9069 108.046L90.6413 107.974L90.6413 107.975L90.9069 108.046ZM92.0124 109.947L92.0831 109.681L92.0831 109.681L92.0124 109.947ZM93.9251 108.848L94.1906 108.92L94.1907 108.92L93.9251 108.848ZM94.9684 104.972L94.7029 104.9L94.7028 104.9L94.9684 104.972ZM96.6617 101.611L96.8772 101.782L96.8774 101.782L96.6617 101.611ZM97.8687 100.085L97.6532 99.9142L97.653 99.9144L97.8687 100.085ZM100.124 95.6092L100.39 95.681L100.39 95.6806L100.124 95.6092ZM101.869 89.1239L101.604 89.052L101.604 89.0524L101.869 89.1239ZM103.741 79.3397L104.014 79.3714L104.015 79.3709L103.741 79.3397ZM106.955 51.1196L107.228 51.1508L107.228 51.1507L106.955 51.1196ZM88.9819 53.3321L88.8234 53.1074L88.8234 53.1074L88.9819 53.3321ZM92.7729 53.9548L92.9969 53.7952L92.9966 53.7948L92.7729 53.9548ZM88.2745 57.1377L88.0507 57.2975L88.0509 57.2977L88.2745 57.1377ZM89.2845 58.549L89.0609 58.7091L89.0642 58.7136L89.2845 58.549ZM89.2988 58.5678L89.0805 58.7351L89.0808 58.7355L89.2988 58.5678ZM89.3078 58.5796L89.0899 58.7472L89.09 58.7475L89.3078 58.5796ZM89.3235 58.6L89.5426 58.4338L89.5425 58.4337L89.3235 58.6ZM89.3426 58.6258L89.5662 58.4657L89.5661 58.4655L89.3426 58.6258ZM91.8819 62.175L91.6582 62.335L92.0423 62.8718L92.153 62.2211L91.8819 62.175ZM93.1824 54.5292L93.4535 54.5753L93.4727 54.4626L93.4063 54.3695L93.1824 54.5292ZM79.0968 70.4593L78.8729 70.619L78.8731 70.6193L79.0968 70.4593ZM84.4869 77.9949L84.2632 78.1549L84.4528 78.42L84.6822 78.1885L84.4869 77.9949ZM78.7395 68.8794L78.4685 68.8326L78.4685 68.8328L78.7395 68.8794ZM79.6018 67.5168L79.7598 67.7419L79.7607 67.7413L79.6018 67.5168ZM81.1808 67.1602L81.2264 66.889L81.2263 66.889L81.1808 67.1602ZM82.2344 67.659L82.458 67.499L82.4396 67.4732L82.4157 67.4522L82.2344 67.659ZM86.9231 74.2155L87.1796 74.3146L87.2331 74.1762L87.1468 74.0555L86.9231 74.2155ZM88.0471 70.328L87.8235 70.488L88.1484 70.9422L88.3103 70.4078L88.0471 70.328ZM85.1037 66.2126L85.3274 66.0526L85.3271 66.0522L85.1037 66.2126ZM91.1088 66.7198L91.2312 66.9661L91.3565 66.9038L91.38 66.7659L91.1088 66.7198ZM91.1452 66.5058L91.4163 66.5519L91.4355 66.4389L91.3689 66.3457L91.1452 66.5058ZM86.7693 60.3911L86.993 60.231L86.99 60.2269L86.7693 60.3911ZM83.4405 59.8604L83.2818 59.6358L83.2817 59.6358L83.4405 59.8604ZM82.8737 63.1927L82.6497 63.3523L82.65 63.3527L82.8737 63.1927ZM84.6342 65.6544L84.4105 65.8144L84.4217 65.83L84.435 65.8439L84.6342 65.6544ZM82.5754 28.6219C82.5754 12.6862 69.5308 -0.275 53.4998 -0.275V0.275C69.2303 0.275 82.0254 12.9932 82.0254 28.6219H82.5754ZM53.4998 57.5249C69.5311 57.5249 82.5754 44.5607 82.5754 28.6219H82.0254C82.0254 44.2538 69.2304 56.9749 53.4998 56.9749V57.5249ZM24.4244 28.6219C24.4244 44.5609 37.469 57.5249 53.4998 57.5249V56.9749C37.7696 56.9749 24.9744 44.2541 24.9744 28.6219H24.4244ZM53.4998 -0.275C37.469 -0.275 24.4244 12.6862 24.4244 28.6219H24.9744C24.9744 12.9932 37.7696 0.275 53.4998 0.275V-0.275ZM53.5 53.8701C39.4926 53.8701 28.0988 42.542 28.0988 28.6219H27.5488C27.5488 42.8488 39.192 54.4201 53.5 54.4201V53.8701ZM78.9014 28.6219C78.9012 42.542 67.5077 53.8701 53.5 53.8701V54.4201C67.8083 54.4201 79.4512 42.8488 79.4514 28.622L78.9014 28.6219ZM53.5 3.37981C67.5077 3.37981 78.9014 14.7051 78.9014 28.6219H79.4514C79.4514 14.3981 67.8082 2.82981 53.5 2.82981V3.37981ZM28.0988 28.6219C28.0988 14.7053 39.4923 3.37981 53.5 3.37981V2.82981C39.1918 2.82981 27.5488 14.3983 27.5488 28.6219H28.0988ZM58.9553 22.7598L67.6616 24.2577L67.7548 23.7157L59.0486 22.2178L58.9553 22.7598ZM54.6389 14.8503L58.759 22.6177L59.2449 22.36L55.1248 14.5926L54.6389 14.8503ZM53.5 14.1682C53.9785 14.1682 54.4166 14.4312 54.6389 14.8503L55.1248 14.5926C54.8065 13.9924 54.1806 13.6182 53.5 13.6182V14.1682ZM52.3612 14.8504C52.5834 14.4314 53.0216 14.1682 53.5 14.1682V13.6182C52.8194 13.6182 52.1936 13.9927 51.8753 14.5926L52.3612 14.8504ZM48.241 22.6175L52.3612 14.8503L51.8753 14.5926L47.7552 22.3597L48.241 22.6175ZM39.3385 24.2575L48.0447 22.7596L47.9515 22.2176L39.2452 23.7154L39.3385 24.2575ZM38.3339 25.1224C38.481 24.6721 38.8673 24.3385 39.3385 24.2575L39.2452 23.7154C38.5743 23.8309 38.0219 24.3063 37.8111 24.9516L38.3339 25.1224ZM38.6354 26.4065C38.3026 26.0668 38.1869 25.5726 38.3339 25.1224L37.8111 24.9516C37.6002 25.5974 37.7666 26.3056 38.2425 26.7914L38.6354 26.4065ZM44.7977 32.6982L38.6354 26.4065L38.2425 26.7914L44.4047 33.083L44.7977 32.6982ZM43.6109 41.6157L44.8733 32.9302L44.3291 32.8511L43.0667 41.5366L43.6109 41.6157ZM44.1273 42.8309C43.7411 42.5519 43.5428 42.084 43.6109 41.6157L43.0667 41.5365C42.9688 42.2086 43.2538 42.8784 43.8053 43.2767L44.1273 42.8309ZM45.4535 42.9441C45.025 43.1538 44.5141 43.1101 44.1273 42.8308L43.8054 43.2768C44.3567 43.6748 45.0843 43.7371 45.6953 43.4381L45.4535 42.9441ZM53.3792 39.0692L45.4536 42.944L45.6952 43.4381L53.6208 39.5633L53.3792 39.0692ZM61.5471 42.944L53.6208 39.0692L53.3792 39.5633L61.3056 43.4381L61.5471 42.944ZM62.1157 43.0755C61.9217 43.0755 61.7273 43.0322 61.5472 42.944L61.3055 43.4381C61.5623 43.5638 61.8396 43.6255 62.1157 43.6255V43.0755ZM62.8734 42.8309C62.6492 42.9928 62.3833 43.0755 62.1157 43.0755V43.6255C62.4965 43.6255 62.8755 43.5078 63.1954 43.2767L62.8734 42.8309ZM63.3898 41.6157C63.458 42.084 63.2596 42.5519 62.8734 42.8309L63.1954 43.2767C63.7469 42.8784 64.0319 42.2086 63.934 41.5365L63.3898 41.6157ZM62.1272 32.9302L63.3898 41.6157L63.9341 41.5366L62.6714 32.8511L62.1272 32.9302ZM68.3651 26.4065L62.2028 32.6982L62.5958 33.083L68.758 26.7914L68.3651 26.4065ZM68.6665 25.1223C68.8134 25.5727 68.6978 26.0669 68.3651 26.4065L68.758 26.7914C69.234 26.3056 69.4 25.5973 69.1894 24.9517L68.6665 25.1223ZM67.6616 24.2577C68.1329 24.3388 68.5193 24.6722 68.6666 25.1225L69.1893 24.9515C68.9782 24.3062 68.4256 23.8311 67.7548 23.7157L67.6616 24.2577ZM59.4269 31.0808C59.0289 31.4874 58.8428 32.055 58.9249 32.6176L59.4691 32.5382C59.4119 32.1463 59.5414 31.7501 59.8199 31.4656L59.4269 31.0808ZM64.0593 26.3511L59.427 31.0808L59.8199 31.4657L64.4522 26.7359L64.0593 26.3511ZM57.6655 25.6888L64.2091 26.8145L64.3024 26.2725L57.7587 25.1468L57.6655 25.6888ZM56.3539 24.741C56.62 25.2423 57.1046 25.5924 57.6655 25.6888L57.7587 25.1468C57.3649 25.0791 57.0257 24.8335 56.8397 24.4831L56.3539 24.741ZM53.2571 18.9032L56.3538 24.7409L56.8397 24.4832L53.743 18.6455L53.2571 18.9032ZM50.6464 24.7409L53.743 18.9032L53.2571 18.6455L50.1606 24.4832L50.6464 24.7409ZM49.3349 25.6888C49.8956 25.5921 50.3802 25.2424 50.6464 24.741L50.1606 24.4831C49.9747 24.8334 49.6354 25.0789 49.2415 25.1468L49.3349 25.6888ZM42.7912 26.8145L49.3348 25.6888L49.2415 25.1468L42.6979 26.2725L42.7912 26.8145ZM47.5733 31.0806L42.941 26.3511L42.5481 26.7359L47.1804 31.4654L47.5733 31.0806ZM48.0754 32.6174C48.1575 32.055 47.9711 31.4871 47.5734 31.0807L47.1803 31.4653C47.4587 31.7499 47.5883 32.1464 47.5312 32.538L48.0754 32.6174ZM47.1268 39.1447L48.0754 32.6173L47.5311 32.5382L46.5825 39.0656L47.1268 39.1447ZM52.6897 35.9462L46.7338 38.8581L46.9754 39.3522L52.9313 36.4403L52.6897 35.9462ZM53.5 35.7588C53.2228 35.7588 52.9452 35.821 52.6895 35.9463L52.9314 36.4402C53.1104 36.3526 53.3051 36.3088 53.5 36.3088V35.7588ZM54.3102 35.9461C54.0547 35.8214 53.7775 35.7588 53.5 35.7588V36.3088C53.6948 36.3088 53.8893 36.3527 54.0689 36.4404L54.3102 35.9461ZM60.2666 38.8581L54.3104 35.9462L54.0688 36.4403L60.0251 39.3522L60.2666 38.8581ZM58.9249 32.6175L59.8737 39.1447L60.418 39.0656L59.4691 32.5384L58.9249 32.6175ZM36.8711 92.325C37.2469 93.4034 37.603 94.9364 38.0206 96.7376L38.5564 96.6134C38.1417 94.8244 37.7783 93.2571 37.3905 92.144L36.8711 92.325ZM29.0734 83.2607C30.0074 83.9339 31.5989 85.166 33.1381 86.7518C34.6803 88.3405 36.1525 90.2664 36.8712 92.3251L37.3904 92.1439C36.6338 89.9762 35.0993 87.9825 33.5328 86.3687C31.9634 84.7519 30.3442 83.4987 29.395 82.8145L29.0734 83.2607ZM24.787 80.1725L29.0734 83.2607L29.3949 82.8145L25.1085 79.7263L24.787 80.1725ZM30.2285 72.0946L24.7241 79.7894L25.1715 80.1094L30.6758 72.4146L30.2285 72.0946ZM31.0687 68.4014C31.2941 69.7083 30.9956 71.0189 30.2283 72.0949L30.6761 72.4142C31.5289 71.2184 31.861 69.759 31.6107 68.3079L31.0687 68.4014ZM29.0535 65.2133C30.1269 65.9665 30.8441 67.0991 31.0687 68.4014L31.6107 68.308C31.3613 66.8621 30.5632 65.6008 29.3694 64.7631L29.0535 65.2133ZM27.1289 64.3915C27.8025 64.5218 28.4586 64.792 29.0525 65.2126L29.3704 64.7638C28.7105 64.2964 27.9812 63.9962 27.2334 63.8515L27.1289 64.3915ZM25.2121 57.5553C27.306 59.0364 27.9775 61.7718 26.9321 64.0049L27.4302 64.2381C28.5869 61.7674 27.844 58.7433 25.5297 57.1063L25.2121 57.5553ZM22.3569 56.5948C23.3507 56.629 24.344 56.9413 25.2121 57.5553L25.5297 57.1063C24.5706 56.4279 23.4725 56.0828 22.3758 56.0452L22.3569 56.5948ZM19.6688 51.0256C21.328 52.1972 22.4042 54.1759 22.0942 56.2799L22.6384 56.3601C22.9841 54.0131 21.7809 51.8437 19.9861 50.5763L19.6688 51.0256ZM13.3196 50.8862C15.3292 49.4567 17.8521 49.7431 19.6689 51.0256L19.9861 50.5763C18.0167 49.186 15.2361 48.8479 13.0008 50.438L13.3196 50.8862ZM12.6148 49.0969L12.8891 50.7083L13.4313 50.616L13.157 49.0046L12.6148 49.0969ZM5.43277 44.0275C8.81663 43.4562 12.0399 45.7318 12.6149 49.097L13.157 49.0044C12.5305 45.3377 9.02159 42.8638 5.3412 43.4852L5.43277 44.0275ZM0.318524 51.0886C-0.0703932 47.6638 2.18589 44.5704 5.43233 44.0276L5.34164 43.4851C1.78849 44.0792 -0.647766 47.4539 -0.227963 51.1507L0.318524 51.0886ZM3.53242 79.3111L0.318515 51.0885L-0.227953 51.1508L2.98595 79.3733L3.53242 79.3111ZM5.39557 89.0491C4.49477 85.7225 3.93741 82.8106 3.53236 79.3106L2.98601 79.3738C3.39414 82.9004 3.95658 85.8393 4.86469 89.1929L5.39557 89.0491ZM7.14211 95.5393L5.39568 89.0496L4.86458 89.1925L6.611 95.6822L7.14211 95.5393ZM9.34596 99.9124C8.27355 98.5593 7.59512 97.2133 7.14201 95.5389L6.6111 95.6826C7.08364 97.4288 7.79593 98.8421 8.91492 100.254L9.34596 99.9124ZM10.5554 101.442L9.34613 99.9126L8.91475 100.254L10.124 101.783L10.5554 101.442ZM12.2969 104.897C11.9353 103.561 11.4122 102.523 10.5552 101.441L10.1242 101.783C10.9346 102.805 11.4238 103.776 11.766 105.041L12.2969 104.897ZM13.3407 108.776L12.297 104.897L11.7659 105.04L12.8096 108.919L13.3407 108.776ZM14.5833 109.724C14.0134 109.724 13.4941 109.346 13.3407 108.776L12.8096 108.919C13.0298 109.737 13.7731 110.274 14.5833 110.274V109.724ZM14.9172 109.681C14.8054 109.71 14.6934 109.724 14.5833 109.724V110.274C14.7405 110.274 14.8999 110.254 15.0585 110.212L14.9172 109.681ZM15.8278 108.117C16.0106 108.797 15.6047 109.498 14.9172 109.681L15.0585 110.212C16.0375 109.952 16.6215 108.951 16.3589 107.974L15.8278 108.117ZM14.7834 104.236L15.8278 108.117L16.3589 107.974L15.3146 104.093L14.7834 104.236ZM12.5794 99.8628C13.6518 101.216 14.3304 102.562 14.7835 104.236L15.3145 104.093C14.8419 102.346 14.1294 100.933 13.0104 99.5212L12.5794 99.8628ZM11.3699 98.3337L12.5792 99.8626L13.0106 99.5214L11.8013 97.9925L11.3699 98.3337ZM9.62863 94.878C9.99025 96.2143 10.5133 97.2527 11.3701 98.3339L11.8011 97.9923C10.9909 96.9698 10.5017 95.9989 10.1595 94.7343L9.62863 94.878ZM7.8821 88.3877L9.62853 94.8776L10.1596 94.7347L8.41321 88.2447L7.8821 88.3877ZM6.09012 79.0214C6.47928 82.3846 7.01561 85.1882 7.88222 88.3881L8.41309 88.2443C7.5538 85.0714 7.02256 82.2947 6.63647 78.9582L6.09012 79.0214ZM2.8766 50.8015L6.09006 79.0209L6.63653 78.9587L3.42307 50.7392L2.8766 50.8015ZM5.86204 46.546C3.93408 46.8683 2.64376 48.7533 2.8766 50.8014L3.42308 50.7393C3.21898 48.944 4.34946 47.3565 5.95273 47.0885L5.86204 46.546ZM10.0763 49.5225C9.73861 47.5452 7.84897 46.2115 5.86173 46.5461L5.95304 47.0884C7.64387 46.8038 9.24797 47.9393 9.53419 49.6151L10.0763 49.5225ZM12.8915 66.0731L10.0764 49.5227L9.53416 49.6149L12.3493 66.1653L12.8915 66.0731ZM11.7486 66.5576C12.0479 66.4773 12.3485 66.4235 12.6484 66.3928L12.5923 65.8457C12.2647 65.8792 11.9352 65.9381 11.6061 66.0264L11.7486 66.5576ZM8.27785 69.205C9.04415 67.8866 10.2756 66.9472 11.7476 66.5578L11.607 66.0261C9.99369 66.4529 8.64187 67.4842 7.80234 68.9286L8.27785 69.205ZM7.70454 73.5032C7.30979 72.0481 7.51264 70.5219 8.27787 69.205L7.80232 68.9286C6.96394 70.3715 6.74012 72.0489 7.17373 73.6472L7.70454 73.5032ZM12.0062 89.4459L7.70464 73.5036L7.17363 73.6469L11.4752 89.5892L12.0062 89.4459ZM13.5833 90.3491C12.8944 90.5325 12.1898 90.1262 12.0062 89.4459L11.4752 89.5892C11.7384 90.5647 12.7458 91.1412 13.7248 90.8806L13.5833 90.3491ZM14.4925 88.7851C14.6761 89.4648 14.2706 90.166 13.5832 90.3491L13.7249 90.8806C14.7036 90.6198 15.2872 89.6182 15.0235 88.6417L14.4925 88.7851ZM10.1905 72.8407L14.4925 88.785L15.0235 88.6418L10.7215 72.6974L10.1905 72.8407ZM10.5079 70.4812C10.0877 71.2037 9.97422 72.0429 10.1906 72.841L10.7214 72.6971C10.5441 72.0431 10.6359 71.3551 10.9834 70.7577L10.5079 70.4812ZM12.4153 69.0249C11.6051 69.2393 10.9289 69.7569 10.5079 70.4812L10.9834 70.7576C11.3314 70.1588 11.8875 69.7335 12.5559 69.5566L12.4153 69.0249ZM16.2501 71.2263C15.7999 69.5673 14.0794 68.5794 12.4145 69.0251L12.5567 69.5564C13.9299 69.1888 15.3487 70.0048 15.7193 71.3703L16.2501 71.2263ZM16.9151 73.6996L16.2503 71.2269L15.7191 71.3697L16.3839 73.8424L16.9151 73.6996ZM22.3863 81.5997C19.5984 79.5941 17.8111 77.0136 16.9149 73.6992L16.384 73.8428C17.3132 77.2793 19.1746 79.9667 22.0651 82.0462L22.3863 81.5997ZM27.5606 85.3273L22.3865 81.5998L22.065 82.0461L27.2391 85.7736L27.5606 85.3273ZM34.4381 93.16C33.5889 90.7276 31.0008 87.8076 27.5607 85.3274L27.239 85.7735C30.6445 88.2287 33.1246 91.0664 33.9188 93.3413L34.4381 93.16ZM35.5109 97.3077C35.1167 95.6078 34.771 94.1153 34.4381 93.1601L33.9188 93.3411C34.2394 94.2613 34.5776 95.7178 34.9751 97.432L35.5109 97.3077ZM35.5114 97.3098L35.5108 97.3074L34.9752 97.4324L34.9758 97.4348L35.5114 97.3098ZM35.5121 97.3128L35.5113 97.3096L34.9758 97.4349L34.9766 97.4382L35.5121 97.3128ZM39.6515 109.183C38.6334 107.754 37.8315 105.801 37.1661 103.688C36.5016 101.577 35.9797 99.3285 35.5122 97.3134L34.9764 97.4377C35.4431 99.4493 35.9696 101.719 36.6415 103.853C37.3124 105.984 38.135 108.002 39.2035 109.502L39.6515 109.183ZM40.704 109.724C40.2988 109.724 39.9019 109.535 39.6516 109.183L39.2035 109.502C39.5619 110.006 40.1295 110.274 40.704 110.274V109.724ZM41.4466 109.489C41.2208 109.647 40.9612 109.724 40.704 109.724V110.274C41.0703 110.274 41.4413 110.165 41.7632 109.938L41.4466 109.489ZM41.7537 107.709C42.1633 108.284 42.0267 109.081 41.4467 109.489L41.7631 109.938C42.5917 109.356 42.7889 108.214 42.2018 107.39L41.7537 107.709ZM38.0217 96.7419C38.4347 98.5218 38.9263 100.641 39.532 102.62C40.1359 104.593 40.8616 106.456 41.7537 107.709L42.2018 107.39C41.3641 106.213 40.659 104.423 40.0579 102.459C39.4587 100.501 38.9711 98.4006 38.5574 96.6176L38.0217 96.7419ZM38.0286 96.7666L38.0287 96.7667L38.5504 96.5928L38.5504 96.5927L38.0286 96.7666ZM38.0206 96.7374L38.0216 96.7416L38.5575 96.6178L38.5565 96.6136L38.0206 96.7374ZM14.449 54.1168C14.9845 53.3684 15.6036 53.0786 16.1895 53.0401C16.7872 53.0008 17.3845 53.2214 17.8593 53.5565L18.1765 53.1072C17.6256 52.7184 16.906 52.4419 16.1535 52.4913C15.3892 52.5414 14.6247 52.926 14.0017 53.7968L14.449 54.1168ZM14.0418 54.6881L14.4493 54.1164L14.0014 53.7972L13.5939 54.3689L14.0418 54.6881ZM15.3895 62.1284L14.089 54.4824L13.5467 54.5746L14.8473 62.2207L15.3895 62.1284ZM17.4334 58.4662L14.8947 62.0145L15.3421 62.3346L17.8807 58.7862L17.4334 58.4662ZM17.4953 58.384C17.4847 58.3982 17.4532 58.4386 17.4337 58.4657L17.8803 58.7867C17.8988 58.761 17.9075 58.7513 17.9357 58.7136L17.4953 58.384ZM18.5028 56.9761L17.4919 58.3888L17.9391 58.7088L18.95 57.2961L18.5028 56.9761ZM17.8593 53.5565C18.2482 53.8312 18.6907 54.3057 18.8934 54.897C19.0906 55.4722 19.0704 56.1813 18.5026 56.9763L18.9502 57.2959C19.6205 56.3574 19.6689 55.4629 19.4137 54.7187C19.1641 53.9906 18.6333 53.4297 18.1765 53.1072L17.8593 53.5565ZM15.5839 66.5519L15.6199 66.763L16.1621 66.6708L16.1261 66.4596L15.5839 66.5519ZM20.0068 60.2315L15.6314 66.3457L16.0787 66.6658L20.4541 60.5515L20.0068 60.2315ZM23.7182 59.6359C22.528 58.7935 20.8767 59.063 20.0099 60.2273L20.4511 60.5557C21.1406 59.6296 22.4555 59.416 23.4004 60.0848L23.7182 59.6359ZM24.3517 63.3508C25.2089 62.1538 24.9228 60.4879 23.7181 59.6358L23.4005 60.0849C24.3582 60.7622 24.5827 62.0835 23.9045 63.0306L24.3517 63.3508ZM22.6103 65.7858L24.3518 63.3507L23.9045 63.0308L22.1629 65.4658L22.6103 65.7858ZM22.1188 66.3746C22.2619 66.1748 22.4179 65.9893 22.5844 65.8168L22.1888 65.4348C22.0045 65.6256 21.8312 65.8317 21.6717 66.0542L22.1188 66.3746ZM19.1766 70.4882L22.1189 66.3744L21.6715 66.0544L18.7292 70.1683L19.1766 70.4882ZM15.7686 66.9632C17.1332 67.6411 18.2199 68.8549 18.6897 70.4079L19.2161 70.2486C18.7004 68.5438 17.5074 67.2129 16.0133 66.4706L15.7686 66.9632ZM20.3006 74.3752L24.9903 67.8174L24.5429 67.4975L19.8533 74.0553L20.3006 74.3752ZM22.7085 77.8015C21.6627 76.7465 20.8776 75.5259 20.3335 74.1162L19.8204 74.3143C20.3912 75.793 21.2173 77.0784 22.3178 78.1887L22.7085 77.8015ZM27.6812 70.2975L22.2895 77.8352L22.7368 78.1551L28.1285 70.6175L27.6812 70.2975ZM27.9896 68.926C28.0741 69.4152 27.9634 69.9018 27.6809 70.2979L28.1287 70.6172C28.4975 70.1 28.6407 69.4645 28.5315 68.8324L27.9896 68.926ZM27.2459 67.7457C27.6421 68.0236 27.9061 68.4414 27.9895 68.9259L28.5316 68.8325C28.4235 68.2054 28.0792 67.6585 27.5618 67.2955L27.2459 67.7457ZM24.9479 67.8642C25.5783 67.3113 26.5303 67.2388 27.2449 67.745L27.5628 67.2962C26.635 66.639 25.4018 66.7346 24.5853 67.4507L24.9479 67.8642ZM96.9229 45.0885C98.2833 44.1279 99.9324 43.7514 101.569 44.0277L101.661 43.4854C99.8803 43.1848 98.0843 43.5951 96.6057 44.6393L96.9229 45.0885ZM94.3852 49.0979C94.6631 47.4714 95.5635 46.0485 96.9229 45.0885L96.6057 44.6393C95.1279 45.6828 94.1458 47.2334 93.843 49.0053L94.3852 49.0979ZM94.1114 50.7076L94.3852 49.0977L93.843 49.0055L93.5692 50.6154L94.1114 50.7076ZM87.3312 51.0256C89.1482 49.7426 91.672 49.4562 93.6809 50.8855L93.9997 50.4374C91.7651 48.8475 88.9835 49.1856 87.014 50.5763L87.3312 51.0256ZM84.906 56.2797C84.5959 54.1757 85.672 52.1973 87.3312 51.0256L87.014 50.5763C85.2192 51.8437 84.0159 54.0128 84.3619 56.3599L84.906 56.2797ZM81.7877 57.5551C82.656 56.9411 83.6496 56.6288 84.6434 56.5946L84.6245 56.0449C83.5278 56.0826 82.4295 56.4276 81.4701 57.1061L81.7877 57.5551ZM80.0695 64.0031C79.0274 61.7665 79.6992 59.0325 81.7877 57.5551L81.4701 57.1061C79.1607 58.7397 78.4186 61.7621 79.571 64.2354L80.0695 64.0031ZM77.9532 65.2084C78.5348 64.7964 79.1876 64.5212 79.8723 64.3893L79.7682 63.8492C79.0073 63.9959 78.2815 64.3018 77.6352 64.7596L77.9532 65.2084ZM75.9314 68.4014C76.1557 67.0993 76.8732 65.9664 77.9522 65.2091L77.6362 64.7589C76.4372 65.6005 75.6385 66.8619 75.3894 68.308L75.9314 68.4014ZM76.7731 72.0964C76.0046 71.0189 75.7062 69.7082 75.9314 68.4014L75.3894 68.308C75.1393 69.7591 75.4714 71.2184 76.3253 72.4158L76.7731 72.0964ZM82.2757 79.7892L76.7729 72.0961L76.3255 72.4161L81.8284 80.1092L82.2757 79.7892ZM77.9262 83.2607L82.2128 80.1723L81.8913 79.7261L77.6047 82.8145L77.9262 83.2607ZM70.128 92.326C70.8471 90.2667 72.3195 88.3405 73.8617 86.7517C75.401 85.1659 76.9925 83.9338 77.9262 83.2607L77.6046 82.8145C76.6556 83.4986 75.0366 84.7517 73.4671 86.3686C71.9005 87.9825 70.3658 89.9766 69.6087 92.1447L70.128 92.326ZM68.9801 96.7324C69.3976 94.9334 69.7532 93.4024 70.1281 92.3258L69.6086 92.1449C69.2218 93.256 68.8589 94.8214 68.4444 96.6081L68.9801 96.7324ZM68.9792 96.7365L68.9801 96.7324L68.4444 96.6081L68.4434 96.6122L68.9792 96.7365ZM65.2456 107.709C66.1386 106.455 66.8648 104.591 67.4688 102.617C68.0748 100.637 68.5664 98.5167 68.9792 96.7365L68.4434 96.6122C68.0299 98.3955 67.5424 100.497 66.9429 102.456C66.3416 104.421 65.6361 106.213 64.7976 107.39L65.2456 107.709ZM65.5527 109.489C64.9727 109.081 64.8361 108.285 65.2456 107.709L64.7976 107.39C64.2105 108.215 64.4077 109.356 65.2363 109.939L65.5527 109.489ZM66.2954 109.724C66.038 109.724 65.7788 109.648 65.5527 109.489L65.2363 109.939C65.5583 110.165 65.9288 110.274 66.2954 110.274V109.724ZM67.3479 109.184C67.0973 109.536 66.7003 109.724 66.2954 109.724V110.274C66.8697 110.274 67.4372 110.006 67.7958 109.503L67.3479 109.184ZM71.4876 97.3109C71.0202 99.3264 70.4983 101.576 69.8338 103.687C69.1683 105.801 68.3662 107.754 67.3478 109.184L67.7958 109.503C68.8647 108.002 69.6874 105.983 70.3584 103.852C71.0304 101.717 71.5568 99.4472 72.0234 97.4352L71.4876 97.3109ZM71.4884 97.3075L71.4881 97.3087L72.0229 97.4374L72.0232 97.4362L71.4884 97.3075ZM72.5608 93.1615C72.2284 94.116 71.8824 95.6089 71.4879 97.3097L72.0237 97.434C72.4214 95.719 72.76 94.2619 73.0802 93.3424L72.5608 93.1615ZM79.4387 85.3278C75.9988 87.8078 73.4105 90.728 72.5609 93.1613L73.0801 93.3426C73.8747 91.0668 76.3551 88.2289 79.7604 85.774L79.4387 85.3278ZM84.6122 81.6007L79.4388 85.3278L79.7603 85.774L84.9337 82.0469L84.6122 81.6007ZM90.0853 73.6973C89.1885 77.0138 87.4014 79.5943 84.6124 81.6006L84.9336 82.0471C87.8252 79.9669 89.6864 77.2795 90.6163 73.8408L90.0853 73.6973ZM90.7487 71.2304L90.0852 73.6976L90.6164 73.8405L91.2798 71.3732L90.7487 71.2304ZM94.5953 69.0265C92.9253 68.58 91.1996 69.5671 90.7488 71.2299L91.2797 71.3738C91.6505 70.0058 93.0736 69.189 94.4532 69.5578L94.5953 69.0265ZM96.4918 70.48C96.0717 69.7565 95.3975 69.2393 94.5948 69.0263L94.4538 69.5579C95.114 69.7331 95.6685 70.1575 96.0161 70.7562L96.4918 70.48ZM96.8084 72.8439C97.0256 72.043 96.9119 71.2034 96.4918 70.48L96.0162 70.7562C96.3637 71.3545 96.4557 72.043 96.2775 72.7L96.8084 72.8439ZM92.5134 88.7858L96.8085 72.8435L96.2774 72.7004L91.9823 88.6427L92.5134 88.7858ZM93.4234 90.3498C92.7359 90.1668 92.3302 89.4658 92.5134 88.7858L91.9823 88.6427C91.7192 89.6194 92.303 90.6207 93.282 90.8813L93.4234 90.3498ZM95.0001 89.446C94.8169 90.1263 94.1126 90.5331 93.4234 90.3498L93.282 90.8813C94.2616 91.1419 95.2685 90.5645 95.5311 89.5891L95.0001 89.446ZM99.2945 73.5061L95.0001 89.446L95.5311 89.5891L99.8256 73.6492L99.2945 73.5061ZM98.7221 69.2047C99.4869 70.522 99.6896 72.0485 99.2946 73.5057L99.8254 73.6496C100.259 72.0494 100.036 70.3718 99.1978 68.9285L98.7221 69.2047ZM95.262 66.5591C96.7277 66.948 97.9568 67.887 98.7222 69.2047L99.1978 68.9285C98.3595 67.4851 97.0102 66.4539 95.4031 66.0275L95.262 66.5591ZM94.3519 66.3937C94.655 66.4243 94.9589 66.4783 95.2617 66.559L95.4034 66.0276C95.071 65.9389 94.7381 65.8798 94.407 65.8465L94.3519 66.3937ZM96.9235 49.5242L94.1083 66.074L94.6505 66.1662L97.4657 49.6165L96.9235 49.5242ZM98.4155 47.1703C97.6175 47.7337 97.0866 48.5702 96.9235 49.524L97.4656 49.6167C97.6038 48.8088 98.0525 48.0999 98.7327 47.6196L98.4155 47.1703ZM101.14 46.547C100.18 46.3849 99.2132 46.6072 98.4155 47.1703L98.7327 47.6196C99.4127 47.1396 100.233 46.9516 101.049 47.0893L101.14 46.547ZM104.123 50.8016C104.356 48.7539 103.066 46.8688 101.14 46.5469L101.049 47.0894C102.65 47.357 103.781 48.9444 103.577 50.7395L104.123 50.8016ZM100.91 79.0185L104.123 50.8017L103.577 50.7395L100.364 78.9562L100.91 79.0185ZM99.1172 88.391C99.9844 85.1886 100.521 82.385 100.91 79.019L100.364 78.9557C99.9775 82.2952 99.4462 85.0718 98.5863 88.2472L99.1172 88.391ZM97.3722 94.8763L99.1173 88.3905L98.5862 88.2476L96.8411 94.7334L97.3722 94.8763ZM95.6288 98.3357C96.487 97.2529 97.0102 96.2146 97.3721 94.8766L96.8412 94.733C96.4987 95.9991 96.0094 96.97 95.1978 97.9941L95.6288 98.3357ZM94.422 99.8619L95.629 98.3355L95.1976 97.9943L93.9906 99.5208L94.422 99.8619ZM92.2163 104.239C92.6696 102.563 93.348 101.217 94.4218 99.8622L93.9907 99.5206C92.8704 100.934 92.1581 102.348 91.6854 104.095L92.2163 104.239ZM91.1724 108.117L92.2164 104.239L91.6853 104.096L90.6413 107.974L91.1724 108.117ZM92.0831 109.681C91.3955 109.498 90.9896 108.797 91.1725 108.117L90.6413 107.975C90.3787 108.951 90.9628 109.952 91.9417 110.213L92.0831 109.681ZM92.417 109.725C92.3071 109.725 92.195 109.711 92.0831 109.681L91.9417 110.213C92.0999 110.255 92.2596 110.275 92.417 110.275V109.725ZM93.6595 108.777C93.5062 109.347 92.9868 109.725 92.417 109.725V110.275C93.2272 110.275 93.9705 109.738 94.1906 108.92L93.6595 108.777ZM94.7028 104.9L93.6595 108.777L94.1907 108.92L95.2339 105.043L94.7028 104.9ZM96.4461 101.441C95.588 102.523 95.0647 103.562 94.7029 104.9L95.2338 105.043C95.5762 103.777 96.0656 102.806 96.8772 101.782L96.4461 101.441ZM97.653 99.9144L96.446 101.441L96.8774 101.782L98.0844 100.256L97.653 99.9144ZM99.8587 95.5374C99.4054 97.2133 98.727 98.5595 97.6532 99.9142L98.0842 100.256C99.2046 98.8423 99.9169 97.4288 100.39 95.681L99.8587 95.5374ZM101.604 89.0524L99.8586 95.5377L100.39 95.6806L102.135 89.1954L101.604 89.0524ZM103.468 79.3081C103.062 82.811 102.505 85.7227 101.604 89.052L102.135 89.1958C103.043 85.8395 103.606 82.9009 104.014 79.3714L103.468 79.3081ZM106.682 51.0885L103.468 79.3086L104.015 79.3709L107.228 51.1508L106.682 51.0885ZM101.57 44.0278C104.814 44.5703 107.07 47.6638 106.682 51.0886L107.228 51.1507C107.648 47.454 105.211 44.0792 101.66 43.4854L101.57 44.0278ZM89.1405 53.5567C89.6154 53.2216 90.2129 53.001 90.8104 53.04C91.3962 53.0783 92.0147 53.3676 92.5493 54.1148L92.9966 53.7948C92.3743 52.9251 91.6103 52.5411 90.8462 52.4912C90.0939 52.4421 89.3743 52.7186 88.8234 53.1074L89.1405 53.5567ZM88.4983 56.9779C87.9301 56.182 87.9096 55.4724 88.1066 54.8972C88.3092 54.3057 88.7516 53.8313 89.1405 53.5567L88.8234 53.1074C88.3665 53.4298 87.8357 53.9907 87.5863 54.719C87.3313 55.4634 87.3801 56.3582 88.0507 57.2975L88.4983 56.9779ZM89.5082 58.389L88.4982 56.9776L88.0509 57.2977L89.0609 58.7091L89.5082 58.389ZM89.517 58.4005C89.5127 58.3948 89.5087 58.3895 89.5049 58.3844L89.0642 58.7136C89.0698 58.7211 89.0753 58.7283 89.0805 58.7351L89.517 58.4005ZM89.5258 58.4119L89.5168 58.4001L89.0808 58.7355L89.0899 58.7472L89.5258 58.4119ZM89.5425 58.4337C89.5366 58.4259 89.5308 58.4183 89.5256 58.4117L89.09 58.7475C89.0954 58.7544 89.1 58.7604 89.1045 58.7664L89.5425 58.4337ZM89.5661 58.4655C89.5579 58.4541 89.5499 58.4435 89.5426 58.4338L89.1045 58.7663C89.11 58.7735 89.1148 58.78 89.1191 58.786L89.5661 58.4655ZM92.1055 62.015L89.5662 58.4657L89.1189 58.7858L91.6582 62.335L92.1055 62.015ZM92.9113 54.4831L91.6108 62.1289L92.153 62.2211L93.4535 54.5753L92.9113 54.4831ZM92.549 54.1144L92.9585 54.6888L93.4063 54.3695L92.9969 53.7952L92.549 54.1144ZM78.8731 70.6193L84.2632 78.1549L84.7106 77.8349L79.3204 70.2993L78.8731 70.6193ZM78.4685 68.8328C78.3598 69.4646 78.5028 70.1001 78.8729 70.619L79.3207 70.2996C79.0369 69.9017 78.9264 69.415 79.0105 68.926L78.4685 68.8328ZM79.4438 67.2918C78.9214 67.6585 78.5768 68.2052 78.4685 68.8326L79.0105 68.9262C79.0941 68.4421 79.3578 68.0241 79.7598 67.7419L79.4438 67.2918ZM81.2263 66.889C80.5953 66.7832 79.961 66.9255 79.4429 67.2924L79.7607 67.7413C80.1584 67.4597 80.6453 67.3492 81.1353 67.4314L81.2263 66.889ZM82.4157 67.4522C82.0839 67.1613 81.6759 66.9645 81.2264 66.889L81.1353 67.4314C81.4833 67.4899 81.7975 67.6417 82.0531 67.8658L82.4157 67.4522ZM87.1468 74.0555L82.458 67.499L82.0107 67.819L86.6994 74.3754L87.1468 74.0555ZM84.6822 78.1885C85.7825 77.0784 86.6084 75.7932 87.1796 74.3146L86.6666 74.1164C86.122 75.5261 85.3372 76.7465 84.2916 77.8013L84.6822 78.1885ZM88.2708 70.168L85.3274 66.0526L84.88 66.3726L87.8235 70.488L88.2708 70.168ZM90.9865 66.4735C89.4925 67.2158 88.3001 68.545 87.784 70.2483L88.3103 70.4078C88.7805 68.8563 89.8666 67.6441 91.2312 66.9661L90.9865 66.4735ZM90.8741 66.4597L90.8377 66.6737L91.38 66.7659L91.4163 66.5519L90.8741 66.4597ZM86.5457 60.5511L90.9216 66.6658L91.3689 66.3457L86.993 60.231L86.5457 60.5511ZM83.5993 60.0849C84.5458 59.4159 85.86 59.6295 86.5487 60.5552L86.99 60.2269C86.1238 59.0626 84.4731 58.7937 83.2818 59.6358L83.5993 60.0849ZM83.0976 63.0331C82.4203 62.0826 82.6451 60.7598 83.5993 60.0849L83.2817 59.6358C82.0793 60.4863 81.7954 62.1534 82.6497 63.3523L83.0976 63.0331ZM84.8579 65.4944L83.0974 63.0327L82.65 63.3527L84.4105 65.8144L84.8579 65.4944ZM85.3271 66.0522C85.1741 65.8391 85.0055 65.6457 84.8334 65.4648L84.435 65.8439C84.5962 66.0134 84.7467 66.1869 84.8803 66.3729L85.3271 66.0522Z" fill="#007AFF" fill-opacity="0.04"/>
</svg>
