<svg width="100" height="99" viewBox="0 0 100 99" fill="none" xmlns="http://www.w3.org/2000/svg">
<path d="M43.8459 34.917L40.6367 33.917" stroke="#007AFF" stroke-width="2.5" stroke-linecap="round" stroke-linejoin="round"/>
<path d="M57.0625 34.917L60.2717 33.917" stroke="#007AFF" stroke-width="2.5" stroke-linecap="round" stroke-linejoin="round"/>
<path d="M78.4588 40.9238C77.826 33.9225 74.8277 27.2209 67.4045 23.5508C61.0863 20.4248 55.7285 19.159 50.4539 19.159C45.1738 19.159 39.8217 20.4248 33.4979 23.5508C25.7359 27.3875 22.9988 34.5443 22.5156 41.8955" stroke="#007AFF" stroke-width="2.5" stroke-linecap="round" stroke-linejoin="round"/>
<path d="M7.30469 87.6357L10.5527 70.3627C12.5459 59.7855 19.8025 52.9674 27.0426 52.9674" stroke="#007AFF" stroke-width="2.5" stroke-linecap="round" stroke-linejoin="round"/>
<path d="M26.2847 87.6348L24.2144 62.4121C24.1031 61.0957 25.2691 60.0137 26.5621 60.0137L73.939 60.0137C75.232 60.0137 76.4039 61.0957 76.2925 62.4121L74.0933 87.6348" stroke="#007AFF" stroke-width="2.5" stroke-linecap="round" stroke-linejoin="round"/>
<path d="M32.3421 11.1497C31.8746 11.6576 31.0838 11.6903 30.5759 11.2228C30.0679 10.7552 30.0352 9.96445 30.5028 9.45654L32.3421 11.1497ZM79.6703 35.5326L80.9201 35.5129L80.9201 35.5135L79.6703 35.5326ZM70.848 59.9182L72.0979 59.9034C72.1006 60.1308 72.0412 60.3546 71.9261 60.5508L70.848 59.9182ZM71.8707 60.6453C71.5213 61.2407 70.7554 61.4402 70.1599 61.0908C69.5645 60.7414 69.3651 59.9755 69.7145 59.3801L71.8707 60.6453ZM29.4244 60.0127C29.4244 60.7031 28.8647 61.2627 28.1744 61.2627C27.484 61.2627 26.9244 60.7031 26.9244 60.0127H29.4244ZM28.1744 59.9182H26.9244C26.9244 59.9132 26.9244 59.9083 26.9245 59.9034L28.1744 59.9182ZM21.2398 35.5326L22.4897 35.5518L22.4897 35.5526L21.2398 35.5326ZM26.4109 14.7233C26.7877 14.1449 27.5621 13.9815 28.1405 14.3583C28.719 14.7352 28.8824 15.5096 28.5055 16.088L26.4109 14.7233ZM30.5028 9.45654C36.3185 3.13874 43.769 -0.785545 50.4551 -0.785545V1.71445C44.6825 1.71445 37.8525 5.1636 32.3421 11.1497L30.5028 9.45654ZM50.4551 -0.785545C57.2064 -0.785545 64.743 3.21914 70.5871 9.65208C76.4584 16.1148 80.7566 25.166 80.9201 35.5129L78.4204 35.5524C78.2676 25.8834 74.2487 17.4005 68.7367 11.3331C63.1976 5.23594 56.2847 1.71445 50.4551 1.71445V-0.785545ZM80.9201 35.5135C80.9531 37.6715 80.3383 39.7494 79.4718 41.7432C78.6094 43.7273 77.4525 45.7239 76.3504 47.6809C74.0984 51.6799 72.0469 55.5879 72.0979 59.9034L69.5981 59.933C69.538 54.8541 71.956 50.3893 74.172 46.4542C75.304 44.4441 76.3807 42.5832 77.179 40.7467C77.973 38.9197 78.4458 37.2137 78.4204 35.5517L80.9201 35.5135ZM71.9261 60.5508L71.8707 60.6453L69.7145 59.3801L69.7699 59.2856L71.9261 60.5508ZM26.9244 60.0127V59.9182H29.4244V60.0127H26.9244ZM26.9245 59.9034C26.9763 55.5126 25.3304 51.5579 23.5606 47.5751C21.8386 43.6998 19.9236 39.669 19.99 35.5126L22.4897 35.5526C22.434 39.0363 24.0417 42.5011 25.8452 46.5599C27.601 50.5114 29.4834 54.9294 29.4243 59.9329L26.9245 59.9034ZM19.99 35.5135C20.1105 27.6425 22.6309 20.5249 26.4109 14.7233L28.5055 16.088C24.9565 21.5352 22.6023 28.1985 22.4897 35.5518L19.99 35.5135Z" fill="#007AFF"/>
<path d="M53.4027 87.6354L94.3053 87.6354C96.265 87.6354 97.8697 89.2455 97.8697 91.2055V93.9705C97.8697 95.9305 96.265 97.5352 94.3053 97.5352L5.69336 97.5352C3.7334 97.5352 2.12891 95.9305 2.12891 93.9705L2.12891 91.2055C2.12891 89.2455 3.7334 87.6354 5.69336 87.6354H46.8346" stroke="#007AFF" stroke-width="2.5" stroke-linecap="round" stroke-linejoin="round"/>
<path d="M91.8697 87.6357L88.6162 70.3627C86.6285 59.7855 79.5328 52.9785 72.293 52.9785" stroke="#007AFF" stroke-width="2.5" stroke-linecap="round" stroke-linejoin="round"/>
<path fill-rule="evenodd" clip-rule="evenodd" d="M50.2549 78.9131C53.7027 78.9131 56.5176 76.6256 56.5176 73.8271C56.5176 71.0232 53.7027 68.7357 50.2549 68.7357C46.8014 68.7357 43.9922 71.0232 43.9922 73.8271C43.9922 76.6256 46.8014 78.9131 50.2549 78.9131Z" stroke="#007AFF" stroke-width="2.5" stroke-linecap="round" stroke-linejoin="round"/>
<path d="M59.2451 49.4023V60.0127H41.2617V49.3801" stroke="#007AFF" stroke-width="2.5" stroke-linecap="round" stroke-linejoin="round"/>
<path d="M33.3086 23.6457L33.3086 35.6553C33.3086 36.4881 33.4141 37.3486 33.6195 38.226C34.9354 43.817 40.0432 49.9135 46.3283 52.1844C47.7441 52.6951 49.0102 52.9838 50.2537 53.0449C51.4973 52.9838 52.7576 52.6951 54.1734 52.1844C60.4586 49.9135 65.7496 43.8115 67.0654 38.2148C67.2766 37.332 67.4041 36.3326 67.4041 35.2998V23.5514" stroke="#007AFF" stroke-width="2.5" stroke-linecap="round" stroke-linejoin="round"/>
<path d="M67.4041 28.3531C68.0945 28.3531 68.6541 28.9127 68.6541 29.6031C68.6541 30.2935 68.0945 30.8531 67.4041 30.8531V28.3531ZM33.3086 30.8531C32.6182 30.8531 32.0586 30.2935 32.0586 29.6031C32.0586 28.9127 32.6182 28.3531 33.3086 28.3531V30.8531ZM66.3973 38.4172C67.0735 38.2781 67.7344 38.7136 67.8734 39.3898C68.0125 40.066 67.577 40.7269 66.9008 40.866L66.3973 38.4172ZM53.7959 39.6416L54.056 38.4189L54.0601 38.4198L53.7959 39.6416ZM50.4813 37.1265L51.6671 36.7313C51.6805 36.7714 51.6918 36.8122 51.7011 36.8536L50.4813 37.1265ZM50.4256 37.1265L51.649 37.3832C51.6478 37.3886 51.6467 37.3939 51.6455 37.3993L50.4256 37.1265ZM47.1111 39.6416L46.8469 38.4198L46.8497 38.4192L47.1111 39.6416ZM33.7785 40.866C33.1023 40.7269 32.6668 40.066 32.8059 39.3898C32.9449 38.7136 33.6058 38.2781 34.282 38.4172L33.7785 40.866ZM67.4041 30.8531L33.3086 30.8531V28.3531L67.4041 28.3531V30.8531ZM66.9008 40.866C62.3896 41.7936 57.7388 41.7731 53.5317 40.8633L54.0601 38.4198C57.9148 39.2534 62.2139 39.2774 66.3973 38.4172L66.9008 40.866ZM53.5358 40.8642C52.8621 40.7209 51.9553 40.3186 51.183 39.8017C50.787 39.5366 50.3841 39.2137 50.0473 38.8378C49.7171 38.4695 49.3926 37.9858 49.2614 37.3995L51.7011 36.8536C51.7059 36.8751 51.7431 36.9842 51.9089 37.1692C52.0681 37.3468 52.2958 37.5382 52.5737 37.7242C53.1492 38.1094 53.7637 38.3568 54.056 38.4189L53.5358 40.8642ZM49.2954 37.5218C49.454 37.9976 49.9274 38.386 50.5238 38.3514C51.0588 38.3204 51.5326 37.9377 51.649 37.3832L49.2022 36.8699C49.3244 36.2874 49.8205 35.888 50.3791 35.8556C50.9991 35.8197 51.4974 36.222 51.6671 36.7313L49.2954 37.5218ZM51.6455 37.3993C51.5142 37.9865 51.1888 38.4704 50.8582 38.8386C50.5209 39.2143 50.1176 39.5371 49.7215 39.802C48.949 40.3186 48.0428 40.7206 47.3726 40.8639L46.8497 38.4192C47.14 38.3571 47.7551 38.1095 48.3318 37.7239C48.6102 37.5377 48.8384 37.3462 48.9979 37.1685C49.1642 36.9832 49.2011 36.8745 49.2057 36.8538L51.6455 37.3993ZM47.3753 40.8633C43.1682 41.7731 38.2898 41.7936 33.7785 40.866L34.282 38.4172C38.4657 39.2774 42.9923 39.2534 46.8469 38.4198L47.3753 40.8633Z" fill="#007AFF"/>
</svg>
