<svg width="101" height="112" viewBox="0 0 101 112" fill="none" xmlns="http://www.w3.org/2000/svg">
<path fill-rule="evenodd" clip-rule="evenodd" d="M91.3913 41.8202V93.8124C96.1381 93.8124 100 97.6675 100 102.406V108.852C100 110.038 99.0363 111 97.8478 111H3.15217C1.96374 111 1 110.038 1 108.852V102.406C1 97.6675 4.86186 93.8124 9.6087 93.8124V41.8202C9.6087 34.1303 11.7884 26.6243 15.9124 20.1133C16.5475 19.1106 17.8765 18.8113 18.8818 19.4458C19.8864 20.08 20.1856 21.4071 19.5504 22.41C15.8625 28.2324 13.913 34.9443 13.913 41.8202V93.8124H87.087V41.8202C87.087 21.6812 70.674 5.29686 50.5 5.29686C43.6135 5.29686 36.8899 7.24291 31.0562 10.9245C30.0515 11.5589 28.7222 11.2592 28.0868 10.2565C27.4517 9.25362 27.7513 7.92654 28.7559 7.29232C35.279 3.17593 42.798 1 50.5 1C61.3797 1 71.6365 5.25776 79.3813 12.9891C87.1261 20.7204 91.3913 30.9594 91.3913 41.8202ZM5.30435 102.406V106.703H95.6956V102.406C95.6956 100.037 93.7647 98.1092 91.3913 98.1092H9.6087C7.23528 98.1092 5.30435 100.037 5.30435 102.406Z" fill="white"/>
<path d="M91.3913 93.8124H90.6413V94.5624H91.3913V93.8124ZM9.6087 93.8124V94.5624H10.3587V93.8124H9.6087ZM15.9124 20.1133L15.2788 19.712L15.2788 19.712L15.9124 20.1133ZM18.8818 19.4458L19.2821 18.8116L19.282 18.8115L18.8818 19.4458ZM19.5504 22.41L20.184 22.8113L20.1841 22.8112L19.5504 22.41ZM13.913 93.8124H13.163V94.5624H13.913V93.8124ZM87.087 93.8124V94.5624H87.837V93.8124H87.087ZM31.0562 10.9245L30.6559 10.2902L30.6557 10.2903L31.0562 10.9245ZM28.0868 10.2565L27.4532 10.6578L27.4533 10.6579L28.0868 10.2565ZM28.7559 7.29232L28.3557 6.65805L28.3556 6.65812L28.7559 7.29232ZM79.3813 12.9891L78.8514 13.5199L79.3813 12.9891ZM5.30435 106.703H4.55435V107.453H5.30435V106.703ZM95.6956 106.703V107.453H96.4456V106.703H95.6956ZM92.1413 93.8124V41.8202H90.6413V93.8124H92.1413ZM100.75 102.406C100.75 97.252 96.5511 93.0624 91.3913 93.0624V94.5624C95.7252 94.5624 99.25 98.0829 99.25 102.406H100.75ZM100.75 108.852V102.406H99.25V108.852H100.75ZM97.8478 111.75C99.4492 111.75 100.75 110.453 100.75 108.852H99.25C99.25 109.622 98.6233 110.25 97.8478 110.25V111.75ZM3.15217 111.75H97.8478V110.25H3.15217V111.75ZM0.25 108.852C0.25 110.453 1.55076 111.75 3.15217 111.75V110.25C2.37673 110.25 1.75 109.622 1.75 108.852H0.25ZM0.25 102.406V108.852H1.75V102.406H0.25ZM9.6087 93.0624C4.44888 93.0624 0.25 97.252 0.25 102.406H1.75C1.75 98.0829 5.27484 94.5624 9.6087 94.5624V93.0624ZM8.8587 41.8202V93.8124H10.3587V41.8202H8.8587ZM15.2788 19.712C11.079 26.3428 8.8587 33.9878 8.8587 41.8202H10.3587C10.3587 34.2727 12.4979 26.9059 16.546 20.5146L15.2788 19.712ZM19.282 18.8115C17.9273 17.9565 16.1356 18.3593 15.2788 19.712L16.546 20.5146C16.9595 19.8619 17.8257 19.6661 18.4815 20.08L19.282 18.8115ZM20.1841 22.8112C21.0412 21.4577 20.6371 19.6669 19.2821 18.8116L18.4814 20.08C19.1357 20.493 19.3299 21.3564 18.9168 22.0087L20.1841 22.8112ZM14.663 41.8202C14.663 35.0868 16.5719 28.514 20.184 22.8113L18.9169 22.0086C15.153 27.9508 13.163 34.8019 13.163 41.8202H14.663ZM14.663 93.8124V41.8202H13.163V93.8124H14.663ZM87.087 93.0624H13.913V94.5624H87.087V93.0624ZM86.337 41.8202V93.8124H87.837V41.8202H86.337ZM50.5 6.04686C70.2611 6.04686 86.337 22.0967 86.337 41.8202H87.837C87.837 21.2658 71.087 4.54686 50.5 4.54686V6.04686ZM31.4565 11.5587C37.1705 7.95264 43.7554 6.04686 50.5 6.04686V4.54686C43.4715 4.54686 36.6092 6.53317 30.6559 10.2902L31.4565 11.5587ZM27.4533 10.6579C28.3101 12.0101 30.1021 12.414 31.4566 11.5586L30.6557 10.2903C30.001 10.7038 29.1342 10.5083 28.7204 9.85508L27.4533 10.6579ZM28.3556 6.65812C27.0009 7.51334 26.5959 9.30407 27.4532 10.6578L28.7205 9.85524C28.3075 9.20317 28.5018 8.33973 29.1563 7.92652L28.3556 6.65812ZM50.5 0.25C42.6561 0.25 34.9983 2.46618 28.3557 6.65805L29.1562 7.92659C35.5596 3.88568 42.9399 1.75 50.5 1.75V0.25ZM79.9112 12.4583C72.0267 4.58752 61.5797 0.25 50.5 0.25V1.75C61.1797 1.75 71.2463 5.928 78.8514 13.5199L79.9112 12.4583ZM92.1413 41.8202C92.1413 30.7586 87.7957 20.3291 79.9112 12.4583L78.8514 13.5199C86.4565 21.1117 90.6413 31.1602 90.6413 41.8202H92.1413ZM6.05435 106.703V102.406H4.55435V106.703H6.05435ZM95.6956 105.953H5.30435V107.453H95.6956V105.953ZM94.9456 102.406V106.703H96.4456V102.406H94.9456ZM91.3913 98.8592C93.3517 98.8592 94.9456 100.452 94.9456 102.406H96.4456C96.4456 99.6213 94.1777 97.3592 91.3913 97.3592V98.8592ZM9.6087 98.8592H91.3913V97.3592H9.6087V98.8592ZM6.05435 102.406C6.05435 100.452 7.64826 98.8592 9.6087 98.8592V97.3592C6.8223 97.3592 4.55435 99.6213 4.55435 102.406H6.05435Z" fill="#00B8F3"/>
<path fill-rule="evenodd" clip-rule="evenodd" d="M31.1289 79.4179V70.8242C31.1289 69.6378 32.0926 68.6758 33.2811 68.6758H67.7159C68.9043 68.6758 69.868 69.6378 69.868 70.8242V79.4179C69.868 80.6043 68.9043 81.5664 67.7159 81.5664H33.2811C32.0926 81.5664 31.1289 80.6043 31.1289 79.4179ZM65.5637 72.9726H35.4333V77.2695H65.5637V72.9726Z" fill="white"/>
<path d="M35.4333 72.9726V72.2226H34.6833V72.9726H35.4333ZM65.5637 72.9726H66.3137V72.2226H65.5637V72.9726ZM35.4333 77.2695H34.6833V78.0195H35.4333V77.2695ZM65.5637 77.2695V78.0195H66.3137V77.2695H65.5637ZM30.3789 70.8242V79.4179H31.8789V70.8242H30.3789ZM33.2811 67.9258C31.6797 67.9258 30.3789 69.2224 30.3789 70.8242H31.8789C31.8789 70.0533 32.5056 69.4258 33.2811 69.4258V67.9258ZM67.7159 67.9258H33.2811V69.4258H67.7159V67.9258ZM70.618 70.8242C70.618 69.2224 69.3173 67.9258 67.7159 67.9258V69.4258C68.4913 69.4258 69.118 70.0533 69.118 70.8242H70.618ZM70.618 79.4179V70.8242H69.118V79.4179H70.618ZM67.7159 82.3164C69.3173 82.3164 70.618 81.0197 70.618 79.4179H69.118C69.118 80.1888 68.4913 80.8164 67.7159 80.8164V82.3164ZM33.2811 82.3164H67.7159V80.8164H33.2811V82.3164ZM30.3789 79.4179C30.3789 81.0197 31.6797 82.3164 33.2811 82.3164V80.8164C32.5056 80.8164 31.8789 80.1888 31.8789 79.4179H30.3789ZM35.4333 73.7226H65.5637V72.2226H35.4333V73.7226ZM36.1833 77.2695V72.9726H34.6833V77.2695H36.1833ZM65.5637 76.5195H35.4333V78.0195H65.5637V76.5195ZM64.8137 72.9726V77.2695H66.3137V72.9726H64.8137Z" fill="#00B8F3"/>
<path d="M23.1054 16.6232C23.6565 16.6232 24.2077 16.4133 24.628 15.9938C25.4684 15.1548 25.4684 13.7944 24.628 12.9552C23.7874 12.1165 22.4251 12.1165 21.5842 12.9552L21.5831 12.9563C20.7427 13.7953 20.7433 15.155 21.5838 15.9942C22.0041 16.4136 22.5546 16.6232 23.1054 16.6232Z" fill="white" stroke="#00B8F3" stroke-width="1.5"/>
<path fill-rule="evenodd" clip-rule="evenodd" d="M36.4399 33.8438C40.555 33.8438 43.9032 37.1861 43.9032 41.2941C43.9032 44.2254 42.198 46.7657 39.726 47.9811L42.4997 52.7768C43.0942 53.8044 42.7414 55.1181 41.7121 55.7115C41.3733 55.9068 41.0031 55.9999 40.6381 55.9999C39.8941 55.9999 39.171 55.6144 38.7722 54.9252L35.1974 48.7442H33.2809V53.851C33.2809 55.0374 32.3172 55.9994 31.1287 55.9994C29.9403 55.9994 28.9766 55.0374 28.9766 53.851V35.9922C28.9766 34.8058 29.9403 33.8438 31.1287 33.8438H36.4399ZM36.4401 38.1406H33.2811V44.4475H36.4401C38.1821 44.4475 39.599 43.033 39.599 41.2941C39.599 39.5551 38.1821 38.1406 36.4401 38.1406Z" fill="white"/>
<path d="M39.726 47.9811L39.3951 47.308L38.6751 47.662L39.0768 48.3566L39.726 47.9811ZM42.4997 52.7768L41.8505 53.1523L41.8505 53.1523L42.4997 52.7768ZM41.7121 55.7115L41.3375 55.0618L41.3375 55.0618L41.7121 55.7115ZM38.7722 54.9252L38.1229 55.3007L38.123 55.3008L38.7722 54.9252ZM35.1974 48.7442L35.8467 48.3687L35.6301 47.9942H35.1974V48.7442ZM33.2809 48.7442V47.9942H32.5309V48.7442H33.2809ZM33.2811 38.1406V37.3906H32.5311V38.1406H33.2811ZM33.2811 44.4475H32.5311V45.1975H33.2811V44.4475ZM44.6532 41.2941C44.6532 36.7706 40.968 33.0938 36.4399 33.0938V34.5938C40.1421 34.5938 43.1532 37.6015 43.1532 41.2941H44.6532ZM40.0569 48.6541C42.7742 47.3182 44.6532 44.5237 44.6532 41.2941H43.1532C43.1532 43.9271 41.6219 46.2132 39.3951 47.308L40.0569 48.6541ZM43.149 52.4013L40.3753 47.6056L39.0768 48.3566L41.8505 53.1523L43.149 52.4013ZM42.0866 56.3613C43.4746 55.5612 43.9514 53.7884 43.149 52.4012L41.8505 53.1523C42.237 53.8203 42.0083 54.6751 41.3375 55.0618L42.0866 56.3613ZM40.6381 56.7499C41.1312 56.7499 41.631 56.624 42.0866 56.3613L41.3375 55.0618C41.1156 55.1897 40.8751 55.2499 40.6381 55.2499V56.7499ZM38.123 55.3008C38.6614 56.2313 39.6376 56.7499 40.6381 56.7499V55.2499C40.1506 55.2499 39.6805 54.9976 39.4213 54.5496L38.123 55.3008ZM34.5482 49.1197L38.1229 55.3007L39.4214 54.5497L35.8467 48.3687L34.5482 49.1197ZM33.2809 49.4942H35.1974V47.9942H33.2809V49.4942ZM34.0309 53.851V48.7442H32.5309V53.851H34.0309ZM31.1287 56.7494C32.7301 56.7494 34.0309 55.4528 34.0309 53.851H32.5309C32.5309 54.6219 31.9042 55.2494 31.1287 55.2494V56.7494ZM28.2266 53.851C28.2266 55.4528 29.5273 56.7494 31.1287 56.7494V55.2494C30.3533 55.2494 29.7266 54.6219 29.7266 53.851H28.2266ZM28.2266 35.9922V53.851H29.7266V35.9922H28.2266ZM31.1287 33.0938C29.5273 33.0938 28.2266 34.3904 28.2266 35.9922H29.7266C29.7266 35.2213 30.3533 34.5938 31.1287 34.5938V33.0938ZM36.4399 33.0938H31.1287V34.5938H36.4399V33.0938ZM33.2811 38.8906H36.4401V37.3906H33.2811V38.8906ZM34.0311 44.4475V38.1406H32.5311V44.4475H34.0311ZM36.4401 43.6975H33.2811V45.1975H36.4401V43.6975ZM38.849 41.2941C38.849 42.6176 37.7691 43.6975 36.4401 43.6975V45.1975C38.595 45.1975 40.349 43.4485 40.349 41.2941H38.849ZM36.4401 38.8906C37.7691 38.8906 38.849 39.9706 38.849 41.2941H40.349C40.349 39.1397 38.595 37.3906 36.4401 37.3906V38.8906Z" fill="#00B8F3"/>
<path d="M50.4998 55.9994C51.6883 55.9994 52.652 55.0374 52.652 53.851V35.9922C52.652 34.8058 51.6883 33.8438 50.4998 33.8438C49.3114 33.8438 48.3477 34.8058 48.3477 35.9922V53.851C48.3477 55.0376 49.3112 55.9994 50.4998 55.9994Z" fill="white" stroke="#00B8F3" stroke-width="1.5"/>
<path fill-rule="evenodd" clip-rule="evenodd" d="M59.2459 33.8438H64.5571C68.6722 33.8438 72.0204 37.1858 72.0204 41.2939C72.0204 45.4019 68.6722 48.7442 64.5571 48.7442H61.3981V53.851C61.3981 55.0374 60.4344 55.9994 59.2459 55.9994C58.0575 55.9994 57.0938 55.0374 57.0938 53.851V35.9922C57.0938 34.8058 58.0575 33.8438 59.2459 33.8438ZM61.3981 44.4475H64.5571C66.299 44.4475 67.716 43.0332 67.716 41.2943C67.716 39.5553 66.299 38.1408 64.5571 38.1408H61.3981V44.4475Z" fill="white"/>
<path d="M61.3981 48.7442V47.9942H60.6481V48.7442H61.3981ZM61.3981 44.4475H60.6481V45.1975H61.3981V44.4475ZM61.3981 38.1408V37.3908H60.6481V38.1408H61.3981ZM64.5571 33.0938H59.2459V34.5938H64.5571V33.0938ZM72.7704 41.2939C72.7704 36.7704 69.0852 33.0938 64.5571 33.0938V34.5938C68.2593 34.5938 71.2704 37.6013 71.2704 41.2939H72.7704ZM64.5571 49.4942C69.0852 49.4942 72.7704 45.8173 72.7704 41.2939H71.2704C71.2704 44.9864 68.2592 47.9942 64.5571 47.9942V49.4942ZM61.3981 49.4942H64.5571V47.9942H61.3981V49.4942ZM62.1481 53.851V48.7442H60.6481V53.851H62.1481ZM59.2459 56.7494C60.8473 56.7494 62.1481 55.4528 62.1481 53.851H60.6481C60.6481 54.6219 60.0214 55.2494 59.2459 55.2494V56.7494ZM56.3438 53.851C56.3438 55.4528 57.6445 56.7494 59.2459 56.7494V55.2494C58.4705 55.2494 57.8438 54.6219 57.8438 53.851H56.3438ZM56.3438 35.9922V53.851H57.8438V35.9922H56.3438ZM59.2459 33.0938C57.6445 33.0938 56.3438 34.3904 56.3438 35.9922H57.8438C57.8438 35.2213 58.4705 34.5938 59.2459 34.5938V33.0938ZM64.5571 43.6975H61.3981V45.1975H64.5571V43.6975ZM66.966 41.2943C66.966 42.6177 65.8861 43.6975 64.5571 43.6975V45.1975C66.7119 45.1975 68.466 43.4487 68.466 41.2943H66.966ZM64.5571 38.8908C65.886 38.8908 66.966 39.9708 66.966 41.2943H68.466C68.466 39.1399 66.712 37.3908 64.5571 37.3908V38.8908ZM61.3981 38.8908H64.5571V37.3908H61.3981V38.8908ZM62.1481 44.4475V38.1408H60.6481V44.4475H62.1481Z" fill="#00B8F3"/>
</svg>
