<svg width="20" height="20" viewBox="0 0 20 20" fill="none" xmlns="http://www.w3.org/2000/svg">
<path fill-rule="evenodd" clip-rule="evenodd" d="M10 0C4.48438 0 0 4.48438 0 10C0 15.5156 4.48438 20 10 20C15.5156 20 20 15.5156 20 10C20 4.48438 15.5156 0 10 0Z" fill="#0ABA6E"/>
<path fill-rule="evenodd" clip-rule="evenodd" d="M5.67678 10.3935C5.57915 10.4912 5.57915 10.6495 5.67678 10.7471L7.32843 12.3987L8.56586 13.6362C8.66349 13.7338 8.82179 13.7338 8.91942 13.6362L10.1569 12.3987L14.6369 7.91866C14.7346 7.82103 14.7346 7.66274 14.6369 7.56511L13.5763 6.50445C13.4786 6.40682 13.3203 6.40682 13.2227 6.50445L8.74264 10.9845L7.09099 9.33288C6.99336 9.23524 6.83507 9.23524 6.73744 9.33288L5.67678 10.3935Z" fill="white"/>
<path d="M5.67678 10.7471L5.76517 10.6587L5.67678 10.7471ZM7.32843 12.3987L7.24004 12.4871L7.32843 12.3987ZM8.74264 10.9845L8.65425 11.0729C8.70307 11.1217 8.78221 11.1217 8.83103 11.0729L8.74264 10.9845ZM5.76517 10.6587C5.71635 10.6099 5.71635 10.5307 5.76517 10.4819L5.58839 10.3051C5.44194 10.4516 5.44194 10.689 5.58839 10.8355L5.76517 10.6587ZM7.41682 12.3104L5.76517 10.6587L5.58839 10.8355L7.24004 12.4871L7.41682 12.3104ZM8.65425 13.5478L7.41682 12.3104L7.24004 12.4871L8.47748 13.7246L8.65425 13.5478ZM8.83103 13.5478C8.78221 13.5966 8.70307 13.5966 8.65425 13.5478L8.47748 13.7246C8.62392 13.871 8.86136 13.871 9.00781 13.7246L8.83103 13.5478ZM10.0685 12.3104L8.83103 13.5478L9.00781 13.7246L10.2452 12.4871L10.0685 12.3104ZM14.5485 7.83027L10.0685 12.3104L10.2452 12.4871L14.7253 8.00705L14.5485 7.83027ZM14.5485 7.6535C14.5974 7.70231 14.5974 7.78146 14.5485 7.83027L14.7253 8.00705C14.8718 7.8606 14.8718 7.62317 14.7253 7.47672L14.5485 7.6535ZM13.4879 6.59284L14.5485 7.6535L14.7253 7.47672L13.6647 6.41606L13.4879 6.59284ZM13.3111 6.59284C13.3599 6.54402 13.4391 6.54402 13.4879 6.59284L13.6647 6.41606C13.5182 6.26961 13.2808 6.26961 13.1343 6.41606L13.3111 6.59284ZM8.83103 11.0729L13.3111 6.59284L13.1343 6.41606L8.65425 10.8961L8.83103 11.0729ZM7.0026 9.42126L8.65425 11.0729L8.83103 10.8961L7.17938 9.24449L7.0026 9.42126ZM6.82583 9.42126C6.87464 9.37245 6.95379 9.37245 7.0026 9.42126L7.17938 9.24449C7.03293 9.09804 6.7955 9.09804 6.64905 9.24449L6.82583 9.42126ZM5.76517 10.4819L6.82583 9.42126L6.64905 9.24449L5.58839 10.3051L5.76517 10.4819Z" fill="white"/>
</svg>
