<svg width="102" height="101" viewBox="0 0 102 101" fill="none" xmlns="http://www.w3.org/2000/svg">
<path fill-rule="evenodd" clip-rule="evenodd" d="M70.9987 40.28C71.5304 40.77 72.002 41.335 72.3837 41.9833L72.382 41.985L99.9632 88.84C101.328 91.1583 101.347 93.935 100.012 96.2683C98.6766 98.605 96.2699 100 93.5783 100H38.416C35.7244 100 33.3194 98.605 31.9828 96.2683C31.7494 95.8583 31.5728 95.4317 31.4211 95H7.66655C3.98995 95 1 92.01 1 88.3333V15C1 11.3233 3.98995 8.33333 7.66655 8.33333H23.1296C23.7079 7.34167 24.7712 6.66667 25.9995 6.66667H27.8345C28.6078 2.86833 31.9744 0 35.9994 0C40.0243 0 43.3909 2.86833 44.1642 6.665H45.9992C47.2275 6.665 48.2908 7.34 48.8691 8.33167H64.3322C68.0088 8.33167 70.9987 11.3217 70.9987 14.9983V40.28ZM67.6655 38.5317V15C67.6655 13.1617 66.1705 11.6667 64.3322 11.6667H49.3325V15H60.9989C62.8372 15 64.3322 16.495 64.3322 18.3333V38.5317C64.8722 38.4083 65.4272 38.3333 65.9988 38.3333C66.5705 38.3333 67.1255 38.41 67.6655 38.5317ZM25.9995 10H29.3328C30.2545 10 30.9995 9.255 30.9995 8.33333C30.9995 5.57667 33.2427 3.33333 35.9994 3.33333C38.756 3.33333 40.9993 5.57667 40.9993 8.33333C40.9993 9.255 41.7443 10 42.6659 10L45.9992 9.99667V16.6667H25.9995V10ZM48.8691 18.3333C48.2908 19.325 47.2275 20 45.9992 20H25.9995C24.7712 20 23.7079 19.325 23.1296 18.3333H10.9998V85.0017H34.2927L59.6139 41.985C59.9956 41.3367 60.4673 40.7717 60.9989 40.2817V18.3333H48.8691ZM4.33327 88.3333V15C4.33327 13.1617 5.82825 11.6667 7.66655 11.6667H22.6663V15H10.9998C9.16152 15 7.66655 16.495 7.66655 18.3333V85C7.66655 86.8383 9.16152 88.3333 10.9998 88.3333H32.3311L32.0328 88.84C31.5078 89.7317 31.1861 90.6917 31.0595 91.6667H7.66655C5.82825 91.6667 4.33327 90.1717 4.33327 88.3333ZM93.58 96.6667C95.0616 96.6667 96.3849 95.9 97.1199 94.615C97.8516 93.3333 97.8416 91.805 97.0932 90.53L69.5121 43.675C68.7721 42.4183 67.4588 41.6683 65.9988 41.6683C64.5388 41.6683 63.2255 42.4183 62.4855 43.675L34.9044 90.53C34.1544 91.8033 34.1461 93.3317 34.8777 94.615C35.6127 95.9 36.936 96.6667 38.4177 96.6667H93.58Z" fill="#007AFF"/>
<path d="M72.3837 41.9833L72.7377 42.3365L73.0107 42.0628L72.8146 41.7297L72.3837 41.9833ZM70.9987 40.28H70.4987V40.4991L70.6599 40.6477L70.9987 40.28ZM72.382 41.985L72.0281 41.6319L71.755 41.9055L71.9511 42.2386L72.382 41.985ZM99.9632 88.84L99.5323 89.0936L99.5323 89.0937L99.9632 88.84ZM100.012 96.2683L99.5775 96.02L99.5774 96.0203L100.012 96.2683ZM31.9828 96.2683L31.5482 96.5156L31.5488 96.5166L31.9828 96.2683ZM31.4211 95L31.8928 94.8343L31.7754 94.5H31.4211V95ZM23.1296 8.33333V8.83333H23.4168L23.5615 8.58522L23.1296 8.33333ZM27.8345 6.66667V7.16667H28.243L28.3245 6.76642L27.8345 6.66667ZM44.1642 6.665L43.6743 6.76479L43.7558 7.165H44.1642V6.665ZM48.8691 8.33167L48.4372 8.58355L48.5819 8.83167H48.8691V8.33167ZM67.6655 38.5317L67.5555 39.0194L68.1655 39.1569V38.5317H67.6655ZM49.3325 11.6667V11.1667H48.8325V11.6667H49.3325ZM49.3325 15H48.8325V15.5H49.3325V15ZM64.3322 38.5317H63.8322V39.1587L64.4435 39.0191L64.3322 38.5317ZM25.9995 10V9.5H25.4995V10H25.9995ZM42.6659 10V10.5H42.6664L42.6659 10ZM45.9992 9.99667H46.4992V9.49617L45.9987 9.49667L45.9992 9.99667ZM45.9992 16.6667V17.1667H46.4992V16.6667H45.9992ZM25.9995 16.6667H25.4995V17.1667H25.9995V16.6667ZM48.8691 18.3333V17.8333H48.5819L48.4372 18.0814L48.8691 18.3333ZM23.1296 18.3333L23.5615 18.0814L23.4168 17.8333H23.1296V18.3333ZM10.9998 18.3333V17.8333H10.4998V18.3333H10.9998ZM10.9998 85.0017H10.4998V85.5017H10.9998V85.0017ZM34.2927 85.0017V85.5017H34.5786L34.7236 85.2553L34.2927 85.0017ZM59.6139 41.985L59.183 41.7313L59.183 41.7314L59.6139 41.985ZM60.9989 40.2817L61.3378 40.6493L61.4989 40.5008V40.2817H60.9989ZM60.9989 18.3333H61.4989V17.8333H60.9989V18.3333ZM22.6663 11.6667H23.1663V11.1667H22.6663V11.6667ZM22.6663 15V15.5H23.1663V15H22.6663ZM32.3311 88.3333L32.762 88.587L33.2057 87.8333H32.3311V88.3333ZM32.0328 88.84L31.6019 88.5863L31.6019 88.5863L32.0328 88.84ZM31.0595 91.6667V92.1667H31.4987L31.5553 91.7311L31.0595 91.6667ZM97.1199 94.615L97.5539 94.8633L97.5541 94.8629L97.1199 94.615ZM97.0932 90.53L97.5245 90.2769L97.5241 90.2764L97.0932 90.53ZM69.5121 43.675L69.943 43.4214L69.9429 43.4213L69.5121 43.675ZM62.4855 43.675L62.0547 43.4213L62.0547 43.4214L62.4855 43.675ZM34.9044 90.53L35.3352 90.7838L35.3353 90.7836L34.9044 90.53ZM34.8777 94.615L34.4433 94.8626L34.4437 94.8633L34.8777 94.615ZM72.8146 41.7297C72.4057 41.0352 71.9019 40.4324 71.3376 39.9123L70.6599 40.6477C71.1589 41.1076 71.5983 41.6348 71.9528 42.237L72.8146 41.7297ZM72.736 42.3382L72.7377 42.3365L72.0297 41.6302L72.0281 41.6319L72.736 42.3382ZM100.394 88.5864L72.8129 41.7314L71.9511 42.2386L99.5323 89.0936L100.394 88.5864ZM100.446 96.5166C101.87 94.0273 101.85 91.0591 100.394 88.5863L99.5323 89.0937C100.806 91.2576 100.823 93.8427 99.5775 96.02L100.446 96.5166ZM93.5783 100.5C96.4491 100.5 99.0216 99.0091 100.446 96.5164L99.5774 96.0203C98.3316 98.201 96.0907 99.5 93.5783 99.5V100.5ZM38.416 100.5H93.5783V99.5H38.416V100.5ZM31.5488 96.5166C32.9744 99.0089 35.545 100.5 38.416 100.5V99.5C35.9037 99.5 33.6644 98.2011 32.4168 96.0201L31.5488 96.5166ZM30.9494 95.1657C31.1069 95.614 31.295 96.0707 31.5482 96.5156L32.4173 96.021C32.2039 95.6459 32.0387 95.2493 31.8928 94.8343L30.9494 95.1657ZM7.66655 95.5H31.4211V94.5H7.66655V95.5ZM0.5 88.3333C0.5 92.2861 3.71379 95.5 7.66655 95.5V94.5C4.2661 94.5 1.5 91.7339 1.5 88.3333H0.5ZM0.5 15V88.3333H1.5V15H0.5ZM7.66655 7.83333C3.71379 7.83333 0.5 11.0472 0.5 15H1.5C1.5 11.5995 4.2661 8.83333 7.66655 8.83333V7.83333ZM23.1296 7.83333H7.66655V8.83333H23.1296V7.83333ZM25.9995 6.16667C24.5816 6.16667 23.3595 6.94663 22.6977 8.08145L23.5615 8.58522C24.0564 7.7367 24.9609 7.16667 25.9995 7.16667V6.16667ZM27.8345 6.16667H25.9995V7.16667H27.8345V6.16667ZM35.9994 -0.5C31.7317 -0.5 28.1643 2.5407 27.3446 6.56692L28.3245 6.76642C29.0514 3.19597 32.2172 0.5 35.9994 0.5V-0.5ZM44.6542 6.56521C43.8344 2.54064 40.267 -0.5 35.9994 -0.5V0.5C39.7816 0.5 42.9474 3.19603 43.6743 6.76479L44.6542 6.56521ZM45.9992 6.165H44.1642V7.165H45.9992V6.165ZM49.301 8.07978C48.6392 6.94496 47.4172 6.165 45.9992 6.165V7.165C47.0378 7.165 47.9424 7.73504 48.4372 8.58355L49.301 8.07978ZM64.3322 7.83167H48.8691V8.83167H64.3322V7.83167ZM71.4987 14.9983C71.4987 11.0455 68.2849 7.83167 64.3322 7.83167V8.83167C67.7326 8.83167 70.4987 11.5978 70.4987 14.9983H71.4987ZM71.4987 40.28V14.9983H70.4987V40.28H71.4987ZM67.1655 15V38.5317H68.1655V15H67.1655ZM64.3322 12.1667C65.8943 12.1667 67.1655 13.4378 67.1655 15H68.1655C68.1655 12.8855 66.4466 11.1667 64.3322 11.1667V12.1667ZM49.3325 12.1667H64.3322V11.1667H49.3325V12.1667ZM49.8325 15V11.6667H48.8325V15H49.8325ZM60.9989 14.5H49.3325V15.5H60.9989V14.5ZM64.8322 18.3333C64.8322 16.2189 63.1134 14.5 60.9989 14.5V15.5C62.5611 15.5 63.8322 16.7711 63.8322 18.3333H64.8322ZM64.8322 38.5317V18.3333H63.8322V38.5317H64.8322ZM65.9988 37.8333C65.3832 37.8333 64.7904 37.9141 64.2209 38.0442L64.4435 39.0191C64.9539 38.9025 65.4711 38.8333 65.9988 38.8333V37.8333ZM67.7754 38.0439C67.2078 37.916 66.6153 37.8333 65.9988 37.8333V38.8333C66.5257 38.8333 67.0431 38.904 67.5555 39.0194L67.7754 38.0439ZM29.3328 9.5H25.9995V10.5H29.3328V9.5ZM30.4995 8.33333C30.4995 8.97887 29.9783 9.5 29.3328 9.5V10.5C30.5306 10.5 31.4995 9.53113 31.4995 8.33333H30.4995ZM35.9994 2.83333C32.9666 2.83333 30.4995 5.30053 30.4995 8.33333H31.4995C31.4995 5.8528 33.5189 3.83333 35.9994 3.83333V2.83333ZM41.4993 8.33333C41.4993 5.30053 39.0321 2.83333 35.9994 2.83333V3.83333C38.4798 3.83333 40.4993 5.8528 40.4993 8.33333H41.4993ZM42.6659 9.5C42.0204 9.5 41.4993 8.97887 41.4993 8.33333H40.4993C40.4993 9.53113 41.4681 10.5 42.6659 10.5V9.5ZM45.9987 9.49667L42.6654 9.5L42.6664 10.5L45.9997 10.4967L45.9987 9.49667ZM46.4992 16.6667V9.99667H45.4992V16.6667H46.4992ZM25.9995 17.1667H45.9992V16.1667H25.9995V17.1667ZM25.4995 10V16.6667H26.4995V10H25.4995ZM45.9992 20.5C47.4172 20.5 48.6392 19.72 49.301 18.5852L48.4372 18.0814C47.9424 18.93 47.0378 19.5 45.9992 19.5V20.5ZM25.9995 20.5H45.9992V19.5H25.9995V20.5ZM22.6977 18.5852C23.3595 19.72 24.5816 20.5 25.9995 20.5V19.5C24.9609 19.5 24.0564 18.93 23.5615 18.0814L22.6977 18.5852ZM10.9998 18.8333H23.1296V17.8333H10.9998V18.8333ZM11.4998 85.0017V18.3333H10.4998V85.0017H11.4998ZM34.2927 84.5017H10.9998V85.5017H34.2927V84.5017ZM59.183 41.7314L33.8618 84.748L34.7236 85.2553L60.0448 42.2386L59.183 41.7314ZM60.66 39.914C60.0957 40.4341 59.5919 41.0368 59.183 41.7313L60.0448 42.2387C60.3993 41.6365 60.8388 41.1092 61.3378 40.6493L60.66 39.914ZM60.4989 18.3333V40.2817H61.4989V18.3333H60.4989ZM48.8691 18.8333H60.9989V17.8333H48.8691V18.8333ZM3.83327 15V88.3333H4.83327V15H3.83327ZM7.66655 11.1667C5.55209 11.1667 3.83327 12.8855 3.83327 15H4.83327C4.83327 13.4378 6.1044 12.1667 7.66655 12.1667V11.1667ZM22.6663 11.1667H7.66655V12.1667H22.6663V11.1667ZM23.1663 15V11.6667H22.1663V15H23.1663ZM10.9998 15.5H22.6663V14.5H10.9998V15.5ZM8.16655 18.3333C8.16655 16.7711 9.43767 15.5 10.9998 15.5V14.5C8.88537 14.5 7.16655 16.2189 7.16655 18.3333H8.16655ZM8.16655 85V18.3333H7.16655V85H8.16655ZM10.9998 87.8333C9.43767 87.8333 8.16655 86.5622 8.16655 85H7.16655C7.16655 87.1145 8.88537 88.8333 10.9998 88.8333V87.8333ZM32.3311 87.8333H10.9998V88.8333H32.3311V87.8333ZM32.4636 89.0937L32.762 88.587L31.9002 88.0796L31.6019 88.5863L32.4636 89.0937ZM31.5553 91.7311C31.6734 90.8221 31.9732 89.9266 32.4636 89.0937L31.6019 88.5863C31.0423 89.5367 30.6989 90.5612 30.5636 91.6022L31.5553 91.7311ZM7.66655 92.1667H31.0595V91.1667H7.66655V92.1667ZM3.83327 88.3333C3.83327 90.4478 5.55209 92.1667 7.66655 92.1667V91.1667C6.1044 91.1667 4.83327 89.8955 4.83327 88.3333H3.83327ZM96.6859 94.3668C96.0401 95.4958 94.8826 96.1667 93.58 96.1667V97.1667C95.2407 97.1667 96.7297 96.3042 97.5539 94.8633L96.6859 94.3668ZM96.662 90.7831C97.3199 91.904 97.3284 93.2413 96.6857 94.3671L97.5541 94.8629C98.3748 93.4254 98.3632 91.706 97.5245 90.2769L96.662 90.7831ZM69.0812 43.9286L96.6624 90.7836L97.5241 90.2764L69.943 43.4214L69.0812 43.9286ZM65.9988 42.1683C67.282 42.1683 68.4313 42.8249 69.0812 43.9287L69.9429 43.4213C69.1129 42.0118 67.6356 41.1683 65.9988 41.1683V42.1683ZM62.9164 43.9287C63.5664 42.8249 64.7157 42.1683 65.9988 42.1683V41.1683C64.362 41.1683 62.8847 42.0118 62.0547 43.4213L62.9164 43.9287ZM35.3353 90.7836L62.9164 43.9286L62.0547 43.4214L34.4735 90.2764L35.3353 90.7836ZM35.3121 94.3674C34.6689 93.2392 34.6765 91.9021 35.3352 90.7838L34.4736 90.2762C33.6323 91.7046 33.6233 93.4242 34.4433 94.8626L35.3121 94.3674ZM38.4177 96.1667C37.1151 96.1667 35.9575 95.4958 35.3117 94.3668L34.4437 94.8633C35.2679 96.3042 36.757 97.1667 38.4177 97.1667V96.1667ZM93.58 96.1667H38.4177V97.1667H93.58V96.1667Z" fill="white"/>
<path d="M72.3837 41.9833L72.7377 42.3365L73.0107 42.0628L72.8146 41.7297L72.3837 41.9833ZM70.9987 40.28H70.4987V40.4991L70.6599 40.6477L70.9987 40.28ZM72.382 41.985L72.0281 41.6319L71.755 41.9055L71.9511 42.2386L72.382 41.985ZM99.9632 88.84L99.5323 89.0936L99.5323 89.0937L99.9632 88.84ZM100.012 96.2683L99.5775 96.02L99.5774 96.0203L100.012 96.2683ZM31.9828 96.2683L31.5482 96.5156L31.5488 96.5166L31.9828 96.2683ZM31.4211 95L31.8928 94.8343L31.7754 94.5H31.4211V95ZM23.1296 8.33333V8.83333H23.4168L23.5615 8.58522L23.1296 8.33333ZM27.8345 6.66667V7.16667H28.243L28.3245 6.76642L27.8345 6.66667ZM44.1642 6.665L43.6743 6.76479L43.7558 7.165H44.1642V6.665ZM48.8691 8.33167L48.4372 8.58355L48.5819 8.83167H48.8691V8.33167ZM67.6655 38.5317L67.5555 39.0194L68.1655 39.1569V38.5317H67.6655ZM49.3325 11.6667V11.1667H48.8325V11.6667H49.3325ZM49.3325 15H48.8325V15.5H49.3325V15ZM64.3322 38.5317H63.8322V39.1587L64.4435 39.0191L64.3322 38.5317ZM25.9995 10V9.5H25.4995V10H25.9995ZM42.6659 10V10.5H42.6664L42.6659 10ZM45.9992 9.99667H46.4992V9.49617L45.9987 9.49667L45.9992 9.99667ZM45.9992 16.6667V17.1667H46.4992V16.6667H45.9992ZM25.9995 16.6667H25.4995V17.1667H25.9995V16.6667ZM48.8691 18.3333V17.8333H48.5819L48.4372 18.0814L48.8691 18.3333ZM23.1296 18.3333L23.5615 18.0814L23.4168 17.8333H23.1296V18.3333ZM10.9998 18.3333V17.8333H10.4998V18.3333H10.9998ZM10.9998 85.0017H10.4998V85.5017H10.9998V85.0017ZM34.2927 85.0017V85.5017H34.5786L34.7236 85.2553L34.2927 85.0017ZM59.6139 41.985L59.183 41.7313L59.183 41.7314L59.6139 41.985ZM60.9989 40.2817L61.3378 40.6493L61.4989 40.5008V40.2817H60.9989ZM60.9989 18.3333H61.4989V17.8333H60.9989V18.3333ZM22.6663 11.6667H23.1663V11.1667H22.6663V11.6667ZM22.6663 15V15.5H23.1663V15H22.6663ZM32.3311 88.3333L32.762 88.587L33.2057 87.8333H32.3311V88.3333ZM32.0328 88.84L31.6019 88.5863L31.6019 88.5863L32.0328 88.84ZM31.0595 91.6667V92.1667H31.4987L31.5553 91.7311L31.0595 91.6667ZM97.1199 94.615L97.5539 94.8633L97.5541 94.8629L97.1199 94.615ZM97.0932 90.53L97.5245 90.2769L97.5241 90.2764L97.0932 90.53ZM69.5121 43.675L69.943 43.4214L69.9429 43.4213L69.5121 43.675ZM62.4855 43.675L62.0547 43.4213L62.0547 43.4214L62.4855 43.675ZM34.9044 90.53L35.3352 90.7838L35.3353 90.7836L34.9044 90.53ZM34.8777 94.615L34.4433 94.8626L34.4437 94.8633L34.8777 94.615ZM72.8146 41.7297C72.4057 41.0352 71.9019 40.4324 71.3376 39.9123L70.6599 40.6477C71.1589 41.1076 71.5983 41.6348 71.9528 42.237L72.8146 41.7297ZM72.736 42.3382L72.7377 42.3365L72.0297 41.6302L72.0281 41.6319L72.736 42.3382ZM100.394 88.5864L72.8129 41.7314L71.9511 42.2386L99.5323 89.0936L100.394 88.5864ZM100.446 96.5166C101.87 94.0273 101.85 91.0591 100.394 88.5863L99.5323 89.0937C100.806 91.2576 100.823 93.8427 99.5775 96.02L100.446 96.5166ZM93.5783 100.5C96.4491 100.5 99.0216 99.0091 100.446 96.5164L99.5774 96.0203C98.3316 98.201 96.0907 99.5 93.5783 99.5V100.5ZM38.416 100.5H93.5783V99.5H38.416V100.5ZM31.5488 96.5166C32.9744 99.0089 35.545 100.5 38.416 100.5V99.5C35.9037 99.5 33.6644 98.2011 32.4168 96.0201L31.5488 96.5166ZM30.9494 95.1657C31.1069 95.614 31.295 96.0707 31.5482 96.5156L32.4173 96.021C32.2039 95.6459 32.0387 95.2493 31.8928 94.8343L30.9494 95.1657ZM7.66655 95.5H31.4211V94.5H7.66655V95.5ZM0.5 88.3333C0.5 92.2861 3.71379 95.5 7.66655 95.5V94.5C4.2661 94.5 1.5 91.7339 1.5 88.3333H0.5ZM0.5 15V88.3333H1.5V15H0.5ZM7.66655 7.83333C3.71379 7.83333 0.5 11.0472 0.5 15H1.5C1.5 11.5995 4.2661 8.83333 7.66655 8.83333V7.83333ZM23.1296 7.83333H7.66655V8.83333H23.1296V7.83333ZM25.9995 6.16667C24.5816 6.16667 23.3595 6.94663 22.6977 8.08145L23.5615 8.58522C24.0564 7.7367 24.9609 7.16667 25.9995 7.16667V6.16667ZM27.8345 6.16667H25.9995V7.16667H27.8345V6.16667ZM35.9994 -0.5C31.7317 -0.5 28.1643 2.5407 27.3446 6.56692L28.3245 6.76642C29.0514 3.19597 32.2172 0.5 35.9994 0.5V-0.5ZM44.6542 6.56521C43.8344 2.54064 40.267 -0.5 35.9994 -0.5V0.5C39.7816 0.5 42.9474 3.19603 43.6743 6.76479L44.6542 6.56521ZM45.9992 6.165H44.1642V7.165H45.9992V6.165ZM49.301 8.07978C48.6392 6.94496 47.4172 6.165 45.9992 6.165V7.165C47.0378 7.165 47.9424 7.73504 48.4372 8.58355L49.301 8.07978ZM64.3322 7.83167H48.8691V8.83167H64.3322V7.83167ZM71.4987 14.9983C71.4987 11.0455 68.2849 7.83167 64.3322 7.83167V8.83167C67.7326 8.83167 70.4987 11.5978 70.4987 14.9983H71.4987ZM71.4987 40.28V14.9983H70.4987V40.28H71.4987ZM67.1655 15V38.5317H68.1655V15H67.1655ZM64.3322 12.1667C65.8943 12.1667 67.1655 13.4378 67.1655 15H68.1655C68.1655 12.8855 66.4466 11.1667 64.3322 11.1667V12.1667ZM49.3325 12.1667H64.3322V11.1667H49.3325V12.1667ZM49.8325 15V11.6667H48.8325V15H49.8325ZM60.9989 14.5H49.3325V15.5H60.9989V14.5ZM64.8322 18.3333C64.8322 16.2189 63.1134 14.5 60.9989 14.5V15.5C62.5611 15.5 63.8322 16.7711 63.8322 18.3333H64.8322ZM64.8322 38.5317V18.3333H63.8322V38.5317H64.8322ZM65.9988 37.8333C65.3832 37.8333 64.7904 37.9141 64.2209 38.0442L64.4435 39.0191C64.9539 38.9025 65.4711 38.8333 65.9988 38.8333V37.8333ZM67.7754 38.0439C67.2078 37.916 66.6153 37.8333 65.9988 37.8333V38.8333C66.5257 38.8333 67.0431 38.904 67.5555 39.0194L67.7754 38.0439ZM29.3328 9.5H25.9995V10.5H29.3328V9.5ZM30.4995 8.33333C30.4995 8.97887 29.9783 9.5 29.3328 9.5V10.5C30.5306 10.5 31.4995 9.53113 31.4995 8.33333H30.4995ZM35.9994 2.83333C32.9666 2.83333 30.4995 5.30053 30.4995 8.33333H31.4995C31.4995 5.8528 33.5189 3.83333 35.9994 3.83333V2.83333ZM41.4993 8.33333C41.4993 5.30053 39.0321 2.83333 35.9994 2.83333V3.83333C38.4798 3.83333 40.4993 5.8528 40.4993 8.33333H41.4993ZM42.6659 9.5C42.0204 9.5 41.4993 8.97887 41.4993 8.33333H40.4993C40.4993 9.53113 41.4681 10.5 42.6659 10.5V9.5ZM45.9987 9.49667L42.6654 9.5L42.6664 10.5L45.9997 10.4967L45.9987 9.49667ZM46.4992 16.6667V9.99667H45.4992V16.6667H46.4992ZM25.9995 17.1667H45.9992V16.1667H25.9995V17.1667ZM25.4995 10V16.6667H26.4995V10H25.4995ZM45.9992 20.5C47.4172 20.5 48.6392 19.72 49.301 18.5852L48.4372 18.0814C47.9424 18.93 47.0378 19.5 45.9992 19.5V20.5ZM25.9995 20.5H45.9992V19.5H25.9995V20.5ZM22.6977 18.5852C23.3595 19.72 24.5816 20.5 25.9995 20.5V19.5C24.9609 19.5 24.0564 18.93 23.5615 18.0814L22.6977 18.5852ZM10.9998 18.8333H23.1296V17.8333H10.9998V18.8333ZM11.4998 85.0017V18.3333H10.4998V85.0017H11.4998ZM34.2927 84.5017H10.9998V85.5017H34.2927V84.5017ZM59.183 41.7314L33.8618 84.748L34.7236 85.2553L60.0448 42.2386L59.183 41.7314ZM60.66 39.914C60.0957 40.4341 59.5919 41.0368 59.183 41.7313L60.0448 42.2387C60.3993 41.6365 60.8388 41.1092 61.3378 40.6493L60.66 39.914ZM60.4989 18.3333V40.2817H61.4989V18.3333H60.4989ZM48.8691 18.8333H60.9989V17.8333H48.8691V18.8333ZM3.83327 15V88.3333H4.83327V15H3.83327ZM7.66655 11.1667C5.55209 11.1667 3.83327 12.8855 3.83327 15H4.83327C4.83327 13.4378 6.1044 12.1667 7.66655 12.1667V11.1667ZM22.6663 11.1667H7.66655V12.1667H22.6663V11.1667ZM23.1663 15V11.6667H22.1663V15H23.1663ZM10.9998 15.5H22.6663V14.5H10.9998V15.5ZM8.16655 18.3333C8.16655 16.7711 9.43767 15.5 10.9998 15.5V14.5C8.88537 14.5 7.16655 16.2189 7.16655 18.3333H8.16655ZM8.16655 85V18.3333H7.16655V85H8.16655ZM10.9998 87.8333C9.43767 87.8333 8.16655 86.5622 8.16655 85H7.16655C7.16655 87.1145 8.88537 88.8333 10.9998 88.8333V87.8333ZM32.3311 87.8333H10.9998V88.8333H32.3311V87.8333ZM32.4636 89.0937L32.762 88.587L31.9002 88.0796L31.6019 88.5863L32.4636 89.0937ZM31.5553 91.7311C31.6734 90.8221 31.9732 89.9266 32.4636 89.0937L31.6019 88.5863C31.0423 89.5367 30.6989 90.5612 30.5636 91.6022L31.5553 91.7311ZM7.66655 92.1667H31.0595V91.1667H7.66655V92.1667ZM3.83327 88.3333C3.83327 90.4478 5.55209 92.1667 7.66655 92.1667V91.1667C6.1044 91.1667 4.83327 89.8955 4.83327 88.3333H3.83327ZM96.6859 94.3668C96.0401 95.4958 94.8826 96.1667 93.58 96.1667V97.1667C95.2407 97.1667 96.7297 96.3042 97.5539 94.8633L96.6859 94.3668ZM96.662 90.7831C97.3199 91.904 97.3284 93.2413 96.6857 94.3671L97.5541 94.8629C98.3748 93.4254 98.3632 91.706 97.5245 90.2769L96.662 90.7831ZM69.0812 43.9286L96.6624 90.7836L97.5241 90.2764L69.943 43.4214L69.0812 43.9286ZM65.9988 42.1683C67.282 42.1683 68.4313 42.8249 69.0812 43.9287L69.9429 43.4213C69.1129 42.0118 67.6356 41.1683 65.9988 41.1683V42.1683ZM62.9164 43.9287C63.5664 42.8249 64.7157 42.1683 65.9988 42.1683V41.1683C64.362 41.1683 62.8847 42.0118 62.0547 43.4213L62.9164 43.9287ZM35.3353 90.7836L62.9164 43.9286L62.0547 43.4214L34.4735 90.2764L35.3353 90.7836ZM35.3121 94.3674C34.6689 93.2392 34.6765 91.9021 35.3352 90.7838L34.4736 90.2762C33.6323 91.7046 33.6233 93.4242 34.4433 94.8626L35.3121 94.3674ZM38.4177 96.1667C37.1151 96.1667 35.9575 95.4958 35.3117 94.3668L34.4437 94.8633C35.2679 96.3042 36.757 97.1667 38.4177 97.1667V96.1667ZM93.58 96.1667H38.4177V97.1667H93.58V96.1667Z" fill="#007AFF" fill-opacity="0.04"/>
<path fill-rule="evenodd" clip-rule="evenodd" d="M61 86.667C61 83.9103 63.2433 81.667 65.9999 81.667C68.7565 81.667 70.9998 83.9103 70.9998 86.667C70.9998 89.4237 68.7565 91.667 65.9999 91.667C63.2433 91.667 61 89.4237 61 86.667ZM64.3333 86.667C64.3333 87.587 65.0799 88.3337 65.9999 88.3337C66.9199 88.3337 67.6665 87.587 67.6665 86.667C67.6665 85.747 66.9199 85.0003 65.9999 85.0003C65.0799 85.0003 64.3333 85.747 64.3333 86.667Z" fill="#007AFF"/>
<path d="M65.9999 81.167C62.9671 81.167 60.5 83.6342 60.5 86.667H61.5C61.5 84.1865 63.5194 82.167 65.9999 82.167V81.167ZM71.4998 86.667C71.4998 83.6342 69.0327 81.167 65.9999 81.167V82.167C68.4804 82.167 70.4998 84.1865 70.4998 86.667H71.4998ZM65.9999 92.167C69.0327 92.167 71.4998 89.6998 71.4998 86.667H70.4998C70.4998 89.1475 68.4804 91.167 65.9999 91.167V92.167ZM60.5 86.667C60.5 89.6998 62.9671 92.167 65.9999 92.167V91.167C63.5194 91.167 61.5 89.1475 61.5 86.667H60.5ZM65.9999 87.8337C65.3561 87.8337 64.8333 87.3109 64.8333 86.667H63.8333C63.8333 87.8631 64.8038 88.8337 65.9999 88.8337V87.8337ZM67.1665 86.667C67.1665 87.3109 66.6437 87.8337 65.9999 87.8337V88.8337C67.196 88.8337 68.1665 87.8631 68.1665 86.667H67.1665ZM65.9999 85.5003C66.6437 85.5003 67.1665 86.0231 67.1665 86.667H68.1665C68.1665 85.4709 67.196 84.5003 65.9999 84.5003V85.5003ZM64.8333 86.667C64.8333 86.0231 65.3561 85.5003 65.9999 85.5003V84.5003C64.8038 84.5003 63.8333 85.4709 63.8333 86.667H64.8333Z" fill="white"/>
<path d="M65.9999 81.167C62.9671 81.167 60.5 83.6342 60.5 86.667H61.5C61.5 84.1865 63.5194 82.167 65.9999 82.167V81.167ZM71.4998 86.667C71.4998 83.6342 69.0327 81.167 65.9999 81.167V82.167C68.4804 82.167 70.4998 84.1865 70.4998 86.667H71.4998ZM65.9999 92.167C69.0327 92.167 71.4998 89.6998 71.4998 86.667H70.4998C70.4998 89.1475 68.4804 91.167 65.9999 91.167V92.167ZM60.5 86.667C60.5 89.6998 62.9671 92.167 65.9999 92.167V91.167C63.5194 91.167 61.5 89.1475 61.5 86.667H60.5ZM65.9999 87.8337C65.3561 87.8337 64.8333 87.3109 64.8333 86.667H63.8333C63.8333 87.8631 64.8038 88.8337 65.9999 88.8337V87.8337ZM67.1665 86.667C67.1665 87.3109 66.6437 87.8337 65.9999 87.8337V88.8337C67.196 88.8337 68.1665 87.8631 68.1665 86.667H67.1665ZM65.9999 85.5003C66.6437 85.5003 67.1665 86.0231 67.1665 86.667H68.1665C68.1665 85.4709 67.196 84.5003 65.9999 84.5003V85.5003ZM64.8333 86.667C64.8333 86.0231 65.3561 85.5003 65.9999 85.5003V84.5003C64.8038 84.5003 63.8333 85.4709 63.8333 86.667H64.8333Z" fill="#007AFF" fill-opacity="0.04"/>
<path d="M35.9987 6.66671C35.077 6.66671 34.332 7.41171 34.332 8.33337V8.38504C34.332 9.30671 35.077 10.025 35.9987 10.025C36.9203 10.025 37.6653 9.25337 37.6653 8.33171C37.6653 7.41004 36.9203 6.66504 35.9987 6.66504V6.66671Z" fill="#007AFF"/>
<path d="M35.9987 6.66671C35.077 6.66671 34.332 7.41171 34.332 8.33337V8.38504C34.332 9.30671 35.077 10.025 35.9987 10.025C36.9203 10.025 37.6653 9.25337 37.6653 8.33171C37.6653 7.41004 36.9203 6.66504 35.9987 6.66504V6.66671Z" stroke="white"/>
<path d="M35.9987 6.66671C35.077 6.66671 34.332 7.41171 34.332 8.33337V8.38504C34.332 9.30671 35.077 10.025 35.9987 10.025C36.9203 10.025 37.6653 9.25337 37.6653 8.33171C37.6653 7.41004 36.9203 6.66504 35.9987 6.66504V6.66671Z" stroke="#007AFF" stroke-opacity="0.04"/>
<path d="M16 33.3337C16 34.2553 16.745 35.0003 17.6666 35.0003H40.9995C41.9212 35.0003 42.6662 34.2553 42.6662 33.3337C42.6662 32.412 41.9212 31.667 40.9995 31.667H17.6666C16.745 31.667 16 32.412 16 33.3337Z" fill="#007AFF"/>
<path d="M16 33.3337C16 34.2553 16.745 35.0003 17.6666 35.0003H40.9995C41.9212 35.0003 42.6662 34.2553 42.6662 33.3337C42.6662 32.412 41.9212 31.667 40.9995 31.667H17.6666C16.745 31.667 16 32.412 16 33.3337Z" stroke="white"/>
<path d="M16 33.3337C16 34.2553 16.745 35.0003 17.6666 35.0003H40.9995C41.9212 35.0003 42.6662 34.2553 42.6662 33.3337C42.6662 32.412 41.9212 31.667 40.9995 31.667H17.6666C16.745 31.667 16 32.412 16 33.3337Z" stroke="#007AFF" stroke-opacity="0.04"/>
<path d="M49.8194 36.1781C50.1328 36.4915 50.5561 36.6665 50.9978 36.6665C51.0361 36.6665 51.0761 36.6665 51.1161 36.6615C51.5977 36.6265 52.0411 36.3865 52.3311 35.9998L57.331 29.3331C57.8843 28.5981 57.7343 27.5531 56.9976 27.0015C56.2627 26.4515 55.2177 26.5981 54.666 27.3348L50.8178 32.4631L50.5094 32.1548C49.8578 31.5031 48.8045 31.5031 48.1528 32.1548C47.5011 32.8065 47.5011 33.8598 48.1528 34.5115L49.8194 36.1781Z" fill="#007AFF"/>
<path d="M49.8194 36.1781C50.1328 36.4915 50.5561 36.6665 50.9978 36.6665C51.0361 36.6665 51.0761 36.6665 51.1161 36.6615C51.5977 36.6265 52.0411 36.3865 52.3311 35.9998L57.331 29.3331C57.8843 28.5981 57.7343 27.5531 56.9976 27.0015C56.2627 26.4515 55.2177 26.5981 54.666 27.3348L50.8178 32.4631L50.5094 32.1548C49.8578 31.5031 48.8045 31.5031 48.1528 32.1548C47.5011 32.8065 47.5011 33.8598 48.1528 34.5115L49.8194 36.1781Z" stroke="white"/>
<path d="M49.8194 36.1781C50.1328 36.4915 50.5561 36.6665 50.9978 36.6665C51.0361 36.6665 51.0761 36.6665 51.1161 36.6615C51.5977 36.6265 52.0411 36.3865 52.3311 35.9998L57.331 29.3331C57.8843 28.5981 57.7343 27.5531 56.9976 27.0015C56.2627 26.4515 55.2177 26.5981 54.666 27.3348L50.8178 32.4631L50.5094 32.1548C49.8578 31.5031 48.8045 31.5031 48.1528 32.1548C47.5011 32.8065 47.5011 33.8598 48.1528 34.5115L49.8194 36.1781Z" stroke="#007AFF" stroke-opacity="0.04"/>
<path d="M40.9995 50H17.6666C16.745 50 16 50.745 16 51.6667C16 52.5883 16.745 53.3333 17.6666 53.3333H40.9995C41.9212 53.3333 42.6662 52.5883 42.6662 51.6667C42.6662 50.745 41.9212 50 40.9995 50Z" fill="#007AFF"/>
<path d="M40.9995 50H17.6666C16.745 50 16 50.745 16 51.6667C16 52.5883 16.745 53.3333 17.6666 53.3333H40.9995C41.9212 53.3333 42.6662 52.5883 42.6662 51.6667C42.6662 50.745 41.9212 50 40.9995 50Z" stroke="white"/>
<path d="M40.9995 50H17.6666C16.745 50 16 50.745 16 51.6667C16 52.5883 16.745 53.3333 17.6666 53.3333H40.9995C41.9212 53.3333 42.6662 52.5883 42.6662 51.6667C42.6662 50.745 41.9212 50 40.9995 50Z" stroke="#007AFF" stroke-opacity="0.04"/>
<path d="M37.6663 68.333H17.6666C16.745 68.333 16 69.078 16 69.9997C16 70.9213 16.745 71.6663 17.6666 71.6663H37.6663C38.5879 71.6663 39.3329 70.9213 39.3329 69.9997C39.3329 69.078 38.5879 68.333 37.6663 68.333Z" fill="#007AFF"/>
<path d="M37.6663 68.333H17.6666C16.745 68.333 16 69.078 16 69.9997C16 70.9213 16.745 71.6663 17.6666 71.6663H37.6663C38.5879 71.6663 39.3329 70.9213 39.3329 69.9997C39.3329 69.078 38.5879 68.333 37.6663 68.333Z" stroke="white"/>
<path d="M37.6663 68.333H17.6666C16.745 68.333 16 69.078 16 69.9997C16 70.9213 16.745 71.6663 17.6666 71.6663H37.6663C38.5879 71.6663 39.3329 70.9213 39.3329 69.9997C39.3329 69.078 38.5879 68.333 37.6663 68.333Z" stroke="#007AFF" stroke-opacity="0.04"/>
<path d="M65.9987 76.667C66.9203 76.667 67.6653 75.922 67.6653 75.0003V53.3337C67.6653 52.412 66.9203 51.667 65.9987 51.667C65.077 51.667 64.332 52.412 64.332 53.3337V75.0003C64.332 75.922 65.077 76.667 65.9987 76.667Z" fill="#007AFF"/>
<path d="M65.9987 76.667C66.9203 76.667 67.6653 75.922 67.6653 75.0003V53.3337C67.6653 52.412 66.9203 51.667 65.9987 51.667C65.077 51.667 64.332 52.412 64.332 53.3337V75.0003C64.332 75.922 65.077 76.667 65.9987 76.667Z" stroke="white"/>
<path d="M65.9987 76.667C66.9203 76.667 67.6653 75.922 67.6653 75.0003V53.3337C67.6653 52.412 66.9203 51.667 65.9987 51.667C65.077 51.667 64.332 52.412 64.332 53.3337V75.0003C64.332 75.922 65.077 76.667 65.9987 76.667Z" stroke="#007AFF" stroke-opacity="0.04"/>
</svg>
