<svg width="91" height="101" viewBox="0 0 91 101" fill="none" xmlns="http://www.w3.org/2000/svg">
<path fill-rule="evenodd" clip-rule="evenodd" d="M45.9542 0.247924C59.1721 7.62055 73.8962 13.5201 88.5342 17.309C89.3972 17.5324 89.9998 18.3098 90 19.1996V40.761C90 62.9359 79.1817 77.6044 70.1067 86.005C60.3717 95.0162 49.0821 100 45 100C40.9179 100 29.6283 95.0162 19.8933 86.005C10.8179 77.6044 0 62.9357 0 40.761V19.1998C0 18.3099 0.602603 17.5326 1.46542 17.3092C16.5194 13.4125 30.4475 7.83187 44.0456 0.247924C44.6388 -0.0827389 45.3614 -0.0825436 45.9542 0.247924ZM53.3689 93.0457C56.8151 91.2815 62.0545 88.1307 67.446 83.1399C75.9498 75.2683 86.0866 61.5262 86.0868 40.7606H86.0866V20.7041C71.9659 16.9178 57.8147 11.2291 45 4.18638C31.8519 11.4229 18.3839 16.8375 3.91281 20.7047V40.7606C3.91281 61.5262 14.0499 75.2683 22.5536 83.1399C27.9453 88.1307 33.1849 91.2815 36.6307 93.0457C40.9976 95.2817 44.0282 96.0932 44.9998 96.0932C45.9714 96.0932 49.0022 95.2815 53.3689 93.0457Z" fill="#007AFF"/>
<path d="M88.5342 17.309L88.6908 16.7039L88.6908 16.7039L88.5342 17.309ZM45.9542 0.247924L46.2586 -0.29791L46.2585 -0.297985L45.9542 0.247924ZM90 19.1996H90.625V19.1995L90 19.1996ZM70.1067 86.005L70.5312 86.4636V86.4636L70.1067 86.005ZM19.8933 86.005L20.3179 85.5463H20.3179L19.8933 86.005ZM1.46542 17.3092L1.3088 16.7041L1.30874 16.7041L1.46542 17.3092ZM44.0456 0.247924L43.7413 -0.297994L43.7412 -0.297922L44.0456 0.247924ZM67.446 83.1399L67.0214 82.6813L67.446 83.1399ZM53.3689 93.0457L53.0841 92.4894L53.0841 92.4894L53.3689 93.0457ZM86.0868 40.7606L86.7118 40.7606L86.7118 40.1356H86.0868V40.7606ZM86.0866 40.7606H85.4616V41.3856H86.0866V40.7606ZM86.0866 20.7041H86.7116V20.2246L86.2485 20.1004L86.0866 20.7041ZM45 4.18638L45.301 3.63865L44.9998 3.47309L44.6986 3.63884L45 4.18638ZM3.91281 20.7047L3.75145 20.1009L3.28781 20.2248V20.7047H3.91281ZM22.5536 83.1399L22.129 83.5986L22.129 83.5986L22.5536 83.1399ZM36.6307 93.0457L36.9155 92.4894H36.9155L36.6307 93.0457ZM88.6908 16.7039C74.1045 12.9284 59.4301 7.04877 46.2586 -0.29791L45.6497 0.793757C58.9142 8.19232 73.688 14.1118 88.3776 17.914L88.6908 16.7039ZM90.625 19.1995C90.6247 18.0241 89.8289 16.9986 88.6908 16.7039L88.3775 17.914C88.9655 18.0663 89.3749 18.5954 89.375 19.1997L90.625 19.1995ZM90.625 40.761V19.1996H89.375V40.761H90.625ZM70.5312 86.4636C79.69 77.9855 90.625 63.1622 90.625 40.761H89.375C89.375 62.7097 78.6734 77.2233 69.6821 85.5463L70.5312 86.4636ZM45 100.625C46.123 100.625 47.6709 100.288 49.4776 99.6721C51.2975 99.052 53.425 98.1339 55.7225 96.9359C60.317 94.5401 65.6196 91.0101 70.5312 86.4636L69.6821 85.5463C64.8587 90.0111 59.649 93.4787 55.1445 95.8275C52.8924 97.0019 50.8237 97.8929 49.0745 98.4889C47.3121 99.0893 45.918 99.375 45 99.375V100.625ZM19.4688 86.4636C24.3804 91.0101 29.683 94.5401 34.2775 96.9359C36.575 98.1339 38.7025 99.052 40.5224 99.6721C42.3291 100.288 43.877 100.625 45 100.625V99.375C44.082 99.375 42.6879 99.0893 40.9255 98.4889C39.1763 97.8929 37.1076 97.0019 34.8555 95.8275C30.351 93.4787 25.1413 90.0111 20.3179 85.5463L19.4688 86.4636ZM-0.625 40.761C-0.625 63.162 10.3096 77.9855 19.4688 86.4636L20.3179 85.5463C11.3262 77.2233 0.625 62.7095 0.625 40.761H-0.625ZM-0.625 19.1998V40.761H0.625V19.1998H-0.625ZM1.30874 16.7041C0.170892 16.9988 -0.625 18.0244 -0.625 19.1998H0.625C0.625 18.5955 1.03431 18.0664 1.6221 17.9142L1.30874 16.7041ZM43.7412 -0.297922C30.1896 7.2601 16.3111 12.8208 1.3088 16.7041L1.62204 17.9142C16.7276 14.0042 30.7055 8.40365 44.35 0.793769L43.7412 -0.297922ZM46.2585 -0.297985C45.4766 -0.733877 44.5238 -0.73413 43.7413 -0.297994L44.3499 0.793842C44.7539 0.568653 45.2462 0.56879 45.6499 0.793832L46.2585 -0.297985ZM67.0214 82.6813C61.6809 87.6249 56.4918 90.7449 53.0841 92.4894L53.6538 93.6021C57.1384 91.8181 62.428 88.6366 67.8706 83.5986L67.0214 82.6813ZM85.4618 40.7606C85.4616 61.2998 75.4416 74.887 67.0214 82.6813L67.8706 83.5986C76.458 75.6495 86.7116 61.7525 86.7118 40.7606L85.4618 40.7606ZM86.0866 41.3856H86.0868V40.1356H86.0866V41.3856ZM85.4616 20.7041V40.7606H86.7116V20.7041H85.4616ZM44.699 4.73411C57.5577 11.801 71.7556 17.5084 85.9247 21.3078L86.2485 20.1004C72.1762 16.3271 58.0718 10.6572 45.301 3.63865L44.699 4.73411ZM4.07417 21.3085C18.5941 17.4282 32.1091 11.9947 45.3014 4.73393L44.6986 3.63884C31.5947 10.851 18.1737 16.2467 3.75145 20.1009L4.07417 21.3085ZM4.53781 40.7606V20.7047H3.28781V40.7606H4.53781ZM22.9782 82.6813C14.5581 74.887 4.53781 61.2998 4.53781 40.7606H3.28781C3.28781 61.7525 13.5417 75.6495 22.129 83.5986L22.9782 82.6813ZM36.9155 92.4894C33.5082 90.7449 28.3189 87.6249 22.9782 82.6813L22.129 83.5986C27.5718 88.6366 32.8616 91.8181 36.3458 93.6021L36.9155 92.4894ZM44.9998 95.4682C44.6236 95.4682 43.7061 95.2957 42.2889 94.8159C40.8961 94.3445 39.0749 93.5951 36.9155 92.4894L36.3458 93.6021C38.5533 94.7323 40.4309 95.5067 41.8881 95.9999C43.3208 96.4849 44.4044 96.7182 44.9998 96.7182V95.4682ZM53.0841 92.4894C50.9248 93.595 49.1036 94.3444 47.7108 94.8159C46.2936 95.2956 45.376 95.4682 44.9998 95.4682V96.7182C45.5952 96.7182 46.6788 96.4849 48.1116 95.9999C49.5688 95.5066 51.4464 94.7322 53.6538 93.6021L53.0841 92.4894Z" fill="white"/>
<path d="M88.5342 17.309L88.6908 16.7039L88.6908 16.7039L88.5342 17.309ZM45.9542 0.247924L46.2586 -0.29791L46.2585 -0.297985L45.9542 0.247924ZM90 19.1996H90.625V19.1995L90 19.1996ZM70.1067 86.005L70.5312 86.4636V86.4636L70.1067 86.005ZM19.8933 86.005L20.3179 85.5463H20.3179L19.8933 86.005ZM1.46542 17.3092L1.3088 16.7041L1.30874 16.7041L1.46542 17.3092ZM44.0456 0.247924L43.7413 -0.297994L43.7412 -0.297922L44.0456 0.247924ZM67.446 83.1399L67.0214 82.6813L67.446 83.1399ZM53.3689 93.0457L53.0841 92.4894L53.0841 92.4894L53.3689 93.0457ZM86.0868 40.7606L86.7118 40.7606L86.7118 40.1356H86.0868V40.7606ZM86.0866 40.7606H85.4616V41.3856H86.0866V40.7606ZM86.0866 20.7041H86.7116V20.2246L86.2485 20.1004L86.0866 20.7041ZM45 4.18638L45.301 3.63865L44.9998 3.47309L44.6986 3.63884L45 4.18638ZM3.91281 20.7047L3.75145 20.1009L3.28781 20.2248V20.7047H3.91281ZM22.5536 83.1399L22.129 83.5986L22.129 83.5986L22.5536 83.1399ZM36.6307 93.0457L36.9155 92.4894H36.9155L36.6307 93.0457ZM88.6908 16.7039C74.1045 12.9284 59.4301 7.04877 46.2586 -0.29791L45.6497 0.793757C58.9142 8.19232 73.688 14.1118 88.3776 17.914L88.6908 16.7039ZM90.625 19.1995C90.6247 18.0241 89.8289 16.9986 88.6908 16.7039L88.3775 17.914C88.9655 18.0663 89.3749 18.5954 89.375 19.1997L90.625 19.1995ZM90.625 40.761V19.1996H89.375V40.761H90.625ZM70.5312 86.4636C79.69 77.9855 90.625 63.1622 90.625 40.761H89.375C89.375 62.7097 78.6734 77.2233 69.6821 85.5463L70.5312 86.4636ZM45 100.625C46.123 100.625 47.6709 100.288 49.4776 99.6721C51.2975 99.052 53.425 98.1339 55.7225 96.9359C60.317 94.5401 65.6196 91.0101 70.5312 86.4636L69.6821 85.5463C64.8587 90.0111 59.649 93.4787 55.1445 95.8275C52.8924 97.0019 50.8237 97.8929 49.0745 98.4889C47.3121 99.0893 45.918 99.375 45 99.375V100.625ZM19.4688 86.4636C24.3804 91.0101 29.683 94.5401 34.2775 96.9359C36.575 98.1339 38.7025 99.052 40.5224 99.6721C42.3291 100.288 43.877 100.625 45 100.625V99.375C44.082 99.375 42.6879 99.0893 40.9255 98.4889C39.1763 97.8929 37.1076 97.0019 34.8555 95.8275C30.351 93.4787 25.1413 90.0111 20.3179 85.5463L19.4688 86.4636ZM-0.625 40.761C-0.625 63.162 10.3096 77.9855 19.4688 86.4636L20.3179 85.5463C11.3262 77.2233 0.625 62.7095 0.625 40.761H-0.625ZM-0.625 19.1998V40.761H0.625V19.1998H-0.625ZM1.30874 16.7041C0.170892 16.9988 -0.625 18.0244 -0.625 19.1998H0.625C0.625 18.5955 1.03431 18.0664 1.6221 17.9142L1.30874 16.7041ZM43.7412 -0.297922C30.1896 7.2601 16.3111 12.8208 1.3088 16.7041L1.62204 17.9142C16.7276 14.0042 30.7055 8.40365 44.35 0.793769L43.7412 -0.297922ZM46.2585 -0.297985C45.4766 -0.733877 44.5238 -0.73413 43.7413 -0.297994L44.3499 0.793842C44.7539 0.568653 45.2462 0.56879 45.6499 0.793832L46.2585 -0.297985ZM67.0214 82.6813C61.6809 87.6249 56.4918 90.7449 53.0841 92.4894L53.6538 93.6021C57.1384 91.8181 62.428 88.6366 67.8706 83.5986L67.0214 82.6813ZM85.4618 40.7606C85.4616 61.2998 75.4416 74.887 67.0214 82.6813L67.8706 83.5986C76.458 75.6495 86.7116 61.7525 86.7118 40.7606L85.4618 40.7606ZM86.0866 41.3856H86.0868V40.1356H86.0866V41.3856ZM85.4616 20.7041V40.7606H86.7116V20.7041H85.4616ZM44.699 4.73411C57.5577 11.801 71.7556 17.5084 85.9247 21.3078L86.2485 20.1004C72.1762 16.3271 58.0718 10.6572 45.301 3.63865L44.699 4.73411ZM4.07417 21.3085C18.5941 17.4282 32.1091 11.9947 45.3014 4.73393L44.6986 3.63884C31.5947 10.851 18.1737 16.2467 3.75145 20.1009L4.07417 21.3085ZM4.53781 40.7606V20.7047H3.28781V40.7606H4.53781ZM22.9782 82.6813C14.5581 74.887 4.53781 61.2998 4.53781 40.7606H3.28781C3.28781 61.7525 13.5417 75.6495 22.129 83.5986L22.9782 82.6813ZM36.9155 92.4894C33.5082 90.7449 28.3189 87.6249 22.9782 82.6813L22.129 83.5986C27.5718 88.6366 32.8616 91.8181 36.3458 93.6021L36.9155 92.4894ZM44.9998 95.4682C44.6236 95.4682 43.7061 95.2957 42.2889 94.8159C40.8961 94.3445 39.0749 93.5951 36.9155 92.4894L36.3458 93.6021C38.5533 94.7323 40.4309 95.5067 41.8881 95.9999C43.3208 96.4849 44.4044 96.7182 44.9998 96.7182V95.4682ZM53.0841 92.4894C50.9248 93.595 49.1036 94.3444 47.7108 94.8159C46.2936 95.2956 45.376 95.4682 44.9998 95.4682V96.7182C45.5952 96.7182 46.6788 96.4849 48.1116 95.9999C49.5688 95.5066 51.4464 94.7322 53.6538 93.6021L53.0841 92.4894Z" fill="#007AFF" fill-opacity="0.04"/>
<path fill-rule="evenodd" clip-rule="evenodd" d="M45.9206 8.01374C57.2979 14.0514 69.35 18.9363 81.7417 22.5326C82.5771 22.7754 83.1519 23.5396 83.1517 24.4082V40.7605C83.1517 48.3929 81.7029 55.6358 78.8459 62.2881C76.0029 68.9076 71.7631 74.9486 66.2442 80.2437C62.2966 84.0308 57.7389 87.3681 53.0638 89.8946C52.226 90.3474 47.9172 92.6296 45.3548 93.1018C45.2374 93.1233 45.1186 93.1342 44.9997 93.1342C44.8807 93.1342 44.762 93.1233 44.6446 93.1018C42.0822 92.6296 37.7733 90.3474 36.9356 89.8946C32.2599 87.3681 27.7024 84.0308 23.7552 80.2437C18.2363 74.9482 13.9963 68.9074 11.1535 62.2881C8.29645 55.6356 6.84766 48.3927 6.84766 40.7605V24.4125C6.84766 23.5428 7.42385 22.7779 8.26064 22.5363C20.6355 18.9635 32.6874 14.0778 44.0821 8.01492C44.6565 7.70906 45.3458 7.70847 45.9206 8.01374ZM63.5329 77.4271C73.9548 67.4279 79.2389 55.0917 79.2389 40.7605H79.2387V25.8685C67.4187 22.3393 55.9121 17.661 45.0032 11.9479C34.0767 17.6852 22.569 22.3652 10.7607 25.8748V40.7605C10.7607 55.0915 16.045 67.4281 26.4667 77.4271C30.1639 80.9741 34.4281 84.0974 38.7984 86.4593C40.7873 87.5341 43.4726 88.7872 44.9997 89.1807C46.5267 88.7872 49.2121 87.5341 51.2012 86.4593C55.5713 84.0976 59.8355 80.9743 63.5329 77.4271Z" fill="#007AFF"/>
<path d="M81.7417 22.5326L81.9161 21.9325L81.9159 21.9324L81.7417 22.5326ZM45.9206 8.01374L45.6275 8.56573L45.6276 8.56582L45.9206 8.01374ZM83.1517 24.4082L82.5267 24.4081V24.4082H83.1517ZM78.8459 62.2881L79.4201 62.5347L78.8459 62.2881ZM66.2442 80.2437L66.6769 80.6947L66.6769 80.6947L66.2442 80.2437ZM53.0638 89.8946L53.361 90.4445L53.361 90.4445L53.0638 89.8946ZM45.3548 93.1018L45.4673 93.7166L45.4681 93.7165L45.3548 93.1018ZM44.6446 93.1018L44.5313 93.7165L44.5321 93.7166L44.6446 93.1018ZM36.9356 89.8946L37.2327 89.3448L37.2327 89.3448L36.9356 89.8946ZM23.7552 80.2437L23.3225 80.6947L23.3225 80.6947L23.7552 80.2437ZM11.1535 62.2881L11.7278 62.0415L11.7278 62.0415L11.1535 62.2881ZM8.26064 22.5363L8.08728 21.9359L8.08728 21.9359L8.26064 22.5363ZM44.0821 8.01492L44.3757 8.56667L44.3758 8.56659L44.0821 8.01492ZM79.2389 40.7605H79.8639V40.1355H79.2389V40.7605ZM63.5329 77.4271L63.9656 77.8781L63.9656 77.8781L63.5329 77.4271ZM79.2387 40.7605H78.6137V41.3855H79.2387V40.7605ZM79.2387 25.8685H79.8637V25.4029L79.4175 25.2697L79.2387 25.8685ZM45.0032 11.9479L45.2932 11.3942L45.0028 11.2422L44.7127 11.3946L45.0032 11.9479ZM10.7607 25.8748L10.5826 25.2757L10.1357 25.4085V25.8748H10.7607ZM26.4667 77.4271L26.034 77.8781L26.034 77.8781L26.4667 77.4271ZM38.7984 86.4593L38.5012 87.0091L38.5012 87.0091L38.7984 86.4593ZM44.9997 89.1807L44.8437 89.786L44.9997 89.8262L45.1557 89.786L44.9997 89.1807ZM51.2012 86.4593L51.4983 87.0091L51.4984 87.0091L51.2012 86.4593ZM81.9159 21.9324C69.5652 18.348 57.553 13.4792 46.2136 7.46167L45.6276 8.56582C57.0428 14.6236 69.1347 19.5247 81.5675 23.1329L81.9159 21.9324ZM83.7767 24.4083C83.777 23.2609 83.0177 22.2526 81.9161 21.9325L81.5673 23.1328C82.1365 23.2982 82.5269 23.8184 82.5267 24.4081L83.7767 24.4083ZM83.7767 40.7605V24.4082H82.5267V40.7605H83.7767ZM79.4201 62.5347C82.3125 55.8003 83.7767 48.473 83.7767 40.7605H82.5267C82.5267 48.3127 81.0934 55.4712 78.2716 62.0415L79.4201 62.5347ZM66.6769 80.6947C72.2524 75.3453 76.5421 69.2358 79.4201 62.5347L78.2716 62.0415C75.4636 68.5794 71.2738 74.5519 65.8115 79.7927L66.6769 80.6947ZM53.361 90.4445C58.0869 87.8904 62.6899 84.5195 66.6769 80.6947L65.8115 79.7927C61.9032 83.542 57.3909 86.8457 52.7667 89.3448L53.361 90.4445ZM45.4681 93.7165C46.8321 93.4651 48.6114 92.7465 50.1157 92.0594C51.6357 91.3651 52.9359 90.6742 53.361 90.4445L52.7667 89.3448C52.3539 89.5678 51.0809 90.2443 49.5964 90.9224C48.0963 91.6076 46.4399 92.2663 45.2415 92.4872L45.4681 93.7165ZM44.9997 93.7592C45.157 93.7592 45.3134 93.7448 45.4673 93.7166L45.2423 92.487C45.1614 92.5018 45.0803 92.5092 44.9997 92.5092V93.7592ZM44.5321 93.7166C44.686 93.7448 44.8424 93.7592 44.9997 93.7592V92.5092C44.9191 92.5092 44.838 92.5018 44.7571 92.487L44.5321 93.7166ZM36.6384 90.4445C37.0635 90.6742 38.3637 91.3651 39.8837 92.0594C41.388 92.7465 43.1672 93.4651 44.5313 93.7165L44.7579 92.4872C43.5595 92.2663 41.9031 91.6076 40.403 90.9224C38.9185 90.2443 37.6454 89.5678 37.2327 89.3448L36.6384 90.4445ZM23.3225 80.6947C27.3091 84.5195 31.9119 87.8904 36.6384 90.4445L37.2327 89.3448C32.6079 86.8457 28.0958 83.542 24.1879 79.7927L23.3225 80.6947ZM10.5793 62.5347C13.4571 69.2356 17.747 75.3449 23.3225 80.6947L24.1879 79.7927C18.7256 74.5515 14.5356 68.5792 11.7278 62.0415L10.5793 62.5347ZM6.22266 40.7605C6.22266 48.4728 7.68691 55.8001 10.5793 62.5347L11.7278 62.0415C8.90598 55.4711 7.47266 48.3125 7.47266 40.7605H6.22266ZM6.22266 24.4125V40.7605H7.47266V24.4125H6.22266ZM8.08728 21.9359C6.98368 22.2545 6.22266 23.2637 6.22266 24.4125H7.47266C7.47266 23.8219 7.86402 23.3014 8.43401 23.1368L8.08728 21.9359ZM43.7885 7.46316C32.432 13.5057 20.4204 18.3751 8.08728 21.9359L8.43401 23.1368C20.8506 19.5519 32.9428 14.6499 44.3757 8.56667L43.7885 7.46316ZM46.2138 7.46176C45.4553 7.05895 44.5461 7.0598 43.7884 7.46324L44.3758 8.56659C44.767 8.35832 45.2363 8.35799 45.6275 8.56573L46.2138 7.46176ZM78.6139 40.7605C78.6139 54.9199 73.4003 67.0938 63.1002 76.9761L63.9656 77.8781C74.5093 67.7621 79.8639 55.2634 79.8639 40.7605H78.6139ZM79.2387 41.3855H79.2389V40.1355H79.2387V41.3855ZM78.6137 25.8685V40.7605H79.8637V25.8685H78.6137ZM44.7133 12.5016C55.6577 18.2333 67.2016 22.9267 79.0599 26.4674L79.4175 25.2697C67.6358 21.7518 56.1665 17.0887 45.2932 11.3942L44.7133 12.5016ZM10.9387 26.4739C22.786 22.9528 34.3314 18.2574 45.2938 12.5013L44.7127 11.3946C33.822 17.113 22.3519 21.7777 10.5826 25.2757L10.9387 26.4739ZM11.3857 40.7605V25.8748H10.1357V40.7605H11.3857ZM26.8994 76.9761C16.5995 67.0939 11.3857 54.9197 11.3857 40.7605H10.1357C10.1357 55.2632 15.4905 67.7623 26.034 77.8781L26.8994 76.9761ZM39.0955 85.9094C34.7762 83.5751 30.5573 80.4855 26.8994 76.9761L26.034 77.8781C29.7705 81.4628 34.08 84.6197 38.5012 87.0091L39.0955 85.9094ZM45.1557 88.5755C43.7085 88.2025 41.0809 86.9823 39.0955 85.9094L38.5012 87.0091C40.4937 88.0858 43.2368 89.3718 44.8437 89.786L45.1557 88.5755ZM50.9041 85.9094C48.9184 86.9823 46.2909 88.2025 44.8437 88.5755L45.1557 89.786C46.7626 89.3718 49.5057 88.0858 51.4983 87.0091L50.9041 85.9094ZM63.1002 76.9761C59.442 80.4857 55.2232 83.5753 50.9041 85.9094L51.4984 87.0091C55.9194 84.6199 60.2289 81.463 63.9656 77.8781L63.1002 76.9761Z" fill="white"/>
<path d="M81.7417 22.5326L81.9161 21.9325L81.9159 21.9324L81.7417 22.5326ZM45.9206 8.01374L45.6275 8.56573L45.6276 8.56582L45.9206 8.01374ZM83.1517 24.4082L82.5267 24.4081V24.4082H83.1517ZM78.8459 62.2881L79.4201 62.5347L78.8459 62.2881ZM66.2442 80.2437L66.6769 80.6947L66.6769 80.6947L66.2442 80.2437ZM53.0638 89.8946L53.361 90.4445L53.361 90.4445L53.0638 89.8946ZM45.3548 93.1018L45.4673 93.7166L45.4681 93.7165L45.3548 93.1018ZM44.6446 93.1018L44.5313 93.7165L44.5321 93.7166L44.6446 93.1018ZM36.9356 89.8946L37.2327 89.3448L37.2327 89.3448L36.9356 89.8946ZM23.7552 80.2437L23.3225 80.6947L23.3225 80.6947L23.7552 80.2437ZM11.1535 62.2881L11.7278 62.0415L11.7278 62.0415L11.1535 62.2881ZM8.26064 22.5363L8.08728 21.9359L8.08728 21.9359L8.26064 22.5363ZM44.0821 8.01492L44.3757 8.56667L44.3758 8.56659L44.0821 8.01492ZM79.2389 40.7605H79.8639V40.1355H79.2389V40.7605ZM63.5329 77.4271L63.9656 77.8781L63.9656 77.8781L63.5329 77.4271ZM79.2387 40.7605H78.6137V41.3855H79.2387V40.7605ZM79.2387 25.8685H79.8637V25.4029L79.4175 25.2697L79.2387 25.8685ZM45.0032 11.9479L45.2932 11.3942L45.0028 11.2422L44.7127 11.3946L45.0032 11.9479ZM10.7607 25.8748L10.5826 25.2757L10.1357 25.4085V25.8748H10.7607ZM26.4667 77.4271L26.034 77.8781L26.034 77.8781L26.4667 77.4271ZM38.7984 86.4593L38.5012 87.0091L38.5012 87.0091L38.7984 86.4593ZM44.9997 89.1807L44.8437 89.786L44.9997 89.8262L45.1557 89.786L44.9997 89.1807ZM51.2012 86.4593L51.4983 87.0091L51.4984 87.0091L51.2012 86.4593ZM81.9159 21.9324C69.5652 18.348 57.553 13.4792 46.2136 7.46167L45.6276 8.56582C57.0428 14.6236 69.1347 19.5247 81.5675 23.1329L81.9159 21.9324ZM83.7767 24.4083C83.777 23.2609 83.0177 22.2526 81.9161 21.9325L81.5673 23.1328C82.1365 23.2982 82.5269 23.8184 82.5267 24.4081L83.7767 24.4083ZM83.7767 40.7605V24.4082H82.5267V40.7605H83.7767ZM79.4201 62.5347C82.3125 55.8003 83.7767 48.473 83.7767 40.7605H82.5267C82.5267 48.3127 81.0934 55.4712 78.2716 62.0415L79.4201 62.5347ZM66.6769 80.6947C72.2524 75.3453 76.5421 69.2358 79.4201 62.5347L78.2716 62.0415C75.4636 68.5794 71.2738 74.5519 65.8115 79.7927L66.6769 80.6947ZM53.361 90.4445C58.0869 87.8904 62.6899 84.5195 66.6769 80.6947L65.8115 79.7927C61.9032 83.542 57.3909 86.8457 52.7667 89.3448L53.361 90.4445ZM45.4681 93.7165C46.8321 93.4651 48.6114 92.7465 50.1157 92.0594C51.6357 91.3651 52.9359 90.6742 53.361 90.4445L52.7667 89.3448C52.3539 89.5678 51.0809 90.2443 49.5964 90.9224C48.0963 91.6076 46.4399 92.2663 45.2415 92.4872L45.4681 93.7165ZM44.9997 93.7592C45.157 93.7592 45.3134 93.7448 45.4673 93.7166L45.2423 92.487C45.1614 92.5018 45.0803 92.5092 44.9997 92.5092V93.7592ZM44.5321 93.7166C44.686 93.7448 44.8424 93.7592 44.9997 93.7592V92.5092C44.9191 92.5092 44.838 92.5018 44.7571 92.487L44.5321 93.7166ZM36.6384 90.4445C37.0635 90.6742 38.3637 91.3651 39.8837 92.0594C41.388 92.7465 43.1672 93.4651 44.5313 93.7165L44.7579 92.4872C43.5595 92.2663 41.9031 91.6076 40.403 90.9224C38.9185 90.2443 37.6454 89.5678 37.2327 89.3448L36.6384 90.4445ZM23.3225 80.6947C27.3091 84.5195 31.9119 87.8904 36.6384 90.4445L37.2327 89.3448C32.6079 86.8457 28.0958 83.542 24.1879 79.7927L23.3225 80.6947ZM10.5793 62.5347C13.4571 69.2356 17.747 75.3449 23.3225 80.6947L24.1879 79.7927C18.7256 74.5515 14.5356 68.5792 11.7278 62.0415L10.5793 62.5347ZM6.22266 40.7605C6.22266 48.4728 7.68691 55.8001 10.5793 62.5347L11.7278 62.0415C8.90598 55.4711 7.47266 48.3125 7.47266 40.7605H6.22266ZM6.22266 24.4125V40.7605H7.47266V24.4125H6.22266ZM8.08728 21.9359C6.98368 22.2545 6.22266 23.2637 6.22266 24.4125H7.47266C7.47266 23.8219 7.86402 23.3014 8.43401 23.1368L8.08728 21.9359ZM43.7885 7.46316C32.432 13.5057 20.4204 18.3751 8.08728 21.9359L8.43401 23.1368C20.8506 19.5519 32.9428 14.6499 44.3757 8.56667L43.7885 7.46316ZM46.2138 7.46176C45.4553 7.05895 44.5461 7.0598 43.7884 7.46324L44.3758 8.56659C44.767 8.35832 45.2363 8.35799 45.6275 8.56573L46.2138 7.46176ZM78.6139 40.7605C78.6139 54.9199 73.4003 67.0938 63.1002 76.9761L63.9656 77.8781C74.5093 67.7621 79.8639 55.2634 79.8639 40.7605H78.6139ZM79.2387 41.3855H79.2389V40.1355H79.2387V41.3855ZM78.6137 25.8685V40.7605H79.8637V25.8685H78.6137ZM44.7133 12.5016C55.6577 18.2333 67.2016 22.9267 79.0599 26.4674L79.4175 25.2697C67.6358 21.7518 56.1665 17.0887 45.2932 11.3942L44.7133 12.5016ZM10.9387 26.4739C22.786 22.9528 34.3314 18.2574 45.2938 12.5013L44.7127 11.3946C33.822 17.113 22.3519 21.7777 10.5826 25.2757L10.9387 26.4739ZM11.3857 40.7605V25.8748H10.1357V40.7605H11.3857ZM26.8994 76.9761C16.5995 67.0939 11.3857 54.9197 11.3857 40.7605H10.1357C10.1357 55.2632 15.4905 67.7623 26.034 77.8781L26.8994 76.9761ZM39.0955 85.9094C34.7762 83.5751 30.5573 80.4855 26.8994 76.9761L26.034 77.8781C29.7705 81.4628 34.08 84.6197 38.5012 87.0091L39.0955 85.9094ZM45.1557 88.5755C43.7085 88.2025 41.0809 86.9823 39.0955 85.9094L38.5012 87.0091C40.4937 88.0858 43.2368 89.3718 44.8437 89.786L45.1557 88.5755ZM50.9041 85.9094C48.9184 86.9823 46.2909 88.2025 44.8437 88.5755L45.1557 89.786C46.7626 89.3718 49.5057 88.0858 51.4983 87.0091L50.9041 85.9094ZM63.1002 76.9761C59.442 80.4857 55.2232 83.5753 50.9041 85.9094L51.4984 87.0091C55.9194 84.6199 60.2289 81.463 63.9656 77.8781L63.1002 76.9761Z" fill="#007AFF" fill-opacity="0.04"/>
<path fill-rule="evenodd" clip-rule="evenodd" d="M55.3487 43.8357V37.4058C55.3487 31.709 50.7059 27.0742 44.9988 27.0742C39.292 27.0742 34.6492 31.709 34.6492 37.4058V43.8357C32.3214 43.9195 30.4531 45.8347 30.4531 48.1786V63.1725C30.4529 65.5695 32.4065 67.5195 34.8077 67.5195H55.1906C57.5918 67.5195 59.5454 65.5695 59.5454 63.1725V48.1786C59.5454 45.8345 57.6769 43.9191 55.3487 43.8357ZM38.5621 37.4058C38.5621 33.8629 41.4497 30.9805 44.999 30.9805C48.5481 30.9805 51.4355 33.8629 51.4355 37.4058V43.8316H38.5619V37.4058H38.5621ZM55.1904 63.6135C55.4299 63.6135 55.6322 63.4117 55.6322 63.1727V48.1788C55.6322 47.9397 55.4299 47.738 55.1904 47.738H53.392H36.6054H34.8075C34.568 47.738 34.3657 47.9397 34.3657 48.1788H34.3655V63.1727C34.3655 63.4117 34.5679 63.6135 34.8073 63.6135H55.1904Z" fill="#007AFF"/>
<path d="M55.3487 43.8357H54.7237V44.4387L55.3263 44.4603L55.3487 43.8357ZM34.6492 43.8357L34.6717 44.4603L35.2742 44.4386V43.8357H34.6492ZM30.4531 63.1725L31.0781 63.1725V63.1725H30.4531ZM38.5621 37.4058V38.0308H39.1871V37.4058H38.5621ZM51.4355 43.8316V44.4566H52.0605V43.8316H51.4355ZM38.5619 43.8316H37.9369V44.4566H38.5619V43.8316ZM38.5619 37.4058V36.7808H37.9369V37.4058H38.5619ZM34.3657 48.1788V48.8038H34.9907V48.1788H34.3657ZM34.3655 48.1788V47.5538H33.7405V48.1788H34.3655ZM54.7237 37.4058V43.8357H55.9737V37.4058H54.7237ZM44.9988 27.6992C50.3617 27.6992 54.7237 32.0552 54.7237 37.4058H55.9737C55.9737 31.3627 51.05 26.4492 44.9988 26.4492V27.6992ZM35.2742 37.4058C35.2742 32.0552 39.6362 27.6992 44.9988 27.6992V26.4492C38.9479 26.4492 34.0242 31.3628 34.0242 37.4058H35.2742ZM35.2742 43.8357V37.4058H34.0242V43.8357H35.2742ZM31.0781 48.1786C31.0781 46.1737 32.6775 44.532 34.6717 44.4603L34.6268 43.2111C31.9653 43.3069 29.8281 45.4956 29.8281 48.1786H31.0781ZM31.0781 63.1725V48.1786H29.8281V63.1725H31.0781ZM34.8077 66.8945C32.7506 66.8945 31.078 65.2233 31.0781 63.1725L29.8281 63.1724C29.8279 65.9158 32.0624 68.1445 34.8077 68.1445V66.8945ZM55.1906 66.8945H34.8077V68.1445H55.1906V66.8945ZM58.9204 63.1725C58.9204 65.2233 57.2477 66.8945 55.1906 66.8945V68.1445C57.9359 68.1445 60.1704 65.9158 60.1704 63.1725H58.9204ZM58.9204 48.1786V63.1725H60.1704V48.1786H58.9204ZM55.3263 44.4603C57.3209 44.5317 58.9204 46.1735 58.9204 48.1786H60.1704C60.1704 45.4954 58.033 43.3064 55.371 43.2111L55.3263 44.4603ZM44.999 30.3555C41.1055 30.3555 37.9371 33.5166 37.9371 37.4058H39.1871C39.1871 34.2091 41.7938 31.6055 44.999 31.6055V30.3555ZM52.0605 37.4058C52.0605 33.5167 48.8922 30.3555 44.999 30.3555V31.6055C48.2039 31.6055 50.8105 34.2091 50.8105 37.4058H52.0605ZM52.0605 43.8316V37.4058H50.8105V43.8316H52.0605ZM38.5619 44.4566H51.4355V43.2066H38.5619V44.4566ZM37.9369 37.4058V43.8316H39.1869V37.4058H37.9369ZM38.5621 36.7808H38.5619V38.0308H38.5621V36.7808ZM55.0072 63.1727C55.0072 63.1132 55.0322 63.0677 55.0597 63.0403C55.0871 63.0129 55.132 62.9885 55.1904 62.9885V64.2385C55.7737 64.2385 56.2572 63.7583 56.2572 63.1727H55.0072ZM55.0072 48.1788V63.1727H56.2572V48.1788H55.0072ZM55.1904 48.363C55.132 48.363 55.0871 48.3386 55.0597 48.3112C55.0322 48.2838 55.0072 48.2383 55.0072 48.1788H56.2572C56.2572 47.5932 55.7737 47.113 55.1904 47.113V48.363ZM53.392 48.363H55.1904V47.113H53.392V48.363ZM36.6054 48.363H53.392V47.113H36.6054V48.363ZM34.8075 48.363H36.6054V47.113H34.8075V48.363ZM34.9907 48.1788C34.9907 48.2383 34.9657 48.2838 34.9383 48.3112C34.9108 48.3386 34.8659 48.363 34.8075 48.363V47.113C34.2242 47.113 33.7407 47.5932 33.7407 48.1788H34.9907ZM34.3655 48.8038H34.3657V47.5538H34.3655V48.8038ZM34.9905 63.1727V48.1788H33.7405V63.1727H34.9905ZM34.8073 62.9885C34.8657 62.9885 34.9106 63.0129 34.9381 63.0403C34.9655 63.0677 34.9905 63.1132 34.9905 63.1727H33.7405C33.7405 63.7583 34.2241 64.2385 34.8073 64.2385V62.9885ZM55.1904 62.9885H34.8073V64.2385H55.1904V62.9885Z" fill="white"/>
<path d="M55.3487 43.8357H54.7237V44.4387L55.3263 44.4603L55.3487 43.8357ZM34.6492 43.8357L34.6717 44.4603L35.2742 44.4386V43.8357H34.6492ZM30.4531 63.1725L31.0781 63.1725V63.1725H30.4531ZM38.5621 37.4058V38.0308H39.1871V37.4058H38.5621ZM51.4355 43.8316V44.4566H52.0605V43.8316H51.4355ZM38.5619 43.8316H37.9369V44.4566H38.5619V43.8316ZM38.5619 37.4058V36.7808H37.9369V37.4058H38.5619ZM34.3657 48.1788V48.8038H34.9907V48.1788H34.3657ZM34.3655 48.1788V47.5538H33.7405V48.1788H34.3655ZM54.7237 37.4058V43.8357H55.9737V37.4058H54.7237ZM44.9988 27.6992C50.3617 27.6992 54.7237 32.0552 54.7237 37.4058H55.9737C55.9737 31.3627 51.05 26.4492 44.9988 26.4492V27.6992ZM35.2742 37.4058C35.2742 32.0552 39.6362 27.6992 44.9988 27.6992V26.4492C38.9479 26.4492 34.0242 31.3628 34.0242 37.4058H35.2742ZM35.2742 43.8357V37.4058H34.0242V43.8357H35.2742ZM31.0781 48.1786C31.0781 46.1737 32.6775 44.532 34.6717 44.4603L34.6268 43.2111C31.9653 43.3069 29.8281 45.4956 29.8281 48.1786H31.0781ZM31.0781 63.1725V48.1786H29.8281V63.1725H31.0781ZM34.8077 66.8945C32.7506 66.8945 31.078 65.2233 31.0781 63.1725L29.8281 63.1724C29.8279 65.9158 32.0624 68.1445 34.8077 68.1445V66.8945ZM55.1906 66.8945H34.8077V68.1445H55.1906V66.8945ZM58.9204 63.1725C58.9204 65.2233 57.2477 66.8945 55.1906 66.8945V68.1445C57.9359 68.1445 60.1704 65.9158 60.1704 63.1725H58.9204ZM58.9204 48.1786V63.1725H60.1704V48.1786H58.9204ZM55.3263 44.4603C57.3209 44.5317 58.9204 46.1735 58.9204 48.1786H60.1704C60.1704 45.4954 58.033 43.3064 55.371 43.2111L55.3263 44.4603ZM44.999 30.3555C41.1055 30.3555 37.9371 33.5166 37.9371 37.4058H39.1871C39.1871 34.2091 41.7938 31.6055 44.999 31.6055V30.3555ZM52.0605 37.4058C52.0605 33.5167 48.8922 30.3555 44.999 30.3555V31.6055C48.2039 31.6055 50.8105 34.2091 50.8105 37.4058H52.0605ZM52.0605 43.8316V37.4058H50.8105V43.8316H52.0605ZM38.5619 44.4566H51.4355V43.2066H38.5619V44.4566ZM37.9369 37.4058V43.8316H39.1869V37.4058H37.9369ZM38.5621 36.7808H38.5619V38.0308H38.5621V36.7808ZM55.0072 63.1727C55.0072 63.1132 55.0322 63.0677 55.0597 63.0403C55.0871 63.0129 55.132 62.9885 55.1904 62.9885V64.2385C55.7737 64.2385 56.2572 63.7583 56.2572 63.1727H55.0072ZM55.0072 48.1788V63.1727H56.2572V48.1788H55.0072ZM55.1904 48.363C55.132 48.363 55.0871 48.3386 55.0597 48.3112C55.0322 48.2838 55.0072 48.2383 55.0072 48.1788H56.2572C56.2572 47.5932 55.7737 47.113 55.1904 47.113V48.363ZM53.392 48.363H55.1904V47.113H53.392V48.363ZM36.6054 48.363H53.392V47.113H36.6054V48.363ZM34.8075 48.363H36.6054V47.113H34.8075V48.363ZM34.9907 48.1788C34.9907 48.2383 34.9657 48.2838 34.9383 48.3112C34.9108 48.3386 34.8659 48.363 34.8075 48.363V47.113C34.2242 47.113 33.7407 47.5932 33.7407 48.1788H34.9907ZM34.3655 48.8038H34.3657V47.5538H34.3655V48.8038ZM34.9905 63.1727V48.1788H33.7405V63.1727H34.9905ZM34.8073 62.9885C34.8657 62.9885 34.9106 63.0129 34.9381 63.0403C34.9655 63.0677 34.9905 63.1132 34.9905 63.1727H33.7405C33.7405 63.7583 34.2241 64.2385 34.8073 64.2385V62.9885ZM55.1904 62.9885H34.8073V64.2385H55.1904V62.9885Z" fill="#007AFF" fill-opacity="0.04"/>
<path d="M45.0012 51.7578C43.4945 51.7578 42.2656 52.9846 42.2656 54.4887C42.2656 55.2281 42.5636 55.8998 43.0447 56.3922V58.3037C43.0447 59.3822 43.9206 60.2568 45.0012 60.2568C46.0818 60.2568 46.9577 59.3822 46.9577 58.3037V56.3922C47.4388 55.8996 47.7368 55.2281 47.7368 54.4887C47.7368 52.9846 46.5079 51.7578 45.0012 51.7578Z" fill="#007AFF"/>
<path d="M45.0012 51.7578C43.4945 51.7578 42.2656 52.9846 42.2656 54.4887C42.2656 55.2281 42.5636 55.8998 43.0447 56.3922V58.3037C43.0447 59.3822 43.9206 60.2568 45.0012 60.2568C46.0818 60.2568 46.9577 59.3822 46.9577 58.3037V56.3922C47.4388 55.8996 47.7368 55.2281 47.7368 54.4887C47.7368 52.9846 46.5079 51.7578 45.0012 51.7578Z" stroke="white" stroke-width="1.25"/>
<path d="M45.0012 51.7578C43.4945 51.7578 42.2656 52.9846 42.2656 54.4887C42.2656 55.2281 42.5636 55.8998 43.0447 56.3922V58.3037C43.0447 59.3822 43.9206 60.2568 45.0012 60.2568C46.0818 60.2568 46.9577 59.3822 46.9577 58.3037V56.3922C47.4388 55.8996 47.7368 55.2281 47.7368 54.4887C47.7368 52.9846 46.5079 51.7578 45.0012 51.7578Z" stroke="#007AFF" stroke-opacity="0.04" stroke-width="1.25"/>
</svg>
