<svg width="24" height="24" viewBox="0 0 24 24" fill="none" xmlns="http://www.w3.org/2000/svg">
<circle cx="12" cy="12" r="12" fill="#007AFF"/>
<path fill-rule="evenodd" clip-rule="evenodd" d="M7.35355 12.5966C7.15829 12.7919 7.15829 13.1085 7.35355 13.3037L9.12132 15.0715L10.182 16.1322C10.3772 16.3274 10.6938 16.3274 10.8891 16.1322L11.9497 15.0715L17.1317 9.88954C17.327 9.69427 17.327 9.37769 17.1317 9.18243L16.4246 8.47532C16.2294 8.28006 15.9128 8.28006 15.7175 8.47532L10.5355 13.6573L8.76777 11.8895C8.5725 11.6943 8.25592 11.6943 8.06066 11.8895L7.35355 12.5966Z" fill="white"/>
<path d="M7.35355 13.3037L7.26517 13.3921L7.35355 13.3037ZM9.12132 15.0715L9.20971 14.9831L9.12132 15.0715ZM10.5355 13.6573L10.4471 13.7457L10.5355 13.8341L10.6239 13.7457L10.5355 13.6573ZM7.44194 13.2154C7.2955 13.0689 7.2955 12.8315 7.44194 12.685L7.26517 12.5083C7.02109 12.7523 7.02109 13.1481 7.26517 13.3921L7.44194 13.2154ZM9.20971 14.9831L7.44194 13.2154L7.26517 13.3921L9.03293 15.1599L9.20971 14.9831ZM10.2704 16.0438L9.20971 14.9831L9.03293 15.1599L10.0936 16.2206L10.2704 16.0438ZM10.8007 16.0438C10.6543 16.1902 10.4168 16.1902 10.2704 16.0438L10.0936 16.2206C10.3377 16.4646 10.7334 16.4646 10.9775 16.2206L10.8007 16.0438ZM11.8614 14.9831L10.8007 16.0438L10.9775 16.2206L12.0381 15.1599L11.8614 14.9831ZM17.0433 9.80115L11.8614 14.9831L12.0381 15.1599L17.2201 9.97792L17.0433 9.80115ZM17.0433 9.27082C17.1898 9.41726 17.1898 9.6547 17.0433 9.80115L17.2201 9.97792C17.4642 9.73385 17.4642 9.33812 17.2201 9.09404L17.0433 9.27082ZM16.3362 8.56371L17.0433 9.27082L17.2201 9.09404L16.513 8.38693L16.3362 8.56371ZM15.8059 8.56371C15.9523 8.41726 16.1898 8.41726 16.3362 8.56371L16.513 8.38693C16.2689 8.14286 15.8732 8.14286 15.6291 8.38693L15.8059 8.56371ZM10.6239 13.7457L15.8059 8.56371L15.6291 8.38693L10.4471 13.5689L10.6239 13.7457ZM8.67938 11.9779L10.4471 13.7457L10.6239 13.5689L8.85616 11.8011L8.67938 11.9779ZM8.14905 11.9779C8.2955 11.8315 8.53293 11.8315 8.67938 11.9779L8.85616 11.8011C8.61208 11.5571 8.21635 11.5571 7.97227 11.8011L8.14905 11.9779ZM7.44194 12.685L8.14905 11.9779L7.97227 11.8011L7.26517 12.5083L7.44194 12.685Z" fill="white"/>
</svg>
