<svg width="445" height="221" viewBox="0 0 445 221" fill="none" xmlns="http://www.w3.org/2000/svg">
<rect width="445" height="350" rx="20" fill="white"/>
<mask id="mask0_0_8295" style="mask-type:luminance" maskUnits="userSpaceOnUse" x="0" y="0" width="445" height="350">
<rect width="445" height="350" rx="20" fill="white"/>
</mask>
<g mask="url(#mask0_0_8295)">
<path opacity="0.0526065" d="M15 56.8C15 49.5193 15 45.879 16.4169 43.0981C17.6633 40.652 19.652 38.6633 22.0981 37.4169C24.879 36 28.5193 36 35.8 36H74C79.6005 36 82.4008 36 84.5399 37.0899C86.4215 38.0487 87.9513 39.5785 88.9101 41.4601C90 43.5992 90 46.3995 90 52V95C90 100.601 90 103.401 88.9101 105.54C87.9513 107.422 86.4215 108.951 84.5399 109.91C82.4008 111 79.6005 111 74 111H31C25.3995 111 22.5992 111 20.4601 109.91C18.5785 108.951 17.0487 107.422 16.0899 105.54C15 103.401 15 100.601 15 95V56.8Z" fill="#007AFF"/>
<path d="M64.8701 70H62.6092V67.6667C62.6098 67.2023 62.4313 66.7569 62.1132 66.4285C61.7951 66.1002 61.3634 65.916 60.9135 65.9167H52.2937C51.7826 65.9168 51.2987 65.6789 50.9768 65.2692L49.8689 63.8633C49.4412 63.3172 48.7972 62.9998 48.1167 63H41.6957C41.2458 62.9994 40.8141 63.1836 40.496 63.5119C40.1779 63.8402 39.9994 64.2857 40 64.75V81.9991C39.9977 82.53 40.2036 83.0392 40.5709 83.4108C40.931 83.7899 41.4244 84.0024 41.9388 84H60.9644C61.8269 83.9997 62.5862 83.4131 62.8296 82.5591L65.9553 71.4933C66.0542 71.1409 65.9869 70.7609 65.7736 70.4674C65.5602 70.1738 65.2257 70.0007 64.8701 70Z" fill="#007AFF"/>
<path d="M64.8689 70H48.8016C47.9399 70.0001 47.1817 70.5871 46.9406 71.4408L43.7979 82.56C43.5567 83.4133 42.7988 84 41.9375 84H60.9653C61.8271 84.0001 62.5855 83.413 62.8267 82.5592L65.9542 71.4933C66.0538 71.1408 65.9868 70.7604 65.7733 70.4666C65.5598 70.1729 65.2247 70 64.8689 70Z" fill="#00A4FF"/>
<circle cx="63.5" cy="81.5" r="6.75" fill="#0BD47D" stroke="#FBFBFB" stroke-width="1.5"/>
<path fill-rule="evenodd" clip-rule="evenodd" d="M62.7004 83.6712C62.7062 83.6654 62.7122 83.6594 62.7184 83.6532L62.8598 83.5118L66.3954 79.9762L66.3954 79.9762C66.4944 79.8772 66.5439 79.8277 66.5624 79.7706C66.5787 79.7204 66.5787 79.6663 66.5624 79.6161C66.5439 79.559 66.4944 79.5095 66.3954 79.4105L66.254 79.2691C66.1549 79.1701 66.1054 79.1206 66.0484 79.1021C65.9982 79.0858 65.9441 79.0858 65.8939 79.1021C65.8368 79.1206 65.7873 79.1701 65.6883 79.2691L62.4356 82.5218L61.3042 81.3904C61.2052 81.2914 61.1557 81.2419 61.0986 81.2234C61.0484 81.2071 60.9943 81.2071 60.9441 81.2234C60.887 81.2419 60.8375 81.2914 60.7385 81.3904L60.5971 81.5319C60.4981 81.6309 60.4486 81.6804 60.43 81.7375C60.4137 81.7877 60.4137 81.8417 60.43 81.892C60.4486 81.949 60.4981 81.9985 60.5971 82.0975L62.0113 83.5118L62.1527 83.6532C62.2517 83.7522 62.3012 83.8017 62.3583 83.8202C62.4085 83.8366 62.4626 83.8366 62.5128 83.8202C62.5663 83.8028 62.6132 83.7583 62.7004 83.6712Z" fill="white"/>
<path d="M62.7184 83.6532L62.8245 83.7593L62.8245 83.7592L62.7184 83.6532ZM62.7004 83.6712L62.5944 83.565L62.5944 83.565L62.7004 83.6712ZM62.8598 83.5118L62.7538 83.4057L62.8598 83.5118ZM66.3954 79.9762L66.3017 79.8591L66.2952 79.8643L66.2893 79.8702L66.3954 79.9762ZM66.3954 79.9762L66.4891 80.0934L66.4956 80.0882L66.5014 80.0823L66.3954 79.9762ZM66.5624 79.7706L66.7051 79.817H66.7051L66.5624 79.7706ZM66.5624 79.6161L66.7051 79.5698H66.7051L66.5624 79.6161ZM66.3954 79.4105L66.5014 79.3045H66.5014L66.3954 79.4105ZM66.254 79.2691L66.1479 79.3752H66.1479L66.254 79.2691ZM66.0484 79.1021L66.002 79.2447L66.002 79.2447L66.0484 79.1021ZM65.8939 79.1021L65.9402 79.2447L65.9402 79.2447L65.8939 79.1021ZM65.6883 79.2691L65.7943 79.3752L65.6883 79.2691ZM62.4356 82.5218L62.3295 82.6279L62.4356 82.7339L62.5416 82.6279L62.4356 82.5218ZM61.0986 81.2234L61.145 81.0807H61.145L61.0986 81.2234ZM60.9441 81.2234L60.8978 81.0807H60.8978L60.9441 81.2234ZM60.43 81.7375L60.5727 81.7838L60.43 81.7375ZM60.43 81.892L60.5727 81.8456L60.5727 81.8456L60.43 81.892ZM60.5971 82.0975L60.491 82.2036L60.5971 82.0975ZM62.0113 83.5118L62.1174 83.4057L62.0113 83.5118ZM62.1527 83.6532L62.0467 83.7592V83.7592L62.1527 83.6532ZM62.3583 83.8202L62.312 83.9629V83.9629L62.3583 83.8202ZM62.5128 83.8202L62.5592 83.9629L62.5592 83.9629L62.5128 83.8202ZM62.6124 83.5471C62.6062 83.5533 62.6002 83.5593 62.5944 83.565L62.8064 83.7773C62.8123 83.7715 62.8183 83.7654 62.8245 83.7593L62.6124 83.5471ZM62.7538 83.4057L62.6124 83.5471L62.8245 83.7592L62.9659 83.6178L62.7538 83.4057ZM66.2893 79.8702L62.7538 83.4057L62.9659 83.6178L66.5014 80.0823L66.2893 79.8702ZM66.3017 79.8591L66.3017 79.8591L66.4891 80.0934L66.4891 80.0934L66.3017 79.8591ZM66.4198 79.7243C66.419 79.7265 66.4158 79.7358 66.3947 79.7606C66.3725 79.7868 66.3406 79.8189 66.2893 79.8702L66.5014 80.0823C66.5492 80.0345 66.5915 79.9924 66.6234 79.9548C66.6565 79.9158 66.6873 79.8719 66.7051 79.817L66.4198 79.7243ZM66.4198 79.6625C66.4263 79.6826 66.4263 79.7042 66.4198 79.7243L66.7051 79.817C66.7312 79.7367 66.7312 79.6501 66.7051 79.5698L66.4198 79.6625ZM66.2893 79.5166C66.3406 79.5679 66.3725 79.6 66.3947 79.6261C66.4158 79.6509 66.419 79.6603 66.4198 79.6625L66.7051 79.5698C66.6873 79.5149 66.6565 79.471 66.6234 79.432C66.5915 79.3943 66.5492 79.3522 66.5014 79.3045L66.2893 79.5166ZM66.1479 79.3752L66.2893 79.5166L66.5014 79.3045L66.36 79.1631L66.1479 79.3752ZM66.002 79.2447C66.0042 79.2454 66.0136 79.2487 66.0384 79.2698C66.0645 79.292 66.0966 79.3239 66.1479 79.3752L66.36 79.1631C66.3123 79.1153 66.2702 79.073 66.2325 79.0411C66.1935 79.008 66.1496 78.9772 66.0947 78.9594L66.002 79.2447ZM65.9402 79.2447C65.9603 79.2382 65.9819 79.2382 66.002 79.2447L66.0947 78.9594C66.0144 78.9333 65.9278 78.9333 65.8475 78.9594L65.9402 79.2447ZM65.7943 79.3752C65.8456 79.3239 65.8777 79.292 65.9039 79.2698C65.9286 79.2487 65.938 79.2454 65.9402 79.2447L65.8475 78.9594C65.7926 78.9772 65.7487 79.008 65.7097 79.0411C65.6721 79.073 65.63 79.1153 65.5822 79.1631L65.7943 79.3752ZM62.5416 82.6279L65.7943 79.3752L65.5822 79.1631L62.3295 82.4157L62.5416 82.6279ZM61.1981 81.4965L62.3295 82.6279L62.5416 82.4157L61.4103 81.2844L61.1981 81.4965ZM61.0523 81.366C61.0545 81.3668 61.0638 81.37 61.0886 81.3911C61.1147 81.4133 61.1469 81.4453 61.1981 81.4965L61.4103 81.2844C61.3625 81.2366 61.3204 81.1943 61.2828 81.1624C61.2438 81.1293 61.1998 81.0986 61.145 81.0807L61.0523 81.366ZM60.9905 81.366C61.0105 81.3595 61.0322 81.3595 61.0523 81.366L61.145 81.0807C61.0646 81.0546 60.9781 81.0546 60.8978 81.0807L60.9905 81.366ZM60.8446 81.4965C60.8958 81.4453 60.928 81.4133 60.9541 81.3911C60.9789 81.37 60.9883 81.3668 60.9905 81.366L60.8978 81.0807C60.8429 81.0986 60.7989 81.1293 60.76 81.1624C60.7223 81.1943 60.6802 81.2366 60.6325 81.2844L60.8446 81.4965ZM60.7032 81.6379L60.8446 81.4965L60.6325 81.2844L60.491 81.4258L60.7032 81.6379ZM60.5727 81.7838C60.5734 81.7816 60.5767 81.7722 60.5977 81.7475C60.6199 81.7213 60.6519 81.6892 60.7032 81.6379L60.491 81.4258C60.4433 81.4735 60.401 81.5157 60.369 81.5533C60.336 81.5923 60.3052 81.6362 60.2874 81.6911L60.5727 81.7838ZM60.5727 81.8456C60.5662 81.8255 60.5662 81.8039 60.5727 81.7838L60.2874 81.6911C60.2613 81.7714 60.2613 81.858 60.2874 81.9383L60.5727 81.8456ZM60.7032 81.9915C60.6519 81.9402 60.6199 81.9081 60.5977 81.882C60.5767 81.8572 60.5734 81.8478 60.5727 81.8456L60.2874 81.9383C60.3052 81.9932 60.336 82.0371 60.369 82.0761C60.401 82.1138 60.4433 82.1559 60.491 82.2036L60.7032 81.9915ZM62.1174 83.4057L60.7032 81.9915L60.491 82.2036L61.9052 83.6178L62.1174 83.4057ZM62.2588 83.5471L62.1174 83.4057L61.9052 83.6178L62.0467 83.7592L62.2588 83.5471ZM62.4047 83.6776C62.4025 83.6769 62.3931 83.6736 62.3683 83.6525C62.3422 83.6303 62.31 83.5984 62.2588 83.5471L62.0467 83.7592C62.0944 83.807 62.1365 83.8493 62.1742 83.8812C62.2132 83.9143 62.2571 83.9451 62.312 83.9629L62.4047 83.6776ZM62.4665 83.6776C62.4464 83.6841 62.4248 83.6841 62.4047 83.6776L62.312 83.9629C62.3923 83.989 62.4788 83.989 62.5592 83.9629L62.4665 83.6776ZM62.5944 83.565C62.5498 83.6096 62.5213 83.6373 62.4985 83.6562C62.4769 83.674 62.4685 83.6769 62.4665 83.6776L62.5592 83.9629C62.6107 83.9462 62.6524 83.9181 62.6895 83.8875C62.7253 83.858 62.7639 83.8198 62.8064 83.7773L62.5944 83.565Z" fill="white"/>
<path opacity="0.0526065" d="M100 56.8C100 49.5193 100 45.879 101.417 43.0981C102.663 40.652 104.652 38.6633 107.098 37.4169C109.879 36 113.519 36 120.8 36H159C164.601 36 167.401 36 169.54 37.0899C171.422 38.0487 172.951 39.5785 173.91 41.4601C175 43.5992 175 46.3995 175 52V95C175 100.601 175 103.401 173.91 105.54C172.951 107.422 171.422 108.951 169.54 109.91C167.401 111 164.601 111 159 111H116C110.399 111 107.599 111 105.46 109.91C103.578 108.951 102.049 107.422 101.09 105.54C100 103.401 100 100.601 100 95V56.8Z" fill="#007AFF"/>
<path d="M149.87 70H147.609V67.6667C147.61 67.2023 147.431 66.7569 147.113 66.4285C146.795 66.1002 146.363 65.916 145.913 65.9167H137.294C136.783 65.9168 136.299 65.6789 135.977 65.2692L134.869 63.8633C134.441 63.3172 133.797 62.9998 133.117 63H126.696C126.246 62.9994 125.814 63.1836 125.496 63.5119C125.178 63.8402 124.999 64.2857 125 64.75V81.9991C124.998 82.53 125.204 83.0392 125.571 83.4108C125.931 83.7899 126.424 84.0024 126.939 84H145.964C146.827 83.9997 147.586 83.4131 147.83 82.5591L150.955 71.4933C151.054 71.1409 150.987 70.7609 150.774 70.4674C150.56 70.1738 150.226 70.0007 149.87 70Z" fill="#007AFF"/>
<path d="M149.869 70H133.802C132.94 70.0001 132.182 70.5871 131.941 71.4408L128.798 82.56C128.557 83.4133 127.799 84 126.938 84H145.965C146.827 84.0001 147.586 83.413 147.827 82.5592L150.954 71.4933C151.054 71.1408 150.987 70.7604 150.773 70.4666C150.56 70.1729 150.225 70 149.869 70Z" fill="#00A4FF"/>
<circle cx="148.5" cy="81.5" r="6.75" fill="#0BD47D" stroke="#FBFBFB" stroke-width="1.5"/>
<path fill-rule="evenodd" clip-rule="evenodd" d="M147.7 83.6712C147.706 83.6654 147.712 83.6594 147.718 83.6532L147.86 83.5118L151.395 79.9762L151.395 79.9762C151.494 79.8772 151.544 79.8277 151.562 79.7706C151.579 79.7204 151.579 79.6663 151.562 79.6161C151.544 79.559 151.494 79.5095 151.395 79.4105L151.254 79.2691C151.155 79.1701 151.105 79.1206 151.048 79.1021C150.998 79.0858 150.944 79.0858 150.894 79.1021C150.837 79.1206 150.787 79.1701 150.688 79.2691L147.436 82.5218L146.304 81.3904C146.205 81.2914 146.156 81.2419 146.099 81.2234C146.048 81.2071 145.994 81.2071 145.944 81.2234C145.887 81.2419 145.838 81.2914 145.739 81.3904L145.597 81.5319C145.498 81.6309 145.449 81.6804 145.43 81.7375C145.414 81.7877 145.414 81.8417 145.43 81.892C145.449 81.949 145.498 81.9985 145.597 82.0975L147.011 83.5118L147.153 83.6532C147.252 83.7522 147.301 83.8017 147.358 83.8202C147.409 83.8366 147.463 83.8366 147.513 83.8202C147.566 83.8028 147.613 83.7583 147.7 83.6712Z" fill="white"/>
<path d="M147.718 83.6532L147.824 83.7593L147.824 83.7592L147.718 83.6532ZM147.7 83.6712L147.594 83.565L147.594 83.565L147.7 83.6712ZM147.86 83.5118L147.754 83.4057L147.86 83.5118ZM151.395 79.9762L151.302 79.8591L151.295 79.8643L151.289 79.8702L151.395 79.9762ZM151.395 79.9762L151.489 80.0934L151.496 80.0882L151.501 80.0823L151.395 79.9762ZM151.562 79.7706L151.705 79.817H151.705L151.562 79.7706ZM151.562 79.6161L151.705 79.5698H151.705L151.562 79.6161ZM151.395 79.4105L151.501 79.3045H151.501L151.395 79.4105ZM151.254 79.2691L151.148 79.3752H151.148L151.254 79.2691ZM151.048 79.1021L151.002 79.2447L151.002 79.2447L151.048 79.1021ZM150.894 79.1021L150.94 79.2447L150.94 79.2447L150.894 79.1021ZM150.688 79.2691L150.794 79.3752L150.688 79.2691ZM147.436 82.5218L147.33 82.6279L147.436 82.7339L147.542 82.6279L147.436 82.5218ZM146.099 81.2234L146.145 81.0807H146.145L146.099 81.2234ZM145.944 81.2234L145.898 81.0807H145.898L145.944 81.2234ZM145.43 81.7375L145.573 81.7838L145.43 81.7375ZM145.43 81.892L145.573 81.8456L145.573 81.8456L145.43 81.892ZM145.597 82.0975L145.491 82.2036L145.597 82.0975ZM147.011 83.5118L147.117 83.4057L147.011 83.5118ZM147.153 83.6532L147.047 83.7592V83.7592L147.153 83.6532ZM147.358 83.8202L147.312 83.9629V83.9629L147.358 83.8202ZM147.513 83.8202L147.559 83.9629L147.559 83.9629L147.513 83.8202ZM147.612 83.5471C147.606 83.5533 147.6 83.5593 147.594 83.565L147.806 83.7773C147.812 83.7715 147.818 83.7654 147.824 83.7593L147.612 83.5471ZM147.754 83.4057L147.612 83.5471L147.824 83.7592L147.966 83.6178L147.754 83.4057ZM151.289 79.8702L147.754 83.4057L147.966 83.6178L151.501 80.0823L151.289 79.8702ZM151.302 79.8591L151.302 79.8591L151.489 80.0934L151.489 80.0934L151.302 79.8591ZM151.42 79.7243C151.419 79.7265 151.416 79.7358 151.395 79.7606C151.373 79.7868 151.341 79.8189 151.289 79.8702L151.501 80.0823C151.549 80.0345 151.591 79.9924 151.623 79.9548C151.657 79.9158 151.687 79.8719 151.705 79.817L151.42 79.7243ZM151.42 79.6625C151.426 79.6826 151.426 79.7042 151.42 79.7243L151.705 79.817C151.731 79.7367 151.731 79.6501 151.705 79.5698L151.42 79.6625ZM151.289 79.5166C151.341 79.5679 151.373 79.6 151.395 79.6261C151.416 79.6509 151.419 79.6603 151.42 79.6625L151.705 79.5698C151.687 79.5149 151.657 79.471 151.623 79.432C151.591 79.3943 151.549 79.3522 151.501 79.3045L151.289 79.5166ZM151.148 79.3752L151.289 79.5166L151.501 79.3045L151.36 79.1631L151.148 79.3752ZM151.002 79.2447C151.004 79.2454 151.014 79.2487 151.038 79.2698C151.064 79.292 151.097 79.3239 151.148 79.3752L151.36 79.1631C151.312 79.1153 151.27 79.073 151.233 79.0411C151.194 79.008 151.15 78.9772 151.095 78.9594L151.002 79.2447ZM150.94 79.2447C150.96 79.2382 150.982 79.2382 151.002 79.2447L151.095 78.9594C151.014 78.9333 150.928 78.9333 150.848 78.9594L150.94 79.2447ZM150.794 79.3752C150.846 79.3239 150.878 79.292 150.904 79.2698C150.929 79.2487 150.938 79.2454 150.94 79.2447L150.848 78.9594C150.793 78.9772 150.749 79.008 150.71 79.0411C150.672 79.073 150.63 79.1153 150.582 79.1631L150.794 79.3752ZM147.542 82.6279L150.794 79.3752L150.582 79.1631L147.33 82.4157L147.542 82.6279ZM146.198 81.4965L147.33 82.6279L147.542 82.4157L146.41 81.2844L146.198 81.4965ZM146.052 81.366C146.054 81.3668 146.064 81.37 146.089 81.3911C146.115 81.4133 146.147 81.4453 146.198 81.4965L146.41 81.2844C146.363 81.2366 146.32 81.1943 146.283 81.1624C146.244 81.1293 146.2 81.0986 146.145 81.0807L146.052 81.366ZM145.99 81.366C146.011 81.3595 146.032 81.3595 146.052 81.366L146.145 81.0807C146.065 81.0546 145.978 81.0546 145.898 81.0807L145.99 81.366ZM145.845 81.4965C145.896 81.4453 145.928 81.4133 145.954 81.3911C145.979 81.37 145.988 81.3668 145.99 81.366L145.898 81.0807C145.843 81.0986 145.799 81.1293 145.76 81.1624C145.722 81.1943 145.68 81.2366 145.632 81.2844L145.845 81.4965ZM145.703 81.6379L145.845 81.4965L145.632 81.2844L145.491 81.4258L145.703 81.6379ZM145.573 81.7838C145.573 81.7816 145.577 81.7722 145.598 81.7475C145.62 81.7213 145.652 81.6892 145.703 81.6379L145.491 81.4258C145.443 81.4735 145.401 81.5157 145.369 81.5533C145.336 81.5923 145.305 81.6362 145.287 81.6911L145.573 81.7838ZM145.573 81.8456C145.566 81.8255 145.566 81.8039 145.573 81.7838L145.287 81.6911C145.261 81.7714 145.261 81.858 145.287 81.9383L145.573 81.8456ZM145.703 81.9915C145.652 81.9402 145.62 81.9081 145.598 81.882C145.577 81.8572 145.573 81.8478 145.573 81.8456L145.287 81.9383C145.305 81.9932 145.336 82.0371 145.369 82.0761C145.401 82.1138 145.443 82.1559 145.491 82.2036L145.703 81.9915ZM147.117 83.4057L145.703 81.9915L145.491 82.2036L146.905 83.6178L147.117 83.4057ZM147.259 83.5471L147.117 83.4057L146.905 83.6178L147.047 83.7592L147.259 83.5471ZM147.405 83.6776C147.402 83.6769 147.393 83.6736 147.368 83.6525C147.342 83.6303 147.31 83.5984 147.259 83.5471L147.047 83.7592C147.094 83.807 147.137 83.8493 147.174 83.8812C147.213 83.9143 147.257 83.9451 147.312 83.9629L147.405 83.6776ZM147.466 83.6776C147.446 83.6841 147.425 83.6841 147.405 83.6776L147.312 83.9629C147.392 83.989 147.479 83.989 147.559 83.9629L147.466 83.6776ZM147.594 83.565C147.55 83.6096 147.521 83.6373 147.498 83.6562C147.477 83.674 147.468 83.6769 147.466 83.6776L147.559 83.9629C147.611 83.9462 147.652 83.9181 147.69 83.8875C147.725 83.858 147.764 83.8198 147.806 83.7773L147.594 83.565Z" fill="white"/>
<path d="M185 56.8C185 49.5193 185 45.879 186.417 43.0981C187.663 40.652 189.652 38.6633 192.098 37.4169C194.879 36 198.519 36 205.8 36H244C249.601 36 252.401 36 254.54 37.0899C256.422 38.0487 257.951 39.5785 258.91 41.4601C260 43.5992 260 46.3995 260 52V95C260 100.601 260 103.401 258.91 105.54C257.951 107.422 256.422 108.951 254.54 109.91C252.401 111 249.601 111 244 111H201C195.399 111 192.599 111 190.46 109.91C188.578 108.951 187.049 107.422 186.09 105.54C185 103.401 185 100.601 185 95V56.8Z" fill="#F7F7F7"/>
<rect x="193" y="98" width="59" height="5" rx="2.5" fill="white"/>
<rect x="193" y="98" width="36" height="5" rx="2.5" fill="#0BD47D"/>
<path d="M234.87 70H232.609V67.6667C232.61 67.2023 232.431 66.7569 232.113 66.4285C231.795 66.1002 231.363 65.916 230.913 65.9167H222.294C221.783 65.9168 221.299 65.6789 220.977 65.2692L219.869 63.8633C219.441 63.3172 218.797 62.9998 218.117 63H211.696C211.246 62.9994 210.814 63.1836 210.496 63.5119C210.178 63.8402 209.999 64.2857 210 64.75V81.9991C209.998 82.53 210.204 83.0392 210.571 83.4108C210.931 83.7899 211.424 84.0024 211.939 84H230.964C231.827 83.9997 232.586 83.4131 232.83 82.5591L235.955 71.4933C236.054 71.1409 235.987 70.7609 235.774 70.4674C235.56 70.1738 235.226 70.0007 234.87 70Z" fill="#909999"/>
<path d="M234.869 70H218.802C217.94 70.0001 217.182 70.5871 216.941 71.4408L213.798 82.56C213.557 83.4133 212.799 84 211.938 84H230.965C231.827 84.0001 232.586 83.413 232.827 82.5592L235.954 71.4933C236.054 71.1408 235.987 70.7604 235.773 70.4666C235.56 70.1729 235.225 70 234.869 70Z" fill="#C0CCCC"/>
<circle cx="233.5" cy="81.5" r="6.75" fill="#151D9C" stroke="white" stroke-width="1.5"/>
<rect x="235.973" y="83.2676" width="1" height="6" rx="0.25" transform="rotate(135 235.973 83.2676)" fill="white" stroke="white" stroke-width="0.25"/>
<rect x="231.73" y="83.9746" width="1" height="6" rx="0.25" transform="rotate(-135 231.73 83.9746)" fill="white" stroke="white" stroke-width="0.25"/>
<path d="M270 56.8C270 49.5193 270 45.879 271.417 43.0981C272.663 40.652 274.652 38.6633 277.098 37.4169C279.879 36 283.519 36 290.8 36H329C334.601 36 337.401 36 339.54 37.0899C341.422 38.0487 342.951 39.5785 343.91 41.4601C345 43.5992 345 46.3995 345 52V95C345 100.601 345 103.401 343.91 105.54C342.951 107.422 341.422 108.951 339.54 109.91C337.401 111 334.601 111 329 111H286C280.399 111 277.599 111 275.46 109.91C273.578 108.951 272.049 107.422 271.09 105.54C270 103.401 270 100.601 270 95V56.8Z" fill="#F7F7F7"/>
<rect x="278" y="98" width="59" height="5" rx="2.5" fill="white"/>
<path d="M319.87 70H317.609V67.6667C317.61 67.2023 317.431 66.7569 317.113 66.4285C316.795 66.1002 316.363 65.916 315.913 65.9167H307.294C306.783 65.9168 306.299 65.6789 305.977 65.2692L304.869 63.8633C304.441 63.3172 303.797 62.9998 303.117 63H296.696C296.246 62.9994 295.814 63.1836 295.496 63.5119C295.178 63.8402 294.999 64.2857 295 64.75V81.9991C294.998 82.53 295.204 83.0392 295.571 83.4108C295.931 83.7899 296.424 84.0024 296.939 84H315.964C316.827 83.9997 317.586 83.4131 317.83 82.5591L320.955 71.4933C321.054 71.1409 320.987 70.7609 320.774 70.4674C320.56 70.1738 320.226 70.0007 319.87 70Z" fill="#909999"/>
<path d="M319.869 70H303.802C302.94 70.0001 302.182 70.5871 301.941 71.4408L298.798 82.56C298.557 83.4133 297.799 84 296.938 84H315.965C316.827 84.0001 317.586 83.413 317.827 82.5592L320.954 71.4933C321.054 71.1408 320.987 70.7604 320.773 70.4666C320.56 70.1729 320.225 70 319.869 70Z" fill="#C0CCCC"/>
<circle cx="318.5" cy="81.5" r="6.75" fill="#151D9C" stroke="white" stroke-width="1.5"/>
<rect x="320.973" y="83.2676" width="1" height="6" rx="0.25" transform="rotate(135 320.973 83.2676)" fill="white" stroke="white" stroke-width="0.25"/>
<rect x="316.73" y="83.9746" width="1" height="6" rx="0.25" transform="rotate(-135 316.73 83.9746)" fill="white" stroke="white" stroke-width="0.25"/>
<path d="M355 56.8C355 49.5193 355 45.879 356.417 43.0981C357.663 40.652 359.652 38.6633 362.098 37.4169C364.879 36 368.519 36 375.8 36H414C419.601 36 422.401 36 424.54 37.0899C426.422 38.0487 427.951 39.5785 428.91 41.4601C430 43.5992 430 46.3995 430 52V95C430 100.601 430 103.401 428.91 105.54C427.951 107.422 426.422 108.951 424.54 109.91C422.401 111 419.601 111 414 111H371C365.399 111 362.599 111 360.46 109.91C358.578 108.951 357.049 107.422 356.09 105.54C355 103.401 355 100.601 355 95V56.8Z" fill="#F7F7F7"/>
<rect x="363" y="98" width="59" height="5" rx="2.5" fill="white"/>
<path d="M404.87 70H402.609V67.6667C402.61 67.2023 402.431 66.7569 402.113 66.4285C401.795 66.1002 401.363 65.916 400.913 65.9167H392.294C391.783 65.9168 391.299 65.6789 390.977 65.2692L389.869 63.8633C389.441 63.3172 388.797 62.9998 388.117 63H381.696C381.246 62.9994 380.814 63.1836 380.496 63.5119C380.178 63.8402 379.999 64.2857 380 64.75V81.9991C379.998 82.53 380.204 83.0392 380.571 83.4108C380.931 83.7899 381.424 84.0024 381.939 84H400.964C401.827 83.9997 402.586 83.4131 402.83 82.5591L405.955 71.4933C406.054 71.1409 405.987 70.7609 405.774 70.4674C405.56 70.1738 405.226 70.0007 404.87 70Z" fill="#909999"/>
<path d="M404.869 70H388.802C387.94 70.0001 387.182 70.5871 386.941 71.4408L383.798 82.56C383.557 83.4133 382.799 84 381.938 84H400.965C401.827 84.0001 402.586 83.413 402.827 82.5592L405.954 71.4933C406.054 71.1408 405.987 70.7604 405.773 70.4666C405.56 70.1729 405.225 70 404.869 70Z" fill="#C0CCCC"/>
<circle cx="403.5" cy="81.5" r="6.75" fill="#151D9C" stroke="white" stroke-width="1.5"/>
<rect x="405.973" y="83.2676" width="1" height="6" rx="0.25" transform="rotate(135 405.973 83.2676)" fill="white" stroke="white" stroke-width="0.25"/>
<rect x="401.73" y="83.9746" width="1" height="6" rx="0.25" transform="rotate(-135 401.73 83.9746)" fill="white" stroke="white" stroke-width="0.25"/>
<path d="M270 141.8C270 134.519 270 130.879 271.417 128.098C272.663 125.652 274.652 123.663 277.098 122.417C279.879 121 283.519 121 290.8 121H329C334.601 121 337.401 121 339.54 122.09C341.422 123.049 342.951 124.578 343.91 126.46C345 128.599 345 131.399 345 137V180C345 185.601 345 188.401 343.91 190.54C342.951 192.422 341.422 193.951 339.54 194.91C337.401 196 334.601 196 329 196H286C280.399 196 277.599 196 275.46 194.91C273.578 193.951 272.049 192.422 271.09 190.54C270 188.401 270 185.601 270 180V141.8Z" fill="#F7F7F7"/>
<rect x="278" y="183" width="59" height="5" rx="2.5" fill="white"/>
<path d="M319.87 155H317.609V152.667C317.61 152.202 317.431 151.757 317.113 151.429C316.795 151.1 316.363 150.916 315.913 150.917H307.294C306.783 150.917 306.299 150.679 305.977 150.269L304.869 148.863C304.441 148.317 303.797 148 303.117 148H296.696C296.246 147.999 295.814 148.184 295.496 148.512C295.178 148.84 294.999 149.286 295 149.75V166.999C294.998 167.53 295.204 168.039 295.571 168.411C295.931 168.79 296.424 169.002 296.939 169H315.964C316.827 169 317.586 168.413 317.83 167.559L320.955 156.493C321.054 156.141 320.987 155.761 320.774 155.467C320.56 155.174 320.226 155.001 319.87 155Z" fill="#909999"/>
<path d="M319.869 155H303.802C302.94 155 302.182 155.587 301.941 156.441L298.798 167.56C298.557 168.413 297.799 169 296.938 169H315.965C316.827 169 317.586 168.413 317.827 167.559L320.954 156.493C321.054 156.141 320.987 155.76 320.773 155.467C320.56 155.173 320.225 155 319.869 155Z" fill="#C0CCCC"/>
<circle cx="318.5" cy="166.5" r="6.75" fill="#151D9C" stroke="white" stroke-width="1.5"/>
<rect x="320.973" y="168.268" width="1" height="6" rx="0.25" transform="rotate(135 320.973 168.268)" fill="white" stroke="white" stroke-width="0.25"/>
<rect x="316.73" y="168.975" width="1" height="6" rx="0.25" transform="rotate(-135 316.73 168.975)" fill="white" stroke="white" stroke-width="0.25"/>
<path d="M355 141.8C355 134.519 355 130.879 356.417 128.098C357.663 125.652 359.652 123.663 362.098 122.417C364.879 121 368.519 121 375.8 121H414C419.601 121 422.401 121 424.54 122.09C426.422 123.049 427.951 124.578 428.91 126.46C430 128.599 430 131.399 430 137V180C430 185.601 430 188.401 428.91 190.54C427.951 192.422 426.422 193.951 424.54 194.91C422.401 196 419.601 196 414 196H371C365.399 196 362.599 196 360.46 194.91C358.578 193.951 357.049 192.422 356.09 190.54C355 188.401 355 185.601 355 180V141.8Z" fill="#F7F7F7"/>
<rect x="363" y="183" width="59" height="5" rx="2.5" fill="white"/>
<path d="M404.87 155H402.609V152.667C402.61 152.202 402.431 151.757 402.113 151.429C401.795 151.1 401.363 150.916 400.913 150.917H392.294C391.783 150.917 391.299 150.679 390.977 150.269L389.869 148.863C389.441 148.317 388.797 148 388.117 148H381.696C381.246 147.999 380.814 148.184 380.496 148.512C380.178 148.84 379.999 149.286 380 149.75V166.999C379.998 167.53 380.204 168.039 380.571 168.411C380.931 168.79 381.424 169.002 381.939 169H400.964C401.827 169 402.586 168.413 402.83 167.559L405.955 156.493C406.054 156.141 405.987 155.761 405.774 155.467C405.56 155.174 405.226 155.001 404.87 155Z" fill="#909999"/>
<path d="M404.869 155H388.802C387.94 155 387.182 155.587 386.941 156.441L383.798 167.56C383.557 168.413 382.799 169 381.938 169H400.965C401.827 169 402.586 168.413 402.827 167.559L405.954 156.493C406.054 156.141 405.987 155.76 405.773 155.467C405.56 155.173 405.225 155 404.869 155Z" fill="#C0CCCC"/>
<circle cx="403.5" cy="166.5" r="6.75" fill="#151D9C" stroke="white" stroke-width="1.5"/>
<rect x="405.973" y="168.268" width="1" height="6" rx="0.25" transform="rotate(135 405.973 168.268)" fill="white" stroke="white" stroke-width="0.25"/>
<rect x="401.73" y="168.975" width="1" height="6" rx="0.25" transform="rotate(-135 401.73 168.975)" fill="white" stroke="white" stroke-width="0.25"/>
<path d="M100 141.8C100 134.519 100 130.879 101.417 128.098C102.663 125.652 104.652 123.663 107.098 122.417C109.879 121 113.519 121 120.8 121H159C164.601 121 167.401 121 169.54 122.09C171.422 123.049 172.951 124.578 173.91 126.46C175 128.599 175 131.399 175 137V180C175 185.601 175 188.401 173.91 190.54C172.951 192.422 171.422 193.951 169.54 194.91C167.401 196 164.601 196 159 196H116C110.399 196 107.599 196 105.46 194.91C103.578 193.951 102.049 192.422 101.09 190.54C100 188.401 100 185.601 100 180V141.8Z" fill="#F7F7F7"/>
<rect x="108" y="183" width="59" height="5" rx="2.5" fill="white"/>
<path d="M149.87 155H147.609V152.667C147.61 152.202 147.431 151.757 147.113 151.429C146.795 151.1 146.363 150.916 145.913 150.917H137.294C136.783 150.917 136.299 150.679 135.977 150.269L134.869 148.863C134.441 148.317 133.797 148 133.117 148H126.696C126.246 147.999 125.814 148.184 125.496 148.512C125.178 148.84 124.999 149.286 125 149.75V166.999C124.998 167.53 125.204 168.039 125.571 168.411C125.931 168.79 126.424 169.002 126.939 169H145.964C146.827 169 147.586 168.413 147.83 167.559L150.955 156.493C151.054 156.141 150.987 155.761 150.774 155.467C150.56 155.174 150.226 155.001 149.87 155Z" fill="#909999"/>
<path d="M149.869 155H133.802C132.94 155 132.182 155.587 131.941 156.441L128.798 167.56C128.557 168.413 127.799 169 126.938 169H145.965C146.827 169 147.586 168.413 147.827 167.559L150.954 156.493C151.054 156.141 150.987 155.76 150.773 155.467C150.56 155.173 150.225 155 149.869 155Z" fill="#C0CCCC"/>
<circle cx="148.5" cy="166.5" r="6.75" fill="#151D9C" stroke="white" stroke-width="1.5"/>
<rect x="150.973" y="168.268" width="1" height="6" rx="0.25" transform="rotate(135 150.973 168.268)" fill="white" stroke="white" stroke-width="0.25"/>
<rect x="146.73" y="168.975" width="1" height="6" rx="0.25" transform="rotate(-135 146.73 168.975)" fill="white" stroke="white" stroke-width="0.25"/>
<path d="M15 141.8C15 134.519 15 130.879 16.4169 128.098C17.6633 125.652 19.652 123.663 22.0981 122.417C24.879 121 28.5193 121 35.8 121H74C79.6005 121 82.4008 121 84.5399 122.09C86.4215 123.049 87.9513 124.578 88.9101 126.46C90 128.599 90 131.399 90 137V180C90 185.601 90 188.401 88.9101 190.54C87.9513 192.422 86.4215 193.951 84.5399 194.91C82.4008 196 79.6005 196 74 196H31C25.3995 196 22.5992 196 20.4601 194.91C18.5785 193.951 17.0487 192.422 16.0899 190.54C15 188.401 15 185.601 15 180V141.8Z" fill="#F7F7F7"/>
<rect x="23" y="183" width="59" height="5" rx="2.5" fill="white"/>
<path d="M64.8701 155H62.6092V152.667C62.6098 152.202 62.4313 151.757 62.1132 151.429C61.7951 151.1 61.3634 150.916 60.9135 150.917H52.2937C51.7826 150.917 51.2987 150.679 50.9768 150.269L49.8689 148.863C49.4412 148.317 48.7972 148 48.1167 148H41.6957C41.2458 147.999 40.8141 148.184 40.496 148.512C40.1779 148.84 39.9994 149.286 40 149.75V166.999C39.9977 167.53 40.2036 168.039 40.5709 168.411C40.931 168.79 41.4244 169.002 41.9388 169H60.9644C61.8269 169 62.5862 168.413 62.8296 167.559L65.9553 156.493C66.0542 156.141 65.9869 155.761 65.7736 155.467C65.5602 155.174 65.2257 155.001 64.8701 155Z" fill="#909999"/>
<path d="M64.8689 155H48.8016C47.9399 155 47.1817 155.587 46.9406 156.441L43.7979 167.56C43.5567 168.413 42.7988 169 41.9375 169H60.9653C61.8271 169 62.5855 168.413 62.8267 167.559L65.9542 156.493C66.0538 156.141 65.9868 155.76 65.7733 155.467C65.5598 155.173 65.2247 155 64.8689 155Z" fill="#C0CCCC"/>
<circle cx="63.5" cy="166.5" r="6.75" fill="#151D9C" stroke="white" stroke-width="1.5"/>
<rect x="65.9727" y="168.268" width="1" height="6" rx="0.25" transform="rotate(135 65.9727 168.268)" fill="white" stroke="white" stroke-width="0.25"/>
<rect x="61.7305" y="168.975" width="1" height="6" rx="0.25" transform="rotate(-135 61.7305 168.975)" fill="white" stroke="white" stroke-width="0.25"/>
<path d="M185 141.8C185 134.519 185 130.879 186.417 128.098C187.663 125.652 189.652 123.663 192.098 122.417C194.879 121 198.519 121 205.8 121H244C249.601 121 252.401 121 254.54 122.09C256.422 123.049 257.951 124.578 258.91 126.46C260 128.599 260 131.399 260 137V180C260 185.601 260 188.401 258.91 190.54C257.951 192.422 256.422 193.951 254.54 194.91C252.401 196 249.601 196 244 196H201C195.399 196 192.599 196 190.46 194.91C188.578 193.951 187.049 192.422 186.09 190.54C185 188.401 185 185.601 185 180V141.8Z" fill="#F7F7F7"/>
<rect x="193" y="183" width="59" height="5" rx="2.5" fill="white"/>
<path d="M234.87 155H232.609V152.667C232.61 152.202 232.431 151.757 232.113 151.429C231.795 151.1 231.363 150.916 230.913 150.917H222.294C221.783 150.917 221.299 150.679 220.977 150.269L219.869 148.863C219.441 148.317 218.797 148 218.117 148H211.696C211.246 147.999 210.814 148.184 210.496 148.512C210.178 148.84 209.999 149.286 210 149.75V166.999C209.998 167.53 210.204 168.039 210.571 168.411C210.931 168.79 211.424 169.002 211.939 169H230.964C231.827 169 232.586 168.413 232.83 167.559L235.955 156.493C236.054 156.141 235.987 155.761 235.774 155.467C235.56 155.174 235.226 155.001 234.87 155Z" fill="#909999"/>
<path d="M234.869 155H218.802C217.94 155 217.182 155.587 216.941 156.441L213.798 167.56C213.557 168.413 212.799 169 211.938 169H230.965C231.827 169 232.586 168.413 232.827 167.559L235.954 156.493C236.054 156.141 235.987 155.76 235.773 155.467C235.56 155.173 235.225 155 234.869 155Z" fill="#C0CCCC"/>
<circle cx="233.5" cy="166.5" r="6.75" fill="#151D9C" stroke="white" stroke-width="1.5"/>
<rect x="235.973" y="168.268" width="1" height="6" rx="0.25" transform="rotate(135 235.973 168.268)" fill="white" stroke="white" stroke-width="0.25"/>
<rect x="231.73" y="168.975" width="1" height="6" rx="0.25" transform="rotate(-135 231.73 168.975)" fill="white" stroke="white" stroke-width="0.25"/>
<path d="M15 226.8C15 219.519 15 215.879 16.4169 213.098C17.6633 210.652 19.652 208.663 22.0981 207.417C24.879 206 28.5193 206 35.8 206H74C79.6005 206 82.4008 206 84.5399 207.09C86.4215 208.049 87.9513 209.578 88.9101 211.46C90 213.599 90 216.399 90 222V265C90 270.601 90 273.401 88.9101 275.54C87.9513 277.422 86.4215 278.951 84.5399 279.91C82.4008 281 79.6005 281 74 281H31C25.3995 281 22.5992 281 20.4601 279.91C18.5785 278.951 17.0487 277.422 16.0899 275.54C15 273.401 15 270.601 15 265V226.8Z" fill="#F7F7F7"/>
<path d="M100 226.8C100 219.519 100 215.879 101.417 213.098C102.663 210.652 104.652 208.663 107.098 207.417C109.879 206 113.519 206 120.8 206H159C164.601 206 167.401 206 169.54 207.09C171.422 208.049 172.951 209.578 173.91 211.46C175 213.599 175 216.399 175 222V265C175 270.601 175 273.401 173.91 275.54C172.951 277.422 171.422 278.951 169.54 279.91C167.401 281 164.601 281 159 281H116C110.399 281 107.599 281 105.46 279.91C103.578 278.951 102.049 277.422 101.09 275.54C100 273.401 100 270.601 100 265V226.8Z" fill="#F7F7F7"/>
<path d="M185 226.8C185 219.519 185 215.879 186.417 213.098C187.663 210.652 189.652 208.663 192.098 207.417C194.879 206 198.519 206 205.8 206H244C249.601 206 252.401 206 254.54 207.09C256.422 208.049 257.951 209.578 258.91 211.46C260 213.599 260 216.399 260 222V265C260 270.601 260 273.401 258.91 275.54C257.951 277.422 256.422 278.951 254.54 279.91C252.401 281 249.601 281 244 281H201C195.399 281 192.599 281 190.46 279.91C188.578 278.951 187.049 277.422 186.09 275.54C185 273.401 185 270.601 185 265V226.8Z" fill="#F7F7F7"/>
<path d="M270 226.8C270 219.519 270 215.879 271.417 213.098C272.663 210.652 274.652 208.663 277.098 207.417C279.879 206 283.519 206 290.8 206H329C334.601 206 337.401 206 339.54 207.09C341.422 208.049 342.951 209.578 343.91 211.46C345 213.599 345 216.399 345 222V265C345 270.601 345 273.401 343.91 275.54C342.951 277.422 341.422 278.951 339.54 279.91C337.401 281 334.601 281 329 281H286C280.399 281 277.599 281 275.46 279.91C273.578 278.951 272.049 277.422 271.09 275.54C270 273.401 270 270.601 270 265V226.8Z" fill="#F7F7F7"/>
<path d="M355 226.8C355 219.519 355 215.879 356.417 213.098C357.663 210.652 359.652 208.663 362.098 207.417C364.879 206 368.519 206 375.8 206H414C419.601 206 422.401 206 424.54 207.09C426.422 208.049 427.951 209.578 428.91 211.46C430 213.599 430 216.399 430 222V265C430 270.601 430 273.401 428.91 275.54C427.951 277.422 426.422 278.951 424.54 279.91C422.401 281 419.601 281 414 281H371C365.399 281 362.599 281 360.46 279.91C358.578 278.951 357.049 277.422 356.09 275.54C355 273.401 355 270.601 355 265V226.8Z" fill="#F7F7F7"/>
</g>
<rect x="15" y="15" width="6" height="6" rx="3" fill="#151D9C"/>
<rect x="24" y="15" width="6" height="6" rx="3" fill="#00A4FF"/>
<rect x="33" y="15" width="6" height="6" rx="3" fill="#0BD47D"/>
</svg>
