<svg width="505" height="221" viewBox="0 0 505 221" fill="none" xmlns="http://www.w3.org/2000/svg">
<path d="M0 32C0 20.799 0 15.1984 2.17987 10.9202C4.09734 7.15695 7.15695 4.09734 10.9202 2.17987C15.1984 0 20.799 0 32 0H505V350H32C20.799 350 15.1984 350 10.9202 347.82C7.15695 345.903 4.09734 342.843 2.17987 339.08C0 334.802 0 329.201 0 318V32Z" fill="white"/>
<g clip-path="url(#clip0_0_7845)">
<rect x="15.5" y="36.5" width="199" height="199" rx="14.5" stroke="#E6E8EB"/>
<rect x="225.5" y="36.5" width="319" height="199" rx="14.5" stroke="#E6E8EB"/>
<g clip-path="url(#clip1_0_7845)">
<rect x="58" y="48" width="115" height="16" rx="5" fill="#007AFF"/>
<path d="M75.3936 57V54.312L73.3536 51.04H74.4176L76.0496 53.688H75.6736L77.2976 51.04H78.3616L76.3296 54.312V57H75.3936ZM80.3113 57.096C79.8953 57.096 79.514 56.9973 79.1673 56.8C78.826 56.6027 78.554 56.3333 78.3513 55.992C78.1486 55.6507 78.0473 55.264 78.0473 54.832C78.0473 54.3947 78.1486 54.008 78.3513 53.672C78.554 53.3307 78.826 53.064 79.1673 52.872C79.5086 52.6747 79.89 52.576 80.3113 52.576C80.738 52.576 81.1193 52.6747 81.4553 52.872C81.7966 53.064 82.066 53.3307 82.2633 53.672C82.466 54.008 82.5673 54.3947 82.5673 54.832C82.5673 55.2693 82.466 55.6587 82.2633 56C82.0606 56.3413 81.7886 56.6107 81.4473 56.808C81.106 57 80.7273 57.096 80.3113 57.096ZM80.3113 56.256C80.5673 56.256 80.794 56.1947 80.9913 56.072C81.1886 55.9493 81.3433 55.7813 81.4553 55.568C81.5726 55.3493 81.6313 55.104 81.6313 54.832C81.6313 54.56 81.5726 54.3173 81.4553 54.104C81.3433 53.8907 81.1886 53.7227 80.9913 53.6C80.794 53.4773 80.5673 53.416 80.3113 53.416C80.0606 53.416 79.834 53.4773 79.6313 53.6C79.434 53.7227 79.2766 53.8907 79.1593 54.104C79.0473 54.3173 78.9913 54.56 78.9913 54.832C78.9913 55.104 79.0473 55.3493 79.1593 55.568C79.2766 55.7813 79.434 55.9493 79.6313 56.072C79.834 56.1947 80.0606 56.256 80.3113 56.256ZM84.9939 57.096C84.6685 57.096 84.3832 57.024 84.1379 56.88C83.8925 56.7307 83.7005 56.5253 83.5619 56.264C83.4285 55.9973 83.3619 55.6907 83.3619 55.344V52.672H84.2659V55.264C84.2659 55.4613 84.3059 55.6347 84.3859 55.784C84.4659 55.9333 84.5779 56.0507 84.7219 56.136C84.8659 56.216 85.0312 56.256 85.2179 56.256C85.4099 56.256 85.5779 56.2133 85.7219 56.128C85.8659 56.0427 85.9779 55.9227 86.0579 55.768C86.1432 55.6133 86.1859 55.432 86.1859 55.224V52.672H87.0819V57H86.2259V56.152L86.3219 56.264C86.2205 56.5307 86.0525 56.736 85.8179 56.88C85.5832 57.024 85.3085 57.096 84.9939 57.096ZM88.1374 57V52.672H89.0014V53.544L88.9214 53.416C89.0174 53.1333 89.172 52.9307 89.3854 52.808C89.5987 52.68 89.8547 52.616 90.1534 52.616H90.4174V53.44H90.0414C89.7427 53.44 89.5 53.5333 89.3134 53.72C89.132 53.9013 89.0414 54.1627 89.0414 54.504V57H88.1374ZM92.9223 57V53.488H92.1223V52.672H92.9223V52.448C92.9223 52.1227 92.9889 51.8507 93.1223 51.632C93.2556 51.408 93.4396 51.2373 93.6743 51.12C93.9143 51.0027 94.1889 50.944 94.4983 50.944C94.5569 50.944 94.6236 50.9493 94.6983 50.96C94.7729 50.9653 94.8343 50.9733 94.8823 50.984V51.768C94.8396 51.7573 94.7916 51.752 94.7383 51.752C94.6849 51.7467 94.6423 51.744 94.6103 51.744C94.3703 51.744 94.1783 51.8 94.0343 51.912C93.8903 52.0187 93.8183 52.1973 93.8183 52.448V52.672H95.8903V53.488H93.8183V57H92.9223ZM95.4663 57V52.672H96.3623V57H95.4663ZM97.3171 57V50.944H98.2211V57H97.3171ZM101.31 57.096C100.878 57.096 100.494 56.9973 100.158 56.8C99.8273 56.5973 99.5687 56.3253 99.382 55.984C99.1953 55.6373 99.102 55.2507 99.102 54.824C99.102 54.3867 99.1953 54 99.382 53.664C99.574 53.328 99.83 53.064 100.15 52.872C100.47 52.6747 100.833 52.576 101.238 52.576C101.563 52.576 101.854 52.632 102.11 52.744C102.366 52.856 102.582 53.0107 102.758 53.208C102.934 53.4 103.067 53.6213 103.158 53.872C103.254 54.1227 103.302 54.3893 103.302 54.672C103.302 54.7413 103.299 54.8133 103.294 54.888C103.289 54.9627 103.278 55.032 103.262 55.096H99.814V54.376H102.75L102.318 54.704C102.371 54.4427 102.353 54.2107 102.262 54.008C102.177 53.8 102.043 53.6373 101.862 53.52C101.686 53.3973 101.478 53.336 101.238 53.336C100.998 53.336 100.785 53.3973 100.598 53.52C100.411 53.6373 100.267 53.808 100.166 54.032C100.065 54.2507 100.025 54.5173 100.046 54.832C100.019 55.1253 100.059 55.3813 100.166 55.6C100.278 55.8187 100.433 55.9893 100.63 56.112C100.833 56.2347 101.062 56.296 101.318 56.296C101.579 56.296 101.801 56.2373 101.982 56.12C102.169 56.0027 102.315 55.8507 102.422 55.664L103.158 56.024C103.073 56.2267 102.939 56.4107 102.758 56.576C102.582 56.736 102.369 56.864 102.118 56.96C101.873 57.0507 101.603 57.096 101.31 57.096ZM105.784 57.096C105.342 57.096 104.952 56.9867 104.616 56.768C104.286 56.5493 104.054 56.256 103.92 55.888L104.616 55.56C104.734 55.8053 104.894 56 105.096 56.144C105.304 56.288 105.534 56.36 105.784 56.36C105.998 56.36 106.171 56.312 106.304 56.216C106.438 56.12 106.504 55.9893 106.504 55.824C106.504 55.7173 106.475 55.632 106.416 55.568C106.358 55.4987 106.283 55.4427 106.192 55.4C106.107 55.3573 106.019 55.3253 105.928 55.304L105.248 55.112C104.875 55.0053 104.595 54.8453 104.408 54.632C104.227 54.4133 104.136 54.16 104.136 53.872C104.136 53.6107 104.203 53.384 104.336 53.192C104.47 52.9947 104.654 52.8427 104.888 52.736C105.123 52.6293 105.387 52.576 105.68 52.576C106.075 52.576 106.427 52.6747 106.736 52.872C107.046 53.064 107.264 53.3333 107.392 53.68L106.696 54.008C106.611 53.8 106.475 53.6347 106.288 53.512C106.107 53.3893 105.902 53.328 105.672 53.328C105.475 53.328 105.318 53.376 105.2 53.472C105.083 53.5627 105.024 53.6827 105.024 53.832C105.024 53.9333 105.051 54.0187 105.104 54.088C105.158 54.152 105.227 54.2053 105.312 54.248C105.398 54.2853 105.486 54.3173 105.576 54.344L106.28 54.552C106.638 54.6533 106.912 54.8133 107.104 55.032C107.296 55.2453 107.392 55.5013 107.392 55.8C107.392 56.056 107.323 56.2827 107.184 56.48C107.051 56.672 106.864 56.824 106.624 56.936C106.384 57.0427 106.104 57.096 105.784 57.096ZM110.972 57.096C110.679 57.096 110.42 57.0453 110.196 56.944C109.978 56.8373 109.807 56.6933 109.684 56.512C109.562 56.3253 109.5 56.1067 109.5 55.856C109.5 55.6213 109.551 55.4107 109.652 55.224C109.759 55.0373 109.922 54.88 110.14 54.752C110.359 54.624 110.634 54.5333 110.964 54.48L112.468 54.232V54.944L111.14 55.176C110.9 55.2187 110.724 55.296 110.612 55.408C110.5 55.5147 110.444 55.6533 110.444 55.824C110.444 55.9893 110.506 56.1253 110.628 56.232C110.756 56.3333 110.919 56.384 111.116 56.384C111.362 56.384 111.575 56.3307 111.756 56.224C111.943 56.1173 112.087 55.976 112.188 55.8C112.29 55.6187 112.34 55.4187 112.34 55.2V54.088C112.34 53.8747 112.26 53.7013 112.1 53.568C111.946 53.4293 111.738 53.36 111.476 53.36C111.236 53.36 111.026 53.424 110.844 53.552C110.668 53.6747 110.538 53.8347 110.452 54.032L109.7 53.656C109.78 53.4427 109.911 53.256 110.092 53.096C110.274 52.9307 110.484 52.8027 110.724 52.712C110.97 52.6213 111.228 52.576 111.5 52.576C111.842 52.576 112.143 52.64 112.404 52.768C112.671 52.896 112.876 53.0747 113.02 53.304C113.17 53.528 113.244 53.7893 113.244 54.088V57H112.38V56.216L112.564 56.24C112.463 56.416 112.332 56.568 112.172 56.696C112.018 56.824 111.839 56.9227 111.636 56.992C111.439 57.0613 111.218 57.096 110.972 57.096ZM114.301 57V52.672H115.165V53.544L115.085 53.416C115.181 53.1333 115.336 52.9307 115.549 52.808C115.763 52.68 116.019 52.616 116.317 52.616H116.581V53.44H116.205C115.907 53.44 115.664 53.5333 115.477 53.72C115.296 53.9013 115.205 54.1627 115.205 54.504V57H114.301ZM119.232 57.096C118.8 57.096 118.416 56.9973 118.08 56.8C117.749 56.5973 117.491 56.3253 117.304 55.984C117.117 55.6373 117.024 55.2507 117.024 54.824C117.024 54.3867 117.117 54 117.304 53.664C117.496 53.328 117.752 53.064 118.072 52.872C118.392 52.6747 118.755 52.576 119.16 52.576C119.485 52.576 119.776 52.632 120.032 52.744C120.288 52.856 120.504 53.0107 120.68 53.208C120.856 53.4 120.989 53.6213 121.08 53.872C121.176 54.1227 121.224 54.3893 121.224 54.672C121.224 54.7413 121.221 54.8133 121.216 54.888C121.211 54.9627 121.2 55.032 121.184 55.096H117.736V54.376H120.672L120.24 54.704C120.293 54.4427 120.275 54.2107 120.184 54.008C120.099 53.8 119.965 53.6373 119.784 53.52C119.608 53.3973 119.4 53.336 119.16 53.336C118.92 53.336 118.707 53.3973 118.52 53.52C118.333 53.6373 118.189 53.808 118.088 54.032C117.987 54.2507 117.947 54.5173 117.968 54.832C117.941 55.1253 117.981 55.3813 118.088 55.6C118.2 55.8187 118.355 55.9893 118.552 56.112C118.755 56.2347 118.984 56.296 119.24 56.296C119.501 56.296 119.723 56.2373 119.904 56.12C120.091 56.0027 120.237 55.8507 120.344 55.664L121.08 56.024C120.995 56.2267 120.861 56.4107 120.68 56.576C120.504 56.736 120.291 56.864 120.04 56.96C119.795 57.0507 119.525 57.096 119.232 57.096ZM123.505 58.6V52.672H124.369V53.568L124.265 53.36C124.425 53.1147 124.638 52.9227 124.905 52.784C125.171 52.6453 125.475 52.576 125.817 52.576C126.227 52.576 126.595 52.6747 126.921 52.872C127.251 53.0693 127.51 53.3387 127.697 53.68C127.889 54.0213 127.985 54.4053 127.985 54.832C127.985 55.2587 127.889 55.6427 127.697 55.984C127.51 56.3253 127.254 56.5973 126.929 56.8C126.603 56.9973 126.233 57.096 125.817 57.096C125.481 57.096 125.174 57.0267 124.897 56.888C124.625 56.7493 124.414 56.5493 124.265 56.288L124.409 56.12V58.6H123.505ZM125.729 56.256C125.985 56.256 126.211 56.1947 126.409 56.072C126.606 55.9493 126.761 55.7813 126.873 55.568C126.99 55.3493 127.049 55.104 127.049 54.832C127.049 54.56 126.99 54.3173 126.873 54.104C126.761 53.8907 126.606 53.7227 126.409 53.6C126.211 53.4773 125.985 53.416 125.729 53.416C125.478 53.416 125.251 53.4773 125.049 53.6C124.851 53.7227 124.694 53.8907 124.577 54.104C124.465 54.3173 124.409 54.56 124.409 54.832C124.409 55.104 124.465 55.3493 124.577 55.568C124.694 55.7813 124.851 55.9493 125.049 56.072C125.251 56.1947 125.478 56.256 125.729 56.256ZM128.864 57V52.672H129.728V53.544L129.648 53.416C129.744 53.1333 129.899 52.9307 130.112 52.808C130.325 52.68 130.581 52.616 130.88 52.616H131.144V53.44H130.768C130.469 53.44 130.227 53.5333 130.04 53.72C129.859 53.9013 129.768 54.1627 129.768 54.504V57H128.864ZM133.85 57.096C133.434 57.096 133.053 56.9973 132.706 56.8C132.365 56.6027 132.093 56.3333 131.89 55.992C131.688 55.6507 131.586 55.264 131.586 54.832C131.586 54.3947 131.688 54.008 131.89 53.672C132.093 53.3307 132.365 53.064 132.706 52.872C133.048 52.6747 133.429 52.576 133.85 52.576C134.277 52.576 134.658 52.6747 134.994 52.872C135.336 53.064 135.605 53.3307 135.802 53.672C136.005 54.008 136.106 54.3947 136.106 54.832C136.106 55.2693 136.005 55.6587 135.802 56C135.6 56.3413 135.328 56.6107 134.986 56.808C134.645 57 134.266 57.096 133.85 57.096ZM133.85 56.256C134.106 56.256 134.333 56.1947 134.53 56.072C134.728 55.9493 134.882 55.7813 134.994 55.568C135.112 55.3493 135.17 55.104 135.17 54.832C135.17 54.56 135.112 54.3173 134.994 54.104C134.882 53.8907 134.728 53.7227 134.53 53.6C134.333 53.4773 134.106 53.416 133.85 53.416C133.6 53.416 133.373 53.4773 133.17 53.6C132.973 53.7227 132.816 53.8907 132.698 54.104C132.586 54.3173 132.53 54.56 132.53 54.832C132.53 55.104 132.586 55.3493 132.698 55.568C132.816 55.7813 132.973 55.9493 133.17 56.072C133.373 56.1947 133.6 56.256 133.85 56.256ZM138.783 57.048C138.329 57.048 137.977 56.92 137.727 56.664C137.476 56.408 137.351 56.048 137.351 55.584V53.488H136.591V52.672H136.711C136.913 52.672 137.071 52.6133 137.183 52.496C137.295 52.3787 137.351 52.2187 137.351 52.016V51.68H138.255V52.672H139.239V53.488H138.255V55.544C138.255 55.6933 138.279 55.8213 138.327 55.928C138.375 56.0293 138.452 56.1093 138.559 56.168C138.665 56.2213 138.804 56.248 138.975 56.248C139.017 56.248 139.065 56.2453 139.119 56.24C139.172 56.2347 139.223 56.2293 139.271 56.224V57C139.196 57.0107 139.113 57.0213 139.023 57.032C138.932 57.0427 138.852 57.048 138.783 57.048ZM142.107 57.096C141.675 57.096 141.291 56.9973 140.955 56.8C140.624 56.5973 140.366 56.3253 140.179 55.984C139.992 55.6373 139.899 55.2507 139.899 54.824C139.899 54.3867 139.992 54 140.179 53.664C140.371 53.328 140.627 53.064 140.947 52.872C141.267 52.6747 141.63 52.576 142.035 52.576C142.36 52.576 142.651 52.632 142.907 52.744C143.163 52.856 143.379 53.0107 143.555 53.208C143.731 53.4 143.864 53.6213 143.955 53.872C144.051 54.1227 144.099 54.3893 144.099 54.672C144.099 54.7413 144.096 54.8133 144.091 54.888C144.086 54.9627 144.075 55.032 144.059 55.096H140.611V54.376H143.547L143.115 54.704C143.168 54.4427 143.15 54.2107 143.059 54.008C142.974 53.8 142.84 53.6373 142.659 53.52C142.483 53.3973 142.275 53.336 142.035 53.336C141.795 53.336 141.582 53.3973 141.395 53.52C141.208 53.6373 141.064 53.808 140.963 54.032C140.862 54.2507 140.822 54.5173 140.843 54.832C140.816 55.1253 140.856 55.3813 140.963 55.6C141.075 55.8187 141.23 55.9893 141.427 56.112C141.63 56.2347 141.859 56.296 142.115 56.296C142.376 56.296 142.598 56.2373 142.779 56.12C142.966 56.0027 143.112 55.8507 143.219 55.664L143.955 56.024C143.87 56.2267 143.736 56.4107 143.555 56.576C143.379 56.736 143.166 56.864 142.915 56.96C142.67 57.0507 142.4 57.096 142.107 57.096ZM147.037 57.096C146.605 57.096 146.221 56.9973 145.885 56.8C145.554 56.5973 145.29 56.3253 145.093 55.984C144.901 55.6427 144.805 55.256 144.805 54.824C144.805 54.3973 144.901 54.0133 145.093 53.672C145.285 53.3307 145.549 53.064 145.885 52.872C146.221 52.6747 146.605 52.576 147.037 52.576C147.33 52.576 147.605 52.6293 147.861 52.736C148.117 52.8373 148.338 52.9787 148.525 53.16C148.717 53.3413 148.858 53.552 148.949 53.792L148.157 54.16C148.066 53.936 147.92 53.7573 147.717 53.624C147.52 53.4853 147.293 53.416 147.037 53.416C146.792 53.416 146.57 53.4773 146.373 53.6C146.181 53.7173 146.029 53.8853 145.917 54.104C145.805 54.3173 145.749 54.56 145.749 54.832C145.749 55.104 145.805 55.3493 145.917 55.568C146.029 55.7813 146.181 55.9493 146.373 56.072C146.57 56.1947 146.792 56.256 147.037 56.256C147.298 56.256 147.525 56.1893 147.717 56.056C147.914 55.9173 148.061 55.7333 148.157 55.504L148.949 55.88C148.864 56.1093 148.725 56.3173 148.533 56.504C148.346 56.6853 148.125 56.8293 147.869 56.936C147.613 57.0427 147.336 57.096 147.037 57.096ZM151.705 57.048C151.251 57.048 150.899 56.92 150.649 56.664C150.398 56.408 150.273 56.048 150.273 55.584V53.488H149.513V52.672H149.633C149.835 52.672 149.993 52.6133 150.105 52.496C150.217 52.3787 150.273 52.2187 150.273 52.016V51.68H151.177V52.672H152.161V53.488H151.177V55.544C151.177 55.6933 151.201 55.8213 151.249 55.928C151.297 56.0293 151.374 56.1093 151.481 56.168C151.587 56.2213 151.726 56.248 151.897 56.248C151.939 56.248 151.987 56.2453 152.041 56.24C152.094 56.2347 152.145 56.2293 152.193 56.224V57C152.118 57.0107 152.035 57.0213 151.945 57.032C151.854 57.0427 151.774 57.048 151.705 57.048ZM155.029 57.096C154.597 57.096 154.213 56.9973 153.877 56.8C153.546 56.5973 153.287 56.3253 153.101 55.984C152.914 55.6373 152.821 55.2507 152.821 54.824C152.821 54.3867 152.914 54 153.101 53.664C153.293 53.328 153.549 53.064 153.869 52.872C154.189 52.6747 154.551 52.576 154.957 52.576C155.282 52.576 155.573 52.632 155.829 52.744C156.085 52.856 156.301 53.0107 156.477 53.208C156.653 53.4 156.786 53.6213 156.877 53.872C156.973 54.1227 157.021 54.3893 157.021 54.672C157.021 54.7413 157.018 54.8133 157.013 54.888C157.007 54.9627 156.997 55.032 156.981 55.096H153.533V54.376H156.469L156.037 54.704C156.09 54.4427 156.071 54.2107 155.981 54.008C155.895 53.8 155.762 53.6373 155.581 53.52C155.405 53.3973 155.197 53.336 154.957 53.336C154.717 53.336 154.503 53.3973 154.317 53.52C154.13 53.6373 153.986 53.808 153.885 54.032C153.783 54.2507 153.743 54.5173 153.765 54.832C153.738 55.1253 153.778 55.3813 153.885 55.6C153.997 55.8187 154.151 55.9893 154.349 56.112C154.551 56.2347 154.781 56.296 155.037 56.296C155.298 56.296 155.519 56.2373 155.701 56.12C155.887 56.0027 156.034 55.8507 156.141 55.664L156.877 56.024C156.791 56.2267 156.658 56.4107 156.477 56.576C156.301 56.736 156.087 56.864 155.837 56.96C155.591 57.0507 155.322 57.096 155.029 57.096ZM159.903 57.096C159.487 57.096 159.114 56.9973 158.783 56.8C158.458 56.5973 158.199 56.3253 158.007 55.984C157.82 55.6427 157.727 55.2587 157.727 54.832C157.727 54.4053 157.823 54.0213 158.015 53.68C158.207 53.3387 158.466 53.0693 158.791 52.872C159.116 52.6747 159.484 52.576 159.895 52.576C160.242 52.576 160.548 52.6453 160.815 52.784C161.082 52.9227 161.292 53.1147 161.447 53.36L161.311 53.568V50.944H162.207V57H161.351V56.12L161.455 56.288C161.306 56.5493 161.092 56.7493 160.815 56.888C160.538 57.0267 160.234 57.096 159.903 57.096ZM159.991 56.256C160.242 56.256 160.466 56.1947 160.663 56.072C160.866 55.9493 161.023 55.7813 161.135 55.568C161.252 55.3493 161.311 55.104 161.311 54.832C161.311 54.56 161.252 54.3173 161.135 54.104C161.023 53.8907 160.866 53.7227 160.663 53.6C160.466 53.4773 160.242 53.416 159.991 53.416C159.74 53.416 159.514 53.4773 159.311 53.6C159.108 53.7227 158.951 53.8907 158.839 54.104C158.727 54.3173 158.671 54.56 158.671 54.832C158.671 55.104 158.727 55.3493 158.839 55.568C158.951 55.7813 159.106 55.9493 159.303 56.072C159.506 56.1947 159.735 56.256 159.991 56.256Z" fill="white"/>
<circle cx="65" cy="56" r="2" fill="white"/>
</g>
<path d="M247.872 190.096C247.397 190.096 246.981 189.968 246.624 189.712C246.267 189.451 245.987 189.091 245.784 188.632C245.587 188.168 245.488 187.629 245.488 187.016C245.488 186.397 245.587 185.859 245.784 185.4C245.987 184.941 246.264 184.584 246.616 184.328C246.973 184.072 247.389 183.944 247.864 183.944C248.339 183.944 248.752 184.072 249.104 184.328C249.461 184.584 249.739 184.944 249.936 185.408C250.139 185.867 250.24 186.403 250.24 187.016C250.24 187.629 250.141 188.168 249.944 188.632C249.747 189.091 249.469 189.451 249.112 189.712C248.76 189.968 248.347 190.096 247.872 190.096ZM247.872 189.232C248.165 189.232 248.419 189.141 248.632 188.96C248.845 188.779 249.011 188.523 249.128 188.192C249.245 187.861 249.304 187.469 249.304 187.016C249.304 186.563 249.245 186.171 249.128 185.84C249.011 185.509 248.845 185.253 248.632 185.072C248.419 184.891 248.163 184.8 247.864 184.8C247.571 184.8 247.317 184.891 247.104 185.072C246.891 185.253 246.725 185.509 246.608 185.84C246.491 186.171 246.432 186.563 246.432 187.016C246.432 187.464 246.491 187.856 246.608 188.192C246.725 188.523 246.891 188.779 247.104 188.96C247.323 189.141 247.579 189.232 247.872 189.232Z" fill="#303333"/>
<path d="M284.114 211.096C283.741 211.096 283.394 211.027 283.074 210.888C282.754 210.744 282.482 210.549 282.258 210.304C282.034 210.059 281.869 209.776 281.762 209.456L282.562 209.12C282.706 209.488 282.917 209.771 283.194 209.968C283.471 210.165 283.791 210.264 284.154 210.264C284.367 210.264 284.554 210.232 284.714 210.168C284.874 210.099 284.997 210.003 285.082 209.88C285.173 209.757 285.218 209.616 285.218 209.456C285.218 209.237 285.157 209.064 285.034 208.936C284.911 208.808 284.73 208.707 284.49 208.632L283.37 208.28C282.922 208.141 282.581 207.931 282.346 207.648C282.111 207.36 281.994 207.024 281.994 206.64C281.994 206.304 282.077 206.011 282.242 205.76C282.407 205.504 282.634 205.304 282.922 205.16C283.215 205.016 283.549 204.944 283.922 204.944C284.279 204.944 284.605 205.008 284.898 205.136C285.191 205.259 285.442 205.429 285.65 205.648C285.863 205.867 286.018 206.12 286.114 206.408L285.33 206.752C285.213 206.437 285.029 206.195 284.778 206.024C284.533 205.853 284.247 205.768 283.922 205.768C283.725 205.768 283.551 205.803 283.402 205.872C283.253 205.936 283.135 206.032 283.05 206.16C282.97 206.283 282.93 206.427 282.93 206.592C282.93 206.784 282.991 206.955 283.114 207.104C283.237 207.253 283.423 207.365 283.674 207.44L284.714 207.768C285.189 207.912 285.546 208.12 285.786 208.392C286.026 208.659 286.146 208.992 286.146 209.392C286.146 209.723 286.058 210.016 285.882 210.272C285.711 210.528 285.474 210.731 285.17 210.88C284.866 211.024 284.514 211.096 284.114 211.096Z" fill="#303333"/>
<path d="M324 211.096C323.568 211.096 323.166 211.019 322.792 210.864C322.424 210.709 322.099 210.493 321.816 210.216C321.539 209.939 321.32 209.613 321.16 209.24C321.006 208.867 320.928 208.459 320.928 208.016C320.928 207.573 321.006 207.165 321.16 206.792C321.32 206.413 321.539 206.088 321.816 205.816C322.094 205.539 322.419 205.325 322.792 205.176C323.166 205.021 323.568 204.944 324 204.944C324.438 204.944 324.84 205.021 325.208 205.176C325.582 205.325 325.907 205.539 326.184 205.816C326.467 206.093 326.686 206.419 326.84 206.792C326.995 207.165 327.072 207.573 327.072 208.016C327.072 208.459 326.992 208.867 326.832 209.24C326.678 209.613 326.462 209.939 326.184 210.216C325.907 210.493 325.582 210.709 325.208 210.864C324.835 211.019 324.432 211.096 324 211.096ZM324 210.232C324.31 210.232 324.592 210.176 324.848 210.064C325.11 209.952 325.336 209.797 325.528 209.6C325.72 209.397 325.87 209.163 325.976 208.896C326.083 208.624 326.136 208.331 326.136 208.016C326.136 207.701 326.083 207.411 325.976 207.144C325.87 206.877 325.72 206.643 325.528 206.44C325.336 206.237 325.11 206.08 324.848 205.968C324.592 205.856 324.31 205.8 324 205.8C323.691 205.8 323.406 205.856 323.144 205.968C322.888 206.08 322.664 206.237 322.472 206.44C322.28 206.643 322.131 206.877 322.024 207.144C321.923 207.411 321.872 207.701 321.872 208.016C321.872 208.331 321.923 208.624 322.024 208.896C322.131 209.163 322.28 209.397 322.472 209.6C322.664 209.797 322.891 209.952 323.152 210.064C323.414 210.176 323.696 210.232 324 210.232Z" fill="#303333"/>
<path d="M361.659 211V205.04H362.419L365.763 209.656L365.403 209.712V205.04H366.339V211H365.579L362.259 206.352L362.603 206.288V211H361.659Z" fill="#303333"/>
<path d="M401.651 211V205.04H403.603C404.222 205.04 404.758 205.165 405.211 205.416C405.67 205.661 406.024 206.008 406.275 206.456C406.526 206.904 406.651 207.424 406.651 208.016C406.651 208.603 406.526 209.123 406.275 209.576C406.024 210.024 405.67 210.373 405.211 210.624C404.758 210.875 404.222 211 403.603 211H401.651ZM402.595 210.16H403.619C404.04 210.16 404.406 210.072 404.715 209.896C405.03 209.72 405.272 209.472 405.443 209.152C405.614 208.832 405.699 208.453 405.699 208.016C405.699 207.579 405.611 207.203 405.435 206.888C405.264 206.568 405.024 206.32 404.715 206.144C404.406 205.968 404.04 205.88 403.619 205.88H402.595V210.16Z" fill="#303333"/>
<path d="M442.793 211V210.12H443.137C443.404 210.12 443.617 210.043 443.777 209.888C443.937 209.728 444.017 209.515 444.017 209.248V205.04H444.953V209.216C444.953 209.579 444.879 209.893 444.729 210.16C444.585 210.427 444.375 210.635 444.097 210.784C443.825 210.928 443.505 211 443.137 211H442.793Z" fill="#303333"/>
<path d="M482.78 211V205.04H486.66V205.88H483.724V207.672H486.34V208.512H483.724V211H482.78Z" fill="#303333"/>
<path d="M499.872 221.096C499.397 221.096 498.981 220.968 498.624 220.712C498.267 220.451 497.987 220.091 497.784 219.632C497.587 219.168 497.488 218.629 497.488 218.016C497.488 217.397 497.587 216.859 497.784 216.4C497.987 215.941 498.264 215.584 498.616 215.328C498.973 215.072 499.389 214.944 499.864 214.944C500.339 214.944 500.752 215.072 501.104 215.328C501.461 215.584 501.739 215.944 501.936 216.408C502.139 216.867 502.24 217.403 502.24 218.016C502.24 218.629 502.141 219.168 501.944 219.632C501.747 220.091 501.469 220.451 501.112 220.712C500.76 220.968 500.347 221.096 499.872 221.096ZM499.872 220.232C500.165 220.232 500.419 220.141 500.632 219.96C500.845 219.779 501.011 219.523 501.128 219.192C501.245 218.861 501.304 218.469 501.304 218.016C501.304 217.563 501.245 217.171 501.128 216.84C501.011 216.509 500.845 216.253 500.632 216.072C500.419 215.891 500.163 215.8 499.864 215.8C499.571 215.8 499.317 215.891 499.104 216.072C498.891 216.253 498.725 216.509 498.608 216.84C498.491 217.171 498.432 217.563 498.432 218.016C498.432 218.464 498.491 218.856 498.608 219.192C498.725 219.523 498.891 219.779 499.104 219.96C499.323 220.141 499.579 220.232 499.872 220.232Z" fill="#303333"/>
<path d="M276 118C276 115.791 277.791 114 280 114H288C290.209 114 292 115.791 292 118V196C292 197.105 291.105 198 290 198H278C276.895 198 276 197.105 276 196V118Z" fill="#00A4FF"/>
<path d="M280 132C277.239 132 275 134.239 275 137V196C275 197.657 276.343 199 278 199H290C291.657 199 293 197.657 293 196V137C293 134.239 290.761 132 288 132H280Z" fill="#007AFF" stroke="white" stroke-width="2"/>
<path d="M396 76C396 73.7909 397.791 72 400 72H408C410.209 72 412 73.7909 412 76V196C412 197.105 411.105 198 410 198H398C396.895 198 396 197.105 396 196V76Z" fill="#00A4FF"/>
<path d="M400 91C397.239 91 395 93.2386 395 96V196C395 197.657 396.343 199 398 199H410C411.657 199 413 197.657 413 196V96C413 93.2386 410.761 91 408 91H400Z" fill="#007AFF" stroke="white" stroke-width="2"/>
<path d="M436 101C436 98.7909 437.791 97 440 97H448C450.209 97 452 98.7909 452 101V196C452 197.105 451.105 198 450 198H438C436.895 198 436 197.105 436 196V101Z" fill="#00A4FF"/>
<path d="M440 121C437.239 121 435 123.239 435 126V196C435 197.657 436.343 199 438 199H450C451.657 199 453 197.657 453 196V126C453 123.239 450.761 121 448 121H440Z" fill="#007AFF" stroke="white" stroke-width="2"/>
<path d="M476 122C476 119.791 477.791 118 480 118H488C490.209 118 492 119.791 492 122V196C492 197.105 491.105 198 490 198H478C476.895 198 476 197.105 476 196V122Z" fill="#00A4FF"/>
<path d="M480 128C477.239 128 475 130.239 475 133V196C475 197.657 476.343 199 478 199H490C491.657 199 493 197.657 493 196V133C493 130.239 490.761 128 488 128H480Z" fill="#007AFF" stroke="white" stroke-width="2"/>
<path d="M316 88C316 85.7909 317.791 84 320 84H328C330.209 84 332 85.7909 332 88V196C332 197.105 331.105 198 330 198H318C316.895 198 316 197.105 316 196V88Z" fill="#00A4FF"/>
<path d="M320 108C317.239 108 315 110.239 315 113V196C315 197.657 316.343 199 318 199H330C331.657 199 333 197.657 333 196V113C333 110.239 330.761 108 328 108H320Z" fill="#007AFF" stroke="white" stroke-width="2"/>
<path d="M356 104C356 101.791 357.791 100 360 100H368C370.209 100 372 101.791 372 104V196C372 197.105 371.105 198 370 198H358C356.895 198 356 197.105 356 196V104Z" fill="#00A4FF"/>
<path d="M360 136C357.239 136 355 138.239 355 141V196C355 197.657 356.343 199 358 199H370C371.657 199 373 197.657 373 196V141C373 138.239 370.761 136 368 136H360Z" fill="#007AFF" stroke="white" stroke-width="2"/>
<path d="M246.408 159V153.84H245.264V153.04H247.344V159H246.408ZM251.005 159.096C250.53 159.096 250.114 158.968 249.757 158.712C249.399 158.451 249.119 158.091 248.917 157.632C248.719 157.168 248.621 156.629 248.621 156.016C248.621 155.397 248.719 154.859 248.917 154.4C249.119 153.941 249.397 153.584 249.749 153.328C250.106 153.072 250.522 152.944 250.997 152.944C251.471 152.944 251.885 153.072 252.237 153.328C252.594 153.584 252.871 153.944 253.069 154.408C253.271 154.867 253.373 155.403 253.373 156.016C253.373 156.629 253.274 157.168 253.077 157.632C252.879 158.091 252.602 158.451 252.245 158.712C251.893 158.968 251.479 159.096 251.005 159.096ZM251.005 158.232C251.298 158.232 251.551 158.141 251.765 157.96C251.978 157.779 252.143 157.523 252.261 157.192C252.378 156.861 252.437 156.469 252.437 156.016C252.437 155.563 252.378 155.171 252.261 154.84C252.143 154.509 251.978 154.253 251.765 154.072C251.551 153.891 251.295 153.8 250.997 153.8C250.703 153.8 250.45 153.891 250.237 154.072C250.023 154.253 249.858 154.509 249.741 154.84C249.623 155.171 249.565 155.563 249.565 156.016C249.565 156.464 249.623 156.856 249.741 157.192C249.858 157.523 250.023 157.779 250.237 157.96C250.455 158.141 250.711 158.232 251.005 158.232Z" fill="#303333"/>
<path d="M245.4 127V126.32L247.032 124.576C247.352 124.235 247.603 123.96 247.784 123.752C247.971 123.539 248.104 123.352 248.184 123.192C248.269 123.032 248.312 122.864 248.312 122.688C248.312 122.4 248.224 122.179 248.048 122.024C247.872 121.864 247.645 121.784 247.368 121.784C247.08 121.784 246.832 121.867 246.624 122.032C246.416 122.192 246.272 122.427 246.192 122.736L245.36 122.496C245.424 122.181 245.552 121.909 245.744 121.68C245.936 121.445 246.171 121.264 246.448 121.136C246.731 121.008 247.035 120.944 247.36 120.944C247.739 120.944 248.069 121.016 248.352 121.16C248.635 121.299 248.853 121.493 249.008 121.744C249.168 121.995 249.248 122.285 249.248 122.616C249.248 122.835 249.205 123.048 249.12 123.256C249.04 123.459 248.915 123.675 248.744 123.904C248.573 124.128 248.355 124.381 248.088 124.664L246.648 126.2H249.36V127H245.4ZM252.653 127.096C252.179 127.096 251.763 126.968 251.405 126.712C251.048 126.451 250.768 126.091 250.565 125.632C250.368 125.168 250.269 124.629 250.269 124.016C250.269 123.397 250.368 122.859 250.565 122.4C250.768 121.941 251.045 121.584 251.397 121.328C251.755 121.072 252.171 120.944 252.645 120.944C253.12 120.944 253.533 121.072 253.885 121.328C254.243 121.584 254.52 121.944 254.717 122.408C254.92 122.867 255.021 123.403 255.021 124.016C255.021 124.629 254.923 125.168 254.725 125.632C254.528 126.091 254.251 126.451 253.893 126.712C253.541 126.968 253.128 127.096 252.653 127.096ZM252.653 126.232C252.947 126.232 253.2 126.141 253.413 125.96C253.627 125.779 253.792 125.523 253.909 125.192C254.027 124.861 254.085 124.469 254.085 124.016C254.085 123.563 254.027 123.171 253.909 122.84C253.792 122.509 253.627 122.253 253.413 122.072C253.2 121.891 252.944 121.8 252.645 121.8C252.352 121.8 252.099 121.891 251.885 122.072C251.672 122.253 251.507 122.509 251.389 122.84C251.272 123.171 251.213 123.563 251.213 124.016C251.213 124.464 251.272 124.856 251.389 125.192C251.507 125.523 251.672 125.779 251.885 125.96C252.104 126.141 252.36 126.232 252.653 126.232Z" fill="#303333"/>
<path d="M247.344 95.096C247.024 95.096 246.723 95.0373 246.44 94.92C246.163 94.8027 245.923 94.6373 245.72 94.424C245.523 94.2107 245.381 93.96 245.296 93.672L246.096 93.368C246.203 93.6507 246.365 93.8693 246.584 94.024C246.803 94.1787 247.056 94.256 247.344 94.256C247.579 94.256 247.781 94.2107 247.952 94.12C248.128 94.0293 248.264 93.9013 248.36 93.736C248.461 93.5707 248.512 93.3707 248.512 93.136C248.512 92.9067 248.461 92.7093 248.36 92.544C248.264 92.3787 248.128 92.2533 247.952 92.168C247.781 92.0827 247.579 92.04 247.344 92.04C247.248 92.04 247.149 92.048 247.048 92.064C246.952 92.08 246.867 92.1013 246.792 92.128L246.584 91.688L248.152 89.84H245.616V89.04H249.208V89.8L247.672 91.64L247.648 91.336C248.005 91.3413 248.32 91.4213 248.592 91.576C248.864 91.7253 249.075 91.9333 249.224 92.2C249.379 92.4613 249.456 92.7653 249.456 93.112C249.456 93.4853 249.365 93.824 249.184 94.128C249.003 94.4267 248.752 94.664 248.432 94.84C248.117 95.0107 247.755 95.096 247.344 95.096ZM252.763 95.096C252.288 95.096 251.872 94.968 251.515 94.712C251.157 94.4507 250.877 94.0907 250.675 93.632C250.477 93.168 250.379 92.6293 250.379 92.016C250.379 91.3973 250.477 90.8587 250.675 90.4C250.877 89.9413 251.155 89.584 251.507 89.328C251.864 89.072 252.28 88.944 252.755 88.944C253.229 88.944 253.643 89.072 253.995 89.328C254.352 89.584 254.629 89.944 254.827 90.408C255.029 90.8667 255.131 91.4027 255.131 92.016C255.131 92.6293 255.032 93.168 254.835 93.632C254.637 94.0907 254.36 94.4507 254.003 94.712C253.651 94.968 253.237 95.096 252.763 95.096ZM252.763 94.232C253.056 94.232 253.309 94.1413 253.523 93.96C253.736 93.7787 253.901 93.5227 254.019 93.192C254.136 92.8613 254.195 92.4693 254.195 92.016C254.195 91.5627 254.136 91.1707 254.019 90.84C253.901 90.5093 253.736 90.2533 253.523 90.072C253.309 89.8907 253.053 89.8 252.755 89.8C252.461 89.8 252.208 89.8907 251.995 90.072C251.781 90.2533 251.616 90.5093 251.499 90.84C251.381 91.1707 251.323 91.5627 251.323 92.016C251.323 92.464 251.381 92.856 251.499 93.192C251.616 93.5227 251.781 93.7787 251.995 93.96C252.213 94.1413 252.469 94.232 252.763 94.232Z" fill="#303333"/>
<path d="M248.152 64V62.656H245.312V61.872L248.112 58.04H249.048V61.872H249.872V62.656H249.048V64H248.152ZM246.008 62.216L245.856 61.872H248.152V58.792L248.408 58.872L246.008 62.216ZM253.044 64.096C252.569 64.096 252.153 63.968 251.796 63.712C251.439 63.4507 251.159 63.0907 250.956 62.632C250.759 62.168 250.66 61.6293 250.66 61.016C250.66 60.3973 250.759 59.8587 250.956 59.4C251.159 58.9413 251.436 58.584 251.788 58.328C252.145 58.072 252.561 57.944 253.036 57.944C253.511 57.944 253.924 58.072 254.276 58.328C254.633 58.584 254.911 58.944 255.108 59.408C255.311 59.8667 255.412 60.4027 255.412 61.016C255.412 61.6293 255.313 62.168 255.116 62.632C254.919 63.0907 254.641 63.4507 254.284 63.712C253.932 63.968 253.519 64.096 253.044 64.096ZM253.044 63.232C253.337 63.232 253.591 63.1413 253.804 62.96C254.017 62.7787 254.183 62.5227 254.3 62.192C254.417 61.8613 254.476 61.4693 254.476 61.016C254.476 60.5627 254.417 60.1707 254.3 59.84C254.183 59.5093 254.017 59.2533 253.804 59.072C253.591 58.8907 253.335 58.8 253.036 58.8C252.743 58.8 252.489 58.8907 252.276 59.072C252.063 59.2533 251.897 59.5093 251.78 59.84C251.663 60.1707 251.604 60.5627 251.604 61.016C251.604 61.464 251.663 61.856 251.78 62.192C251.897 62.5227 252.063 62.7787 252.276 62.96C252.495 63.1413 252.751 63.232 253.044 63.232Z" fill="#303333"/>
<g clip-path="url(#clip2_0_7845)">
<rect x="346" y="46" width="78" height="16" rx="5" fill="#00A4FF"/>
<path d="M360.616 55V49.04H363.128C363.501 49.04 363.824 49.1067 364.096 49.24C364.368 49.368 364.576 49.5547 364.72 49.8C364.864 50.04 364.936 50.3253 364.936 50.656C364.936 50.944 364.861 51.208 364.712 51.448C364.568 51.6827 364.341 51.8693 364.032 52.008V51.608C364.304 51.7147 364.525 51.8507 364.696 52.016C364.867 52.176 364.989 52.3573 365.064 52.56C365.144 52.7627 365.184 52.976 365.184 53.2C365.184 53.76 365 54.2 364.632 54.52C364.269 54.84 363.771 55 363.136 55H360.616ZM361.56 54.16H363.208C363.523 54.16 363.773 54.0747 363.96 53.904C364.147 53.728 364.24 53.496 364.24 53.208C364.24 52.9147 364.147 52.6827 363.96 52.512C363.773 52.336 363.523 52.248 363.208 52.248H361.56V54.16ZM361.56 51.416H363.152C363.408 51.416 363.613 51.344 363.768 51.2C363.923 51.0507 364 50.856 364 50.616C364 50.376 363.923 50.1893 363.768 50.056C363.613 49.9227 363.408 49.856 363.152 49.856H361.56V51.416ZM367.363 55.096C367.07 55.096 366.811 55.0453 366.587 54.944C366.368 54.8373 366.198 54.6933 366.075 54.512C365.952 54.3253 365.891 54.1067 365.891 53.856C365.891 53.6213 365.942 53.4107 366.043 53.224C366.15 53.0373 366.312 52.88 366.531 52.752C366.75 52.624 367.024 52.5333 367.355 52.48L368.859 52.232V52.944L367.531 53.176C367.291 53.2187 367.115 53.296 367.003 53.408C366.891 53.5147 366.835 53.6533 366.835 53.824C366.835 53.9893 366.896 54.1253 367.019 54.232C367.147 54.3333 367.31 54.384 367.507 54.384C367.752 54.384 367.966 54.3307 368.147 54.224C368.334 54.1173 368.478 53.976 368.579 53.8C368.68 53.6187 368.731 53.4187 368.731 53.2V52.088C368.731 51.8747 368.651 51.7013 368.491 51.568C368.336 51.4293 368.128 51.36 367.867 51.36C367.627 51.36 367.416 51.424 367.235 51.552C367.059 51.6747 366.928 51.8347 366.843 52.032L366.091 51.656C366.171 51.4427 366.302 51.256 366.483 51.096C366.664 50.9307 366.875 50.8027 367.115 50.712C367.36 50.6213 367.619 50.576 367.891 50.576C368.232 50.576 368.534 50.64 368.795 50.768C369.062 50.896 369.267 51.0747 369.411 51.304C369.56 51.528 369.635 51.7893 369.635 52.088V55H368.771V54.216L368.955 54.24C368.854 54.416 368.723 54.568 368.563 54.696C368.408 54.824 368.23 54.9227 368.027 54.992C367.83 55.0613 367.608 55.096 367.363 55.096ZM372.748 55.096C372.316 55.096 371.932 54.9973 371.596 54.8C371.265 54.5973 371.001 54.3253 370.804 53.984C370.612 53.6427 370.516 53.256 370.516 52.824C370.516 52.3973 370.612 52.0133 370.804 51.672C370.996 51.3307 371.26 51.064 371.596 50.872C371.932 50.6747 372.316 50.576 372.748 50.576C373.041 50.576 373.316 50.6293 373.572 50.736C373.828 50.8373 374.049 50.9787 374.236 51.16C374.428 51.3413 374.569 51.552 374.66 51.792L373.868 52.16C373.777 51.936 373.631 51.7573 373.428 51.624C373.231 51.4853 373.004 51.416 372.748 51.416C372.503 51.416 372.281 51.4773 372.084 51.6C371.892 51.7173 371.74 51.8853 371.628 52.104C371.516 52.3173 371.46 52.56 371.46 52.832C371.46 53.104 371.516 53.3493 371.628 53.568C371.74 53.7813 371.892 53.9493 372.084 54.072C372.281 54.1947 372.503 54.256 372.748 54.256C373.009 54.256 373.236 54.1893 373.428 54.056C373.625 53.9173 373.772 53.7333 373.868 53.504L374.66 53.88C374.575 54.1093 374.436 54.3173 374.244 54.504C374.057 54.6853 373.836 54.8293 373.58 54.936C373.324 55.0427 373.047 55.096 372.748 55.096ZM375.544 55V48.944H376.448V53L376.096 52.912L378.264 50.672H379.392L377.76 52.408L379.464 55H378.424L376.904 52.704L377.44 52.632L376.16 53.992L376.448 53.392V55H375.544ZM381.627 55.096C381.301 55.096 381.016 55.024 380.771 54.88C380.525 54.7307 380.333 54.5253 380.195 54.264C380.061 53.9973 379.995 53.6907 379.995 53.344V50.672H380.899V53.264C380.899 53.4613 380.939 53.6347 381.019 53.784C381.099 53.9333 381.211 54.0507 381.355 54.136C381.499 54.216 381.664 54.256 381.851 54.256C382.043 54.256 382.211 54.2133 382.355 54.128C382.499 54.0427 382.611 53.9227 382.691 53.768C382.776 53.6133 382.819 53.432 382.819 53.224V50.672H383.715V55H382.859V54.152L382.955 54.264C382.853 54.5307 382.685 54.736 382.451 54.88C382.216 55.024 381.941 55.096 381.627 55.096ZM384.77 56.6V50.672H385.634V51.568L385.53 51.36C385.69 51.1147 385.904 50.9227 386.17 50.784C386.437 50.6453 386.741 50.576 387.082 50.576C387.493 50.576 387.861 50.6747 388.186 50.872C388.517 51.0693 388.776 51.3387 388.962 51.68C389.154 52.0213 389.25 52.4053 389.25 52.832C389.25 53.2587 389.154 53.6427 388.962 53.984C388.776 54.3253 388.52 54.5973 388.194 54.8C387.869 54.9973 387.498 55.096 387.082 55.096C386.746 55.096 386.44 55.0267 386.162 54.888C385.89 54.7493 385.68 54.5493 385.53 54.288L385.674 54.12V56.6H384.77ZM386.994 54.256C387.25 54.256 387.477 54.1947 387.674 54.072C387.872 53.9493 388.026 53.7813 388.138 53.568C388.256 53.3493 388.314 53.104 388.314 52.832C388.314 52.56 388.256 52.3173 388.138 52.104C388.026 51.8907 387.872 51.7227 387.674 51.6C387.477 51.4773 387.25 51.416 386.994 51.416C386.744 51.416 386.517 51.4773 386.314 51.6C386.117 51.7227 385.96 51.8907 385.842 52.104C385.73 52.3173 385.674 52.56 385.674 52.832C385.674 53.104 385.73 53.3493 385.842 53.568C385.96 53.7813 386.117 53.9493 386.314 54.072C386.517 54.1947 386.744 54.256 386.994 54.256ZM393.128 55.096C392.685 55.096 392.296 54.9867 391.96 54.768C391.629 54.5493 391.397 54.256 391.264 53.888L391.96 53.56C392.077 53.8053 392.237 54 392.44 54.144C392.648 54.288 392.877 54.36 393.128 54.36C393.341 54.36 393.515 54.312 393.648 54.216C393.781 54.12 393.848 53.9893 393.848 53.824C393.848 53.7173 393.819 53.632 393.76 53.568C393.701 53.4987 393.627 53.4427 393.536 53.4C393.451 53.3573 393.363 53.3253 393.272 53.304L392.592 53.112C392.219 53.0053 391.939 52.8453 391.752 52.632C391.571 52.4133 391.48 52.16 391.48 51.872C391.48 51.6107 391.547 51.384 391.68 51.192C391.813 50.9947 391.997 50.8427 392.232 50.736C392.467 50.6293 392.731 50.576 393.024 50.576C393.419 50.576 393.771 50.6747 394.08 50.872C394.389 51.064 394.608 51.3333 394.736 51.68L394.04 52.008C393.955 51.8 393.819 51.6347 393.632 51.512C393.451 51.3893 393.245 51.328 393.016 51.328C392.819 51.328 392.661 51.376 392.544 51.472C392.427 51.5627 392.368 51.6827 392.368 51.832C392.368 51.9333 392.395 52.0187 392.448 52.088C392.501 52.152 392.571 52.2053 392.656 52.248C392.741 52.2853 392.829 52.3173 392.92 52.344L393.624 52.552C393.981 52.6533 394.256 52.8133 394.448 53.032C394.64 53.2453 394.736 53.5013 394.736 53.8C394.736 54.056 394.667 54.2827 394.528 54.48C394.395 54.672 394.208 54.824 393.968 54.936C393.728 55.0427 393.448 55.096 393.128 55.096ZM397.494 55.048C397.04 55.048 396.688 54.92 396.438 54.664C396.187 54.408 396.062 54.048 396.062 53.584V51.488H395.302V50.672H395.422C395.624 50.672 395.782 50.6133 395.894 50.496C396.006 50.3787 396.062 50.2187 396.062 50.016V49.68H396.966V50.672H397.95V51.488H396.966V53.544C396.966 53.6933 396.99 53.8213 397.038 53.928C397.086 54.0293 397.163 54.1093 397.27 54.168C397.376 54.2213 397.515 54.248 397.686 54.248C397.728 54.248 397.776 54.2453 397.83 54.24C397.883 54.2347 397.934 54.2293 397.982 54.224V55C397.907 55.0107 397.824 55.0213 397.734 55.032C397.643 55.0427 397.563 55.048 397.494 55.048ZM400.121 55.096C399.828 55.096 399.569 55.0453 399.345 54.944C399.126 54.8373 398.956 54.6933 398.833 54.512C398.71 54.3253 398.649 54.1067 398.649 53.856C398.649 53.6213 398.7 53.4107 398.801 53.224C398.908 53.0373 399.07 52.88 399.289 52.752C399.508 52.624 399.782 52.5333 400.113 52.48L401.617 52.232V52.944L400.289 53.176C400.049 53.2187 399.873 53.296 399.761 53.408C399.649 53.5147 399.593 53.6533 399.593 53.824C399.593 53.9893 399.654 54.1253 399.777 54.232C399.905 54.3333 400.068 54.384 400.265 54.384C400.51 54.384 400.724 54.3307 400.905 54.224C401.092 54.1173 401.236 53.976 401.337 53.8C401.438 53.6187 401.489 53.4187 401.489 53.2V52.088C401.489 51.8747 401.409 51.7013 401.249 51.568C401.094 51.4293 400.886 51.36 400.625 51.36C400.385 51.36 400.174 51.424 399.993 51.552C399.817 51.6747 399.686 51.8347 399.601 52.032L398.849 51.656C398.929 51.4427 399.06 51.256 399.241 51.096C399.422 50.9307 399.633 50.8027 399.873 50.712C400.118 50.6213 400.377 50.576 400.649 50.576C400.99 50.576 401.292 50.64 401.553 50.768C401.82 50.896 402.025 51.0747 402.169 51.304C402.318 51.528 402.393 51.7893 402.393 52.088V55H401.529V54.216L401.713 54.24C401.612 54.416 401.481 54.568 401.321 54.696C401.166 54.824 400.988 54.9227 400.785 54.992C400.588 55.0613 400.366 55.096 400.121 55.096ZM405.244 55.048C404.79 55.048 404.438 54.92 404.188 54.664C403.937 54.408 403.812 54.048 403.812 53.584V51.488H403.052V50.672H403.172C403.374 50.672 403.532 50.6133 403.644 50.496C403.756 50.3787 403.812 50.2187 403.812 50.016V49.68H404.716V50.672H405.7V51.488H404.716V53.544C404.716 53.6933 404.74 53.8213 404.788 53.928C404.836 54.0293 404.913 54.1093 405.02 54.168C405.126 54.2213 405.265 54.248 405.436 54.248C405.478 54.248 405.526 54.2453 405.58 54.24C405.633 54.2347 405.684 54.2293 405.732 54.224V55C405.657 55.0107 405.574 55.0213 405.484 55.032C405.393 55.0427 405.313 55.048 405.244 55.048ZM408.158 55.096C407.833 55.096 407.547 55.024 407.302 54.88C407.057 54.7307 406.865 54.5253 406.726 54.264C406.593 53.9973 406.526 53.6907 406.526 53.344V50.672H407.43V53.264C407.43 53.4613 407.47 53.6347 407.55 53.784C407.63 53.9333 407.742 54.0507 407.886 54.136C408.03 54.216 408.195 54.256 408.382 54.256C408.574 54.256 408.742 54.2133 408.886 54.128C409.03 54.0427 409.142 53.9227 409.222 53.768C409.307 53.6133 409.35 53.432 409.35 53.224V50.672H410.246V55H409.39V54.152L409.486 54.264C409.385 54.5307 409.217 54.736 408.982 54.88C408.747 55.024 408.473 55.096 408.158 55.096ZM412.901 55.096C412.459 55.096 412.069 54.9867 411.733 54.768C411.403 54.5493 411.171 54.256 411.037 53.888L411.733 53.56C411.851 53.8053 412.011 54 412.213 54.144C412.421 54.288 412.651 54.36 412.901 54.36C413.115 54.36 413.288 54.312 413.421 54.216C413.555 54.12 413.621 53.9893 413.621 53.824C413.621 53.7173 413.592 53.632 413.533 53.568C413.475 53.4987 413.4 53.4427 413.309 53.4C413.224 53.3573 413.136 53.3253 413.045 53.304L412.365 53.112C411.992 53.0053 411.712 52.8453 411.525 52.632C411.344 52.4133 411.253 52.16 411.253 51.872C411.253 51.6107 411.32 51.384 411.453 51.192C411.587 50.9947 411.771 50.8427 412.005 50.736C412.24 50.6293 412.504 50.576 412.797 50.576C413.192 50.576 413.544 50.6747 413.853 50.872C414.163 51.064 414.381 51.3333 414.509 51.68L413.813 52.008C413.728 51.8 413.592 51.6347 413.405 51.512C413.224 51.3893 413.019 51.328 412.789 51.328C412.592 51.328 412.435 51.376 412.317 51.472C412.2 51.5627 412.141 51.6827 412.141 51.832C412.141 51.9333 412.168 52.0187 412.221 52.088C412.275 52.152 412.344 52.2053 412.429 52.248C412.515 52.2853 412.603 52.3173 412.693 52.344L413.397 52.552C413.755 52.6533 414.029 52.8133 414.221 53.032C414.413 53.2453 414.509 53.5013 414.509 53.8C414.509 54.056 414.44 54.2827 414.301 54.48C414.168 54.672 413.981 54.824 413.741 54.936C413.501 55.0427 413.221 55.096 412.901 55.096Z" fill="white"/>
<circle cx="353" cy="54" r="2" fill="white"/>
</g>
<path fill-rule="evenodd" clip-rule="evenodd" d="M115 206C150.899 206 180 176.899 180 141C180 105.101 150.899 76 115 76C79.1015 76 50 105.101 50 141C50 176.899 79.1015 206 115 206ZM115 181C137.091 181 155 163.091 155 141C155 118.909 137.091 101 115 101C92.9086 101 75 118.909 75 141C75 163.091 92.9086 181 115 181Z" fill="#0BD47D"/>
<path d="M93.3461 147V135.678H90.7541V133.59H95.7941V147H93.3461ZM103.518 147.216C102.45 147.216 101.514 146.928 100.71 146.352C99.9057 145.776 99.2757 144.966 98.8197 143.922C98.3757 142.878 98.1537 141.666 98.1537 140.286C98.1537 138.894 98.3757 137.682 98.8197 136.65C99.2637 135.618 99.8877 134.814 100.692 134.238C101.496 133.662 102.432 133.374 103.5 133.374C104.592 133.374 105.534 133.662 106.326 134.238C107.13 134.814 107.76 135.624 108.216 136.668C108.672 137.7 108.9 138.906 108.9 140.286C108.9 141.666 108.672 142.878 108.216 143.922C107.772 144.954 107.148 145.764 106.344 146.352C105.54 146.928 104.598 147.216 103.518 147.216ZM103.536 144.984C104.148 144.984 104.67 144.798 105.102 144.426C105.534 144.042 105.864 143.502 106.092 142.806C106.332 142.098 106.452 141.258 106.452 140.286C106.452 139.314 106.332 138.48 106.092 137.784C105.864 137.076 105.528 136.536 105.084 136.164C104.652 135.792 104.124 135.606 103.5 135.606C102.9 135.606 102.384 135.792 101.952 136.164C101.52 136.536 101.184 137.076 100.944 137.784C100.716 138.48 100.602 139.314 100.602 140.286C100.602 141.246 100.716 142.08 100.944 142.788C101.184 143.484 101.52 144.024 101.952 144.408C102.396 144.792 102.924 144.984 103.536 144.984ZM115.916 147.216C114.848 147.216 113.912 146.928 113.108 146.352C112.304 145.776 111.674 144.966 111.218 143.922C110.774 142.878 110.552 141.666 110.552 140.286C110.552 138.894 110.774 137.682 111.218 136.65C111.662 135.618 112.286 134.814 113.09 134.238C113.894 133.662 114.83 133.374 115.898 133.374C116.99 133.374 117.932 133.662 118.724 134.238C119.528 134.814 120.158 135.624 120.614 136.668C121.07 137.7 121.298 138.906 121.298 140.286C121.298 141.666 121.07 142.878 120.614 143.922C120.17 144.954 119.546 145.764 118.742 146.352C117.938 146.928 116.996 147.216 115.916 147.216ZM115.934 144.984C116.546 144.984 117.068 144.798 117.5 144.426C117.932 144.042 118.262 143.502 118.49 142.806C118.73 142.098 118.85 141.258 118.85 140.286C118.85 139.314 118.73 138.48 118.49 137.784C118.262 137.076 117.926 136.536 117.482 136.164C117.05 135.792 116.522 135.606 115.898 135.606C115.298 135.606 114.782 135.792 114.35 136.164C113.918 136.536 113.582 137.076 113.342 137.784C113.114 138.48 113 139.314 113 140.286C113 141.246 113.114 142.08 113.342 142.788C113.582 143.484 113.918 144.024 114.35 144.408C114.794 144.792 115.322 144.984 115.934 144.984ZM124.696 147L135.568 133.59H138.088L127.216 147H124.696ZM126.802 140.394C126.13 140.394 125.524 140.238 124.984 139.926C124.456 139.602 124.036 139.176 123.724 138.648C123.412 138.12 123.256 137.532 123.256 136.884C123.256 136.236 123.412 135.648 123.724 135.12C124.036 134.58 124.456 134.154 124.984 133.842C125.524 133.53 126.13 133.374 126.802 133.374C127.462 133.374 128.056 133.53 128.584 133.842C129.112 134.154 129.532 134.58 129.844 135.12C130.156 135.648 130.312 136.236 130.312 136.884C130.312 137.532 130.156 138.12 129.844 138.648C129.532 139.176 129.112 139.602 128.584 139.926C128.056 140.238 127.462 140.394 126.802 140.394ZM126.784 138.576C127.144 138.576 127.444 138.498 127.684 138.342C127.924 138.174 128.104 137.964 128.224 137.712C128.356 137.448 128.422 137.172 128.422 136.884C128.422 136.584 128.356 136.308 128.224 136.056C128.104 135.804 127.924 135.594 127.684 135.426C127.444 135.258 127.144 135.174 126.784 135.174C126.448 135.174 126.154 135.258 125.902 135.426C125.662 135.594 125.476 135.81 125.344 136.074C125.212 136.326 125.146 136.596 125.146 136.884C125.146 137.16 125.212 137.43 125.344 137.694C125.476 137.958 125.662 138.174 125.902 138.342C126.154 138.498 126.448 138.576 126.784 138.576ZM135.928 147.216C135.268 147.216 134.668 147.06 134.128 146.748C133.6 146.424 133.18 145.998 132.868 145.47C132.556 144.942 132.4 144.354 132.4 143.706C132.4 143.058 132.556 142.47 132.868 141.942C133.18 141.402 133.6 140.976 134.128 140.664C134.668 140.352 135.268 140.196 135.928 140.196C136.6 140.196 137.2 140.352 137.728 140.664C138.256 140.976 138.676 141.402 138.988 141.942C139.3 142.47 139.456 143.058 139.456 143.706C139.456 144.354 139.3 144.942 138.988 145.47C138.676 145.998 138.256 146.424 137.728 146.748C137.2 147.06 136.6 147.216 135.928 147.216ZM135.928 145.398C136.276 145.398 136.57 145.32 136.81 145.164C137.062 144.996 137.248 144.786 137.368 144.534C137.5 144.27 137.566 143.994 137.566 143.706C137.566 143.406 137.5 143.13 137.368 142.878C137.248 142.626 137.062 142.416 136.81 142.248C136.57 142.08 136.276 141.996 135.928 141.996C135.592 141.996 135.298 142.08 135.046 142.248C134.806 142.416 134.62 142.632 134.488 142.896C134.356 143.148 134.29 143.418 134.29 143.706C134.29 143.982 134.356 144.252 134.488 144.516C134.62 144.78 134.806 144.996 135.046 145.164C135.298 145.32 135.592 145.398 135.928 145.398Z" fill="#222426"/>
</g>
<rect x="15" y="15" width="6" height="6" rx="3" fill="#151D9C"/>
<rect x="24" y="15" width="6" height="6" rx="3" fill="#00A4FF"/>
<rect x="33" y="15" width="6" height="6" rx="3" fill="#0BD47D"/>
<defs>
<clipPath id="clip0_0_7845">
<rect width="530" height="200" fill="white" transform="translate(15 36)"/>
</clipPath>
<clipPath id="clip1_0_7845">
<rect width="115" height="16" fill="white" transform="translate(58 48)"/>
</clipPath>
<clipPath id="clip2_0_7845">
<rect width="78" height="16" fill="white" transform="translate(346 46)"/>
</clipPath>
</defs>
</svg>
