<svg width="460" height="376" viewBox="0 0 460 376" fill="none" xmlns="http://www.w3.org/2000/svg">
<circle cx="230" cy="187.997" r="185.5" stroke="url(#paint0_linear_0_6027)" stroke-width="4" stroke-linecap="round" stroke-linejoin="round" stroke-dasharray="3 15"/>
<g opacity="0.503468" filter="url(#filter0_f_0_6027)">
<rect x="167.5" y="165.497" width="125" height="125" rx="62.5" fill="url(#paint1_linear_0_6027)"/>
</g>
<rect x="147.5" y="105.497" width="165" height="165" rx="82.5" fill="url(#paint2_linear_0_6027)"/>
<path fill-rule="evenodd" clip-rule="evenodd" d="M230.5 160.497C221.215 160.497 205.5 161.865 205.5 167.011V208.983C205.5 214.101 221.215 215.497 230.5 215.497C239.785 215.497 255.5 214.129 255.5 208.983V166.984C255.5 161.865 239.785 160.497 230.5 160.497ZM252.655 194.93C252.048 196.28 244.186 198.653 230.5 198.653C216.814 198.653 208.895 196.242 208.345 194.93V184.293C213.305 186.741 223.653 187.495 230.5 187.495C237.347 187.495 247.695 186.722 252.655 184.293V194.93ZM230.5 184.693C244.186 184.693 252.048 182.32 252.655 180.971V170.278C247.695 172.725 237.347 173.47 230.5 173.47C223.653 173.47 213.305 172.725 208.345 170.278V180.971C208.895 182.274 216.814 184.693 230.5 184.693ZM230.5 163.289C244.005 163.289 251.858 165.625 252.626 167.011C251.858 168.37 244.005 170.734 230.5 170.734C216.995 170.734 209.151 168.342 208.374 166.984C209.151 165.625 216.995 163.289 230.5 163.289ZM208.345 208.955C208.895 210.267 216.777 212.677 230.5 212.677C244.186 212.677 252.048 210.286 252.655 208.927V198.253C247.695 200.709 237.347 201.454 230.5 201.454C223.653 201.454 213.305 200.709 208.345 198.253V208.955Z" fill="white"/>
<path d="M252.655 194.93L253.106 195.133L253.15 195.036V194.93H252.655ZM208.345 194.93H207.85V195.03L207.889 195.122L208.345 194.93ZM208.345 184.293L208.564 183.849L207.85 183.497V184.293H208.345ZM252.655 184.293H253.15V183.5L252.437 183.849L252.655 184.293ZM252.655 180.971L253.106 181.174L253.15 181.077V180.971H252.655ZM252.655 170.278H253.15V169.482L252.436 169.834L252.655 170.278ZM208.345 170.278L208.564 169.834L207.85 169.482V170.278H208.345ZM208.345 180.971H207.85V181.071L207.889 181.163L208.345 180.971ZM252.626 167.011L253.057 167.255L253.194 167.014L253.059 166.772L252.626 167.011ZM208.374 166.984L207.944 166.738L207.803 166.984L207.944 167.229L208.374 166.984ZM208.345 208.955H207.85V209.054L207.889 209.146L208.345 208.955ZM252.655 208.927L253.107 209.129L253.15 209.032V208.927H252.655ZM252.655 198.253H253.15V197.455L252.435 197.809L252.655 198.253ZM208.345 198.253L208.565 197.809L207.85 197.455V198.253H208.345ZM205.995 167.011C205.995 166.014 206.754 165.091 208.331 164.26C209.886 163.442 212.084 162.8 214.612 162.31C219.659 161.333 225.874 160.992 230.5 160.992V160.002C225.841 160.002 219.556 160.345 214.424 161.338C211.862 161.834 209.552 162.499 207.87 163.384C206.211 164.258 205.005 165.435 205.005 167.011H205.995ZM205.995 208.983V167.011H205.005V208.983H205.995ZM230.5 215.002C225.874 215.002 219.659 214.654 214.613 213.673C212.085 213.182 209.886 212.539 208.331 211.722C206.752 210.892 205.995 209.972 205.995 208.983H205.005C205.005 210.553 206.212 211.727 207.87 212.598C209.552 213.482 211.862 214.148 214.424 214.645C219.556 215.642 225.841 215.992 230.5 215.992V215.002ZM255.005 208.983C255.005 209.98 254.246 210.903 252.669 211.734C251.114 212.552 248.916 213.194 246.388 213.684C241.341 214.661 235.126 215.002 230.5 215.002V215.992C235.159 215.992 241.444 215.649 246.576 214.656C249.138 214.16 251.448 213.495 253.13 212.61C254.789 211.736 255.995 210.559 255.995 208.983H255.005ZM255.005 166.984V208.983H255.995V166.984H255.005ZM230.5 160.992C235.126 160.992 241.341 161.333 246.388 162.307C248.916 162.795 251.115 163.434 252.67 164.249C254.248 165.076 255.005 165.995 255.005 166.984H255.995C255.995 165.413 254.787 164.241 253.129 163.372C251.447 162.491 249.137 161.829 246.576 161.335C241.443 160.345 235.159 160.002 230.5 160.002V160.992ZM230.5 199.148C237.369 199.148 242.79 198.552 246.58 197.783C248.474 197.398 249.972 196.968 251.045 196.541C251.58 196.328 252.022 196.111 252.359 195.893C252.678 195.686 252.97 195.437 253.106 195.133L252.203 194.727C252.188 194.761 252.101 194.881 251.821 195.062C251.558 195.232 251.179 195.422 250.679 195.621C249.679 196.019 248.242 196.435 246.383 196.812C242.669 197.567 237.316 198.158 230.5 198.158V199.148ZM207.889 195.122C208.018 195.43 208.312 195.68 208.625 195.883C208.958 196.098 209.398 196.314 209.932 196.526C211.001 196.95 212.501 197.382 214.398 197.769C218.195 198.543 223.63 199.148 230.5 199.148V198.158C223.684 198.158 218.317 197.557 214.596 196.799C212.733 196.419 211.295 196.002 210.297 195.605C209.797 195.407 209.422 195.219 209.163 195.051C209.034 194.968 208.942 194.895 208.881 194.835C208.851 194.805 208.831 194.781 208.818 194.764C208.805 194.746 208.801 194.738 208.802 194.739L207.889 195.122ZM207.85 184.293V194.93H208.84V184.293H207.85ZM230.5 187C227.092 187 222.814 186.812 218.775 186.32C214.72 185.827 210.965 185.034 208.564 183.849L208.126 184.737C210.686 186 214.584 186.808 218.655 187.303C222.742 187.8 227.061 187.99 230.5 187.99V187ZM252.437 183.849C250.036 185.024 246.279 185.818 242.225 186.313C238.186 186.807 233.908 187 230.5 187V187.99C233.94 187.99 238.259 187.796 242.345 187.296C246.416 186.798 250.313 185.991 252.872 184.738L252.437 183.849ZM253.15 194.93V184.293H252.16V194.93H253.15ZM252.203 180.768C252.188 180.801 252.101 180.921 251.821 181.103C251.558 181.273 251.179 181.463 250.679 181.662C249.679 182.06 248.242 182.476 246.383 182.853C242.669 183.607 237.316 184.198 230.5 184.198V185.188C237.369 185.188 242.79 184.593 246.58 183.823C248.474 183.439 249.972 183.008 251.045 182.582C251.58 182.369 252.022 182.152 252.359 181.934C252.678 181.727 252.97 181.478 253.106 181.174L252.203 180.768ZM252.16 170.278V180.971H253.15V170.278H252.16ZM230.5 173.965C233.939 173.965 238.258 173.778 242.345 173.283C246.416 172.79 250.314 171.985 252.874 170.722L252.436 169.834C250.036 171.018 246.28 171.809 242.226 172.3C238.187 172.79 233.908 172.975 230.5 172.975V173.965ZM208.126 170.722C210.686 171.985 214.584 172.79 218.655 173.283C222.742 173.778 227.061 173.965 230.5 173.965V172.975C227.092 172.975 222.813 172.79 218.774 172.3C214.72 171.809 210.964 171.018 208.564 169.834L208.126 170.722ZM208.84 180.971V170.278H207.85V180.971H208.84ZM230.5 184.198C223.685 184.198 218.317 183.596 214.596 182.836C212.734 182.455 211.295 182.038 210.297 181.642C209.797 181.444 209.421 181.256 209.162 181.089C209.033 181.005 208.941 180.933 208.88 180.873C208.85 180.844 208.83 180.82 208.817 180.802C208.804 180.785 208.801 180.777 208.801 180.778L207.889 181.163C208.019 181.471 208.313 181.719 208.626 181.921C208.958 182.135 209.398 182.351 209.932 182.562C211.001 182.987 212.501 183.418 214.398 183.806C218.195 184.581 223.63 185.188 230.5 185.188V184.198ZM253.059 166.772C252.901 166.486 252.607 166.243 252.271 166.034C251.922 165.815 251.47 165.598 250.925 165.384C249.834 164.956 248.329 164.527 246.438 164.145C242.652 163.38 237.279 162.794 230.5 162.794V163.784C237.226 163.784 242.532 164.366 246.242 165.115C248.098 165.491 249.544 165.906 250.563 166.306C251.074 166.506 251.467 166.698 251.747 166.873C252.04 167.057 252.159 167.19 252.193 167.251L253.059 166.772ZM230.5 171.229C237.28 171.229 242.653 170.636 246.438 169.867C248.329 169.483 249.834 169.054 250.924 168.627C251.469 168.414 251.921 168.198 252.269 167.982C252.604 167.775 252.898 167.536 253.057 167.255L252.195 166.768C252.162 166.827 252.043 166.958 251.749 167.141C251.468 167.314 251.075 167.506 250.564 167.705C249.543 168.104 248.097 168.52 246.241 168.897C242.532 169.65 237.226 170.239 230.5 170.239V171.229ZM207.944 167.229C208.104 167.508 208.398 167.748 208.733 167.956C209.082 168.172 209.534 168.389 210.079 168.603C211.169 169.032 212.674 169.466 214.565 169.853C218.349 170.629 223.72 171.229 230.5 171.229V170.239C223.775 170.239 218.472 169.643 214.763 168.883C212.908 168.503 211.462 168.084 210.441 167.682C209.93 167.481 209.536 167.289 209.255 167.114C208.959 166.931 208.838 166.798 208.803 166.738L207.944 167.229ZM230.5 162.794C223.721 162.794 218.35 163.38 214.566 164.141C212.676 164.522 211.171 164.948 210.081 165.372C209.536 165.583 209.084 165.798 208.734 166.013C208.399 166.219 208.104 166.458 207.944 166.738L208.803 167.229C208.838 167.17 208.958 167.038 209.253 166.856C209.534 166.683 209.928 166.493 210.439 166.294C211.46 165.898 212.906 165.485 214.762 165.112C218.47 164.366 223.774 163.784 230.5 163.784V162.794ZM230.5 212.182C223.665 212.182 218.298 211.582 214.582 210.823C212.722 210.443 211.287 210.026 210.292 209.63C209.794 209.432 209.42 209.244 209.162 209.076C209.033 208.993 208.942 208.92 208.881 208.86C208.851 208.83 208.831 208.806 208.818 208.789C208.805 208.771 208.801 208.763 208.802 208.763L207.889 209.146C208.018 209.454 208.31 209.704 208.623 209.907C208.955 210.122 209.394 210.338 209.926 210.55C210.993 210.975 212.489 211.406 214.384 211.793C218.176 212.567 223.611 213.172 230.5 213.172V212.182ZM252.203 208.725C252.187 208.76 252.099 208.881 251.82 209.063C251.556 209.235 251.178 209.426 250.677 209.627C249.678 210.027 248.241 210.446 246.383 210.827C242.669 211.587 237.316 212.182 230.5 212.182V213.172C237.37 213.172 242.791 212.572 246.581 211.797C248.475 211.409 249.973 210.975 251.046 210.546C251.581 210.331 252.024 210.112 252.36 209.893C252.68 209.684 252.971 209.433 253.107 209.129L252.203 208.725ZM252.16 198.253V208.927H253.15V198.253H252.16ZM230.5 201.949C233.939 201.949 238.258 201.762 242.345 201.266C246.416 200.772 250.314 199.964 252.874 198.696L252.435 197.809C250.035 198.998 246.28 199.791 242.225 200.283C238.187 200.774 233.908 200.959 230.5 200.959V201.949ZM208.126 198.696C210.686 199.964 214.584 200.772 218.655 201.266C222.742 201.762 227.061 201.949 230.5 201.949V200.959C227.092 200.959 222.813 200.774 218.775 200.283C214.72 199.791 210.965 198.998 208.565 197.809L208.126 198.696ZM208.84 208.955V198.253H207.85V208.955H208.84Z" fill="url(#paint3_linear_0_6027)"/>
<path fill-rule="evenodd" clip-rule="evenodd" d="M211.94 175.685C213.329 176.081 214.741 176.392 216.169 176.615V176.588C216.955 176.652 217.539 177.329 217.474 178.1C217.408 178.871 216.718 179.444 215.932 179.379H215.695C214.153 179.129 212.626 178.79 211.124 178.365C210.37 178.144 209.941 177.365 210.166 176.625C210.391 175.885 211.185 175.464 211.94 175.685ZM221.215 177.276L224.155 177.49C224.535 177.516 224.889 177.69 225.138 177.973C225.388 178.256 225.512 178.625 225.483 178.998C225.433 179.732 224.81 180.302 224.06 180.301H223.965C222.932 180.236 221.917 180.161 220.968 180.068C220.46 180.025 220.014 179.719 219.798 179.265C219.582 178.812 219.629 178.28 219.921 177.869C220.214 177.459 220.707 177.233 221.215 177.276ZM224.155 191.543C223.14 191.478 222.163 191.403 221.215 191.319C220.707 191.276 220.214 191.502 219.921 191.913C219.629 192.323 219.582 192.855 219.798 193.308C220.014 193.762 220.46 194.068 220.968 194.111C221.917 194.195 222.932 194.269 223.965 194.335H224.06C224.846 194.36 225.504 193.756 225.53 192.985C225.556 192.214 224.941 191.568 224.155 191.543ZM211.93 189.728C213.323 190.121 214.739 190.432 216.169 190.659V190.631C216.955 190.695 217.539 191.372 217.474 192.143C217.408 192.914 216.718 193.487 215.932 193.423C215.854 193.432 215.774 193.432 215.695 193.423C214.156 193.173 212.632 192.834 211.133 192.408C210.379 192.192 209.946 191.417 210.166 190.677C210.386 189.937 211.176 189.512 211.93 189.728ZM224.155 205.586C223.14 205.521 222.163 205.446 221.215 205.362C220.437 205.303 219.754 205.866 219.679 206.628C219.642 207.005 219.764 207.381 220.017 207.667C220.269 207.954 220.63 208.126 221.016 208.145C221.964 208.229 222.979 208.303 224.013 208.368H224.108C224.893 208.394 225.551 207.79 225.578 207.019C225.604 206.248 224.988 205.602 224.202 205.577L224.155 205.586ZM211.93 203.78C213.325 204.164 214.741 204.475 216.169 204.711V204.674C216.955 204.738 217.539 205.415 217.474 206.186C217.408 206.957 216.718 207.53 215.932 207.466C215.854 207.475 215.774 207.475 215.695 207.466C214.156 207.216 212.632 206.878 211.133 206.451C210.609 206.345 210.19 205.958 210.05 205.451C209.909 204.944 210.071 204.402 210.468 204.05C210.865 203.697 211.43 203.593 211.93 203.78Z" fill="white"/>
<path d="M216.169 176.615L216.093 177.104L216.664 177.194V176.615H216.169ZM211.94 175.685L211.8 176.16L211.804 176.161L211.94 175.685ZM216.169 176.588L216.21 176.094L215.674 176.05V176.588H216.169ZM217.474 178.1L217.967 178.142V178.142L217.474 178.1ZM215.932 179.379L215.973 178.886L215.953 178.884H215.932V179.379ZM215.695 179.379L215.616 179.868L215.655 179.874H215.695V179.379ZM211.124 178.365L210.985 178.84L210.989 178.841L211.124 178.365ZM210.166 176.625L210.64 176.769L210.166 176.625ZM224.155 177.49L224.119 177.984L224.121 177.984L224.155 177.49ZM221.215 177.276L221.173 177.769L221.179 177.77L221.215 177.276ZM225.138 177.973L225.51 177.646V177.646L225.138 177.973ZM225.483 178.998L224.989 178.96L224.989 178.964L225.483 178.998ZM224.06 180.301L224.061 179.806H224.06V180.301ZM223.965 180.301L223.934 180.795L223.95 180.796H223.965V180.301ZM220.968 180.068L221.017 179.575L221.01 179.575L220.968 180.068ZM219.798 179.265L220.245 179.052V179.052L219.798 179.265ZM221.215 191.319L221.259 190.826L221.257 190.826L221.215 191.319ZM224.155 191.543L224.123 192.037L224.131 192.037L224.139 192.037L224.155 191.543ZM219.921 191.913L220.325 192.2L219.921 191.913ZM220.968 194.111L221.012 193.618L221.01 193.618L220.968 194.111ZM223.965 194.335L223.934 194.829L223.95 194.83H223.965V194.335ZM224.06 194.335L224.076 193.84L224.068 193.84H224.06V194.335ZM225.53 192.985L225.036 192.968L225.53 192.985ZM216.169 190.659L216.092 191.147L216.664 191.238V190.659H216.169ZM211.93 189.728L211.794 190.204L211.796 190.204L211.93 189.728ZM216.169 190.631L216.21 190.137L215.674 190.094V190.631H216.169ZM217.474 192.143L216.98 192.101L217.474 192.143ZM215.932 193.423L215.973 192.929L215.924 192.925L215.875 192.931L215.932 193.423ZM215.695 193.423L215.616 193.911L215.627 193.913L215.638 193.914L215.695 193.423ZM211.133 192.408L210.997 192.884L210.998 192.884L211.133 192.408ZM210.166 190.677L209.692 190.536H209.692L210.166 190.677ZM221.215 205.362L221.259 204.869L221.253 204.869L221.215 205.362ZM224.155 205.586L224.123 206.08L224.187 206.084L224.25 206.072L224.155 205.586ZM219.679 206.628L219.186 206.58L219.186 206.58L219.679 206.628ZM220.017 207.667L220.388 207.34H220.388L220.017 207.667ZM221.016 208.145L221.059 207.652L221.05 207.651L221.04 207.651L221.016 208.145ZM224.013 208.368L223.982 208.862L223.997 208.863H224.013V208.368ZM224.108 208.368L224.124 207.874L224.116 207.873H224.108V208.368ZM224.202 205.577L224.219 205.082L224.162 205.08L224.107 205.091L224.202 205.577ZM216.169 204.711L216.089 205.199L216.664 205.294V204.711H216.169ZM211.93 203.78L211.756 204.244L211.777 204.252L211.799 204.258L211.93 203.78ZM216.169 204.674L216.21 204.18L215.674 204.137V204.674H216.169ZM215.932 207.466L215.973 206.972L215.924 206.968L215.876 206.974L215.932 207.466ZM215.695 207.466L215.616 207.954L215.627 207.956L215.639 207.957L215.695 207.466ZM211.133 206.451L211.269 205.975L211.251 205.97L211.232 205.966L211.133 206.451ZM210.05 205.451L210.527 205.319L210.05 205.451ZM210.468 204.05L210.139 203.68L210.139 203.68L210.468 204.05ZM216.246 176.126C214.838 175.906 213.445 175.599 212.075 175.209L211.804 176.161C213.212 176.562 214.645 176.877 216.093 177.104L216.246 176.126ZM215.674 176.588V176.615H216.664V176.588H215.674ZM217.967 178.142C218.056 177.089 217.26 176.18 216.21 176.094L216.129 177.081C216.651 177.124 217.022 177.569 216.98 178.058L217.967 178.142ZM215.892 179.873C216.941 179.959 217.877 179.193 217.967 178.142L216.98 178.058C216.939 178.548 216.495 178.929 215.973 178.886L215.892 179.873ZM215.695 179.874H215.932V178.884H215.695V179.874ZM210.989 178.841C212.51 179.271 214.055 179.614 215.616 179.868L215.775 178.891C214.251 178.643 212.743 178.308 211.259 177.889L210.989 178.841ZM209.693 176.481C209.385 177.491 209.973 178.544 210.985 178.84L211.263 177.89C210.766 177.744 210.497 177.238 210.64 176.769L209.693 176.481ZM212.079 175.21C211.071 174.915 209.999 175.474 209.693 176.481L210.64 176.769C210.784 176.295 211.3 176.013 211.8 176.16L212.079 175.21ZM224.191 176.997L221.251 176.782L221.179 177.77L224.119 177.984L224.191 176.997ZM225.51 177.646C225.173 177.264 224.698 177.031 224.189 176.996L224.121 177.984C224.373 178.001 224.605 178.116 224.767 178.3L225.51 177.646ZM225.976 179.036C226.015 178.528 225.847 178.028 225.51 177.646L224.767 178.3C224.929 178.484 225.008 178.721 224.989 178.96L225.976 179.036ZM224.059 180.796C225.062 180.798 225.908 180.034 225.977 179.031L224.989 178.964C224.957 179.431 224.559 179.807 224.061 179.806L224.059 180.796ZM223.965 180.796H224.06V179.806H223.965V180.796ZM220.92 180.561C221.877 180.655 222.898 180.729 223.934 180.795L223.997 179.807C222.966 179.742 221.957 179.668 221.017 179.575L220.92 180.561ZM219.351 179.478C219.644 180.093 220.246 180.503 220.926 180.561L221.01 179.575C220.674 179.546 220.384 179.344 220.245 179.052L219.351 179.478ZM219.518 177.582C219.122 178.138 219.058 178.862 219.351 179.478L220.245 179.052C220.107 178.762 220.136 178.421 220.325 178.157L219.518 177.582ZM221.257 176.783C220.577 176.725 219.914 177.027 219.518 177.582L220.325 178.157C220.514 177.891 220.836 177.741 221.173 177.769L221.257 176.783ZM221.171 191.812C222.124 191.897 223.105 191.971 224.123 192.037L224.187 191.049C223.176 190.984 222.203 190.91 221.259 190.826L221.171 191.812ZM220.325 192.2C220.514 191.934 220.836 191.784 221.173 191.813L221.257 190.826C220.577 190.768 219.914 191.07 219.518 191.625L220.325 192.2ZM220.245 193.096C220.107 192.805 220.136 192.464 220.325 192.2L219.518 191.625C219.122 192.181 219.058 192.905 219.351 193.521L220.245 193.096ZM221.01 193.618C220.674 193.589 220.384 193.387 220.245 193.096L219.351 193.521C219.644 194.137 220.246 194.547 220.926 194.604L221.01 193.618ZM223.997 193.841C222.966 193.776 221.955 193.701 221.012 193.618L220.925 194.604C221.878 194.688 222.897 194.763 223.934 194.829L223.997 193.841ZM224.06 193.84H223.965V194.83H224.06V193.84ZM225.036 192.968C225.019 193.458 224.598 193.857 224.076 193.84L224.044 194.829C225.094 194.864 225.989 194.055 226.025 193.002L225.036 192.968ZM224.139 192.037C224.66 192.054 225.052 192.48 225.036 192.968L226.025 193.002C226.061 191.949 225.222 191.082 224.171 191.048L224.139 192.037ZM216.247 190.17C214.835 189.946 213.439 189.639 212.064 189.252L211.796 190.204C213.207 190.602 214.642 190.917 216.092 191.147L216.247 190.17ZM215.674 190.631V190.659H216.664V190.631H215.674ZM217.967 192.185C218.056 191.132 217.26 190.223 216.21 190.137L216.129 191.124C216.651 191.167 217.022 191.612 216.98 192.101L217.967 192.185ZM215.892 193.916C216.941 194.002 217.877 193.236 217.967 192.185L216.98 192.101C216.939 192.592 216.495 192.972 215.973 192.929L215.892 193.916ZM215.638 193.914C215.755 193.928 215.873 193.928 215.99 193.914L215.875 192.931C215.834 192.936 215.793 192.936 215.753 192.931L215.638 193.914ZM210.998 192.884C212.515 193.316 214.057 193.659 215.616 193.911L215.774 192.934C214.254 192.688 212.749 192.353 211.269 191.932L210.998 192.884ZM209.692 190.536C209.391 191.547 209.986 192.595 210.997 192.884L211.27 191.932C210.773 191.79 210.501 191.287 210.641 190.818L209.692 190.536ZM212.066 189.252C211.058 188.964 209.991 189.529 209.692 190.536L210.641 190.818C210.781 190.345 211.294 190.061 211.794 190.204L212.066 189.252ZM221.171 205.856C222.124 205.94 223.105 206.014 224.123 206.08L224.187 205.092C223.176 205.027 222.203 204.953 221.259 204.869L221.171 205.856ZM220.171 206.677C220.219 206.191 220.659 205.817 221.177 205.856L221.253 204.869C220.215 204.79 219.288 205.541 219.186 206.58L220.171 206.677ZM220.388 207.34C220.225 207.155 220.148 206.916 220.171 206.676L219.186 206.58C219.136 207.095 219.303 207.606 219.645 207.995L220.388 207.34ZM221.04 207.651C220.786 207.638 220.551 207.525 220.388 207.34L219.645 207.995C219.987 208.383 220.474 208.614 220.992 208.639L221.04 207.651ZM224.044 207.874C223.013 207.809 222.003 207.735 221.059 207.652L220.972 208.638C221.926 208.722 222.945 208.797 223.982 208.862L224.044 207.874ZM224.108 207.873H224.013V208.863H224.108V207.873ZM225.083 207.002C225.066 207.491 224.645 207.891 224.124 207.874L224.091 208.863C225.141 208.897 226.037 208.088 226.072 207.036L225.083 207.002ZM224.186 206.071C224.707 206.088 225.1 206.513 225.083 207.002L226.072 207.036C226.108 205.983 225.269 205.116 224.219 205.082L224.186 206.071ZM224.25 206.072L224.298 206.062L224.107 205.091L224.06 205.1L224.25 206.072ZM216.25 204.223C214.838 203.989 213.44 203.683 212.061 203.303L211.799 204.258C213.211 204.646 214.643 204.961 216.089 205.199L216.25 204.223ZM215.674 204.674V204.711H216.664V204.674H215.674ZM217.967 206.228C218.056 205.175 217.26 204.266 216.21 204.18L216.129 205.167C216.651 205.21 217.022 205.655 216.98 206.144L217.967 206.228ZM215.892 207.959C216.941 208.045 217.877 207.279 217.967 206.228L216.98 206.144C216.939 206.635 216.495 207.015 215.973 206.972L215.892 207.959ZM215.639 207.957C215.755 207.971 215.873 207.971 215.989 207.957L215.876 206.974C215.835 206.979 215.793 206.979 215.752 206.974L215.639 207.957ZM210.998 206.927C212.515 207.359 214.057 207.702 215.616 207.954L215.774 206.977C214.254 206.731 212.749 206.396 211.269 205.975L210.998 206.927ZM209.573 205.583C209.764 206.273 210.332 206.793 211.035 206.936L211.232 205.966C210.886 205.896 210.617 205.642 210.527 205.319L209.573 205.583ZM210.139 203.68C209.603 204.156 209.381 204.892 209.573 205.583L210.527 205.319C210.437 204.996 210.539 204.648 210.797 204.42L210.139 203.68ZM212.104 203.317C211.433 203.066 210.674 203.204 210.139 203.68L210.797 204.42C211.055 204.19 211.427 204.12 211.756 204.244L212.104 203.317Z" fill="url(#paint4_linear_0_6027)"/>
<rect x="0.5" y="233.5" width="114" height="114" rx="57" fill="white" stroke="#E6E8EB"/>
<path d="M57.672 304.144V313.665" stroke="#007AFF" stroke-width="1.52982" stroke-linecap="round" stroke-linejoin="round"/>
<path d="M57.672 267.997V276.305" stroke="#007AFF" stroke-width="1.52982" stroke-linecap="round" stroke-linejoin="round"/>
<path d="M57.672 285.227V300.262" stroke="#007AFF" stroke-width="1.52982" stroke-linecap="round" stroke-linejoin="round"/>
<path d="M63.9336 287.333L66.1106 286.093C66.5752 285.828 66.8616 285.338 66.8616 284.806V281.347" stroke="#007AFF" stroke-width="1.52982" stroke-linecap="round" stroke-linejoin="round"/>
<path d="M64.0391 293.647L67.1866 296.993C67.4451 297.268 67.5888 297.63 67.5888 298.006V299.574" stroke="#007AFF" stroke-width="1.52982" stroke-linecap="round" stroke-linejoin="round"/>
<path d="M64.0391 290.481H66.17C66.6137 290.481 67.0392 290.656 67.3529 290.967L68.9707 292.571" stroke="#007AFF" stroke-width="1.52982" stroke-linecap="round" stroke-linejoin="round"/>
<path d="M51.0687 287.333L48.8917 286.093C48.4271 285.828 48.1406 285.338 48.1406 284.806V281.347" stroke="#007AFF" stroke-width="1.52982" stroke-linecap="round" stroke-linejoin="round"/>
<path d="M50.9638 293.647L47.8163 296.993C47.5578 297.268 47.4141 297.63 47.4141 298.006V299.574" stroke="#007AFF" stroke-width="1.52982" stroke-linecap="round" stroke-linejoin="round"/>
<path d="M50.9629 290.481H48.832C48.3882 290.481 47.9627 290.656 47.649 290.967L46.0312 292.571" stroke="#007AFF" stroke-width="1.52982" stroke-linecap="round" stroke-linejoin="round"/>
<path d="M45.1718 269.965C43.444 270.439 41.6576 270.723 39.8442 270.804L37.8526 270.892C36.257 270.963 35 272.267 35 273.85V286.865C35 299.895 42.7179 311.71 54.7098 317.038C56.033 317.572 56.5279 318 57.5001 318C58.4696 318 58.9572 317.576 60.2902 317.038C72.2822 311.71 80 299.895 80 286.865V273.85C80 272.267 78.7432 270.963 77.1475 270.892L75.1559 270.804C69.776 270.564 64.6333 268.539 60.5541 265.052L58.8535 263.599C58.0566 262.865 56.9912 262.739 56.1466 263.599L54.4459 265.052C52.7558 266.497 50.8831 267.691 48.8865 268.61" stroke="#007AFF" stroke-width="1.52982" stroke-linecap="round" stroke-linejoin="round"/>
<path fill-rule="evenodd" clip-rule="evenodd" d="M57.6818 313.58C57.5653 313.634 57.4316 313.634 57.3151 313.58C57.0553 313.459 56.7492 313.321 56.3835 313.171C45.9689 308.516 39.2422 298.197 39.2422 286.865L39.2422 275.452C39.2422 275.22 39.4271 275.029 39.6614 275.022C41.6083 274.957 49.7682 274.604 57.2152 268.239C57.3782 268.1 57.6196 268.1 57.7827 268.239C65.2411 274.614 73.3898 274.959 75.336 275.022C75.5704 275.03 75.7556 275.22 75.7556 275.453V286.865C75.7556 298.197 69.0291 308.516 58.6144 313.171C58.2479 313.321 57.9417 313.459 57.6818 313.58Z" stroke="#007AFF" stroke-width="1.52982" stroke-linecap="round" stroke-linejoin="round"/>
<path d="M61.4274 285.227V284.082C61.4274 281.931 59.6686 280.187 57.4989 280.187C55.3291 280.187 53.5703 281.931 53.5703 284.082V285.227" stroke="#007AFF" stroke-width="1.52982" stroke-linecap="round" stroke-linejoin="round"/>
<path fill-rule="evenodd" clip-rule="evenodd" d="M57.4984 300.262V300.262C53.8879 300.262 50.9609 297.359 50.9609 293.779V288.096C50.9609 286.512 52.2562 285.227 53.8538 285.227H61.1429C62.7406 285.227 64.0357 286.512 64.0357 288.096V293.779C64.0357 297.359 61.1089 300.262 57.4984 300.262Z" stroke="#007AFF" stroke-width="1.52982" stroke-linecap="round" stroke-linejoin="round"/>
<rect x="345.5" y="33.5" width="114" height="114" rx="57" fill="white" stroke="#E6E8EB"/>
<path d="M388.75 83.7156V102.589C388.75 103.505 389.494 104.249 390.41 104.249H414.591C415.507 104.249 416.251 103.505 416.251 102.589V78.408C416.251 77.4917 415.507 76.748 414.591 76.748H390.41C389.494 76.748 388.75 77.4917 388.75 78.408V80.0978" stroke="#007AFF" stroke-width="1.45" stroke-linecap="round" stroke-linejoin="round"/>
<path d="M394.676 100.814H392.188V80.1875H404.988" stroke="#007AFF" stroke-width="1.45" stroke-linecap="round" stroke-linejoin="round"/>
<path d="M408.602 80.1875H412.81V100.814H398.289" stroke="#007AFF" stroke-width="1.45" stroke-linecap="round" stroke-linejoin="round"/>
<path d="M396.789 95.3731L400.448 85.7652C400.523 85.5824 400.782 85.5821 400.857 85.7647L404.483 95.3731" stroke="#007AFF" stroke-width="1.45" stroke-linecap="round" stroke-linejoin="round"/>
<path d="M397.93 92.9801H403.36" stroke="#007AFF" stroke-width="1.45" stroke-linecap="round" stroke-linejoin="round"/>
<path d="M408.212 85.6279V95.3732" stroke="#007AFF" stroke-width="1.45" stroke-linecap="round" stroke-linejoin="round"/>
<circle cx="401.641" cy="64.7188" r="1.71883" stroke="#007AFF" stroke-width="1.45" stroke-linecap="round" stroke-linejoin="round"/>
<circle cx="410.234" cy="68.1563" r="1.71883" stroke="#007AFF" stroke-width="1.45" stroke-linecap="round" stroke-linejoin="round"/>
<circle cx="394.766" cy="66.4376" r="1.71883" stroke="#007AFF" stroke-width="1.45" stroke-linecap="round" stroke-linejoin="round"/>
<path d="M401.641 76.7481V66.4375" stroke="#007AFF" stroke-width="1.45" stroke-linecap="round" stroke-linejoin="round"/>
<path d="M406.797 76.7479V71.5942L409.019 69.3721" stroke="#007AFF" stroke-width="1.45" stroke-linecap="round" stroke-linejoin="round"/>
<path d="M394.766 68.1562V73.3125L398.203 76.748" stroke="#007AFF" stroke-width="1.45" stroke-linecap="round" stroke-linejoin="round"/>
<circle cx="403.359" cy="116.281" r="1.71883" stroke="#007AFF" stroke-width="1.45" stroke-linecap="round" stroke-linejoin="round"/>
<circle cx="394.766" cy="112.844" r="1.71883" stroke="#007AFF" stroke-width="1.45" stroke-linecap="round" stroke-linejoin="round"/>
<circle cx="410.234" cy="114.563" r="1.71883" stroke="#007AFF" stroke-width="1.45" stroke-linecap="round" stroke-linejoin="round"/>
<path d="M403.36 104.252V114.563" stroke="#007AFF" stroke-width="1.45" stroke-linecap="round" stroke-linejoin="round"/>
<path d="M398.207 104.252V109.406L395.984 111.628" stroke="#007AFF" stroke-width="1.45" stroke-linecap="round" stroke-linejoin="round"/>
<path d="M410.234 112.844V107.687L406.797 104.252" stroke="#007AFF" stroke-width="1.45" stroke-linecap="round" stroke-linejoin="round"/>
<circle cx="376.719" cy="91.3595" r="1.71883" stroke="#007AFF" stroke-width="1.45" stroke-linecap="round" stroke-linejoin="round"/>
<circle cx="380.156" cy="82.7657" r="1.71883" stroke="#007AFF" stroke-width="1.45" stroke-linecap="round" stroke-linejoin="round"/>
<circle cx="378.438" cy="98.2345" r="1.71883" stroke="#007AFF" stroke-width="1.45" stroke-linecap="round" stroke-linejoin="round"/>
<path d="M388.748 91.359H378.438" stroke="#007AFF" stroke-width="1.45" stroke-linecap="round" stroke-linejoin="round"/>
<path d="M388.751 86.2036H383.597L381.375 83.9814" stroke="#007AFF" stroke-width="1.45" stroke-linecap="round" stroke-linejoin="round"/>
<path d="M380.156 98.2344H385.313L388.748 94.7969" stroke="#007AFF" stroke-width="1.45" stroke-linecap="round" stroke-linejoin="round"/>
<circle cx="428.281" cy="89.6407" r="1.71883" stroke="#007AFF" stroke-width="1.45" stroke-linecap="round" stroke-linejoin="round"/>
<circle cx="424.844" cy="98.2345" r="1.71883" stroke="#007AFF" stroke-width="1.45" stroke-linecap="round" stroke-linejoin="round"/>
<circle cx="426.563" cy="82.7657" r="1.71883" stroke="#007AFF" stroke-width="1.45" stroke-linecap="round" stroke-linejoin="round"/>
<path d="M416.25 89.6403H426.561" stroke="#007AFF" stroke-width="1.45" stroke-linecap="round" stroke-linejoin="round"/>
<path d="M416.25 94.7969H421.404L423.626 97.019" stroke="#007AFF" stroke-width="1.45" stroke-linecap="round" stroke-linejoin="round"/>
<path d="M424.842 82.7656H419.685L416.25 86.2032" stroke="#007AFF" stroke-width="1.45" stroke-linecap="round" stroke-linejoin="round"/>
<path d="M420.154 108.152L415.766 103.764" stroke="#007AFF" stroke-width="1.45" stroke-linecap="round" stroke-linejoin="round"/>
<path d="M389.238 77.2351L384.812 72.8096" stroke="#007AFF" stroke-width="1.45" stroke-linecap="round" stroke-linejoin="round"/>
<circle cx="421.406" cy="109.407" r="1.71828" stroke="#007AFF" stroke-width="1.45" stroke-linecap="round" stroke-linejoin="round"/>
<circle cx="383.594" cy="71.5938" r="1.71883" stroke="#007AFF" stroke-width="1.45" stroke-linecap="round" stroke-linejoin="round"/>
<path d="M420.154 72.8486L415.766 77.2366" stroke="#007AFF" stroke-width="1.45" stroke-linecap="round" stroke-linejoin="round"/>
<path d="M389.238 103.766L384.812 108.191" stroke="#007AFF" stroke-width="1.45" stroke-linecap="round" stroke-linejoin="round"/>
<circle cx="421.406" cy="71.5933" r="1.71828" stroke="#007AFF" stroke-width="1.45" stroke-linecap="round" stroke-linejoin="round"/>
<circle cx="383.594" cy="109.406" r="1.71883" stroke="#007AFF" stroke-width="1.45" stroke-linecap="round" stroke-linejoin="round"/>
<defs>
<filter id="filter0_f_0_6027" x="85.9515" y="83.9486" width="288.097" height="288.097" filterUnits="userSpaceOnUse" color-interpolation-filters="sRGB">
<feFlood flood-opacity="0" result="BackgroundImageFix"/>
<feBlend mode="normal" in="SourceGraphic" in2="BackgroundImageFix" result="shape"/>
<feGaussianBlur stdDeviation="40.7742" result="effect1_foregroundBlur_0_6027"/>
</filter>
<linearGradient id="paint0_linear_0_6027" x1="44.5" y1="558.997" x2="415.5" y2="558.997" gradientUnits="userSpaceOnUse">
<stop stop-color="#3CA8FA"/>
<stop offset="1" stop-color="#07BBA9"/>
</linearGradient>
<linearGradient id="paint1_linear_0_6027" x1="205.605" y1="443.304" x2="386.244" y2="255.817" gradientUnits="userSpaceOnUse">
<stop stop-color="#151D9C"/>
<stop offset="0.486381" stop-color="#00A4FF"/>
<stop offset="1" stop-color="#00D97B"/>
<stop offset="1" stop-color="#3FBAFF"/>
</linearGradient>
<linearGradient id="paint2_linear_0_6027" x1="197.798" y1="472.202" x2="436.242" y2="224.719" gradientUnits="userSpaceOnUse">
<stop stop-color="#151D9C"/>
<stop offset="0.486381" stop-color="#00A4FF"/>
<stop offset="1" stop-color="#00D97B"/>
<stop offset="1" stop-color="#3FBAFF"/>
</linearGradient>
<linearGradient id="paint3_linear_0_6027" x1="165.341" y1="495.439" x2="473.064" y2="284.321" gradientUnits="userSpaceOnUse">
<stop stop-color="#151D9C"/>
<stop offset="0.40437" stop-color="#00A4FF"/>
<stop offset="1" stop-color="#00D97B"/>
<stop offset="1" stop-color="#3FBAFF"/>
</linearGradient>
<linearGradient id="paint4_linear_0_6027" x1="167.902" y1="487.758" x2="388.29" y2="437.943" gradientUnits="userSpaceOnUse">
<stop stop-color="#151D9C"/>
<stop offset="0.315167" stop-color="#00A4FF"/>
<stop offset="1" stop-color="#00D97B"/>
<stop offset="1" stop-color="#3FBAFF"/>
</linearGradient>
</defs>
</svg>
