<svg width="180" height="26" viewBox="0 0 180 26" fill="none" xmlns="http://www.w3.org/2000/svg">
<path d="M27.3789 5.7907V6.09071L27.3803 6.0907L27.3789 5.7907ZM26.9397 5.97596L26.727 5.76439L26.7253 5.76617L26.9397 5.97596ZM35.4174 19.4312L35.2131 19.2116L35.2113 19.2132L35.4174 19.4312ZM34.537 13.1174L34.3749 12.865L33.9399 13.1444L34.3983 13.3834L34.537 13.1174ZM35.8978 11.6791L35.6373 11.5304L35.6359 11.5328L35.8978 11.6791ZM32.0995 5.76953V5.46953L32.0982 5.46953L32.0995 5.76953ZM27.9936 7.03189L27.9921 6.7319L27.6936 6.73339V7.03189H27.9936ZM32.0995 7.01138V6.71138L32.098 6.71139L32.0995 7.01138ZM32.0995 12.6V12.3L32.0987 12.3L32.0995 12.6ZM27.9936 12.6106H27.6936V12.9114L27.9943 12.9106L27.9936 12.6106ZM27.9936 13.8419V13.5419H27.6936V13.8419H27.9936ZM34.5672 14.6391L34.3671 14.8627L34.3688 14.8642L34.5672 14.6391ZM27.9936 19.3789H27.6936V19.6789H27.9936V19.3789ZM27.3789 5.4907C27.1259 5.4907 26.9047 5.58575 26.727 5.7644L27.1524 6.18751C27.2209 6.11872 27.2903 6.0907 27.3789 6.0907V5.4907ZM26.7253 5.76617C26.5529 5.94235 26.4656 6.16259 26.4656 6.41064H27.0656C27.0656 6.31464 27.0948 6.24642 27.1542 6.18574L26.7253 5.76617ZM26.4656 6.41064V20.0002H27.0656V6.41064H26.4656ZM26.4656 20.0002C26.4656 20.2533 26.5595 20.4766 26.7409 20.6511L27.1569 20.2187C27.0948 20.159 27.0656 20.0925 27.0656 20.0002H26.4656ZM26.7305 20.6406C26.9028 20.8235 27.1241 20.9215 27.3789 20.9215V20.3215C27.2921 20.3215 27.228 20.2937 27.1673 20.2292L26.7305 20.6406ZM27.3789 20.9215H32.3666V20.3215H27.3789V20.9215ZM32.3666 20.9215C33.6348 20.9215 34.7259 20.4978 35.6235 19.6492L35.2113 19.2132C34.4293 19.9525 33.4874 20.3215 32.3666 20.3215V20.9215ZM35.6217 19.6509C36.5255 18.8102 36.9872 17.783 36.9872 16.5849H36.3872C36.3872 17.6086 36.0007 18.4789 35.2131 19.2116L35.6217 19.6509ZM36.9872 16.5849C36.9872 15.7914 36.7772 15.056 36.3583 14.3867L35.8497 14.705C36.2084 15.2782 36.3872 15.9031 36.3872 16.5849H36.9872ZM36.3577 14.3857C35.9455 13.7325 35.3834 13.2204 34.6757 12.8514L34.3983 13.3834C35.0155 13.7052 35.4968 14.1458 35.8503 14.706L36.3577 14.3857ZM34.6992 13.3698C35.3195 12.9714 35.8078 12.4557 36.1598 11.8253L35.6359 11.5328C35.3333 12.0749 34.9144 12.5185 34.3749 12.865L34.6992 13.3698ZM36.1584 11.8277C36.5267 11.1822 36.7104 10.4858 36.7104 9.74385H36.1104C36.1104 10.382 35.9536 10.9758 35.6373 11.5304L36.1584 11.8277ZM36.7104 9.74385C36.7104 8.54747 36.2578 7.52631 35.3656 6.69821L34.9574 7.13798C35.7304 7.85541 36.1104 8.71853 36.1104 9.74385H36.7104ZM35.3645 6.69725C34.4726 5.8772 33.3781 5.46953 32.0995 5.46953V6.06953C33.2388 6.06953 34.1852 6.42801 34.9584 7.13894L35.3645 6.69725ZM32.0982 5.46953L27.3776 5.49071L27.3803 6.0907L32.1009 6.06953L32.0982 5.46953ZM27.9951 7.33189L32.101 7.31138L32.098 6.71139L27.9921 6.7319L27.9951 7.33189ZM32.0995 7.31138C32.9006 7.31138 33.5589 7.55144 34.0923 8.02284L34.4896 7.57325C33.8357 6.99532 33.0317 6.71138 32.0995 6.71138V7.31138ZM34.0909 8.0216C34.6239 8.49863 34.8818 9.06696 34.8818 9.74385H35.4818C35.4818 8.88844 35.1453 8.16001 34.491 7.57449L34.0909 8.0216ZM34.8818 9.74385C34.8818 10.4432 34.619 11.0377 34.0761 11.5428L34.4848 11.9821C35.1437 11.369 35.4818 10.6178 35.4818 9.74385H34.8818ZM34.0761 11.5428C33.5339 12.0472 32.8807 12.3 32.0995 12.3V12.9C33.0254 12.9 33.8266 12.5944 34.4848 11.9821L34.0761 11.5428ZM32.0987 12.3L27.9928 12.3106L27.9943 12.9106L32.1003 12.9L32.0987 12.3ZM28.2936 12.6106V7.03189H27.6936V12.6106H28.2936ZM27.9936 14.1419H32.0995V13.5419H27.9936V14.1419ZM32.0995 14.1419H32.3044V13.5419H32.0995V14.1419ZM32.3044 14.1419H32.3869V13.5419H32.3044V14.1419ZM32.3869 14.1419C33.1787 14.1419 33.8329 14.3847 34.3671 14.8627L34.7672 14.4156C34.114 13.831 33.3138 13.5419 32.3869 13.5419V14.1419ZM34.3688 14.8642C34.9003 15.3328 35.1586 15.9007 35.1586 16.5849H35.7586C35.7586 15.7237 35.4227 14.9935 34.7656 14.4141L34.3688 14.8642ZM35.1586 16.5849C35.1586 17.2689 34.897 17.8481 34.3556 18.3398L34.759 18.7839C35.4181 18.1853 35.7586 17.4479 35.7586 16.5849H35.1586ZM34.3571 18.3385C33.8068 18.8319 33.1486 19.0789 32.3666 19.0789V19.6789C33.289 19.6789 34.0918 19.3822 34.7576 18.7852L34.3571 18.3385ZM32.3666 19.0789H27.9936V19.6789H32.3666V19.0789ZM28.2936 19.3789V13.8419H27.6936V19.3789H28.2936Z" fill="#222426"/>
<mask id="mask0_0_9417" style="mask-type:luminance" maskUnits="userSpaceOnUse" x="26" y="5" width="11" height="16">
<path fill-rule="evenodd" clip-rule="evenodd" d="M27.3789 5.7907C27.2081 5.7907 27.0628 5.85223 26.9397 5.97596C26.8239 6.09438 26.7656 6.23862 26.7656 6.41064V20.0002C26.7656 20.1729 26.8272 20.3178 26.9489 20.4349C27.0654 20.5586 27.2081 20.6215 27.3789 20.6215H32.3666C33.5611 20.6215 34.5776 20.2252 35.4174 19.4312C36.2631 18.6446 36.6872 17.6958 36.6872 16.5849C36.6872 15.8472 36.4928 15.1671 36.104 14.5459C35.7211 13.9392 35.1994 13.4628 34.537 13.1174C35.117 12.7449 35.5706 12.2653 35.8978 11.6791C36.2402 11.079 36.4104 10.4339 36.4104 9.74385C36.4104 8.633 35.9941 7.69086 35.1615 6.91809C34.3289 6.15261 33.3085 5.76953 32.0995 5.76953L27.3789 5.7907ZM27.9936 7.03189L32.0995 7.01138C32.9661 7.01138 33.6973 7.27338 34.2909 7.79804C34.8846 8.32932 35.1818 8.9777 35.1818 9.74385C35.1818 10.5305 34.8813 11.2034 34.2805 11.7624C33.6802 12.3208 32.953 12.6 32.0995 12.6L27.9936 12.6106V7.03189ZM27.9936 13.8419H32.0995H32.3044H32.3869C33.2463 13.8419 33.9735 14.1079 34.5672 14.6391C35.1615 15.1631 35.4586 15.8122 35.4586 16.5849C35.4586 17.3584 35.1576 18.0167 34.5573 18.5619C33.9493 19.107 33.2188 19.3789 32.3666 19.3789H27.9936V13.8419Z" fill="white"/>
<path d="M27.3789 5.7907V6.09071L27.3803 6.0907L27.3789 5.7907ZM26.9397 5.97596L26.727 5.76439L26.7253 5.76617L26.9397 5.97596ZM35.4174 19.4312L35.2131 19.2116L35.2113 19.2132L35.4174 19.4312ZM34.537 13.1174L34.3749 12.865L33.9399 13.1444L34.3983 13.3834L34.537 13.1174ZM35.8978 11.6791L35.6373 11.5304L35.6359 11.5328L35.8978 11.6791ZM32.0995 5.76953V5.46953L32.0982 5.46953L32.0995 5.76953ZM27.9936 7.03189L27.9921 6.7319L27.6936 6.73339V7.03189H27.9936ZM32.0995 7.01138V6.71138L32.098 6.71139L32.0995 7.01138ZM32.0995 12.6V12.3L32.0987 12.3L32.0995 12.6ZM27.9936 12.6106H27.6936V12.9114L27.9943 12.9106L27.9936 12.6106ZM27.9936 13.8419V13.5419H27.6936V13.8419H27.9936ZM34.5672 14.6391L34.3671 14.8627L34.3688 14.8642L34.5672 14.6391ZM27.9936 19.3789H27.6936V19.6789H27.9936V19.3789ZM27.3789 5.4907C27.1259 5.4907 26.9047 5.58575 26.727 5.7644L27.1524 6.18751C27.2209 6.11872 27.2903 6.0907 27.3789 6.0907V5.4907ZM26.7253 5.76617C26.5529 5.94235 26.4656 6.16259 26.4656 6.41064H27.0656C27.0656 6.31464 27.0948 6.24642 27.1542 6.18574L26.7253 5.76617ZM26.4656 6.41064V20.0002H27.0656V6.41064H26.4656ZM26.4656 20.0002C26.4656 20.2533 26.5595 20.4766 26.7409 20.6511L27.1569 20.2187C27.0948 20.159 27.0656 20.0925 27.0656 20.0002H26.4656ZM26.7305 20.6406C26.9028 20.8235 27.1241 20.9215 27.3789 20.9215V20.3215C27.2921 20.3215 27.228 20.2937 27.1673 20.2292L26.7305 20.6406ZM27.3789 20.9215H32.3666V20.3215H27.3789V20.9215ZM32.3666 20.9215C33.6348 20.9215 34.7259 20.4978 35.6235 19.6492L35.2113 19.2132C34.4293 19.9525 33.4874 20.3215 32.3666 20.3215V20.9215ZM35.6217 19.6509C36.5255 18.8102 36.9872 17.783 36.9872 16.5849H36.3872C36.3872 17.6086 36.0007 18.4789 35.2131 19.2116L35.6217 19.6509ZM36.9872 16.5849C36.9872 15.7914 36.7772 15.056 36.3583 14.3867L35.8497 14.705C36.2084 15.2782 36.3872 15.9031 36.3872 16.5849H36.9872ZM36.3577 14.3857C35.9455 13.7325 35.3834 13.2204 34.6757 12.8514L34.3983 13.3834C35.0155 13.7052 35.4968 14.1458 35.8503 14.706L36.3577 14.3857ZM34.6992 13.3698C35.3195 12.9714 35.8078 12.4557 36.1598 11.8253L35.6359 11.5328C35.3333 12.0749 34.9144 12.5185 34.3749 12.865L34.6992 13.3698ZM36.1584 11.8277C36.5267 11.1822 36.7104 10.4858 36.7104 9.74385H36.1104C36.1104 10.382 35.9536 10.9758 35.6373 11.5304L36.1584 11.8277ZM36.7104 9.74385C36.7104 8.54747 36.2578 7.52631 35.3656 6.69821L34.9574 7.13798C35.7304 7.85541 36.1104 8.71853 36.1104 9.74385H36.7104ZM35.3645 6.69725C34.4726 5.8772 33.3781 5.46953 32.0995 5.46953V6.06953C33.2388 6.06953 34.1852 6.42801 34.9584 7.13894L35.3645 6.69725ZM32.0982 5.46953L27.3776 5.49071L27.3803 6.0907L32.1009 6.06953L32.0982 5.46953ZM27.9951 7.33189L32.101 7.31138L32.098 6.71139L27.9921 6.7319L27.9951 7.33189ZM32.0995 7.31138C32.9006 7.31138 33.5589 7.55144 34.0923 8.02284L34.4896 7.57325C33.8357 6.99532 33.0317 6.71138 32.0995 6.71138V7.31138ZM34.0909 8.0216C34.6239 8.49863 34.8818 9.06696 34.8818 9.74385H35.4818C35.4818 8.88844 35.1453 8.16001 34.491 7.57449L34.0909 8.0216ZM34.8818 9.74385C34.8818 10.4432 34.619 11.0377 34.0761 11.5428L34.4848 11.9821C35.1437 11.369 35.4818 10.6178 35.4818 9.74385H34.8818ZM34.0761 11.5428C33.5339 12.0472 32.8807 12.3 32.0995 12.3V12.9C33.0254 12.9 33.8266 12.5944 34.4848 11.9821L34.0761 11.5428ZM32.0987 12.3L27.9928 12.3106L27.9943 12.9106L32.1003 12.9L32.0987 12.3ZM28.2936 12.6106V7.03189H27.6936V12.6106H28.2936ZM27.9936 14.1419H32.0995V13.5419H27.9936V14.1419ZM32.0995 14.1419H32.3044V13.5419H32.0995V14.1419ZM32.3044 14.1419H32.3869V13.5419H32.3044V14.1419ZM32.3869 14.1419C33.1787 14.1419 33.8329 14.3847 34.3671 14.8627L34.7672 14.4156C34.114 13.831 33.3138 13.5419 32.3869 13.5419V14.1419ZM34.3688 14.8642C34.9003 15.3328 35.1586 15.9007 35.1586 16.5849H35.7586C35.7586 15.7237 35.4227 14.9935 34.7656 14.4141L34.3688 14.8642ZM35.1586 16.5849C35.1586 17.2689 34.897 17.8481 34.3556 18.3398L34.759 18.7839C35.4181 18.1853 35.7586 17.4479 35.7586 16.5849H35.1586ZM34.3571 18.3385C33.8068 18.8319 33.1486 19.0789 32.3666 19.0789V19.6789C33.289 19.6789 34.0918 19.3822 34.7576 18.7852L34.3571 18.3385ZM32.3666 19.0789H27.9936V19.6789H32.3666V19.0789ZM28.2936 19.3789V13.8419H27.6936V19.3789H28.2936Z" fill="white"/>
</mask>
<g mask="url(#mask0_0_9417)">
<path fill-rule="evenodd" clip-rule="evenodd" d="M23.0625 24.3655H40.3929V2.02539H23.0625V24.3655Z" fill="#222426" stroke="#222426" stroke-width="0.6"/>
</g>
<path d="M45.7133 5.79899V5.49899H45.6869L45.6609 5.5036L45.7133 5.79899ZM45.3251 6.05702L45.1136 5.84433L45.0776 5.8801L45.0554 5.92571L45.3251 6.05702ZM41.1269 16.2829L40.8493 16.1691L40.8269 16.2238V16.2829H41.1269ZM41.1269 16.2929L41.4044 16.4067L41.4269 16.352V16.2929H41.1269ZM39.7039 19.761L39.9789 19.8811L39.9814 19.8749L39.7039 19.761ZM40.8297 20.2367L40.5523 20.1225L40.551 20.1257L40.8297 20.2367ZM42.0995 17.153V16.853H41.8986L41.8221 17.0387L42.0995 17.153ZM49.5744 17.153L49.8519 17.0388L49.7754 16.853H49.5744V17.153ZM50.8436 20.2367L51.1216 20.1239L51.121 20.1226L50.8436 20.2367ZM51.6435 20.5676L51.534 20.2882L51.5243 20.292L51.5148 20.2965L51.6435 20.5676ZM51.9707 20.2367L51.6952 20.1175L51.691 20.1284L51.9707 20.2367ZM51.9707 19.761L51.6931 19.8749L51.6958 19.8811L51.9707 19.761ZM50.5477 16.2929H50.2477V16.352L50.2702 16.4067L50.5477 16.2929ZM50.5477 16.2829H50.8477V16.2238L50.8253 16.1691L50.5477 16.2829ZM46.4012 6.17148L46.6788 6.05765L46.6779 6.05565L46.4012 6.17148ZM46.3076 6.016L46.0644 6.19204L46.0715 6.20109L46.3076 6.016ZM46.1747 5.89161L46.3573 5.65331L46.3478 5.6466L46.1747 5.89161ZM45.8992 5.79899L45.843 6.09368L45.8708 6.09899H45.8992V5.79899ZM45.837 8.024L46.1145 7.91012L45.8369 7.23347L45.5594 7.91018L45.837 8.024ZM49.0731 15.9111V16.2111H49.5204L49.3506 15.7972L49.0731 15.9111ZM42.6029 15.9111L42.3253 15.7973L42.1556 16.2111H42.6029V15.9111ZM45.7656 5.49899H45.7133V6.09899H45.7656V5.49899ZM45.6609 5.5036C45.5363 5.52569 45.4248 5.57753 45.3272 5.64582L45.6712 6.13741C45.7098 6.11042 45.741 6.09875 45.7657 6.09438L45.6609 5.5036ZM45.7022 6.11251C45.7038 6.11103 45.7066 6.10851 45.7097 6.1054C45.7111 6.10404 45.7199 6.09561 45.7297 6.08405C45.7316 6.08178 45.7496 6.0612 45.7658 6.031C45.7704 6.02232 45.799 5.97072 45.801 5.89776C45.8021 5.855 45.7944 5.78831 45.7501 5.72239C45.7039 5.65362 45.6397 5.61801 45.587 5.60225C45.5021 5.5769 45.4323 5.59754 45.4231 5.6C45.4008 5.60601 45.3841 5.61332 45.3768 5.61661C45.3613 5.62369 45.3498 5.63058 45.3461 5.63277C45.337 5.63825 45.3301 5.64311 45.3281 5.64449C45.325 5.64664 45.3224 5.64851 45.3208 5.64974C45.3174 5.65223 45.3142 5.65464 45.3118 5.65649C45.3025 5.66362 45.2885 5.67469 45.2717 5.6881L45.6456 6.15731C45.6628 6.1436 45.6727 6.13581 45.677 6.13252C45.6867 6.12509 45.6727 6.13653 45.6553 6.14696C45.6519 6.14903 45.6405 6.15583 45.6251 6.16286C45.6179 6.16612 45.6013 6.17341 45.579 6.17941C45.5698 6.18186 45.5001 6.2025 45.4152 6.17715C45.3625 6.1614 45.2983 6.12579 45.2521 6.05703C45.2078 5.99112 45.2001 5.92443 45.2012 5.88168C45.2032 5.80875 45.2318 5.75718 45.2364 5.74854C45.2525 5.71842 45.2704 5.69795 45.2722 5.69583C45.2818 5.68455 45.2901 5.67655 45.2909 5.67574C45.2936 5.6732 45.2955 5.67137 45.2962 5.67071L45.7022 6.11251ZM45.2793 5.68226C45.2493 5.7046 45.2174 5.73012 45.1943 5.7534L45.6209 6.17538C45.6183 6.17795 45.6164 6.17976 45.6155 6.18065C45.6144 6.18162 45.6138 6.18218 45.6137 6.1823C45.6135 6.18249 45.6143 6.18175 45.6163 6.18004C45.6205 6.17663 45.6276 6.17093 45.638 6.16316L45.2793 5.68226ZM45.2046 5.74349C45.189 5.7578 45.1774 5.77132 45.1722 5.77747C45.1659 5.78494 45.1601 5.79222 45.1558 5.79769C45.1488 5.80664 45.1363 5.82313 45.1289 5.83265L45.6038 6.19934C45.6095 6.19201 45.6146 6.18527 45.6188 6.17988C45.6231 6.17416 45.6261 6.17031 45.6285 6.16731C45.631 6.1641 45.6311 6.16398 45.6299 6.16539C45.6292 6.16622 45.6274 6.16834 45.6247 6.17125C45.6222 6.17396 45.6173 6.17908 45.6106 6.18529L45.2046 5.74349ZM45.1548 5.80331L45.1136 5.84433L45.5367 6.26971L45.5779 6.22869L45.1548 5.80331ZM45.0554 5.92571C45.0325 5.97266 45.0115 6.01956 44.9943 6.06479L45.5551 6.27817C45.5641 6.25458 45.5771 6.22474 45.5949 6.18833L45.0554 5.92571ZM44.9972 6.05762L40.8493 16.1691L41.4044 16.3968L45.5523 6.28533L44.9972 6.05762ZM40.8269 16.2829V16.2929H41.4269V16.2829H40.8269ZM40.8493 16.179L39.4263 19.6472L39.9814 19.8749L41.4044 16.4067L40.8493 16.179ZM39.4289 19.641C39.3267 19.8753 39.3271 20.1214 39.4286 20.3559L39.9792 20.1176C39.9433 20.0345 39.9437 19.9617 39.9788 19.8811L39.4289 19.641ZM39.4245 20.3461C39.5166 20.5812 39.6866 20.7543 39.9231 20.8469L40.1419 20.2882C40.0642 20.2578 40.0155 20.2099 39.9832 20.1274L39.4245 20.3461ZM39.9029 20.8381C39.9415 20.8566 39.9708 20.8703 39.9908 20.8795C40.0008 20.8841 40.0085 20.8876 40.0138 20.89C40.0165 20.8912 40.0185 20.8922 40.02 20.8928C40.0208 20.8932 40.0214 20.8935 40.0219 20.8937C40.0221 20.8938 40.0223 20.8938 40.0224 20.8939C40.0225 20.894 40.0226 20.894 40.0227 20.894C40.0227 20.894 40.0227 20.894 40.0227 20.894C40.0228 20.8941 40.0228 20.8941 40.0228 20.8941C40.0228 20.8941 40.0228 20.8941 40.0228 20.8941C40.0228 20.8941 40.0228 20.8941 40.1444 20.6198C40.266 20.3456 40.266 20.3456 40.266 20.3456C40.266 20.3456 40.266 20.3456 40.266 20.3456C40.266 20.3456 40.266 20.3456 40.266 20.3456C40.2661 20.3456 40.2661 20.3456 40.2661 20.3456C40.2661 20.3456 40.2661 20.3456 40.2661 20.3456C40.2661 20.3456 40.2661 20.3456 40.2661 20.3456C40.2659 20.3455 40.2657 20.3454 40.2653 20.3452C40.2644 20.3449 40.263 20.3442 40.261 20.3433C40.257 20.3415 40.2507 20.3386 40.242 20.3346C40.2247 20.3267 40.198 20.3142 40.162 20.297L39.9029 20.8381ZM40.1444 20.9198H40.2681V20.3198H40.1444V20.9198ZM40.2681 20.9198C40.4525 20.9198 40.6294 20.8758 40.7821 20.7716C40.9346 20.6675 41.0402 20.5189 41.1084 20.3478L40.551 20.1257C40.5177 20.2093 40.4787 20.2522 40.4439 20.276C40.4092 20.2997 40.3561 20.3198 40.2681 20.3198V20.9198ZM41.1071 20.351L42.3769 17.2672L41.8221 17.0387L40.5523 20.1225L41.1071 20.351ZM42.0995 17.453H49.5744V16.853H42.0995V17.453ZM49.297 17.2671L50.5662 20.3509L51.121 20.1226L49.8519 17.0388L49.297 17.2671ZM50.5656 20.3496C50.6347 20.5198 50.7405 20.668 50.8931 20.7718C51.046 20.8759 51.223 20.9198 51.4078 20.9198V20.3198C51.3191 20.3198 51.2656 20.2996 51.2307 20.2758C51.1954 20.2518 51.1559 20.2084 51.1216 20.1239L50.5656 20.3496ZM51.4078 20.9198C51.5325 20.9198 51.6546 20.8943 51.7721 20.8386L51.5148 20.2965C51.4818 20.3122 51.4481 20.3198 51.4078 20.3198V20.9198ZM51.7529 20.8469C51.9899 20.7541 52.1593 20.5805 52.2505 20.3451L51.691 20.1284C51.6591 20.2106 51.6112 20.258 51.534 20.2882L51.7529 20.8469ZM52.246 20.3559C52.3475 20.1214 52.3479 19.8753 52.2457 19.641L51.6958 19.8811C51.731 19.9617 51.7314 20.0345 51.6954 20.1176L52.246 20.3559ZM52.2483 19.6472L50.8253 16.179L50.2702 16.4067L51.6932 19.8749L52.2483 19.6472ZM50.8477 16.2929V16.2829H50.2477V16.2929H50.8477ZM50.8253 16.1691L46.6788 6.05765L46.1236 6.2853L50.2702 16.3968L50.8253 16.1691ZM46.6779 6.05565C46.6617 6.01678 46.6418 5.9718 46.6169 5.92231L46.0808 6.19172C46.0978 6.22559 46.1119 6.25737 46.1245 6.28731L46.6779 6.05565ZM46.0488 6.05702C46.0488 6.03643 46.0498 5.89078 46.1902 5.80378C46.3254 5.71999 46.4526 5.77757 46.4683 5.78455C46.5023 5.79969 46.5248 5.81765 46.531 5.8227C46.5403 5.83013 46.5466 5.83625 46.5492 5.83884C46.5569 5.84639 46.5565 5.8472 46.5437 5.8309L46.0715 6.20109C46.0862 6.21986 46.1064 6.24482 46.1278 6.26593C46.1293 6.26743 46.1667 6.30706 46.2242 6.33267C46.2416 6.34041 46.3702 6.39811 46.5062 6.31379C46.6475 6.22625 46.6488 6.07942 46.6488 6.05702H46.0488ZM46.5506 5.84008C46.54 5.82548 46.5292 5.81074 46.519 5.79769C46.5125 5.78942 46.4938 5.76535 46.47 5.74349L46.064 6.18529C46.058 6.17979 46.0537 6.17528 46.0514 6.17278C46.0488 6.17011 46.0471 6.16812 46.0463 6.16717C46.0448 6.16543 46.0447 6.16518 46.0463 6.16731C46.0497 6.17164 46.0555 6.17939 46.0646 6.19191L46.5506 5.84008ZM46.267 5.66439C46.3163 5.66439 46.3535 5.67672 46.3717 5.6837C46.3917 5.69137 46.4064 5.69962 46.4142 5.7043C46.4294 5.71341 46.4387 5.72118 46.4392 5.72158C46.4411 5.72309 46.4374 5.72012 46.4236 5.70682L46.007 6.1386C46.022 6.15308 46.0409 6.17096 46.0598 6.18636C46.0688 6.1937 46.0852 6.20669 46.1063 6.21927C46.115 6.22448 46.1779 6.26439 46.267 6.26439V5.66439ZM46.3978 5.68458L46.3572 5.65348L45.9923 6.12974L46.0328 6.16084L46.3978 5.68458ZM46.3478 5.6466C46.2445 5.57357 46.126 5.52362 45.9975 5.50283L45.9017 6.09514C45.9368 6.10082 45.9701 6.11438 46.0016 6.13662L46.3478 5.6466ZM45.9496 5.49899H45.8992V6.09899H45.9496V5.49899ZM45.9554 5.5043C45.9371 5.50081 45.9199 5.49768 45.9053 5.49533C45.8988 5.49429 45.8684 5.48906 45.837 5.48906V6.08906C45.8318 6.08906 45.8276 6.08892 45.8245 6.08877C45.8213 6.08863 45.8187 6.08844 45.8167 6.08829C45.813 6.08799 45.8103 6.08769 45.8092 6.08756C45.8072 6.08732 45.8072 6.08727 45.8102 6.08776C45.8162 6.08871 45.8266 6.09055 45.843 6.09368L45.9554 5.5043ZM45.837 5.48906C45.8087 5.48906 45.7777 5.49378 45.7734 5.49438C45.7585 5.49645 45.7397 5.4993 45.7181 5.50278L45.8132 6.0952C45.8328 6.09205 45.8468 6.08995 45.8557 6.08871C45.8603 6.08807 45.8622 6.08786 45.8621 6.08787C45.8621 6.08787 45.8604 6.08806 45.8576 6.08828C45.8561 6.0884 45.8538 6.08857 45.8508 6.08872C45.8481 6.08886 45.8432 6.08906 45.837 6.08906V5.48906ZM45.5594 8.13787L48.7955 16.025L49.3506 15.7972L46.1145 7.91012L45.5594 8.13787ZM49.0731 15.6111H42.6029V16.2111H49.0731V15.6111ZM42.8804 16.0249L46.1146 8.13782L45.5594 7.91018L42.3253 15.7973L42.8804 16.0249Z" fill="#222426"/>
<mask id="mask1_0_9417" style="mask-type:luminance" maskUnits="userSpaceOnUse" x="39" y="5" width="14" height="16">
<path fill-rule="evenodd" clip-rule="evenodd" d="M45.7656 5.79899H45.7133C45.6387 5.81222 45.5673 5.84398 45.4992 5.89161C45.5064 5.885 45.4927 5.89558 45.4587 5.92271C45.4312 5.94322 45.4141 5.95777 45.4076 5.96439C45.4004 5.97101 45.3873 5.98887 45.3664 6.016L45.3251 6.05702C45.3048 6.0987 45.2878 6.13707 45.2747 6.17148L41.1269 16.2829V16.2929L39.7039 19.761C39.6352 19.9185 39.6352 20.078 39.7039 20.2367C39.7661 20.3955 39.8754 20.506 40.0325 20.5676C40.1071 20.6033 40.1444 20.6198 40.1444 20.6198H40.2681C40.5404 20.6198 40.7283 20.4915 40.8297 20.2367L42.0995 17.153H49.5744L50.8436 20.2367C50.947 20.4915 51.1342 20.6198 51.4078 20.6198C51.4903 20.6198 51.5682 20.6033 51.6435 20.5676C51.8005 20.506 51.9092 20.3955 51.9707 20.2367C52.0395 20.078 52.0395 19.9185 51.9707 19.761L50.5477 16.2929V16.2829L46.4012 6.17148C46.3868 6.13707 46.3698 6.0987 46.3488 6.05702C46.3488 6.06429 46.3351 6.05106 46.3076 6.016C46.288 5.98887 46.2742 5.97101 46.267 5.96439C46.2605 5.96439 46.2441 5.9505 46.2153 5.92271L46.1747 5.89161C46.1073 5.84398 46.0314 5.81222 45.9496 5.79899H45.8992C45.8645 5.79237 45.8442 5.78906 45.837 5.78906C45.8311 5.78906 45.8069 5.79237 45.7656 5.79899ZM45.837 8.024L49.0731 15.9111H42.6029L45.837 8.024Z" fill="white"/>
<path d="M45.7133 5.79899V5.49899H45.6869L45.6609 5.5036L45.7133 5.79899ZM45.3251 6.05702L45.1136 5.84433L45.0776 5.8801L45.0554 5.92571L45.3251 6.05702ZM41.1269 16.2829L40.8493 16.1691L40.8269 16.2238V16.2829H41.1269ZM41.1269 16.2929L41.4044 16.4067L41.4269 16.352V16.2929H41.1269ZM39.7039 19.761L39.9789 19.8811L39.9814 19.8749L39.7039 19.761ZM40.8297 20.2367L40.5523 20.1225L40.551 20.1257L40.8297 20.2367ZM42.0995 17.153V16.853H41.8986L41.8221 17.0387L42.0995 17.153ZM49.5744 17.153L49.8519 17.0388L49.7754 16.853H49.5744V17.153ZM50.8436 20.2367L51.1216 20.1239L51.121 20.1226L50.8436 20.2367ZM51.6435 20.5676L51.534 20.2882L51.5243 20.292L51.5148 20.2965L51.6435 20.5676ZM51.9707 20.2367L51.6952 20.1175L51.691 20.1284L51.9707 20.2367ZM51.9707 19.761L51.6931 19.8749L51.6958 19.8811L51.9707 19.761ZM50.5477 16.2929H50.2477V16.352L50.2702 16.4067L50.5477 16.2929ZM50.5477 16.2829H50.8477V16.2238L50.8253 16.1691L50.5477 16.2829ZM46.4012 6.17148L46.6788 6.05765L46.6779 6.05565L46.4012 6.17148ZM46.3076 6.016L46.0644 6.19204L46.0715 6.20109L46.3076 6.016ZM46.1747 5.89161L46.3573 5.65331L46.3478 5.6466L46.1747 5.89161ZM45.8992 5.79899L45.843 6.09368L45.8708 6.09899H45.8992V5.79899ZM45.837 8.024L46.1145 7.91012L45.8369 7.23347L45.5594 7.91018L45.837 8.024ZM49.0731 15.9111V16.2111H49.5204L49.3506 15.7972L49.0731 15.9111ZM42.6029 15.9111L42.3253 15.7973L42.1556 16.2111H42.6029V15.9111ZM45.7656 5.49899H45.7133V6.09899H45.7656V5.49899ZM45.6609 5.5036C45.5363 5.52569 45.4248 5.57753 45.3272 5.64582L45.6712 6.13741C45.7098 6.11042 45.741 6.09875 45.7657 6.09438L45.6609 5.5036ZM45.7022 6.11251C45.7038 6.11103 45.7066 6.10851 45.7097 6.1054C45.7111 6.10404 45.7199 6.09561 45.7297 6.08405C45.7316 6.08178 45.7496 6.0612 45.7658 6.031C45.7704 6.02232 45.799 5.97072 45.801 5.89776C45.8021 5.855 45.7944 5.78831 45.7501 5.72239C45.7039 5.65362 45.6397 5.61801 45.587 5.60225C45.5021 5.5769 45.4323 5.59754 45.4231 5.6C45.4008 5.60601 45.3841 5.61332 45.3768 5.61661C45.3613 5.62369 45.3498 5.63058 45.3461 5.63277C45.337 5.63825 45.3301 5.64311 45.3281 5.64449C45.325 5.64664 45.3224 5.64851 45.3208 5.64974C45.3174 5.65223 45.3142 5.65464 45.3118 5.65649C45.3025 5.66362 45.2885 5.67469 45.2717 5.6881L45.6456 6.15731C45.6628 6.1436 45.6727 6.13581 45.677 6.13252C45.6867 6.12509 45.6727 6.13653 45.6553 6.14696C45.6519 6.14903 45.6405 6.15583 45.6251 6.16286C45.6179 6.16612 45.6013 6.17341 45.579 6.17941C45.5698 6.18186 45.5001 6.2025 45.4152 6.17715C45.3625 6.1614 45.2983 6.12579 45.2521 6.05703C45.2078 5.99112 45.2001 5.92443 45.2012 5.88168C45.2032 5.80875 45.2318 5.75718 45.2364 5.74854C45.2525 5.71842 45.2704 5.69795 45.2722 5.69583C45.2818 5.68455 45.2901 5.67655 45.2909 5.67574C45.2936 5.6732 45.2955 5.67137 45.2962 5.67071L45.7022 6.11251ZM45.2793 5.68226C45.2493 5.7046 45.2174 5.73012 45.1943 5.7534L45.6209 6.17538C45.6183 6.17795 45.6164 6.17976 45.6155 6.18065C45.6144 6.18162 45.6138 6.18218 45.6137 6.1823C45.6135 6.18249 45.6143 6.18175 45.6163 6.18004C45.6205 6.17663 45.6276 6.17093 45.638 6.16316L45.2793 5.68226ZM45.2046 5.74349C45.189 5.7578 45.1774 5.77132 45.1722 5.77747C45.1659 5.78494 45.1601 5.79222 45.1558 5.79769C45.1488 5.80664 45.1363 5.82313 45.1289 5.83265L45.6038 6.19934C45.6095 6.19201 45.6146 6.18527 45.6188 6.17988C45.6231 6.17416 45.6261 6.17031 45.6285 6.16731C45.631 6.1641 45.6311 6.16398 45.6299 6.16539C45.6292 6.16622 45.6274 6.16834 45.6247 6.17125C45.6222 6.17396 45.6173 6.17908 45.6106 6.18529L45.2046 5.74349ZM45.1548 5.80331L45.1136 5.84433L45.5367 6.26971L45.5779 6.22869L45.1548 5.80331ZM45.0554 5.92571C45.0325 5.97266 45.0115 6.01956 44.9943 6.06479L45.5551 6.27817C45.5641 6.25458 45.5771 6.22474 45.5949 6.18833L45.0554 5.92571ZM44.9972 6.05762L40.8493 16.1691L41.4044 16.3968L45.5523 6.28533L44.9972 6.05762ZM40.8269 16.2829V16.2929H41.4269V16.2829H40.8269ZM40.8493 16.179L39.4263 19.6472L39.9814 19.8749L41.4044 16.4067L40.8493 16.179ZM39.4289 19.641C39.3267 19.8753 39.3271 20.1214 39.4286 20.3559L39.9792 20.1176C39.9433 20.0345 39.9437 19.9617 39.9788 19.8811L39.4289 19.641ZM39.4245 20.3461C39.5166 20.5812 39.6866 20.7543 39.9231 20.8469L40.1419 20.2882C40.0642 20.2578 40.0155 20.2099 39.9832 20.1274L39.4245 20.3461ZM39.9029 20.8381C39.9415 20.8566 39.9708 20.8703 39.9908 20.8795C40.0008 20.8841 40.0085 20.8876 40.0138 20.89C40.0165 20.8912 40.0185 20.8922 40.02 20.8928C40.0208 20.8932 40.0214 20.8935 40.0219 20.8937C40.0221 20.8938 40.0223 20.8938 40.0224 20.8939C40.0225 20.894 40.0226 20.894 40.0227 20.894C40.0227 20.894 40.0227 20.894 40.0227 20.894C40.0228 20.8941 40.0228 20.8941 40.0228 20.8941C40.0228 20.8941 40.0228 20.8941 40.0228 20.8941C40.0228 20.8941 40.0228 20.8941 40.1444 20.6198C40.266 20.3456 40.266 20.3456 40.266 20.3456C40.266 20.3456 40.266 20.3456 40.266 20.3456C40.266 20.3456 40.266 20.3456 40.266 20.3456C40.2661 20.3456 40.2661 20.3456 40.2661 20.3456C40.2661 20.3456 40.2661 20.3456 40.2661 20.3456C40.2661 20.3456 40.2661 20.3456 40.2661 20.3456C40.2659 20.3455 40.2657 20.3454 40.2653 20.3452C40.2644 20.3449 40.263 20.3442 40.261 20.3433C40.257 20.3415 40.2507 20.3386 40.242 20.3346C40.2247 20.3267 40.198 20.3142 40.162 20.297L39.9029 20.8381ZM40.1444 20.9198H40.2681V20.3198H40.1444V20.9198ZM40.2681 20.9198C40.4525 20.9198 40.6294 20.8758 40.7821 20.7716C40.9346 20.6675 41.0402 20.5189 41.1084 20.3478L40.551 20.1257C40.5177 20.2093 40.4787 20.2522 40.4439 20.276C40.4092 20.2997 40.3561 20.3198 40.2681 20.3198V20.9198ZM41.1071 20.351L42.3769 17.2672L41.8221 17.0387L40.5523 20.1225L41.1071 20.351ZM42.0995 17.453H49.5744V16.853H42.0995V17.453ZM49.297 17.2671L50.5662 20.3509L51.121 20.1226L49.8519 17.0388L49.297 17.2671ZM50.5656 20.3496C50.6347 20.5198 50.7405 20.668 50.8931 20.7718C51.046 20.8759 51.223 20.9198 51.4078 20.9198V20.3198C51.3191 20.3198 51.2656 20.2996 51.2307 20.2758C51.1954 20.2518 51.1559 20.2084 51.1216 20.1239L50.5656 20.3496ZM51.4078 20.9198C51.5325 20.9198 51.6546 20.8943 51.7721 20.8386L51.5148 20.2965C51.4818 20.3122 51.4481 20.3198 51.4078 20.3198V20.9198ZM51.7529 20.8469C51.9899 20.7541 52.1593 20.5805 52.2505 20.3451L51.691 20.1284C51.6591 20.2106 51.6112 20.258 51.534 20.2882L51.7529 20.8469ZM52.246 20.3559C52.3475 20.1214 52.3479 19.8753 52.2457 19.641L51.6958 19.8811C51.731 19.9617 51.7314 20.0345 51.6954 20.1176L52.246 20.3559ZM52.2483 19.6472L50.8253 16.179L50.2702 16.4067L51.6932 19.8749L52.2483 19.6472ZM50.8477 16.2929V16.2829H50.2477V16.2929H50.8477ZM50.8253 16.1691L46.6788 6.05765L46.1236 6.2853L50.2702 16.3968L50.8253 16.1691ZM46.6779 6.05565C46.6617 6.01678 46.6418 5.9718 46.6169 5.92231L46.0808 6.19172C46.0978 6.22559 46.1119 6.25737 46.1245 6.28731L46.6779 6.05565ZM46.0488 6.05702C46.0488 6.03643 46.0498 5.89078 46.1902 5.80378C46.3254 5.71999 46.4526 5.77757 46.4683 5.78455C46.5023 5.79969 46.5248 5.81765 46.531 5.8227C46.5403 5.83013 46.5466 5.83625 46.5492 5.83884C46.5569 5.84639 46.5565 5.8472 46.5437 5.8309L46.0715 6.20109C46.0862 6.21986 46.1064 6.24482 46.1278 6.26593C46.1293 6.26743 46.1667 6.30706 46.2242 6.33267C46.2416 6.34041 46.3702 6.39811 46.5062 6.31379C46.6475 6.22625 46.6488 6.07942 46.6488 6.05702H46.0488ZM46.5506 5.84008C46.54 5.82548 46.5292 5.81074 46.519 5.79769C46.5125 5.78942 46.4938 5.76535 46.47 5.74349L46.064 6.18529C46.058 6.17979 46.0537 6.17528 46.0514 6.17278C46.0488 6.17011 46.0471 6.16812 46.0463 6.16717C46.0448 6.16543 46.0447 6.16518 46.0463 6.16731C46.0497 6.17164 46.0555 6.17939 46.0646 6.19191L46.5506 5.84008ZM46.267 5.66439C46.3163 5.66439 46.3535 5.67672 46.3717 5.6837C46.3917 5.69137 46.4064 5.69962 46.4142 5.7043C46.4294 5.71341 46.4387 5.72118 46.4392 5.72158C46.4411 5.72309 46.4374 5.72012 46.4236 5.70682L46.007 6.1386C46.022 6.15308 46.0409 6.17096 46.0598 6.18636C46.0688 6.1937 46.0852 6.20669 46.1063 6.21927C46.115 6.22448 46.1779 6.26439 46.267 6.26439V5.66439ZM46.3978 5.68458L46.3572 5.65348L45.9923 6.12974L46.0328 6.16084L46.3978 5.68458ZM46.3478 5.6466C46.2445 5.57357 46.126 5.52362 45.9975 5.50283L45.9017 6.09514C45.9368 6.10082 45.9701 6.11438 46.0016 6.13662L46.3478 5.6466ZM45.9496 5.49899H45.8992V6.09899H45.9496V5.49899ZM45.9554 5.5043C45.9371 5.50081 45.9199 5.49768 45.9053 5.49533C45.8988 5.49429 45.8684 5.48906 45.837 5.48906V6.08906C45.8318 6.08906 45.8276 6.08892 45.8245 6.08877C45.8213 6.08863 45.8187 6.08844 45.8167 6.08829C45.813 6.08799 45.8103 6.08769 45.8092 6.08756C45.8072 6.08732 45.8072 6.08727 45.8102 6.08776C45.8162 6.08871 45.8266 6.09055 45.843 6.09368L45.9554 5.5043ZM45.837 5.48906C45.8087 5.48906 45.7777 5.49378 45.7734 5.49438C45.7585 5.49645 45.7397 5.4993 45.7181 5.50278L45.8132 6.0952C45.8328 6.09205 45.8468 6.08995 45.8557 6.08871C45.8603 6.08807 45.8622 6.08786 45.8621 6.08787C45.8621 6.08787 45.8604 6.08806 45.8576 6.08828C45.8561 6.0884 45.8538 6.08857 45.8508 6.08872C45.8481 6.08886 45.8432 6.08906 45.837 6.08906V5.48906ZM45.5594 8.13787L48.7955 16.025L49.3506 15.7972L46.1145 7.91012L45.5594 8.13787ZM49.0731 15.6111H42.6029V16.2111H49.0731V15.6111ZM42.8804 16.0249L46.1146 8.13782L45.5594 7.91018L42.3253 15.7973L42.8804 16.0249Z" fill="white"/>
</mask>
<g mask="url(#mask1_0_9417)">
<path fill-rule="evenodd" clip-rule="evenodd" d="M35.9492 24.3638H55.727V2.04492H35.9492V24.3638Z" fill="#222426" stroke="#222426" stroke-width="0.6"/>
</g>
<path fill-rule="evenodd" clip-rule="evenodd" d="M56.5116 7.93204C55.0709 9.38097 54.3516 11.1343 54.3516 13.1899V13.1899C54.3516 15.2396 55.0709 16.9882 56.5116 18.4372V18.4372C57.9457 19.8934 59.6756 20.6211 61.7028 20.6211V20.6211C63.6075 20.6211 65.2596 19.9754 66.659 18.6859V18.6859C66.7886 18.5682 66.856 18.4239 66.8639 18.2506V18.2506C66.8704 18.0792 66.8161 17.9304 66.6996 17.806V17.806C66.5831 17.6756 66.4404 17.6062 66.2689 17.5989V17.5989C66.0987 17.5916 65.9521 17.6479 65.8297 17.765V17.765C64.6613 18.8348 63.2861 19.3687 61.7028 19.3687V19.3687C60.0173 19.3687 58.576 18.7647 57.3821 17.5572V17.5572C56.1869 16.3498 55.59 14.8942 55.59 13.1899V13.1899C55.59 11.4783 56.1869 10.0194 57.3821 8.81199V8.81199C58.576 7.60454 60.0173 7.00048 61.7028 7.00048V7.00048C63.0963 7.00048 64.3406 7.42524 65.4396 8.27343V8.27343C65.5692 8.38392 65.7197 8.4256 65.8919 8.39848V8.39848C66.0614 8.3773 66.1975 8.29791 66.3003 8.16029V8.16029C66.4031 8.0293 66.4436 7.87712 66.4233 7.70444V7.70444C66.4031 7.53242 66.3245 7.39414 66.1871 7.29093V7.29093C64.8701 6.26278 63.3758 5.74805 61.7028 5.74805V5.74805C59.6756 5.74805 57.9457 6.47648 56.5116 7.93204V7.93204Z" stroke="#222426" stroke-width="0.6"/>
<mask id="mask2_0_9417" style="mask-type:luminance" maskUnits="userSpaceOnUse" x="54" y="5" width="14" height="16">
<path fill-rule="evenodd" clip-rule="evenodd" d="M56.5116 7.93204C55.0709 9.38097 54.3516 11.1343 54.3516 13.1899C54.3516 15.2396 55.0709 16.9882 56.5116 18.4372C57.9457 19.8934 59.6756 20.6211 61.7028 20.6211C63.6075 20.6211 65.2596 19.9754 66.659 18.6859C66.7886 18.5682 66.856 18.4239 66.8639 18.2506C66.8704 18.0792 66.8161 17.9304 66.6996 17.806C66.5831 17.6756 66.4404 17.6062 66.2689 17.5989C66.0987 17.5916 65.9521 17.6479 65.8297 17.765C64.6613 18.8348 63.2861 19.3687 61.7028 19.3687C60.0173 19.3687 58.576 18.7647 57.3821 17.5572C56.1869 16.3498 55.59 14.8942 55.59 13.1899C55.59 11.4783 56.1869 10.0194 57.3821 8.81199C58.576 7.60454 60.0173 7.00048 61.7028 7.00048C63.0963 7.00048 64.3406 7.42524 65.4396 8.27343C65.5692 8.38392 65.7197 8.4256 65.8919 8.39848C66.0614 8.3773 66.1975 8.29791 66.3003 8.16029C66.4031 8.02929 66.4436 7.87712 66.4233 7.70444C66.4031 7.53242 66.3245 7.39414 66.1871 7.29093C64.8701 6.26278 63.3758 5.74805 61.7028 5.74805C59.6756 5.74805 57.9457 6.47648 56.5116 7.93204Z" fill="white" stroke="white" stroke-width="0.6"/>
</mask>
<g mask="url(#mask2_0_9417)">
<path fill-rule="evenodd" clip-rule="evenodd" d="M50.6484 24.3645H70.5695V2.00391H50.6484V24.3645Z" fill="#222426" stroke="#222426" stroke-width="0.6"/>
</g>
<path fill-rule="evenodd" clip-rule="evenodd" d="M71.3603 5.9338C71.2444 6.05752 71.1875 6.20308 71.1875 6.36848V6.36848V19.8959C71.1875 20.0685 71.2444 20.2134 71.3603 20.3299V20.3299C71.4834 20.4549 71.628 20.5171 71.7903 20.5171V20.5171C71.9618 20.5171 72.1052 20.4549 72.2217 20.3299V20.3299C72.3441 20.2134 72.405 20.0685 72.405 19.8959V19.8959V15.942L74.2285 13.9962L80.2791 20.4338C80.4022 20.5575 80.5495 20.6203 80.7196 20.6203V20.6203C80.8839 20.6203 81.024 20.5648 81.1399 20.4549V20.4549C81.2623 20.3372 81.3264 20.1929 81.3336 20.0202V20.0202C81.3336 19.8476 81.2754 19.7027 81.1608 19.5856V19.5856L75.0676 13.1057L80.9553 6.85543C81.0711 6.73039 81.1255 6.58218 81.1196 6.4095V6.4095C81.1196 6.24476 81.0574 6.10318 80.9337 5.98607V5.98607C80.8113 5.8683 80.6653 5.80942 80.4945 5.80942V5.80942C80.3308 5.8167 80.1908 5.8822 80.0749 6.00592V6.00592L72.405 14.1616V6.36848C72.405 6.20308 72.3441 6.05752 72.2217 5.9338V5.9338C72.1052 5.8167 71.9618 5.75781 71.7903 5.75781V5.75781C71.628 5.75781 71.4834 5.8167 71.3603 5.9338V5.9338Z" stroke="#222426" stroke-width="0.6"/>
<mask id="mask3_0_9417" style="mask-type:luminance" maskUnits="userSpaceOnUse" x="70" y="5" width="12" height="16">
<path fill-rule="evenodd" clip-rule="evenodd" d="M71.3603 5.9338C71.2444 6.05752 71.1875 6.20308 71.1875 6.36848V19.8959C71.1875 20.0685 71.2444 20.2134 71.3603 20.3299C71.4834 20.4549 71.628 20.5171 71.7903 20.5171C71.9618 20.5171 72.1052 20.4549 72.2217 20.3299C72.3441 20.2134 72.405 20.0685 72.405 19.8959V15.942L74.2285 13.9962L80.2791 20.4338C80.4022 20.5575 80.5495 20.6203 80.7196 20.6203C80.8839 20.6203 81.024 20.5648 81.1399 20.4549C81.2623 20.3372 81.3264 20.1929 81.3336 20.0202C81.3336 19.8476 81.2754 19.7027 81.1608 19.5856L75.0676 13.1057L80.9553 6.85543C81.0711 6.73039 81.1255 6.58218 81.1196 6.4095C81.1196 6.24476 81.0574 6.10318 80.9337 5.98607C80.8113 5.8683 80.6653 5.80942 80.4945 5.80942C80.3308 5.8167 80.1908 5.8822 80.0749 6.00592L72.405 14.1616V6.36848C72.405 6.20308 72.3441 6.05752 72.2217 5.9338C72.1052 5.8167 71.9618 5.75781 71.7903 5.75781C71.628 5.75781 71.4834 5.8167 71.3603 5.9338Z" fill="white" stroke="white" stroke-width="0.6"/>
</mask>
<g mask="url(#mask3_0_9417)">
<path fill-rule="evenodd" clip-rule="evenodd" d="M67.4844 24.3643H85.0393V2.01367H67.4844V24.3643Z" fill="#222426" stroke="#222426" stroke-width="0.6"/>
</g>
<path fill-rule="evenodd" clip-rule="evenodd" d="M94.7847 5.9872C94.6688 6.1043 94.6106 6.2492 94.6106 6.42122V6.42122V15.5396C94.6106 16.6094 94.2349 17.5205 93.4841 18.2714V18.2714C92.7333 19.0309 91.832 19.4107 90.7808 19.4107V19.4107C89.7231 19.4107 88.8218 19.0309 88.0782 18.2714V18.2714C87.3268 17.5205 86.9517 16.6094 86.9517 15.5396V15.5396V6.42122C86.9517 6.2492 86.8935 6.1043 86.7776 5.9872V5.9872C86.6618 5.86943 86.5217 5.81055 86.3574 5.81055V5.81055C86.1872 5.81055 86.0439 5.86943 85.928 5.9872V5.9872C85.8115 6.1043 85.7539 6.2492 85.7539 6.42122V6.42122V15.5396C85.7539 16.9409 86.2461 18.1378 87.2286 19.1308V19.1308C88.2111 20.1239 89.3958 20.6215 90.7808 20.6215V20.6215C92.1671 20.6215 93.3506 20.1239 94.3337 19.1308V19.1308C95.3168 18.1378 95.8084 16.9409 95.8084 15.5396V15.5396V6.42122C95.8084 6.2492 95.7501 6.1043 95.6343 5.9872V5.9872C95.5112 5.86943 95.3685 5.81055 95.2049 5.81055V5.81055C95.0399 5.81055 94.9005 5.86943 94.7847 5.9872V5.9872Z" stroke="#222426" stroke-width="0.6"/>
<mask id="mask4_0_9417" style="mask-type:luminance" maskUnits="userSpaceOnUse" x="85" y="5" width="12" height="16">
<path fill-rule="evenodd" clip-rule="evenodd" d="M94.7847 5.9872C94.6688 6.1043 94.6106 6.2492 94.6106 6.42122V15.5396C94.6106 16.6094 94.2349 17.5205 93.4841 18.2714C92.7333 19.0309 91.832 19.4107 90.7808 19.4107C89.7231 19.4107 88.8218 19.0309 88.0782 18.2714C87.3268 17.5205 86.9517 16.6094 86.9517 15.5396V6.42122C86.9517 6.2492 86.8935 6.1043 86.7776 5.9872C86.6618 5.86943 86.5217 5.81055 86.3574 5.81055C86.1872 5.81055 86.0439 5.86943 85.928 5.9872C85.8115 6.1043 85.7539 6.2492 85.7539 6.42122V15.5396C85.7539 16.9409 86.2461 18.1378 87.2286 19.1308C88.2111 20.1239 89.3958 20.6215 90.7808 20.6215C92.1671 20.6215 93.3506 20.1239 94.3337 19.1308C95.3168 18.1378 95.8084 16.9409 95.8084 15.5396V6.42122C95.8084 6.2492 95.7501 6.1043 95.6343 5.9872C95.5112 5.86943 95.3685 5.81055 95.2049 5.81055C95.0399 5.81055 94.9005 5.86943 94.7847 5.9872Z" fill="white" stroke="white" stroke-width="0.6"/>
</mask>
<g mask="url(#mask4_0_9417)">
<path fill-rule="evenodd" clip-rule="evenodd" d="M82.0508 24.3648H99.5134V2.06641H82.0508V24.3648Z" fill="#222426" stroke="#222426" stroke-width="0.6"/>
</g>
<path d="M102.442 20.4349L102.235 20.2181L102.229 20.2238L102.223 20.2298L102.442 20.4349ZM102.626 13.832V13.532H102.326V13.832H102.626ZM106.65 13.832L106.701 13.5363L106.675 13.532H106.65V13.832ZM106.926 13.832V14.132H106.934L106.943 14.1315L106.926 13.832ZM109.742 6.95978L109.537 7.17857L109.537 7.17872L109.742 6.95978ZM102.626 7.01138V6.71138H102.326V7.01138H102.626ZM108.871 7.82914L108.671 8.0524L108.671 8.05251L108.871 7.82914ZM102.626 12.6H102.326V12.9H102.626V12.6ZM102.011 5.46953C101.756 5.46953 101.536 5.56782 101.363 5.74983L101.799 6.16239C101.861 6.09695 101.925 6.06953 102.011 6.06953V5.46953ZM101.374 5.73934C101.19 5.91512 101.098 6.1393 101.098 6.39079H101.698C101.698 6.29691 101.727 6.23131 101.788 6.17287L101.374 5.73934ZM101.098 6.39079V20.0009H101.698V6.39079H101.098ZM101.098 20.0009C101.098 20.2519 101.19 20.476 101.374 20.6517L101.788 20.2181C101.727 20.1596 101.698 20.0939 101.698 20.0009H101.098ZM101.363 20.6412C101.536 20.8232 101.756 20.9215 102.011 20.9215V20.3215C101.925 20.3215 101.861 20.294 101.799 20.2286L101.363 20.6412ZM102.011 20.9215C102.265 20.9215 102.489 20.8244 102.661 20.6399L102.223 20.2298C102.164 20.2928 102.099 20.3215 102.011 20.3215V20.9215ZM102.65 20.6517C102.833 20.4766 102.926 20.2527 102.926 20.0009H102.326C102.326 20.0931 102.297 20.159 102.235 20.2181L102.65 20.6517ZM102.926 20.0009V13.832H102.326V20.0009H102.926ZM102.626 14.132H106.65V13.532H102.626V14.132ZM106.599 14.1276C106.616 14.1306 106.62 14.1314 106.619 14.1311C106.618 14.1309 106.614 14.1301 106.609 14.1287C106.606 14.1279 106.591 14.1239 106.573 14.1161C106.564 14.1125 106.543 14.1032 106.519 14.0865C106.506 14.0773 106.432 14.0269 106.403 13.9234C106.385 13.8619 106.387 13.7944 106.412 13.7315C106.434 13.6736 106.47 13.6358 106.494 13.6144C106.539 13.5757 106.583 13.5608 106.595 13.5569L106.786 14.1255C106.798 14.1215 106.843 14.1064 106.888 14.0675C106.943 14.019 107.022 13.9062 106.979 13.7579C106.95 13.6542 106.876 13.6036 106.862 13.5942C106.838 13.5772 106.816 13.5677 106.807 13.5638C106.777 13.5508 106.748 13.5451 106.747 13.545C106.733 13.5418 106.714 13.5386 106.701 13.5363L106.599 14.1276ZM106.728 14.1389C106.764 14.1343 106.809 14.1239 106.857 14.0997L106.587 13.5642C106.613 13.5506 106.638 13.5455 106.653 13.5436L106.728 14.1389ZM106.722 14.132H106.845V13.532H106.722V14.132ZM106.845 14.132H106.926V13.532H106.845V14.132ZM106.943 14.1315C108.147 14.0655 109.178 13.6198 110.024 12.7934L109.604 12.3643C108.866 13.0861 107.973 13.4741 106.91 13.5324L106.943 14.1315ZM110.024 12.7927C110.871 11.9593 111.301 10.9596 111.301 9.80604H110.701C110.701 10.7921 110.341 11.6396 109.604 12.365L110.024 12.7927ZM111.301 9.80604C111.301 8.60899 110.845 7.58196 109.947 6.74083L109.537 7.17872C110.318 7.91091 110.701 8.78139 110.701 9.80604H111.301ZM109.947 6.74098C109.043 5.89313 107.949 5.46953 106.681 5.46953V6.06953C107.801 6.06953 108.748 6.43854 109.537 7.17857L109.947 6.74098ZM106.681 5.46953H102.011V6.06953H106.681V5.46953ZM102.626 7.31138H106.681V6.71138H102.626V7.31138ZM106.681 7.31138C107.464 7.31138 108.121 7.559 108.671 8.0524L109.072 7.60588C108.407 7.00894 107.605 6.71138 106.681 6.71138V7.31138ZM108.671 8.05251C109.22 8.54437 109.483 9.12376 109.483 9.80604H110.083C110.083 8.94279 109.739 8.20425 109.072 7.60577L108.671 8.05251ZM109.483 9.80604C109.483 10.4751 109.226 11.0483 108.689 11.5407L109.094 11.9829C109.746 11.3849 110.083 10.6548 110.083 9.80604H109.483ZM108.689 11.5407C108.158 12.0277 107.519 12.2807 106.755 12.3001L106.771 12.8999C107.671 12.877 108.451 12.5729 109.094 11.9829L108.689 11.5407ZM106.763 12.3H102.626V12.9H106.763V12.3ZM102.926 12.6V7.01138H102.326V12.6H102.926Z" fill="#222426"/>
<mask id="mask5_0_9417" style="mask-type:luminance" maskUnits="userSpaceOnUse" x="101" y="5" width="11" height="16">
<path fill-rule="evenodd" clip-rule="evenodd" d="M102.011 5.76953C101.84 5.76953 101.698 5.83238 101.581 5.95611C101.459 6.07321 101.398 6.21811 101.398 6.39079V20.0009C101.398 20.1729 101.459 20.3178 101.581 20.4349C101.698 20.5586 101.84 20.6215 102.011 20.6215C102.182 20.6215 102.327 20.5586 102.442 20.4349C102.565 20.3178 102.626 20.1729 102.626 20.0009V13.832H106.65C106.681 13.8373 106.694 13.8399 106.69 13.8412C106.701 13.8399 106.711 13.8373 106.722 13.832H106.845H106.926C108.06 13.7698 109.022 13.353 109.814 12.5789C110.606 11.7995 111.001 10.8759 111.001 9.80604C111.001 8.69519 110.582 7.74644 109.742 6.95978C108.896 6.16584 107.875 5.76953 106.681 5.76953H102.011ZM102.626 7.01138H106.681C107.534 7.01138 108.264 7.28397 108.871 7.82914C109.479 8.37431 109.783 9.03328 109.783 9.80604C109.783 10.5649 109.486 11.2166 108.892 11.7618C108.305 12.3003 107.595 12.5789 106.763 12.6H102.626V7.01138Z" fill="white"/>
<path d="M102.442 20.4349L102.235 20.2181L102.229 20.2238L102.223 20.2298L102.442 20.4349ZM102.626 13.832V13.532H102.326V13.832H102.626ZM106.65 13.832L106.701 13.5363L106.675 13.532H106.65V13.832ZM106.926 13.832V14.132H106.934L106.943 14.1315L106.926 13.832ZM109.742 6.95978L109.537 7.17857L109.537 7.17872L109.742 6.95978ZM102.626 7.01138V6.71138H102.326V7.01138H102.626ZM108.871 7.82914L108.671 8.0524L108.671 8.05251L108.871 7.82914ZM102.626 12.6H102.326V12.9H102.626V12.6ZM102.011 5.46953C101.756 5.46953 101.536 5.56782 101.363 5.74983L101.799 6.16239C101.861 6.09695 101.925 6.06953 102.011 6.06953V5.46953ZM101.374 5.73934C101.19 5.91512 101.098 6.1393 101.098 6.39079H101.698C101.698 6.29691 101.727 6.23131 101.788 6.17287L101.374 5.73934ZM101.098 6.39079V20.0009H101.698V6.39079H101.098ZM101.098 20.0009C101.098 20.2519 101.19 20.476 101.374 20.6517L101.788 20.2181C101.727 20.1596 101.698 20.0939 101.698 20.0009H101.098ZM101.363 20.6412C101.536 20.8232 101.756 20.9215 102.011 20.9215V20.3215C101.925 20.3215 101.861 20.294 101.799 20.2286L101.363 20.6412ZM102.011 20.9215C102.265 20.9215 102.489 20.8244 102.661 20.6399L102.223 20.2298C102.164 20.2928 102.099 20.3215 102.011 20.3215V20.9215ZM102.65 20.6517C102.833 20.4766 102.926 20.2527 102.926 20.0009H102.326C102.326 20.0931 102.297 20.159 102.235 20.2181L102.65 20.6517ZM102.926 20.0009V13.832H102.326V20.0009H102.926ZM102.626 14.132H106.65V13.532H102.626V14.132ZM106.599 14.1276C106.616 14.1306 106.62 14.1314 106.619 14.1311C106.618 14.1309 106.614 14.1301 106.609 14.1287C106.606 14.1279 106.591 14.1239 106.573 14.1161C106.564 14.1125 106.543 14.1032 106.519 14.0865C106.506 14.0773 106.432 14.0269 106.403 13.9234C106.385 13.8619 106.387 13.7944 106.412 13.7315C106.434 13.6736 106.47 13.6358 106.494 13.6144C106.539 13.5757 106.583 13.5608 106.595 13.5569L106.786 14.1255C106.798 14.1215 106.843 14.1064 106.888 14.0675C106.943 14.019 107.022 13.9062 106.979 13.7579C106.95 13.6542 106.876 13.6036 106.862 13.5942C106.838 13.5772 106.816 13.5677 106.807 13.5638C106.777 13.5508 106.748 13.5451 106.747 13.545C106.733 13.5418 106.714 13.5386 106.701 13.5363L106.599 14.1276ZM106.728 14.1389C106.764 14.1343 106.809 14.1239 106.857 14.0997L106.587 13.5642C106.613 13.5506 106.638 13.5455 106.653 13.5436L106.728 14.1389ZM106.722 14.132H106.845V13.532H106.722V14.132ZM106.845 14.132H106.926V13.532H106.845V14.132ZM106.943 14.1315C108.147 14.0655 109.178 13.6198 110.024 12.7934L109.604 12.3643C108.866 13.0861 107.973 13.4741 106.91 13.5324L106.943 14.1315ZM110.024 12.7927C110.871 11.9593 111.301 10.9596 111.301 9.80604H110.701C110.701 10.7921 110.341 11.6396 109.604 12.365L110.024 12.7927ZM111.301 9.80604C111.301 8.60899 110.845 7.58196 109.947 6.74083L109.537 7.17872C110.318 7.91091 110.701 8.78139 110.701 9.80604H111.301ZM109.947 6.74098C109.043 5.89313 107.949 5.46953 106.681 5.46953V6.06953C107.801 6.06953 108.748 6.43854 109.537 7.17857L109.947 6.74098ZM106.681 5.46953H102.011V6.06953H106.681V5.46953ZM102.626 7.31138H106.681V6.71138H102.626V7.31138ZM106.681 7.31138C107.464 7.31138 108.121 7.559 108.671 8.0524L109.072 7.60588C108.407 7.00894 107.605 6.71138 106.681 6.71138V7.31138ZM108.671 8.05251C109.22 8.54437 109.483 9.12376 109.483 9.80604H110.083C110.083 8.94279 109.739 8.20425 109.072 7.60577L108.671 8.05251ZM109.483 9.80604C109.483 10.4751 109.226 11.0483 108.689 11.5407L109.094 11.9829C109.746 11.3849 110.083 10.6548 110.083 9.80604H109.483ZM108.689 11.5407C108.158 12.0277 107.519 12.2807 106.755 12.3001L106.771 12.8999C107.671 12.877 108.451 12.5729 109.094 11.9829L108.689 11.5407ZM106.763 12.3H102.626V12.9H106.763V12.3ZM102.926 12.6V7.01138H102.326V12.6H102.926Z" fill="white"/>
</mask>
<g mask="url(#mask5_0_9417)">
<path fill-rule="evenodd" clip-rule="evenodd" d="M97.6953 24.3655H114.707V2.02539H97.6953V24.3655Z" fill="#222426" stroke="#222426" stroke-width="0.6"/>
</g>
<mask id="mask6_0_9417" style="mask-type:luminance" maskUnits="userSpaceOnUse" x="115" y="5" width="12" height="16">
<path fill-rule="evenodd" clip-rule="evenodd" d="M124.738 5.95466C124.437 6.09889 124.232 6.33046 124.123 6.64737L120.97 15.7247L117.816 6.64737C117.707 6.33046 117.502 6.09889 117.203 5.95466C116.902 5.80911 116.594 5.79257 116.28 5.90239C115.966 6.01288 115.738 6.21997 115.594 6.52299C115.452 6.82733 115.434 7.13763 115.543 7.4552L119.834 19.8016V19.8122C119.854 19.8611 119.878 19.9128 119.905 19.9683C119.912 19.9816 119.919 19.9915 119.925 19.9988C119.953 20.0471 119.979 20.0914 120.007 20.1337C120.007 20.1403 120.014 20.1509 120.028 20.1642C120.055 20.1992 120.086 20.233 120.12 20.2687C120.141 20.2892 120.151 20.2952 120.151 20.2892C120.185 20.3296 120.226 20.3653 120.274 20.3924L120.284 20.4023L120.295 20.4129C120.335 20.4407 120.377 20.4645 120.417 20.485L120.447 20.4963C120.488 20.5168 120.53 20.5333 120.571 20.5479C120.598 20.5618 120.605 20.5644 120.591 20.5572C120.626 20.5717 120.669 20.5823 120.724 20.5889C120.779 20.6035 120.797 20.6061 120.776 20.5988C120.844 20.6134 120.909 20.62 120.97 20.62C121.032 20.62 121.096 20.6134 121.165 20.5988C121.144 20.6061 121.161 20.6035 121.216 20.5889C121.271 20.5823 121.314 20.5717 121.349 20.5572C121.334 20.5644 121.342 20.5618 121.369 20.5479C121.41 20.5333 121.451 20.5168 121.492 20.4963L121.512 20.485C121.561 20.4645 121.604 20.4407 121.646 20.4129C121.673 20.3924 121.68 20.3858 121.667 20.3924C121.714 20.358 121.755 20.3236 121.789 20.2892C121.781 20.2952 121.789 20.2892 121.81 20.2687C121.843 20.233 121.877 20.1992 121.912 20.1642C121.939 20.1304 121.946 20.1198 121.933 20.1337C121.959 20.0914 121.987 20.0471 122.014 19.9988C122.021 19.9915 122.028 19.9816 122.035 19.9683C122.062 19.9128 122.086 19.8611 122.107 19.8122V19.8016L126.398 7.4552C126.506 7.13763 126.489 6.82733 126.345 6.52299C126.203 6.21997 125.973 6.01288 125.659 5.90239C125.345 5.79257 125.188 5.73633 125.188 5.73633C125.188 5.73633 125.038 5.80911 124.738 5.95466Z" fill="white"/>
</mask>
<g mask="url(#mask6_0_9417)">
<path fill-rule="evenodd" clip-rule="evenodd" d="M111.77 24.3634H130.173V1.99219H111.77V24.3634Z" fill="#007AFF"/>
</g>
<mask id="mask7_0_9417" style="mask-type:luminance" maskUnits="userSpaceOnUse" x="127" y="5" width="14" height="16">
<path fill-rule="evenodd" clip-rule="evenodd" d="M134.202 5.83203H134.141H134.089H134.028L133.977 5.84196C133.943 5.84857 133.919 5.85188 133.905 5.85188L133.865 5.8618C133.823 5.87636 133.8 5.88298 133.793 5.88298C133.779 5.89025 133.755 5.89687 133.721 5.90349C133.704 5.91275 133.692 5.9187 133.684 5.92267C133.689 5.92003 133.678 5.9273 133.65 5.94451C133.615 5.95906 133.592 5.96899 133.578 5.97626C133.571 5.97626 133.551 5.98685 133.516 6.0067L133.475 6.03846C133.469 6.04573 133.452 6.0583 133.423 6.07948C133.39 6.09999 133.376 6.11123 133.382 6.11123C133.376 6.11123 133.359 6.12447 133.332 6.15225C133.312 6.16549 133.298 6.17607 133.292 6.18335C133.292 6.1893 133.277 6.20717 133.251 6.23495C133.23 6.25546 133.219 6.26936 133.219 6.27597C133.212 6.28325 133.199 6.29648 133.179 6.31766C133.158 6.34478 133.147 6.36265 133.147 6.36926C133.141 6.37654 133.128 6.39308 133.107 6.42087L133.086 6.47314C133.066 6.50688 133.048 6.54194 133.035 6.57635L129.266 15.7668V15.7774L127.968 18.934C127.844 19.2449 127.844 19.5546 127.968 19.8655C128.097 20.1765 128.315 20.3968 128.621 20.5278C128.772 20.5894 128.847 20.6211 128.847 20.6211H129.082C129.622 20.6211 129.994 20.369 130.199 19.8655L131.182 17.4639H137.11L138.094 19.8655C138.298 20.369 138.67 20.6211 139.21 20.6211C139.366 20.6211 139.52 20.5894 139.67 20.5278C139.977 20.3968 140.196 20.1765 140.326 19.8655C140.449 19.5546 140.449 19.2449 140.326 18.934L139.025 15.7774V15.7668L135.257 6.57635C135.244 6.54194 135.225 6.50688 135.205 6.47314C135.205 6.46652 135.195 6.44866 135.175 6.42087C135.154 6.39308 135.144 6.37654 135.144 6.36926C135.144 6.36265 135.13 6.34478 135.104 6.31766L135.073 6.27597C135.073 6.26936 135.058 6.25216 135.032 6.22503C135.011 6.20386 135.002 6.1893 135.002 6.18335C134.988 6.17607 134.97 6.16218 134.949 6.14167C134.929 6.12116 134.915 6.11123 134.909 6.11123C134.902 6.10395 134.885 6.09006 134.858 6.06955L134.817 6.03846C134.81 6.03118 134.789 6.01728 134.755 5.99677C134.721 5.97626 134.707 5.96899 134.714 5.97626C134.647 5.93458 134.571 5.90349 134.488 5.88298C134.502 5.88298 134.488 5.87967 134.447 5.87239C134.414 5.85916 134.39 5.85188 134.376 5.85188L134.325 5.84196L134.264 5.83203H134.202ZM134.141 10.2298L136.118 15.0318H132.175L134.141 10.2298Z" fill="white"/>
</mask>
<g mask="url(#mask7_0_9417)">
<path fill-rule="evenodd" clip-rule="evenodd" d="M124.172 24.3658H144.123V2.08789H124.172V24.3658Z" fill="#007AFF"/>
</g>
<mask id="mask8_0_9417" style="mask-type:luminance" maskUnits="userSpaceOnUse" x="143" y="5" width="12" height="16">
<path fill-rule="evenodd" clip-rule="evenodd" d="M152.06 6.13128C151.828 6.36615 151.713 6.64866 151.713 6.98013V15.3224C151.713 16.1223 151.432 16.8058 150.872 17.3721C150.312 17.9371 149.64 18.2203 148.856 18.2203C148.063 18.2203 147.388 17.9371 146.828 17.3721C146.268 16.8058 145.989 16.1223 145.989 15.3224V6.98013C145.989 6.64866 145.873 6.36615 145.64 6.13128C145.408 5.89706 145.128 5.7793 144.801 5.7793C144.473 5.7793 144.193 5.89706 143.961 6.13128C143.729 6.36615 143.613 6.64866 143.613 6.98013V15.3224C143.613 16.7853 144.125 18.0331 145.148 19.0685C146.173 20.1039 147.408 20.6213 148.856 20.6213C150.296 20.6213 151.527 20.1039 152.552 19.0685C153.575 18.0331 154.088 16.7853 154.088 15.3224V6.98013C154.088 6.64866 153.971 6.36615 153.74 6.13128C153.508 5.89706 153.228 5.7793 152.9 5.7793C152.573 5.7793 152.292 5.89706 152.06 6.13128Z" fill="white"/>
</mask>
<g mask="url(#mask8_0_9417)">
<path fill-rule="evenodd" clip-rule="evenodd" d="M139.91 24.3647H157.793V2.03516H139.91V24.3647Z" fill="#007AFF"/>
</g>
<mask id="mask9_0_9417" style="mask-type:luminance" maskUnits="userSpaceOnUse" x="159" y="5" width="10" height="16">
<path fill-rule="evenodd" clip-rule="evenodd" d="M159.784 6.14186C159.546 6.37674 159.426 6.66255 159.426 7.00064V19.4C159.426 19.7374 159.546 20.0245 159.784 20.2594C160.016 20.5002 160.3 20.6213 160.635 20.6213H167.259C167.593 20.6213 167.881 20.5002 168.118 20.2594C168.351 20.0245 168.468 19.7374 168.468 19.4C168.468 19.0625 168.351 18.7754 168.118 18.5405C167.881 18.2997 167.593 18.1786 167.259 18.1786H161.843V7.00064C161.843 6.66255 161.723 6.37674 161.484 6.14186C161.251 5.90037 160.969 5.7793 160.635 5.7793C160.3 5.7793 160.016 5.90037 159.784 6.14186Z" fill="white"/>
</mask>
<g mask="url(#mask9_0_9417)">
<path fill-rule="evenodd" clip-rule="evenodd" d="M155.723 24.3647H172.172V2.03516H155.723V24.3647Z" fill="#007AFF"/>
</g>
<mask id="mask10_0_9417" style="mask-type:luminance" maskUnits="userSpaceOnUse" x="169" y="5" width="11" height="16">
<path fill-rule="evenodd" clip-rule="evenodd" d="M170.294 5.75781C169.959 5.75781 169.672 5.87889 169.434 6.12038C169.201 6.35459 169.086 6.64107 169.086 6.97915C169.086 7.31724 169.201 7.60372 169.434 7.83793C169.672 8.08008 169.959 8.20049 170.294 8.20049H173.335V19.399C173.335 19.7364 173.454 20.0262 173.693 20.269C173.926 20.5032 174.209 20.6203 174.544 20.6203C174.877 20.6203 175.161 20.5032 175.392 20.269C175.631 20.0262 175.751 19.7364 175.751 19.399V8.20049H178.803C179.13 8.20049 179.413 8.08008 179.653 7.83793C179.875 7.61298 179.991 7.3404 180 7.01951V6.9388C179.991 6.61791 179.875 6.34533 179.653 6.12038C179.413 5.87889 179.13 5.75781 178.803 5.75781H170.294Z" fill="white"/>
</mask>
<g mask="url(#mask10_0_9417)">
<path fill-rule="evenodd" clip-rule="evenodd" d="M165.383 24.3643H183.706V2.01367H165.383V24.3643Z" fill="#007AFF"/>
</g>
<mask id="mask11_0_9417" style="mask-type:luminance" maskUnits="userSpaceOnUse" x="0" y="0" width="20" height="26">
<path fill-rule="evenodd" clip-rule="evenodd" d="M3.92793 6.54933V10.2788C3.55287 10.6454 3.20858 11.045 2.89833 11.4757C2.86625 11.5207 2.86691 11.5822 2.90029 11.6259L3.14444 11.9527L4.53011 13.8046C4.58509 13.8774 4.69636 13.8681 4.74087 13.7867C5.98058 11.5081 8.50255 10.1717 11.1796 10.5283C14.2049 10.9305 16.5423 13.5009 16.6765 16.551C16.8362 20.1925 13.9235 23.2048 10.3202 23.2048C7.79302 23.2048 5.58 21.7142 4.56415 19.5262L6.08531 19.2087C6.17498 19.1895 6.21491 19.0843 6.16058 19.0102L1.9872 13.3666C1.92436 13.2813 1.79084 13.3077 1.764 13.4103L0.00458182 20.2931C0.00196364 20.303 0.000654545 20.3129 0 20.3222V20.3248C0.000654545 20.4016 0.072 20.4637 0.151855 20.4472L1.78429 20.1058C3.25178 23.9544 7.20393 26.5109 11.5894 25.9135C15.7745 25.3432 19.0564 21.8942 19.4374 17.6843C19.6855 14.9492 18.7128 12.4417 17.0162 10.6156V6.68893C17.0162 3.12547 14.2305 0.109166 10.6711 0.00264646C10.6049 0.000661615 10.5382 0 10.4727 0C6.86422 0 3.92793 2.93757 3.92793 6.54933ZM6.72153 6.54933C6.72153 4.47979 8.40371 2.79466 10.4714 2.79466C12.5404 2.79466 14.2239 4.47979 14.2239 6.54933V8.56196C13.0372 7.99892 11.7177 7.67539 10.3202 7.67539C9.05564 7.67539 7.83622 7.93739 6.72153 8.41442V6.54933Z" fill="white"/>
</mask>
<g mask="url(#mask11_0_9417)">
<path fill-rule="evenodd" clip-rule="evenodd" d="M-3.70312 29.7442H23.1804V-3.74414H-3.70312V29.7442Z" fill="#007AFF"/>
</g>
<mask id="mask12_0_9417" style="mask-type:luminance" maskUnits="userSpaceOnUse" x="7" y="14" width="7" height="6">
<path fill-rule="evenodd" clip-rule="evenodd" d="M7.56641 16.8383C7.56641 18.36 8.79826 19.5933 10.3188 19.5933C11.8386 19.5933 13.0711 18.36 13.0711 16.8383C13.0711 15.3179 11.8386 14.084 10.3188 14.084C8.79826 14.084 7.56641 15.3179 7.56641 16.8383Z" fill="white"/>
</mask>
<g mask="url(#mask12_0_9417)">
<path fill-rule="evenodd" clip-rule="evenodd" d="M3.86328 23.3373H16.7762V10.3398H3.86328V23.3373Z" fill="#007AFF"/>
</g>
</svg>
