<svg width="15" height="22" viewBox="0 0 15 22" fill="none" xmlns="http://www.w3.org/2000/svg">
<path fill-rule="evenodd" clip-rule="evenodd" d="M0 7.96753C0 3.57423 3.36448 0 7.5 0C11.6355 0 14.9999 3.57423 15 7.96753C15 13.4198 8.28823 21.4239 8.00248 21.762C7.73455 22.079 7.26593 22.0796 6.99752 21.762C6.71177 21.4239 0 13.4198 0 7.96753ZM3.7266 7.96753C3.7266 10.1779 5.41932 11.9762 7.5 11.9762C9.58064 11.9762 11.2734 10.178 11.2734 7.96758C11.2734 5.75717 9.58064 3.95889 7.5 3.95889C5.41936 3.95889 3.7266 5.75713 3.7266 7.96753Z" fill="#007AFF"/>
</svg>
