<svg width="18" height="24" viewBox="0 0 18 24" fill="none" xmlns="http://www.w3.org/2000/svg">
<path fill-rule="evenodd" clip-rule="evenodd" d="M8.78383 1.12544C8.80711 1.15258 11.2244 3.92761 16.6304 3.92761C16.8344 3.92761 17 4.09193 17 4.29439V11.2943C17 15.1209 15.2667 18.7571 12.3634 21.0216C11.193 21.9345 9.92874 22.5947 8.60533 22.9846C8.57059 22.9949 8.53548 23 8.5 23C8.46452 23 8.42904 22.9949 8.39467 22.9846C7.07126 22.5951 5.80698 21.9345 4.63657 21.0216C1.73326 18.7575 0 15.1209 0 11.2943V4.29439C0 4.09193 0.165565 3.92761 0.369565 3.92761C5.80033 3.92761 8.19252 1.15331 8.21617 1.12544C8.35661 0.958187 8.64339 0.958187 8.78383 1.12544ZM11.9067 20.445C14.6333 18.3185 16.2609 14.8975 16.2609 11.2943V4.65713C11.7367 4.55737 9.28902 2.64133 8.5 1.8898C7.71098 2.64096 5.26335 4.55737 0.73913 4.65713V11.2943C0.73913 14.8975 2.3667 18.3188 5.09335 20.445C6.1588 21.2761 7.30446 21.8832 8.5 22.2499C9.69554 21.8828 10.8412 21.2761 11.9067 20.445Z" fill="#007AFF"/>
<path d="M8.78383 1.12544L8.59236 1.28621L8.59408 1.28821L8.78383 1.12544ZM12.3634 21.0216L12.2097 20.8245L12.2097 20.8245L12.3634 21.0216ZM8.60533 22.9846L8.53468 22.7448L8.53446 22.7449L8.60533 22.9846ZM8.39467 22.9846L8.46625 22.7451L8.46526 22.7448L8.39467 22.9846ZM4.63657 21.0216L4.79032 20.8245L4.7903 20.8245L4.63657 21.0216ZM8.21617 1.12544L8.4068 1.28719L8.40763 1.2862L8.21617 1.12544ZM11.9067 20.445L11.7529 20.2479L11.7529 20.2479L11.9067 20.445ZM16.2609 4.65713H16.5109V4.41258L16.2664 4.40719L16.2609 4.65713ZM8.5 1.8898L8.67242 1.70877L8.50004 1.54459L8.32762 1.70873L8.5 1.8898ZM0.73913 4.65713L0.733619 4.40719L0.48913 4.41258V4.65713H0.73913ZM5.09335 20.445L5.24711 20.2479L5.24708 20.2479L5.09335 20.445ZM8.5 22.2499L8.42668 22.4889L8.50004 22.5115L8.57339 22.4889L8.5 22.2499ZM16.6304 3.67761C11.3201 3.67761 8.96648 0.954396 8.97357 0.962664L8.59408 1.28821C8.64773 1.35076 11.1288 4.17761 16.6304 4.17761V3.67761ZM17.25 4.29439C17.25 3.95207 16.9707 3.67761 16.6304 3.67761V4.17761C16.6982 4.17761 16.75 4.23178 16.75 4.29439H17.25ZM17.25 11.2943V4.29439H16.75V11.2943H17.25ZM12.5172 21.2187C15.484 18.9048 17.25 15.1944 17.25 11.2943H16.75C16.75 15.0474 15.0495 18.6095 12.2097 20.8245L12.5172 21.2187ZM8.67597 23.2244C10.0317 22.825 11.3239 22.1495 12.5172 21.2187L12.2097 20.8245C11.0622 21.7195 9.82576 22.3644 8.53468 22.7448L8.67597 23.2244ZM8.5 23.25C8.55998 23.25 8.61894 23.2413 8.6762 23.2243L8.53446 22.7449C8.52223 22.7485 8.51098 22.75 8.5 22.75V23.25ZM8.3231 23.2241C8.3808 23.2414 8.44039 23.25 8.5 23.25V22.75C8.48865 22.75 8.47729 22.7484 8.46624 22.7451L8.3231 23.2241ZM4.48281 21.2187C5.67609 22.1495 6.96826 22.8254 8.32409 23.2244L8.46526 22.7448C7.17426 22.3648 5.93787 21.7195 4.79032 20.8245L4.48281 21.2187ZM-0.25 11.2943C-0.25 15.1944 1.51604 18.9051 4.48283 21.2187L4.7903 20.8245C1.95048 18.6099 0.25 15.0474 0.25 11.2943H-0.25ZM-0.25 4.29439V11.2943H0.25V4.29439H-0.25ZM0.369565 3.67761C0.0292826 3.67761 -0.25 3.95207 -0.25 4.29439H0.25C0.25 4.23178 0.301848 4.17761 0.369565 4.17761V3.67761ZM8.02555 0.963691C8.03284 0.955098 5.70468 3.67761 0.369565 3.67761V4.17761C5.89597 4.17761 8.3522 1.35153 8.4068 1.28718L8.02555 0.963691ZM8.97528 0.964676C8.85034 0.815877 8.66865 0.75 8.5 0.75C8.33135 0.75 8.14966 0.815877 8.02472 0.964676L8.40763 1.2862C8.42312 1.26775 8.45504 1.25 8.5 1.25C8.54496 1.25 8.57688 1.26775 8.59237 1.2862L8.97528 0.964676ZM16.0109 11.2943C16.0109 14.8243 14.4159 18.171 11.7529 20.2479L12.0604 20.6422C14.8507 18.4659 16.5109 14.9708 16.5109 11.2943H16.0109ZM16.0109 4.65713V11.2943H16.5109V4.65713H16.0109ZM8.32758 2.07083C9.15123 2.85534 11.6558 4.80564 16.2554 4.90707L16.2664 4.40719C11.8175 4.30909 9.42681 2.42732 8.67242 1.70877L8.32758 2.07083ZM0.744642 4.90707C5.34426 4.80564 7.84878 2.85495 8.67238 2.07087L8.32762 1.70873C7.57318 2.42697 5.18244 4.30909 0.733619 4.40719L0.744642 4.90707ZM0.98913 11.2943V4.65713H0.48913V11.2943H0.98913ZM5.24708 20.2479C2.58412 18.1713 0.98913 14.8243 0.98913 11.2943H0.48913C0.48913 14.9708 2.14928 18.4663 4.93962 20.6422L5.24708 20.2479ZM8.57332 22.0109C7.4092 21.6538 6.29048 21.0618 5.24711 20.2479L4.93958 20.6422C6.02713 21.4905 7.19972 22.1125 8.42668 22.4889L8.57332 22.0109ZM11.7529 20.2479C10.7096 21.0618 9.59082 21.6534 8.42661 22.011L8.57339 22.4889C9.80026 22.1122 10.9728 21.4905 12.0604 20.6422L11.7529 20.2479Z" fill="#007AFF"/>
<path d="M8.50137 20.0309C7.77676 19.738 7.06735 19.325 6.39264 18.7988C4.17997 17.073 2.84375 14.2696 2.84375 11.2944V6.58502C5.46253 6.21671 7.33718 5.30058 8.50136 4.54099C9.66554 5.30058 11.5402 6.21671 14.159 6.58502V11.2944C14.159 14.2696 12.8228 17.0729 10.6105 18.7987C9.9351 19.3253 9.22533 19.7384 8.50137 20.0309Z" stroke="#007AFF" stroke-width="1.25"/>
</svg>
