<svg width="20" height="20" viewBox="0 0 20 20" fill="none" xmlns="http://www.w3.org/2000/svg">
<path d="M15.3247 12.6206L15.7702 11.7188H14.7643H10.0781V8.28125H19.2164C19.3217 8.84265 19.375 9.42136 19.375 10C19.375 12.4352 18.4332 14.6515 16.8962 16.3166L14.4681 13.8884C14.802 13.5119 15.0933 13.089 15.3247 12.6206Z" stroke="#007AFF" stroke-width="1.25"/>
<path d="M10.0014 4.0625C7.91093 4.0625 6.0799 5.15744 5.0341 6.79678L2.56301 4.32569C4.27082 2.07717 6.97031 0.625 10.0014 0.625C12.172 0.625 14.2864 1.38889 15.9581 2.77703L13.5115 5.22365C12.4899 4.46429 11.275 4.0625 10.0014 4.0625Z" stroke="#007AFF" stroke-width="1.25"/>
<path d="M12.4681 15.3901L14.9916 17.9135C13.5457 18.8361 11.8369 19.375 10.0014 19.375C6.97031 19.375 4.27082 17.9228 2.56301 15.6743L5.0341 13.2032C6.0799 14.8426 7.91093 15.9375 10.0014 15.9375C10.8801 15.9375 11.7151 15.739 12.4681 15.3901Z" stroke="#007AFF" stroke-width="1.25"/>
<path d="M4.0625 10.0002C4.0625 10.2191 4.08205 10.4292 4.10796 10.6251L1.29088 13.4422C0.863285 12.3757 0.625 11.2158 0.625 10.0002C0.625 8.78448 0.863283 7.62464 1.29086 6.55814L4.10796 9.37524C4.08205 9.57108 4.0625 9.78117 4.0625 10.0002Z" stroke="#007AFF" stroke-width="1.25"/>
</svg>
