<svg width="13" height="9" viewBox="0 0 13 9" fill="none" xmlns="http://www.w3.org/2000/svg">
<path fill-rule="evenodd" clip-rule="evenodd" d="M10.0852 4L7.79223 1.70702L8.49933 0.999911L11.3278 3.82834L12.0349 4.53545L11.3278 5.24255L8.49933 8.07098L7.79223 7.36387L10.1561 5L1 5L1 4L10.0852 4Z" fill="#007AFF"/>
<path d="M10.0852 4L10.0852 4.5C10.2874 4.5 10.4698 4.37818 10.5471 4.19134C10.6245 4.0045 10.5818 3.78945 10.4388 3.64645L10.0852 4ZM7.79223 1.70702L7.43867 1.35347C7.24341 1.54873 7.24341 1.86531 7.43867 2.06057L7.79223 1.70702ZM8.49933 0.999911L8.85289 0.646358C8.75912 0.55259 8.63194 0.499911 8.49933 0.499911C8.36673 0.499911 8.23955 0.55259 8.14578 0.646358L8.49933 0.999911ZM11.3278 3.82834L10.9742 4.18189L10.9742 4.18189L11.3278 3.82834ZM12.0349 4.53545L12.3884 4.889C12.5837 4.69374 12.5837 4.37715 12.3884 4.18189L12.0349 4.53545ZM11.3278 5.24255L10.9742 4.889L11.3278 5.24255ZM8.49933 8.07098L8.14578 8.42453C8.23955 8.5183 8.36672 8.57098 8.49933 8.57098C8.63194 8.57098 8.75912 8.5183 8.85289 8.42453L8.49933 8.07098ZM7.79223 7.36387L7.43867 7.01032C7.24341 7.20558 7.24341 7.52216 7.43867 7.71743L7.79223 7.36387ZM10.1561 5L10.5097 5.35355C10.6527 5.21055 10.6954 4.9955 10.618 4.80866C10.5406 4.62182 10.3583 4.5 10.1561 4.5L10.1561 5ZM1 5L0.5 5C0.5 5.13261 0.552679 5.25979 0.646447 5.35355C0.740215 5.44732 0.867392 5.5 1 5.5L1 5ZM1 4L1 3.5C0.723858 3.5 0.5 3.72386 0.5 4L1 4ZM10.4388 3.64645L8.14578 1.35347L7.43867 2.06057L9.73165 4.35355L10.4388 3.64645ZM8.14578 2.06057L8.85289 1.35346L8.14578 0.646358L7.43867 1.35347L8.14578 2.06057ZM8.14578 1.35346L10.9742 4.18189L11.6813 3.47479L8.85289 0.646358L8.14578 1.35346ZM10.9742 4.18189L11.6813 4.889L12.3884 4.18189L11.6813 3.47479L10.9742 4.18189ZM11.6813 4.18189L10.9742 4.889L11.6813 5.59611L12.3884 4.889L11.6813 4.18189ZM10.9742 4.889L8.14578 7.71743L8.85289 8.42453L11.6813 5.59611L10.9742 4.889ZM8.85289 7.71743L8.14578 7.01032L7.43867 7.71743L8.14578 8.42453L8.85289 7.71743ZM8.14578 7.71743L10.5097 5.35355L9.80255 4.64645L7.43867 7.01032L8.14578 7.71743ZM10.1561 4.5L1 4.5L1 5.5L10.1561 5.5L10.1561 4.5ZM1.5 5L1.5 4L0.5 4L0.5 5L1.5 5ZM1 4.5L10.0852 4.5L10.0852 3.5L1 3.5L1 4.5Z" fill="#007AFF"/>
</svg>
