<svg width="21" height="22" viewBox="0 0 21 22" fill="none" xmlns="http://www.w3.org/2000/svg">
<path fill-rule="evenodd" clip-rule="evenodd" d="M9.95025 1C15.3234 1 19.5025 3 19.801 5.6C19.8507 5.65 19.8756 5.725 19.9005 5.8C19.9254 5.875 19.9502 5.95 20 6V11V16C20 16.4 19.7015 17.1 19.5025 17.5C18.3085 19.6 14.4279 21 9.95025 21C5.47264 21 1.59204 19.6 0.39801 17.5C0.0995025 17 0 16.5 0 16V11V6C0 3.1 4.27861 1 9.95025 1ZM17.9104 6C17.9104 4.8 14.8259 3 9.95025 3C5.07463 3 1.99005 4.8 1.99005 6C1.99005 6.2 2.18905 6.6 2.28856 6.8L2.28856 6.8C3.28358 7.9 6.06965 9 9.95025 9C14.0299 9 16.9154 7.7 17.7114 6.6C17.7114 6.55 17.7363 6.5 17.7612 6.45C17.7861 6.4 17.8109 6.35 17.8109 6.3C17.9104 6.2 17.9104 6.1 17.9104 6ZM17.9104 15.7C17.9104 15.9 17.8109 16.3 17.7114 16.5C17.0149 17.7 14.0299 19 9.95025 19C5.77114 19 2.78607 17.7 2.18905 16.5C1.99005 16.3 1.99005 16.2 1.99005 16V14.1C1.99005 14.1 2.08955 14.1 2.08955 14.2C3.8806 15.3 6.66667 16 9.95025 16C13.3333 16 16.1194 15.3 17.9104 14.1V15.7ZM17.7114 11.4C17.8109 11.3 17.9104 11 17.9104 10.7H18.01V9.01021C18.7549 8.59163 18.01 9 18.01 9V9.01021C17.8519 9.099 17.6269 9.225 17.3134 9.4C15.5224 10.4 12.9353 11 9.95025 11C6.66667 11 3.8806 10.3 2.08955 9.2C2.08955 9.1 1.99005 9.1 1.99005 9.1V11C1.99005 11.3 2.08955 11.5 2.18905 11.6C2.98507 12.7 5.87065 14 9.95025 14C14.2289 14 17.2139 12.6 17.7114 11.4Z" fill="#007AFF"/>
<path d="M19.801 5.6L19.4284 5.64277L19.4433 5.77217L19.5352 5.8645L19.801 5.6ZM19.9005 5.8L19.5446 5.91805V5.91805L19.9005 5.8ZM20 6H20.375V5.84522L20.2658 5.7355L20 6ZM19.5025 17.5L19.8285 17.6854L19.8336 17.6763L19.8382 17.667L19.5025 17.5ZM0.39801 17.5L0.724073 17.3146L0.719993 17.3078L0.39801 17.5ZM2.28856 6.8L2.64431 6.68141L2.636 6.65648L2.6243 6.63296L2.28856 6.8ZM2.28856 6.8L1.9328 6.91859L1.95768 6.99322L2.01045 7.05156L2.28856 6.8ZM17.7114 6.6L18.0152 6.81984L18.0864 6.72145V6.6H17.7114ZM17.7612 6.45L17.4255 6.28296V6.28296L17.7612 6.45ZM17.8109 6.3L17.5451 6.0355L17.4359 6.14522V6.3H17.8109ZM17.7114 16.5L18.0358 16.6882L18.0418 16.6778L18.0472 16.667L17.7114 16.5ZM2.18905 16.5L2.5248 16.333L2.49774 16.2786L2.45488 16.2355L2.18905 16.5ZM1.99005 14.1V13.725H1.61505V14.1H1.99005ZM2.08955 14.2H1.71455V14.4098L1.8933 14.5195L2.08955 14.2ZM17.9104 14.1H18.2854V13.3974L17.7017 13.7885L17.9104 14.1ZM17.9104 10.7V10.325H17.5354V10.7H17.9104ZM17.7114 11.4L17.4456 11.1355L17.3934 11.188L17.365 11.2564L17.7114 11.4ZM18.01 10.7V11.075H18.385V10.7H18.01ZM18.01 9L17.8297 8.67117L17.635 8.77792V9H18.01ZM17.3134 9.4L17.4962 9.72742H17.4962L17.3134 9.4ZM2.08955 9.2H1.71455V9.40977L1.8933 9.51955L2.08955 9.2ZM1.99005 9.1V8.725H1.61505V9.1H1.99005ZM2.18905 11.6L2.49285 11.3802L2.47562 11.3563L2.45488 11.3355L2.18905 11.6ZM20.1735 5.55723C20.002 4.06321 18.7348 2.8308 16.9382 1.98567C15.1239 1.13216 12.6788 0.625 9.95025 0.625V1.375C12.5948 1.375 14.9259 1.86784 16.619 2.66433C18.3299 3.4692 19.3015 4.53679 19.4284 5.64277L20.1735 5.55723ZM20.2564 5.68195C20.2392 5.63011 20.191 5.46032 20.0668 5.3355L19.5352 5.8645C19.5168 5.84599 19.513 5.83334 19.5184 5.84516C19.5207 5.85031 19.524 5.85837 19.5286 5.87113C19.5333 5.88429 19.5381 5.89851 19.5446 5.91805L20.2564 5.68195ZM20.2658 5.7355C20.2842 5.75401 20.2879 5.76666 20.2826 5.75484C20.2803 5.74969 20.277 5.74163 20.2724 5.72887C20.2677 5.71571 20.2629 5.70149 20.2564 5.68195L19.5446 5.91805C19.5618 5.96989 19.61 6.13968 19.7342 6.2645L20.2658 5.7355ZM20.375 11V6H19.625V11H20.375ZM20.375 16V11H19.625V16H20.375ZM19.8382 17.667C19.9423 17.4578 20.0729 17.1693 20.1785 16.8776C20.2796 16.5981 20.375 16.2702 20.375 16H19.625C19.625 16.1298 19.5711 16.3519 19.4732 16.6224C19.3798 16.8807 19.2616 17.1422 19.1667 17.333L19.8382 17.667ZM9.95025 21.375C12.2254 21.375 14.3594 21.0197 16.0862 20.3898C17.8014 19.7641 19.1677 18.8474 19.8285 17.6854L19.1765 17.3146C18.6432 18.2526 17.4722 19.0859 15.8292 19.6852C14.1978 20.2803 12.1527 20.625 9.95025 20.625V21.375ZM0.0720203 17.6854C0.732767 18.8474 2.09908 19.7641 3.81428 20.3898C5.54106 21.0197 7.6751 21.375 9.95025 21.375V20.625C7.74778 20.625 5.70272 20.2803 4.07129 19.6852C2.42828 19.0859 1.25728 18.2526 0.724 17.3146L0.0720203 17.6854ZM-0.375 16C-0.375 16.554 -0.263596 17.1234 0.0760268 17.6922L0.719993 17.3078C0.462601 16.8766 0.375 16.446 0.375 16H-0.375ZM-0.375 11V16H0.375V11H-0.375ZM-0.375 6V11H0.375V6H-0.375ZM9.95025 0.625C7.0739 0.625 4.52516 1.15665 2.68083 2.07695C0.848362 2.99133 -0.375 4.34114 -0.375 6H0.375C0.375 4.75886 1.29094 3.60867 3.01569 2.74805C4.72857 1.89334 7.15496 1.375 9.95025 1.375V0.625ZM9.95025 3.375C12.3445 3.375 14.2826 3.81736 15.6092 4.39392C16.2739 4.6828 16.7723 4.99975 17.0978 5.30046C17.4345 5.61144 17.5354 5.85584 17.5354 6H18.2854C18.2854 5.54416 18.0008 5.11356 17.6068 4.74954C17.2016 4.37524 16.6241 4.0172 15.9082 3.70607C14.4737 3.08264 12.4316 2.625 9.95025 2.625V3.375ZM2.36505 6C2.36505 5.85584 2.466 5.61144 2.80265 5.30046C3.12818 4.99975 3.62656 4.6828 4.29126 4.39392C5.61794 3.81736 7.55595 3.375 9.95025 3.375V2.625C7.46893 2.625 5.42684 3.08264 3.99232 3.70607C3.27643 4.0172 2.69894 4.37524 2.29374 4.74954C1.89968 5.11356 1.61505 5.54416 1.61505 6H2.36505ZM2.6243 6.63296C2.57396 6.53179 2.50495 6.39277 2.4484 6.25638C2.42018 6.18832 2.39755 6.12677 2.38247 6.07548C2.36588 6.01904 2.36505 5.99683 2.36505 6H1.61505C1.61505 6.10317 1.63909 6.20596 1.66292 6.28702C1.68827 6.37323 1.72161 6.46167 1.75558 6.54362C1.82341 6.70722 1.90364 6.8682 1.95281 6.96703L2.6243 6.63296ZM2.64431 6.68141L2.64431 6.68141L1.9328 6.91858L1.9328 6.91859L2.64431 6.68141ZM9.95025 8.625C8.04427 8.625 6.41606 8.35473 5.15026 7.95491C3.87398 7.55179 3.00058 7.02813 2.56666 6.54844L2.01045 7.05156C2.57156 7.67187 3.5887 8.24821 4.92437 8.67009C6.2705 9.09527 7.97563 9.375 9.95025 9.375V8.625ZM17.4076 6.38016C17.0771 6.83686 16.2448 7.40452 14.9391 7.85828C13.6508 8.30599 11.9514 8.625 9.95025 8.625V9.375C12.0287 9.375 13.8119 9.04401 15.1853 8.56672C16.5413 8.09548 17.5497 7.46314 18.0152 6.81984L17.4076 6.38016ZM17.4255 6.28296C17.4113 6.31134 17.3364 6.44474 17.3364 6.6H18.0864C18.0864 6.61862 18.0841 6.63312 18.0821 6.64226C18.0811 6.64685 18.0802 6.65032 18.0795 6.65255C18.0788 6.65477 18.0784 6.656 18.0783 6.6561C18.0783 6.65619 18.0786 6.65544 18.0793 6.65367C18.0801 6.6519 18.0812 6.64942 18.0828 6.64601C18.0844 6.64259 18.0863 6.6386 18.0887 6.63368C18.0912 6.62866 18.0937 6.62346 18.0969 6.61704L17.4255 6.28296ZM17.4359 6.3C17.4359 6.28138 17.4383 6.26688 17.4403 6.25774C17.4412 6.25315 17.4422 6.24968 17.4429 6.24745C17.4436 6.24523 17.444 6.244 17.4441 6.2439C17.4441 6.24381 17.4438 6.24456 17.4431 6.24633C17.4423 6.2481 17.4412 6.25058 17.4396 6.25399C17.438 6.25741 17.4361 6.2614 17.4337 6.26631C17.4312 6.27134 17.4286 6.27654 17.4255 6.28296L18.0969 6.61704C18.1111 6.58866 18.1859 6.45526 18.1859 6.3H17.4359ZM17.5354 6C17.5354 6.01299 17.5354 6.02257 17.5353 6.03167C17.5352 6.04044 17.5349 6.0468 17.5346 6.05172C17.534 6.06156 17.5333 6.0628 17.5341 6.05947C17.5351 6.05527 17.5374 6.04867 17.5412 6.04185C17.545 6.03514 17.5475 6.03308 17.5451 6.0355L18.0768 6.5645C18.2923 6.34793 18.2854 6.1053 18.2854 6H17.5354ZM18.0472 16.667C18.1142 16.5324 18.1718 16.353 18.2122 16.1905C18.252 16.0305 18.2854 15.8457 18.2854 15.7H17.5354C17.5354 15.7543 17.5192 15.8695 17.4844 16.0095C17.4501 16.147 17.4082 16.2676 17.3757 16.333L18.0472 16.667ZM9.95025 19.375C12.0281 19.375 13.837 19.0442 15.2245 18.5535C15.9181 18.3083 16.5126 18.0209 16.9848 17.7101C17.4526 17.4022 17.8215 17.0574 18.0358 16.6882L17.3871 16.3118C17.2531 16.5426 16.9877 16.8103 16.5724 17.0836C16.1615 17.3541 15.6242 17.6167 14.9745 17.8465C13.6754 18.3058 11.952 18.625 9.95025 18.625V19.375ZM1.85331 16.667C2.0427 17.0477 2.39913 17.3982 2.85563 17.7074C3.3173 18.02 3.90739 18.3082 4.60135 18.5535C5.98985 19.0445 7.82383 19.375 9.95025 19.375V18.625C7.89757 18.625 6.14946 18.3055 4.85139 17.8465C4.20206 17.6168 3.67275 17.355 3.27621 17.0864C2.8745 16.8143 2.63392 16.5523 2.5248 16.333L1.85331 16.667ZM1.61505 16C1.61505 16.0868 1.61161 16.2252 1.65899 16.3681C1.70959 16.5206 1.8035 16.6442 1.92323 16.7645L2.45488 16.2355C2.41542 16.1958 2.39425 16.1695 2.38282 16.1529C2.37257 16.138 2.3709 16.1321 2.37086 16.1319C2.36849 16.1248 2.36505 16.1132 2.36505 16H1.61505ZM1.61505 14.1V16H2.36505V14.1H1.61505ZM2.46455 14.2C2.46455 14.1098 2.44105 14.0171 2.3865 13.9349C2.33345 13.8549 2.26525 13.8061 2.20818 13.7774C2.15262 13.7495 2.10156 13.7374 2.06755 13.7317C2.04965 13.7287 2.03392 13.7271 2.02118 13.7262C2.01474 13.7257 2.0089 13.7254 2.00372 13.7252C2.00113 13.7251 1.99869 13.7251 1.99641 13.7251C1.99527 13.725 1.99417 13.725 1.99311 13.725C1.99258 13.725 1.99206 13.725 1.99155 13.725C1.9913 13.725 1.99104 13.725 1.99079 13.725C1.99067 13.725 1.99048 13.725 1.99042 13.725C1.99023 13.725 1.99005 13.725 1.99005 14.1C1.99005 14.475 1.98987 14.475 1.98968 14.475C1.98962 14.475 1.98944 14.475 1.98932 14.475C1.98907 14.475 1.98883 14.475 1.98858 14.475C1.9881 14.475 1.98761 14.475 1.98713 14.475C1.98617 14.475 1.98521 14.475 1.98426 14.475C1.98236 14.4749 1.98048 14.4749 1.97861 14.4748C1.9749 14.4747 1.97119 14.4745 1.96747 14.4742C1.96018 14.4737 1.95221 14.4728 1.94365 14.4714C1.92829 14.4688 1.90211 14.463 1.87143 14.4476C1.83923 14.4314 1.79591 14.4013 1.76151 14.3495C1.72561 14.2954 1.71455 14.2402 1.71455 14.2H2.46455ZM9.95025 15.625C6.71087 15.625 3.99957 14.933 2.28581 13.8805L1.8933 14.5195C3.76162 15.667 6.62247 16.375 9.95025 16.375V15.625ZM17.7017 13.7885C15.9951 14.9319 13.292 15.625 9.95025 15.625V16.375C13.3746 16.375 16.2437 15.6681 18.1192 14.4115L17.7017 13.7885ZM18.2854 15.7V14.1H17.5354V15.7H18.2854ZM17.5354 10.7C17.5354 10.8111 17.5166 10.925 17.4889 11.0177C17.4752 11.0637 17.4608 11.0994 17.4488 11.1236C17.4349 11.1515 17.4312 11.15 17.4456 11.1355L17.9773 11.6645C18.0938 11.5474 18.1652 11.3742 18.2076 11.2323C18.2545 11.075 18.2854 10.8889 18.2854 10.7H17.5354ZM18.01 10.325H17.9104V11.075H18.01V10.325ZM17.635 9.01021V10.7H18.385V9.01021H17.635ZM18.1936 9.33714C18.3787 9.23318 18.4756 9.17808 18.5146 9.1551C18.5191 9.15246 18.5384 9.14127 18.5549 9.12973C18.5582 9.12739 18.5647 9.12279 18.5725 9.11665C18.5755 9.11427 18.5986 9.0966 18.6226 9.06923C18.6295 9.06138 18.6705 9.0161 18.6954 8.94411C18.7073 8.90211 18.7152 8.79573 18.7055 8.73317C18.6797 8.66053 18.593 8.5438 18.5379 8.50231C18.4259 8.43325 18.3158 8.44727 18.3092 8.44784C18.2788 8.45042 18.2556 8.4562 18.2463 8.45862C18.2257 8.46399 18.21 8.47001 18.2054 8.47181C18.1985 8.47446 18.193 8.47682 18.1897 8.47822C18.1833 8.48105 18.178 8.48357 18.1751 8.48492C18.1588 8.49276 18.133 8.50647 18.1125 8.51741C18.0644 8.54313 17.9933 8.5818 17.9351 8.61352C17.9059 8.62949 17.8795 8.64389 17.8605 8.65429C17.851 8.6595 17.8433 8.6637 17.838 8.66662C17.8353 8.66807 17.8333 8.66921 17.8319 8.66998C17.8312 8.67036 17.8306 8.67066 17.8303 8.67086C17.8301 8.67096 17.8299 8.67103 17.8298 8.67109C17.8298 8.67111 17.8298 8.67113 17.8297 8.67114C17.8297 8.67115 17.8297 8.67116 17.8297 8.67116C17.8297 8.67116 17.8297 8.67117 18.01 9C18.1902 9.32883 18.1902 9.32883 18.1902 9.32883C18.1902 9.32883 18.1902 9.32882 18.1902 9.32882C18.1903 9.32881 18.1903 9.32879 18.1903 9.32877C18.1904 9.32872 18.1905 9.32865 18.1907 9.32855C18.1911 9.32836 18.1916 9.32808 18.1923 9.32771C18.1936 9.32696 18.1957 9.32585 18.1983 9.32441C18.2035 9.32155 18.2111 9.31739 18.2205 9.31225C18.2393 9.30196 18.2654 9.28772 18.2943 9.27194C18.3525 9.24018 18.4211 9.20291 18.4661 9.17886C18.4922 9.16492 18.5013 9.16028 18.4995 9.16115C18.4985 9.16162 18.4947 9.16345 18.4894 9.16577C18.4868 9.16691 18.4817 9.16906 18.4753 9.17156C18.471 9.17319 18.4557 9.1791 18.4353 9.18442C18.4261 9.1868 18.403 9.19257 18.3727 9.19514C18.3573 9.19613 18.3199 9.1959 18.298 9.19401C18.2658 9.18886 18.1878 9.16377 18.1442 9.14069C18.089 9.09921 18.0024 8.98249 17.9766 8.90987C17.9669 8.84732 17.9748 8.74096 17.9866 8.69898C17.9971 8.67215 18.0192 8.62905 18.0298 8.61244C18.0377 8.60103 18.0526 8.58187 18.0593 8.57403C18.0833 8.5468 18.1061 8.52932 18.1088 8.52718C18.1163 8.52128 18.1224 8.51698 18.1252 8.51499C18.1377 8.50625 18.1468 8.5013 18.1338 8.50895C18.103 8.52713 18.0137 8.57795 17.8263 8.68328L18.1936 9.33714ZM17.635 9V9.01021H18.385V9H17.635ZM17.4962 9.72742C17.8098 9.55235 18.0352 9.42616 18.1936 9.33714L17.8263 8.68328C17.6687 8.77184 17.4439 8.89765 17.1306 9.07258L17.4962 9.72742ZM9.95025 11.375C12.9788 11.375 15.6338 10.7673 17.4962 9.72742L17.1306 9.07258C15.411 10.0327 12.8918 10.625 9.95025 10.625V11.375ZM1.8933 9.51955C3.76162 10.667 6.62247 11.375 9.95025 11.375V10.625C6.71087 10.625 3.99957 9.93299 2.28581 8.88045L1.8933 9.51955ZM1.99005 9.1C1.99005 9.475 1.98987 9.475 1.98968 9.475C1.98962 9.475 1.98944 9.475 1.98932 9.475C1.98907 9.475 1.98883 9.475 1.98858 9.475C1.9881 9.47499 1.98761 9.47499 1.98713 9.47499C1.98617 9.47498 1.98521 9.47497 1.98426 9.47495C1.98236 9.47492 1.98048 9.47488 1.97861 9.47481C1.9749 9.47469 1.97119 9.4745 1.96747 9.47423C1.96018 9.47371 1.95221 9.47284 1.94365 9.47141C1.92829 9.46884 1.90211 9.46299 1.87143 9.44757C1.83923 9.4314 1.79591 9.40134 1.76151 9.34948C1.72561 9.29537 1.71455 9.24024 1.71455 9.2H2.46455C2.46455 9.10976 2.44105 9.01713 2.3865 8.93489C2.33345 8.85491 2.26525 8.8061 2.20818 8.77743C2.15262 8.74951 2.10156 8.73741 2.06755 8.73171C2.04965 8.72872 2.03392 8.72707 2.02118 8.72616C2.01474 8.7257 2.0089 8.72541 2.00372 8.72523C2.00113 8.72515 1.99869 8.72509 1.99641 8.72505C1.99527 8.72503 1.99417 8.72502 1.99311 8.72501C1.99258 8.72501 1.99206 8.725 1.99155 8.725C1.9913 8.725 1.99104 8.725 1.99079 8.725C1.99067 8.725 1.99048 8.725 1.99042 8.725C1.99023 8.725 1.99005 8.725 1.99005 9.1ZM2.36505 11V9.1H1.61505V11H2.36505ZM2.45488 11.3355C2.43785 11.3184 2.36505 11.2202 2.36505 11H1.61505C1.61505 11.3798 1.74126 11.6816 1.92323 11.8645L2.45488 11.3355ZM9.95025 13.625C7.9491 13.625 6.24971 13.306 4.96141 12.8583C3.6557 12.4045 2.82335 11.8369 2.49285 11.3802L1.88526 11.8198C2.35078 12.4631 3.35923 13.0955 4.71521 13.5667C6.0886 14.044 7.8718 14.375 9.95025 14.375V13.625ZM17.365 11.2564C17.2783 11.4655 17.0606 11.728 16.6714 12.0082C16.2883 12.284 15.7665 12.5571 15.1179 12.7986C13.8216 13.2811 12.0507 13.625 9.95025 13.625V14.375C12.1284 14.375 13.9893 14.0189 15.3796 13.5014C16.0743 13.2429 16.6594 12.941 17.1097 12.6168C17.5538 12.297 17.8958 11.9345 18.0579 11.5436L17.365 11.2564Z" fill="white"/>
</svg>
