<svg width="16" height="22" viewBox="0 0 16 22" fill="none" xmlns="http://www.w3.org/2000/svg">
<path fill-rule="evenodd" clip-rule="evenodd" d="M2 22H14C15.1022 22 16 21.0752 16 19.9375V10.3125C16 9.17484 15.1022 8.25 14 8.25H2C0.897786 8.25 0 9.17484 0 10.3125V19.9375C0 21.0752 0.897786 22 2 22ZM1.33333 10.3125C1.33333 9.933 1.63281 9.625 2 9.625H14C14.3672 9.625 14.6667 9.933 14.6667 10.3125V19.9375C14.6667 20.317 14.3672 20.625 14 20.625H2C1.63281 20.625 1.33333 20.317 1.33333 19.9375V10.3125Z" fill="#007AFF"/>
<path d="M12.668 9.625C12.3 9.625 12.0013 9.317 12.0013 8.9375V5.5C12.0013 3.22568 10.2067 1.375 8.0013 1.375C5.7959 1.375 4.0013 3.22568 4.0013 5.5V8.9375C4.0013 9.317 3.70264 9.625 3.33464 9.625C2.96663 9.625 2.66797 9.317 2.66797 8.9375V5.5C2.66797 2.46667 5.0599 0 8.0013 0C10.9427 0 13.3346 2.46667 13.3346 5.5V8.9375C13.3346 9.317 13.036 9.625 12.668 9.625Z" fill="#007AFF"/>
</svg>
