<svg width="25" height="16" viewBox="0 0 25 16" fill="none" xmlns="http://www.w3.org/2000/svg">
<path fill-rule="evenodd" clip-rule="evenodd" d="M21.5797 13.0359C21.9744 13.0359 22.2943 12.7159 22.2943 12.3213V6.74502L23.5278 6.31336C23.8109 6.21422 23.9998 5.95355 24 5.66131C24.0002 5.36916 23.8118 5.10813 23.5287 5.00866L12.2433 1.04144C12.0861 0.986185 11.9138 0.986185 11.7567 1.04144L0.471295 5.00866C0.189326 5.1078 0.0011564 5.36722 1.30932e-05 5.6583C-0.00103494 5.94939 0.185182 6.21015 0.466341 6.31128L4.63128 7.80889V12.3801C4.63128 12.522 4.67606 12.6605 4.75966 12.7768C4.80563 12.8408 5.24109 13.418 6.35601 13.9628C7.76452 14.651 9.61192 15 11.8468 15C14.0801 15 15.9368 14.6518 17.3654 13.9648C18.4913 13.4235 18.9413 12.8523 18.9889 12.789C19.0781 12.6703 19.1262 12.5272 19.1262 12.3802V7.85365L20.8652 7.24507V12.3213C20.8652 12.7159 21.1851 13.0359 21.5797 13.0359ZM12 2.43132L21.1827 5.65937L11.8502 8.92534L2.79212 5.6682L12 2.43132ZM6.06041 8.32282V12.1106C7.99518 13.9927 15.2542 14.2373 17.697 12.1037V8.35389L12.0891 10.3164C11.837 10.3834 11.7321 10.3517 11.6559 10.3288C11.6355 10.3226 11.6171 10.3171 11.5986 10.3142L6.06041 8.32282Z" fill="#007AFF"/>
<path d="M22.2943 6.74502L22.2695 6.67423L22.2193 6.69181V6.74502H22.2943ZM23.5278 6.31336L23.5525 6.38415L23.5525 6.38414L23.5278 6.31336ZM24 5.66131L23.925 5.66125L24 5.66131ZM23.5287 5.00866L23.5038 5.07942L23.5038 5.07942L23.5287 5.00866ZM12.2433 1.04144L12.2184 1.1122L12.2184 1.1122L12.2433 1.04144ZM11.7567 1.04144L11.7815 1.1122L11.7815 1.1122L11.7567 1.04144ZM0.471295 5.00866L0.446422 4.93791L0.446418 4.93791L0.471295 5.00866ZM1.30932e-05 5.6583L-0.0749863 5.65801L-0.0749864 5.65803L1.30932e-05 5.6583ZM0.466341 6.31128L0.440956 6.38185L0.440963 6.38185L0.466341 6.31128ZM4.63128 7.80889H4.70628V7.75616L4.65665 7.73831L4.63128 7.80889ZM4.75966 12.7768L4.82057 12.7331L4.82057 12.733L4.75966 12.7768ZM6.35601 13.9628L6.38893 13.8954L6.38893 13.8954L6.35601 13.9628ZM17.3654 13.9648L17.3329 13.8973L17.3654 13.9648ZM18.9889 12.789L19.0488 12.8341L19.0489 12.834L18.9889 12.789ZM19.1262 7.85365L19.1014 7.78286L19.0512 7.80044V7.85365H19.1262ZM20.8652 7.24507H20.9402V7.13937L20.8404 7.17428L20.8652 7.24507ZM21.1827 5.65937L21.2075 5.73016L21.4093 5.65953L21.2076 5.58861L21.1827 5.65937ZM12 2.43132L12.0249 2.36056L12 2.35182L11.9751 2.36056L12 2.43132ZM11.8502 8.92534L11.8248 8.99591L11.8498 9.00492L11.875 8.99613L11.8502 8.92534ZM2.79212 5.6682L2.76725 5.59745L2.56825 5.6674L2.76674 5.73878L2.79212 5.6682ZM6.06041 12.1106H5.98541V12.1423L6.00812 12.1644L6.06041 12.1106ZM6.06041 8.32282L6.08579 8.25224L5.98541 8.21615V8.32282H6.06041ZM17.697 12.1037L17.7464 12.1602L17.772 12.1378V12.1037H17.697ZM17.697 8.35389H17.772V8.24818L17.6722 8.2831L17.697 8.35389ZM12.0891 10.3164L12.1085 10.3891L12.1139 10.3872L12.0891 10.3164ZM11.6559 10.3288L11.6342 10.4006L11.6342 10.4006L11.6559 10.3288ZM11.5986 10.3142L11.5732 10.3848L11.58 10.3873L11.5872 10.3884L11.5986 10.3142ZM22.2193 12.3213C22.2193 12.6745 21.9329 12.9609 21.5797 12.9609V13.1109C22.0158 13.1109 22.3693 12.7574 22.3693 12.3213H22.2193ZM22.2193 6.74502V12.3213H22.3693V6.74502H22.2193ZM23.503 6.24257L22.2695 6.67423L22.319 6.81581L23.5525 6.38415L23.503 6.24257ZM23.925 5.66125C23.9248 5.9205 23.7572 6.15357 23.503 6.24257L23.5525 6.38414C23.8647 6.27486 24.0747 5.98661 24.075 5.66137L23.925 5.66125ZM23.5038 5.07942C23.7579 5.16871 23.9252 5.40209 23.925 5.66125L24.075 5.66137C24.0753 5.33622 23.8656 5.04755 23.5536 4.9379L23.5038 5.07942ZM12.2184 1.1122L23.5038 5.07942L23.5536 4.93791L12.2682 0.970688L12.2184 1.1122ZM11.7815 1.1122C11.9226 1.0626 12.0774 1.0626 12.2184 1.1122L12.2682 0.97069C12.0949 0.90977 11.9051 0.90977 11.7318 0.97069L11.7815 1.1122ZM0.496168 5.07942L11.7815 1.1122L11.7318 0.970688L0.446422 4.93791L0.496168 5.07942ZM0.0750125 5.6586C0.0760268 5.40036 0.243053 5.16841 0.496172 5.07942L0.446418 4.93791C0.135599 5.04719 -0.073714 5.33407 -0.0749863 5.65801L0.0750125 5.6586ZM0.491725 6.2407C0.239359 6.14993 0.0740829 5.91681 0.0750126 5.65857L-0.0749864 5.65803C-0.0761527 5.98198 0.131004 6.27036 0.440956 6.38185L0.491725 6.2407ZM4.65665 7.73831L0.491718 6.2407L0.440963 6.38185L4.6059 7.87947L4.65665 7.73831ZM4.70628 12.3801V7.80889H4.55628V12.3801H4.70628ZM4.82057 12.733C4.74604 12.6293 4.70628 12.5061 4.70628 12.3801H4.55628C4.55628 12.5378 4.60607 12.6916 4.69875 12.8206L4.82057 12.733ZM6.38893 13.8954C5.28637 13.3567 4.86015 12.7882 4.82057 12.7331L4.69875 12.8206C4.75111 12.8935 5.1958 13.4794 6.32308 14.0302L6.38893 13.8954ZM11.8468 14.925C9.6188 14.925 7.78378 14.577 6.38893 13.8954L6.32308 14.0301C7.74525 14.7251 9.60503 15.075 11.8468 15.075V14.925ZM17.3329 13.8973C15.9177 14.5777 14.0731 14.925 11.8468 14.925V15.075C14.087 15.075 15.9559 14.7258 17.3979 14.0324L17.3329 13.8973ZM18.929 12.7439C18.8877 12.7987 18.4468 13.3617 17.3329 13.8973L17.3979 14.0324C18.5358 13.4853 18.9948 12.9058 19.0488 12.8341L18.929 12.7439ZM19.0512 12.3802C19.0512 12.5107 19.0085 12.6381 18.929 12.7439L19.0489 12.834C19.1477 12.7025 19.2012 12.5436 19.2012 12.3802H19.0512ZM19.0512 7.85365V12.3802H19.2012V7.85365H19.0512ZM20.8404 7.17428L19.1014 7.78286L19.1509 7.92444L20.89 7.31586L20.8404 7.17428ZM20.9402 12.3213V7.24507H20.7902V12.3213H20.9402ZM21.5797 12.9609C21.2265 12.9609 20.9402 12.6745 20.9402 12.3213H20.7902C20.7902 12.7574 21.1437 13.1109 21.5797 13.1109V12.9609ZM21.2076 5.58861L12.0249 2.36056L11.9751 2.50207L21.1579 5.73012L21.2076 5.58861ZM11.875 8.99613L21.2075 5.73016L21.158 5.58858L11.8254 8.85455L11.875 8.99613ZM2.76674 5.73878L11.8248 8.99591L11.8756 8.85476L2.8175 5.59762L2.76674 5.73878ZM11.9751 2.36056L2.76725 5.59745L2.81699 5.73896L12.0249 2.50207L11.9751 2.36056ZM6.13541 12.1106V8.32282H5.98541V12.1106H6.13541ZM17.6477 12.0472C17.05 12.5692 16.1518 12.9502 15.1031 13.1966C14.0558 13.4426 12.8652 13.5528 11.6891 13.5381C10.513 13.5233 9.354 13.3835 8.36998 13.1309C7.38371 12.8778 6.58242 12.5138 6.11271 12.0569L6.00812 12.1644C6.50579 12.6485 7.33741 13.0208 8.33269 13.2762C9.33022 13.5322 10.5014 13.6731 11.6872 13.688C12.8731 13.703 14.0762 13.5919 15.1374 13.3426C16.1974 13.0935 17.1226 12.705 17.7464 12.1602L17.6477 12.0472ZM17.622 8.35389V12.1037H17.772V8.35389H17.622ZM12.1139 10.3872L17.7218 8.42468L17.6722 8.2831L12.0644 10.2456L12.1139 10.3872ZM11.6342 10.4006C11.6736 10.4125 11.7265 10.4285 11.8038 10.4313C11.8802 10.434 11.9771 10.4237 12.1084 10.3889L12.0699 10.2439C11.949 10.276 11.8673 10.2834 11.8092 10.2814C11.752 10.2793 11.7143 10.2681 11.6775 10.257L11.6342 10.4006ZM11.5872 10.3884C11.5996 10.3903 11.6127 10.3941 11.6342 10.4006L11.6775 10.257C11.6582 10.2511 11.6347 10.2439 11.6099 10.2401L11.5872 10.3884ZM6.03504 8.39339L11.5732 10.3848L11.6239 10.2437L6.08579 8.25224L6.03504 8.39339Z" fill="#007AFF"/>
</svg>
