<svg width="22" height="17" viewBox="0 0 22 17" fill="none" xmlns="http://www.w3.org/2000/svg">
<path fill-rule="evenodd" clip-rule="evenodd" d="M21.7014 14.5758L19.9732 12.2308V2.3852C19.9732 1.07 18.9139 0 17.6118 0H4.38819C3.08614 0 2.02683 1.07 2.02683 2.3852V12.2308L0.298615 14.5758C-0.0427519 15.039 -0.0954318 15.6473 0.161184 16.1634C0.417756 16.6794 0.932319 17 1.50398 17H20.496C21.0676 17 21.5823 16.6794 21.8388 16.1634C22.0954 15.6473 22.0428 15.039 21.7014 14.5758ZM3.31485 2.3852C3.31485 1.78739 3.79635 1.30102 4.38819 1.30102H17.6118C18.2037 1.30102 18.6852 1.78739 18.6852 2.3852V11.7959H3.31485V2.3852ZM20.496 15.699C20.6113 15.699 20.6657 15.6241 20.6879 15.5795C20.7101 15.5348 20.737 15.446 20.6682 15.3526L19.0057 13.0969H2.99426L1.33178 15.3526C1.26295 15.446 1.28991 15.5348 1.31215 15.5795C1.33435 15.6241 1.38875 15.699 1.50398 15.699H20.496Z" fill="#007AFF"/>
<path d="M12.7622 2.60156H9.24166C8.886 2.60156 8.59766 2.89282 8.59766 3.25207C8.59766 3.61133 8.886 3.90258 9.24166 3.90258H12.7622C13.1179 3.90258 13.4062 3.61133 13.4062 3.25207C13.4062 2.89282 13.1179 2.60156 12.7622 2.60156Z" fill="#007AFF"/>
</svg>
