<svg width="21" height="27" viewBox="0 0 21 27" fill="none" xmlns="http://www.w3.org/2000/svg">
<path d="M13.0118 14.2529H6.98866C6.45515 14.2529 6.02344 14.6847 6.02344 15.2172C6.02344 15.7497 6.45515 16.1815 6.98866 16.1815H13.0118C13.5454 16.1815 13.9771 15.7497 13.9771 15.2172C13.9771 14.6847 13.5454 14.2529 13.0118 14.2529Z" fill="#007AFF" stroke="white" stroke-width="0.45"/>
<path d="M13.0118 10.2412H6.98866C6.45515 10.2412 6.02344 10.673 6.02344 11.2055C6.02344 11.738 6.45515 12.1698 6.98866 12.1698H13.0118C13.5454 12.1698 13.9771 11.738 13.9771 11.2055C13.9771 10.673 13.5454 10.2412 13.0118 10.2412Z" fill="#007AFF" stroke="white" stroke-width="0.45"/>
<path d="M13.0118 6.23047H6.98866C6.45515 6.23047 6.02344 6.66223 6.02344 7.19475C6.02344 7.72728 6.45515 8.15904 6.98866 8.15904H13.0118C13.5454 8.15904 13.9771 7.72728 13.9771 7.19475C13.9771 6.66223 13.5454 6.23047 13.0118 6.23047Z" fill="#007AFF" stroke="white" stroke-width="0.45"/>
<path fill-rule="evenodd" clip-rule="evenodd" d="M18.0262 23.9253H19.0348C19.5683 23.9253 20 24.3571 20 24.8896C20 25.4221 19.5683 25.8539 19.0348 25.8539H0.965218C0.431709 25.8539 0 25.4221 0 24.8896C0 24.3571 0.431709 23.9253 0.965218 23.9253H1.9738V1.96429C1.9738 1.43176 2.4055 1 2.93901 1H14.3746H17.061C17.5945 1 18.0262 1.43176 18.0262 1.96429V23.9253ZM3.90423 23.9253H10.9652H16.0958V2.92857H6.59063H3.90423V23.9253Z" fill="#007AFF"/>
<path d="M18.0262 23.9253H17.8012V24.1503H18.0262V23.9253ZM1.9738 23.9253V24.1503H2.1988V23.9253H1.9738ZM3.90423 23.9253H3.67923V24.1503H3.90423V23.9253ZM16.0958 23.9253V24.1503H16.3208V23.9253H16.0958ZM16.0958 2.92857H16.3208V2.70357H16.0958V2.92857ZM3.90423 2.92857V2.70357H3.67923V2.92857H3.90423ZM19.0348 23.7003H18.0262V24.1503H19.0348V23.7003ZM20.225 24.8896C20.225 24.2327 19.6924 23.7003 19.0348 23.7003V24.1503C19.4442 24.1503 19.775 24.4815 19.775 24.8896H20.225ZM19.0348 26.0789C19.6924 26.0789 20.225 25.5465 20.225 24.8896H19.775C19.775 25.2977 19.4442 25.6289 19.0348 25.6289V26.0789ZM0.965218 26.0789H19.0348V25.6289H0.965218V26.0789ZM-0.225 24.8896C-0.225 25.5465 0.307578 26.0789 0.965218 26.0789V25.6289C0.555839 25.6289 0.225 25.2977 0.225 24.8896H-0.225ZM0.965218 23.7003C0.307578 23.7003 -0.225 24.2327 -0.225 24.8896H0.225C0.225 24.4815 0.55584 24.1503 0.965218 24.1503V23.7003ZM1.9738 23.7003H0.965218V24.1503H1.9738V23.7003ZM1.7488 1.96429V23.9253H2.1988V1.96429H1.7488ZM2.93901 0.775C2.28137 0.775 1.7488 1.30737 1.7488 1.96429H2.1988C2.1988 1.55616 2.52964 1.225 2.93901 1.225V0.775ZM14.3746 0.775H2.93901V1.225H14.3746V0.775ZM17.061 0.775H14.3746V1.225H17.061V0.775ZM18.2512 1.96429C18.2512 1.30736 17.7186 0.775 17.061 0.775V1.225C17.4704 1.225 17.8012 1.55616 17.8012 1.96429H18.2512ZM18.2512 23.9253V1.96429H17.8012V23.9253H18.2512ZM10.9652 23.7003H3.90423V24.1503H10.9652V23.7003ZM16.0958 23.7003H10.9652V24.1503H16.0958V23.7003ZM15.8708 2.92857V23.9253H16.3208V2.92857H15.8708ZM6.59063 3.15357H16.0958V2.70357H6.59063V3.15357ZM3.90423 3.15357H6.59063V2.70357H3.90423V3.15357ZM4.12923 23.9253V2.92857H3.67923V23.9253H4.12923Z" fill="white"/>
</svg>
