<svg width="21" height="22" viewBox="0 0 21 22" fill="none" xmlns="http://www.w3.org/2000/svg">
<path fill-rule="evenodd" clip-rule="evenodd" d="M10 21C4.486 21 0 16.5137 0 10.9998C0 5.48593 4.486 1 10 1C15.514 1 20 5.48593 20 10.9998C20 16.5137 15.514 21 10 21ZM10 19.1817C14.5116 19.1817 18.182 15.5113 18.182 10.9998C18.182 6.48868 14.5116 2.81831 10 2.81831C5.48842 2.81831 1.81799 6.48868 1.81799 10.9998C1.81799 15.5113 5.48842 19.1817 10 19.1817Z" fill="#007AFF"/>
<path d="M-0.25 10.9998C-0.25 16.6518 4.34793 21.25 10 21.25V20.75C4.62408 20.75 0.25 16.3757 0.25 10.9998H-0.25ZM10 0.75C4.34794 0.75 -0.25 5.34785 -0.25 10.9998H0.25C0.25 5.624 4.62407 1.25 10 1.25V0.75ZM20.25 10.9998C20.25 5.34785 15.6521 0.75 10 0.75V1.25C15.3759 1.25 19.75 5.624 19.75 10.9998H20.25ZM10 21.25C15.6521 21.25 20.25 16.6518 20.25 10.9998H19.75C19.75 16.3757 15.3759 20.75 10 20.75V21.25ZM17.932 10.9998C17.932 15.3732 14.3735 18.9317 10 18.9317V19.4317C14.6496 19.4317 18.432 15.6494 18.432 10.9998H17.932ZM10 3.06831C14.3735 3.06831 17.932 6.62676 17.932 10.9998H18.432C18.432 6.35059 14.6496 2.56831 10 2.56831V3.06831ZM2.06799 10.9998C2.06799 6.62676 5.62648 3.06831 10 3.06831V2.56831C5.35036 2.56831 1.56799 6.35059 1.56799 10.9998H2.06799ZM10 18.9317C5.62649 18.9317 2.06799 15.3732 2.06799 10.9998H1.56799C1.56799 15.6494 5.35035 19.4317 10 19.4317V18.9317Z" fill="white"/>
<path d="M8.9077 5.54605V6.61132C7.84952 6.98642 7.08936 7.99699 7.08936 9.18232C7.08936 10.6859 8.31272 11.9096 9.8167 11.9096C10.3179 11.9096 10.7257 12.3174 10.7257 12.8186C10.7257 13.3198 10.3179 13.7276 9.8167 13.7276C9.42845 13.7276 9.00894 13.4835 8.63632 13.0399C8.31308 12.6555 7.73976 12.6062 7.35542 12.9291C6.97108 13.2523 6.92135 13.8256 7.24459 14.2099C7.73052 14.7879 8.30206 15.1907 8.9077 15.3938V16.4549C8.9077 16.9571 9.31478 17.3638 9.8167 17.3638C10.3186 17.3638 10.7257 16.9571 10.7257 16.4549V15.3896C11.7839 15.0141 12.544 14.0036 12.544 12.8186C12.544 11.3146 11.3207 10.0913 9.8167 10.0913C9.31549 10.0913 8.9077 9.68352 8.9077 9.18232C8.9077 8.68112 9.31549 8.27299 9.8167 8.27299C10.1389 8.27299 10.4788 8.43745 10.7999 8.74825C11.1608 9.09742 11.7363 9.08783 12.0855 8.7273C12.4346 8.36641 12.425 7.79097 12.0645 7.4418C11.6031 6.9953 11.1413 6.74275 10.7257 6.60493V5.54605C10.7257 5.04379 10.3186 4.63672 9.8167 4.63672C9.31478 4.63672 8.9077 5.04379 8.9077 5.54605Z" fill="#007AFF" stroke="white" stroke-width="0.25"/>
</svg>
