<svg width="102" height="102" viewBox="0 0 102 102" fill="none" xmlns="http://www.w3.org/2000/svg">
<path fill-rule="evenodd" clip-rule="evenodd" d="M28.8941 65.9889L36.9586 57.9244C37.5885 57.2947 38.6094 57.2947 39.2393 57.9244L44.078 62.7631C44.7076 63.3929 44.7076 64.4139 44.078 65.0437L36.0135 73.1083C35.3836 73.7379 34.3627 73.7379 33.7328 73.1083L28.8941 68.2695C28.2645 67.6397 28.2645 66.6187 28.8941 65.9889ZM32.3151 67.1292L34.8731 69.6873L40.657 63.9034L38.099 61.3454L32.3151 67.1292Z" fill="#007AFF"/>
<path d="M36.9586 57.9244L36.6935 57.6592L36.6935 57.6592L36.9586 57.9244ZM28.8941 65.9889L28.6289 65.7237L28.6289 65.7238L28.8941 65.9889ZM39.2393 57.9244L39.5044 57.6592L39.5044 57.6592L39.2393 57.9244ZM44.078 62.7631L44.3432 62.498L44.3431 62.4979L44.078 62.7631ZM44.078 65.0437L44.3431 65.3089L44.3432 65.3089L44.078 65.0437ZM36.0135 73.1083L36.2786 73.3735L36.2786 73.3734L36.0135 73.1083ZM33.7328 73.1083L33.4677 73.3734L33.4677 73.3735L33.7328 73.1083ZM28.8941 68.2695L28.6289 68.5347L28.6289 68.5347L28.8941 68.2695ZM34.8731 69.6873L34.608 69.9525L34.8731 70.2176L35.1383 69.9525L34.8731 69.6873ZM32.3151 67.1292L32.0499 66.8641L31.7847 67.1292L32.0499 67.3944L32.3151 67.1292ZM40.657 63.9034L40.9222 64.1686L41.1873 63.9034L40.9222 63.6383L40.657 63.9034ZM38.099 61.3454L38.3641 61.0802L38.099 60.815L37.8338 61.0802L38.099 61.3454ZM36.6935 57.6592L28.6289 65.7237L29.1593 66.2541L37.2238 58.1895L36.6935 57.6592ZM39.5044 57.6592C38.7281 56.8831 37.4698 56.8831 36.6935 57.6592L37.2238 58.1896C37.7072 57.7063 38.4907 57.7063 38.9741 58.1896L39.5044 57.6592ZM44.3431 62.4979L39.5044 57.6592L38.9741 58.1895L43.8128 63.0283L44.3431 62.4979ZM44.3432 65.3089C45.1192 64.5326 45.1192 63.2742 44.3432 62.498L43.8128 63.0282C44.296 63.5116 44.296 64.2952 43.8128 64.7786L44.3432 65.3089ZM36.2786 73.3734L44.3431 65.3089L43.8128 64.7786L35.7483 72.8431L36.2786 73.3734ZM33.4677 73.3735C34.244 74.1495 35.5023 74.1495 36.2786 73.3735L35.7483 72.8431C35.2649 73.3263 34.4813 73.3263 33.9979 72.8431L33.4677 73.3735ZM28.6289 68.5347L33.4677 73.3734L33.998 72.8431L29.1593 68.0044L28.6289 68.5347ZM28.6289 65.7238C27.8529 66.5001 27.8529 67.7584 28.6289 68.5347L29.1593 68.0044C28.6761 67.521 28.6761 66.7374 29.1593 66.254L28.6289 65.7238ZM35.1383 69.4221L32.5802 66.8641L32.0499 67.3944L34.608 69.9525L35.1383 69.4221ZM40.3918 63.6383L34.608 69.4221L35.1383 69.9525L40.9222 64.1686L40.3918 63.6383ZM37.8338 61.6105L40.3918 64.1686L40.9222 63.6383L38.3641 61.0802L37.8338 61.6105ZM32.5802 67.3944L38.3641 61.6105L37.8338 61.0802L32.0499 66.8641L32.5802 67.3944Z" fill="white"/>
<path d="M36.9586 57.9244L36.6935 57.6592L36.6935 57.6592L36.9586 57.9244ZM28.8941 65.9889L28.6289 65.7237L28.6289 65.7238L28.8941 65.9889ZM39.2393 57.9244L39.5044 57.6592L39.5044 57.6592L39.2393 57.9244ZM44.078 62.7631L44.3432 62.498L44.3431 62.4979L44.078 62.7631ZM44.078 65.0437L44.3431 65.3089L44.3432 65.3089L44.078 65.0437ZM36.0135 73.1083L36.2786 73.3735L36.2786 73.3734L36.0135 73.1083ZM33.7328 73.1083L33.4677 73.3734L33.4677 73.3735L33.7328 73.1083ZM28.8941 68.2695L28.6289 68.5347L28.6289 68.5347L28.8941 68.2695ZM34.8731 69.6873L34.608 69.9525L34.8731 70.2176L35.1383 69.9525L34.8731 69.6873ZM32.3151 67.1292L32.0499 66.8641L31.7847 67.1292L32.0499 67.3944L32.3151 67.1292ZM40.657 63.9034L40.9222 64.1686L41.1873 63.9034L40.9222 63.6383L40.657 63.9034ZM38.099 61.3454L38.3641 61.0802L38.099 60.815L37.8338 61.0802L38.099 61.3454ZM36.6935 57.6592L28.6289 65.7237L29.1593 66.2541L37.2238 58.1895L36.6935 57.6592ZM39.5044 57.6592C38.7281 56.8831 37.4698 56.8831 36.6935 57.6592L37.2238 58.1896C37.7072 57.7063 38.4907 57.7063 38.9741 58.1896L39.5044 57.6592ZM44.3431 62.4979L39.5044 57.6592L38.9741 58.1895L43.8128 63.0283L44.3431 62.4979ZM44.3432 65.3089C45.1192 64.5326 45.1192 63.2742 44.3432 62.498L43.8128 63.0282C44.296 63.5116 44.296 64.2952 43.8128 64.7786L44.3432 65.3089ZM36.2786 73.3734L44.3431 65.3089L43.8128 64.7786L35.7483 72.8431L36.2786 73.3734ZM33.4677 73.3735C34.244 74.1495 35.5023 74.1495 36.2786 73.3735L35.7483 72.8431C35.2649 73.3263 34.4813 73.3263 33.9979 72.8431L33.4677 73.3735ZM28.6289 68.5347L33.4677 73.3734L33.998 72.8431L29.1593 68.0044L28.6289 68.5347ZM28.6289 65.7238C27.8529 66.5001 27.8529 67.7584 28.6289 68.5347L29.1593 68.0044C28.6761 67.521 28.6761 66.7374 29.1593 66.254L28.6289 65.7238ZM35.1383 69.4221L32.5802 66.8641L32.0499 67.3944L34.608 69.9525L35.1383 69.4221ZM40.3918 63.6383L34.608 69.4221L35.1383 69.9525L40.9222 64.1686L40.3918 63.6383ZM37.8338 61.6105L40.3918 64.1686L40.9222 63.6383L38.3641 61.0802L37.8338 61.6105ZM32.5802 67.3944L38.3641 61.6105L37.8338 61.0802L32.0499 66.8641L32.5802 67.3944Z" fill="#007AFF" fill-opacity="0.04"/>
<path fill-rule="evenodd" clip-rule="evenodd" d="M65.0447 44.076C64.7423 44.3785 64.3321 44.5485 63.9044 44.5486C63.4767 44.5485 63.0665 44.3785 62.7641 44.076L57.9254 39.2373C57.2957 38.6075 57.2957 37.5865 57.9254 36.9567L65.9899 28.8922C66.6197 28.2625 67.6407 28.2625 68.2705 28.8922L73.1092 33.7309C73.7389 34.3607 73.7389 35.3817 73.1092 36.0115L65.0447 44.076ZM69.6883 34.8712L67.1302 32.3131L61.3463 38.097L63.9044 40.6551L69.6883 34.8712Z" fill="#007AFF"/>
<path d="M63.9044 44.5486L63.9043 44.9236H63.9045L63.9044 44.5486ZM65.0447 44.076L64.7796 43.8109L64.7795 43.8109L65.0447 44.076ZM62.7641 44.076L63.0293 43.8109L63.0292 43.8109L62.7641 44.076ZM57.9254 39.2373L57.6602 39.5024L57.6602 39.5025L57.9254 39.2373ZM57.9254 36.9567L57.6602 36.6915L57.6602 36.6915L57.9254 36.9567ZM65.9899 28.8922L65.7248 28.627L65.7247 28.627L65.9899 28.8922ZM68.2705 28.8922L68.5357 28.627L68.5356 28.627L68.2705 28.8922ZM73.1092 33.7309L73.3744 33.4657L73.3744 33.4657L73.1092 33.7309ZM73.1092 36.0115L73.3744 36.2767L73.3744 36.2766L73.1092 36.0115ZM67.1302 32.3131L67.3954 32.048L67.1302 31.7828L66.865 32.048L67.1302 32.3131ZM69.6883 34.8712L69.9534 35.1364L70.2186 34.8712L69.9534 34.606L69.6883 34.8712ZM61.3463 38.097L61.0812 37.8318L60.816 38.097L61.0812 38.3622L61.3463 38.097ZM63.9044 40.6551L63.6392 40.9202L63.9044 41.1854L64.1696 40.9202L63.9044 40.6551ZM63.9045 44.9236C64.4317 44.9235 64.9372 44.714 65.3099 44.3412L64.7795 43.8109C64.5474 44.0431 64.2326 44.1735 63.9043 44.1736L63.9045 44.9236ZM62.4989 44.3412C62.8716 44.714 63.3771 44.9235 63.9043 44.9236L63.9045 44.1736C63.5762 44.1735 63.2614 44.0431 63.0293 43.8109L62.4989 44.3412ZM57.6602 39.5025L62.4989 44.3412L63.0292 43.8109L58.1905 38.9722L57.6602 39.5025ZM57.6602 36.6915C56.8841 37.4678 56.8841 38.7262 57.6602 39.5024L58.1906 38.9722C57.7073 38.4888 57.7073 37.7052 58.1906 37.2218L57.6602 36.6915ZM65.7247 28.627L57.6602 36.6915L58.1905 37.2218L66.255 29.1573L65.7247 28.627ZM68.5356 28.627C67.7594 27.8509 66.501 27.8509 65.7248 28.627L66.255 29.1574C66.7384 28.6741 67.522 28.6741 68.0054 29.1574L68.5356 28.627ZM73.3744 33.4657L68.5357 28.627L68.0054 29.1573L72.8441 33.996L73.3744 33.4657ZM73.3744 36.2766C74.1505 35.5004 74.1505 34.242 73.3744 33.4657L72.844 33.996C73.3273 34.4794 73.3273 35.263 72.844 35.7464L73.3744 36.2766ZM65.3099 44.3412L73.3744 36.2767L72.8441 35.7463L64.7796 43.8109L65.3099 44.3412ZM66.865 32.5783L69.4231 35.1364L69.9534 34.606L67.3954 32.048L66.865 32.5783ZM61.6115 38.3622L67.3954 32.5783L66.865 32.048L61.0812 37.8318L61.6115 38.3622ZM64.1696 40.3899L61.6115 37.8318L61.0812 38.3622L63.6392 40.9202L64.1696 40.3899ZM69.4231 34.606L63.6392 40.3899L64.1696 40.9202L69.9534 35.1364L69.4231 34.606Z" fill="white"/>
<path d="M63.9044 44.5486L63.9043 44.9236H63.9045L63.9044 44.5486ZM65.0447 44.076L64.7796 43.8109L64.7795 43.8109L65.0447 44.076ZM62.7641 44.076L63.0293 43.8109L63.0292 43.8109L62.7641 44.076ZM57.9254 39.2373L57.6602 39.5024L57.6602 39.5025L57.9254 39.2373ZM57.9254 36.9567L57.6602 36.6915L57.6602 36.6915L57.9254 36.9567ZM65.9899 28.8922L65.7248 28.627L65.7247 28.627L65.9899 28.8922ZM68.2705 28.8922L68.5357 28.627L68.5356 28.627L68.2705 28.8922ZM73.1092 33.7309L73.3744 33.4657L73.3744 33.4657L73.1092 33.7309ZM73.1092 36.0115L73.3744 36.2767L73.3744 36.2766L73.1092 36.0115ZM67.1302 32.3131L67.3954 32.048L67.1302 31.7828L66.865 32.048L67.1302 32.3131ZM69.6883 34.8712L69.9534 35.1364L70.2186 34.8712L69.9534 34.606L69.6883 34.8712ZM61.3463 38.097L61.0812 37.8318L60.816 38.097L61.0812 38.3622L61.3463 38.097ZM63.9044 40.6551L63.6392 40.9202L63.9044 41.1854L64.1696 40.9202L63.9044 40.6551ZM63.9045 44.9236C64.4317 44.9235 64.9372 44.714 65.3099 44.3412L64.7795 43.8109C64.5474 44.0431 64.2326 44.1735 63.9043 44.1736L63.9045 44.9236ZM62.4989 44.3412C62.8716 44.714 63.3771 44.9235 63.9043 44.9236L63.9045 44.1736C63.5762 44.1735 63.2614 44.0431 63.0293 43.8109L62.4989 44.3412ZM57.6602 39.5025L62.4989 44.3412L63.0292 43.8109L58.1905 38.9722L57.6602 39.5025ZM57.6602 36.6915C56.8841 37.4678 56.8841 38.7262 57.6602 39.5024L58.1906 38.9722C57.7073 38.4888 57.7073 37.7052 58.1906 37.2218L57.6602 36.6915ZM65.7247 28.627L57.6602 36.6915L58.1905 37.2218L66.255 29.1573L65.7247 28.627ZM68.5356 28.627C67.7594 27.8509 66.501 27.8509 65.7248 28.627L66.255 29.1574C66.7384 28.6741 67.522 28.6741 68.0054 29.1574L68.5356 28.627ZM73.3744 33.4657L68.5357 28.627L68.0054 29.1573L72.8441 33.996L73.3744 33.4657ZM73.3744 36.2766C74.1505 35.5004 74.1505 34.242 73.3744 33.4657L72.844 33.996C73.3273 34.4794 73.3273 35.263 72.844 35.7464L73.3744 36.2766ZM65.3099 44.3412L73.3744 36.2767L72.8441 35.7463L64.7796 43.8109L65.3099 44.3412ZM66.865 32.5783L69.4231 35.1364L69.9534 34.606L67.3954 32.048L66.865 32.5783ZM61.6115 38.3622L67.3954 32.5783L66.865 32.048L61.0812 37.8318L61.6115 38.3622ZM64.1696 40.3899L61.6115 37.8318L61.0812 38.3622L63.6392 40.9202L64.1696 40.3899ZM69.4231 34.606L63.6392 40.3899L64.1696 40.9202L69.9534 35.1364L69.4231 34.606Z" fill="#007AFF" fill-opacity="0.04"/>
<path fill-rule="evenodd" clip-rule="evenodd" d="M1 51C1 23.3858 23.3858 1 51 1C78.601 1.032 100.968 23.399 101 51C101 78.6142 78.6142 101 51 101C23.3858 101 1 78.6142 1 51ZM95.5806 36.8484L65.1516 6.41935C79.6168 11.0477 90.9523 22.3832 95.5806 36.8484ZM88.0968 51C88.1234 58.6141 85.782 66.0481 81.3968 72.2726L72.0242 62.9016L87.8726 47.0532C88.0167 48.364 88.0915 49.6814 88.0968 51ZM67.4629 58.3403L69.7435 60.621L92.2677 38.0968L63.9032 9.73226L41.379 32.2565L43.6597 34.5371L62.7629 15.4355C63.3927 14.8058 64.4137 14.8058 65.0435 15.4355L86.5645 36.9565C87.1942 37.5863 87.1942 38.6073 86.5645 39.2371L67.4629 58.3403ZM52.1774 43.0548C55.6821 43.5723 58.4341 46.3244 58.9516 49.829L52.1774 43.0548ZM49.0274 39.9032C49.6781 39.7814 50.3381 39.7167 51 39.7097C54.3485 39.6791 57.5346 41.1499 59.6834 43.7182C61.8322 46.2864 62.7177 49.6821 62.0968 52.9726L65.1823 56.0581L83.1436 38.0968L63.9032 18.8565L45.9419 36.8177L49.0274 39.9032ZM29.7274 20.6032C35.9519 16.218 43.3859 13.8766 51 13.9032C52.3186 13.9085 53.636 13.9833 54.9468 14.1274L39.0984 29.9758L29.7274 20.6032ZM6.41935 65.1516L36.8484 95.5806C22.3832 90.9523 11.0477 79.6168 6.41935 65.1516ZM13.9032 51C13.8764 43.3857 16.2185 35.9515 20.6048 29.7274L29.9758 39.0984L14.1274 54.9468C13.9833 53.636 13.9085 52.3186 13.9032 51ZM34.5371 43.6597L32.2565 41.379L9.73226 63.9032L38.0968 92.2677L60.621 69.7435L58.3403 67.4629L39.2371 86.5645C38.6073 87.1942 37.5863 87.1942 36.9565 86.5645L15.4355 65.0435C14.8058 64.4137 14.8058 63.3927 15.4355 62.7629L34.5371 43.6597ZM49.8226 58.9452C46.3179 58.4277 43.5659 55.6756 43.0484 52.171L49.8226 58.9452ZM52.9726 62.0968C52.322 62.2187 51.6619 62.2834 51 62.2903C47.6515 62.3209 44.4654 60.8501 42.3166 58.2818C40.1678 55.7136 39.2823 52.318 39.9032 49.0274L36.8177 45.9419L18.8565 63.9032L38.0968 83.1436L56.0581 65.1823L52.9726 62.0968ZM72.2726 81.3968C66.0481 85.782 58.6141 88.1234 51 88.0968C49.6814 88.0915 48.364 88.0167 47.0532 87.8726L62.9016 72.0242L72.2726 81.3968ZM38.5387 96.0758C42.5968 97.2018 46.7886 97.7731 51 97.7742C65.6088 97.7823 79.3815 90.9607 88.2281 79.3351C97.0747 67.7095 99.978 52.6167 96.0758 38.5387C96.0089 38.8009 95.8756 39.0414 95.6887 39.2371L90.7387 44.1887C91.124 46.4388 91.3193 48.7172 91.3226 51C91.3538 59.9602 88.3708 68.6707 82.8532 75.7306C82.5692 76.0957 82.1422 76.3212 81.6806 76.35H81.579C81.1513 76.3499 80.7411 76.1799 80.4387 75.8774L26.1226 21.5661C25.7934 21.2389 25.6212 20.7857 25.6499 20.3225C25.6786 19.8593 25.9055 19.4308 26.2726 19.1468C33.3317 13.6299 42.0409 10.6469 51 10.6774C53.2828 10.6807 55.5612 10.876 57.8113 11.2613L62.7629 6.31129C62.9586 6.12438 63.1991 5.99106 63.4613 5.92419C47.228 1.42448 29.8293 6.00635 17.9178 17.9178C6.00635 29.8293 1.42448 47.228 5.92419 63.4613C5.99106 63.1991 6.12438 62.9586 6.31129 62.7629L11.2629 57.8113C10.8763 55.5614 10.6804 53.2829 10.6774 51C10.6469 42.0409 13.6299 33.3317 19.1468 26.2726C19.4311 25.9072 19.8588 25.6816 20.321 25.6532C20.7828 25.6231 21.2351 25.7943 21.5613 26.1226L75.8774 80.4339C76.2066 80.7611 76.3788 81.2143 76.3501 81.6775C76.3214 82.1407 76.0945 82.5692 75.7274 82.8532C68.6683 88.3701 59.9591 91.3531 51 91.3226C48.7172 91.3193 46.4388 91.124 44.1887 90.7387L39.2371 95.6887C39.0414 95.8756 38.8009 96.0089 38.5387 96.0758Z" fill="#007AFF"/>
<path d="M51 1L51.0004 0.625H51V1ZM101 51H101.375V50.9996L101 51ZM95.5806 36.8484L95.3155 37.1135L95.9378 36.7341L95.5806 36.8484ZM65.1516 6.41935L65.2659 6.06219L64.8864 6.68452L65.1516 6.41935ZM81.3968 72.2726L81.1316 72.5378L81.4467 72.8528L81.7033 72.4886L81.3968 72.2726ZM88.0968 51L88.4718 50.9987V50.9985L88.0968 51ZM72.0242 62.9016L71.759 62.6364L71.4938 62.9016L71.759 63.1668L72.0242 62.9016ZM87.8726 47.0532L88.2453 47.0122L88.1599 46.2355L87.6074 46.7881L87.8726 47.0532ZM69.7435 60.621L69.4784 60.8861L69.7435 61.1513L70.0087 60.8861L69.7435 60.621ZM67.4629 58.3403L67.1977 58.0752L66.9326 58.3403L67.1977 58.6055L67.4629 58.3403ZM92.2677 38.0968L92.5329 38.3619L92.7981 38.0968L92.5329 37.8316L92.2677 38.0968ZM63.9032 9.73226L64.1684 9.46709L63.9032 9.20193L63.6381 9.46709L63.9032 9.73226ZM41.379 32.2565L41.1139 31.9913L40.8487 32.2565L41.1139 32.5216L41.379 32.2565ZM43.6597 34.5371L43.3945 34.8023L43.6597 35.0674L43.9248 34.8023L43.6597 34.5371ZM62.7629 15.4355L62.4978 15.1703L62.4977 15.1703L62.7629 15.4355ZM65.0435 15.4355L65.3087 15.1703L65.3087 15.1703L65.0435 15.4355ZM86.5645 36.9565L86.8297 36.6913L86.8297 36.6913L86.5645 36.9565ZM86.5645 39.2371L86.8297 39.5023L86.8297 39.5022L86.5645 39.2371ZM52.1774 43.0548L52.2322 42.6839L51.1105 42.5182L51.9123 43.32L52.1774 43.0548ZM58.9516 49.829L58.6864 50.0942L59.4882 50.896L59.3226 49.7743L58.9516 49.829ZM51 39.7097L50.9966 39.3347L50.996 39.3347L51 39.7097ZM49.0274 39.9032L48.7623 40.1684L48.9021 40.3082L49.0964 40.2718L49.0274 39.9032ZM59.6834 43.7182L59.3958 43.9588L59.6834 43.7182ZM62.0968 52.9726L61.7283 52.903L61.6916 53.0977L61.8316 53.2377L62.0968 52.9726ZM65.1823 56.0581L64.9171 56.3232L65.1823 56.5884L65.4474 56.3232L65.1823 56.0581ZM83.1436 38.0968L83.4087 38.3619L83.6739 38.0968L83.4087 37.8316L83.1436 38.0968ZM63.9032 18.8565L64.1684 18.5913L63.9032 18.3261L63.6381 18.5913L63.9032 18.8565ZM45.9419 36.8177L45.6768 36.5526L45.4116 36.8177L45.6768 37.0829L45.9419 36.8177ZM51 13.9032L51.0015 13.5282L51.0013 13.5282L51 13.9032ZM29.7274 20.6032L29.5114 20.2967L29.1472 20.5533L29.4622 20.8684L29.7274 20.6032ZM54.9468 14.1274L55.2119 14.3926L55.7645 13.8401L54.9878 13.7547L54.9468 14.1274ZM39.0984 29.9758L38.8332 30.2409L39.0984 30.5062L39.3636 30.241L39.0984 29.9758ZM6.41935 65.1516L6.68452 64.8864L6.06219 65.2659L6.41935 65.1516ZM36.8484 95.5806L36.7341 95.9378L37.1135 95.3155L36.8484 95.5806ZM20.6048 29.7274L20.87 29.4623L20.555 29.1472L20.2983 29.5114L20.6048 29.7274ZM13.9032 51L13.5282 51.0013L13.5282 51.0015L13.9032 51ZM29.9758 39.0984L30.241 39.3636L30.5061 39.0984L30.241 38.8332L29.9758 39.0984ZM14.1274 54.9468L13.7547 54.9878L13.8401 55.7645L14.3926 55.2119L14.1274 54.9468ZM32.2565 41.379L32.5216 41.1139L32.2565 40.8487L31.9913 41.1139L32.2565 41.379ZM34.5371 43.6597L34.8023 43.9248L35.0674 43.6597L34.8023 43.3945L34.5371 43.6597ZM9.73226 63.9032L9.46709 63.6381L9.20193 63.9032L9.46709 64.1684L9.73226 63.9032ZM38.0968 92.2677L37.8316 92.5329L38.0968 92.7981L38.3619 92.5329L38.0968 92.2677ZM60.621 69.7435L60.8861 70.0087L61.1513 69.7435L60.8861 69.4784L60.621 69.7435ZM58.3403 67.4629L58.6055 67.1977L58.3403 66.9326L58.0752 67.1977L58.3403 67.4629ZM39.2371 86.5645L39.5022 86.8297L39.5023 86.8297L39.2371 86.5645ZM36.9565 86.5645L36.6913 86.8297L36.6913 86.8297L36.9565 86.5645ZM15.4355 65.0435L15.1703 65.3087L15.1703 65.3087L15.4355 65.0435ZM15.4355 62.7629L15.1703 62.4977L15.1703 62.4978L15.4355 62.7629ZM49.8226 58.9452L49.7678 59.3161L50.8895 59.4818L50.0877 58.68L49.8226 58.9452ZM43.0484 52.171L43.3135 51.9058L42.5118 51.104L42.6774 52.2257L43.0484 52.171ZM51 62.2903L51.0034 62.6653L51.0039 62.6653L51 62.2903ZM52.9726 62.0968L53.2377 61.8316L53.0979 61.6918L52.9035 61.7282L52.9726 62.0968ZM42.3166 58.2818L42.6042 58.0412L42.3166 58.2818ZM39.9032 49.0274L40.2717 49.097L40.3084 48.9023L40.1684 48.7623L39.9032 49.0274ZM36.8177 45.9419L37.0829 45.6768L36.8177 45.4116L36.5526 45.6768L36.8177 45.9419ZM18.8565 63.9032L18.5913 63.6381L18.3261 63.9032L18.5913 64.1684L18.8565 63.9032ZM38.0968 83.1436L37.8316 83.4087L38.0968 83.6739L38.3619 83.4087L38.0968 83.1436ZM56.0581 65.1823L56.3232 65.4474L56.5884 65.1823L56.3232 64.9171L56.0581 65.1823ZM51 88.0968L50.9985 88.4718H50.9987L51 88.0968ZM72.2726 81.3968L72.4886 81.7033L72.8528 81.4467L72.5378 81.1316L72.2726 81.3968ZM47.0532 87.8726L46.7881 87.6074L46.2355 88.1599L47.0122 88.2453L47.0532 87.8726ZM62.9016 72.0242L63.1668 71.759L62.9016 71.4938L62.6364 71.759L62.9016 72.0242ZM51 97.7742L51.0002 97.3992H51.0001L51 97.7742ZM38.5387 96.0758L38.446 95.7124L37.0811 96.0605L38.4384 96.4372L38.5387 96.0758ZM88.2281 79.3351L88.5265 79.5622L88.2281 79.3351ZM96.0758 38.5387L96.4372 38.4385L96.0607 37.0803L95.7124 38.446L96.0758 38.5387ZM95.6887 39.2371L95.954 39.5023L95.9599 39.4961L95.6887 39.2371ZM90.7387 44.1887L90.4735 43.9236L90.3363 44.0608L90.3691 44.252L90.7387 44.1887ZM91.3226 51L90.9476 51.0005V51.0013L91.3226 51ZM82.8532 75.7306L82.5578 75.4997L82.5573 75.5004L82.8532 75.7306ZM81.6806 76.35V76.725H81.6923L81.704 76.7243L81.6806 76.35ZM81.579 76.35L81.5789 76.725H81.579V76.35ZM80.4387 75.8774L80.7039 75.6123L80.7039 75.6122L80.4387 75.8774ZM26.1226 21.5661L26.3877 21.301L26.387 21.3002L26.1226 21.5661ZM26.2726 19.1468L26.5021 19.4433L26.5035 19.4422L26.2726 19.1468ZM51 10.6774L50.9987 11.0524L50.9995 11.0524L51 10.6774ZM57.8113 11.2613L57.748 11.6309L57.9392 11.6637L58.0764 11.5265L57.8113 11.2613ZM62.7629 6.31129L62.5038 6.04006L62.4978 6.04608L62.7629 6.31129ZM63.4613 5.92419L63.554 6.28756L64.9196 5.93929L63.5615 5.56282L63.4613 5.92419ZM17.9178 17.9178L17.6526 17.6526L17.9178 17.9178ZM5.92419 63.4613L5.56282 63.5615L5.93929 64.9196L6.28756 63.554L5.92419 63.4613ZM6.31129 62.7629L6.04606 62.4977L6.04013 62.5039L6.31129 62.7629ZM11.2629 57.8113L11.5281 58.0765L11.6654 57.9392L11.6325 57.7478L11.2629 57.8113ZM10.6774 51L11.0524 50.9995L11.0524 50.9987L10.6774 51ZM19.1468 26.2726L19.4422 26.5035L19.4427 26.5029L19.1468 26.2726ZM20.321 25.6532L20.3439 26.0275L20.3454 26.0274L20.321 25.6532ZM21.5613 26.1226L21.2953 26.3869L21.2961 26.3878L21.5613 26.1226ZM75.8774 80.4339L75.6123 80.6991L75.613 80.6998L75.8774 80.4339ZM76.3501 81.6775L76.7244 81.7007V81.7007L76.3501 81.6775ZM75.7274 82.8532L75.4979 82.5567L75.4965 82.5578L75.7274 82.8532ZM51 91.3226L51.0013 90.9476H51.0005L51 91.3226ZM44.1887 90.7387L44.252 90.3691L44.0608 90.3363L43.9236 90.4735L44.1887 90.7387ZM39.2371 95.6887L39.4962 95.9599L39.5022 95.9539L39.2371 95.6887ZM51 0.625C23.1787 0.625 0.625 23.1787 0.625 51H1.375C1.375 23.5929 23.5929 1.375 51 1.375V0.625ZM101.375 50.9996C101.343 23.1918 78.8082 0.657237 51.0004 0.625L50.9996 1.375C78.3938 1.40676 100.593 23.6062 100.625 51.0004L101.375 50.9996ZM51 101.375C78.8213 101.375 101.375 78.8213 101.375 51H100.625C100.625 78.4071 78.4071 100.625 51 100.625V101.375ZM0.625 51C0.625 78.8213 23.1787 101.375 51 101.375V100.625C23.5929 100.625 1.375 78.4071 1.375 51H0.625ZM95.8458 36.5832L65.4168 6.15419L64.8864 6.68452L95.3155 37.1135L95.8458 36.5832ZM65.0373 6.77652C79.3871 11.3679 90.6321 22.6129 95.2235 36.9627L95.9378 36.7341C91.2726 22.1534 79.8466 10.7274 65.2659 6.06219L65.0373 6.77652ZM81.7033 72.4886C86.1334 66.2005 88.4987 58.6905 88.4718 50.9987L87.7218 51.0013C87.7481 58.5376 85.4306 65.8957 81.0902 72.0566L81.7033 72.4886ZM71.759 63.1668L81.1316 72.5378L81.6619 72.0074L72.2893 62.6364L71.759 63.1668ZM87.6074 46.7881L71.759 62.6364L72.2894 63.1668L88.1377 47.3184L87.6074 46.7881ZM88.4718 50.9985C88.4665 49.6667 88.3909 48.3361 88.2453 47.0122L87.4998 47.0942C87.6425 48.3918 87.7166 49.6961 87.7218 51.0015L88.4718 50.9985ZM70.0087 60.3558L67.7281 58.0752L67.1977 58.6055L69.4784 60.8861L70.0087 60.3558ZM92.0026 37.8316L69.4784 60.3558L70.0087 60.8861L92.5329 38.3619L92.0026 37.8316ZM63.6381 9.99742L92.0026 38.3619L92.5329 37.8316L64.1684 9.46709L63.6381 9.99742ZM41.6442 32.5216L64.1684 9.99742L63.6381 9.46709L41.1139 31.9913L41.6442 32.5216ZM43.9248 34.2719L41.6442 31.9913L41.1139 32.5216L43.3945 34.8023L43.9248 34.2719ZM62.4977 15.1703L43.3945 34.2719L43.9248 34.8023L63.0281 15.7007L62.4977 15.1703ZM65.3087 15.1703C64.5324 14.3942 63.2741 14.3942 62.4978 15.1703L63.028 15.7007C63.5114 15.2174 64.295 15.2174 64.7784 15.7007L65.3087 15.1703ZM86.8297 36.6913L65.3087 15.1703L64.7784 15.7006L86.2993 37.2216L86.8297 36.6913ZM86.8297 39.5022C87.6058 38.7259 87.6058 37.4676 86.8297 36.6913L86.2993 37.2216C86.7826 37.705 86.7826 38.4886 86.2993 38.972L86.8297 39.5022ZM67.7281 58.6055L86.8297 39.5023L86.2993 38.9719L67.1977 58.0752L67.7281 58.6055ZM52.1226 43.4258C55.4637 43.9191 58.0873 46.5427 58.5806 49.8838L59.3226 49.7743C58.781 46.106 55.9005 43.2255 52.2322 42.6839L52.1226 43.4258ZM59.2168 49.5639L52.4426 42.7897L51.9123 43.32L58.6864 50.0942L59.2168 49.5639ZM50.996 39.3347C50.3123 39.3419 49.6305 39.4088 48.9584 39.5346L49.0964 40.2718C49.7256 40.154 50.3639 40.0914 51.004 40.0847L50.996 39.3347ZM59.971 43.4775C57.7502 40.8232 54.4573 39.3031 50.9966 39.3347L51.0034 40.0847C54.2397 40.0551 57.319 41.4766 59.3958 43.9588L59.971 43.4775ZM62.4653 53.0421C63.107 49.6413 62.1918 46.1318 59.971 43.4775L59.3958 43.9588C61.4725 46.441 62.3284 49.7228 61.7283 52.903L62.4653 53.0421ZM65.4474 55.7929L62.3619 52.7074L61.8316 53.2377L64.9171 56.3232L65.4474 55.7929ZM82.8784 37.8316L64.9171 55.7929L65.4474 56.3232L83.4087 38.3619L82.8784 37.8316ZM63.6381 19.1216L82.8784 38.3619L83.4087 37.8316L64.1684 18.5913L63.6381 19.1216ZM46.2071 37.0829L64.1684 19.1216L63.6381 18.5913L45.6768 36.5526L46.2071 37.0829ZM49.2926 39.6381L46.2071 36.5526L45.6768 37.0829L48.7623 40.1684L49.2926 39.6381ZM51.0013 13.5282C43.3095 13.5013 35.7995 15.8666 29.5114 20.2967L29.9434 20.9098C36.1043 16.5694 43.4624 14.2519 50.9987 14.2782L51.0013 13.5282ZM54.9878 13.7547C53.6639 13.6091 52.3333 13.5335 51.0015 13.5282L50.9985 14.2782C52.3039 14.2834 53.6082 14.3575 54.9058 14.5002L54.9878 13.7547ZM39.3636 30.241L55.2119 14.3926L54.6816 13.8623L38.8332 29.7106L39.3636 30.241ZM29.4622 20.8684L38.8332 30.2409L39.3636 29.7107L29.9926 20.3381L29.4622 20.8684ZM6.15419 65.4168L36.5832 95.8458L37.1135 95.3155L6.68452 64.8864L6.15419 65.4168ZM36.9627 95.2235C22.6129 90.6321 11.3679 79.3871 6.77652 65.0373L6.06219 65.2659C10.7274 79.8466 22.1534 91.2726 36.7341 95.9378L36.9627 95.2235ZM20.2983 29.5114C15.8671 35.799 13.5012 43.3092 13.5282 51.0013L14.2782 50.9987C14.2517 43.4621 16.5698 36.1039 20.9114 29.9434L20.2983 29.5114ZM30.241 38.8332L20.87 29.4623L20.3397 29.9926L29.7106 39.3636L30.241 38.8332ZM14.3926 55.2119L30.241 39.3636L29.7106 38.8332L13.8623 54.6816L14.3926 55.2119ZM13.5282 51.0015C13.5335 52.3333 13.6091 53.6639 13.7547 54.9878L14.5002 54.9058C14.3575 53.6082 14.2834 52.3039 14.2782 50.9985L13.5282 51.0015ZM31.9913 41.6442L34.2719 43.9248L34.8023 43.3945L32.5216 41.1139L31.9913 41.6442ZM9.99742 64.1684L32.5216 41.6442L31.9913 41.1139L9.46709 63.6381L9.99742 64.1684ZM38.3619 92.0026L9.99742 63.6381L9.46709 64.1684L37.8316 92.5329L38.3619 92.0026ZM60.3558 69.4784L37.8316 92.0026L38.3619 92.5329L60.8861 70.0087L60.3558 69.4784ZM58.0752 67.7281L60.3558 70.0087L60.8861 69.4784L58.6055 67.1977L58.0752 67.7281ZM39.5023 86.8297L58.6055 67.7281L58.0752 67.1977L38.9719 86.2993L39.5023 86.8297ZM36.6913 86.8297C37.4676 87.6058 38.7259 87.6058 39.5022 86.8297L38.972 86.2993C38.4886 86.7826 37.705 86.7826 37.2216 86.2993L36.6913 86.8297ZM15.1703 65.3087L36.6913 86.8297L37.2216 86.2993L15.7006 64.7784L15.1703 65.3087ZM15.1703 62.4978C14.3942 63.2741 14.3942 64.5324 15.1703 65.3087L15.7007 64.7784C15.2174 64.295 15.2174 63.5114 15.7007 63.028L15.1703 62.4978ZM34.2719 43.3945L15.1703 62.4977L15.7007 63.0281L34.8023 43.9248L34.2719 43.3945ZM49.8774 58.5742C46.5363 58.0809 43.9127 55.4573 43.4194 52.1162L42.6774 52.2257C43.219 55.894 46.0995 58.7745 49.7678 59.3161L49.8774 58.5742ZM42.7832 52.4361L49.5574 59.2103L50.0877 58.68L43.3135 51.9058L42.7832 52.4361ZM51.0039 62.6653C51.6877 62.6582 52.3695 62.5913 53.0416 62.4654L52.9035 61.7282C52.2744 61.8461 51.6361 61.9087 50.9961 61.9153L51.0039 62.6653ZM42.029 58.5225C44.2498 61.1768 47.5427 62.6969 51.0034 62.6653L50.9966 61.9153C47.7603 61.9449 44.681 60.5234 42.6042 58.0412L42.029 58.5225ZM39.5347 48.9579C38.893 52.3587 39.8082 55.8682 42.029 58.5225L42.6042 58.0412C40.5275 55.559 39.6716 52.2772 40.2717 49.097L39.5347 48.9579ZM36.5526 46.2071L39.6381 49.2926L40.1684 48.7623L37.0829 45.6768L36.5526 46.2071ZM19.1216 64.1684L37.0829 46.2071L36.5526 45.6768L18.5913 63.6381L19.1216 64.1684ZM38.3619 82.8784L19.1216 63.6381L18.5913 64.1684L37.8316 83.4087L38.3619 82.8784ZM55.7929 64.9171L37.8316 82.8784L38.3619 83.4087L56.3232 65.4474L55.7929 64.9171ZM52.7074 62.3619L55.7929 65.4474L56.3232 64.9171L53.2377 61.8316L52.7074 62.3619ZM50.9987 88.4718C58.6905 88.4987 66.2005 86.1334 72.4886 81.7033L72.0566 81.0902C65.8957 85.4306 58.5376 87.7481 51.0013 87.7218L50.9987 88.4718ZM47.0122 88.2453C48.3361 88.3909 49.6667 88.4665 50.9985 88.4718L51.0015 87.7218C49.6961 87.7166 48.3918 87.6425 47.0942 87.4998L47.0122 88.2453ZM62.6364 71.759L46.7881 87.6074L47.3184 88.1377L63.1668 72.2894L62.6364 71.759ZM72.5378 81.1316L63.1668 71.759L62.6364 72.2893L72.0074 81.6619L72.5378 81.1316ZM51.0001 97.3992C46.8226 97.3981 42.6644 96.8314 38.639 95.7145L38.4384 96.4372C42.5291 97.5722 46.7547 98.1481 50.9999 98.1492L51.0001 97.3992ZM87.9297 79.108C79.154 90.6404 65.4918 97.4072 51.0002 97.3992L50.9998 98.1492C65.7258 98.1574 79.6089 91.2811 88.5265 79.5622L87.9297 79.108ZM95.7144 38.6389C99.5853 52.6039 96.7053 67.5757 87.9297 79.108L88.5265 79.5622C97.4441 67.8433 100.371 52.6295 96.4372 38.4385L95.7144 38.6389ZM95.9599 39.4961C96.1913 39.2539 96.3564 38.956 96.4392 38.6314L95.7124 38.446C95.6615 38.6458 95.5599 38.829 95.4176 38.9781L95.9599 39.4961ZM91.0039 44.4538L95.9539 39.5022L95.4235 38.972L90.4735 43.9236L91.0039 44.4538ZM91.6976 50.9995C91.6943 48.6956 91.4971 46.3962 91.1083 44.1254L90.3691 44.252C90.7508 46.4813 90.9443 48.7388 90.9476 51.0005L91.6976 50.9995ZM83.1487 75.9616C88.7181 68.8353 91.7291 60.0431 91.6976 50.9987L90.9476 51.0013C90.9785 59.8774 88.0235 68.506 82.5578 75.4997L83.1487 75.9616ZM81.704 76.7243C82.2729 76.6888 82.7992 76.4108 83.1492 75.9609L82.5573 75.5004C82.3393 75.7805 82.0116 75.9536 81.6573 75.9757L81.704 76.7243ZM81.579 76.725H81.6806V75.975H81.579V76.725ZM80.1735 76.1425C80.5462 76.5154 81.0518 76.7249 81.5789 76.725L81.5791 75.975C81.2508 75.9749 80.936 75.8445 80.7039 75.6123L80.1735 76.1425ZM25.8574 21.8313L80.1736 76.1426L80.7039 75.6122L26.3877 21.301L25.8574 21.8313ZM25.2756 20.2993C25.2402 20.8702 25.4525 21.4288 25.8582 21.8321L26.387 21.3002C26.1343 21.049 26.0022 20.7012 26.0242 20.3457L25.2756 20.2993ZM26.0431 18.8502C25.5907 19.2003 25.311 19.7283 25.2756 20.2993L26.0242 20.3457C26.0462 19.9902 26.2204 19.6614 26.5021 19.4433L26.0431 18.8502ZM51.0013 10.3024C41.958 10.2716 33.1671 13.2826 26.0417 18.8513L26.5035 19.4422C33.4963 13.9772 42.1237 11.0222 50.9987 11.0524L51.0013 10.3024ZM57.8746 10.8917C55.6038 10.5028 53.3044 10.3057 51.0005 10.3024L50.9995 11.0524C53.2612 11.0557 55.5187 11.2492 57.748 11.6309L57.8746 10.8917ZM62.4978 6.04608L57.5462 10.9961L58.0764 11.5265L63.028 6.5765L62.4978 6.04608ZM63.3686 5.56082C63.044 5.64362 62.7461 5.8087 62.5039 6.04013L63.0219 6.58245C63.171 6.44006 63.3542 6.3385 63.554 6.28756L63.3686 5.56082ZM18.183 18.183C29.9989 6.36706 47.2581 1.82195 63.3611 6.28557L63.5615 5.56282C47.198 1.02701 29.6597 5.64563 17.6526 17.6526L18.183 18.183ZM6.28557 63.3611C1.82195 47.2581 6.36706 29.9989 18.183 18.183L17.6526 17.6526C5.64563 29.6597 1.02701 47.198 5.56282 63.5615L6.28557 63.3611ZM6.04013 62.5039C5.8087 62.7461 5.64362 63.044 5.56082 63.3686L6.28756 63.554C6.3385 63.3542 6.44006 63.171 6.58245 63.0219L6.04013 62.5039ZM10.9977 57.5461L6.04613 62.4977L6.57646 63.0281L11.5281 58.0765L10.9977 57.5461ZM10.3024 51.0005C10.3055 53.3045 10.5031 55.6041 10.8933 57.8748L11.6325 57.7478C11.2495 55.5187 11.0554 53.2613 11.0524 50.9995L10.3024 51.0005ZM18.8513 26.0417C13.2826 33.1671 10.2716 41.958 10.3024 51.0013L11.0524 50.9987C11.0222 42.1237 13.9772 33.4963 19.4422 26.5035L18.8513 26.0417ZM20.298 25.2789C19.7284 25.3139 19.2013 25.5919 18.8508 26.0423L19.4427 26.5029C19.661 26.2224 19.9892 26.0493 20.3439 26.0275L20.298 25.2789ZM21.8273 25.8583C21.4247 25.4531 20.8665 25.2419 20.2966 25.279L20.3454 26.0274C20.6991 26.0044 21.0454 26.1355 21.2953 26.3869L21.8273 25.8583ZM76.1426 80.1687L21.8264 25.8574L21.2961 26.3878L75.6123 80.6991L76.1426 80.1687ZM76.7244 81.7007C76.7598 81.1298 76.5475 80.5712 76.1418 80.1679L75.613 80.6998C75.8656 80.951 75.9978 81.2988 75.9758 81.6543L76.7244 81.7007ZM75.9569 83.1498C76.4093 82.7997 76.6889 82.2717 76.7244 81.7007L75.9758 81.6543C75.9538 82.0098 75.7796 82.3386 75.4979 82.5567L75.9569 83.1498ZM50.9987 91.6976C60.042 91.7284 68.8329 88.7174 75.9583 83.1487L75.4965 82.5578C68.5037 88.0228 59.8763 90.9778 51.0013 90.9476L50.9987 91.6976ZM44.1254 91.1083C46.3962 91.4971 48.6956 91.6943 50.9995 91.6976L51.0005 90.9476C48.7388 90.9443 46.4813 90.7508 44.252 90.3691L44.1254 91.1083ZM39.5022 95.9539L44.4538 91.0039L43.9236 90.4735L38.972 95.4235L39.5022 95.9539ZM38.6314 96.4392C38.956 96.3564 39.2539 96.1913 39.4961 95.9599L38.9781 95.4176C38.829 95.5599 38.6458 95.6615 38.446 95.7124L38.6314 96.4392Z" fill="white"/>
<path d="M51 1L51.0004 0.625H51V1ZM101 51H101.375V50.9996L101 51ZM95.5806 36.8484L95.3155 37.1135L95.9378 36.7341L95.5806 36.8484ZM65.1516 6.41935L65.2659 6.06219L64.8864 6.68452L65.1516 6.41935ZM81.3968 72.2726L81.1316 72.5378L81.4467 72.8528L81.7033 72.4886L81.3968 72.2726ZM88.0968 51L88.4718 50.9987V50.9985L88.0968 51ZM72.0242 62.9016L71.759 62.6364L71.4938 62.9016L71.759 63.1668L72.0242 62.9016ZM87.8726 47.0532L88.2453 47.0122L88.1599 46.2355L87.6074 46.7881L87.8726 47.0532ZM69.7435 60.621L69.4784 60.8861L69.7435 61.1513L70.0087 60.8861L69.7435 60.621ZM67.4629 58.3403L67.1977 58.0752L66.9326 58.3403L67.1977 58.6055L67.4629 58.3403ZM92.2677 38.0968L92.5329 38.3619L92.7981 38.0968L92.5329 37.8316L92.2677 38.0968ZM63.9032 9.73226L64.1684 9.46709L63.9032 9.20193L63.6381 9.46709L63.9032 9.73226ZM41.379 32.2565L41.1139 31.9913L40.8487 32.2565L41.1139 32.5216L41.379 32.2565ZM43.6597 34.5371L43.3945 34.8023L43.6597 35.0674L43.9248 34.8023L43.6597 34.5371ZM62.7629 15.4355L62.4978 15.1703L62.4977 15.1703L62.7629 15.4355ZM65.0435 15.4355L65.3087 15.1703L65.3087 15.1703L65.0435 15.4355ZM86.5645 36.9565L86.8297 36.6913L86.8297 36.6913L86.5645 36.9565ZM86.5645 39.2371L86.8297 39.5023L86.8297 39.5022L86.5645 39.2371ZM52.1774 43.0548L52.2322 42.6839L51.1105 42.5182L51.9123 43.32L52.1774 43.0548ZM58.9516 49.829L58.6864 50.0942L59.4882 50.896L59.3226 49.7743L58.9516 49.829ZM51 39.7097L50.9966 39.3347L50.996 39.3347L51 39.7097ZM49.0274 39.9032L48.7623 40.1684L48.9021 40.3082L49.0964 40.2718L49.0274 39.9032ZM59.6834 43.7182L59.3958 43.9588L59.6834 43.7182ZM62.0968 52.9726L61.7283 52.903L61.6916 53.0977L61.8316 53.2377L62.0968 52.9726ZM65.1823 56.0581L64.9171 56.3232L65.1823 56.5884L65.4474 56.3232L65.1823 56.0581ZM83.1436 38.0968L83.4087 38.3619L83.6739 38.0968L83.4087 37.8316L83.1436 38.0968ZM63.9032 18.8565L64.1684 18.5913L63.9032 18.3261L63.6381 18.5913L63.9032 18.8565ZM45.9419 36.8177L45.6768 36.5526L45.4116 36.8177L45.6768 37.0829L45.9419 36.8177ZM51 13.9032L51.0015 13.5282L51.0013 13.5282L51 13.9032ZM29.7274 20.6032L29.5114 20.2967L29.1472 20.5533L29.4622 20.8684L29.7274 20.6032ZM54.9468 14.1274L55.2119 14.3926L55.7645 13.8401L54.9878 13.7547L54.9468 14.1274ZM39.0984 29.9758L38.8332 30.2409L39.0984 30.5062L39.3636 30.241L39.0984 29.9758ZM6.41935 65.1516L6.68452 64.8864L6.06219 65.2659L6.41935 65.1516ZM36.8484 95.5806L36.7341 95.9378L37.1135 95.3155L36.8484 95.5806ZM20.6048 29.7274L20.87 29.4623L20.555 29.1472L20.2983 29.5114L20.6048 29.7274ZM13.9032 51L13.5282 51.0013L13.5282 51.0015L13.9032 51ZM29.9758 39.0984L30.241 39.3636L30.5061 39.0984L30.241 38.8332L29.9758 39.0984ZM14.1274 54.9468L13.7547 54.9878L13.8401 55.7645L14.3926 55.2119L14.1274 54.9468ZM32.2565 41.379L32.5216 41.1139L32.2565 40.8487L31.9913 41.1139L32.2565 41.379ZM34.5371 43.6597L34.8023 43.9248L35.0674 43.6597L34.8023 43.3945L34.5371 43.6597ZM9.73226 63.9032L9.46709 63.6381L9.20193 63.9032L9.46709 64.1684L9.73226 63.9032ZM38.0968 92.2677L37.8316 92.5329L38.0968 92.7981L38.3619 92.5329L38.0968 92.2677ZM60.621 69.7435L60.8861 70.0087L61.1513 69.7435L60.8861 69.4784L60.621 69.7435ZM58.3403 67.4629L58.6055 67.1977L58.3403 66.9326L58.0752 67.1977L58.3403 67.4629ZM39.2371 86.5645L39.5022 86.8297L39.5023 86.8297L39.2371 86.5645ZM36.9565 86.5645L36.6913 86.8297L36.6913 86.8297L36.9565 86.5645ZM15.4355 65.0435L15.1703 65.3087L15.1703 65.3087L15.4355 65.0435ZM15.4355 62.7629L15.1703 62.4977L15.1703 62.4978L15.4355 62.7629ZM49.8226 58.9452L49.7678 59.3161L50.8895 59.4818L50.0877 58.68L49.8226 58.9452ZM43.0484 52.171L43.3135 51.9058L42.5118 51.104L42.6774 52.2257L43.0484 52.171ZM51 62.2903L51.0034 62.6653L51.0039 62.6653L51 62.2903ZM52.9726 62.0968L53.2377 61.8316L53.0979 61.6918L52.9035 61.7282L52.9726 62.0968ZM42.3166 58.2818L42.6042 58.0412L42.3166 58.2818ZM39.9032 49.0274L40.2717 49.097L40.3084 48.9023L40.1684 48.7623L39.9032 49.0274ZM36.8177 45.9419L37.0829 45.6768L36.8177 45.4116L36.5526 45.6768L36.8177 45.9419ZM18.8565 63.9032L18.5913 63.6381L18.3261 63.9032L18.5913 64.1684L18.8565 63.9032ZM38.0968 83.1436L37.8316 83.4087L38.0968 83.6739L38.3619 83.4087L38.0968 83.1436ZM56.0581 65.1823L56.3232 65.4474L56.5884 65.1823L56.3232 64.9171L56.0581 65.1823ZM51 88.0968L50.9985 88.4718H50.9987L51 88.0968ZM72.2726 81.3968L72.4886 81.7033L72.8528 81.4467L72.5378 81.1316L72.2726 81.3968ZM47.0532 87.8726L46.7881 87.6074L46.2355 88.1599L47.0122 88.2453L47.0532 87.8726ZM62.9016 72.0242L63.1668 71.759L62.9016 71.4938L62.6364 71.759L62.9016 72.0242ZM51 97.7742L51.0002 97.3992H51.0001L51 97.7742ZM38.5387 96.0758L38.446 95.7124L37.0811 96.0605L38.4384 96.4372L38.5387 96.0758ZM88.2281 79.3351L88.5265 79.5622L88.2281 79.3351ZM96.0758 38.5387L96.4372 38.4385L96.0607 37.0803L95.7124 38.446L96.0758 38.5387ZM95.6887 39.2371L95.954 39.5023L95.9599 39.4961L95.6887 39.2371ZM90.7387 44.1887L90.4735 43.9236L90.3363 44.0608L90.3691 44.252L90.7387 44.1887ZM91.3226 51L90.9476 51.0005V51.0013L91.3226 51ZM82.8532 75.7306L82.5578 75.4997L82.5573 75.5004L82.8532 75.7306ZM81.6806 76.35V76.725H81.6923L81.704 76.7243L81.6806 76.35ZM81.579 76.35L81.5789 76.725H81.579V76.35ZM80.4387 75.8774L80.7039 75.6123L80.7039 75.6122L80.4387 75.8774ZM26.1226 21.5661L26.3877 21.301L26.387 21.3002L26.1226 21.5661ZM26.2726 19.1468L26.5021 19.4433L26.5035 19.4422L26.2726 19.1468ZM51 10.6774L50.9987 11.0524L50.9995 11.0524L51 10.6774ZM57.8113 11.2613L57.748 11.6309L57.9392 11.6637L58.0764 11.5265L57.8113 11.2613ZM62.7629 6.31129L62.5038 6.04006L62.4978 6.04608L62.7629 6.31129ZM63.4613 5.92419L63.554 6.28756L64.9196 5.93929L63.5615 5.56282L63.4613 5.92419ZM17.9178 17.9178L17.6526 17.6526L17.9178 17.9178ZM5.92419 63.4613L5.56282 63.5615L5.93929 64.9196L6.28756 63.554L5.92419 63.4613ZM6.31129 62.7629L6.04606 62.4977L6.04013 62.5039L6.31129 62.7629ZM11.2629 57.8113L11.5281 58.0765L11.6654 57.9392L11.6325 57.7478L11.2629 57.8113ZM10.6774 51L11.0524 50.9995L11.0524 50.9987L10.6774 51ZM19.1468 26.2726L19.4422 26.5035L19.4427 26.5029L19.1468 26.2726ZM20.321 25.6532L20.3439 26.0275L20.3454 26.0274L20.321 25.6532ZM21.5613 26.1226L21.2953 26.3869L21.2961 26.3878L21.5613 26.1226ZM75.8774 80.4339L75.6123 80.6991L75.613 80.6998L75.8774 80.4339ZM76.3501 81.6775L76.7244 81.7007V81.7007L76.3501 81.6775ZM75.7274 82.8532L75.4979 82.5567L75.4965 82.5578L75.7274 82.8532ZM51 91.3226L51.0013 90.9476H51.0005L51 91.3226ZM44.1887 90.7387L44.252 90.3691L44.0608 90.3363L43.9236 90.4735L44.1887 90.7387ZM39.2371 95.6887L39.4962 95.9599L39.5022 95.9539L39.2371 95.6887ZM51 0.625C23.1787 0.625 0.625 23.1787 0.625 51H1.375C1.375 23.5929 23.5929 1.375 51 1.375V0.625ZM101.375 50.9996C101.343 23.1918 78.8082 0.657237 51.0004 0.625L50.9996 1.375C78.3938 1.40676 100.593 23.6062 100.625 51.0004L101.375 50.9996ZM51 101.375C78.8213 101.375 101.375 78.8213 101.375 51H100.625C100.625 78.4071 78.4071 100.625 51 100.625V101.375ZM0.625 51C0.625 78.8213 23.1787 101.375 51 101.375V100.625C23.5929 100.625 1.375 78.4071 1.375 51H0.625ZM95.8458 36.5832L65.4168 6.15419L64.8864 6.68452L95.3155 37.1135L95.8458 36.5832ZM65.0373 6.77652C79.3871 11.3679 90.6321 22.6129 95.2235 36.9627L95.9378 36.7341C91.2726 22.1534 79.8466 10.7274 65.2659 6.06219L65.0373 6.77652ZM81.7033 72.4886C86.1334 66.2005 88.4987 58.6905 88.4718 50.9987L87.7218 51.0013C87.7481 58.5376 85.4306 65.8957 81.0902 72.0566L81.7033 72.4886ZM71.759 63.1668L81.1316 72.5378L81.6619 72.0074L72.2893 62.6364L71.759 63.1668ZM87.6074 46.7881L71.759 62.6364L72.2894 63.1668L88.1377 47.3184L87.6074 46.7881ZM88.4718 50.9985C88.4665 49.6667 88.3909 48.3361 88.2453 47.0122L87.4998 47.0942C87.6425 48.3918 87.7166 49.6961 87.7218 51.0015L88.4718 50.9985ZM70.0087 60.3558L67.7281 58.0752L67.1977 58.6055L69.4784 60.8861L70.0087 60.3558ZM92.0026 37.8316L69.4784 60.3558L70.0087 60.8861L92.5329 38.3619L92.0026 37.8316ZM63.6381 9.99742L92.0026 38.3619L92.5329 37.8316L64.1684 9.46709L63.6381 9.99742ZM41.6442 32.5216L64.1684 9.99742L63.6381 9.46709L41.1139 31.9913L41.6442 32.5216ZM43.9248 34.2719L41.6442 31.9913L41.1139 32.5216L43.3945 34.8023L43.9248 34.2719ZM62.4977 15.1703L43.3945 34.2719L43.9248 34.8023L63.0281 15.7007L62.4977 15.1703ZM65.3087 15.1703C64.5324 14.3942 63.2741 14.3942 62.4978 15.1703L63.028 15.7007C63.5114 15.2174 64.295 15.2174 64.7784 15.7007L65.3087 15.1703ZM86.8297 36.6913L65.3087 15.1703L64.7784 15.7006L86.2993 37.2216L86.8297 36.6913ZM86.8297 39.5022C87.6058 38.7259 87.6058 37.4676 86.8297 36.6913L86.2993 37.2216C86.7826 37.705 86.7826 38.4886 86.2993 38.972L86.8297 39.5022ZM67.7281 58.6055L86.8297 39.5023L86.2993 38.9719L67.1977 58.0752L67.7281 58.6055ZM52.1226 43.4258C55.4637 43.9191 58.0873 46.5427 58.5806 49.8838L59.3226 49.7743C58.781 46.106 55.9005 43.2255 52.2322 42.6839L52.1226 43.4258ZM59.2168 49.5639L52.4426 42.7897L51.9123 43.32L58.6864 50.0942L59.2168 49.5639ZM50.996 39.3347C50.3123 39.3419 49.6305 39.4088 48.9584 39.5346L49.0964 40.2718C49.7256 40.154 50.3639 40.0914 51.004 40.0847L50.996 39.3347ZM59.971 43.4775C57.7502 40.8232 54.4573 39.3031 50.9966 39.3347L51.0034 40.0847C54.2397 40.0551 57.319 41.4766 59.3958 43.9588L59.971 43.4775ZM62.4653 53.0421C63.107 49.6413 62.1918 46.1318 59.971 43.4775L59.3958 43.9588C61.4725 46.441 62.3284 49.7228 61.7283 52.903L62.4653 53.0421ZM65.4474 55.7929L62.3619 52.7074L61.8316 53.2377L64.9171 56.3232L65.4474 55.7929ZM82.8784 37.8316L64.9171 55.7929L65.4474 56.3232L83.4087 38.3619L82.8784 37.8316ZM63.6381 19.1216L82.8784 38.3619L83.4087 37.8316L64.1684 18.5913L63.6381 19.1216ZM46.2071 37.0829L64.1684 19.1216L63.6381 18.5913L45.6768 36.5526L46.2071 37.0829ZM49.2926 39.6381L46.2071 36.5526L45.6768 37.0829L48.7623 40.1684L49.2926 39.6381ZM51.0013 13.5282C43.3095 13.5013 35.7995 15.8666 29.5114 20.2967L29.9434 20.9098C36.1043 16.5694 43.4624 14.2519 50.9987 14.2782L51.0013 13.5282ZM54.9878 13.7547C53.6639 13.6091 52.3333 13.5335 51.0015 13.5282L50.9985 14.2782C52.3039 14.2834 53.6082 14.3575 54.9058 14.5002L54.9878 13.7547ZM39.3636 30.241L55.2119 14.3926L54.6816 13.8623L38.8332 29.7106L39.3636 30.241ZM29.4622 20.8684L38.8332 30.2409L39.3636 29.7107L29.9926 20.3381L29.4622 20.8684ZM6.15419 65.4168L36.5832 95.8458L37.1135 95.3155L6.68452 64.8864L6.15419 65.4168ZM36.9627 95.2235C22.6129 90.6321 11.3679 79.3871 6.77652 65.0373L6.06219 65.2659C10.7274 79.8466 22.1534 91.2726 36.7341 95.9378L36.9627 95.2235ZM20.2983 29.5114C15.8671 35.799 13.5012 43.3092 13.5282 51.0013L14.2782 50.9987C14.2517 43.4621 16.5698 36.1039 20.9114 29.9434L20.2983 29.5114ZM30.241 38.8332L20.87 29.4623L20.3397 29.9926L29.7106 39.3636L30.241 38.8332ZM14.3926 55.2119L30.241 39.3636L29.7106 38.8332L13.8623 54.6816L14.3926 55.2119ZM13.5282 51.0015C13.5335 52.3333 13.6091 53.6639 13.7547 54.9878L14.5002 54.9058C14.3575 53.6082 14.2834 52.3039 14.2782 50.9985L13.5282 51.0015ZM31.9913 41.6442L34.2719 43.9248L34.8023 43.3945L32.5216 41.1139L31.9913 41.6442ZM9.99742 64.1684L32.5216 41.6442L31.9913 41.1139L9.46709 63.6381L9.99742 64.1684ZM38.3619 92.0026L9.99742 63.6381L9.46709 64.1684L37.8316 92.5329L38.3619 92.0026ZM60.3558 69.4784L37.8316 92.0026L38.3619 92.5329L60.8861 70.0087L60.3558 69.4784ZM58.0752 67.7281L60.3558 70.0087L60.8861 69.4784L58.6055 67.1977L58.0752 67.7281ZM39.5023 86.8297L58.6055 67.7281L58.0752 67.1977L38.9719 86.2993L39.5023 86.8297ZM36.6913 86.8297C37.4676 87.6058 38.7259 87.6058 39.5022 86.8297L38.972 86.2993C38.4886 86.7826 37.705 86.7826 37.2216 86.2993L36.6913 86.8297ZM15.1703 65.3087L36.6913 86.8297L37.2216 86.2993L15.7006 64.7784L15.1703 65.3087ZM15.1703 62.4978C14.3942 63.2741 14.3942 64.5324 15.1703 65.3087L15.7007 64.7784C15.2174 64.295 15.2174 63.5114 15.7007 63.028L15.1703 62.4978ZM34.2719 43.3945L15.1703 62.4977L15.7007 63.0281L34.8023 43.9248L34.2719 43.3945ZM49.8774 58.5742C46.5363 58.0809 43.9127 55.4573 43.4194 52.1162L42.6774 52.2257C43.219 55.894 46.0995 58.7745 49.7678 59.3161L49.8774 58.5742ZM42.7832 52.4361L49.5574 59.2103L50.0877 58.68L43.3135 51.9058L42.7832 52.4361ZM51.0039 62.6653C51.6877 62.6582 52.3695 62.5913 53.0416 62.4654L52.9035 61.7282C52.2744 61.8461 51.6361 61.9087 50.9961 61.9153L51.0039 62.6653ZM42.029 58.5225C44.2498 61.1768 47.5427 62.6969 51.0034 62.6653L50.9966 61.9153C47.7603 61.9449 44.681 60.5234 42.6042 58.0412L42.029 58.5225ZM39.5347 48.9579C38.893 52.3587 39.8082 55.8682 42.029 58.5225L42.6042 58.0412C40.5275 55.559 39.6716 52.2772 40.2717 49.097L39.5347 48.9579ZM36.5526 46.2071L39.6381 49.2926L40.1684 48.7623L37.0829 45.6768L36.5526 46.2071ZM19.1216 64.1684L37.0829 46.2071L36.5526 45.6768L18.5913 63.6381L19.1216 64.1684ZM38.3619 82.8784L19.1216 63.6381L18.5913 64.1684L37.8316 83.4087L38.3619 82.8784ZM55.7929 64.9171L37.8316 82.8784L38.3619 83.4087L56.3232 65.4474L55.7929 64.9171ZM52.7074 62.3619L55.7929 65.4474L56.3232 64.9171L53.2377 61.8316L52.7074 62.3619ZM50.9987 88.4718C58.6905 88.4987 66.2005 86.1334 72.4886 81.7033L72.0566 81.0902C65.8957 85.4306 58.5376 87.7481 51.0013 87.7218L50.9987 88.4718ZM47.0122 88.2453C48.3361 88.3909 49.6667 88.4665 50.9985 88.4718L51.0015 87.7218C49.6961 87.7166 48.3918 87.6425 47.0942 87.4998L47.0122 88.2453ZM62.6364 71.759L46.7881 87.6074L47.3184 88.1377L63.1668 72.2894L62.6364 71.759ZM72.5378 81.1316L63.1668 71.759L62.6364 72.2893L72.0074 81.6619L72.5378 81.1316ZM51.0001 97.3992C46.8226 97.3981 42.6644 96.8314 38.639 95.7145L38.4384 96.4372C42.5291 97.5722 46.7547 98.1481 50.9999 98.1492L51.0001 97.3992ZM87.9297 79.108C79.154 90.6404 65.4918 97.4072 51.0002 97.3992L50.9998 98.1492C65.7258 98.1574 79.6089 91.2811 88.5265 79.5622L87.9297 79.108ZM95.7144 38.6389C99.5853 52.6039 96.7053 67.5757 87.9297 79.108L88.5265 79.5622C97.4441 67.8433 100.371 52.6295 96.4372 38.4385L95.7144 38.6389ZM95.9599 39.4961C96.1913 39.2539 96.3564 38.956 96.4392 38.6314L95.7124 38.446C95.6615 38.6458 95.5599 38.829 95.4176 38.9781L95.9599 39.4961ZM91.0039 44.4538L95.9539 39.5022L95.4235 38.972L90.4735 43.9236L91.0039 44.4538ZM91.6976 50.9995C91.6943 48.6956 91.4971 46.3962 91.1083 44.1254L90.3691 44.252C90.7508 46.4813 90.9443 48.7388 90.9476 51.0005L91.6976 50.9995ZM83.1487 75.9616C88.7181 68.8353 91.7291 60.0431 91.6976 50.9987L90.9476 51.0013C90.9785 59.8774 88.0235 68.506 82.5578 75.4997L83.1487 75.9616ZM81.704 76.7243C82.2729 76.6888 82.7992 76.4108 83.1492 75.9609L82.5573 75.5004C82.3393 75.7805 82.0116 75.9536 81.6573 75.9757L81.704 76.7243ZM81.579 76.725H81.6806V75.975H81.579V76.725ZM80.1735 76.1425C80.5462 76.5154 81.0518 76.7249 81.5789 76.725L81.5791 75.975C81.2508 75.9749 80.936 75.8445 80.7039 75.6123L80.1735 76.1425ZM25.8574 21.8313L80.1736 76.1426L80.7039 75.6122L26.3877 21.301L25.8574 21.8313ZM25.2756 20.2993C25.2402 20.8702 25.4525 21.4288 25.8582 21.8321L26.387 21.3002C26.1343 21.049 26.0022 20.7012 26.0242 20.3457L25.2756 20.2993ZM26.0431 18.8502C25.5907 19.2003 25.311 19.7283 25.2756 20.2993L26.0242 20.3457C26.0462 19.9902 26.2204 19.6614 26.5021 19.4433L26.0431 18.8502ZM51.0013 10.3024C41.958 10.2716 33.1671 13.2826 26.0417 18.8513L26.5035 19.4422C33.4963 13.9772 42.1237 11.0222 50.9987 11.0524L51.0013 10.3024ZM57.8746 10.8917C55.6038 10.5028 53.3044 10.3057 51.0005 10.3024L50.9995 11.0524C53.2612 11.0557 55.5187 11.2492 57.748 11.6309L57.8746 10.8917ZM62.4978 6.04608L57.5462 10.9961L58.0764 11.5265L63.028 6.5765L62.4978 6.04608ZM63.3686 5.56082C63.044 5.64362 62.7461 5.8087 62.5039 6.04013L63.0219 6.58245C63.171 6.44006 63.3542 6.3385 63.554 6.28756L63.3686 5.56082ZM18.183 18.183C29.9989 6.36706 47.2581 1.82195 63.3611 6.28557L63.5615 5.56282C47.198 1.02701 29.6597 5.64563 17.6526 17.6526L18.183 18.183ZM6.28557 63.3611C1.82195 47.2581 6.36706 29.9989 18.183 18.183L17.6526 17.6526C5.64563 29.6597 1.02701 47.198 5.56282 63.5615L6.28557 63.3611ZM6.04013 62.5039C5.8087 62.7461 5.64362 63.044 5.56082 63.3686L6.28756 63.554C6.3385 63.3542 6.44006 63.171 6.58245 63.0219L6.04013 62.5039ZM10.9977 57.5461L6.04613 62.4977L6.57646 63.0281L11.5281 58.0765L10.9977 57.5461ZM10.3024 51.0005C10.3055 53.3045 10.5031 55.6041 10.8933 57.8748L11.6325 57.7478C11.2495 55.5187 11.0554 53.2613 11.0524 50.9995L10.3024 51.0005ZM18.8513 26.0417C13.2826 33.1671 10.2716 41.958 10.3024 51.0013L11.0524 50.9987C11.0222 42.1237 13.9772 33.4963 19.4422 26.5035L18.8513 26.0417ZM20.298 25.2789C19.7284 25.3139 19.2013 25.5919 18.8508 26.0423L19.4427 26.5029C19.661 26.2224 19.9892 26.0493 20.3439 26.0275L20.298 25.2789ZM21.8273 25.8583C21.4247 25.4531 20.8665 25.2419 20.2966 25.279L20.3454 26.0274C20.6991 26.0044 21.0454 26.1355 21.2953 26.3869L21.8273 25.8583ZM76.1426 80.1687L21.8264 25.8574L21.2961 26.3878L75.6123 80.6991L76.1426 80.1687ZM76.7244 81.7007C76.7598 81.1298 76.5475 80.5712 76.1418 80.1679L75.613 80.6998C75.8656 80.951 75.9978 81.2988 75.9758 81.6543L76.7244 81.7007ZM75.9569 83.1498C76.4093 82.7997 76.6889 82.2717 76.7244 81.7007L75.9758 81.6543C75.9538 82.0098 75.7796 82.3386 75.4979 82.5567L75.9569 83.1498ZM50.9987 91.6976C60.042 91.7284 68.8329 88.7174 75.9583 83.1487L75.4965 82.5578C68.5037 88.0228 59.8763 90.9778 51.0013 90.9476L50.9987 91.6976ZM44.1254 91.1083C46.3962 91.4971 48.6956 91.6943 50.9995 91.6976L51.0005 90.9476C48.7388 90.9443 46.4813 90.7508 44.252 90.3691L44.1254 91.1083ZM39.5022 95.9539L44.4538 91.0039L43.9236 90.4735L38.972 95.4235L39.5022 95.9539ZM38.6314 96.4392C38.956 96.3564 39.2539 96.1913 39.4961 95.9599L38.9781 95.4176C38.829 95.5599 38.6458 95.6615 38.446 95.7124L38.6314 96.4392Z" fill="#007AFF" fill-opacity="0.04"/>
</svg>
