<svg width="18" height="19" viewBox="0 0 18 19" fill="none" xmlns="http://www.w3.org/2000/svg">
<path d="M15.984 13.2243C14.8172 12.2426 13.6332 11.6479 12.4808 12.6281L11.7927 13.2206C11.2892 13.6506 10.3531 15.66 6.73382 11.5641C3.11531 7.47342 5.26863 6.83649 5.77286 6.41014L6.46475 5.81697C7.61113 4.83451 7.17851 3.59774 6.3517 2.32463L5.85275 1.55349C5.02217 0.283351 4.11773 -0.550807 2.96834 0.430162L2.3473 0.964023C1.8393 1.32809 0.419334 2.51148 0.0748931 4.75962C-0.339641 7.4571 0.968026 10.5461 3.96398 13.9354C6.95617 17.3261 9.88579 19.0293 12.6609 18.9996C14.9672 18.9751 16.3601 17.7577 16.7957 17.315L17.419 16.7804C18.5654 15.8002 17.8531 14.8021 16.6857 13.8182L15.984 13.2243Z" fill="#007AFF"/>
</svg>
