<svg width="116" height="81" viewBox="0 0 116 81" fill="none" xmlns="http://www.w3.org/2000/svg">
<path fill-rule="evenodd" clip-rule="evenodd" d="M114.773 43.7482C114.251 40.8545 111.211 38.5303 105.606 36.8214C101.022 35.4315 95.2134 34.6112 88.8599 34.4745V10.1396C88.8599 9.59271 88.6783 9.09143 88.3153 8.68129C87.5211 6.08374 84.5032 3.96468 79.3069 2.39248C74.2014 0.843065 67.5529 0 60.5414 0C53.5525 0 46.9494 0.843065 41.9574 2.39248C37.8503 3.66847 32.9264 6.03817 32.9264 10.1168C32.9264 10.3674 32.949 10.6181 32.9944 10.8687L33.244 21.2589C18.4948 18.4335 4.26752 28.1629 1.47651 42.9507C1.15884 44.6369 1 46.323 1 48.0319C1 63.0704 13.1851 75.3062 28.1612 75.3062C34.4013 75.3062 40.4371 73.1416 45.293 69.1997C49.5589 70.2022 54.551 70.7491 59.8607 70.7946C61.0179 77.1062 74.6553 80 87.3623 80C94.3511 80 100.932 79.1342 105.969 77.562C110.099 76.286 115 73.8935 115 69.8149V44.7736C115 44.409 114.932 44.0672 114.773 43.7482ZM43.2735 6.74452C47.8571 5.33181 53.9837 4.53432 60.5187 4.53432C67.0084 4.53432 73.3619 5.33181 77.9908 6.74452C82.9148 8.24836 83.9813 9.79778 83.9813 10.1168C83.9813 10.4358 82.9148 12.008 77.9682 13.489C73.3619 14.879 67.0084 15.6992 60.5187 15.6992C54.256 15.6992 48.3109 14.9701 43.7954 13.6485C38.9168 12.2358 37.5553 10.6636 37.4419 10.1623C37.4419 10.1168 37.4419 10.094 37.4192 10.094C37.4646 9.77499 38.5084 8.22558 43.2735 6.74452ZM84.3217 21.5779V15.7904C82.7333 16.6562 81.0314 17.3398 79.3069 17.8411C74.2014 19.3905 67.5529 20.2336 60.5414 20.2336C53.8475 20.2336 47.4713 19.4588 42.5474 18.0234C40.8455 17.5676 39.2118 16.9296 37.6461 16.1322L37.8049 22.5349C40.369 23.5147 42.7516 24.8818 44.9072 26.5907C44.9753 26.5907 45.0207 26.5907 45.0888 26.6135C49.4455 27.73 54.9367 28.3224 60.5414 28.3224C67.0311 28.3224 73.4072 27.5021 78.0135 26.1122C82.9375 24.6084 84.004 23.0362 84.004 22.74C83.9813 22.3298 84.0947 21.9197 84.3217 21.5779ZM43.3643 64.8248C34.129 73.2783 19.8109 72.5947 11.4152 63.321C3.01951 54.0473 3.67755 39.6696 12.9128 31.239C17.088 27.4338 22.5111 25.3147 28.1385 25.3147C30.4076 25.3147 32.6768 25.6565 34.8324 26.3173C37.7822 27.2287 40.5052 28.7553 42.8424 30.7833C46.6545 34.0644 49.2639 38.5075 50.3077 43.4292C50.6027 44.9331 50.7615 46.4825 50.7615 48.0091C50.7842 54.4346 48.084 60.5412 43.3643 64.8248ZM53.4845 57.8297C52.4407 60.5412 50.9658 63.0704 49.1278 65.3261C52.6222 65.8958 56.162 66.2148 59.7018 66.2603L59.5884 58.6955C59.5657 58.6272 59.5657 58.5588 59.5657 58.4905V58.331V58.1259C57.4554 58.1031 55.4359 57.9892 53.4845 57.8297ZM55.1636 45.3204C56.5024 45.4116 57.8865 45.4571 59.2934 45.4799C59.3047 45.5369 59.3161 45.5881 59.3274 45.6393C59.3388 45.6906 59.3501 45.7419 59.3615 45.7989L59.4749 53.5688C57.8639 53.546 56.2755 53.4776 54.7552 53.3637C55.0955 51.6092 55.2771 49.8092 55.2771 48.0319C55.2998 47.1205 55.2544 46.2318 55.1636 45.3204ZM60.5414 40.9456H60.7229C62.2886 39.1911 65.1023 37.7328 69.1186 36.6391C73.3619 35.4315 78.6716 34.6796 84.3443 34.5201V28.4591C82.7333 29.325 81.0768 30.0085 79.3296 30.5098C74.2468 32.0592 67.5756 32.9023 60.5641 32.9023C57.115 32.9023 53.6887 32.6745 50.285 32.2415C52.1003 34.7935 53.4845 37.6645 54.324 40.7177C56.2528 40.8545 58.3631 40.9456 60.5414 40.9456ZM63.8089 44.409C64.1266 43.7482 65.8057 42.3127 70.3439 41.014C74.7687 39.7608 80.5549 39.0772 86.6135 39.0772H86.8631C93.3527 39.0772 99.7062 39.8291 104.335 41.2418C109.123 42.7001 110.258 44.1584 110.326 44.5457V44.5685C110.303 44.9103 109.168 46.4825 104.131 47.9863C99.4793 49.3762 93.3527 50.1282 86.8631 50.1282C73.3619 50.1282 65.1704 46.8926 63.9224 44.9103C63.8997 44.728 63.8543 44.5685 63.8089 44.409ZM63.9678 50.5839L64.0358 55.779L64.0812 57.7613C65.9873 59.9715 74.4057 62.7514 86.8177 62.7514C93.3981 62.7514 99.5701 61.9766 104.222 60.5639C109.123 59.0601 110.167 57.5107 110.167 57.1917C110.167 56.9737 110.237 56.7687 110.303 56.5765C110.362 56.407 110.416 56.2475 110.416 56.098H110.394V50.3332C108.783 51.1763 107.081 51.8599 105.334 52.3611C100.273 53.865 93.7158 54.6853 86.8177 54.6853C78.3085 54.6853 69.3002 53.3865 63.9678 50.5839ZM110.416 69.8149C110.416 70.1339 109.395 71.7061 104.585 73.2099C99.9785 74.6454 93.8519 75.4429 87.3169 75.4429C80.7592 75.4429 74.6326 74.6682 70.0943 73.2783C65.2838 71.7972 64.3081 70.2706 64.3081 69.9288V69.8832L64.2174 63.321C66.01 64.1868 67.8933 64.8704 69.8447 65.3717C74.6099 66.6249 80.6457 67.3312 86.8857 67.3312C93.8973 67.3312 100.523 66.4882 105.583 64.9388C107.217 64.4375 109.1 63.7767 110.462 62.9109L110.416 69.8149ZM37.9638 58.9917C39.1664 58.6272 40.4371 59.3335 40.7775 60.5184C41.1405 61.7032 40.4598 62.9792 39.2572 63.3438L37.7369 63.7995C35.0593 64.6425 32.1549 64.3919 29.6588 63.0931C28.7739 62.6374 27.7755 62.3868 26.7771 62.3868C26.5275 62.3868 26.2779 62.4096 26.0283 62.4324L21.785 62.9336C21.2178 63.002 20.6278 62.8425 20.174 62.5007C19.1756 61.7488 18.9486 60.3361 19.6975 59.3107L20.8547 57.7385C21.7397 56.5309 22.2615 55.0954 22.375 53.5916C22.375 53.5574 22.3807 53.5289 22.3863 53.5004C22.392 53.4719 22.3977 53.4435 22.3977 53.4093C22.4431 52.8624 22.4658 52.2472 22.4658 51.7915H17.6326C16.3846 51.7915 15.3635 50.7662 15.3635 49.513C15.3635 48.2598 16.3846 47.2344 17.6326 47.2344H22.1254C22.0346 46.5508 21.8985 45.9128 21.7397 45.2521C21.3539 43.771 21.1497 42.2216 21.127 40.695C21.127 38.348 22.0346 36.0923 23.623 34.4062L23.6457 34.3834C24.4626 33.5175 25.461 32.8567 26.5502 32.401C27.7074 31.9225 28.9327 31.6947 30.1807 31.6947C34.8097 31.6947 37.9865 34.1783 38.8941 38.4848V38.5303C39.1437 39.7607 38.3495 40.9684 37.1242 41.219C35.8989 41.4697 34.6963 40.6722 34.4467 39.4418C34.1517 38.0746 33.4029 36.2746 30.158 36.2746C29.5227 36.2746 28.8873 36.3885 28.2974 36.6391C27.7755 36.867 27.2763 37.186 26.8678 37.5961C26.4821 38.0063 26.1644 38.5075 25.9602 39.0316C25.756 39.5785 25.6425 40.1481 25.6425 40.7405C25.6879 41.9254 25.8467 43.0874 26.1417 44.2267C26.3913 45.2293 26.5729 46.2546 26.709 47.28H31.9053C33.1533 47.28 34.1744 48.3053 34.1744 49.5585C34.1744 50.8117 33.1533 51.8371 31.9053 51.8371H26.9813C26.9813 52.5206 26.9359 53.227 26.8905 53.9333C26.8905 53.9675 26.8849 53.996 26.8792 54.0245C26.8735 54.053 26.8678 54.0815 26.8678 54.1156C26.7544 55.4144 26.4367 56.6904 25.9375 57.898L26.0007 57.8931C26.2716 57.8721 26.5243 57.8525 26.7771 57.8525C28.5016 57.8525 30.2034 58.2626 31.7237 59.0373C33.1986 59.7892 34.8778 59.9259 36.4435 59.4474L37.9638 58.9917Z" fill="#007AFF"/>
<path d="M105.606 36.8214L105.861 35.9845L105.86 35.9841L105.606 36.8214ZM114.773 43.7482L113.912 43.9035L113.934 44.0264L113.99 44.1382L114.773 43.7482ZM88.8599 34.4745H87.9849V35.3309L88.841 35.3493L88.8599 34.4745ZM88.3153 8.68129L87.4785 8.93712L87.5341 9.11892L87.6601 9.26126L88.3153 8.68129ZM79.3069 2.39248L79.0528 3.22977L79.0535 3.22999L79.3069 2.39248ZM41.9574 2.39248L41.698 1.55681L41.6978 1.55688L41.9574 2.39248ZM32.9944 10.8687L33.8692 10.8477L33.8675 10.7797L33.8554 10.7128L32.9944 10.8687ZM33.244 21.2589L33.0794 22.1183L34.1448 22.3224L34.1188 21.2379L33.244 21.2589ZM1.47651 42.9507L0.616693 42.7884L0.616641 42.7887L1.47651 42.9507ZM45.293 69.1997L45.4932 68.3479L45.075 68.2496L44.7415 68.5203L45.293 69.1997ZM59.8607 70.7946L60.7213 70.6368L60.591 69.9259L59.8682 69.9197L59.8607 70.7946ZM105.969 77.562L105.711 76.7259L105.708 76.7267L105.969 77.562ZM43.2735 6.74452L43.0158 5.90833L43.0138 5.90895L43.2735 6.74452ZM77.9908 6.74452L78.2464 5.90768L78.2463 5.90762L77.9908 6.74452ZM77.9682 13.489L77.7172 12.6508L77.7154 12.6513L77.9682 13.489ZM43.7954 13.6485L44.0412 12.8088L44.0388 12.8081L43.7954 13.6485ZM37.4419 10.1623H36.5669V10.2601L36.5885 10.3555L37.4419 10.1623ZM37.4192 10.094L36.5529 9.97075L36.4109 10.969H37.4192V10.094ZM84.3217 15.7904H85.1967V14.3168L83.9029 15.0221L84.3217 15.7904ZM84.3217 21.5779L85.0506 22.0619L85.1967 21.8419V21.5779H84.3217ZM79.3069 17.8411L79.0627 17.0008L79.0528 17.0038L79.3069 17.8411ZM42.5474 18.0234L42.7923 17.1833L42.783 17.1806L42.7737 17.1781L42.5474 18.0234ZM37.6461 16.1322L38.0432 15.3525L36.735 14.6861L36.7714 16.1539L37.6461 16.1322ZM37.8049 22.5349L36.9302 22.5566L36.9447 23.1429L37.4926 23.3522L37.8049 22.5349ZM44.9072 26.5907L44.3637 27.2764L44.6025 27.4657H44.9072V26.5907ZM45.0888 26.6135L44.811 27.4433L44.841 27.4533L44.8716 27.4611L45.0888 26.6135ZM78.0135 26.1122L78.2663 26.9499L78.2691 26.9491L78.0135 26.1122ZM84.004 22.74H84.879V22.7158L84.8776 22.6916L84.004 22.74ZM11.4152 63.321L12.0639 62.7337L11.4152 63.321ZM43.3643 64.8248L42.7762 64.1769L42.7735 64.1794L43.3643 64.8248ZM12.9128 31.239L12.3234 30.5923L12.3229 30.5927L12.9128 31.239ZM34.8324 26.3173L35.0907 25.4813L35.0888 25.4807L34.8324 26.3173ZM42.8424 30.7833L42.2689 31.4442L42.2716 31.4464L42.8424 30.7833ZM50.3077 43.4292L51.1665 43.2608L51.1637 43.2477L50.3077 43.4292ZM50.7615 48.0091H49.8865L49.8865 48.0122L50.7615 48.0091ZM49.1278 65.3261L48.4494 64.7734L47.4938 65.9463L48.987 66.1897L49.1278 65.3261ZM53.4845 57.8297L53.5558 56.9576L52.9031 56.9042L52.6679 57.5153L53.4845 57.8297ZM59.7018 66.2603L59.6906 67.1352L60.5902 67.1468L60.5767 66.2472L59.7018 66.2603ZM59.5884 58.6955L60.4633 58.6824L60.4613 58.5477L60.4188 58.4198L59.5884 58.6955ZM59.5657 58.1259H60.4407V57.2603L59.5751 57.2509L59.5657 58.1259ZM59.2934 45.4799L60.1515 45.309L60.0136 44.6165L59.3076 44.605L59.2934 45.4799ZM55.1636 45.3204L55.223 44.4474L54.1904 44.3771L54.2929 45.4071L55.1636 45.3204ZM59.3274 45.6393L58.4731 45.8284L58.4731 45.8284L59.3274 45.6393ZM59.3615 45.7989L60.2364 45.7861L60.2352 45.7063L60.2196 45.628L59.3615 45.7989ZM59.4749 53.5688L59.4625 54.4437L60.363 54.4564L60.3498 53.556L59.4749 53.5688ZM54.7552 53.3637L53.8962 53.1971L53.7089 54.1628L54.6898 54.2363L54.7552 53.3637ZM55.2771 48.0319L54.4023 48.0101L54.4021 48.021V48.0319H55.2771ZM60.7229 40.9456V41.8206H61.1148L61.3758 41.5282L60.7229 40.9456ZM69.1186 36.6391L69.3485 37.4834L69.3581 37.4807L69.1186 36.6391ZM84.3443 34.5201L84.3689 35.3947L85.2193 35.3708V34.5201H84.3443ZM84.3443 28.4591H85.2193V26.9955L83.9301 27.6884L84.3443 28.4591ZM79.3296 30.5098L79.0883 29.6688L79.0814 29.6707L79.0745 29.6728L79.3296 30.5098ZM50.285 32.2415L50.3954 31.3735L48.4146 31.1216L49.572 32.7487L50.285 32.2415ZM54.324 40.7177L53.4804 40.9497L53.6445 41.5468L54.2622 41.5906L54.324 40.7177ZM70.3439 41.014L70.1055 40.1721L70.1032 40.1727L70.3439 41.014ZM63.8089 44.409L63.0203 44.0299L62.8765 44.3291L62.9673 44.6485L63.8089 44.409ZM104.335 41.2418L104.08 42.0787L104.08 42.0788L104.335 41.2418ZM110.326 44.5457H111.201V44.4694L111.187 44.3943L110.326 44.5457ZM110.326 44.5685L111.199 44.6265L111.201 44.5975V44.5685H110.326ZM104.131 47.9863L103.881 47.1479L103.88 47.148L104.131 47.9863ZM63.9224 44.9103L63.0541 45.0184L63.0781 45.2116L63.1819 45.3765L63.9224 44.9103ZM64.0358 55.779L63.1609 55.7904L63.1611 55.799L64.0358 55.779ZM63.9678 50.5839L64.3748 49.8093L63.0736 49.1254L63.0928 50.5953L63.9678 50.5839ZM64.0812 57.7613L63.2064 57.7813L63.2136 58.0951L63.4186 58.3328L64.0812 57.7613ZM104.222 60.5639L104.476 61.4012L104.478 61.4005L104.222 60.5639ZM110.303 56.5765L109.476 56.2921V56.2921L110.303 56.5765ZM110.416 56.098H111.291V55.223H110.416V56.098ZM110.394 56.098H109.519V56.973H110.394V56.098ZM110.394 50.3332H111.269V48.8878L109.988 49.558L110.394 50.3332ZM105.334 52.3611L105.092 51.52L105.084 51.5224L105.334 52.3611ZM104.585 73.2099L104.845 74.0453L104.846 74.0451L104.585 73.2099ZM110.416 69.8149L109.541 69.8091V69.8149H110.416ZM70.0943 73.2783L69.8369 74.1145L69.8381 74.1149L70.0943 73.2783ZM64.3081 69.8832H65.1832L65.183 69.8711L64.3081 69.8832ZM64.2174 63.321L64.5979 62.5331L63.3229 61.9172L63.3424 63.3331L64.2174 63.321ZM69.8447 65.3717L70.0673 64.5255L70.0624 64.5242L69.8447 65.3717ZM105.583 64.9388L105.839 65.7754L105.84 65.7753L105.583 64.9388ZM110.462 62.9109L111.337 62.9166L111.347 61.3107L109.992 62.1725L110.462 62.9109ZM40.7775 60.5184L39.9365 60.76L39.9386 60.7674L39.9409 60.7747L40.7775 60.5184ZM37.9638 58.9917L38.215 59.8299L38.2176 59.8291L37.9638 58.9917ZM39.2572 63.3438L39.5084 64.1819L39.511 64.1811L39.2572 63.3438ZM37.7369 63.7995L37.4856 62.9612L37.4741 62.9649L37.7369 63.7995ZM29.6588 63.0931L30.0627 62.3169L30.0594 62.3152L29.6588 63.0931ZM26.0283 62.4324L25.9487 61.561L25.9371 61.562L25.9256 61.5634L26.0283 62.4324ZM21.785 62.9336L21.6824 62.0647L21.6804 62.0649L21.785 62.9336ZM20.174 62.5007L20.7004 61.8018L20.7004 61.8018L20.174 62.5007ZM19.6975 59.3107L18.9928 58.792L18.9908 58.7947L19.6975 59.3107ZM20.8547 57.7385L21.5594 58.2572L21.5605 58.2557L20.8547 57.7385ZM22.375 53.5916L23.2475 53.6574L23.25 53.6245V53.5916H22.375ZM22.3977 53.4093L21.5257 53.3369L21.5227 53.373V53.4093H22.3977ZM22.4658 51.7915H23.3408V50.9165H22.4658V51.7915ZM22.1254 47.2344V48.1094H23.1243L22.9928 47.1192L22.1254 47.2344ZM21.7397 45.2521L22.5904 45.0476L22.5885 45.0395L22.5864 45.0315L21.7397 45.2521ZM21.127 40.695H20.2519L20.2521 40.708L21.127 40.695ZM23.623 34.4062L23.003 33.7887L22.9945 33.7973L22.9861 33.8062L23.623 34.4062ZM23.6457 34.3834L24.2657 35.0008L24.274 34.9924L24.2822 34.9838L23.6457 34.3834ZM26.5502 32.401L26.2158 31.5924L26.2124 31.5938L26.5502 32.401ZM38.8941 38.4848H39.7691V38.3936L39.7503 38.3043L38.8941 38.4848ZM38.8941 38.5303H38.0191V38.6182L38.0366 38.7043L38.8941 38.5303ZM34.4467 39.4418L35.3043 39.2678L35.302 39.2572L34.4467 39.4418ZM28.2974 36.6391L27.9552 35.8338L27.9473 35.8372L28.2974 36.6391ZM26.8678 37.5961L26.2478 36.9787L26.239 36.9875L26.2305 36.9966L26.8678 37.5961ZM25.9602 39.0316L25.1448 38.7139L25.1405 38.7255L25.9602 39.0316ZM25.6425 40.7405H24.7675V40.7573L24.7682 40.774L25.6425 40.7405ZM26.1417 44.2267L26.9908 44.0153L26.9888 44.0074L26.1417 44.2267ZM26.709 47.28L25.8416 47.3951L25.9425 48.155H26.709V47.28ZM26.9813 51.8371V50.9621H26.1063V51.8371H26.9813ZM26.8905 53.9333L26.0173 53.8772L26.0155 53.9053V53.9333H26.8905ZM26.8678 54.1156L27.7395 54.1918L27.7428 54.1538V54.1156H26.8678ZM25.9375 57.898L25.1289 57.5638L24.5845 58.8806L26.0052 58.7704L25.9375 57.898ZM26.0007 57.8931L26.0684 58.7655L26.0684 58.7655L26.0007 57.8931ZM31.7237 59.0373L32.1211 58.2578L32.121 58.2577L31.7237 59.0373ZM36.4435 59.4474L36.1922 58.6093L36.1877 58.6107L36.4435 59.4474ZM105.351 37.6584C108.1 38.4967 110.154 39.4672 111.567 40.5379C112.971 41.6018 113.7 42.7302 113.912 43.9035L115.634 43.5929C115.324 41.8725 114.272 40.3919 112.624 39.1431C110.985 37.901 108.716 36.8551 105.861 35.9845L105.351 37.6584ZM88.841 35.3493C95.138 35.4848 100.864 36.2979 105.352 37.6588L105.86 35.9841C101.181 34.5651 95.2887 33.7376 88.8787 33.5997L88.841 35.3493ZM87.9849 10.1396V34.4745H89.7349V10.1396H87.9849ZM87.6601 9.26126C87.8755 9.50453 87.9849 9.79703 87.9849 10.1396H89.7349C89.7349 9.38839 89.4812 8.67833 88.9705 8.10132L87.6601 9.26126ZM79.0535 3.22999C81.6006 4.00064 83.5595 4.89002 84.9605 5.8695C86.3592 6.84738 87.1557 7.88117 87.4785 8.93712L89.152 8.42545C88.6807 6.88385 87.5711 5.55934 85.9632 4.43526C84.3577 3.31277 82.2095 2.35652 79.5603 1.55498L79.0535 3.22999ZM60.5414 0.875C67.493 0.875 74.0514 1.71195 79.0528 3.22977L79.561 1.55519C74.3514 -0.0258213 67.6129 -0.875 60.5414 -0.875V0.875ZM42.2168 3.22815C47.1012 1.71216 53.6117 0.875 60.5414 0.875V-0.875C53.4934 -0.875 46.7977 -0.0260267 41.698 1.55681L42.2168 3.22815ZM33.8014 10.1168C33.8014 8.4765 34.7809 7.09427 36.4145 5.91262C38.0464 4.73228 40.1997 3.85482 42.217 3.22808L41.6978 1.55688C39.608 2.20613 37.2458 3.15152 35.3889 4.49467C33.5338 5.83652 32.0514 7.67844 32.0514 10.1168H33.8014ZM33.8554 10.7128C33.8192 10.5128 33.8014 10.3143 33.8014 10.1168H32.0514C32.0514 10.4205 32.0789 10.7233 32.1334 11.0246L33.8554 10.7128ZM34.1188 21.2379L33.8692 10.8477L32.1197 10.8897L32.3693 21.2799L34.1188 21.2379ZM2.33633 43.113C5.0381 28.798 18.8087 19.3845 33.0794 22.1183L33.4087 20.3995C18.1809 17.4825 3.49693 27.5278 0.616693 42.7884L2.33633 43.113ZM1.875 48.0319C1.875 46.3779 2.02866 44.746 2.33638 43.1127L0.616641 42.7887C0.289011 44.5277 0.125 46.268 0.125 48.0319H1.875ZM28.1612 74.4312C13.6718 74.4312 1.875 62.5905 1.875 48.0319H0.125C0.125 63.5502 12.6984 76.1812 28.1612 76.1812V74.4312ZM44.7415 68.5203C40.0397 72.3372 34.198 74.4312 28.1612 74.4312V76.1812C34.6045 76.1812 40.8345 73.9459 45.8445 69.879L44.7415 68.5203ZM59.8682 69.9197C54.6103 69.8745 49.6844 69.3329 45.4932 68.3479L45.0928 70.0515C49.4335 71.0716 54.4916 71.6236 59.8532 71.6696L59.8682 69.9197ZM87.3623 79.125C81.0622 79.125 74.5649 78.4063 69.5272 76.9247C67.0061 76.1833 64.896 75.2637 63.3641 74.1811C61.8312 73.0978 60.9546 71.9092 60.7213 70.6368L59 70.9525C59.3454 72.8359 60.6073 74.3758 62.3541 75.6103C64.1018 76.8454 66.4121 77.8327 69.0334 78.6036C74.2805 80.1468 80.9553 80.875 87.3623 80.875V79.125ZM105.708 76.7267C100.777 78.2657 94.289 79.125 87.3623 79.125V80.875C94.4133 80.875 101.086 80.0026 106.23 78.3972L105.708 76.7267ZM114.125 69.8149C114.125 71.4575 113.148 72.8456 111.518 74.0319C109.89 75.2171 107.737 76.0998 105.711 76.7259L106.227 78.398C108.331 77.7481 110.693 76.7965 112.548 75.4469C114.401 74.0983 115.875 72.2508 115.875 69.8149H114.125ZM114.125 44.7736V69.8149H115.875V44.7736H114.125ZM113.99 44.1382C114.079 44.317 114.125 44.5213 114.125 44.7736H115.875C115.875 44.2967 115.785 43.8174 115.556 43.3582L113.99 44.1382ZM60.5187 3.65932C53.9235 3.65932 47.7054 4.46296 43.0158 5.90833L43.5312 7.5807C48.0088 6.20067 54.0439 5.40932 60.5187 5.40932V3.65932ZM78.2463 5.90762C73.511 4.46248 67.0663 3.65932 60.5187 3.65932V5.40932C66.9504 5.40932 73.2127 6.20114 77.7354 7.58141L78.2463 5.90762ZM84.8563 10.1168C84.8563 9.873 84.7681 9.66712 84.7049 9.54359C84.6305 9.39804 84.5305 9.25225 84.4116 9.10864C84.1729 8.82043 83.8223 8.49843 83.3331 8.15727C82.3542 7.47455 80.766 6.67718 78.2464 5.90768L77.7353 7.58136C80.1397 8.3157 81.5467 9.04496 82.332 9.59266C82.725 9.86671 82.9487 10.0859 83.0638 10.2249C83.1218 10.2949 83.1437 10.3342 83.1468 10.3404C83.1612 10.3685 83.1063 10.2808 83.1063 10.1168H84.8563ZM78.2191 14.3273C80.7516 13.569 82.3473 12.7713 83.3307 12.0845C83.8222 11.7413 84.1739 11.4165 84.413 11.126C84.5321 10.9813 84.6318 10.8347 84.7059 10.6889C84.7687 10.5653 84.8563 10.3596 84.8563 10.1168H83.1063C83.1063 9.95366 83.1606 9.8669 83.1457 9.89617C83.1422 9.90315 83.1199 9.94331 83.0618 10.014C82.9463 10.1542 82.7222 10.3749 82.3287 10.6498C81.5422 11.1991 80.1313 11.928 77.7172 12.6508L78.2191 14.3273ZM60.5187 16.5742C67.0689 16.5742 73.5117 15.7477 78.2209 14.3267L77.7154 12.6513C73.212 14.0102 66.9478 14.8242 60.5187 14.8242V16.5742ZM43.5496 14.4883C48.1663 15.8395 54.1985 16.5742 60.5187 16.5742V14.8242C54.3135 14.8242 48.4555 14.1007 44.0412 12.8088L43.5496 14.4883ZM36.5885 10.3555C36.6664 10.7 36.8922 11.0281 37.1512 11.3109C37.4306 11.6159 37.8234 11.9489 38.3519 12.2954C39.4091 12.9885 41.0552 13.766 43.552 14.489L44.0388 12.8081C41.6569 12.1184 40.1831 11.4034 39.3115 10.8319C38.8756 10.5461 38.6019 10.3038 38.4416 10.1288C38.261 9.9317 38.2741 9.87534 38.2953 9.96919L36.5885 10.3555ZM37.4192 10.969C37.2729 10.969 37.0483 10.9283 36.8496 10.751C36.6691 10.5899 36.61 10.4029 36.59 10.3225C36.5696 10.2408 36.5676 10.1771 36.5673 10.1687C36.5667 10.1553 36.5669 10.1453 36.5669 10.1623H38.3169C38.3169 10.1566 38.317 10.1267 38.3158 10.0962C38.3147 10.0707 38.3113 9.99279 38.2881 9.8997C38.2653 9.80791 38.2019 9.61234 38.015 9.44549C37.81 9.26249 37.5768 9.21899 37.4192 9.21899V10.969ZM43.0138 5.90895C40.5708 6.66825 39.028 7.46115 38.0698 8.14163C37.5906 8.48197 37.2481 8.80092 37.0123 9.08236C36.8946 9.2228 36.7978 9.36063 36.7238 9.49362C36.658 9.61178 36.5802 9.77894 36.5529 9.97075L38.2855 10.2172C38.2695 10.3293 38.2342 10.3783 38.2528 10.3448C38.2632 10.3262 38.2926 10.2791 38.3537 10.2063C38.4752 10.0612 38.7001 9.84044 39.0831 9.56843C39.8494 9.02418 41.211 8.30184 43.5332 7.58009L43.0138 5.90895ZM83.4467 15.7904V21.5779H85.1967V15.7904H83.4467ZM79.5512 18.6813C81.3313 18.1639 83.0922 17.4571 84.7404 16.5586L83.9029 15.0221C82.3743 15.8553 80.7316 16.5157 79.0627 17.0008L79.5512 18.6813ZM60.5414 21.1086C67.6129 21.1086 74.3514 20.2594 79.561 18.6784L79.0528 17.0038C74.0514 18.5216 67.493 19.3586 60.5414 19.3586V21.1086ZM42.3025 18.8634C47.327 20.3282 53.7898 21.1086 60.5414 21.1086V19.3586C53.9052 19.3586 47.6157 18.5895 42.7923 17.1833L42.3025 18.8634ZM37.249 16.9118C38.8661 17.7355 40.5569 18.3962 42.321 18.8686L42.7737 17.1781C41.1342 16.7391 39.5575 16.1238 38.0432 15.3525L37.249 16.9118ZM38.6797 22.5132L38.5208 16.1105L36.7714 16.1539L36.9302 22.5566L38.6797 22.5132ZM45.4508 25.905C43.2269 24.142 40.7666 22.7299 38.1173 21.7175L37.4926 23.3522C39.9715 24.2995 42.2763 25.6216 44.3637 27.2764L45.4508 25.905ZM45.3665 25.7837C45.1531 25.7123 44.9835 25.7157 44.9072 25.7157V27.4657C44.9266 27.4657 44.9313 27.4658 44.9338 27.4658C44.9344 27.4658 44.9252 27.4657 44.9106 27.4642C44.895 27.4626 44.8767 27.46 44.8572 27.4557C44.8379 27.4516 44.8222 27.447 44.811 27.4433L45.3665 25.7837ZM60.5414 27.4474C54.99 27.4474 49.5746 26.8598 45.306 25.7659L44.8716 27.4611C49.3163 28.6002 54.8834 29.1974 60.5414 29.1974V27.4474ZM77.7608 25.2745C73.2576 26.6333 66.9708 27.4474 60.5414 27.4474V29.1974C67.0913 29.1974 73.5569 28.371 78.2663 26.9499L77.7608 25.2745ZM83.129 22.74C83.129 22.5646 83.1903 22.4699 83.1729 22.5033C83.1694 22.51 83.1467 22.55 83.0879 22.6206C82.9714 22.7605 82.7462 22.9812 82.3531 23.2566C81.5676 23.807 80.1607 24.5415 77.7579 25.2754L78.2691 26.9491C80.7903 26.1791 82.3787 25.3755 83.3573 24.6898C83.8464 24.3472 84.1956 24.0253 84.4329 23.7401C84.5511 23.5982 84.6501 23.455 84.7242 23.3132C84.7843 23.198 84.879 22.9894 84.879 22.74H83.129ZM83.5927 21.0939C83.2629 21.5906 83.0971 22.187 83.1303 22.7883L84.8776 22.6916C84.8655 22.4726 84.9266 22.2487 85.0506 22.0619L83.5927 21.0939ZM10.7665 63.9082C19.4875 73.5412 34.3615 74.2516 43.955 65.4703L42.7735 64.1794C33.8964 72.3049 20.1344 71.6482 12.0639 62.7337L10.7665 63.9082ZM12.3229 30.5927C2.73028 39.3496 2.04881 54.2788 10.7665 63.9082L12.0639 62.7337C3.9902 53.8157 4.62481 39.9896 13.5027 31.8852L12.3229 30.5927ZM28.1385 24.4397C22.2907 24.4397 16.658 26.6418 12.3234 30.5923L13.5022 31.8857C17.518 28.2258 22.7316 26.1897 28.1385 26.1897V24.4397ZM35.0888 25.4807C32.8503 24.7945 30.4947 24.4397 28.1385 24.4397V26.1897C30.3205 26.1897 32.5032 26.5185 34.576 27.1539L35.0888 25.4807ZM43.4158 30.1224C40.9887 28.0164 38.1589 26.4293 35.0907 25.4813L34.5741 27.1533C37.4055 28.0281 40.0216 29.4942 42.2689 31.4442L43.4158 30.1224ZM51.1637 43.2477C50.0806 38.1408 47.3722 33.5277 43.4132 30.1201L42.2716 31.4464C45.9367 34.6011 48.4472 38.8743 49.4518 43.6108L51.1637 43.2477ZM51.6365 48.0091C51.6365 46.4227 51.4716 44.8169 51.1664 43.2608L49.4491 43.5976C49.7338 45.0493 49.8865 46.5422 49.8865 48.0091H51.6365ZM43.9523 65.4728C48.8558 61.0223 51.6601 54.6791 51.6365 48.006L49.8865 48.0122C49.9084 54.1901 47.3122 60.06 42.7762 64.1769L43.9523 65.4728ZM49.8061 65.8788C51.7015 63.5526 53.2235 60.9431 54.3011 58.144L52.6679 57.5153C51.6578 60.1392 50.23 62.5882 48.4494 64.7734L49.8061 65.8788ZM59.7131 65.3854C56.2182 65.3404 52.7217 65.0254 49.2686 64.4625L48.987 66.1897C52.5227 66.7661 56.1058 67.0891 59.6906 67.1352L59.7131 65.3854ZM58.7135 58.7086L58.8269 66.2734L60.5767 66.2472L60.4633 58.6824L58.7135 58.7086ZM58.6907 58.4905C58.6907 58.5391 58.6838 58.748 58.7579 58.9712L60.4188 58.4198C60.4352 58.4692 60.4394 58.507 60.4405 58.5206C60.4411 58.527 60.441 58.529 60.4408 58.5236C60.4407 58.5171 60.4407 58.5091 60.4407 58.4905H58.6907ZM58.6907 58.331V58.4905H60.4407V58.331H58.6907ZM58.6907 58.1259V58.331H60.4407V58.1259H58.6907ZM53.4132 58.7018C55.3797 58.8625 57.4205 58.9778 59.5562 59.0008L59.5751 57.2509C57.4903 57.2284 55.4921 57.1158 53.5558 56.9576L53.4132 58.7018ZM59.3076 44.605C57.9095 44.5824 56.5416 44.5372 55.223 44.4474L55.1042 46.1934C56.4632 46.2859 57.8635 46.3319 59.2792 46.3548L59.3076 44.605ZM60.1817 45.4503C60.1702 45.3982 60.1608 45.3556 60.1515 45.309L58.4352 45.6509C58.4487 45.7182 58.4619 45.778 58.4731 45.8284L60.1817 45.4503ZM60.2196 45.628C60.2062 45.5607 60.1929 45.5008 60.1817 45.4503L58.4731 45.8284C58.4846 45.8805 58.494 45.9232 58.5033 45.9698L60.2196 45.628ZM60.3498 53.556L60.2364 45.7861L58.4866 45.8117L58.6 53.5816L60.3498 53.556ZM54.6898 54.2363C56.229 54.3516 57.8352 54.4207 59.4625 54.4437L59.4873 52.6939C57.8925 52.6713 56.3219 52.6037 54.8206 52.4912L54.6898 54.2363ZM54.4021 48.0319C54.4021 49.7503 54.2265 51.4946 53.8962 53.1971L55.6142 53.5304C55.9646 51.7239 56.1521 49.868 56.1521 48.0319H54.4021ZM54.2929 45.4071C54.3809 46.291 54.4239 47.1425 54.4023 48.0101L56.1518 48.0537C56.1756 47.0984 56.1278 46.1727 56.0343 45.2337L54.2929 45.4071ZM60.7229 40.0706H60.5414V41.8206H60.7229V40.0706ZM68.8887 35.7949C64.8141 36.9045 61.8039 38.4201 60.0701 40.363L61.3758 41.5282C62.7733 39.9621 65.3905 38.5612 69.3485 37.4834L68.8887 35.7949ZM84.3198 33.6454C78.5913 33.8065 73.2071 34.5658 68.8791 35.7976L69.3581 37.4807C73.5167 36.2972 78.7518 35.5527 84.3689 35.3947L84.3198 33.6454ZM83.4693 28.4591V34.5201H85.2193V28.4591H83.4693ZM79.5709 31.3509C81.3811 30.8315 83.0954 30.1237 84.7586 29.2299L83.9301 27.6884C82.3712 28.5262 80.7725 29.1856 79.0883 29.6688L79.5709 31.3509ZM60.5641 33.7773C67.635 33.7773 74.3968 32.9283 79.5848 31.3468L79.0745 29.6728C74.0968 31.1902 67.5163 32.0273 60.5641 32.0273V33.7773ZM50.1746 33.1095C53.6132 33.5469 57.0764 33.7773 60.5641 33.7773V32.0273C57.1537 32.0273 53.7642 31.802 50.3954 31.3735L50.1746 33.1095ZM55.1677 40.4858C54.3002 37.331 52.8709 34.3673 50.998 31.7343L49.572 32.7487C51.3297 35.2198 52.6687 37.998 53.4804 40.9497L55.1677 40.4858ZM60.5414 40.0706C58.387 40.0706 56.2976 39.9804 54.3859 39.8449L54.2622 41.5906C56.208 41.7285 58.3392 41.8206 60.5414 41.8206V40.0706ZM70.1032 40.1727C67.7834 40.8366 66.1565 41.5459 65.0502 42.1965C63.9823 42.8245 63.2949 43.4587 63.0203 44.0299L64.5975 44.7881C64.6406 44.6985 64.9516 44.2846 65.9373 43.705C66.8845 43.148 68.3663 42.4901 70.5847 41.8552L70.1032 40.1727ZM86.6135 38.2022C80.4992 38.2022 74.6286 38.891 70.1055 40.1721L70.5824 41.8558C74.9088 40.6305 80.6107 39.9522 86.6135 39.9522V38.2022ZM86.8631 38.2022H86.6135V39.9522H86.8631V38.2022ZM104.591 40.4049C99.8518 38.9587 93.4055 38.2022 86.8631 38.2022V39.9522C93.2999 39.9522 99.5606 40.6995 104.08 42.0787L104.591 40.4049ZM111.187 44.3943C111.128 44.055 110.912 43.7414 110.687 43.4889C110.436 43.2074 110.078 42.8965 109.587 42.5679C108.604 41.9109 107.038 41.1503 104.59 40.4048L104.08 42.0788C106.42 42.7916 107.816 43.4893 108.614 44.0228C109.013 44.2895 109.25 44.5069 109.381 44.6534C109.537 44.8288 109.489 44.8428 109.464 44.6972L111.187 44.3943ZM111.201 44.5685V44.5457H109.451V44.5685H111.201ZM104.381 48.8248C106.957 48.0557 108.589 47.2538 109.601 46.5649C110.107 46.2206 110.471 45.8958 110.72 45.6057C110.844 45.461 110.948 45.3157 111.027 45.1719C111.096 45.0462 111.184 44.8533 111.199 44.6265L109.453 44.5105C109.462 44.3691 109.509 44.3002 109.492 44.3318C109.485 44.3452 109.457 44.3905 109.393 44.4648C109.266 44.6126 109.027 44.8389 108.616 45.1184C107.796 45.677 106.342 46.4131 103.881 47.1479L104.381 48.8248ZM86.8631 51.0032C93.4095 51.0032 99.6254 50.2458 104.381 48.8247L103.88 47.148C99.3332 48.5067 93.2959 49.2532 86.8631 49.2532V51.0032ZM63.1819 45.3765C63.6285 46.0858 64.5616 46.7486 65.7408 47.3432C66.961 47.9585 68.5821 48.5677 70.5685 49.107C74.5443 50.1866 80.0456 51.0032 86.8631 51.0032V49.2532C80.1793 49.2532 74.8342 48.452 71.0271 47.4182C69.1219 46.9009 67.6173 46.3295 66.5287 45.7806C65.399 45.211 64.8402 44.7259 64.6629 44.4441L63.1819 45.3765ZM62.9673 44.6485C63.0144 44.8139 63.0408 44.9121 63.0541 45.0184L64.7907 44.8022C64.7585 44.5439 64.6942 44.3231 64.6505 44.1695L62.9673 44.6485ZM64.9108 55.7675L64.8427 50.5724L63.0928 50.5953L63.1609 55.7904L64.9108 55.7675ZM64.956 57.7413L64.9106 55.759L63.1611 55.799L63.2064 57.7813L64.956 57.7413ZM86.8177 61.8764C80.6738 61.8764 75.5381 61.188 71.7214 60.2362C69.8122 59.76 68.2466 59.2213 67.056 58.6775C65.8431 58.1236 65.0967 57.599 64.7438 57.1899L63.4186 58.3328C64.0187 59.0287 65.0394 59.6804 66.329 60.2694C67.6407 60.8684 69.3129 61.4391 71.298 61.9342C75.27 62.9248 80.5495 63.6264 86.8177 63.6264V61.8764ZM103.967 59.7267C99.4216 61.1073 93.3404 61.8764 86.8177 61.8764V63.6264C93.4558 63.6264 99.7185 62.846 104.476 61.4012L103.967 59.7267ZM109.292 57.1917C109.292 57.0316 109.344 56.9462 109.331 56.9735C109.327 56.9797 109.306 57.0187 109.249 57.0883C109.137 57.2263 108.917 57.4447 108.528 57.7181C107.752 58.2646 106.358 58.9933 103.965 59.7274L104.478 61.4005C106.987 60.6307 108.565 59.8328 109.536 59.1489C110.021 58.8071 110.369 58.4843 110.605 58.1951C110.723 58.051 110.821 57.905 110.894 57.7594C110.957 57.6351 111.042 57.4315 111.042 57.1917H109.292ZM109.476 56.2921C109.417 56.4622 109.292 56.8041 109.292 57.1917H111.042C111.042 57.1764 111.044 57.1455 111.059 57.0885C111.074 57.0273 111.096 56.9623 111.131 56.8609L109.476 56.2921ZM109.541 56.098C109.541 56.0694 109.546 56.0665 109.536 56.107C109.524 56.1499 109.507 56.2008 109.476 56.2921L111.131 56.8609C111.176 56.7306 111.291 56.4229 111.291 56.098H109.541ZM110.394 56.973H110.416V55.223H110.394V56.973ZM109.519 50.3332V56.098H111.269V50.3332H109.519ZM105.575 53.2022C107.38 52.6844 109.137 51.9787 110.799 51.1085L109.988 49.558C108.429 50.3739 106.782 51.0353 105.092 51.5201L105.575 53.2022ZM86.8177 55.5603C93.7754 55.5603 100.421 54.7339 105.583 53.1999L105.084 51.5224C100.126 52.996 93.6561 53.8103 86.8177 53.8103V55.5603ZM63.5607 51.3584C69.0855 54.2622 78.2689 55.5603 86.8177 55.5603V53.8103C78.3481 53.8103 69.5148 52.5108 64.3748 49.8093L63.5607 51.3584ZM104.846 74.0451C107.312 73.2742 108.863 72.4689 109.818 71.7765C110.296 71.4304 110.636 71.1036 110.868 70.8117C110.983 70.6663 111.079 70.5196 111.149 70.3744C111.21 70.2502 111.291 70.0495 111.291 69.8149H109.541C109.541 69.66 109.591 69.5782 109.577 69.6069C109.573 69.6146 109.551 69.6549 109.496 69.7252C109.385 69.8647 109.17 70.0848 108.791 70.3596C108.033 70.909 106.669 71.6417 104.324 72.3748L104.846 74.0451ZM87.3169 76.3179C93.912 76.3179 100.131 75.5143 104.845 74.0453L104.324 72.3745C99.8257 73.7765 93.7918 74.5679 87.3169 74.5679V76.3179ZM69.8381 74.1149C74.4837 75.5377 80.702 76.3179 87.3169 76.3179V74.5679C80.8163 74.5679 74.7815 73.7987 70.3506 72.4416L69.8381 74.1149ZM63.4331 69.9288C63.4331 70.152 63.5042 70.3466 63.5665 70.48C63.6359 70.6288 63.7305 70.778 63.845 70.9251C64.0742 71.22 64.4123 71.5448 64.8855 71.886C65.8317 72.5683 67.3733 73.3561 69.8369 74.1145L70.3518 72.442C68.0049 71.7194 66.6534 71.0033 65.9091 70.4666C65.537 70.1983 65.3306 69.9848 65.2265 69.851C65.1743 69.7838 65.1552 69.7461 65.1524 69.7402C65.1425 69.7189 65.1831 69.7911 65.1831 69.9288H63.4331ZM63.4331 69.8832V69.9288H65.1831V69.8832H63.4331ZM63.3424 63.3331L63.4332 69.8953L65.183 69.8711L65.0923 63.3089L63.3424 63.3331ZM70.0624 64.5242C68.1653 64.0369 66.3367 63.3729 64.5979 62.5331L63.8368 64.1089C65.6832 65.0007 67.6213 65.7039 69.6271 66.2192L70.0624 64.5242ZM86.8857 66.4562C80.704 66.4562 74.7452 65.7557 70.0673 64.5255L69.6222 66.2179C74.4746 67.4941 80.5874 68.2062 86.8857 68.2062V66.4562ZM105.327 64.1021C100.372 65.6192 93.8376 66.4562 86.8857 66.4562V68.2062C93.957 68.2062 100.674 67.3571 105.839 65.7754L105.327 64.1021ZM109.992 62.1725C108.74 62.9691 106.958 63.6018 105.327 64.1023L105.84 65.7753C107.476 65.2731 109.461 64.5843 110.931 63.6492L109.992 62.1725ZM111.291 69.8206L111.337 62.9166L109.587 62.9051L109.541 69.8091L111.291 69.8206ZM41.6185 60.2768C41.1442 58.6258 39.3829 57.6472 37.7099 58.1544L38.2176 59.8291C38.9499 59.6071 39.73 60.0413 39.9365 60.76L41.6185 60.2768ZM39.511 64.1811C41.1724 63.6775 42.1204 61.9146 41.6141 60.262L39.9409 60.7747C40.1606 61.4918 39.7472 62.2809 39.0033 62.5064L39.511 64.1811ZM37.9881 64.6376L39.5084 64.1819L39.0059 62.5056L37.4856 62.9613L37.9881 64.6376ZM29.2549 63.8693C31.9572 65.2754 35.1015 65.5466 37.9996 64.6341L37.4741 62.9649C35.0172 63.7385 32.3525 63.5084 30.0627 62.3169L29.2549 63.8693ZM26.7771 63.2618C27.6313 63.2618 28.4928 63.4769 29.2582 63.8711L30.0594 62.3152C29.0549 61.7979 27.9196 61.5118 26.7771 61.5118V63.2618ZM26.1078 63.3037C26.3642 63.2803 26.574 63.2618 26.7771 63.2618V61.5118C26.4809 61.5118 26.1915 61.5388 25.9487 61.561L26.1078 63.3037ZM21.8877 63.8026L26.1309 63.3013L25.9256 61.5634L21.6824 62.0647L21.8877 63.8026ZM19.6476 63.1997C20.2818 63.6773 21.0979 63.8978 21.8897 63.8024L21.6804 62.0649C21.3376 62.1062 20.9738 62.0077 20.7004 61.8018L19.6476 63.1997ZM18.9908 58.7947C17.9557 60.212 18.2729 62.1644 19.6476 63.1997L20.7004 61.8018C20.0782 61.3332 19.9415 60.4601 20.4041 59.8268L18.9908 58.7947ZM20.15 57.2198L18.9928 58.792L20.4021 59.8294L21.5594 58.2572L20.15 57.2198ZM21.5025 53.5257C21.401 54.8703 20.9349 56.1487 20.1489 57.2213L21.5605 58.2557C22.5444 56.9131 23.1221 55.3205 23.2475 53.6574L21.5025 53.5257ZM21.5282 53.3295C21.5233 53.354 21.5 53.4606 21.5 53.5916H23.25C23.25 53.6542 23.238 53.7038 23.2445 53.6713L21.5282 53.3295ZM21.5227 53.4093C21.5227 53.3466 21.5347 53.297 21.5282 53.3295L23.2445 53.6713C23.2494 53.6469 23.2727 53.5403 23.2727 53.4093H21.5227ZM21.5908 51.7915C21.5908 52.224 21.569 52.815 21.5257 53.3369L23.2697 53.4817C23.3171 52.9098 23.3408 52.2705 23.3408 51.7915H21.5908ZM17.6326 52.6665H22.4658V50.9165H17.6326V52.6665ZM14.4885 49.513C14.4885 51.246 15.8979 52.6665 17.6326 52.6665V50.9165C16.8712 50.9165 16.2385 50.2863 16.2385 49.513H14.4885ZM17.6326 46.3594C15.8979 46.3594 14.4885 47.7799 14.4885 49.513H16.2385C16.2385 48.7396 16.8712 48.1094 17.6326 48.1094V46.3594ZM22.1254 46.3594H17.6326V48.1094H22.1254V46.3594ZM20.8889 45.4566C21.0445 46.104 21.1729 46.7089 21.258 47.3496L22.9928 47.1192C22.8963 46.3928 22.7525 45.7217 22.5904 45.0476L20.8889 45.4566ZM20.2521 40.708C20.2758 42.3025 20.4889 43.9217 20.8929 45.4726L22.5864 45.0315C22.2189 43.6203 22.0236 42.1407 22.0019 40.682L20.2521 40.708ZM22.9861 33.8062C21.2459 35.6535 20.252 38.1234 20.252 40.695H22.002C22.002 38.5727 22.8233 36.5311 24.2599 35.0061L22.9861 33.8062ZM23.0257 33.7659L23.003 33.7887L24.243 35.0236L24.2657 35.0008L23.0257 33.7659ZM26.2124 31.5938C25.0217 32.092 23.9182 32.8195 23.0092 33.7829L24.2822 34.9838C25.0069 34.2156 25.9003 33.6214 26.8879 33.2082L26.2124 31.5938ZM30.1807 30.8197C28.8252 30.8197 27.4855 31.0674 26.2158 31.5924L26.8845 33.2096C27.9293 32.7776 29.0402 32.5697 30.1807 32.5697V30.8197ZM39.7503 38.3043C39.2598 35.9769 38.1413 34.0875 36.4711 32.7848C34.804 31.4846 32.6528 30.8197 30.1807 30.8197V32.5697C32.3376 32.5697 34.0894 33.1466 35.3948 34.1647C36.6971 35.1805 37.6208 36.6861 38.0379 38.6652L39.7503 38.3043ZM39.7691 38.5303V38.4848H38.0191V38.5303H39.7691ZM37.2996 42.0763C39.0017 41.7281 40.0964 40.056 39.7516 38.3564L38.0366 38.7043C38.191 39.4655 37.6974 40.2087 36.9489 40.3618L37.2996 42.0763ZM33.5891 39.6157C33.9344 41.318 35.598 42.4243 37.2996 42.0763L36.9489 40.3618C36.1998 40.515 35.4581 40.0264 35.3042 39.2678L33.5891 39.6157ZM30.158 37.1496C31.611 37.1496 32.3668 37.5471 32.7942 37.9685C33.2427 38.4108 33.4566 39.0017 33.5913 39.6263L35.302 39.2572C35.1418 38.5147 34.8337 37.5219 34.0229 36.7224C33.191 35.9021 31.9499 35.3996 30.158 35.3996V37.1496ZM28.6395 37.4445C29.1091 37.245 29.6262 37.1496 30.158 37.1496V35.3996C29.4192 35.3996 28.6656 35.532 27.9552 35.8338L28.6395 37.4445ZM27.4878 38.2136C27.8065 37.8935 28.2093 37.6324 28.6475 37.441L27.9473 35.8372C27.3417 36.1016 26.746 36.4785 26.2478 36.9787L27.4878 38.2136ZM26.7755 39.3493C26.9386 38.9307 27.1955 38.5249 27.5052 38.1956L26.2305 36.9966C25.7687 37.4877 25.3902 38.0844 25.1449 38.7139L26.7755 39.3493ZM26.5175 40.7405C26.5175 40.2622 26.6087 39.7961 26.7799 39.3377L25.1405 38.7255C24.9032 39.3608 24.7675 40.034 24.7675 40.7405H26.5175ZM26.9888 44.0074C26.711 42.9347 26.5601 41.8354 26.5169 40.707L24.7682 40.774C24.8157 42.0154 24.9824 43.2402 25.2947 44.446L26.9888 44.0074ZM27.5764 47.1648C27.437 46.1149 27.25 45.0565 26.9908 44.0153L25.2926 44.4381C25.5326 45.4021 25.7087 46.3943 25.8416 47.3951L27.5764 47.1648ZM31.9053 46.405H26.709V48.155H31.9053V46.405ZM35.0494 49.5585C35.0494 47.8255 33.6399 46.405 31.9053 46.405V48.155C32.6666 48.155 33.2994 48.7851 33.2994 49.5585H35.0494ZM31.9053 52.7121C33.6399 52.7121 35.0494 51.2916 35.0494 49.5585H33.2994C33.2994 50.3319 32.6666 50.9621 31.9053 50.9621V52.7121ZM26.9813 52.7121H31.9053V50.9621H26.9813V52.7121ZM27.7637 53.9895C27.8088 53.2885 27.8563 52.5536 27.8563 51.8371H26.1063C26.1063 52.4876 26.0631 53.1655 26.0173 53.8772L27.7637 53.9895ZM27.7373 54.1954C27.7422 54.1709 27.7655 54.0643 27.7655 53.9333H26.0155C26.0155 53.8707 26.0275 53.8212 26.021 53.8536L27.7373 54.1954ZM27.7428 54.1156C27.7428 54.1783 27.7309 54.2278 27.7373 54.1954L26.021 53.8536C26.0161 53.8781 25.9928 53.9847 25.9928 54.1156H27.7428ZM26.7461 58.2323C27.2783 56.9449 27.6181 55.582 27.7395 54.1918L25.9962 54.0395C25.8907 55.2468 25.5951 56.4359 25.1289 57.5638L26.7461 58.2323ZM25.933 57.0208L25.8698 57.0257L26.0052 58.7704L26.0684 58.7655L25.933 57.0208ZM26.7771 56.9775C26.4845 56.9775 26.1975 57.0002 25.9329 57.0208L26.0684 58.7655C26.3457 58.744 26.5641 58.7275 26.7771 58.7275V56.9775ZM32.121 58.2577C30.4775 57.4202 28.6395 56.9775 26.7771 56.9775V58.7275C28.3637 58.7275 29.9294 59.105 31.3265 59.8169L32.121 58.2577ZM36.1877 58.6107C34.8363 59.0237 33.3916 58.9054 32.1211 58.2578L31.3263 59.8169C33.0057 60.673 34.9192 60.8282 36.6992 60.2842L36.1877 58.6107ZM37.7125 58.1536L36.1922 58.6093L36.6947 60.2856L38.215 59.8299L37.7125 58.1536Z" fill="white"/>
<path d="M105.606 36.8214L105.861 35.9845L105.86 35.9841L105.606 36.8214ZM114.773 43.7482L113.912 43.9035L113.934 44.0264L113.99 44.1382L114.773 43.7482ZM88.8599 34.4745H87.9849V35.3309L88.841 35.3493L88.8599 34.4745ZM88.3153 8.68129L87.4785 8.93712L87.5341 9.11892L87.6601 9.26126L88.3153 8.68129ZM79.3069 2.39248L79.0528 3.22977L79.0535 3.22999L79.3069 2.39248ZM41.9574 2.39248L41.698 1.55681L41.6978 1.55688L41.9574 2.39248ZM32.9944 10.8687L33.8692 10.8477L33.8675 10.7797L33.8554 10.7128L32.9944 10.8687ZM33.244 21.2589L33.0794 22.1183L34.1448 22.3224L34.1188 21.2379L33.244 21.2589ZM1.47651 42.9507L0.616693 42.7884L0.616641 42.7887L1.47651 42.9507ZM45.293 69.1997L45.4932 68.3479L45.075 68.2496L44.7415 68.5203L45.293 69.1997ZM59.8607 70.7946L60.7213 70.6368L60.591 69.9259L59.8682 69.9197L59.8607 70.7946ZM105.969 77.562L105.711 76.7259L105.708 76.7267L105.969 77.562ZM43.2735 6.74452L43.0158 5.90833L43.0138 5.90895L43.2735 6.74452ZM77.9908 6.74452L78.2464 5.90768L78.2463 5.90762L77.9908 6.74452ZM77.9682 13.489L77.7172 12.6508L77.7154 12.6513L77.9682 13.489ZM43.7954 13.6485L44.0412 12.8088L44.0388 12.8081L43.7954 13.6485ZM37.4419 10.1623H36.5669V10.2601L36.5885 10.3555L37.4419 10.1623ZM37.4192 10.094L36.5529 9.97075L36.4109 10.969H37.4192V10.094ZM84.3217 15.7904H85.1967V14.3168L83.9029 15.0221L84.3217 15.7904ZM84.3217 21.5779L85.0506 22.0619L85.1967 21.8419V21.5779H84.3217ZM79.3069 17.8411L79.0627 17.0008L79.0528 17.0038L79.3069 17.8411ZM42.5474 18.0234L42.7923 17.1833L42.783 17.1806L42.7737 17.1781L42.5474 18.0234ZM37.6461 16.1322L38.0432 15.3525L36.735 14.6861L36.7714 16.1539L37.6461 16.1322ZM37.8049 22.5349L36.9302 22.5566L36.9447 23.1429L37.4926 23.3522L37.8049 22.5349ZM44.9072 26.5907L44.3637 27.2764L44.6025 27.4657H44.9072V26.5907ZM45.0888 26.6135L44.811 27.4433L44.841 27.4533L44.8716 27.4611L45.0888 26.6135ZM78.0135 26.1122L78.2663 26.9499L78.2691 26.9491L78.0135 26.1122ZM84.004 22.74H84.879V22.7158L84.8776 22.6916L84.004 22.74ZM11.4152 63.321L12.0639 62.7337L11.4152 63.321ZM43.3643 64.8248L42.7762 64.1769L42.7735 64.1794L43.3643 64.8248ZM12.9128 31.239L12.3234 30.5923L12.3229 30.5927L12.9128 31.239ZM34.8324 26.3173L35.0907 25.4813L35.0888 25.4807L34.8324 26.3173ZM42.8424 30.7833L42.2689 31.4442L42.2716 31.4464L42.8424 30.7833ZM50.3077 43.4292L51.1665 43.2608L51.1637 43.2477L50.3077 43.4292ZM50.7615 48.0091H49.8865L49.8865 48.0122L50.7615 48.0091ZM49.1278 65.3261L48.4494 64.7734L47.4938 65.9463L48.987 66.1897L49.1278 65.3261ZM53.4845 57.8297L53.5558 56.9576L52.9031 56.9042L52.6679 57.5153L53.4845 57.8297ZM59.7018 66.2603L59.6906 67.1352L60.5902 67.1468L60.5767 66.2472L59.7018 66.2603ZM59.5884 58.6955L60.4633 58.6824L60.4613 58.5477L60.4188 58.4198L59.5884 58.6955ZM59.5657 58.1259H60.4407V57.2603L59.5751 57.2509L59.5657 58.1259ZM59.2934 45.4799L60.1515 45.309L60.0136 44.6165L59.3076 44.605L59.2934 45.4799ZM55.1636 45.3204L55.223 44.4474L54.1904 44.3771L54.2929 45.4071L55.1636 45.3204ZM59.3274 45.6393L58.4731 45.8284L58.4731 45.8284L59.3274 45.6393ZM59.3615 45.7989L60.2364 45.7861L60.2352 45.7063L60.2196 45.628L59.3615 45.7989ZM59.4749 53.5688L59.4625 54.4437L60.363 54.4564L60.3498 53.556L59.4749 53.5688ZM54.7552 53.3637L53.8962 53.1971L53.7089 54.1628L54.6898 54.2363L54.7552 53.3637ZM55.2771 48.0319L54.4023 48.0101L54.4021 48.021V48.0319H55.2771ZM60.7229 40.9456V41.8206H61.1148L61.3758 41.5282L60.7229 40.9456ZM69.1186 36.6391L69.3485 37.4834L69.3581 37.4807L69.1186 36.6391ZM84.3443 34.5201L84.3689 35.3947L85.2193 35.3708V34.5201H84.3443ZM84.3443 28.4591H85.2193V26.9955L83.9301 27.6884L84.3443 28.4591ZM79.3296 30.5098L79.0883 29.6688L79.0814 29.6707L79.0745 29.6728L79.3296 30.5098ZM50.285 32.2415L50.3954 31.3735L48.4146 31.1216L49.572 32.7487L50.285 32.2415ZM54.324 40.7177L53.4804 40.9497L53.6445 41.5468L54.2622 41.5906L54.324 40.7177ZM70.3439 41.014L70.1055 40.1721L70.1032 40.1727L70.3439 41.014ZM63.8089 44.409L63.0203 44.0299L62.8765 44.3291L62.9673 44.6485L63.8089 44.409ZM104.335 41.2418L104.08 42.0787L104.08 42.0788L104.335 41.2418ZM110.326 44.5457H111.201V44.4694L111.187 44.3943L110.326 44.5457ZM110.326 44.5685L111.199 44.6265L111.201 44.5975V44.5685H110.326ZM104.131 47.9863L103.881 47.1479L103.88 47.148L104.131 47.9863ZM63.9224 44.9103L63.0541 45.0184L63.0781 45.2116L63.1819 45.3765L63.9224 44.9103ZM64.0358 55.779L63.1609 55.7904L63.1611 55.799L64.0358 55.779ZM63.9678 50.5839L64.3748 49.8093L63.0736 49.1254L63.0928 50.5953L63.9678 50.5839ZM64.0812 57.7613L63.2064 57.7813L63.2136 58.0951L63.4186 58.3328L64.0812 57.7613ZM104.222 60.5639L104.476 61.4012L104.478 61.4005L104.222 60.5639ZM110.303 56.5765L109.476 56.2921V56.2921L110.303 56.5765ZM110.416 56.098H111.291V55.223H110.416V56.098ZM110.394 56.098H109.519V56.973H110.394V56.098ZM110.394 50.3332H111.269V48.8878L109.988 49.558L110.394 50.3332ZM105.334 52.3611L105.092 51.52L105.084 51.5224L105.334 52.3611ZM104.585 73.2099L104.845 74.0453L104.846 74.0451L104.585 73.2099ZM110.416 69.8149L109.541 69.8091V69.8149H110.416ZM70.0943 73.2783L69.8369 74.1145L69.8381 74.1149L70.0943 73.2783ZM64.3081 69.8832H65.1832L65.183 69.8711L64.3081 69.8832ZM64.2174 63.321L64.5979 62.5331L63.3229 61.9172L63.3424 63.3331L64.2174 63.321ZM69.8447 65.3717L70.0673 64.5255L70.0624 64.5242L69.8447 65.3717ZM105.583 64.9388L105.839 65.7754L105.84 65.7753L105.583 64.9388ZM110.462 62.9109L111.337 62.9166L111.347 61.3107L109.992 62.1725L110.462 62.9109ZM40.7775 60.5184L39.9365 60.76L39.9386 60.7674L39.9409 60.7747L40.7775 60.5184ZM37.9638 58.9917L38.215 59.8299L38.2176 59.8291L37.9638 58.9917ZM39.2572 63.3438L39.5084 64.1819L39.511 64.1811L39.2572 63.3438ZM37.7369 63.7995L37.4856 62.9612L37.4741 62.9649L37.7369 63.7995ZM29.6588 63.0931L30.0627 62.3169L30.0594 62.3152L29.6588 63.0931ZM26.0283 62.4324L25.9487 61.561L25.9371 61.562L25.9256 61.5634L26.0283 62.4324ZM21.785 62.9336L21.6824 62.0647L21.6804 62.0649L21.785 62.9336ZM20.174 62.5007L20.7004 61.8018L20.7004 61.8018L20.174 62.5007ZM19.6975 59.3107L18.9928 58.792L18.9908 58.7947L19.6975 59.3107ZM20.8547 57.7385L21.5594 58.2572L21.5605 58.2557L20.8547 57.7385ZM22.375 53.5916L23.2475 53.6574L23.25 53.6245V53.5916H22.375ZM22.3977 53.4093L21.5257 53.3369L21.5227 53.373V53.4093H22.3977ZM22.4658 51.7915H23.3408V50.9165H22.4658V51.7915ZM22.1254 47.2344V48.1094H23.1243L22.9928 47.1192L22.1254 47.2344ZM21.7397 45.2521L22.5904 45.0476L22.5885 45.0395L22.5864 45.0315L21.7397 45.2521ZM21.127 40.695H20.2519L20.2521 40.708L21.127 40.695ZM23.623 34.4062L23.003 33.7887L22.9945 33.7973L22.9861 33.8062L23.623 34.4062ZM23.6457 34.3834L24.2657 35.0008L24.274 34.9924L24.2822 34.9838L23.6457 34.3834ZM26.5502 32.401L26.2158 31.5924L26.2124 31.5938L26.5502 32.401ZM38.8941 38.4848H39.7691V38.3936L39.7503 38.3043L38.8941 38.4848ZM38.8941 38.5303H38.0191V38.6182L38.0366 38.7043L38.8941 38.5303ZM34.4467 39.4418L35.3043 39.2678L35.302 39.2572L34.4467 39.4418ZM28.2974 36.6391L27.9552 35.8338L27.9473 35.8372L28.2974 36.6391ZM26.8678 37.5961L26.2478 36.9787L26.239 36.9875L26.2305 36.9966L26.8678 37.5961ZM25.9602 39.0316L25.1448 38.7139L25.1405 38.7255L25.9602 39.0316ZM25.6425 40.7405H24.7675V40.7573L24.7682 40.774L25.6425 40.7405ZM26.1417 44.2267L26.9908 44.0153L26.9888 44.0074L26.1417 44.2267ZM26.709 47.28L25.8416 47.3951L25.9425 48.155H26.709V47.28ZM26.9813 51.8371V50.9621H26.1063V51.8371H26.9813ZM26.8905 53.9333L26.0173 53.8772L26.0155 53.9053V53.9333H26.8905ZM26.8678 54.1156L27.7395 54.1918L27.7428 54.1538V54.1156H26.8678ZM25.9375 57.898L25.1289 57.5638L24.5845 58.8806L26.0052 58.7704L25.9375 57.898ZM26.0007 57.8931L26.0684 58.7655L26.0684 58.7655L26.0007 57.8931ZM31.7237 59.0373L32.1211 58.2578L32.121 58.2577L31.7237 59.0373ZM36.4435 59.4474L36.1922 58.6093L36.1877 58.6107L36.4435 59.4474ZM105.351 37.6584C108.1 38.4967 110.154 39.4672 111.567 40.5379C112.971 41.6018 113.7 42.7302 113.912 43.9035L115.634 43.5929C115.324 41.8725 114.272 40.3919 112.624 39.1431C110.985 37.901 108.716 36.8551 105.861 35.9845L105.351 37.6584ZM88.841 35.3493C95.138 35.4848 100.864 36.2979 105.352 37.6588L105.86 35.9841C101.181 34.5651 95.2887 33.7376 88.8787 33.5997L88.841 35.3493ZM87.9849 10.1396V34.4745H89.7349V10.1396H87.9849ZM87.6601 9.26126C87.8755 9.50453 87.9849 9.79703 87.9849 10.1396H89.7349C89.7349 9.38839 89.4812 8.67833 88.9705 8.10132L87.6601 9.26126ZM79.0535 3.22999C81.6006 4.00064 83.5595 4.89002 84.9605 5.8695C86.3592 6.84738 87.1557 7.88117 87.4785 8.93712L89.152 8.42545C88.6807 6.88385 87.5711 5.55934 85.9632 4.43526C84.3577 3.31277 82.2095 2.35652 79.5603 1.55498L79.0535 3.22999ZM60.5414 0.875C67.493 0.875 74.0514 1.71195 79.0528 3.22977L79.561 1.55519C74.3514 -0.0258213 67.6129 -0.875 60.5414 -0.875V0.875ZM42.2168 3.22815C47.1012 1.71216 53.6117 0.875 60.5414 0.875V-0.875C53.4934 -0.875 46.7977 -0.0260267 41.698 1.55681L42.2168 3.22815ZM33.8014 10.1168C33.8014 8.4765 34.7809 7.09427 36.4145 5.91262C38.0464 4.73228 40.1997 3.85482 42.217 3.22808L41.6978 1.55688C39.608 2.20613 37.2458 3.15152 35.3889 4.49467C33.5338 5.83652 32.0514 7.67844 32.0514 10.1168H33.8014ZM33.8554 10.7128C33.8192 10.5128 33.8014 10.3143 33.8014 10.1168H32.0514C32.0514 10.4205 32.0789 10.7233 32.1334 11.0246L33.8554 10.7128ZM34.1188 21.2379L33.8692 10.8477L32.1197 10.8897L32.3693 21.2799L34.1188 21.2379ZM2.33633 43.113C5.0381 28.798 18.8087 19.3845 33.0794 22.1183L33.4087 20.3995C18.1809 17.4825 3.49693 27.5278 0.616693 42.7884L2.33633 43.113ZM1.875 48.0319C1.875 46.3779 2.02866 44.746 2.33638 43.1127L0.616641 42.7887C0.289011 44.5277 0.125 46.268 0.125 48.0319H1.875ZM28.1612 74.4312C13.6718 74.4312 1.875 62.5905 1.875 48.0319H0.125C0.125 63.5502 12.6984 76.1812 28.1612 76.1812V74.4312ZM44.7415 68.5203C40.0397 72.3372 34.198 74.4312 28.1612 74.4312V76.1812C34.6045 76.1812 40.8345 73.9459 45.8445 69.879L44.7415 68.5203ZM59.8682 69.9197C54.6103 69.8745 49.6844 69.3329 45.4932 68.3479L45.0928 70.0515C49.4335 71.0716 54.4916 71.6236 59.8532 71.6696L59.8682 69.9197ZM87.3623 79.125C81.0622 79.125 74.5649 78.4063 69.5272 76.9247C67.0061 76.1833 64.896 75.2637 63.3641 74.1811C61.8312 73.0978 60.9546 71.9092 60.7213 70.6368L59 70.9525C59.3454 72.8359 60.6073 74.3758 62.3541 75.6103C64.1018 76.8454 66.4121 77.8327 69.0334 78.6036C74.2805 80.1468 80.9553 80.875 87.3623 80.875V79.125ZM105.708 76.7267C100.777 78.2657 94.289 79.125 87.3623 79.125V80.875C94.4133 80.875 101.086 80.0026 106.23 78.3972L105.708 76.7267ZM114.125 69.8149C114.125 71.4575 113.148 72.8456 111.518 74.0319C109.89 75.2171 107.737 76.0998 105.711 76.7259L106.227 78.398C108.331 77.7481 110.693 76.7965 112.548 75.4469C114.401 74.0983 115.875 72.2508 115.875 69.8149H114.125ZM114.125 44.7736V69.8149H115.875V44.7736H114.125ZM113.99 44.1382C114.079 44.317 114.125 44.5213 114.125 44.7736H115.875C115.875 44.2967 115.785 43.8174 115.556 43.3582L113.99 44.1382ZM60.5187 3.65932C53.9235 3.65932 47.7054 4.46296 43.0158 5.90833L43.5312 7.5807C48.0088 6.20067 54.0439 5.40932 60.5187 5.40932V3.65932ZM78.2463 5.90762C73.511 4.46248 67.0663 3.65932 60.5187 3.65932V5.40932C66.9504 5.40932 73.2127 6.20114 77.7354 7.58141L78.2463 5.90762ZM84.8563 10.1168C84.8563 9.873 84.7681 9.66712 84.7049 9.54359C84.6305 9.39804 84.5305 9.25225 84.4116 9.10864C84.1729 8.82043 83.8223 8.49843 83.3331 8.15727C82.3542 7.47455 80.766 6.67718 78.2464 5.90768L77.7353 7.58136C80.1397 8.3157 81.5467 9.04496 82.332 9.59266C82.725 9.86671 82.9487 10.0859 83.0638 10.2249C83.1218 10.2949 83.1437 10.3342 83.1468 10.3404C83.1612 10.3685 83.1063 10.2808 83.1063 10.1168H84.8563ZM78.2191 14.3273C80.7516 13.569 82.3473 12.7713 83.3307 12.0845C83.8222 11.7413 84.1739 11.4165 84.413 11.126C84.5321 10.9813 84.6318 10.8347 84.7059 10.6889C84.7687 10.5653 84.8563 10.3596 84.8563 10.1168H83.1063C83.1063 9.95366 83.1606 9.8669 83.1457 9.89617C83.1422 9.90315 83.1199 9.94331 83.0618 10.014C82.9463 10.1542 82.7222 10.3749 82.3287 10.6498C81.5422 11.1991 80.1313 11.928 77.7172 12.6508L78.2191 14.3273ZM60.5187 16.5742C67.0689 16.5742 73.5117 15.7477 78.2209 14.3267L77.7154 12.6513C73.212 14.0102 66.9478 14.8242 60.5187 14.8242V16.5742ZM43.5496 14.4883C48.1663 15.8395 54.1985 16.5742 60.5187 16.5742V14.8242C54.3135 14.8242 48.4555 14.1007 44.0412 12.8088L43.5496 14.4883ZM36.5885 10.3555C36.6664 10.7 36.8922 11.0281 37.1512 11.3109C37.4306 11.6159 37.8234 11.9489 38.3519 12.2954C39.4091 12.9885 41.0552 13.766 43.552 14.489L44.0388 12.8081C41.6569 12.1184 40.1831 11.4034 39.3115 10.8319C38.8756 10.5461 38.6019 10.3038 38.4416 10.1288C38.261 9.9317 38.2741 9.87534 38.2953 9.96919L36.5885 10.3555ZM37.4192 10.969C37.2729 10.969 37.0483 10.9283 36.8496 10.751C36.6691 10.5899 36.61 10.4029 36.59 10.3225C36.5696 10.2408 36.5676 10.1771 36.5673 10.1687C36.5667 10.1553 36.5669 10.1453 36.5669 10.1623H38.3169C38.3169 10.1566 38.317 10.1267 38.3158 10.0962C38.3147 10.0707 38.3113 9.99279 38.2881 9.8997C38.2653 9.80791 38.2019 9.61234 38.015 9.44549C37.81 9.26249 37.5768 9.21899 37.4192 9.21899V10.969ZM43.0138 5.90895C40.5708 6.66825 39.028 7.46115 38.0698 8.14163C37.5906 8.48197 37.2481 8.80092 37.0123 9.08236C36.8946 9.2228 36.7978 9.36063 36.7238 9.49362C36.658 9.61178 36.5802 9.77894 36.5529 9.97075L38.2855 10.2172C38.2695 10.3293 38.2342 10.3783 38.2528 10.3448C38.2632 10.3262 38.2926 10.2791 38.3537 10.2063C38.4752 10.0612 38.7001 9.84044 39.0831 9.56843C39.8494 9.02418 41.211 8.30184 43.5332 7.58009L43.0138 5.90895ZM83.4467 15.7904V21.5779H85.1967V15.7904H83.4467ZM79.5512 18.6813C81.3313 18.1639 83.0922 17.4571 84.7404 16.5586L83.9029 15.0221C82.3743 15.8553 80.7316 16.5157 79.0627 17.0008L79.5512 18.6813ZM60.5414 21.1086C67.6129 21.1086 74.3514 20.2594 79.561 18.6784L79.0528 17.0038C74.0514 18.5216 67.493 19.3586 60.5414 19.3586V21.1086ZM42.3025 18.8634C47.327 20.3282 53.7898 21.1086 60.5414 21.1086V19.3586C53.9052 19.3586 47.6157 18.5895 42.7923 17.1833L42.3025 18.8634ZM37.249 16.9118C38.8661 17.7355 40.5569 18.3962 42.321 18.8686L42.7737 17.1781C41.1342 16.7391 39.5575 16.1238 38.0432 15.3525L37.249 16.9118ZM38.6797 22.5132L38.5208 16.1105L36.7714 16.1539L36.9302 22.5566L38.6797 22.5132ZM45.4508 25.905C43.2269 24.142 40.7666 22.7299 38.1173 21.7175L37.4926 23.3522C39.9715 24.2995 42.2763 25.6216 44.3637 27.2764L45.4508 25.905ZM45.3665 25.7837C45.1531 25.7123 44.9835 25.7157 44.9072 25.7157V27.4657C44.9266 27.4657 44.9313 27.4658 44.9338 27.4658C44.9344 27.4658 44.9252 27.4657 44.9106 27.4642C44.895 27.4626 44.8767 27.46 44.8572 27.4557C44.8379 27.4516 44.8222 27.447 44.811 27.4433L45.3665 25.7837ZM60.5414 27.4474C54.99 27.4474 49.5746 26.8598 45.306 25.7659L44.8716 27.4611C49.3163 28.6002 54.8834 29.1974 60.5414 29.1974V27.4474ZM77.7608 25.2745C73.2576 26.6333 66.9708 27.4474 60.5414 27.4474V29.1974C67.0913 29.1974 73.5569 28.371 78.2663 26.9499L77.7608 25.2745ZM83.129 22.74C83.129 22.5646 83.1903 22.4699 83.1729 22.5033C83.1694 22.51 83.1467 22.55 83.0879 22.6206C82.9714 22.7605 82.7462 22.9812 82.3531 23.2566C81.5676 23.807 80.1607 24.5415 77.7579 25.2754L78.2691 26.9491C80.7903 26.1791 82.3787 25.3755 83.3573 24.6898C83.8464 24.3472 84.1956 24.0253 84.4329 23.7401C84.5511 23.5982 84.6501 23.455 84.7242 23.3132C84.7843 23.198 84.879 22.9894 84.879 22.74H83.129ZM83.5927 21.0939C83.2629 21.5906 83.0971 22.187 83.1303 22.7883L84.8776 22.6916C84.8655 22.4726 84.9266 22.2487 85.0506 22.0619L83.5927 21.0939ZM10.7665 63.9082C19.4875 73.5412 34.3615 74.2516 43.955 65.4703L42.7735 64.1794C33.8964 72.3049 20.1344 71.6482 12.0639 62.7337L10.7665 63.9082ZM12.3229 30.5927C2.73028 39.3496 2.04881 54.2788 10.7665 63.9082L12.0639 62.7337C3.9902 53.8157 4.62481 39.9896 13.5027 31.8852L12.3229 30.5927ZM28.1385 24.4397C22.2907 24.4397 16.658 26.6418 12.3234 30.5923L13.5022 31.8857C17.518 28.2258 22.7316 26.1897 28.1385 26.1897V24.4397ZM35.0888 25.4807C32.8503 24.7945 30.4947 24.4397 28.1385 24.4397V26.1897C30.3205 26.1897 32.5032 26.5185 34.576 27.1539L35.0888 25.4807ZM43.4158 30.1224C40.9887 28.0164 38.1589 26.4293 35.0907 25.4813L34.5741 27.1533C37.4055 28.0281 40.0216 29.4942 42.2689 31.4442L43.4158 30.1224ZM51.1637 43.2477C50.0806 38.1408 47.3722 33.5277 43.4132 30.1201L42.2716 31.4464C45.9367 34.6011 48.4472 38.8743 49.4518 43.6108L51.1637 43.2477ZM51.6365 48.0091C51.6365 46.4227 51.4716 44.8169 51.1664 43.2608L49.4491 43.5976C49.7338 45.0493 49.8865 46.5422 49.8865 48.0091H51.6365ZM43.9523 65.4728C48.8558 61.0223 51.6601 54.6791 51.6365 48.006L49.8865 48.0122C49.9084 54.1901 47.3122 60.06 42.7762 64.1769L43.9523 65.4728ZM49.8061 65.8788C51.7015 63.5526 53.2235 60.9431 54.3011 58.144L52.6679 57.5153C51.6578 60.1392 50.23 62.5882 48.4494 64.7734L49.8061 65.8788ZM59.7131 65.3854C56.2182 65.3404 52.7217 65.0254 49.2686 64.4625L48.987 66.1897C52.5227 66.7661 56.1058 67.0891 59.6906 67.1352L59.7131 65.3854ZM58.7135 58.7086L58.8269 66.2734L60.5767 66.2472L60.4633 58.6824L58.7135 58.7086ZM58.6907 58.4905C58.6907 58.5391 58.6838 58.748 58.7579 58.9712L60.4188 58.4198C60.4352 58.4692 60.4394 58.507 60.4405 58.5206C60.4411 58.527 60.441 58.529 60.4408 58.5236C60.4407 58.5171 60.4407 58.5091 60.4407 58.4905H58.6907ZM58.6907 58.331V58.4905H60.4407V58.331H58.6907ZM58.6907 58.1259V58.331H60.4407V58.1259H58.6907ZM53.4132 58.7018C55.3797 58.8625 57.4205 58.9778 59.5562 59.0008L59.5751 57.2509C57.4903 57.2284 55.4921 57.1158 53.5558 56.9576L53.4132 58.7018ZM59.3076 44.605C57.9095 44.5824 56.5416 44.5372 55.223 44.4474L55.1042 46.1934C56.4632 46.2859 57.8635 46.3319 59.2792 46.3548L59.3076 44.605ZM60.1817 45.4503C60.1702 45.3982 60.1608 45.3556 60.1515 45.309L58.4352 45.6509C58.4487 45.7182 58.4619 45.778 58.4731 45.8284L60.1817 45.4503ZM60.2196 45.628C60.2062 45.5607 60.1929 45.5008 60.1817 45.4503L58.4731 45.8284C58.4846 45.8805 58.494 45.9232 58.5033 45.9698L60.2196 45.628ZM60.3498 53.556L60.2364 45.7861L58.4866 45.8117L58.6 53.5816L60.3498 53.556ZM54.6898 54.2363C56.229 54.3516 57.8352 54.4207 59.4625 54.4437L59.4873 52.6939C57.8925 52.6713 56.3219 52.6037 54.8206 52.4912L54.6898 54.2363ZM54.4021 48.0319C54.4021 49.7503 54.2265 51.4946 53.8962 53.1971L55.6142 53.5304C55.9646 51.7239 56.1521 49.868 56.1521 48.0319H54.4021ZM54.2929 45.4071C54.3809 46.291 54.4239 47.1425 54.4023 48.0101L56.1518 48.0537C56.1756 47.0984 56.1278 46.1727 56.0343 45.2337L54.2929 45.4071ZM60.7229 40.0706H60.5414V41.8206H60.7229V40.0706ZM68.8887 35.7949C64.8141 36.9045 61.8039 38.4201 60.0701 40.363L61.3758 41.5282C62.7733 39.9621 65.3905 38.5612 69.3485 37.4834L68.8887 35.7949ZM84.3198 33.6454C78.5913 33.8065 73.2071 34.5658 68.8791 35.7976L69.3581 37.4807C73.5167 36.2972 78.7518 35.5527 84.3689 35.3947L84.3198 33.6454ZM83.4693 28.4591V34.5201H85.2193V28.4591H83.4693ZM79.5709 31.3509C81.3811 30.8315 83.0954 30.1237 84.7586 29.2299L83.9301 27.6884C82.3712 28.5262 80.7725 29.1856 79.0883 29.6688L79.5709 31.3509ZM60.5641 33.7773C67.635 33.7773 74.3968 32.9283 79.5848 31.3468L79.0745 29.6728C74.0968 31.1902 67.5163 32.0273 60.5641 32.0273V33.7773ZM50.1746 33.1095C53.6132 33.5469 57.0764 33.7773 60.5641 33.7773V32.0273C57.1537 32.0273 53.7642 31.802 50.3954 31.3735L50.1746 33.1095ZM55.1677 40.4858C54.3002 37.331 52.8709 34.3673 50.998 31.7343L49.572 32.7487C51.3297 35.2198 52.6687 37.998 53.4804 40.9497L55.1677 40.4858ZM60.5414 40.0706C58.387 40.0706 56.2976 39.9804 54.3859 39.8449L54.2622 41.5906C56.208 41.7285 58.3392 41.8206 60.5414 41.8206V40.0706ZM70.1032 40.1727C67.7834 40.8366 66.1565 41.5459 65.0502 42.1965C63.9823 42.8245 63.2949 43.4587 63.0203 44.0299L64.5975 44.7881C64.6406 44.6985 64.9516 44.2846 65.9373 43.705C66.8845 43.148 68.3663 42.4901 70.5847 41.8552L70.1032 40.1727ZM86.6135 38.2022C80.4992 38.2022 74.6286 38.891 70.1055 40.1721L70.5824 41.8558C74.9088 40.6305 80.6107 39.9522 86.6135 39.9522V38.2022ZM86.8631 38.2022H86.6135V39.9522H86.8631V38.2022ZM104.591 40.4049C99.8518 38.9587 93.4055 38.2022 86.8631 38.2022V39.9522C93.2999 39.9522 99.5606 40.6995 104.08 42.0787L104.591 40.4049ZM111.187 44.3943C111.128 44.055 110.912 43.7414 110.687 43.4889C110.436 43.2074 110.078 42.8965 109.587 42.5679C108.604 41.9109 107.038 41.1503 104.59 40.4048L104.08 42.0788C106.42 42.7916 107.816 43.4893 108.614 44.0228C109.013 44.2895 109.25 44.5069 109.381 44.6534C109.537 44.8288 109.489 44.8428 109.464 44.6972L111.187 44.3943ZM111.201 44.5685V44.5457H109.451V44.5685H111.201ZM104.381 48.8248C106.957 48.0557 108.589 47.2538 109.601 46.5649C110.107 46.2206 110.471 45.8958 110.72 45.6057C110.844 45.461 110.948 45.3157 111.027 45.1719C111.096 45.0462 111.184 44.8533 111.199 44.6265L109.453 44.5105C109.462 44.3691 109.509 44.3002 109.492 44.3318C109.485 44.3452 109.457 44.3905 109.393 44.4648C109.266 44.6126 109.027 44.8389 108.616 45.1184C107.796 45.677 106.342 46.4131 103.881 47.1479L104.381 48.8248ZM86.8631 51.0032C93.4095 51.0032 99.6254 50.2458 104.381 48.8247L103.88 47.148C99.3332 48.5067 93.2959 49.2532 86.8631 49.2532V51.0032ZM63.1819 45.3765C63.6285 46.0858 64.5616 46.7486 65.7408 47.3432C66.961 47.9585 68.5821 48.5677 70.5685 49.107C74.5443 50.1866 80.0456 51.0032 86.8631 51.0032V49.2532C80.1793 49.2532 74.8342 48.452 71.0271 47.4182C69.1219 46.9009 67.6173 46.3295 66.5287 45.7806C65.399 45.211 64.8402 44.7259 64.6629 44.4441L63.1819 45.3765ZM62.9673 44.6485C63.0144 44.8139 63.0408 44.9121 63.0541 45.0184L64.7907 44.8022C64.7585 44.5439 64.6942 44.3231 64.6505 44.1695L62.9673 44.6485ZM64.9108 55.7675L64.8427 50.5724L63.0928 50.5953L63.1609 55.7904L64.9108 55.7675ZM64.956 57.7413L64.9106 55.759L63.1611 55.799L63.2064 57.7813L64.956 57.7413ZM86.8177 61.8764C80.6738 61.8764 75.5381 61.188 71.7214 60.2362C69.8122 59.76 68.2466 59.2213 67.056 58.6775C65.8431 58.1236 65.0967 57.599 64.7438 57.1899L63.4186 58.3328C64.0187 59.0287 65.0394 59.6804 66.329 60.2694C67.6407 60.8684 69.3129 61.4391 71.298 61.9342C75.27 62.9248 80.5495 63.6264 86.8177 63.6264V61.8764ZM103.967 59.7267C99.4216 61.1073 93.3404 61.8764 86.8177 61.8764V63.6264C93.4558 63.6264 99.7185 62.846 104.476 61.4012L103.967 59.7267ZM109.292 57.1917C109.292 57.0316 109.344 56.9462 109.331 56.9735C109.327 56.9797 109.306 57.0187 109.249 57.0883C109.137 57.2263 108.917 57.4447 108.528 57.7181C107.752 58.2646 106.358 58.9933 103.965 59.7274L104.478 61.4005C106.987 60.6307 108.565 59.8328 109.536 59.1489C110.021 58.8071 110.369 58.4843 110.605 58.1951C110.723 58.051 110.821 57.905 110.894 57.7594C110.957 57.6351 111.042 57.4315 111.042 57.1917H109.292ZM109.476 56.2921C109.417 56.4622 109.292 56.8041 109.292 57.1917H111.042C111.042 57.1764 111.044 57.1455 111.059 57.0885C111.074 57.0273 111.096 56.9623 111.131 56.8609L109.476 56.2921ZM109.541 56.098C109.541 56.0694 109.546 56.0665 109.536 56.107C109.524 56.1499 109.507 56.2008 109.476 56.2921L111.131 56.8609C111.176 56.7306 111.291 56.4229 111.291 56.098H109.541ZM110.394 56.973H110.416V55.223H110.394V56.973ZM109.519 50.3332V56.098H111.269V50.3332H109.519ZM105.575 53.2022C107.38 52.6844 109.137 51.9787 110.799 51.1085L109.988 49.558C108.429 50.3739 106.782 51.0353 105.092 51.5201L105.575 53.2022ZM86.8177 55.5603C93.7754 55.5603 100.421 54.7339 105.583 53.1999L105.084 51.5224C100.126 52.996 93.6561 53.8103 86.8177 53.8103V55.5603ZM63.5607 51.3584C69.0855 54.2622 78.2689 55.5603 86.8177 55.5603V53.8103C78.3481 53.8103 69.5148 52.5108 64.3748 49.8093L63.5607 51.3584ZM104.846 74.0451C107.312 73.2742 108.863 72.4689 109.818 71.7765C110.296 71.4304 110.636 71.1036 110.868 70.8117C110.983 70.6663 111.079 70.5196 111.149 70.3744C111.21 70.2502 111.291 70.0495 111.291 69.8149H109.541C109.541 69.66 109.591 69.5782 109.577 69.6069C109.573 69.6146 109.551 69.6549 109.496 69.7252C109.385 69.8647 109.17 70.0848 108.791 70.3596C108.033 70.909 106.669 71.6417 104.324 72.3748L104.846 74.0451ZM87.3169 76.3179C93.912 76.3179 100.131 75.5143 104.845 74.0453L104.324 72.3745C99.8257 73.7765 93.7918 74.5679 87.3169 74.5679V76.3179ZM69.8381 74.1149C74.4837 75.5377 80.702 76.3179 87.3169 76.3179V74.5679C80.8163 74.5679 74.7815 73.7987 70.3506 72.4416L69.8381 74.1149ZM63.4331 69.9288C63.4331 70.152 63.5042 70.3466 63.5665 70.48C63.6359 70.6288 63.7305 70.778 63.845 70.9251C64.0742 71.22 64.4123 71.5448 64.8855 71.886C65.8317 72.5683 67.3733 73.3561 69.8369 74.1145L70.3518 72.442C68.0049 71.7194 66.6534 71.0033 65.9091 70.4666C65.537 70.1983 65.3306 69.9848 65.2265 69.851C65.1743 69.7838 65.1552 69.7461 65.1524 69.7402C65.1425 69.7189 65.1831 69.7911 65.1831 69.9288H63.4331ZM63.4331 69.8832V69.9288H65.1831V69.8832H63.4331ZM63.3424 63.3331L63.4332 69.8953L65.183 69.8711L65.0923 63.3089L63.3424 63.3331ZM70.0624 64.5242C68.1653 64.0369 66.3367 63.3729 64.5979 62.5331L63.8368 64.1089C65.6832 65.0007 67.6213 65.7039 69.6271 66.2192L70.0624 64.5242ZM86.8857 66.4562C80.704 66.4562 74.7452 65.7557 70.0673 64.5255L69.6222 66.2179C74.4746 67.4941 80.5874 68.2062 86.8857 68.2062V66.4562ZM105.327 64.1021C100.372 65.6192 93.8376 66.4562 86.8857 66.4562V68.2062C93.957 68.2062 100.674 67.3571 105.839 65.7754L105.327 64.1021ZM109.992 62.1725C108.74 62.9691 106.958 63.6018 105.327 64.1023L105.84 65.7753C107.476 65.2731 109.461 64.5843 110.931 63.6492L109.992 62.1725ZM111.291 69.8206L111.337 62.9166L109.587 62.9051L109.541 69.8091L111.291 69.8206ZM41.6185 60.2768C41.1442 58.6258 39.3829 57.6472 37.7099 58.1544L38.2176 59.8291C38.9499 59.6071 39.73 60.0413 39.9365 60.76L41.6185 60.2768ZM39.511 64.1811C41.1724 63.6775 42.1204 61.9146 41.6141 60.262L39.9409 60.7747C40.1606 61.4918 39.7472 62.2809 39.0033 62.5064L39.511 64.1811ZM37.9881 64.6376L39.5084 64.1819L39.0059 62.5056L37.4856 62.9613L37.9881 64.6376ZM29.2549 63.8693C31.9572 65.2754 35.1015 65.5466 37.9996 64.6341L37.4741 62.9649C35.0172 63.7385 32.3525 63.5084 30.0627 62.3169L29.2549 63.8693ZM26.7771 63.2618C27.6313 63.2618 28.4928 63.4769 29.2582 63.8711L30.0594 62.3152C29.0549 61.7979 27.9196 61.5118 26.7771 61.5118V63.2618ZM26.1078 63.3037C26.3642 63.2803 26.574 63.2618 26.7771 63.2618V61.5118C26.4809 61.5118 26.1915 61.5388 25.9487 61.561L26.1078 63.3037ZM21.8877 63.8026L26.1309 63.3013L25.9256 61.5634L21.6824 62.0647L21.8877 63.8026ZM19.6476 63.1997C20.2818 63.6773 21.0979 63.8978 21.8897 63.8024L21.6804 62.0649C21.3376 62.1062 20.9738 62.0077 20.7004 61.8018L19.6476 63.1997ZM18.9908 58.7947C17.9557 60.212 18.2729 62.1644 19.6476 63.1997L20.7004 61.8018C20.0782 61.3332 19.9415 60.4601 20.4041 59.8268L18.9908 58.7947ZM20.15 57.2198L18.9928 58.792L20.4021 59.8294L21.5594 58.2572L20.15 57.2198ZM21.5025 53.5257C21.401 54.8703 20.9349 56.1487 20.1489 57.2213L21.5605 58.2557C22.5444 56.9131 23.1221 55.3205 23.2475 53.6574L21.5025 53.5257ZM21.5282 53.3295C21.5233 53.354 21.5 53.4606 21.5 53.5916H23.25C23.25 53.6542 23.238 53.7038 23.2445 53.6713L21.5282 53.3295ZM21.5227 53.4093C21.5227 53.3466 21.5347 53.297 21.5282 53.3295L23.2445 53.6713C23.2494 53.6469 23.2727 53.5403 23.2727 53.4093H21.5227ZM21.5908 51.7915C21.5908 52.224 21.569 52.815 21.5257 53.3369L23.2697 53.4817C23.3171 52.9098 23.3408 52.2705 23.3408 51.7915H21.5908ZM17.6326 52.6665H22.4658V50.9165H17.6326V52.6665ZM14.4885 49.513C14.4885 51.246 15.8979 52.6665 17.6326 52.6665V50.9165C16.8712 50.9165 16.2385 50.2863 16.2385 49.513H14.4885ZM17.6326 46.3594C15.8979 46.3594 14.4885 47.7799 14.4885 49.513H16.2385C16.2385 48.7396 16.8712 48.1094 17.6326 48.1094V46.3594ZM22.1254 46.3594H17.6326V48.1094H22.1254V46.3594ZM20.8889 45.4566C21.0445 46.104 21.1729 46.7089 21.258 47.3496L22.9928 47.1192C22.8963 46.3928 22.7525 45.7217 22.5904 45.0476L20.8889 45.4566ZM20.2521 40.708C20.2758 42.3025 20.4889 43.9217 20.8929 45.4726L22.5864 45.0315C22.2189 43.6203 22.0236 42.1407 22.0019 40.682L20.2521 40.708ZM22.9861 33.8062C21.2459 35.6535 20.252 38.1234 20.252 40.695H22.002C22.002 38.5727 22.8233 36.5311 24.2599 35.0061L22.9861 33.8062ZM23.0257 33.7659L23.003 33.7887L24.243 35.0236L24.2657 35.0008L23.0257 33.7659ZM26.2124 31.5938C25.0217 32.092 23.9182 32.8195 23.0092 33.7829L24.2822 34.9838C25.0069 34.2156 25.9003 33.6214 26.8879 33.2082L26.2124 31.5938ZM30.1807 30.8197C28.8252 30.8197 27.4855 31.0674 26.2158 31.5924L26.8845 33.2096C27.9293 32.7776 29.0402 32.5697 30.1807 32.5697V30.8197ZM39.7503 38.3043C39.2598 35.9769 38.1413 34.0875 36.4711 32.7848C34.804 31.4846 32.6528 30.8197 30.1807 30.8197V32.5697C32.3376 32.5697 34.0894 33.1466 35.3948 34.1647C36.6971 35.1805 37.6208 36.6861 38.0379 38.6652L39.7503 38.3043ZM39.7691 38.5303V38.4848H38.0191V38.5303H39.7691ZM37.2996 42.0763C39.0017 41.7281 40.0964 40.056 39.7516 38.3564L38.0366 38.7043C38.191 39.4655 37.6974 40.2087 36.9489 40.3618L37.2996 42.0763ZM33.5891 39.6157C33.9344 41.318 35.598 42.4243 37.2996 42.0763L36.9489 40.3618C36.1998 40.515 35.4581 40.0264 35.3042 39.2678L33.5891 39.6157ZM30.158 37.1496C31.611 37.1496 32.3668 37.5471 32.7942 37.9685C33.2427 38.4108 33.4566 39.0017 33.5913 39.6263L35.302 39.2572C35.1418 38.5147 34.8337 37.5219 34.0229 36.7224C33.191 35.9021 31.9499 35.3996 30.158 35.3996V37.1496ZM28.6395 37.4445C29.1091 37.245 29.6262 37.1496 30.158 37.1496V35.3996C29.4192 35.3996 28.6656 35.532 27.9552 35.8338L28.6395 37.4445ZM27.4878 38.2136C27.8065 37.8935 28.2093 37.6324 28.6475 37.441L27.9473 35.8372C27.3417 36.1016 26.746 36.4785 26.2478 36.9787L27.4878 38.2136ZM26.7755 39.3493C26.9386 38.9307 27.1955 38.5249 27.5052 38.1956L26.2305 36.9966C25.7687 37.4877 25.3902 38.0844 25.1449 38.7139L26.7755 39.3493ZM26.5175 40.7405C26.5175 40.2622 26.6087 39.7961 26.7799 39.3377L25.1405 38.7255C24.9032 39.3608 24.7675 40.034 24.7675 40.7405H26.5175ZM26.9888 44.0074C26.711 42.9347 26.5601 41.8354 26.5169 40.707L24.7682 40.774C24.8157 42.0154 24.9824 43.2402 25.2947 44.446L26.9888 44.0074ZM27.5764 47.1648C27.437 46.1149 27.25 45.0565 26.9908 44.0153L25.2926 44.4381C25.5326 45.4021 25.7087 46.3943 25.8416 47.3951L27.5764 47.1648ZM31.9053 46.405H26.709V48.155H31.9053V46.405ZM35.0494 49.5585C35.0494 47.8255 33.6399 46.405 31.9053 46.405V48.155C32.6666 48.155 33.2994 48.7851 33.2994 49.5585H35.0494ZM31.9053 52.7121C33.6399 52.7121 35.0494 51.2916 35.0494 49.5585H33.2994C33.2994 50.3319 32.6666 50.9621 31.9053 50.9621V52.7121ZM26.9813 52.7121H31.9053V50.9621H26.9813V52.7121ZM27.7637 53.9895C27.8088 53.2885 27.8563 52.5536 27.8563 51.8371H26.1063C26.1063 52.4876 26.0631 53.1655 26.0173 53.8772L27.7637 53.9895ZM27.7373 54.1954C27.7422 54.1709 27.7655 54.0643 27.7655 53.9333H26.0155C26.0155 53.8707 26.0275 53.8212 26.021 53.8536L27.7373 54.1954ZM27.7428 54.1156C27.7428 54.1783 27.7309 54.2278 27.7373 54.1954L26.021 53.8536C26.0161 53.8781 25.9928 53.9847 25.9928 54.1156H27.7428ZM26.7461 58.2323C27.2783 56.9449 27.6181 55.582 27.7395 54.1918L25.9962 54.0395C25.8907 55.2468 25.5951 56.4359 25.1289 57.5638L26.7461 58.2323ZM25.933 57.0208L25.8698 57.0257L26.0052 58.7704L26.0684 58.7655L25.933 57.0208ZM26.7771 56.9775C26.4845 56.9775 26.1975 57.0002 25.9329 57.0208L26.0684 58.7655C26.3457 58.744 26.5641 58.7275 26.7771 58.7275V56.9775ZM32.121 58.2577C30.4775 57.4202 28.6395 56.9775 26.7771 56.9775V58.7275C28.3637 58.7275 29.9294 59.105 31.3265 59.8169L32.121 58.2577ZM36.1877 58.6107C34.8363 59.0237 33.3916 58.9054 32.1211 58.2578L31.3263 59.8169C33.0057 60.673 34.9192 60.8282 36.6992 60.2842L36.1877 58.6107ZM37.7125 58.1536L36.1922 58.6093L36.6947 60.2856L38.215 59.8299L37.7125 58.1536Z" fill="#007AFF" fill-opacity="0.04"/>
</svg>
