<svg width="102" height="101" viewBox="0 0 102 101" fill="none" xmlns="http://www.w3.org/2000/svg">
<path d="M97.1599 37.732L94.1588 36.8565C93.495 36.6457 92.9735 36.128 92.7576 35.4658C92.1833 33.8111 91.5104 32.1922 90.7425 30.6179C90.4706 30.0243 90.4982 29.3367 90.8166 28.7668L92.2954 26.0586C93.4378 23.9676 93.0688 21.3742 91.3886 19.6848L81.3335 9.61226C79.6481 7.93278 77.0591 7.56106 74.9693 8.69847L72.2323 10.1834C71.6136 10.5092 70.8749 10.5127 70.253 10.193C68.7401 9.43757 67.1757 8.78987 65.5716 8.25467C63.8442 7.74099 63.8747 5.41882 63.267 3.83574C62.6044 1.55078 60.5044 -0.0158011 58.1254 0.000120247H43.8746C41.4941 -0.01545 39.3933 1.55319 38.732 3.84009L37.8548 6.84832C37.6369 7.52348 37.1025 8.04938 36.424 8.25649C34.8244 8.78999 33.2644 9.43563 31.7557 10.1886C31.13 10.5124 30.3855 10.5095 29.7624 10.1808L27.0411 8.70458C24.9492 7.56259 22.3553 7.93223 20.6656 9.61313L10.6123 19.684C8.93262 21.3713 8.56197 23.962 9.7011 26.0526L11.1834 28.7677C11.5096 29.3864 11.5132 30.1253 11.193 30.747C10.4376 32.26 9.78987 33.8243 9.25467 35.4284C8.74458 37.1537 6.41414 37.1273 4.83574 37.7329C2.5508 38.3956 0.984245 40.4956 1.00012 42.8746V57.1254C0.984549 59.5059 2.55319 61.6067 4.84009 62.268L7.84126 63.1435C8.50505 63.3543 9.02662 63.872 9.24246 64.5342C9.81674 66.1889 10.4896 67.8078 11.2575 69.3821C11.5293 69.9757 11.5018 70.6633 11.1834 71.2332L9.70458 73.9414C8.56211 76.0329 8.93143 78.6267 10.6123 80.3161C11.7743 81.3467 13.276 83.8157 15.0129 82.1906C17.3631 79.5525 11.3894 78.2906 12.8348 75.66L14.3145 72.95C16.2819 69.6548 13.5435 66.5103 12.6098 63.344C12.0048 61.6012 10.6034 60.2523 8.83876 59.7142L5.84368 58.8405C5.08343 58.6181 4.56371 57.9174 4.57154 57.1254V42.8746C4.56336 42.084 5.08104 41.384 5.83939 41.1603L8.83012 40.2884C10.6309 39.7505 12.0533 38.3634 12.6361 36.5766C13.6119 33.2486 16.2435 30.3894 14.3171 27.0542L12.8313 24.3338C12.452 23.6354 12.5769 22.7707 13.1383 22.2081L23.1916 12.1373C24.5772 10.7188 26.5037 12.6455 28.0535 13.3169C31.3846 15.243 34.2453 12.6201 37.5723 11.6376C39.3582 11.0568 40.7458 9.63733 41.2859 7.83871L42.1595 4.84363C42.3819 4.08341 43.0826 3.56371 43.8746 3.57154H58.1254C58.916 3.56336 59.616 4.08104 59.8397 4.83939C60.5874 7.64101 61.2436 10.6654 64.4235 11.636C67.7482 12.6092 70.6124 15.244 73.9413 13.3196L76.6835 11.8314C77.3813 11.453 78.2446 11.577 78.8076 12.1366L88.8626 22.209C89.4246 22.7738 89.5478 23.6411 89.1652 24.34L87.6856 27.0501C85.7175 30.3459 88.4572 33.4891 89.3902 36.6561C89.9953 38.3989 91.3967 39.7478 93.1613 40.2859L96.1564 41.1596C96.9166 41.382 97.4363 42.0826 97.4285 42.8746V57.1254C97.4366 57.916 96.919 58.616 96.1606 58.8397L93.1699 59.7116C89.5768 60.5078 89.0613 65.0294 87.6167 67.6489C86.7699 69.3188 86.7946 71.2975 87.6828 72.9457L89.1685 75.6662C89.5478 76.3642 89.4233 77.2284 88.8625 77.791L78.791 87.8626C78.2255 88.4231 77.3592 88.5461 76.66 88.1652L73.95 86.6856C70.6542 84.7142 67.5114 87.4579 64.344 88.3902C62.6012 88.9953 61.2523 90.3967 60.7142 92.1613L59.8405 95.1564C59.6181 95.9166 58.9174 96.4363 58.1254 96.4285H43.8746C43.084 96.4366 42.384 95.919 42.1603 95.1606L41.2884 92.1699C40.7505 90.3691 39.3634 88.9467 37.5766 88.3639C34.2498 87.3885 31.3877 84.7549 28.0543 86.6829L25.3338 88.1687C24.6357 88.5472 23.7719 88.4228 23.209 87.8626C22.0508 86.816 20.5303 84.3695 18.8092 85.9871C18.1119 86.6842 18.1115 87.8146 18.8083 88.5122L20.6839 90.3877C22.3714 92.0669 24.9618 92.4375 27.0524 91.2989L29.7676 89.8166C30.3863 89.4908 31.125 89.4873 31.7469 89.807C33.2598 90.5624 34.8242 91.2101 36.4283 91.7453C38.1559 92.2586 38.1248 94.5808 38.7329 96.1642C39.3955 98.4492 41.4955 100.016 43.8746 99.9999H58.1254C60.5059 100.015 62.6067 98.4468 63.268 96.1599L64.1435 93.1587C64.3543 92.495 64.872 91.9734 65.5342 91.7575C67.1889 91.1833 68.8078 90.5104 70.3821 89.7425C70.9758 89.4715 71.663 89.499 72.2332 89.8166L74.9414 91.2954C77.0327 92.4389 79.6271 92.0694 81.3161 90.3877L91.3877 80.3161C93.0674 78.6288 93.438 76.0381 92.2989 73.9475L90.8166 71.2323C90.4904 70.6137 90.4868 69.8748 90.807 69.2531C91.5624 67.7401 92.2101 66.1758 92.7453 64.5717C92.9543 63.8922 93.483 63.3582 94.1605 63.1426L97.1643 62.2672C99.4492 61.6045 101.016 59.5045 101 57.1254V42.8746C101.015 40.4941 99.4468 38.3933 97.1599 37.732Z" fill="#007AFF"/>
<path d="M97.1599 37.732L94.1588 36.8565C93.495 36.6457 92.9735 36.128 92.7576 35.4658C92.1833 33.8111 91.5104 32.1922 90.7425 30.6179C90.4706 30.0243 90.4982 29.3367 90.8166 28.7668L92.2954 26.0586C93.4378 23.9676 93.0688 21.3742 91.3886 19.6848L81.3335 9.61226C79.6481 7.93278 77.0591 7.56106 74.9693 8.69847L72.2323 10.1834C71.6136 10.5092 70.8749 10.5127 70.253 10.193C68.7401 9.43757 67.1757 8.78987 65.5716 8.25467C63.8442 7.74099 63.8747 5.41882 63.267 3.83574C62.6044 1.55078 60.5044 -0.0158011 58.1254 0.000120247H43.8746C41.4941 -0.01545 39.3933 1.55319 38.732 3.84009L37.8548 6.84832C37.6369 7.52348 37.1025 8.04938 36.424 8.25649C34.8244 8.78999 33.2644 9.43563 31.7557 10.1886C31.13 10.5124 30.3855 10.5095 29.7624 10.1808L27.0411 8.70458C24.9492 7.56259 22.3553 7.93223 20.6656 9.61313L10.6123 19.684C8.93262 21.3713 8.56197 23.962 9.7011 26.0526L11.1834 28.7677C11.5096 29.3864 11.5132 30.1253 11.193 30.747C10.4376 32.26 9.78987 33.8243 9.25467 35.4284C8.74458 37.1537 6.41414 37.1273 4.83574 37.7329C2.5508 38.3956 0.984245 40.4956 1.00012 42.8746V57.1254C0.984549 59.5059 2.55319 61.6067 4.84009 62.268L7.84126 63.1435C8.50505 63.3543 9.02662 63.872 9.24246 64.5342C9.81674 66.1889 10.4896 67.8078 11.2575 69.3821C11.5293 69.9757 11.5018 70.6633 11.1834 71.2332L9.70458 73.9414C8.56211 76.0329 8.93143 78.6267 10.6123 80.3161C11.7743 81.3467 13.276 83.8157 15.0129 82.1906C17.3631 79.5525 11.3894 78.2906 12.8348 75.66L14.3145 72.95C16.2819 69.6548 13.5435 66.5103 12.6098 63.344C12.0048 61.6012 10.6034 60.2523 8.83876 59.7142L5.84368 58.8405C5.08343 58.6181 4.56371 57.9174 4.57154 57.1254V42.8746C4.56336 42.084 5.08104 41.384 5.83939 41.1603L8.83012 40.2884C10.6309 39.7505 12.0533 38.3634 12.6361 36.5766C13.6119 33.2486 16.2435 30.3894 14.3171 27.0542L12.8313 24.3338C12.452 23.6354 12.5769 22.7707 13.1383 22.2081L23.1916 12.1373C24.5772 10.7188 26.5037 12.6455 28.0535 13.3169C31.3846 15.243 34.2453 12.6201 37.5723 11.6376C39.3582 11.0568 40.7458 9.63733 41.2859 7.83871L42.1595 4.84363C42.3819 4.08341 43.0826 3.56371 43.8746 3.57154H58.1254C58.916 3.56336 59.616 4.08104 59.8397 4.83939C60.5874 7.64101 61.2436 10.6654 64.4235 11.636C67.7482 12.6092 70.6124 15.244 73.9413 13.3196L76.6835 11.8314C77.3813 11.453 78.2446 11.577 78.8076 12.1366L88.8626 22.209C89.4246 22.7738 89.5478 23.6411 89.1652 24.34L87.6856 27.0501C85.7175 30.3459 88.4572 33.4891 89.3902 36.6561C89.9953 38.3989 91.3967 39.7478 93.1613 40.2859L96.1564 41.1596C96.9166 41.382 97.4363 42.0826 97.4285 42.8746V57.1254C97.4366 57.916 96.919 58.616 96.1606 58.8397L93.1699 59.7116C89.5768 60.5078 89.0613 65.0294 87.6167 67.6489C86.7699 69.3188 86.7946 71.2975 87.6828 72.9457L89.1685 75.6662C89.5478 76.3642 89.4233 77.2284 88.8625 77.791L78.791 87.8626C78.2255 88.4231 77.3592 88.5461 76.66 88.1652L73.95 86.6856C70.6542 84.7142 67.5114 87.4579 64.344 88.3902C62.6012 88.9953 61.2523 90.3967 60.7142 92.1613L59.8405 95.1564C59.6181 95.9166 58.9174 96.4363 58.1254 96.4285H43.8746C43.084 96.4366 42.384 95.919 42.1603 95.1606L41.2884 92.1699C40.7505 90.3691 39.3634 88.9467 37.5766 88.3639C34.2498 87.3885 31.3877 84.7549 28.0543 86.6829L25.3338 88.1687C24.6357 88.5472 23.7719 88.4228 23.209 87.8626C22.0508 86.816 20.5303 84.3695 18.8092 85.9871C18.1119 86.6842 18.1115 87.8146 18.8083 88.5122L20.6839 90.3877C22.3714 92.0669 24.9618 92.4375 27.0524 91.2989L29.7676 89.8166C30.3863 89.4908 31.125 89.4873 31.7469 89.807C33.2598 90.5624 34.8242 91.2101 36.4283 91.7453C38.1559 92.2586 38.1248 94.5808 38.7329 96.1642C39.3955 98.4492 41.4955 100.016 43.8746 99.9999H58.1254C60.5059 100.015 62.6067 98.4468 63.268 96.1599L64.1435 93.1587C64.3543 92.495 64.872 91.9734 65.5342 91.7575C67.1889 91.1833 68.8078 90.5104 70.3821 89.7425C70.9758 89.4715 71.663 89.499 72.2332 89.8166L74.9414 91.2954C77.0327 92.4389 79.6271 92.0694 81.3161 90.3877L91.3877 80.3161C93.0674 78.6288 93.438 76.0381 92.2989 73.9475L90.8166 71.2323C90.4904 70.6137 90.4868 69.8748 90.807 69.2531C91.5624 67.7401 92.2101 66.1758 92.7453 64.5717C92.9543 63.8922 93.483 63.3582 94.1605 63.1426L97.1643 62.2672C99.4492 61.6045 101.016 59.5045 101 57.1254V42.8746C101.015 40.4941 99.4468 38.3933 97.1599 37.732Z" stroke="white" stroke-width="0.75"/>
<path d="M97.1599 37.732L94.1588 36.8565C93.495 36.6457 92.9735 36.128 92.7576 35.4658C92.1833 33.8111 91.5104 32.1922 90.7425 30.6179C90.4706 30.0243 90.4982 29.3367 90.8166 28.7668L92.2954 26.0586C93.4378 23.9676 93.0688 21.3742 91.3886 19.6848L81.3335 9.61226C79.6481 7.93278 77.0591 7.56106 74.9693 8.69847L72.2323 10.1834C71.6136 10.5092 70.8749 10.5127 70.253 10.193C68.7401 9.43757 67.1757 8.78987 65.5716 8.25467C63.8442 7.74099 63.8747 5.41882 63.267 3.83574C62.6044 1.55078 60.5044 -0.0158011 58.1254 0.000120247H43.8746C41.4941 -0.01545 39.3933 1.55319 38.732 3.84009L37.8548 6.84832C37.6369 7.52348 37.1025 8.04938 36.424 8.25649C34.8244 8.78999 33.2644 9.43563 31.7557 10.1886C31.13 10.5124 30.3855 10.5095 29.7624 10.1808L27.0411 8.70458C24.9492 7.56259 22.3553 7.93223 20.6656 9.61313L10.6123 19.684C8.93262 21.3713 8.56197 23.962 9.7011 26.0526L11.1834 28.7677C11.5096 29.3864 11.5132 30.1253 11.193 30.747C10.4376 32.26 9.78987 33.8243 9.25467 35.4284C8.74458 37.1537 6.41414 37.1273 4.83574 37.7329C2.5508 38.3956 0.984245 40.4956 1.00012 42.8746V57.1254C0.984549 59.5059 2.55319 61.6067 4.84009 62.268L7.84126 63.1435C8.50505 63.3543 9.02662 63.872 9.24246 64.5342C9.81674 66.1889 10.4896 67.8078 11.2575 69.3821C11.5293 69.9757 11.5018 70.6633 11.1834 71.2332L9.70458 73.9414C8.56211 76.0329 8.93143 78.6267 10.6123 80.3161C11.7743 81.3467 13.276 83.8157 15.0129 82.1906C17.3631 79.5525 11.3894 78.2906 12.8348 75.66L14.3145 72.95C16.2819 69.6548 13.5435 66.5103 12.6098 63.344C12.0048 61.6012 10.6034 60.2523 8.83876 59.7142L5.84368 58.8405C5.08343 58.6181 4.56371 57.9174 4.57154 57.1254V42.8746C4.56336 42.084 5.08104 41.384 5.83939 41.1603L8.83012 40.2884C10.6309 39.7505 12.0533 38.3634 12.6361 36.5766C13.6119 33.2486 16.2435 30.3894 14.3171 27.0542L12.8313 24.3338C12.452 23.6354 12.5769 22.7707 13.1383 22.2081L23.1916 12.1373C24.5772 10.7188 26.5037 12.6455 28.0535 13.3169C31.3846 15.243 34.2453 12.6201 37.5723 11.6376C39.3582 11.0568 40.7458 9.63733 41.2859 7.83871L42.1595 4.84363C42.3819 4.08341 43.0826 3.56371 43.8746 3.57154H58.1254C58.916 3.56336 59.616 4.08104 59.8397 4.83939C60.5874 7.64101 61.2436 10.6654 64.4235 11.636C67.7482 12.6092 70.6124 15.244 73.9413 13.3196L76.6835 11.8314C77.3813 11.453 78.2446 11.577 78.8076 12.1366L88.8626 22.209C89.4246 22.7738 89.5478 23.6411 89.1652 24.34L87.6856 27.0501C85.7175 30.3459 88.4572 33.4891 89.3902 36.6561C89.9953 38.3989 91.3967 39.7478 93.1613 40.2859L96.1564 41.1596C96.9166 41.382 97.4363 42.0826 97.4285 42.8746V57.1254C97.4366 57.916 96.919 58.616 96.1606 58.8397L93.1699 59.7116C89.5768 60.5078 89.0613 65.0294 87.6167 67.6489C86.7699 69.3188 86.7946 71.2975 87.6828 72.9457L89.1685 75.6662C89.5478 76.3642 89.4233 77.2284 88.8625 77.791L78.791 87.8626C78.2255 88.4231 77.3592 88.5461 76.66 88.1652L73.95 86.6856C70.6542 84.7142 67.5114 87.4579 64.344 88.3902C62.6012 88.9953 61.2523 90.3967 60.7142 92.1613L59.8405 95.1564C59.6181 95.9166 58.9174 96.4363 58.1254 96.4285H43.8746C43.084 96.4366 42.384 95.919 42.1603 95.1606L41.2884 92.1699C40.7505 90.3691 39.3634 88.9467 37.5766 88.3639C34.2498 87.3885 31.3877 84.7549 28.0543 86.6829L25.3338 88.1687C24.6357 88.5472 23.7719 88.4228 23.209 87.8626C22.0508 86.816 20.5303 84.3695 18.8092 85.9871C18.1119 86.6842 18.1115 87.8146 18.8083 88.5122L20.6839 90.3877C22.3714 92.0669 24.9618 92.4375 27.0524 91.2989L29.7676 89.8166C30.3863 89.4908 31.125 89.4873 31.7469 89.807C33.2598 90.5624 34.8242 91.2101 36.4283 91.7453C38.1559 92.2586 38.1248 94.5808 38.7329 96.1642C39.3955 98.4492 41.4955 100.016 43.8746 99.9999H58.1254C60.5059 100.015 62.6067 98.4468 63.268 96.1599L64.1435 93.1587C64.3543 92.495 64.872 91.9734 65.5342 91.7575C67.1889 91.1833 68.8078 90.5104 70.3821 89.7425C70.9758 89.4715 71.663 89.499 72.2332 89.8166L74.9414 91.2954C77.0327 92.4389 79.6271 92.0694 81.3161 90.3877L91.3877 80.3161C93.0674 78.6288 93.438 76.0381 92.2989 73.9475L90.8166 71.2323C90.4904 70.6137 90.4868 69.8748 90.807 69.2531C91.5624 67.7401 92.2101 66.1758 92.7453 64.5717C92.9543 63.8922 93.483 63.3582 94.1605 63.1426L97.1643 62.2672C99.4492 61.6045 101.016 59.5045 101 57.1254V42.8746C101.015 40.4941 99.4468 38.3933 97.1599 37.732Z" stroke="#007AFF" stroke-opacity="0.04" stroke-width="0.75"/>
<path d="M50.9977 16.0714C32.2684 16.0927 17.0905 31.2705 17.0692 49.9999C16.6853 68.2084 32.7774 84.3145 50.9979 83.928C78.6644 84.1715 94.9806 51.4658 78.0811 29.5818C77.4797 28.8143 76.3738 28.6712 75.5968 29.2603C74.8198 29.8494 74.659 30.9529 75.2356 31.7392C90.346 51.3205 75.7507 80.5755 50.9973 80.3568C41.4707 80.3627 32.4962 75.8869 26.7694 68.2737C6.18408 39.8623 40.8153 5.1899 69.2614 25.7649C70.0494 26.3338 71.1478 26.1684 71.7332 25.3925C72.3187 24.6166 72.1764 23.515 71.413 22.9133C65.5415 18.4571 58.3687 16.0532 50.9977 16.0714Z" fill="#007AFF"/>
<path d="M50.9977 16.0714C32.2684 16.0927 17.0905 31.2705 17.0692 49.9999C16.6853 68.2084 32.7774 84.3145 50.9979 83.928C78.6644 84.1715 94.9806 51.4658 78.0811 29.5818C77.4797 28.8143 76.3738 28.6712 75.5968 29.2603C74.8198 29.8494 74.659 30.9529 75.2356 31.7392C90.346 51.3205 75.7507 80.5755 50.9973 80.3568C41.4707 80.3627 32.4962 75.8869 26.7694 68.2737C6.18408 39.8623 40.8153 5.1899 69.2614 25.7649C70.0494 26.3338 71.1478 26.1684 71.7332 25.3925C72.3187 24.6166 72.1764 23.515 71.413 22.9133C65.5415 18.4571 58.3687 16.0532 50.9977 16.0714Z" stroke="white" stroke-width="0.75"/>
<path d="M50.9977 16.0714C32.2684 16.0927 17.0905 31.2705 17.0692 49.9999C16.6853 68.2084 32.7774 84.3145 50.9979 83.928C78.6644 84.1715 94.9806 51.4658 78.0811 29.5818C77.4797 28.8143 76.3738 28.6712 75.5968 29.2603C74.8198 29.8494 74.659 30.9529 75.2356 31.7392C90.346 51.3205 75.7507 80.5755 50.9973 80.3568C41.4707 80.3627 32.4962 75.8869 26.7694 68.2737C6.18408 39.8623 40.8153 5.1899 69.2614 25.7649C70.0494 26.3338 71.1478 26.1684 71.7332 25.3925C72.3187 24.6166 72.1764 23.515 71.413 22.9133C65.5415 18.4571 58.3687 16.0532 50.9977 16.0714Z" stroke="#007AFF" stroke-opacity="0.04" stroke-width="0.75"/>
<path d="M67.3343 54.2386C67.3839 54.2756 67.4356 54.3099 67.489 54.3412C68.185 54.9305 69.217 54.8857 69.8594 54.2384L75.8112 48.2868C76.4855 47.5857 76.4747 46.4738 75.7868 45.786C75.0989 45.0981 73.9871 45.0874 73.286 45.7618L70.5703 48.4775C69.3574 30.9088 46.485 23.8626 35.6344 37.7638C35.0416 38.5369 35.1777 39.6423 35.9402 40.2486C36.7027 40.8549 37.8104 40.7384 38.4301 39.9868C42.557 34.8099 49.4371 32.695 55.7593 34.6598C62.0816 36.6246 66.551 42.2667 67.0166 48.8709L63.9068 45.7617C63.2057 45.0872 62.0938 45.0979 61.4059 45.7859C60.718 46.4738 60.7073 47.5857 61.3818 48.2868L67.3343 54.2386Z" fill="#007AFF"/>
<path d="M67.3343 54.2386C67.3839 54.2756 67.4356 54.3099 67.489 54.3412C68.185 54.9305 69.217 54.8857 69.8594 54.2384L75.8112 48.2868C76.4855 47.5857 76.4747 46.4738 75.7868 45.786C75.0989 45.0981 73.9871 45.0874 73.286 45.7618L70.5703 48.4775C69.3574 30.9088 46.485 23.8626 35.6344 37.7638C35.0416 38.5369 35.1777 39.6423 35.9402 40.2486C36.7027 40.8549 37.8104 40.7384 38.4301 39.9868C42.557 34.8099 49.4371 32.695 55.7593 34.6598C62.0816 36.6246 66.551 42.2667 67.0166 48.8709L63.9068 45.7617C63.2057 45.0872 62.0938 45.0979 61.4059 45.7859C60.718 46.4738 60.7073 47.5857 61.3818 48.2868L67.3343 54.2386Z" stroke="white" stroke-width="0.75"/>
<path d="M67.3343 54.2386C67.3839 54.2756 67.4356 54.3099 67.489 54.3412C68.185 54.9305 69.217 54.8857 69.8594 54.2384L75.8112 48.2868C76.4855 47.5857 76.4747 46.4738 75.7868 45.786C75.0989 45.0981 73.9871 45.0874 73.286 45.7618L70.5703 48.4775C69.3574 30.9088 46.485 23.8626 35.6344 37.7638C35.0416 38.5369 35.1777 39.6423 35.9402 40.2486C36.7027 40.8549 37.8104 40.7384 38.4301 39.9868C42.557 34.8099 49.4371 32.695 55.7593 34.6598C62.0816 36.6246 66.551 42.2667 67.0166 48.8709L63.9068 45.7617C63.2057 45.0872 62.0938 45.0979 61.4059 45.7859C60.718 46.4738 60.7073 47.5857 61.3818 48.2868L67.3343 54.2386Z" stroke="#007AFF" stroke-opacity="0.04" stroke-width="0.75"/>
<path d="M40.6157 51.7663L34.6631 45.8145C34.6135 45.7774 34.5619 45.7431 34.5085 45.7118C33.8124 45.1226 32.7804 45.1673 32.138 45.8146L26.1862 51.7663C25.5119 52.4674 25.5227 53.5792 26.2106 54.2671C26.8985 54.9549 28.0104 54.9657 28.7114 54.2913L31.4272 51.5755C32.64 69.1442 55.5125 76.1904 66.3631 62.2892C66.9545 61.5161 66.818 60.4117 66.0561 59.8059C65.2942 59.2001 64.1875 59.3158 63.5674 60.0662C59.4405 65.2432 52.5604 67.3581 46.2381 65.3933C39.9158 63.4285 35.4464 57.7863 34.9808 51.1822L38.0907 54.2914C38.792 54.9645 39.9028 54.9531 40.5901 54.2657C41.2774 53.5784 41.2888 52.4675 40.6157 51.7663Z" fill="#007AFF"/>
<path d="M40.6157 51.7663L34.6631 45.8145C34.6135 45.7774 34.5619 45.7431 34.5085 45.7118C33.8124 45.1226 32.7804 45.1673 32.138 45.8146L26.1862 51.7663C25.5119 52.4674 25.5227 53.5792 26.2106 54.2671C26.8985 54.9549 28.0104 54.9657 28.7114 54.2913L31.4272 51.5755C32.64 69.1442 55.5125 76.1904 66.3631 62.2892C66.9545 61.5161 66.818 60.4117 66.0561 59.8059C65.2942 59.2001 64.1875 59.3158 63.5674 60.0662C59.4405 65.2432 52.5604 67.3581 46.2381 65.3933C39.9158 63.4285 35.4464 57.7863 34.9808 51.1822L38.0907 54.2914C38.792 54.9645 39.9028 54.9531 40.5901 54.2657C41.2774 53.5784 41.2888 52.4675 40.6157 51.7663Z" stroke="white" stroke-width="0.75"/>
<path d="M40.6157 51.7663L34.6631 45.8145C34.6135 45.7774 34.5619 45.7431 34.5085 45.7118C33.8124 45.1226 32.7804 45.1673 32.138 45.8146L26.1862 51.7663C25.5119 52.4674 25.5227 53.5792 26.2106 54.2671C26.8985 54.9549 28.0104 54.9657 28.7114 54.2913L31.4272 51.5755C32.64 69.1442 55.5125 76.1904 66.3631 62.2892C66.9545 61.5161 66.818 60.4117 66.0561 59.8059C65.2942 59.2001 64.1875 59.3158 63.5674 60.0662C59.4405 65.2432 52.5604 67.3581 46.2381 65.3933C39.9158 63.4285 35.4464 57.7863 34.9808 51.1822L38.0907 54.2914C38.792 54.9645 39.9028 54.9531 40.5901 54.2657C41.2774 53.5784 41.2888 52.4675 40.6157 51.7663Z" stroke="#007AFF" stroke-opacity="0.04" stroke-width="0.75"/>
</svg>
