<svg width="100" height="100" viewBox="0 0 100 100" fill="none" xmlns="http://www.w3.org/2000/svg">
<g clip-path="url(#clip0_0_4541)">
<path fill-rule="evenodd" clip-rule="evenodd" d="M62.1429 14.2857H74.2857L81.4286 14.2857C83.7955 14.2857 85.7143 16.2045 85.7143 18.5714V25.7143V37.8571V50V62.1429V74.2857V81.4286C85.7143 83.7955 83.7955 85.7143 81.4286 85.7143H74.2857H62.1429H50H37.8571H25.7143H18.5714C16.2045 85.7143 14.2857 83.7955 14.2857 81.4286L14.2857 74.2857V62.1429V50V37.8571V25.7143L14.2857 18.5714C14.2857 16.2045 16.2045 14.2857 18.5714 14.2857L25.7143 14.2857H37.8571H50H62.1429ZM11.4286 27.1429V36.4286H1.42857C0.639593 36.4286 0 37.0682 0 37.8571C0 38.6461 0.639593 39.2857 1.42857 39.2857H11.4286V48.5714H1.42857C0.639593 48.5714 0 49.211 0 50C0 50.789 0.639593 51.4286 1.42857 51.4286H11.4286V60.7143H1.42857C0.639593 60.7143 0 61.3539 0 62.1429C0 62.9318 0.639593 63.5714 1.42857 63.5714H11.4286V72.8571H1.42857C0.639593 72.8571 0 73.4967 0 74.2857C0 75.0747 0.639593 75.7143 1.42857 75.7143H11.4286V81.4286C11.4333 85.3715 14.6285 88.5667 18.5714 88.5714H24.2857V98.5714C24.2857 99.3604 24.9253 100 25.7143 100C26.5033 100 27.1429 99.3604 27.1429 98.5714V88.5714H36.4286V98.5714C36.4286 99.3604 37.0682 100 37.8571 100C38.6461 100 39.2857 99.3604 39.2857 98.5714V88.5714H48.5714V98.5714C48.5714 99.3604 49.211 100 50 100C50.789 100 51.4286 99.3604 51.4286 98.5714V88.5714H60.7143V98.5714C60.7143 99.3604 61.3539 100 62.1429 100C62.9318 100 63.5714 99.3604 63.5714 98.5714V88.5714H72.8571V98.5714C72.8571 99.3604 73.4967 100 74.2857 100C75.0747 100 75.7143 99.3604 75.7143 98.5714V88.5714H81.4286C85.3715 88.5667 88.5667 85.3715 88.5714 81.4286V75.7143H98.5714C99.3604 75.7143 100 75.0747 100 74.2857C100 73.4967 99.3604 72.8571 98.5714 72.8571H88.5714V63.5714H98.5714C99.3604 63.5714 100 62.9318 100 62.1429C100 61.3539 99.3604 60.7143 98.5714 60.7143H88.5714V51.4286H98.5714C99.3604 51.4286 100 50.789 100 50C100 49.211 99.3604 48.5714 98.5714 48.5714H88.5714V39.2857H98.5714C99.3604 39.2857 100 38.6461 100 37.8571C100 37.0682 99.3604 36.4286 98.5714 36.4286H88.5714V27.1429H98.5714C99.3604 27.1429 100 26.5033 100 25.7143C100 24.9253 99.3604 24.2857 98.5714 24.2857H88.5714V18.5714C88.5667 14.6285 85.3715 11.4333 81.4286 11.4286H75.7143V1.42857C75.7143 0.639593 75.0747 0 74.2857 0C73.4967 0 72.8571 0.639593 72.8571 1.42857V11.4286H63.5714V1.42857C63.5714 0.639593 62.9318 0 62.1429 0C61.3539 0 60.7143 0.639593 60.7143 1.42857V11.4286H51.4286V1.42857C51.4286 0.639593 50.789 0 50 0C49.211 0 48.5714 0.639593 48.5714 1.42857V11.4286H39.2857V1.42857C39.2857 0.639593 38.6461 0 37.8571 0C37.0682 0 36.4286 0.639593 36.4286 1.42857V11.4286H27.1429V1.42857C27.1429 0.639593 26.5033 0 25.7143 0C24.9253 0 24.2857 0.639593 24.2857 1.42857V11.4286H18.5714C14.6285 11.4333 11.4333 14.6285 11.4286 18.5714V24.2857H1.42857C0.639593 24.2857 0 24.9253 0 25.7143C0 26.5033 0.639593 27.1429 1.42857 27.1429H11.4286ZM77.1429 44.9571C77.1429 45.7461 77.7825 46.3857 78.5714 46.3857C79.3604 46.3857 80 45.7461 80 44.9571V40.8C80 40.011 79.3604 39.3714 78.5714 39.3714C77.7825 39.3714 77.1429 40.011 77.1429 40.8V44.9571ZM75.7143 80H24.2857C21.9188 80 20 78.0812 20 75.7143V24.2857C20 21.9188 21.9188 20 24.2857 20H75.7143C78.0812 20 80 21.9188 80 24.2857V30.8C80 31.589 79.3604 32.2286 78.5714 32.2286C77.7825 32.2286 77.1429 31.589 77.1429 30.8V24.2857C77.1429 23.4967 76.5033 22.8571 75.7143 22.8571H24.2857C23.4967 22.8571 22.8571 23.4967 22.8571 24.2857V75.7143C22.8571 76.5033 23.4967 77.1429 24.2857 77.1429H75.7143C76.5033 77.1429 77.1429 76.5033 77.1429 75.7143V69.2C77.1429 68.411 77.7825 67.7714 78.5714 67.7714C79.3604 67.7714 80 68.411 80 69.2V75.7143C80 78.0812 78.0812 80 75.7143 80ZM77.1429 59.2C77.1429 59.989 77.7825 60.6286 78.5714 60.6286C79.3604 60.6286 80 59.989 80 59.2V54.9571C80 54.1682 79.3604 53.5286 78.5714 53.5286C77.7825 53.5286 77.1429 54.1682 77.1429 54.9571V59.2Z" fill="#007AFF"/>
<path d="M74.2857 14.2857V14.1607V14.2857ZM81.4286 14.2857V14.4107V14.2857ZM14.2857 81.4286H14.4107H14.2857ZM14.2857 74.2857H14.1607H14.2857ZM14.2857 25.7143H14.1607H14.2857ZM14.2857 18.5714H14.4107H14.2857ZM18.5714 14.2857V14.4107V14.2857ZM25.7143 14.2857V14.1607V14.2857ZM11.4286 27.1429H11.5536V27.0179H11.4286V27.1429ZM11.4286 36.4286V36.5536H11.5536V36.4286H11.4286ZM11.4286 39.2857H11.5536V39.1607H11.4286V39.2857ZM11.4286 48.5714V48.6964H11.5536V48.5714H11.4286ZM11.4286 51.4286H11.5536V51.3036H11.4286V51.4286ZM11.4286 60.7143V60.8393H11.5536V60.7143H11.4286ZM11.4286 63.5714H11.5536V63.4464H11.4286V63.5714ZM11.4286 72.8571V72.9821H11.5536V72.8571H11.4286ZM11.4286 75.7143H11.5536V75.5893H11.4286V75.7143ZM11.4286 81.4286H11.3036V81.4287L11.4286 81.4286ZM18.5714 88.5714L18.5713 88.6964H18.5714V88.5714ZM24.2857 88.5714H24.4107V88.4464H24.2857V88.5714ZM27.1429 88.5714V88.4464H27.0179V88.5714H27.1429ZM36.4286 88.5714H36.5536V88.4464H36.4286V88.5714ZM39.2857 88.5714V88.4464H39.1607V88.5714H39.2857ZM48.5714 88.5714H48.6964V88.4464H48.5714V88.5714ZM51.4286 88.5714V88.4464H51.3036V88.5714H51.4286ZM60.7143 88.5714H60.8393V88.4464H60.7143V88.5714ZM63.5714 88.5714V88.4464H63.4464V88.5714H63.5714ZM72.8571 88.5714H72.9821V88.4464H72.8571V88.5714ZM75.7143 88.5714V88.4464H75.5893V88.5714H75.7143ZM81.4286 88.5714V88.6964H81.4287L81.4286 88.5714ZM88.5714 81.4286L88.6964 81.4287V81.4286H88.5714ZM88.5714 75.7143V75.5893H88.4464V75.7143H88.5714ZM88.5714 72.8571H88.4464V72.9821H88.5714V72.8571ZM88.5714 63.5714V63.4464H88.4464V63.5714H88.5714ZM88.5714 60.7143H88.4464V60.8393H88.5714V60.7143ZM88.5714 51.4286V51.3036H88.4464V51.4286H88.5714ZM88.5714 48.5714H88.4464V48.6964H88.5714V48.5714ZM88.5714 39.2857V39.1607H88.4464V39.2857H88.5714ZM88.5714 36.4286H88.4464V36.5536H88.5714V36.4286ZM88.5714 27.1429V27.0179H88.4464V27.1429H88.5714ZM88.5714 24.2857H88.4464V24.4107H88.5714V24.2857ZM88.5714 18.5714H88.6964V18.5713L88.5714 18.5714ZM81.4286 11.4286L81.4287 11.3036H81.4286V11.4286ZM75.7143 11.4286H75.5893V11.5536H75.7143V11.4286ZM72.8571 11.4286V11.5536H72.9821V11.4286H72.8571ZM63.5714 11.4286H63.4464V11.5536H63.5714V11.4286ZM60.7143 11.4286V11.5536H60.8393V11.4286H60.7143ZM51.4286 11.4286H51.3036V11.5536H51.4286V11.4286ZM48.5714 11.4286V11.5536H48.6964V11.4286H48.5714ZM39.2857 11.4286H39.1607V11.5536H39.2857V11.4286ZM36.4286 11.4286V11.5536H36.5536V11.4286H36.4286ZM27.1429 11.4286H27.0179V11.5536H27.1429V11.4286ZM24.2857 11.4286V11.5536H24.4107V11.4286H24.2857ZM18.5714 11.4286V11.3036H18.5713L18.5714 11.4286ZM11.4286 18.5714L11.3036 18.5713V18.5714H11.4286ZM11.4286 24.2857V24.4107H11.5536V24.2857H11.4286ZM74.2857 14.1607H62.1429V14.4107H74.2857V14.1607ZM81.4286 14.1607L74.2857 14.1607V14.4107L81.4286 14.4107V14.1607ZM85.8393 18.5714C85.8393 16.1355 83.8645 14.1607 81.4286 14.1607V14.4107C83.7265 14.4107 85.5893 16.2735 85.5893 18.5714H85.8393ZM85.8393 25.7143V18.5714H85.5893V25.7143H85.8393ZM85.8393 37.8571V25.7143H85.5893V37.8571H85.8393ZM85.8393 50V37.8571H85.5893V50H85.8393ZM85.8393 62.1429V50H85.5893V62.1429H85.8393ZM85.8393 74.2857V62.1429H85.5893V74.2857H85.8393ZM85.8393 81.4286V74.2857H85.5893V81.4286H85.8393ZM81.4286 85.8393C83.8645 85.8393 85.8393 83.8645 85.8393 81.4286H85.5893C85.5893 83.7265 83.7265 85.5893 81.4286 85.5893V85.8393ZM74.2857 85.8393H81.4286V85.5893H74.2857V85.8393ZM62.1429 85.8393H74.2857V85.5893H62.1429V85.8393ZM50 85.8393H62.1429V85.5893H50V85.8393ZM37.8571 85.8393H50V85.5893H37.8571V85.8393ZM25.7143 85.8393H37.8571V85.5893H25.7143V85.8393ZM18.5714 85.8393H25.7143V85.5893H18.5714V85.8393ZM14.1607 81.4286C14.1607 83.8645 16.1355 85.8393 18.5714 85.8393V85.5893C16.2735 85.5893 14.4107 83.7265 14.4107 81.4286H14.1607ZM14.1607 74.2857L14.1607 81.4286H14.4107L14.4107 74.2857H14.1607ZM14.1607 62.1429V74.2857H14.4107V62.1429H14.1607ZM14.1607 50V62.1429H14.4107V50H14.1607ZM14.1607 37.8571V50H14.4107V37.8571H14.1607ZM14.1607 25.7143V37.8571H14.4107V25.7143H14.1607ZM14.1607 18.5714L14.1607 25.7143H14.4107L14.4107 18.5714H14.1607ZM18.5714 14.1607C16.1355 14.1607 14.1607 16.1355 14.1607 18.5714H14.4107C14.4107 16.2735 16.2735 14.4107 18.5714 14.4107V14.1607ZM25.7143 14.1607L18.5714 14.1607V14.4107L25.7143 14.4107V14.1607ZM37.8571 14.1607H25.7143V14.4107H37.8571V14.1607ZM50 14.1607H37.8571V14.4107H50V14.1607ZM62.1429 14.1607H50V14.4107H62.1429V14.1607ZM11.3036 27.1429V36.4286H11.5536V27.1429H11.3036ZM11.4286 36.3036H1.42857V36.5536H11.4286V36.3036ZM1.42857 36.3036C0.570558 36.3036 -0.125 36.9991 -0.125 37.8571H0.125C0.125 37.1372 0.708629 36.5536 1.42857 36.5536V36.3036ZM-0.125 37.8571C-0.125 38.7152 0.570557 39.4107 1.42857 39.4107V39.1607C0.708629 39.1607 0.125 38.5771 0.125 37.8571H-0.125ZM1.42857 39.4107H11.4286V39.1607H1.42857V39.4107ZM11.3036 39.2857V48.5714H11.5536V39.2857H11.3036ZM11.4286 48.4464H1.42857V48.6964H11.4286V48.4464ZM1.42857 48.4464C0.570558 48.4464 -0.125 49.142 -0.125 50H0.125C0.125 49.2801 0.708629 48.6964 1.42857 48.6964V48.4464ZM-0.125 50C-0.125 50.858 0.570557 51.5536 1.42857 51.5536V51.3036C0.708629 51.3036 0.125 50.7199 0.125 50H-0.125ZM1.42857 51.5536H11.4286V51.3036H1.42857V51.5536ZM11.3036 51.4286V60.7143H11.5536V51.4286H11.3036ZM11.4286 60.5893H1.42857V60.8393H11.4286V60.5893ZM1.42857 60.5893C0.570558 60.5893 -0.125 61.2848 -0.125 62.1429H0.125C0.125 61.4229 0.708629 60.8393 1.42857 60.8393V60.5893ZM-0.125 62.1429C-0.125 63.0009 0.570557 63.6964 1.42857 63.6964V63.4464C0.708629 63.4464 0.125 62.8628 0.125 62.1429H-0.125ZM1.42857 63.6964H11.4286V63.4464H1.42857V63.6964ZM11.3036 63.5714V72.8571H11.5536V63.5714H11.3036ZM11.4286 72.7321H1.42857V72.9821H11.4286V72.7321ZM1.42857 72.7321C0.570557 72.7321 -0.125 73.4277 -0.125 74.2857H0.125C0.125 73.5658 0.708629 72.9821 1.42857 72.9821V72.7321ZM-0.125 74.2857C-0.125 75.1437 0.570558 75.8393 1.42857 75.8393V75.5893C0.708628 75.5893 0.125 75.0057 0.125 74.2857H-0.125ZM1.42857 75.8393H11.4286V75.5893H1.42857V75.8393ZM11.3036 75.7143V81.4286H11.5536V75.7143H11.3036ZM11.3036 81.4287C11.3084 85.4406 14.5594 88.6916 18.5713 88.6964L18.5716 88.4464C14.6976 88.4418 11.5582 85.3024 11.5536 81.4284L11.3036 81.4287ZM18.5714 88.6964H24.2857V88.4464H18.5714V88.6964ZM24.1607 88.5714V98.5714H24.4107V88.5714H24.1607ZM24.1607 98.5714C24.1607 99.4294 24.8563 100.125 25.7143 100.125V99.875C24.9943 99.875 24.4107 99.2914 24.4107 98.5714H24.1607ZM25.7143 100.125C26.5723 100.125 27.2679 99.4294 27.2679 98.5714H27.0179C27.0179 99.2914 26.4342 99.875 25.7143 99.875V100.125ZM27.2679 98.5714V88.5714H27.0179V98.5714H27.2679ZM27.1429 88.6964H36.4286V88.4464H27.1429V88.6964ZM36.3036 88.5714V98.5714H36.5536V88.5714H36.3036ZM36.3036 98.5714C36.3036 99.4294 36.9991 100.125 37.8571 100.125V99.875C37.1372 99.875 36.5536 99.2914 36.5536 98.5714H36.3036ZM37.8571 100.125C38.7152 100.125 39.4107 99.4294 39.4107 98.5714H39.1607C39.1607 99.2914 38.5771 99.875 37.8571 99.875V100.125ZM39.4107 98.5714V88.5714H39.1607V98.5714H39.4107ZM39.2857 88.6964H48.5714V88.4464H39.2857V88.6964ZM48.4464 88.5714V98.5714H48.6964V88.5714H48.4464ZM48.4464 98.5714C48.4464 99.4294 49.142 100.125 50 100.125V99.875C49.2801 99.875 48.6964 99.2914 48.6964 98.5714H48.4464ZM50 100.125C50.858 100.125 51.5536 99.4294 51.5536 98.5714H51.3036C51.3036 99.2914 50.7199 99.875 50 99.875V100.125ZM51.5536 98.5714V88.5714H51.3036V98.5714H51.5536ZM51.4286 88.6964H60.7143V88.4464H51.4286V88.6964ZM60.5893 88.5714V98.5714H60.8393V88.5714H60.5893ZM60.5893 98.5714C60.5893 99.4294 61.2848 100.125 62.1429 100.125V99.875C61.4229 99.875 60.8393 99.2914 60.8393 98.5714H60.5893ZM62.1429 100.125C63.0009 100.125 63.6964 99.4294 63.6964 98.5714H63.4464C63.4464 99.2914 62.8628 99.875 62.1429 99.875V100.125ZM63.6964 98.5714V88.5714H63.4464V98.5714H63.6964ZM63.5714 88.6964H72.8571V88.4464H63.5714V88.6964ZM72.7321 88.5714V98.5714H72.9821V88.5714H72.7321ZM72.7321 98.5714C72.7321 99.4294 73.4277 100.125 74.2857 100.125V99.875C73.5658 99.875 72.9821 99.2914 72.9821 98.5714H72.7321ZM74.2857 100.125C75.1437 100.125 75.8393 99.4294 75.8393 98.5714H75.5893C75.5893 99.2914 75.0057 99.875 74.2857 99.875V100.125ZM75.8393 98.5714V88.5714H75.5893V98.5714H75.8393ZM75.7143 88.6964H81.4286V88.4464H75.7143V88.6964ZM81.4287 88.6964C85.4406 88.6916 88.6916 85.4406 88.6964 81.4287L88.4464 81.4284C88.4418 85.3024 85.3024 88.4418 81.4284 88.4464L81.4287 88.6964ZM88.6964 81.4286V75.7143H88.4464V81.4286H88.6964ZM88.5714 75.8393H98.5714V75.5893H88.5714V75.8393ZM98.5714 75.8393C99.4294 75.8393 100.125 75.1437 100.125 74.2857H99.875C99.875 75.0057 99.2914 75.5893 98.5714 75.5893V75.8393ZM100.125 74.2857C100.125 73.4277 99.4294 72.7321 98.5714 72.7321V72.9821C99.2914 72.9821 99.875 73.5658 99.875 74.2857H100.125ZM98.5714 72.7321H88.5714V72.9821H98.5714V72.7321ZM88.6964 72.8571V63.5714H88.4464V72.8571H88.6964ZM88.5714 63.6964H98.5714V63.4464H88.5714V63.6964ZM98.5714 63.6964C99.4294 63.6964 100.125 63.0009 100.125 62.1429H99.875C99.875 62.8628 99.2914 63.4464 98.5714 63.4464V63.6964ZM100.125 62.1429C100.125 61.2848 99.4294 60.5893 98.5714 60.5893V60.8393C99.2914 60.8393 99.875 61.4229 99.875 62.1429H100.125ZM98.5714 60.5893H88.5714V60.8393H98.5714V60.5893ZM88.6964 60.7143V51.4286H88.4464V60.7143H88.6964ZM88.5714 51.5536H98.5714V51.3036H88.5714V51.5536ZM98.5714 51.5536C99.4294 51.5536 100.125 50.858 100.125 50H99.875C99.875 50.7199 99.2914 51.3036 98.5714 51.3036V51.5536ZM100.125 50C100.125 49.142 99.4294 48.4464 98.5714 48.4464V48.6964C99.2914 48.6964 99.875 49.2801 99.875 50H100.125ZM98.5714 48.4464H88.5714V48.6964H98.5714V48.4464ZM88.6964 48.5714V39.2857H88.4464V48.5714H88.6964ZM88.5714 39.4107H98.5714V39.1607H88.5714V39.4107ZM98.5714 39.4107C99.4294 39.4107 100.125 38.7152 100.125 37.8571H99.875C99.875 38.5771 99.2914 39.1607 98.5714 39.1607V39.4107ZM100.125 37.8571C100.125 36.9991 99.4294 36.3036 98.5714 36.3036V36.5536C99.2914 36.5536 99.875 37.1372 99.875 37.8571H100.125ZM98.5714 36.3036H88.5714V36.5536H98.5714V36.3036ZM88.6964 36.4286V27.1429H88.4464V36.4286H88.6964ZM88.5714 27.2679H98.5714V27.0179H88.5714V27.2679ZM98.5714 27.2679C99.4294 27.2679 100.125 26.5723 100.125 25.7143H99.875C99.875 26.4342 99.2914 27.0179 98.5714 27.0179V27.2679ZM100.125 25.7143C100.125 24.8563 99.4294 24.1607 98.5714 24.1607V24.4107C99.2914 24.4107 99.875 24.9943 99.875 25.7143H100.125ZM98.5714 24.1607H88.5714V24.4107H98.5714V24.1607ZM88.6964 24.2857V18.5714H88.4464V24.2857H88.6964ZM88.6964 18.5713C88.6916 14.5594 85.4406 11.3084 81.4287 11.3036L81.4284 11.5536C85.3024 11.5582 88.4418 14.6976 88.4464 18.5716L88.6964 18.5713ZM81.4286 11.3036H75.7143V11.5536H81.4286V11.3036ZM75.8393 11.4286V1.42857H75.5893V11.4286H75.8393ZM75.8393 1.42857C75.8393 0.570558 75.1437 -0.125 74.2857 -0.125V0.125C75.0057 0.125 75.5893 0.708628 75.5893 1.42857H75.8393ZM74.2857 -0.125C73.4277 -0.125 72.7321 0.570557 72.7321 1.42857H72.9821C72.9821 0.708629 73.5658 0.125 74.2857 0.125V-0.125ZM72.7321 1.42857V11.4286H72.9821V1.42857H72.7321ZM72.8571 11.3036H63.5714V11.5536H72.8571V11.3036ZM63.6964 11.4286V1.42857H63.4464V11.4286H63.6964ZM63.6964 1.42857C63.6964 0.570557 63.0009 -0.125 62.1429 -0.125V0.125C62.8628 0.125 63.4464 0.708629 63.4464 1.42857H63.6964ZM62.1429 -0.125C61.2848 -0.125 60.5893 0.570558 60.5893 1.42857H60.8393C60.8393 0.708629 61.4229 0.125 62.1429 0.125V-0.125ZM60.5893 1.42857V11.4286H60.8393V1.42857H60.5893ZM60.7143 11.3036H51.4286V11.5536H60.7143V11.3036ZM51.5536 11.4286V1.42857H51.3036V11.4286H51.5536ZM51.5536 1.42857C51.5536 0.570557 50.858 -0.125 50 -0.125V0.125C50.7199 0.125 51.3036 0.708629 51.3036 1.42857H51.5536ZM50 -0.125C49.142 -0.125 48.4464 0.570558 48.4464 1.42857H48.6964C48.6964 0.708629 49.2801 0.125 50 0.125V-0.125ZM48.4464 1.42857V11.4286H48.6964V1.42857H48.4464ZM48.5714 11.3036H39.2857V11.5536H48.5714V11.3036ZM39.4107 11.4286V1.42857H39.1607V11.4286H39.4107ZM39.4107 1.42857C39.4107 0.570557 38.7152 -0.125 37.8571 -0.125V0.125C38.5771 0.125 39.1607 0.708629 39.1607 1.42857H39.4107ZM37.8571 -0.125C36.9991 -0.125 36.3036 0.570558 36.3036 1.42857H36.5536C36.5536 0.708629 37.1372 0.125 37.8571 0.125V-0.125ZM36.3036 1.42857V11.4286H36.5536V1.42857H36.3036ZM36.4286 11.3036H27.1429V11.5536H36.4286V11.3036ZM27.2679 11.4286V1.42857H27.0179V11.4286H27.2679ZM27.2679 1.42857C27.2679 0.570558 26.5723 -0.125 25.7143 -0.125V0.125C26.4342 0.125 27.0179 0.708629 27.0179 1.42857H27.2679ZM25.7143 -0.125C24.8563 -0.125 24.1607 0.570558 24.1607 1.42857H24.4107C24.4107 0.708629 24.9943 0.125 25.7143 0.125V-0.125ZM24.1607 1.42857V11.4286H24.4107V1.42857H24.1607ZM24.2857 11.3036H18.5714V11.5536H24.2857V11.3036ZM18.5713 11.3036C14.5594 11.3084 11.3084 14.5594 11.3036 18.5713L11.5536 18.5716C11.5582 14.6976 14.6976 11.5582 18.5716 11.5536L18.5713 11.3036ZM11.3036 18.5714V24.2857H11.5536V18.5714H11.3036ZM1.42857 24.4107H11.4286V24.1607H1.42857V24.4107ZM0.125 25.7143C0.125 24.9943 0.708629 24.4107 1.42857 24.4107V24.1607C0.570558 24.1607 -0.125 24.8563 -0.125 25.7143H0.125ZM1.42857 27.0179C0.708629 27.0179 0.125 26.4342 0.125 25.7143H-0.125C-0.125 26.5723 0.570558 27.2679 1.42857 27.2679V27.0179ZM11.4286 27.0179H1.42857V27.2679H11.4286V27.0179ZM78.5714 46.2607C77.8515 46.2607 77.2679 45.6771 77.2679 44.9571H77.0179C77.0179 45.8152 77.7134 46.5107 78.5714 46.5107V46.2607ZM79.875 44.9571C79.875 45.6771 79.2914 46.2607 78.5714 46.2607V46.5107C79.4295 46.5107 80.125 45.8152 80.125 44.9571H79.875ZM79.875 40.8V44.9571H80.125V40.8H79.875ZM78.5714 39.4964C79.2914 39.4964 79.875 40.0801 79.875 40.8H80.125C80.125 39.942 79.4295 39.2464 78.5714 39.2464V39.4964ZM77.2679 40.8C77.2679 40.0801 77.8515 39.4964 78.5714 39.4964V39.2464C77.7134 39.2464 77.0179 39.942 77.0179 40.8H77.2679ZM77.2679 44.9571V40.8H77.0179V44.9571H77.2679ZM24.2857 80.125H75.7143V79.875H24.2857V80.125ZM19.875 75.7143C19.875 78.1503 21.8497 80.125 24.2857 80.125V79.875C21.9878 79.875 20.125 78.0122 20.125 75.7143H19.875ZM19.875 24.2857V75.7143H20.125V24.2857H19.875ZM24.2857 19.875C21.8497 19.875 19.875 21.8497 19.875 24.2857H20.125C20.125 21.9878 21.9878 20.125 24.2857 20.125V19.875ZM75.7143 19.875H24.2857V20.125H75.7143V19.875ZM80.125 24.2857C80.125 21.8497 78.1503 19.875 75.7143 19.875V20.125C78.0122 20.125 79.875 21.9878 79.875 24.2857H80.125ZM80.125 30.8V24.2857H79.875V30.8H80.125ZM78.5714 32.3536C79.4294 32.3536 80.125 31.658 80.125 30.8H79.875C79.875 31.5199 79.2914 32.1036 78.5714 32.1036V32.3536ZM77.0179 30.8C77.0179 31.658 77.7134 32.3536 78.5714 32.3536V32.1036C77.8515 32.1036 77.2679 31.5199 77.2679 30.8H77.0179ZM77.0179 24.2857V30.8H77.2679V24.2857H77.0179ZM75.7143 22.9821C76.4342 22.9821 77.0179 23.5658 77.0179 24.2857H77.2679C77.2679 23.4277 76.5723 22.7321 75.7143 22.7321V22.9821ZM24.2857 22.9821H75.7143V22.7321H24.2857V22.9821ZM22.9821 24.2857C22.9821 23.5658 23.5658 22.9821 24.2857 22.9821V22.7321C23.4277 22.7321 22.7321 23.4277 22.7321 24.2857H22.9821ZM22.9821 75.7143V24.2857H22.7321V75.7143H22.9821ZM24.2857 77.0179C23.5658 77.0179 22.9821 76.4342 22.9821 75.7143H22.7321C22.7321 76.5723 23.4277 77.2679 24.2857 77.2679V77.0179ZM75.7143 77.0179H24.2857V77.2679H75.7143V77.0179ZM77.0179 75.7143C77.0179 76.4342 76.4342 77.0179 75.7143 77.0179V77.2679C76.5723 77.2679 77.2679 76.5723 77.2679 75.7143H77.0179ZM77.0179 69.2V75.7143H77.2679V69.2H77.0179ZM78.5714 67.6464C77.7134 67.6464 77.0179 68.342 77.0179 69.2H77.2679C77.2679 68.4801 77.8515 67.8964 78.5714 67.8964V67.6464ZM80.125 69.2C80.125 68.342 79.4294 67.6464 78.5714 67.6464V67.8964C79.2914 67.8964 79.875 68.4801 79.875 69.2H80.125ZM80.125 75.7143V69.2H79.875V75.7143H80.125ZM75.7143 80.125C78.1503 80.125 80.125 78.1503 80.125 75.7143H79.875C79.875 78.0122 78.0122 79.875 75.7143 79.875V80.125ZM78.5714 60.5036C77.8515 60.5036 77.2679 59.9199 77.2679 59.2H77.0179C77.0179 60.058 77.7134 60.7536 78.5714 60.7536V60.5036ZM79.875 59.2C79.875 59.9199 79.2914 60.5036 78.5714 60.5036V60.7536C79.4295 60.7536 80.125 60.058 80.125 59.2H79.875ZM79.875 54.9571V59.2H80.125V54.9571H79.875ZM78.5714 53.6536C79.2914 53.6536 79.875 54.2372 79.875 54.9571H80.125C80.125 54.0991 79.4295 53.4036 78.5714 53.4036V53.6536ZM77.2679 54.9571C77.2679 54.2372 77.8515 53.6536 78.5714 53.6536V53.4036C77.7134 53.4036 77.0179 54.0991 77.0179 54.9571H77.2679ZM77.2679 59.2V54.9571H77.0179V59.2H77.2679Z" fill="white"/>
<path d="M74.2857 14.2857V14.1607V14.2857ZM81.4286 14.2857V14.4107V14.2857ZM14.2857 81.4286H14.4107H14.2857ZM14.2857 74.2857H14.1607H14.2857ZM14.2857 25.7143H14.1607H14.2857ZM14.2857 18.5714H14.4107H14.2857ZM18.5714 14.2857V14.4107V14.2857ZM25.7143 14.2857V14.1607V14.2857ZM11.4286 27.1429H11.5536V27.0179H11.4286V27.1429ZM11.4286 36.4286V36.5536H11.5536V36.4286H11.4286ZM11.4286 39.2857H11.5536V39.1607H11.4286V39.2857ZM11.4286 48.5714V48.6964H11.5536V48.5714H11.4286ZM11.4286 51.4286H11.5536V51.3036H11.4286V51.4286ZM11.4286 60.7143V60.8393H11.5536V60.7143H11.4286ZM11.4286 63.5714H11.5536V63.4464H11.4286V63.5714ZM11.4286 72.8571V72.9821H11.5536V72.8571H11.4286ZM11.4286 75.7143H11.5536V75.5893H11.4286V75.7143ZM11.4286 81.4286H11.3036V81.4287L11.4286 81.4286ZM18.5714 88.5714L18.5713 88.6964H18.5714V88.5714ZM24.2857 88.5714H24.4107V88.4464H24.2857V88.5714ZM27.1429 88.5714V88.4464H27.0179V88.5714H27.1429ZM36.4286 88.5714H36.5536V88.4464H36.4286V88.5714ZM39.2857 88.5714V88.4464H39.1607V88.5714H39.2857ZM48.5714 88.5714H48.6964V88.4464H48.5714V88.5714ZM51.4286 88.5714V88.4464H51.3036V88.5714H51.4286ZM60.7143 88.5714H60.8393V88.4464H60.7143V88.5714ZM63.5714 88.5714V88.4464H63.4464V88.5714H63.5714ZM72.8571 88.5714H72.9821V88.4464H72.8571V88.5714ZM75.7143 88.5714V88.4464H75.5893V88.5714H75.7143ZM81.4286 88.5714V88.6964H81.4287L81.4286 88.5714ZM88.5714 81.4286L88.6964 81.4287V81.4286H88.5714ZM88.5714 75.7143V75.5893H88.4464V75.7143H88.5714ZM88.5714 72.8571H88.4464V72.9821H88.5714V72.8571ZM88.5714 63.5714V63.4464H88.4464V63.5714H88.5714ZM88.5714 60.7143H88.4464V60.8393H88.5714V60.7143ZM88.5714 51.4286V51.3036H88.4464V51.4286H88.5714ZM88.5714 48.5714H88.4464V48.6964H88.5714V48.5714ZM88.5714 39.2857V39.1607H88.4464V39.2857H88.5714ZM88.5714 36.4286H88.4464V36.5536H88.5714V36.4286ZM88.5714 27.1429V27.0179H88.4464V27.1429H88.5714ZM88.5714 24.2857H88.4464V24.4107H88.5714V24.2857ZM88.5714 18.5714H88.6964V18.5713L88.5714 18.5714ZM81.4286 11.4286L81.4287 11.3036H81.4286V11.4286ZM75.7143 11.4286H75.5893V11.5536H75.7143V11.4286ZM72.8571 11.4286V11.5536H72.9821V11.4286H72.8571ZM63.5714 11.4286H63.4464V11.5536H63.5714V11.4286ZM60.7143 11.4286V11.5536H60.8393V11.4286H60.7143ZM51.4286 11.4286H51.3036V11.5536H51.4286V11.4286ZM48.5714 11.4286V11.5536H48.6964V11.4286H48.5714ZM39.2857 11.4286H39.1607V11.5536H39.2857V11.4286ZM36.4286 11.4286V11.5536H36.5536V11.4286H36.4286ZM27.1429 11.4286H27.0179V11.5536H27.1429V11.4286ZM24.2857 11.4286V11.5536H24.4107V11.4286H24.2857ZM18.5714 11.4286V11.3036H18.5713L18.5714 11.4286ZM11.4286 18.5714L11.3036 18.5713V18.5714H11.4286ZM11.4286 24.2857V24.4107H11.5536V24.2857H11.4286ZM74.2857 14.1607H62.1429V14.4107H74.2857V14.1607ZM81.4286 14.1607L74.2857 14.1607V14.4107L81.4286 14.4107V14.1607ZM85.8393 18.5714C85.8393 16.1355 83.8645 14.1607 81.4286 14.1607V14.4107C83.7265 14.4107 85.5893 16.2735 85.5893 18.5714H85.8393ZM85.8393 25.7143V18.5714H85.5893V25.7143H85.8393ZM85.8393 37.8571V25.7143H85.5893V37.8571H85.8393ZM85.8393 50V37.8571H85.5893V50H85.8393ZM85.8393 62.1429V50H85.5893V62.1429H85.8393ZM85.8393 74.2857V62.1429H85.5893V74.2857H85.8393ZM85.8393 81.4286V74.2857H85.5893V81.4286H85.8393ZM81.4286 85.8393C83.8645 85.8393 85.8393 83.8645 85.8393 81.4286H85.5893C85.5893 83.7265 83.7265 85.5893 81.4286 85.5893V85.8393ZM74.2857 85.8393H81.4286V85.5893H74.2857V85.8393ZM62.1429 85.8393H74.2857V85.5893H62.1429V85.8393ZM50 85.8393H62.1429V85.5893H50V85.8393ZM37.8571 85.8393H50V85.5893H37.8571V85.8393ZM25.7143 85.8393H37.8571V85.5893H25.7143V85.8393ZM18.5714 85.8393H25.7143V85.5893H18.5714V85.8393ZM14.1607 81.4286C14.1607 83.8645 16.1355 85.8393 18.5714 85.8393V85.5893C16.2735 85.5893 14.4107 83.7265 14.4107 81.4286H14.1607ZM14.1607 74.2857L14.1607 81.4286H14.4107L14.4107 74.2857H14.1607ZM14.1607 62.1429V74.2857H14.4107V62.1429H14.1607ZM14.1607 50V62.1429H14.4107V50H14.1607ZM14.1607 37.8571V50H14.4107V37.8571H14.1607ZM14.1607 25.7143V37.8571H14.4107V25.7143H14.1607ZM14.1607 18.5714L14.1607 25.7143H14.4107L14.4107 18.5714H14.1607ZM18.5714 14.1607C16.1355 14.1607 14.1607 16.1355 14.1607 18.5714H14.4107C14.4107 16.2735 16.2735 14.4107 18.5714 14.4107V14.1607ZM25.7143 14.1607L18.5714 14.1607V14.4107L25.7143 14.4107V14.1607ZM37.8571 14.1607H25.7143V14.4107H37.8571V14.1607ZM50 14.1607H37.8571V14.4107H50V14.1607ZM62.1429 14.1607H50V14.4107H62.1429V14.1607ZM11.3036 27.1429V36.4286H11.5536V27.1429H11.3036ZM11.4286 36.3036H1.42857V36.5536H11.4286V36.3036ZM1.42857 36.3036C0.570558 36.3036 -0.125 36.9991 -0.125 37.8571H0.125C0.125 37.1372 0.708629 36.5536 1.42857 36.5536V36.3036ZM-0.125 37.8571C-0.125 38.7152 0.570557 39.4107 1.42857 39.4107V39.1607C0.708629 39.1607 0.125 38.5771 0.125 37.8571H-0.125ZM1.42857 39.4107H11.4286V39.1607H1.42857V39.4107ZM11.3036 39.2857V48.5714H11.5536V39.2857H11.3036ZM11.4286 48.4464H1.42857V48.6964H11.4286V48.4464ZM1.42857 48.4464C0.570558 48.4464 -0.125 49.142 -0.125 50H0.125C0.125 49.2801 0.708629 48.6964 1.42857 48.6964V48.4464ZM-0.125 50C-0.125 50.858 0.570557 51.5536 1.42857 51.5536V51.3036C0.708629 51.3036 0.125 50.7199 0.125 50H-0.125ZM1.42857 51.5536H11.4286V51.3036H1.42857V51.5536ZM11.3036 51.4286V60.7143H11.5536V51.4286H11.3036ZM11.4286 60.5893H1.42857V60.8393H11.4286V60.5893ZM1.42857 60.5893C0.570558 60.5893 -0.125 61.2848 -0.125 62.1429H0.125C0.125 61.4229 0.708629 60.8393 1.42857 60.8393V60.5893ZM-0.125 62.1429C-0.125 63.0009 0.570557 63.6964 1.42857 63.6964V63.4464C0.708629 63.4464 0.125 62.8628 0.125 62.1429H-0.125ZM1.42857 63.6964H11.4286V63.4464H1.42857V63.6964ZM11.3036 63.5714V72.8571H11.5536V63.5714H11.3036ZM11.4286 72.7321H1.42857V72.9821H11.4286V72.7321ZM1.42857 72.7321C0.570557 72.7321 -0.125 73.4277 -0.125 74.2857H0.125C0.125 73.5658 0.708629 72.9821 1.42857 72.9821V72.7321ZM-0.125 74.2857C-0.125 75.1437 0.570558 75.8393 1.42857 75.8393V75.5893C0.708628 75.5893 0.125 75.0057 0.125 74.2857H-0.125ZM1.42857 75.8393H11.4286V75.5893H1.42857V75.8393ZM11.3036 75.7143V81.4286H11.5536V75.7143H11.3036ZM11.3036 81.4287C11.3084 85.4406 14.5594 88.6916 18.5713 88.6964L18.5716 88.4464C14.6976 88.4418 11.5582 85.3024 11.5536 81.4284L11.3036 81.4287ZM18.5714 88.6964H24.2857V88.4464H18.5714V88.6964ZM24.1607 88.5714V98.5714H24.4107V88.5714H24.1607ZM24.1607 98.5714C24.1607 99.4294 24.8563 100.125 25.7143 100.125V99.875C24.9943 99.875 24.4107 99.2914 24.4107 98.5714H24.1607ZM25.7143 100.125C26.5723 100.125 27.2679 99.4294 27.2679 98.5714H27.0179C27.0179 99.2914 26.4342 99.875 25.7143 99.875V100.125ZM27.2679 98.5714V88.5714H27.0179V98.5714H27.2679ZM27.1429 88.6964H36.4286V88.4464H27.1429V88.6964ZM36.3036 88.5714V98.5714H36.5536V88.5714H36.3036ZM36.3036 98.5714C36.3036 99.4294 36.9991 100.125 37.8571 100.125V99.875C37.1372 99.875 36.5536 99.2914 36.5536 98.5714H36.3036ZM37.8571 100.125C38.7152 100.125 39.4107 99.4294 39.4107 98.5714H39.1607C39.1607 99.2914 38.5771 99.875 37.8571 99.875V100.125ZM39.4107 98.5714V88.5714H39.1607V98.5714H39.4107ZM39.2857 88.6964H48.5714V88.4464H39.2857V88.6964ZM48.4464 88.5714V98.5714H48.6964V88.5714H48.4464ZM48.4464 98.5714C48.4464 99.4294 49.142 100.125 50 100.125V99.875C49.2801 99.875 48.6964 99.2914 48.6964 98.5714H48.4464ZM50 100.125C50.858 100.125 51.5536 99.4294 51.5536 98.5714H51.3036C51.3036 99.2914 50.7199 99.875 50 99.875V100.125ZM51.5536 98.5714V88.5714H51.3036V98.5714H51.5536ZM51.4286 88.6964H60.7143V88.4464H51.4286V88.6964ZM60.5893 88.5714V98.5714H60.8393V88.5714H60.5893ZM60.5893 98.5714C60.5893 99.4294 61.2848 100.125 62.1429 100.125V99.875C61.4229 99.875 60.8393 99.2914 60.8393 98.5714H60.5893ZM62.1429 100.125C63.0009 100.125 63.6964 99.4294 63.6964 98.5714H63.4464C63.4464 99.2914 62.8628 99.875 62.1429 99.875V100.125ZM63.6964 98.5714V88.5714H63.4464V98.5714H63.6964ZM63.5714 88.6964H72.8571V88.4464H63.5714V88.6964ZM72.7321 88.5714V98.5714H72.9821V88.5714H72.7321ZM72.7321 98.5714C72.7321 99.4294 73.4277 100.125 74.2857 100.125V99.875C73.5658 99.875 72.9821 99.2914 72.9821 98.5714H72.7321ZM74.2857 100.125C75.1437 100.125 75.8393 99.4294 75.8393 98.5714H75.5893C75.5893 99.2914 75.0057 99.875 74.2857 99.875V100.125ZM75.8393 98.5714V88.5714H75.5893V98.5714H75.8393ZM75.7143 88.6964H81.4286V88.4464H75.7143V88.6964ZM81.4287 88.6964C85.4406 88.6916 88.6916 85.4406 88.6964 81.4287L88.4464 81.4284C88.4418 85.3024 85.3024 88.4418 81.4284 88.4464L81.4287 88.6964ZM88.6964 81.4286V75.7143H88.4464V81.4286H88.6964ZM88.5714 75.8393H98.5714V75.5893H88.5714V75.8393ZM98.5714 75.8393C99.4294 75.8393 100.125 75.1437 100.125 74.2857H99.875C99.875 75.0057 99.2914 75.5893 98.5714 75.5893V75.8393ZM100.125 74.2857C100.125 73.4277 99.4294 72.7321 98.5714 72.7321V72.9821C99.2914 72.9821 99.875 73.5658 99.875 74.2857H100.125ZM98.5714 72.7321H88.5714V72.9821H98.5714V72.7321ZM88.6964 72.8571V63.5714H88.4464V72.8571H88.6964ZM88.5714 63.6964H98.5714V63.4464H88.5714V63.6964ZM98.5714 63.6964C99.4294 63.6964 100.125 63.0009 100.125 62.1429H99.875C99.875 62.8628 99.2914 63.4464 98.5714 63.4464V63.6964ZM100.125 62.1429C100.125 61.2848 99.4294 60.5893 98.5714 60.5893V60.8393C99.2914 60.8393 99.875 61.4229 99.875 62.1429H100.125ZM98.5714 60.5893H88.5714V60.8393H98.5714V60.5893ZM88.6964 60.7143V51.4286H88.4464V60.7143H88.6964ZM88.5714 51.5536H98.5714V51.3036H88.5714V51.5536ZM98.5714 51.5536C99.4294 51.5536 100.125 50.858 100.125 50H99.875C99.875 50.7199 99.2914 51.3036 98.5714 51.3036V51.5536ZM100.125 50C100.125 49.142 99.4294 48.4464 98.5714 48.4464V48.6964C99.2914 48.6964 99.875 49.2801 99.875 50H100.125ZM98.5714 48.4464H88.5714V48.6964H98.5714V48.4464ZM88.6964 48.5714V39.2857H88.4464V48.5714H88.6964ZM88.5714 39.4107H98.5714V39.1607H88.5714V39.4107ZM98.5714 39.4107C99.4294 39.4107 100.125 38.7152 100.125 37.8571H99.875C99.875 38.5771 99.2914 39.1607 98.5714 39.1607V39.4107ZM100.125 37.8571C100.125 36.9991 99.4294 36.3036 98.5714 36.3036V36.5536C99.2914 36.5536 99.875 37.1372 99.875 37.8571H100.125ZM98.5714 36.3036H88.5714V36.5536H98.5714V36.3036ZM88.6964 36.4286V27.1429H88.4464V36.4286H88.6964ZM88.5714 27.2679H98.5714V27.0179H88.5714V27.2679ZM98.5714 27.2679C99.4294 27.2679 100.125 26.5723 100.125 25.7143H99.875C99.875 26.4342 99.2914 27.0179 98.5714 27.0179V27.2679ZM100.125 25.7143C100.125 24.8563 99.4294 24.1607 98.5714 24.1607V24.4107C99.2914 24.4107 99.875 24.9943 99.875 25.7143H100.125ZM98.5714 24.1607H88.5714V24.4107H98.5714V24.1607ZM88.6964 24.2857V18.5714H88.4464V24.2857H88.6964ZM88.6964 18.5713C88.6916 14.5594 85.4406 11.3084 81.4287 11.3036L81.4284 11.5536C85.3024 11.5582 88.4418 14.6976 88.4464 18.5716L88.6964 18.5713ZM81.4286 11.3036H75.7143V11.5536H81.4286V11.3036ZM75.8393 11.4286V1.42857H75.5893V11.4286H75.8393ZM75.8393 1.42857C75.8393 0.570558 75.1437 -0.125 74.2857 -0.125V0.125C75.0057 0.125 75.5893 0.708628 75.5893 1.42857H75.8393ZM74.2857 -0.125C73.4277 -0.125 72.7321 0.570557 72.7321 1.42857H72.9821C72.9821 0.708629 73.5658 0.125 74.2857 0.125V-0.125ZM72.7321 1.42857V11.4286H72.9821V1.42857H72.7321ZM72.8571 11.3036H63.5714V11.5536H72.8571V11.3036ZM63.6964 11.4286V1.42857H63.4464V11.4286H63.6964ZM63.6964 1.42857C63.6964 0.570557 63.0009 -0.125 62.1429 -0.125V0.125C62.8628 0.125 63.4464 0.708629 63.4464 1.42857H63.6964ZM62.1429 -0.125C61.2848 -0.125 60.5893 0.570558 60.5893 1.42857H60.8393C60.8393 0.708629 61.4229 0.125 62.1429 0.125V-0.125ZM60.5893 1.42857V11.4286H60.8393V1.42857H60.5893ZM60.7143 11.3036H51.4286V11.5536H60.7143V11.3036ZM51.5536 11.4286V1.42857H51.3036V11.4286H51.5536ZM51.5536 1.42857C51.5536 0.570557 50.858 -0.125 50 -0.125V0.125C50.7199 0.125 51.3036 0.708629 51.3036 1.42857H51.5536ZM50 -0.125C49.142 -0.125 48.4464 0.570558 48.4464 1.42857H48.6964C48.6964 0.708629 49.2801 0.125 50 0.125V-0.125ZM48.4464 1.42857V11.4286H48.6964V1.42857H48.4464ZM48.5714 11.3036H39.2857V11.5536H48.5714V11.3036ZM39.4107 11.4286V1.42857H39.1607V11.4286H39.4107ZM39.4107 1.42857C39.4107 0.570557 38.7152 -0.125 37.8571 -0.125V0.125C38.5771 0.125 39.1607 0.708629 39.1607 1.42857H39.4107ZM37.8571 -0.125C36.9991 -0.125 36.3036 0.570558 36.3036 1.42857H36.5536C36.5536 0.708629 37.1372 0.125 37.8571 0.125V-0.125ZM36.3036 1.42857V11.4286H36.5536V1.42857H36.3036ZM36.4286 11.3036H27.1429V11.5536H36.4286V11.3036ZM27.2679 11.4286V1.42857H27.0179V11.4286H27.2679ZM27.2679 1.42857C27.2679 0.570558 26.5723 -0.125 25.7143 -0.125V0.125C26.4342 0.125 27.0179 0.708629 27.0179 1.42857H27.2679ZM25.7143 -0.125C24.8563 -0.125 24.1607 0.570558 24.1607 1.42857H24.4107C24.4107 0.708629 24.9943 0.125 25.7143 0.125V-0.125ZM24.1607 1.42857V11.4286H24.4107V1.42857H24.1607ZM24.2857 11.3036H18.5714V11.5536H24.2857V11.3036ZM18.5713 11.3036C14.5594 11.3084 11.3084 14.5594 11.3036 18.5713L11.5536 18.5716C11.5582 14.6976 14.6976 11.5582 18.5716 11.5536L18.5713 11.3036ZM11.3036 18.5714V24.2857H11.5536V18.5714H11.3036ZM1.42857 24.4107H11.4286V24.1607H1.42857V24.4107ZM0.125 25.7143C0.125 24.9943 0.708629 24.4107 1.42857 24.4107V24.1607C0.570558 24.1607 -0.125 24.8563 -0.125 25.7143H0.125ZM1.42857 27.0179C0.708629 27.0179 0.125 26.4342 0.125 25.7143H-0.125C-0.125 26.5723 0.570558 27.2679 1.42857 27.2679V27.0179ZM11.4286 27.0179H1.42857V27.2679H11.4286V27.0179ZM78.5714 46.2607C77.8515 46.2607 77.2679 45.6771 77.2679 44.9571H77.0179C77.0179 45.8152 77.7134 46.5107 78.5714 46.5107V46.2607ZM79.875 44.9571C79.875 45.6771 79.2914 46.2607 78.5714 46.2607V46.5107C79.4295 46.5107 80.125 45.8152 80.125 44.9571H79.875ZM79.875 40.8V44.9571H80.125V40.8H79.875ZM78.5714 39.4964C79.2914 39.4964 79.875 40.0801 79.875 40.8H80.125C80.125 39.942 79.4295 39.2464 78.5714 39.2464V39.4964ZM77.2679 40.8C77.2679 40.0801 77.8515 39.4964 78.5714 39.4964V39.2464C77.7134 39.2464 77.0179 39.942 77.0179 40.8H77.2679ZM77.2679 44.9571V40.8H77.0179V44.9571H77.2679ZM24.2857 80.125H75.7143V79.875H24.2857V80.125ZM19.875 75.7143C19.875 78.1503 21.8497 80.125 24.2857 80.125V79.875C21.9878 79.875 20.125 78.0122 20.125 75.7143H19.875ZM19.875 24.2857V75.7143H20.125V24.2857H19.875ZM24.2857 19.875C21.8497 19.875 19.875 21.8497 19.875 24.2857H20.125C20.125 21.9878 21.9878 20.125 24.2857 20.125V19.875ZM75.7143 19.875H24.2857V20.125H75.7143V19.875ZM80.125 24.2857C80.125 21.8497 78.1503 19.875 75.7143 19.875V20.125C78.0122 20.125 79.875 21.9878 79.875 24.2857H80.125ZM80.125 30.8V24.2857H79.875V30.8H80.125ZM78.5714 32.3536C79.4294 32.3536 80.125 31.658 80.125 30.8H79.875C79.875 31.5199 79.2914 32.1036 78.5714 32.1036V32.3536ZM77.0179 30.8C77.0179 31.658 77.7134 32.3536 78.5714 32.3536V32.1036C77.8515 32.1036 77.2679 31.5199 77.2679 30.8H77.0179ZM77.0179 24.2857V30.8H77.2679V24.2857H77.0179ZM75.7143 22.9821C76.4342 22.9821 77.0179 23.5658 77.0179 24.2857H77.2679C77.2679 23.4277 76.5723 22.7321 75.7143 22.7321V22.9821ZM24.2857 22.9821H75.7143V22.7321H24.2857V22.9821ZM22.9821 24.2857C22.9821 23.5658 23.5658 22.9821 24.2857 22.9821V22.7321C23.4277 22.7321 22.7321 23.4277 22.7321 24.2857H22.9821ZM22.9821 75.7143V24.2857H22.7321V75.7143H22.9821ZM24.2857 77.0179C23.5658 77.0179 22.9821 76.4342 22.9821 75.7143H22.7321C22.7321 76.5723 23.4277 77.2679 24.2857 77.2679V77.0179ZM75.7143 77.0179H24.2857V77.2679H75.7143V77.0179ZM77.0179 75.7143C77.0179 76.4342 76.4342 77.0179 75.7143 77.0179V77.2679C76.5723 77.2679 77.2679 76.5723 77.2679 75.7143H77.0179ZM77.0179 69.2V75.7143H77.2679V69.2H77.0179ZM78.5714 67.6464C77.7134 67.6464 77.0179 68.342 77.0179 69.2H77.2679C77.2679 68.4801 77.8515 67.8964 78.5714 67.8964V67.6464ZM80.125 69.2C80.125 68.342 79.4294 67.6464 78.5714 67.6464V67.8964C79.2914 67.8964 79.875 68.4801 79.875 69.2H80.125ZM80.125 75.7143V69.2H79.875V75.7143H80.125ZM75.7143 80.125C78.1503 80.125 80.125 78.1503 80.125 75.7143H79.875C79.875 78.0122 78.0122 79.875 75.7143 79.875V80.125ZM78.5714 60.5036C77.8515 60.5036 77.2679 59.9199 77.2679 59.2H77.0179C77.0179 60.058 77.7134 60.7536 78.5714 60.7536V60.5036ZM79.875 59.2C79.875 59.9199 79.2914 60.5036 78.5714 60.5036V60.7536C79.4295 60.7536 80.125 60.058 80.125 59.2H79.875ZM79.875 54.9571V59.2H80.125V54.9571H79.875ZM78.5714 53.6536C79.2914 53.6536 79.875 54.2372 79.875 54.9571H80.125C80.125 54.0991 79.4295 53.4036 78.5714 53.4036V53.6536ZM77.2679 54.9571C77.2679 54.2372 77.8515 53.6536 78.5714 53.6536V53.4036C77.7134 53.4036 77.0179 54.0991 77.0179 54.9571H77.2679ZM77.2679 59.2V54.9571H77.0179V59.2H77.2679Z" fill="#007AFF" fill-opacity="0.04"/>
<path d="M36.1352 56.692C35.3778 56.692 34.6738 56.5533 34.0232 56.276C33.3832 55.9987 32.8285 55.6147 32.3592 55.124C31.9005 54.6227 31.5645 54.0413 31.3512 53.38L33.1592 52.596C33.4472 53.2787 33.8632 53.8173 34.4072 54.212C34.9512 54.596 35.5645 54.788 36.2472 54.788C36.6312 54.788 36.9618 54.7293 37.2392 54.612C37.5272 54.484 37.7458 54.3133 37.8952 54.1C38.0552 53.8867 38.1352 53.6307 38.1352 53.332C38.1352 52.98 38.0285 52.692 37.8152 52.468C37.6125 52.2333 37.3032 52.052 36.8872 51.924L34.5992 51.188C33.6712 50.9 32.9725 50.468 32.5032 49.892C32.0338 49.316 31.7992 48.6387 31.7992 47.86C31.7992 47.1773 31.9645 46.5747 32.2952 46.052C32.6365 45.5293 33.1058 45.124 33.7032 44.836C34.3112 44.5373 35.0045 44.388 35.7832 44.388C36.4978 44.388 37.1538 44.516 37.7512 44.772C38.3485 45.0173 38.8605 45.364 39.2872 45.812C39.7245 46.2493 40.0498 46.7667 40.2632 47.364L38.4712 48.164C38.2365 47.5667 37.8845 47.108 37.4152 46.788C36.9458 46.4573 36.4018 46.292 35.7832 46.292C35.4205 46.292 35.1005 46.356 34.8232 46.484C34.5458 46.6013 34.3272 46.772 34.1672 46.996C34.0178 47.2093 33.9432 47.4653 33.9432 47.764C33.9432 48.0947 34.0498 48.388 34.2632 48.644C34.4765 48.8893 34.8018 49.0813 35.2392 49.22L37.4312 49.908C38.3805 50.2173 39.0898 50.644 39.5592 51.188C40.0392 51.732 40.2792 52.404 40.2792 53.204C40.2792 53.8867 40.1032 54.4893 39.7512 55.012C39.3992 55.5347 38.9138 55.9453 38.2952 56.244C37.6765 56.5427 36.9565 56.692 36.1352 56.692ZM41.9308 56.5V44.58H44.1068V56.5H41.9308ZM46.0919 56.5V44.58H48.1719L52.6359 50.644H51.6439L56.0119 44.58H58.0919V56.5H55.8999V47.06L56.7479 47.268L52.2199 53.3H51.9639L47.5479 47.268L48.2679 47.06V56.5H46.0919ZM64.3215 56.692C63.5641 56.692 62.8601 56.5533 62.2095 56.276C61.5695 55.9987 61.0148 55.6147 60.5455 55.124C60.0868 54.6227 59.7508 54.0413 59.5375 53.38L61.3455 52.596C61.6335 53.2787 62.0495 53.8173 62.5935 54.212C63.1375 54.596 63.7508 54.788 64.4335 54.788C64.8175 54.788 65.1481 54.7293 65.4255 54.612C65.7135 54.484 65.9321 54.3133 66.0815 54.1C66.2415 53.8867 66.3215 53.6307 66.3215 53.332C66.3215 52.98 66.2148 52.692 66.0015 52.468C65.7988 52.2333 65.4895 52.052 65.0735 51.924L62.7855 51.188C61.8575 50.9 61.1588 50.468 60.6895 49.892C60.2201 49.316 59.9855 48.6387 59.9855 47.86C59.9855 47.1773 60.1508 46.5747 60.4815 46.052C60.8228 45.5293 61.2921 45.124 61.8895 44.836C62.4975 44.5373 63.1908 44.388 63.9695 44.388C64.6841 44.388 65.3401 44.516 65.9375 44.772C66.5348 45.0173 67.0468 45.364 67.4735 45.812C67.9108 46.2493 68.2361 46.7667 68.4495 47.364L66.6575 48.164C66.4228 47.5667 66.0708 47.108 65.6015 46.788C65.1321 46.4573 64.5881 46.292 63.9695 46.292C63.6068 46.292 63.2868 46.356 63.0095 46.484C62.7321 46.6013 62.5135 46.772 62.3535 46.996C62.2041 47.2093 62.1295 47.4653 62.1295 47.764C62.1295 48.0947 62.2361 48.388 62.4495 48.644C62.6628 48.8893 62.9881 49.0813 63.4255 49.22L65.6175 49.908C66.5668 50.2173 67.2761 50.644 67.7455 51.188C68.2255 51.732 68.4655 52.404 68.4655 53.204C68.4655 53.8867 68.2895 54.4893 67.9375 55.012C67.5855 55.5347 67.1001 55.9453 66.4815 56.244C65.8628 56.5427 65.1428 56.692 64.3215 56.692Z" fill="#007AFF"/>
</g>
<defs>
<clipPath id="clip0_0_4541">
<rect width="100" height="100" fill="white"/>
</clipPath>
</defs>
</svg>
