<svg width="94" height="117" viewBox="0 0 94 117" fill="none" xmlns="http://www.w3.org/2000/svg">
<path d="M27.1375 115L26.1155 115.72L26.5791 116.378L27.3701 116.228L27.1375 115ZM33.9762 113.609L34.2402 114.831L34.2402 114.831L33.9762 113.609ZM33.3316 107.963L32.8835 106.796L32.8829 106.796L33.3316 107.963ZM37.8661 103.159L36.7682 102.561L36.7682 102.561L37.8661 103.159ZM38.9358 101.434L37.9876 100.62L37.9875 100.62L38.9358 101.434ZM49.252 98.1902L49.496 99.4161L49.4181 96.9512L49.252 98.1902ZM39.3061 95.0232L38.5631 96.0284L38.5632 96.0285L39.3061 95.0232ZM34.0608 93.9508L33.9334 92.7073H33.9334L34.0608 93.9508ZM31.7684 93.8646L32.2393 92.7067L32.2391 92.7066L31.7684 93.8646ZM36.353 87.1439L35.708 86.0731L35.7079 86.0732L36.353 87.1439ZM41.0153 79.4189L42.2223 79.7437L42.2223 79.7437L41.0153 79.4189ZM38.6837 73.6413L38.244 74.8114L38.6837 73.6413ZM37.9845 73.3171L37.2063 74.2953L37.2067 74.2956L37.9845 73.3171ZM39.9275 69.4548L40.1707 70.681L40.1718 70.6807L39.9275 69.4548ZM43.6945 70.2818L43.3075 71.4704H43.3075L43.6945 70.2818ZM48.7079 71.4632L48.7407 70.2136L48.7406 70.2136L48.7079 71.4632ZM49.9677 69.7664L48.845 70.3161V70.3161L49.9677 69.7664ZM50.0165 67.1823L48.8114 66.8504L50.0165 67.1823ZM50.6505 61.8071L49.4751 62.2326L49.4753 62.233L50.6505 61.8071ZM48.9077 59.8185L49.6613 58.8212L48.9077 59.8185ZM46.1427 56.8626L47.2178 56.2249L47.2176 56.2246L46.1427 56.8626ZM44.7903 52.1475L43.544 52.2432V52.2432L44.7903 52.1475ZM44.5108 50.9152L45.3215 49.9638L45.3212 49.9635L44.5108 50.9152ZM40.0362 51.7754L40.3526 52.9847H40.3526L40.0362 51.7754ZM35.8076 52.6143L35.1474 53.6757L35.1479 53.6761L35.8076 52.6143ZM35.5771 47.3206L36.8256 47.3815V47.3815L35.5771 47.3206ZM35.6132 46.2809L34.3676 46.3857V46.3858L35.6132 46.2809ZM32.3498 44.8902L32.7322 46.0803L32.7323 46.0803L32.3498 44.8902ZM29.5533 40.9183L30.8027 40.8777L30.8027 40.8773L29.5533 40.9183ZM30.2292 34.1438L31.4475 34.4234L31.4476 34.4229L30.2292 34.1438ZM28.5612 32.4123L27.9283 33.4903L27.9283 33.4903L28.5612 32.4123ZM27.2194 26.2562L28.3947 26.682L27.2194 26.2562ZM27.9974 22.8765L26.7987 23.2309L26.7987 23.231L27.9974 22.8765ZM24.1895 12.7568L23.4425 11.7545L23.4421 11.7548L24.1895 12.7568ZM28.6895 16.0632L29.7152 15.3487L28.6895 16.0632ZM30.3283 18.0101L29.8662 19.1715L29.8667 19.1717L30.3283 18.0101ZM30.9719 15.1855L29.722 15.1708L30.9719 15.1855ZM31.4942 11.1349L32.5686 11.7738L32.5687 11.7736L31.4942 11.1349ZM32.9968 7.56745L31.8228 7.13812V7.13812L32.9968 7.56745ZM34.2139 4.72296L35.2117 5.47587L35.2118 5.4758L34.2139 4.72296ZM34.766 3.93976L33.7365 3.2308L33.7365 3.23081L34.766 3.93976ZM37.9433 0.319796L37.339 -0.774433L37.3387 -0.774275L37.9433 0.319796ZM41.3445 0.201523L41.5206 -1.03601L41.3445 0.201523ZM44.782 0.551856L44.7292 1.80074L44.782 0.551856ZM50.765 0.0881631H52.015V-1.53652L50.4446 -1.12008L50.765 0.0881631ZM49.5223 4.10527L50.7022 4.51804L50.7023 4.51787L49.5223 4.10527ZM46.4979 7.45465L45.8861 6.36461V6.36461L46.4979 7.45465ZM43.6938 9.66788L44.6649 10.4549L44.665 10.4547L43.6938 9.66788ZM43.0715 14.7664L42.0496 15.4861L42.6481 16.336L43.5928 15.9025L43.0715 14.7664ZM47.2674 12.9125L46.8058 11.7508L46.8055 11.7509L47.2674 12.9125ZM56.9034 12.758L57.0358 11.5151L57.0358 11.5151L56.9034 12.758ZM58.6179 19.0299L57.4463 18.5943L58.6179 19.0299ZM58.4577 19.4788L59.6517 19.8486L59.6519 19.8481L58.4577 19.4788ZM56.9521 22.152L58.0183 22.8045L56.9521 22.152ZM53.1736 28.826L52.0531 28.2721L53.1736 28.826ZM52.3163 34.8144L51.4217 35.6874L51.6886 35.9609L52.0629 36.0384L52.3163 34.8144ZM57.7556 36.5134L57.1598 37.6123L57.1602 37.6125L57.7556 36.5134ZM69.878 54.2805L70.4343 53.1611L70.4342 53.1611L69.878 54.2805ZM73.611 60.4662L74.776 60.013L73.611 60.4662ZM75.6284 64.4775L76.4667 63.5503L76.4664 63.55L75.6284 64.4775ZM76.7158 74.5205L75.5007 74.227L75.5007 74.2271L76.7158 74.5205ZM81.2116 75.9584L81.6215 77.1393L81.6215 77.1393L81.2116 75.9584ZM81.8445 75.7563L81.6004 74.5304L81.6002 74.5304L81.8445 75.7563ZM91.0137 78.5372L92.0395 77.8229L92.0394 77.8228L91.0137 78.5372ZM90.3887 85.0579L89.3951 84.2995L90.3887 85.0579ZM87.9486 88.1738L87.0892 87.2661L87.9486 88.1738ZM82.1539 95.3782L81.0081 94.8786L81.008 94.8787L82.1539 95.3782ZM88.7843 97.2579L89.0109 98.4872L88.7843 97.2579ZM91.4784 96.9232L91.2343 98.1492L91.4784 96.9232ZM84.7388 105.61L84.0151 104.591H84.0151L84.7388 105.61ZM76.5763 106.333L76.5258 107.582H76.5258L76.5763 106.333ZM68.7884 106.193L68.8114 107.443H68.8114L68.7884 106.193ZM57.9916 107.152L58.167 108.389L57.9916 107.152ZM48.4294 108.202L48.3454 106.954L48.3453 106.954L48.4294 108.202ZM45.4831 112.23L44.45 112.934L44.45 112.934L45.4831 112.23ZM40.0072 113.757L40.1938 112.521L40.0072 113.757ZM19.45 46.6247L19.0287 47.8015L19.0399 47.8055L19.0511 47.8093L19.45 46.6247ZM24.967 50.5642L26.1637 50.203L26.1637 50.2028L24.967 50.5642ZM16.3419 45.8521L16.4242 44.6049L16.4241 44.6049L16.3419 45.8521ZM16.2699 45.8474L16.3527 44.6001H16.3527L16.2699 45.8474ZM9.96969 46.9335L8.94005 46.2248H8.94004L9.96969 46.9335ZM8.99802 48.8961L7.85434 48.3916H7.85434L8.99802 48.8961ZM4.60798 55.431L5.35894 56.4303L5.35902 56.4302L4.60798 55.431ZM2.21872 61.4254L3.45068 61.2138H3.45068L2.21872 61.4254ZM2.27663 61.7653L1.04382 61.9719L1.04382 61.9719L2.27663 61.7653ZM10.4361 64.3146L10.1925 63.0885L10.1923 63.0886L10.4361 64.3146ZM13.5461 62.7442L12.7962 61.7441H12.7962L13.5461 62.7442ZM16.4192 62.0746L17.0411 60.9903L17.041 60.9902L16.4192 62.0746ZM17.0782 62.4649L16.4344 63.5364H16.4344L17.0782 62.4649ZM24.3452 63.0788L25.2001 63.9907H25.2001L24.3452 63.0788ZM25.8419 61.7051L26.6808 62.6318L26.6808 62.6317L25.8419 61.7051ZM26.2549 54.1265L25.0872 54.5726H25.0872L26.2549 54.1265ZM27.1375 115C27.3701 116.228 27.3701 116.228 27.3702 116.228C27.3702 116.228 27.3702 116.228 27.3703 116.228C27.3704 116.228 27.3706 116.228 27.3708 116.228C27.3713 116.228 27.3719 116.228 27.3727 116.228C27.3744 116.227 27.3769 116.227 27.3801 116.226C27.3866 116.225 27.3961 116.223 27.4087 116.221C27.4339 116.216 27.4711 116.209 27.5196 116.2C27.6166 116.181 27.7589 116.154 27.9407 116.119C28.3043 116.048 28.8261 115.946 29.4598 115.82C30.7269 115.568 32.4437 115.219 34.2402 114.831L33.7122 112.388C31.9333 112.772 30.2308 113.118 28.9723 113.368C28.3433 113.493 27.8257 113.594 27.4657 113.664C27.2857 113.699 27.1452 113.726 27.0497 113.744C27.002 113.753 26.9656 113.76 26.9412 113.765C26.929 113.767 26.9199 113.769 26.9138 113.77C26.9107 113.771 26.9084 113.771 26.9069 113.771C26.9062 113.772 26.9056 113.772 26.9053 113.772C26.9051 113.772 26.905 113.772 26.9049 113.772C26.9049 113.772 26.9049 113.772 26.9048 113.772C26.9048 113.772 26.9048 113.772 27.1375 115ZM32.8829 106.796C31.0447 107.503 28.9264 108.756 27.4544 110.195C26.7225 110.911 26.069 111.751 25.7438 112.673C25.3997 113.648 25.4248 114.739 26.1155 115.72L28.1594 114.28C28.0183 114.08 27.9743 113.865 28.1014 113.505C28.2473 113.091 28.6051 112.566 29.2023 111.982C30.3884 110.823 32.1991 109.738 33.7803 109.129L32.8829 106.796ZM36.7682 102.561C35.8158 104.311 34.822 106.051 32.8835 106.796L33.7798 109.13C36.6951 108.01 38.0687 105.401 38.964 103.756L36.7682 102.561ZM37.9875 100.62C37.5238 101.16 37.122 101.911 36.7682 102.561L38.964 103.756C39.3654 103.019 39.632 102.542 39.8841 102.249L37.9875 100.62ZM49.252 98.1902C49.008 96.9642 49.0079 96.9642 49.0077 96.9643C49.0076 96.9643 49.0074 96.9643 49.0073 96.9644C49.0069 96.9644 49.0064 96.9645 49.0057 96.9647C49.0044 96.9649 49.0026 96.9653 49.0002 96.9658C48.9954 96.9667 48.9884 96.9681 48.9794 96.9699C48.9613 96.9736 48.9349 96.9789 48.9005 96.9859C48.8319 96.9999 48.7318 97.0204 48.6044 97.0469C48.3496 97.1 47.9852 97.1772 47.5445 97.2744C46.6642 97.4684 45.474 97.743 44.2415 98.064C43.0142 98.3836 41.7204 98.7555 40.6423 99.1463C40.1043 99.3412 39.5954 99.5496 39.1653 99.769C38.7685 99.9714 38.3079 100.247 37.9876 100.62L39.884 102.249C39.8721 102.263 39.9652 102.167 40.3012 101.996C40.6039 101.842 41.007 101.673 41.4941 101.497C42.4658 101.145 43.674 100.795 44.8716 100.483C46.0639 100.173 47.2214 99.9056 48.0826 99.7158C48.5127 99.621 48.8675 99.5458 49.1143 99.4944C49.2376 99.4687 49.3338 99.449 49.3988 99.4357C49.4313 99.4291 49.456 99.4241 49.4724 99.4209C49.4806 99.4192 49.4867 99.418 49.4907 99.4172C49.4926 99.4168 49.4941 99.4165 49.495 99.4163C49.4954 99.4162 49.4957 99.4162 49.4959 99.4161C49.496 99.4161 49.496 99.4161 49.4961 99.4161C49.4961 99.4161 49.496 99.4161 49.252 98.1902ZM38.5632 96.0285C40.2996 97.3118 43.0081 98.1485 45.1207 98.6614C46.2071 98.9252 47.1936 99.1163 47.9084 99.2416C48.2663 99.3043 48.5575 99.3507 48.7606 99.3817C48.8622 99.3972 48.9419 99.4088 48.9969 99.4167C49.0245 99.4206 49.0459 99.4236 49.0608 99.4257C49.0683 99.4267 49.0741 99.4275 49.0783 99.4281C49.0804 99.4284 49.0821 99.4286 49.0834 99.4287C49.084 99.4288 49.0845 99.4289 49.085 99.429C49.0852 99.429 49.0854 99.429 49.0855 99.429C49.0857 99.4291 49.0859 99.4291 49.252 98.1902C49.4181 96.9512 49.4182 96.9513 49.4183 96.9513L49.4184 96.9513C49.4184 96.9513 49.4183 96.9513 49.4181 96.9513C49.4177 96.9512 49.4168 96.9511 49.4156 96.9509C49.4131 96.9506 49.409 96.95 49.4033 96.9492C49.3919 96.9476 49.3741 96.9452 49.3503 96.9418C49.3026 96.935 49.2307 96.9245 49.1373 96.9102C48.9504 96.8818 48.6776 96.8383 48.3399 96.7791C47.6634 96.6605 46.7317 96.4799 45.7105 96.232C43.6079 95.7214 41.3435 94.9746 40.0491 94.018L38.5632 96.0285ZM34.1882 95.1943C35.6898 95.0404 37.067 94.9226 38.5631 96.0284L40.0491 94.018C37.7195 92.296 35.4564 92.5512 33.9334 92.7073L34.1882 95.1943ZM31.2975 95.0225C32.2769 95.4209 33.4068 95.2743 34.1882 95.1943L33.9334 92.7073C32.9477 92.8083 32.5208 92.8212 32.2393 92.7067L31.2975 95.0225ZM35.7079 86.0732C34.2564 86.9477 32.5677 88.578 31.4543 90.0781C30.9053 90.8177 30.409 91.64 30.1978 92.4066C30.0923 92.7893 30.0212 93.2871 30.1704 93.7932C30.34 94.3685 30.7494 94.7998 31.2977 95.0226L32.2391 92.7066C32.36 92.7558 32.512 92.895 32.5684 93.0863C32.6043 93.2082 32.5641 93.2299 32.608 93.0707C32.6954 92.7534 32.9714 92.2286 33.4617 91.5681C34.4269 90.2677 35.8852 88.8851 36.9981 88.2145L35.7079 86.0732ZM39.8082 79.0941C39.0645 81.8576 38.5799 83.224 38.0336 84.0946C37.539 84.8827 36.9631 85.317 35.708 86.0731L36.998 88.2146C38.3077 87.4256 39.3249 86.7402 40.1511 85.4235C40.9257 84.1892 41.4898 82.4656 42.2223 79.7437L39.8082 79.0941ZM38.244 74.8114C38.9263 75.0678 39.4368 75.2898 39.7565 75.7534C40.0382 76.1619 40.3559 77.0583 39.8082 79.0942L42.2223 79.7437C42.8722 77.3282 42.6735 75.5797 41.8146 74.3342C40.9938 73.1439 39.7397 72.7028 39.1235 72.4712L38.244 74.8114ZM37.2067 74.2956C37.4068 74.4548 37.6233 74.5588 37.7722 74.6243C37.929 74.6934 38.1024 74.7582 38.244 74.8114L39.1235 72.4712C38.9635 72.4111 38.8605 72.3719 38.7797 72.3364C38.7425 72.32 38.7238 72.3102 38.7175 72.3068C38.7103 72.3028 38.7295 72.3125 38.7623 72.3386L37.2067 74.2956ZM39.6842 68.2287C38.9597 68.3725 38.3794 68.7967 37.9579 69.2348C37.5283 69.6813 37.187 70.22 36.9446 70.7498C36.7049 71.274 36.5308 71.8581 36.4941 72.4136C36.4627 72.889 36.5115 73.7426 37.2063 74.2953L38.7627 72.3389C39.0687 72.5823 38.9716 72.8371 38.9887 72.5785C39.0005 72.4 39.0693 72.115 39.2181 71.7896C39.3644 71.4697 39.5575 71.1781 39.7595 70.9681C39.9695 70.7498 40.1179 70.6914 40.1707 70.681L39.6842 68.2287ZM44.0815 69.0933C43.2986 68.8383 42.5009 68.5779 41.801 68.404C41.1518 68.2427 40.3639 68.0933 39.6831 68.229L40.1718 70.6807C40.1718 70.6807 40.1782 70.6795 40.1922 70.6782C40.2062 70.6769 40.2261 70.6757 40.2526 70.6755C40.3066 70.6751 40.3791 70.6786 40.4728 70.6892C40.6633 70.7108 40.9035 70.757 41.1981 70.8302C41.7935 70.9781 42.4987 71.2071 43.3075 71.4704L44.0815 69.0933ZM48.7406 70.2136C47.4551 70.18 45.797 69.6518 44.0815 69.0933L43.3075 71.4704C44.9067 71.9911 46.9484 72.6676 48.6752 72.7128L48.7406 70.2136ZM48.845 70.3161C48.8989 70.4262 48.9427 70.5158 48.9811 70.601C49.0193 70.6856 49.0433 70.7465 49.0578 70.7906C49.0729 70.8364 49.0697 70.8403 49.067 70.8129C49.0642 70.7835 49.0601 70.6962 49.097 70.5794C49.1156 70.5204 49.1429 70.4599 49.1799 70.4017C49.2169 70.3436 49.2584 70.2956 49.2994 70.2578C49.3802 70.1832 49.4422 70.1625 49.4349 70.1651C49.4264 70.1682 49.3726 70.1854 49.2505 70.1988C49.1305 70.212 48.9643 70.2195 48.7407 70.2136L48.675 72.7128C49.2645 72.7282 49.8147 72.6849 50.2791 72.5183C50.7874 72.336 51.2808 71.9654 51.4807 71.3328C51.6517 70.7918 51.5255 70.2916 51.4325 70.0091C51.3335 69.7082 51.1854 69.4109 51.0903 69.2167L48.845 70.3161ZM48.3908 68.8363C48.3908 69.1993 48.497 69.5193 48.5768 69.7252C48.6609 69.942 48.7681 70.159 48.845 70.3161L51.0903 69.2168C51.0021 69.0366 50.9459 68.9198 50.9078 68.8215C50.8904 68.7767 50.8844 68.7546 50.8834 68.7502C50.8821 68.7447 50.8908 68.7768 50.8908 68.8363H48.3908ZM48.8114 66.8504C48.709 67.2221 48.6088 67.5855 48.535 67.8926C48.4698 68.1641 48.3908 68.5237 48.3908 68.8363H50.8908C50.8908 68.8681 50.8878 68.8565 50.9019 68.775C50.9145 68.7022 50.9352 68.6041 50.9659 68.4763C51.0279 68.2181 51.1156 67.8993 51.2216 67.5142L48.8114 66.8504ZM49.4753 62.233C49.5974 62.57 49.6099 63.2173 49.4525 64.1636C49.3036 65.0588 49.0433 66.0082 48.8114 66.8504L51.2216 67.5142C51.4477 66.6934 51.7448 65.6188 51.9187 64.5739C52.084 63.5801 52.1845 62.3713 51.8257 61.3812L49.4753 62.233ZM48.1541 60.8158C48.9533 61.4197 49.283 61.7019 49.4751 62.2326L51.8258 61.3817C51.3485 60.0631 50.4025 59.3813 49.6613 58.8212L48.1541 60.8158ZM45.0676 57.5003C46.1276 59.2874 47.285 60.159 48.1541 60.8158L49.6613 58.8212C48.8537 58.2109 48.0207 57.5785 47.2178 56.2249L45.0676 57.5003ZM43.544 52.2432C43.6311 53.3784 43.775 55.3227 45.0678 57.5007L47.2176 56.2246C46.2354 54.5699 46.1185 53.1185 46.0367 52.0518L43.544 52.2432ZM43.7 51.8666C43.5595 51.7469 43.4998 51.6241 43.4816 51.5813C43.4641 51.5404 43.4675 51.5329 43.4781 51.5893C43.488 51.642 43.4987 51.7197 43.5101 51.8359C43.5215 51.9516 43.5316 52.0824 43.544 52.2432L46.0367 52.0518C46.0145 51.7627 45.9897 51.4185 45.9352 51.128C45.8898 50.8861 45.7733 50.3488 45.3215 49.9638L43.7 51.8666ZM40.3526 52.9847C41.402 52.7101 42.4205 52.4439 43.211 52.2743C43.6101 52.1887 43.9113 52.1366 44.1107 52.1167C44.2137 52.1064 44.2463 52.1093 44.2317 52.1083C44.2234 52.1076 44.1723 52.1038 44.097 52.0825C44.0298 52.0635 43.8684 52.01 43.7004 51.8669L45.3212 49.9635C44.9591 49.6552 44.5359 49.6239 44.4157 49.615C44.2239 49.6009 44.0292 49.6124 43.8621 49.629C43.5214 49.6631 43.1113 49.7388 42.6867 49.8299C41.8297 50.0137 40.7504 50.2964 39.7198 50.5661L40.3526 52.9847ZM35.1479 53.6761C35.4824 53.8839 35.8326 53.8985 35.9505 53.9027C36.125 53.909 36.3029 53.8953 36.4603 53.8773C36.7795 53.8407 37.1618 53.7678 37.56 53.6808C38.3625 53.5056 39.3718 53.2413 40.3526 52.9847L39.7198 50.5661C38.7217 50.8272 37.7682 51.0765 37.0268 51.2384C36.6531 51.3199 36.3682 51.3715 36.1753 51.3936C36.0767 51.4049 36.0373 51.4042 36.0397 51.4043C36.0418 51.4044 36.0782 51.4055 36.1361 51.4174C36.1858 51.4277 36.3162 51.4587 36.4673 51.5526L35.1479 53.6761ZM34.3286 47.2598C34.2867 48.1202 34.2236 49.4064 34.2329 50.518C34.2374 51.0689 34.2598 51.6207 34.3208 52.0736C34.3508 52.2962 34.3963 52.544 34.4739 52.7738C34.5284 52.9346 34.6924 53.3927 35.1474 53.6757L36.4678 51.5529C36.6583 51.6714 36.7553 51.8127 36.7914 51.8717C36.8125 51.9061 36.8254 51.933 36.8322 51.9482C36.8391 51.9638 36.8421 51.9727 36.8422 51.9729C36.8424 51.9734 36.8407 51.9684 36.8377 51.9569C36.8347 51.9456 36.8309 51.9298 36.8265 51.9089C36.8176 51.8666 36.808 51.8107 36.7985 51.7399C36.7586 51.4438 36.7371 51.0159 36.7328 50.4972C36.7242 49.4696 36.783 48.2564 36.8256 47.3815L34.3286 47.2598ZM34.3676 46.3858C34.3642 46.3451 34.3662 46.3346 34.3653 46.3954C34.3646 46.4415 34.3627 46.5062 34.3594 46.5918C34.3528 46.7629 34.3419 46.988 34.3286 47.2598L36.8256 47.3815C36.8386 47.1147 36.8504 46.8748 36.8576 46.6881C36.8633 46.5401 36.8714 46.3251 36.8588 46.1759L34.3676 46.3858ZM32.7323 46.0803C32.7984 46.059 32.9355 46.042 33.1621 46.0881C33.3844 46.1334 33.6338 46.228 33.8762 46.3566C34.1193 46.4856 34.3148 46.6273 34.4335 46.7348C34.4943 46.7898 34.5116 46.8149 34.504 46.8043C34.4995 46.7982 34.4771 46.7668 34.4513 46.7115C34.4278 46.6609 34.3812 46.5473 34.3676 46.3857L36.8588 46.176C36.8249 45.7733 36.6274 45.474 36.5279 45.3368C36.4035 45.1652 36.2555 45.012 36.1116 44.8817C35.8212 44.6187 35.4509 44.3621 35.0481 44.1483C34.3073 43.7551 33.1163 43.3309 31.9674 43.7001L32.7323 46.0803ZM28.304 40.9589C28.3464 42.2628 28.5335 43.683 29.1242 44.7213C29.4355 45.2684 29.9022 45.7852 30.5853 46.0631C31.2748 46.3435 32.0138 46.3111 32.7322 46.0803L31.9675 43.7001C31.6569 43.7999 31.5422 43.7534 31.5272 43.7473C31.5059 43.7386 31.4176 43.6967 31.2972 43.4851C31.0248 43.0062 30.8427 42.1098 30.8027 40.8777L28.304 40.9589ZM29.0109 33.8642C28.7835 34.8548 28.2112 38.136 28.304 40.9594L30.8027 40.8773C30.7195 38.3488 31.2466 35.2987 31.4475 34.4234L29.0109 33.8642ZM27.9283 33.4903C28.173 33.6339 28.3841 33.7581 28.5724 33.879C28.7619 34.0007 28.8944 34.0979 28.9837 34.1769C29.078 34.2603 29.0731 34.2792 29.0483 34.2294C29.0098 34.152 28.9766 34.0135 29.0107 33.8647L31.4476 34.4229C31.6825 33.3976 31.053 32.6696 30.6401 32.3044C30.2134 31.9269 29.6376 31.5948 29.194 31.3344L27.9283 33.4903ZM24.9983 29.9441C24.9983 31.0072 25.5951 31.775 26.1582 32.2826C26.7123 32.782 27.4092 33.1855 27.9283 33.4903L29.194 31.3344C28.6208 30.9978 28.1613 30.7224 27.832 30.4256C27.5118 30.137 27.4983 29.9914 27.4983 29.9441H24.9983ZM26.0442 25.8304C25.8112 26.4735 25.5536 27.183 25.3564 27.8625C25.1628 28.5295 24.9983 29.2614 24.9983 29.9441H27.4983C27.4983 29.6193 27.5834 29.1586 27.7573 28.5593C27.9277 27.9724 28.1556 27.3418 28.3947 26.682L26.0442 25.8304ZM26.7987 23.231C26.7895 23.1998 26.8232 23.3846 26.6653 23.9758C26.5257 24.4986 26.3021 25.1186 26.0442 25.8304L28.3947 26.682C28.6416 26.0006 28.9073 25.27 29.0807 24.6209C29.2357 24.0402 29.406 23.2318 29.1961 22.522L26.7987 23.231ZM21.9026 17.5704C22.3798 17.977 23.5582 19.1617 24.6815 20.4312C25.2373 21.0593 25.7586 21.6845 26.1582 22.2214C26.3582 22.4902 26.5179 22.7236 26.6336 22.915C26.6911 23.0101 26.7329 23.087 26.7618 23.1465C26.792 23.2086 26.7999 23.2349 26.7987 23.2309L29.1961 22.5221C29.0276 21.9521 28.5814 21.29 28.1636 20.7287C27.706 20.1139 27.1345 19.4307 26.5538 18.7745C25.4042 17.4753 24.1347 16.1879 23.5241 15.6676L21.9026 17.5704ZM23.4421 11.7548C22.3005 12.6063 21.4125 13.5235 21.0517 14.5251C20.8592 15.0592 20.8112 15.6357 20.9806 16.2077C21.1474 16.7708 21.4927 17.2211 21.9026 17.5704L23.5241 15.6676C23.4569 15.6104 23.4197 15.5658 23.4 15.5377C23.3814 15.511 23.3778 15.498 23.3777 15.4977C23.3774 15.4968 23.3773 15.4962 23.3772 15.4951C23.377 15.4939 23.3766 15.4901 23.377 15.4828C23.3778 15.4685 23.3818 15.433 23.4037 15.3725C23.5089 15.0804 23.9029 14.5299 24.9368 13.7587L23.4421 11.7548ZM29.7152 15.3487C29.0721 14.4255 28.2287 13.2043 27.3322 12.3719C26.8838 11.9555 26.3193 11.5359 25.6578 11.3474C24.9222 11.1377 24.1361 11.2376 23.4425 11.7545L24.9365 13.759C24.9659 13.7371 24.9371 13.7415 24.9724 13.7516C25.0819 13.7828 25.3019 13.8982 25.6311 14.2039C26.2897 14.8155 26.9733 15.7864 27.6638 16.7777L29.7152 15.3487ZM30.7904 16.8486C30.916 16.8986 30.9456 16.9491 30.8665 16.8734C30.8038 16.8133 30.7133 16.7132 30.5915 16.5607C30.3459 16.2531 30.0597 15.8432 29.7152 15.3487L27.6638 16.7777C27.9926 17.2496 28.3302 17.7353 28.638 18.1207C28.7929 18.3147 28.9614 18.5104 29.1374 18.679C29.2971 18.8318 29.5451 19.0438 29.8662 19.1715L30.7904 16.8486ZM29.722 15.1708C29.7118 16.0356 29.7009 16.6948 29.6354 17.1151C29.5979 17.3562 29.5695 17.3126 29.6588 17.1852C29.7218 17.0954 29.8743 16.9232 30.1476 16.8355C30.4293 16.7451 30.6667 16.7995 30.7899 16.8484L29.8667 19.1717C30.1418 19.281 30.5126 19.344 30.9115 19.216C31.3021 19.0906 31.5557 18.8346 31.7059 18.6203C31.9698 18.2439 32.0607 17.7887 32.1057 17.4999C32.2053 16.8603 32.2125 15.9866 32.2218 15.2003L29.722 15.1708ZM30.4198 10.496C30.0232 11.163 29.8828 12.0442 29.8137 12.7791C29.7402 13.5608 29.7308 14.4236 29.722 15.1708L32.2218 15.2003C32.2309 14.4291 32.2406 13.6737 32.3027 13.0132C32.3693 12.3059 32.4811 11.921 32.5686 11.7738L30.4198 10.496ZM31.8228 7.13812C31.3321 8.48014 30.8605 9.75458 30.4197 10.4962L32.5687 11.7736C33.157 10.7838 33.7146 9.24419 34.1708 7.99677L31.8228 7.13812ZM33.2161 3.97005C32.9348 4.34283 32.6917 4.88467 32.4911 5.37389C32.2757 5.89921 32.0484 6.52142 31.8228 7.13812L34.1708 7.99678C34.4012 7.36654 34.6109 6.79389 34.8042 6.32239C35.0124 5.81479 35.1498 5.55785 35.2117 5.47587L33.2161 3.97005ZM33.7365 3.23081C33.5121 3.55664 33.3424 3.80257 33.216 3.97012L35.2118 5.4758C35.3785 5.25475 35.5841 4.95575 35.7955 4.64871L33.7365 3.23081ZM37.3387 -0.774275C36.561 -0.344506 35.8446 0.427829 35.2791 1.12212C34.6887 1.84695 34.143 2.64054 33.7365 3.2308L35.7955 4.64872C36.2102 4.04647 36.7007 3.33534 37.2175 2.70095C37.7591 2.03602 38.2207 1.59463 38.5478 1.41387L37.3387 -0.774275ZM41.5206 -1.03601C40.7889 -1.14013 40.0625 -1.24597 39.4075 -1.24988C38.7217 -1.25398 38.0194 -1.15018 37.339 -0.774433L38.5476 1.41403C38.7343 1.31088 38.9739 1.24757 39.3925 1.25007C39.842 1.25276 40.3826 1.32723 41.1684 1.43905L41.5206 -1.03601ZM44.8348 -0.697028C43.514 -0.752873 42.4489 -0.903904 41.5206 -1.03601L41.1684 1.43905C42.101 1.57178 43.2735 1.73919 44.7292 1.80074L44.8348 -0.697028ZM50.765 0.0881631C50.4446 -1.12008 50.4449 -1.12014 50.4451 -1.12021C50.4452 -1.12023 50.4454 -1.12029 50.4456 -1.12033C50.4459 -1.1204 50.4461 -1.12047 50.4463 -1.12053C50.4468 -1.12064 50.447 -1.12071 50.4472 -1.12075C50.4475 -1.12083 50.4472 -1.12076 50.4464 -1.12055C50.4448 -1.12013 50.4409 -1.11914 50.4349 -1.11763C50.4228 -1.11461 50.402 -1.1095 50.3727 -1.10264C50.314 -1.0889 50.2214 -1.06814 50.0968 -1.04304C49.8476 -0.992809 49.4707 -0.925252 48.9818 -0.861633C48.0034 -0.734327 46.5798 -0.623242 44.8348 -0.697028L44.7292 1.80074C46.6362 1.88138 48.2042 1.76062 49.3043 1.61747C49.8547 1.54586 50.2888 1.46854 50.5907 1.4077C50.7417 1.37727 50.8597 1.35094 50.9428 1.33148C50.9844 1.32175 51.0172 1.31373 51.041 1.30777C51.053 1.30479 51.0626 1.30232 51.0701 1.30041C51.0738 1.29946 51.0769 1.29864 51.0795 1.29797C51.0807 1.29764 51.0819 1.29734 51.0829 1.29708C51.0834 1.29695 51.0838 1.29682 51.0843 1.29671C51.0845 1.29666 51.0848 1.29658 51.0849 1.29655C51.0852 1.29648 51.0854 1.2964 50.765 0.0881631ZM50.7023 4.51787C51.3279 2.72876 51.6485 1.69563 51.8142 1.09812C51.8971 0.799411 51.9446 0.597455 51.9722 0.456753C51.9861 0.385839 51.9963 0.324026 52.0031 0.268563C52.0066 0.240466 52.0095 0.211946 52.0116 0.183018C52.0126 0.168442 52.0135 0.153317 52.0141 0.137692C52.0144 0.129857 52.0146 0.12182 52.0148 0.113592C52.0149 0.109474 52.0149 0.105297 52.015 0.101063C52.015 0.0989449 52.015 0.0968111 52.015 0.0946617C52.015 0.0935829 52.015 0.0919672 52.015 0.0914249C52.015 0.0897931 52.015 0.0881631 50.765 0.0881631C49.515 0.0881631 49.515 0.0865367 49.515 0.084912C49.515 0.0843768 49.515 0.0827718 49.515 0.0817073C49.5151 0.0795865 49.5151 0.0774958 49.5151 0.0754358C49.5151 0.0713168 49.5152 0.0673144 49.5153 0.0634329C49.5154 0.055677 49.5157 0.0483587 49.5159 0.0415089C49.5164 0.0278539 49.5172 0.0157639 49.5179 0.00544911C49.5193 -0.0149577 49.521 -0.0300542 49.5221 -0.038543C49.5241 -0.0547882 49.5245 -0.0526439 49.519 -0.0245988C49.5078 0.0326194 49.4777 0.168595 49.4052 0.429934C49.2602 0.952518 48.9595 1.92794 48.3424 3.69267L50.7023 4.51787ZM47.1097 8.5447C47.7022 8.21216 48.4192 7.8168 49.0659 7.19381C49.7372 6.54708 50.2863 5.70701 50.7022 4.51804L48.3424 3.6925C48.0393 4.55901 47.6871 5.05074 47.3314 5.39339C46.9511 5.75978 46.5155 6.01137 45.8861 6.36461L47.1097 8.5447ZM44.665 10.4547C45.4546 9.48011 46.2358 9.03518 47.1097 8.5447L45.8861 6.36461C44.9792 6.87366 43.8326 7.51074 42.7225 8.88102L44.665 10.4547ZM43.0715 14.7664C44.0935 14.0466 44.094 14.0472 44.0944 14.0478C44.0945 14.048 44.0949 14.0486 44.0952 14.049C44.0957 14.0497 44.0962 14.0504 44.0967 14.0511C44.0976 14.0525 44.0985 14.0537 44.0992 14.0548C44.1008 14.057 44.1019 14.0587 44.1028 14.0599C44.1044 14.0624 44.1047 14.0628 44.1037 14.0614C44.1019 14.0585 44.0952 14.048 44.0849 14.0305C44.0643 13.9952 44.03 13.9326 43.9909 13.8462C43.9122 13.6719 43.8196 13.4123 43.7759 13.0915C43.6939 12.4889 43.7658 11.5642 44.6649 10.4549L42.7226 8.88084C41.3676 10.5529 41.1284 12.1774 41.2988 13.4288C41.3813 14.0349 41.5558 14.5284 41.7126 14.8755C41.7914 15.0498 41.8669 15.19 41.9267 15.2923C41.9567 15.3435 41.9829 15.3856 42.0038 15.4179C42.0143 15.4341 42.0234 15.448 42.0311 15.4593C42.035 15.465 42.0384 15.4701 42.0415 15.4746C42.043 15.4768 42.0445 15.4789 42.0458 15.4808C42.0465 15.4818 42.0471 15.4827 42.0478 15.4836C42.0481 15.484 42.0485 15.4847 42.0487 15.4849C42.0491 15.4855 42.0496 15.4861 43.0715 14.7664ZM46.8055 11.7509C46.1932 11.9944 45.1188 12.4695 44.2206 12.8728C43.7664 13.0767 43.3492 13.2659 43.0455 13.4041C42.8936 13.4733 42.77 13.5297 42.6843 13.5689C42.6414 13.5885 42.608 13.6038 42.5853 13.6142C42.5739 13.6194 42.5652 13.6234 42.5593 13.6261C42.5564 13.6274 42.5541 13.6285 42.5526 13.6292C42.5519 13.6295 42.5513 13.6298 42.5509 13.63C42.5507 13.6301 42.5505 13.6301 42.5504 13.6302C42.5504 13.6302 42.5503 13.6302 42.5503 13.6302C42.5503 13.6302 42.5503 13.6303 43.0715 14.7664C43.5928 15.9025 43.5928 15.9025 43.5929 15.9025C43.5929 15.9025 43.5929 15.9025 43.5929 15.9024C43.593 15.9024 43.5931 15.9023 43.5933 15.9023C43.5936 15.9021 43.5942 15.9019 43.5949 15.9016C43.5963 15.9009 43.5984 15.8999 43.6012 15.8986C43.6069 15.8961 43.6153 15.8922 43.6264 15.8871C43.6487 15.8769 43.6815 15.8619 43.7238 15.8425C43.8084 15.8039 43.9307 15.748 44.0811 15.6795C44.3821 15.5425 44.7954 15.3551 45.2446 15.1535C46.153 14.7456 47.1765 14.2938 47.7292 14.074L46.8055 11.7509ZM57.0358 11.5151C54.8082 11.2779 52.6371 11.1983 50.8627 11.2381C49.976 11.258 49.175 11.308 48.5075 11.3862C47.8699 11.4609 47.2574 11.5714 46.8058 11.7508L47.729 14.0741C47.8603 14.0219 48.1998 13.9393 48.7983 13.8693C49.3669 13.8027 50.0862 13.7562 50.9188 13.7375C52.5831 13.7001 54.6471 13.7749 56.7711 14.001L57.0358 11.5151ZM59.7896 19.4656C60.0735 18.702 60.7151 17.0172 60.6947 15.4295C60.6842 14.6106 60.4985 13.6772 59.8691 12.8998C59.2205 12.0988 58.2488 11.6442 57.0358 11.5151L56.7711 14.001C57.5043 14.0791 57.7948 14.3108 57.9261 14.473C58.0766 14.6588 58.1885 14.9657 58.1949 15.4616C58.2083 16.5037 57.7611 17.7477 57.4463 18.5943L59.7896 19.4656ZM59.6519 19.8481C59.6716 19.7841 59.713 19.6714 59.7896 19.4656L57.4463 18.5943C57.3817 18.768 57.3092 18.9616 57.2635 19.1095L59.6519 19.8481ZM58.0183 22.8045C58.4122 22.1608 58.7652 21.5842 59.0358 21.1143C59.2849 20.6819 59.5369 20.2193 59.6517 19.8486L57.2636 19.109C57.2643 19.1066 57.2588 19.1245 57.24 19.1679C57.222 19.2095 57.1964 19.2642 57.1614 19.3336C57.0909 19.4736 56.9941 19.6502 56.8694 19.8666C56.6192 20.3011 56.2863 20.8453 55.8859 21.4995L58.0183 22.8045ZM54.2942 29.38C55.5517 26.8362 56.9613 24.5316 58.0183 22.8045L55.8859 21.4995C54.8323 23.2211 53.3669 25.6144 52.0531 28.2721L54.2942 29.38ZM52.3163 34.8144C53.2108 33.9413 53.2119 33.9424 53.2129 33.9434C53.2132 33.9438 53.2142 33.9448 53.2149 33.9455C53.2162 33.9468 53.2175 33.9482 53.2188 33.9495C53.2213 33.9522 53.2238 33.9548 53.2262 33.9574C53.231 33.9624 53.2354 33.9673 53.2396 33.9719C53.2478 33.981 53.2549 33.9891 53.2607 33.9962C53.2725 34.0103 53.2796 34.02 53.2831 34.0249C53.2902 34.035 53.282 34.0252 53.2664 33.9918C53.2366 33.9278 53.1696 33.7552 53.1467 33.439C53.1004 32.8009 53.2315 31.5296 54.2942 29.38L52.0531 28.2721C50.8625 30.6804 50.5649 32.4034 50.6532 33.62C50.6976 34.2311 50.8388 34.7009 51.0003 35.0476C51.0804 35.2195 51.1636 35.357 51.2382 35.4631C51.2755 35.5161 51.3104 35.561 51.3415 35.5982C51.3571 35.6169 51.3717 35.6336 51.3851 35.6484C51.3918 35.6558 51.3982 35.6628 51.4043 35.6693C51.4074 35.6725 51.4103 35.6757 51.4132 35.6787C51.4147 35.6802 51.4161 35.6817 51.4175 35.6831C51.4182 35.6839 51.4193 35.6849 51.4196 35.6853C51.4206 35.6864 51.4217 35.6874 52.3163 34.8144ZM58.3515 35.4146C57.3538 34.8736 55.8642 34.4177 54.7201 34.1094C54.1288 33.95 53.5939 33.8209 53.2069 33.7315C53.013 33.6868 52.8555 33.6519 52.7457 33.628C52.6907 33.616 52.6477 33.6068 52.6179 33.6005C52.603 33.5973 52.5914 33.5949 52.5833 33.5932C52.5792 33.5923 52.5761 33.5917 52.5738 33.5912C52.5726 33.591 52.5717 33.5908 52.571 33.5906C52.5707 33.5905 52.5704 33.5905 52.5702 33.5904C52.5701 33.5904 52.5699 33.5904 52.5699 33.5904C52.5698 33.5904 52.5696 33.5903 52.3163 34.8144C52.0629 36.0384 52.0628 36.0384 52.0627 36.0384C52.0627 36.0384 52.0627 36.0384 52.0627 36.0384C52.0627 36.0384 52.0627 36.0384 52.0628 36.0384C52.0631 36.0385 52.0635 36.0386 52.0642 36.0387C52.0655 36.039 52.0677 36.0394 52.0707 36.0401C52.0769 36.0414 52.0864 36.0434 52.0993 36.0461C52.1249 36.0515 52.1637 36.0598 52.214 36.0708C52.3148 36.0927 52.4621 36.1253 52.6446 36.1675C53.0104 36.2519 53.5148 36.3737 54.0696 36.5232C55.2178 36.8327 56.4479 37.2263 57.1598 37.6123L58.3515 35.4146ZM65.0643 47.4046C65.0115 46.5636 64.6461 45.4612 64.2002 44.3799C63.7365 43.2551 63.1218 42.0046 62.4628 40.8134C61.8044 39.6232 61.088 38.4675 60.4145 37.5374C60.0783 37.0731 59.7412 36.6488 59.4171 36.2993C59.1105 35.9687 58.7467 35.6287 58.351 35.4144L57.1602 37.6125C57.1599 37.6124 57.1715 37.6187 57.1956 37.6359C57.2192 37.6529 57.2507 37.6773 57.29 37.7109C57.3696 37.7792 57.4679 37.874 57.584 37.9993C57.8172 38.2508 58.0896 38.5893 58.3896 39.0036C58.9887 39.8309 59.6516 40.8962 60.2753 42.0236C60.8985 43.15 61.4688 44.3137 61.889 45.3328C62.3271 46.3953 62.5444 47.1663 62.5693 47.5614L65.0643 47.4046ZM70.4342 53.1611C69.1671 52.5315 67.8105 51.5387 66.7663 50.4303C65.6873 49.2849 65.1144 48.2019 65.0643 47.4046L62.5693 47.5614C62.6745 49.2361 63.7334 50.8567 64.9466 52.1446C66.1947 53.4693 67.791 54.6393 69.3217 55.3999L70.4342 53.1611ZM74.776 60.013C74.2921 58.7692 73.7427 57.3523 73.0951 56.1439C72.4704 54.9782 71.6279 53.7544 70.4343 53.1611L69.3216 55.3999C69.7726 55.624 70.3061 56.2323 70.8916 57.3248C71.4542 58.3745 71.949 59.6417 72.4461 60.9194L74.776 60.013ZM76.4664 63.55C76.3151 63.4133 76.0701 63.0561 75.7445 62.3639C75.4362 61.7083 75.1243 60.9083 74.776 60.013L72.4461 60.9194C72.7853 61.7914 73.1299 62.6788 73.4823 63.4279C73.8174 64.1404 74.2373 64.9052 74.7904 65.405L76.4664 63.55ZM77.9309 74.8139C78.4282 72.7546 78.5959 70.491 78.4074 68.5115C78.313 67.5205 78.1264 66.5688 77.8276 65.7342C77.5328 64.9108 77.101 64.1237 76.4667 63.5503L74.7902 65.4048C75.0106 65.6041 75.2587 65.9758 75.4739 66.5768C75.6851 67.1667 75.8383 67.9048 75.9187 68.7486C76.0796 70.4386 75.9363 72.4237 75.5007 74.227L77.9309 74.8139ZM80.8017 74.7775C79.9298 75.0802 78.8388 75.4418 78.0876 75.4268C77.7214 75.4195 77.7589 75.3267 77.8445 75.4366C77.932 75.549 77.7687 75.4857 77.9309 74.8139L75.5007 74.2271C75.2679 75.1915 75.2674 76.1961 75.8718 76.9724C76.4743 77.7462 77.3827 77.9133 78.0377 77.9263C79.3286 77.9521 80.8806 77.3965 81.6215 77.1393L80.8017 74.7775ZM81.6002 74.5304C81.3731 74.5756 81.038 74.6955 80.8017 74.7775L81.6215 77.1393C81.7704 77.0876 81.8868 77.0473 81.9806 77.0166C82.0266 77.0016 82.0599 76.9913 82.0831 76.9846C82.1093 76.9771 82.1079 76.9784 82.0888 76.9822L81.6002 74.5304ZM92.0394 77.8228C90.3611 75.4132 87.862 74.5766 85.8147 74.3408C83.7722 74.1055 82.0254 74.4457 81.6004 74.5304L82.0886 76.9822C82.4412 76.912 83.8802 76.6345 85.5286 76.8244C87.1722 77.0137 88.8689 77.6449 89.988 79.2516L92.0394 77.8228ZM91.3824 85.8163C91.8713 85.1756 92.7046 84.1058 93.0668 82.7396C93.4528 81.2836 93.282 79.6072 92.0395 77.8229L89.9879 79.2515C90.8215 80.4486 90.8433 81.3709 90.6503 82.099C90.4334 82.917 89.9161 83.6168 89.3951 84.2995L91.3824 85.8163ZM91.0193 86.1086C91.0193 86.2733 90.9756 86.377 90.971 86.3879C90.9641 86.4047 90.9683 86.3904 91.0036 86.3347C91.037 86.2819 91.0844 86.2135 91.1511 86.1227C91.2177 86.0322 91.2931 85.9333 91.3824 85.8163L89.3951 84.2995C89.2312 84.5142 89.0381 84.7656 88.8913 84.9973C88.7771 85.1778 88.5193 85.5962 88.5193 86.1086H91.0193ZM88.808 89.0816C89.3264 88.5908 89.8167 88.1274 90.1736 87.7423C90.3514 87.5504 90.531 87.3412 90.6727 87.1295C90.7815 86.967 91.0193 86.5905 91.0193 86.1086H88.5193C88.5193 85.9286 88.5668 85.8065 88.5823 85.7696C88.6003 85.7269 88.6113 85.7148 88.5952 85.7388C88.5614 85.7894 88.4846 85.8869 88.3399 86.043C88.0516 86.3541 87.6316 86.7526 87.0892 87.2661L88.808 89.0816ZM83.2997 95.8777C84.456 93.2259 86.9509 90.8397 88.808 89.0816L87.0892 87.2661C85.3111 88.9494 82.4037 91.6776 81.0081 94.8786L83.2997 95.8777ZM88.5576 96.0287C86.8358 96.3462 85.0035 96.6735 83.7838 96.567C83.1364 96.5105 83.0482 96.3589 83.0945 96.4191C83.2174 96.5789 82.9995 96.5666 83.2998 95.8776L81.008 94.8787C80.5731 95.8765 80.4021 97.0189 81.1126 97.943C81.7465 98.7673 82.7865 98.9894 83.5664 99.0575C85.2011 99.2003 87.4193 98.7807 89.0109 98.4872L88.5576 96.0287ZM91.7225 95.6973C91.2696 95.6071 90.6957 95.6746 90.2629 95.7356C89.7652 95.8057 89.1682 95.9161 88.5576 96.0287L89.0109 98.4872C89.6391 98.3714 90.1778 98.2723 90.6118 98.2111C90.8275 98.1807 90.9959 98.1629 91.1215 98.156C91.2642 98.1482 91.2837 98.159 91.2343 98.1492L91.7225 95.6973ZM85.4626 106.629C86.687 105.759 88.8442 103.562 90.4694 101.601C91.2861 100.615 92.0345 99.6103 92.4821 98.7957C92.6901 98.417 92.917 97.934 92.9673 97.4515C92.9936 97.1991 92.9872 96.8039 92.7577 96.417C92.5015 95.9852 92.0936 95.7712 91.7225 95.6973L91.2343 98.1492C91.0574 98.1139 90.7837 97.9895 90.6076 97.6926C90.458 97.4405 90.4773 97.2253 90.4808 97.1923C90.4853 97.1487 90.4721 97.2623 90.291 97.5918C89.9604 98.1936 89.3347 99.0516 88.5443 100.006C86.9551 101.924 84.9658 103.915 84.0151 104.591L85.4626 106.629ZM76.5258 107.582C78.514 107.662 80.2727 107.735 81.7092 107.654C83.1144 107.575 84.4564 107.343 85.4626 106.629L84.0151 104.591C83.6179 104.873 82.889 105.084 81.5689 105.158C80.2801 105.23 78.6592 105.166 76.6268 105.084L76.5258 107.582ZM68.8114 107.443C71.7483 107.389 74.3138 107.492 76.5258 107.582L76.6268 105.084C74.4165 104.995 71.7842 104.888 68.7654 104.943L68.8114 107.443ZM58.167 108.389C61.3913 107.932 64.2575 107.527 68.8114 107.443L68.7655 104.943C64.0534 105.03 61.0638 105.454 57.8162 105.914L58.167 108.389ZM48.5134 109.449C52.6687 109.169 55.5349 108.762 58.167 108.389L57.8162 105.914C55.1964 106.285 52.405 106.681 48.3454 106.954L48.5134 109.449ZM46.5163 111.526C46.2296 111.105 45.9971 110.759 45.8468 110.44C45.6887 110.105 45.7279 110.015 45.7168 110.059C45.6866 110.177 45.6196 110.08 46.02 109.905C46.4439 109.72 47.2105 109.537 48.5135 109.449L48.3453 106.954C46.9284 107.05 45.8297 107.261 45.0201 107.614C44.1868 107.978 43.5177 108.563 43.2941 109.442C43.0894 110.245 43.3435 110.993 43.5856 111.507C43.8356 112.037 44.1888 112.55 44.45 112.934L46.5163 111.526ZM45.0103 115.477C45.5194 115.477 46.0828 115.424 46.5529 115.173C46.8136 115.033 47.0726 114.818 47.2516 114.502C47.4305 114.185 47.4775 113.86 47.4645 113.583C47.4413 113.093 47.2227 112.661 47.074 112.396C46.9081 112.1 46.6953 111.789 46.5163 111.526L44.45 112.934C44.6465 113.222 44.7916 113.437 44.8939 113.619C44.9427 113.706 44.9671 113.761 44.9777 113.788C44.9896 113.82 44.9712 113.785 44.9672 113.701C44.9627 113.606 44.9779 113.444 45.0756 113.271C45.1733 113.098 45.3017 113.007 45.3735 112.968C45.4352 112.935 45.4522 112.942 45.3792 112.954C45.3104 112.966 45.1928 112.977 45.0103 112.977V115.477ZM39.8206 114.993C41.3184 115.219 43.0182 115.477 45.0103 115.477V112.977C43.2284 112.977 41.6992 112.748 40.1938 112.521L39.8206 114.993ZM34.2402 114.831C36.0614 114.438 37.7079 114.674 39.8206 114.993L40.1938 112.521C38.136 112.21 36.047 111.883 33.7121 112.388L34.2402 114.831ZM19.45 46.6247C19.0511 47.8093 19.0509 47.8093 19.0507 47.8092C19.0507 47.8092 19.0505 47.8091 19.0504 47.8091C19.0503 47.8091 19.0502 47.809 19.0502 47.809C19.0502 47.809 19.0504 47.8091 19.051 47.8093C19.0521 47.8097 19.0543 47.8104 19.0576 47.8116C19.0642 47.8138 19.0752 47.8176 19.0902 47.8229C19.1204 47.8335 19.1668 47.85 19.2274 47.8723C19.3488 47.9168 19.5261 47.9841 19.7424 48.0721C20.1772 48.2491 20.7583 48.5056 21.3537 48.826C21.9549 49.1496 22.5353 49.5194 22.9898 49.9144C23.4597 50.3227 23.6933 50.6701 23.7704 50.9255L26.1637 50.2028C25.8909 49.2995 25.2598 48.575 24.6296 48.0273C23.9841 47.4664 23.229 46.9962 22.5384 46.6246C21.842 46.2498 21.1751 45.9561 20.6848 45.7565C20.4386 45.6563 20.2341 45.5787 20.0892 45.5255C20.0168 45.4989 19.959 45.4783 19.9183 45.464C19.8979 45.4569 19.8817 45.4513 19.8701 45.4473C19.8642 45.4453 19.8595 45.4436 19.856 45.4424C19.8542 45.4418 19.8527 45.4413 19.8515 45.4409C19.8509 45.4407 19.8504 45.4406 19.85 45.4404C19.8497 45.4403 19.8495 45.4402 19.8493 45.4402C19.8491 45.4401 19.8488 45.44 19.45 46.6247ZM16.2597 47.0994C16.695 47.1281 17.3588 47.2859 17.9838 47.4675C18.2811 47.554 18.5452 47.6385 18.7348 47.7013C18.8293 47.7326 18.9046 47.7583 18.9555 47.7759C18.9809 47.7847 19.0001 47.7915 19.0125 47.7958C19.0187 47.798 19.0233 47.7996 19.026 47.8006C19.0273 47.8011 19.0282 47.8014 19.0287 47.8016C19.0289 47.8016 19.029 47.8017 19.029 47.8017C19.029 47.8017 19.029 47.8017 19.0289 47.8016C19.0289 47.8016 19.0288 47.8016 19.0288 47.8016C19.0287 47.8016 19.0287 47.8015 19.45 46.6247C19.8713 45.4478 19.8712 45.4478 19.8711 45.4478C19.8711 45.4477 19.8709 45.4477 19.8709 45.4477C19.8707 45.4476 19.8705 45.4475 19.8702 45.4474C19.8697 45.4473 19.8692 45.4471 19.8684 45.4468C19.867 45.4463 19.8651 45.4456 19.8628 45.4448C19.8581 45.4431 19.8515 45.4408 19.8432 45.4379C19.8266 45.432 19.803 45.4237 19.7729 45.4134C19.7129 45.3926 19.6273 45.3634 19.5214 45.3283C19.3102 45.2582 19.0157 45.164 18.6816 45.0669C18.0437 44.8815 17.1535 44.6529 16.4242 44.6049L16.2597 47.0994ZM16.187 47.0946C16.2122 47.0963 16.2366 47.0979 16.2598 47.0994L16.4241 44.6049C16.4016 44.6034 16.3778 44.6018 16.3527 44.6001L16.187 47.0946ZM10.9993 47.6423C11.0191 47.6136 11.1499 47.4747 11.5828 47.3335C11.9901 47.2006 12.52 47.113 13.118 47.0658C14.3107 46.9716 15.5548 47.0527 16.1871 47.0946L16.3527 44.6001C15.7277 44.5586 14.3168 44.4634 12.9213 44.5735C12.2253 44.6285 11.4777 44.7381 10.8074 44.9568C10.1625 45.1672 9.41542 45.5342 8.94005 46.2248L10.9993 47.6423ZM10.1417 49.4005C10.5327 48.514 10.7876 47.9499 10.9993 47.6423L8.94004 46.2248C8.56156 46.7746 8.19963 47.6088 7.85434 48.3916L10.1417 49.4005ZM5.35902 56.4302C7.91849 54.5064 9.27467 51.3662 10.1417 49.4005L7.85434 48.3916C6.93747 50.4702 5.80797 52.9653 3.85693 54.4318L5.35902 56.4302ZM3.45068 61.2138C3.25748 60.0891 3.16766 59.445 3.34371 58.8156C3.50575 58.2363 3.96057 57.4812 5.35894 56.4303L3.85701 54.4317C2.22728 55.6565 1.30361 56.8283 0.936121 58.1422C0.582645 59.4059 0.812243 60.6211 0.986768 61.637L3.45068 61.2138ZM3.50944 61.5587C3.48969 61.4408 3.4698 61.3251 3.45068 61.2138L0.986768 61.637C1.00603 61.7491 1.02505 61.8599 1.04382 61.9719L3.50944 61.5587ZM10.1923 63.0886C8.82747 63.36 7.07761 63.3092 5.65663 62.9326C4.94821 62.7448 4.39099 62.494 4.01709 62.22C3.64845 61.9499 3.5365 61.7202 3.50944 61.5587L1.04382 61.9719C1.21093 62.9692 1.82744 63.7149 2.53942 64.2366C3.24614 64.7544 4.12169 65.112 5.01604 65.3491C6.80061 65.8222 8.93632 65.8873 10.6799 65.5406L10.1923 63.0886ZM12.7962 61.7441C12.0035 62.3385 11.2682 62.8748 10.1925 63.0885L10.6798 65.5406C12.3681 65.2051 13.5058 64.3368 14.296 63.7443L12.7962 61.7441ZM17.041 60.9902C16.1797 60.4963 15.3357 60.4316 14.5287 60.7071C13.8481 60.9395 13.2422 61.4097 12.7962 61.7441L14.296 63.7443C14.8387 63.3373 15.1083 63.1509 15.3365 63.073C15.4188 63.0449 15.468 63.0428 15.5074 63.0469C15.5498 63.0512 15.6413 63.0694 15.7973 63.1589L17.041 60.9902ZM17.7221 61.3935C17.4937 61.2563 17.2621 61.117 17.0411 60.9903L15.7972 63.1589C15.9921 63.2706 16.2011 63.3961 16.4344 63.5364L17.7221 61.3935ZM23.4904 62.1668C22.6296 62.9736 21.7656 63.0781 20.8299 62.8642C19.7978 62.6282 18.7621 62.0184 17.7221 61.3935L16.4344 63.5364C17.4062 64.1203 18.7841 64.9609 20.2726 65.3013C21.8576 65.6637 23.6211 65.4707 25.2001 63.9907L23.4904 62.1668ZM25.0029 60.7785C24.586 61.1559 24.0839 61.6105 23.4904 62.1668L25.2001 63.9907C25.7763 63.4507 26.2641 63.009 26.6808 62.6318L25.0029 60.7785ZM26.5921 58.9844C26.5921 59.1358 26.5815 59.2038 26.4297 59.397C26.2017 59.6871 25.8019 60.0551 25.0029 60.7785L26.6808 62.6317C27.4032 61.9777 28.0035 61.4403 28.3953 60.9418C28.8632 60.3465 29.0921 59.7429 29.0921 58.9844H26.5921ZM25.0872 54.5726C25.4826 55.6077 25.8709 56.6245 26.161 57.4695C26.3061 57.8919 26.4203 58.2531 26.4968 58.5402C26.5819 58.8591 26.5921 58.9852 26.5921 58.9844H29.0921C29.0921 58.632 29.0021 58.2323 28.9124 57.896C28.8142 57.5278 28.679 57.1044 28.5255 56.6575C28.2186 55.7638 27.8133 54.7034 27.4225 53.6804L25.0872 54.5726ZM23.7703 50.9253C24.0615 51.8901 24.5848 53.2577 25.0872 54.5726L27.4225 53.6804C26.9059 52.328 26.4226 51.0609 26.1637 50.203L23.7703 50.9253Z" fill="#007AFF"/>
</svg>
