<svg width="396" height="236" viewBox="0 0 396 236" fill="none" xmlns="http://www.w3.org/2000/svg">
<g opacity="0.499728">
<ellipse cx="252.493" cy="150.239" rx="1.88003" ry="1.87798" fill="white"/>
<ellipse cx="209.876" cy="181.538" rx="3.13338" ry="3.12997" fill="white"/>
<ellipse cx="79.8482" cy="194.025" rx="3.13338" ry="3.12997" fill="white"/>
<ellipse opacity="0.497654" cx="192.958" cy="128.329" rx="3.13338" ry="3.12997" fill="white"/>
<ellipse cx="177.919" cy="219.724" rx="3.13338" ry="3.12997" fill="white"/>
<ellipse cx="144.075" cy="153.368" rx="1.88003" ry="1.87798" fill="white"/>
<ellipse opacity="0.497654" cx="266.907" cy="232.87" rx="3.13338" ry="3.12997" fill="white"/>
<ellipse cx="279.439" cy="177.157" rx="1.88003" ry="1.87798" fill="white"/>
<ellipse cx="119.403" cy="162.173" rx="1.88003" ry="1.87798" fill="white"/>
<ellipse cx="1.88003" cy="182.151" rx="1.88003" ry="1.87798" fill="white"/>
<ellipse cx="300.747" cy="224.732" rx="1.88003" ry="1.87798" fill="white"/>
<ellipse cx="286.958" cy="157.751" rx="3.13338" ry="3.12997" fill="white"/>
<ellipse opacity="0.497654" cx="330.2" cy="105.794" rx="1.88003" ry="1.87798" fill="white"/>
<ellipse opacity="0.497654" cx="283.825" cy="75.1202" rx="3.13338" ry="3.12997" fill="white"/>
<ellipse opacity="0.497654" cx="68.7818" cy="122.569" rx="3.13338" ry="3.12997" fill="white"/>
<ellipse cx="355.891" cy="157.751" rx="3.13338" ry="3.12997" fill="white"/>
<ellipse cx="149.133" cy="81.3468" rx="3.13338" ry="3.12997" fill="white"/>
<ellipse cx="392.868" cy="3.12997" rx="3.13338" ry="3.12997" fill="white"/>
<ellipse cx="252.493" cy="36.9346" rx="1.88003" ry="1.87798" fill="white"/>
</g>
</svg>
