<svg width="645" height="405" viewBox="0 0 645 405" fill="none" xmlns="http://www.w3.org/2000/svg">
<path fill-rule="evenodd" clip-rule="evenodd" d="M322.5 320C322.274 320 322.06 320.05 321.867 320.139C321.656 320.158 321.446 320.222 321.25 320.335C321.054 320.448 320.894 320.598 320.772 320.772C320.598 320.894 320.448 321.054 320.335 321.25C319.921 321.967 320.167 322.885 320.884 323.299L321.715 323.779L321.717 323.78L321.723 323.784L321.728 323.786L321.739 323.793L321.75 323.799L321.757 323.803C321.808 323.833 321.861 323.859 321.916 323.882C322.027 323.929 322.145 323.963 322.268 323.982C322.347 323.994 322.426 324.001 322.505 324C322.763 323.999 323.017 323.932 323.241 323.805C323.31 323.765 323.377 323.72 323.439 323.67C323.418 323.687 323.396 323.703 323.374 323.719C323.334 323.748 323.293 323.775 323.25 323.799C323.247 323.801 323.244 323.803 323.241 323.805M323.687 323.418C323.729 323.364 323.767 323.306 323.801 323.247L323.813 323.225L324.299 322.384C324.6 321.862 324.552 321.235 324.228 320.772C324.106 320.598 323.946 320.448 323.75 320.335C323.554 320.222 323.344 320.158 323.133 320.139C322.94 320.05 322.726 320 322.5 320M322.5 310C321.672 310 321 310.672 321 311.5V312.5C321 313.328 321.672 314 322.5 314C323.328 314 324 313.328 324 312.5V311.5C324 310.672 323.328 310 322.5 310ZM321 301.5C321 300.672 321.672 300 322.5 300C323.328 300 324 300.672 324 301.5V302.5C324 303.328 323.328 304 322.5 304C321.672 304 321 303.328 321 302.5V301.5ZM322.5 290C321.672 290 321 290.672 321 291.5V292.5C321 293.328 321.672 294 322.5 294C323.328 294 324 293.328 324 292.5V291.5C324 290.672 323.328 290 322.5 290ZM321 281.5C321 280.672 321.672 280 322.5 280C323.328 280 324 280.672 324 281.5V282.5C324 283.328 323.328 284 322.5 284C321.672 284 321 283.328 321 282.5V281.5ZM322.5 270C321.672 270 321 270.672 321 271.5V272.5C321 273.328 321.672 274 322.5 274C323.328 274 324 273.328 324 272.5V271.5C324 270.672 323.328 270 322.5 270ZM321 261.5C321 260.672 321.672 260 322.5 260C323.328 260 324 260.672 324 261.5V262.5C324 263.328 323.328 264 322.5 264C321.672 264 321 263.328 321 262.5V261.5ZM322.5 250C321.672 250 321 250.672 321 251.5V252.5C321 253.328 321.672 254 322.5 254C323.328 254 324 253.328 324 252.5V251.5C324 250.672 323.328 250 322.5 250ZM321 241.5C321 240.672 321.672 240 322.5 240C323.328 240 324 240.672 324 241.5V242.5C324 243.328 323.328 244 322.5 244C321.672 244 321 243.328 321 242.5V241.5ZM322.5 230C321.672 230 321 230.672 321 231.5V232.5C321 233.328 321.672 234 322.5 234C323.328 234 324 233.328 324 232.5V231.5C324 230.672 323.328 230 322.5 230ZM321 221.5C321 220.672 321.672 220 322.5 220C323.328 220 324 220.672 324 221.5V222.5C324 223.328 323.328 224 322.5 224C321.672 224 321 223.328 321 222.5V221.5ZM322.5 210C321.672 210 321 210.672 321 211.5V212.5C321 213.328 321.672 214 322.5 214C323.328 214 324 213.328 324 212.5V211.5C324 210.672 323.328 210 322.5 210ZM321 201.5C321 200.672 321.672 200 322.5 200C323.328 200 324 200.672 324 201.5V202.5C324 203.328 323.328 204 322.5 204C321.672 204 321 203.328 321 202.5V201.5ZM322.5 190C321.672 190 321 190.672 321 191.5V192.5C321 193.328 321.672 194 322.5 194C323.328 194 324 193.328 324 192.5V191.5C324 190.672 323.328 190 322.5 190ZM321 181.5C321 180.672 321.672 180 322.5 180C323.328 180 324 180.672 324 181.5V182.5C324 183.328 323.328 184 322.5 184C321.672 184 321 183.328 321 182.5V181.5ZM322.5 170C321.672 170 321 170.672 321 171.5V172.5C321 173.328 321.672 174 322.5 174C323.328 174 324 173.328 324 172.5V171.5C324 170.672 323.328 170 322.5 170ZM321 161.5C321 160.672 321.672 160 322.5 160C323.328 160 324 160.672 324 161.5V162.5C324 163.328 323.328 164 322.5 164C321.672 164 321 163.328 321 162.5V161.5ZM322.5 150C321.672 150 321 150.672 321 151.5V152.5C321 153.328 321.672 154 322.5 154C323.328 154 324 153.328 324 152.5V151.5C324 150.672 323.328 150 322.5 150ZM321 141.5C321 140.672 321.672 140 322.5 140C323.328 140 324 140.672 324 141.5V142.5C324 143.328 323.328 144 322.5 144C321.672 144 321 143.328 321 142.5V141.5ZM322.5 130C321.672 130 321 130.672 321 131.5V132.5C321 133.328 321.672 134 322.5 134C323.328 134 324 133.328 324 132.5V131.5C324 130.672 323.328 130 322.5 130ZM321 121.5C321 120.672 321.672 120 322.5 120C323.328 120 324 120.672 324 121.5V122.5C324 123.328 323.328 124 322.5 124C321.672 124 321 123.328 321 122.5V121.5ZM322.5 110C321.672 110 321 110.672 321 111.5V112.5C321 113.328 321.672 114 322.5 114C323.328 114 324 113.328 324 112.5V111.5C324 110.672 323.328 110 322.5 110ZM321 101.5C321 100.672 321.672 100 322.5 100C323.328 100 324 100.672 324 101.5V102.5C324 103.328 323.328 104 322.5 104C321.672 104 321 103.328 321 102.5V101.5ZM322.5 90C321.672 90 321 90.6716 321 91.5V92.5C321 93.3284 321.672 94 322.5 94C323.328 94 324 93.3284 324 92.5V91.5C324 90.6716 323.328 90 322.5 90ZM321 81.5C321 80.6716 321.672 80 322.5 80C323.328 80 324 80.6716 324 81.5V82.5C324 83.3284 323.328 84 322.5 84C321.672 84 321 83.3284 321 82.5V81.5ZM322.5 70C321.672 70 321 70.6716 321 71.5V72.5C321 73.3284 321.672 74 322.5 74C323.328 74 324 73.3284 324 72.5V71.5C324 70.6716 323.328 70 322.5 70ZM321 61.5C321 60.6716 321.672 60 322.5 60C323.328 60 324 60.6716 324 61.5V62.5C324 63.3284 323.328 64 322.5 64C321.672 64 321 63.3284 321 62.5V61.5ZM326.701 312.224C327.115 311.506 328.033 311.26 328.75 311.675C329.467 312.089 329.713 313.006 329.299 313.724L328.799 314.59C328.385 315.307 327.467 315.553 326.75 315.139C326.033 314.725 325.787 313.807 326.201 313.09L326.701 312.224ZM333.75 303.014C333.033 302.6 332.115 302.846 331.701 303.563L331.201 304.429C330.787 305.147 331.033 306.064 331.75 306.479C332.467 306.893 333.385 306.647 333.799 305.929L334.299 305.063C334.713 304.346 334.467 303.429 333.75 303.014ZM336.701 294.903C337.115 294.186 338.033 293.94 338.75 294.354C339.467 294.768 339.713 295.686 339.299 296.403L338.799 297.269C338.385 297.987 337.467 298.232 336.75 297.818C336.033 297.404 335.787 296.487 336.201 295.769L336.701 294.903ZM343.75 285.694C343.033 285.28 342.115 285.526 341.701 286.243L341.201 287.109C340.787 287.826 341.033 288.744 341.75 289.158C342.467 289.572 343.385 289.326 343.799 288.609L344.299 287.743C344.713 287.026 344.467 286.108 343.75 285.694ZM346.701 277.583C347.115 276.865 348.033 276.619 348.75 277.034C349.467 277.448 349.713 278.365 349.299 279.083L348.799 279.949C348.385 280.666 347.467 280.912 346.75 280.498C346.033 280.084 345.787 279.166 346.201 278.449L346.701 277.583ZM353.75 268.373C353.033 267.959 352.115 268.205 351.701 268.922L351.201 269.788C350.787 270.506 351.033 271.423 351.75 271.838C352.467 272.252 353.385 272.006 353.799 271.288L354.299 270.422C354.713 269.705 354.467 268.788 353.75 268.373ZM356.701 260.262C357.115 259.545 358.033 259.299 358.75 259.713C359.467 260.127 359.713 261.045 359.299 261.762L358.799 262.628C358.385 263.346 357.467 263.591 356.75 263.177C356.033 262.763 355.787 261.846 356.201 261.128L356.701 260.262ZM363.75 251.053C363.033 250.639 362.115 250.885 361.701 251.602L361.201 252.468C360.787 253.185 361.033 254.103 361.75 254.517C362.467 254.931 363.385 254.685 363.799 253.968L364.299 253.102C364.713 252.385 364.467 251.467 363.75 251.053ZM366.701 242.942C367.115 242.224 368.033 241.978 368.75 242.393C369.467 242.807 369.713 243.724 369.299 244.442L368.799 245.308C368.385 246.025 367.467 246.271 366.75 245.857C366.033 245.443 365.787 244.525 366.201 243.808L366.701 242.942ZM373.75 233.732C373.033 233.318 372.115 233.564 371.701 234.281L371.201 235.147C370.787 235.865 371.033 236.782 371.75 237.197C372.467 237.611 373.385 237.365 373.799 236.647L374.299 235.781C374.713 235.064 374.467 234.147 373.75 233.732ZM376.701 225.621C377.115 224.904 378.033 224.658 378.75 225.072C379.467 225.486 379.713 226.404 379.299 227.121L378.799 227.987C378.385 228.705 377.467 228.95 376.75 228.536C376.033 228.122 375.787 227.205 376.201 226.487L376.701 225.621ZM383.75 216.412C383.033 215.998 382.115 216.243 381.701 216.961L381.201 217.827C380.787 218.544 381.033 219.462 381.75 219.876C382.467 220.29 383.385 220.044 383.799 219.327L384.299 218.461C384.713 217.743 384.467 216.826 383.75 216.412ZM386.701 208.301C387.115 207.583 388.033 207.337 388.75 207.752C389.467 208.166 389.713 209.083 389.299 209.801L388.799 210.667C388.385 211.384 387.467 211.63 386.75 211.216C386.033 210.802 385.787 209.884 386.201 209.167L386.701 208.301ZM393.75 199.091C393.033 198.677 392.115 198.923 391.701 199.64L391.201 200.506C390.787 201.224 391.033 202.141 391.75 202.555C392.467 202.97 393.385 202.724 393.799 202.006L394.299 201.14C394.713 200.423 394.467 199.506 393.75 199.091ZM396.701 190.98C397.115 190.263 398.033 190.017 398.75 190.431C399.467 190.845 399.713 191.763 399.299 192.48L398.799 193.346C398.385 194.064 397.467 194.309 396.75 193.895C396.033 193.481 395.787 192.564 396.201 191.846L396.701 190.98ZM403.75 181.771C403.033 181.357 402.115 181.602 401.701 182.32L401.201 183.186C400.787 183.903 401.033 184.821 401.75 185.235C402.467 185.649 403.385 185.403 403.799 184.686L404.299 183.82C404.713 183.102 404.467 182.185 403.75 181.771ZM406.701 173.66C407.115 172.942 408.033 172.696 408.75 173.111C409.467 173.525 409.713 174.442 409.299 175.16L408.799 176.026C408.385 176.743 407.467 176.989 406.75 176.575C406.033 176.161 405.787 175.243 406.201 174.526L406.701 173.66ZM413.75 164.45C413.033 164.036 412.115 164.282 411.701 164.999L411.201 165.865C410.787 166.583 411.033 167.5 411.75 167.914C412.467 168.329 413.385 168.083 413.799 167.365L414.299 166.499C414.713 165.782 414.467 164.865 413.75 164.45ZM416.701 156.339C417.115 155.622 418.033 155.376 418.75 155.79C419.467 156.204 419.713 157.122 419.299 157.839L418.799 158.705C418.385 159.423 417.467 159.668 416.75 159.254C416.033 158.84 415.787 157.923 416.201 157.205L416.701 156.339ZM423.75 147.13C423.033 146.716 422.115 146.961 421.701 147.679L421.201 148.545C420.787 149.262 421.033 150.18 421.75 150.594C422.467 151.008 423.385 150.762 423.799 150.045L424.299 149.179C424.713 148.461 424.467 147.544 423.75 147.13ZM426.701 139.019C427.115 138.301 428.033 138.055 428.75 138.47C429.467 138.884 429.713 139.801 429.299 140.519L428.799 141.385C428.385 142.102 427.467 142.348 426.75 141.934C426.033 141.519 425.787 140.602 426.201 139.885L426.701 139.019ZM433.75 129.809C433.033 129.395 432.115 129.641 431.701 130.358L431.201 131.224C430.787 131.942 431.033 132.859 431.75 133.273C432.467 133.688 433.385 133.442 433.799 132.724L434.299 131.858C434.713 131.141 434.467 130.224 433.75 129.809ZM436.701 121.698C437.115 120.981 438.033 120.735 438.75 121.149C439.467 121.563 439.713 122.481 439.299 123.198L438.799 124.064C438.385 124.782 437.467 125.027 436.75 124.613C436.033 124.199 435.787 123.282 436.201 122.564L436.701 121.698ZM443.75 112.489C443.033 112.075 442.115 112.32 441.701 113.038L441.201 113.904C440.787 114.621 441.033 115.539 441.75 115.953C442.467 116.367 443.385 116.121 443.799 115.404L444.299 114.538C444.713 113.82 444.467 112.903 443.75 112.489ZM446.701 104.378C447.115 103.66 448.033 103.414 448.75 103.829C449.467 104.243 449.713 105.16 449.299 105.878L448.799 106.744C448.385 107.461 447.467 107.707 446.75 107.293C446.033 106.878 445.787 105.961 446.201 105.244L446.701 104.378ZM453.75 95.1683C453.033 94.7541 452.115 94.9999 451.701 95.7174L451.201 96.5834C450.787 97.3008 451.033 98.2182 451.75 98.6324C452.467 99.0467 453.385 98.8008 453.799 98.0834L454.299 97.2174C454.713 96.4999 454.467 95.5826 453.75 95.1683ZM333.325 316.25C332.911 315.533 331.994 315.287 331.276 315.701L330.41 316.201C329.693 316.615 329.447 317.533 329.861 318.25C330.275 318.967 331.193 319.213 331.91 318.799L332.776 318.299C333.494 317.885 333.74 316.967 333.325 316.25ZM339.937 310.701C340.654 310.287 341.571 310.533 341.986 311.25C342.4 311.967 342.154 312.885 341.437 313.299L340.57 313.799C339.853 314.213 338.936 313.967 338.521 313.25C338.107 312.533 338.353 311.615 339.07 311.201L339.937 310.701ZM350.646 306.25C350.232 305.533 349.314 305.287 348.597 305.701L347.731 306.201C347.013 306.615 346.768 307.533 347.182 308.25C347.596 308.967 348.513 309.213 349.231 308.799L350.097 308.299C350.814 307.885 351.06 306.967 350.646 306.25ZM357.257 300.701C357.974 300.287 358.892 300.533 359.306 301.25C359.72 301.967 359.474 302.885 358.757 303.299L357.891 303.799C357.174 304.213 356.256 303.967 355.842 303.25C355.428 302.533 355.674 301.615 356.391 301.201L357.257 300.701ZM367.966 296.25C367.552 295.533 366.635 295.287 365.917 295.701L365.051 296.201C364.334 296.615 364.088 297.533 364.502 298.25C364.916 298.967 365.834 299.213 366.551 298.799L367.417 298.299C368.135 297.885 368.381 296.967 367.966 296.25ZM374.578 290.701C375.295 290.287 376.212 290.533 376.627 291.25C377.041 291.967 376.795 292.885 376.078 293.299L375.212 293.799C374.494 294.213 373.577 293.967 373.162 293.25C372.748 292.533 372.994 291.615 373.712 291.201L374.578 290.701ZM385.287 286.25C384.873 285.533 383.955 285.287 383.238 285.701L382.372 286.201C381.654 286.615 381.409 287.533 381.823 288.25C382.237 288.967 383.154 289.213 383.872 288.799L384.738 288.299C385.455 287.885 385.701 286.967 385.287 286.25ZM391.898 280.701C392.616 280.287 393.533 280.533 393.947 281.25C394.361 281.967 394.116 282.885 393.398 283.299L392.532 283.799C391.815 284.213 390.897 283.967 390.483 283.25C390.069 282.533 390.315 281.615 391.032 281.201L391.898 280.701ZM402.607 276.25C402.193 275.533 401.276 275.287 400.558 275.701L399.692 276.201C398.975 276.615 398.729 277.533 399.143 278.25C399.557 278.967 400.475 279.213 401.192 278.799L402.058 278.299C402.776 277.885 403.022 276.967 402.607 276.25ZM409.219 270.701C409.936 270.287 410.853 270.533 411.268 271.25C411.682 271.967 411.436 272.885 410.719 273.299L409.853 273.799C409.135 274.213 408.218 273.967 407.803 273.25C407.389 272.533 407.635 271.615 408.353 271.201L409.219 270.701ZM419.928 266.25C419.514 265.533 418.596 265.287 417.879 265.701L417.013 266.201C416.295 266.615 416.05 267.533 416.464 268.25C416.878 268.967 417.795 269.213 418.513 268.799L419.379 268.299C420.096 267.885 420.342 266.967 419.928 266.25ZM426.539 260.701C427.257 260.287 428.174 260.533 428.588 261.25C429.002 261.967 428.757 262.885 428.039 263.299L427.173 263.799C426.456 264.213 425.538 263.967 425.124 263.25C424.71 262.533 424.956 261.615 425.673 261.201L426.539 260.701ZM437.248 256.25C436.834 255.533 435.917 255.287 435.199 255.701L434.333 256.201C433.616 256.615 433.37 257.533 433.784 258.25C434.198 258.967 435.116 259.213 435.833 258.799L436.699 258.299C437.417 257.885 437.663 256.967 437.248 256.25ZM443.86 250.701C444.577 250.287 445.494 250.533 445.909 251.25C446.323 251.967 446.077 252.885 445.36 253.299L444.494 253.799C443.776 254.213 442.859 253.967 442.445 253.25C442.03 252.533 442.276 251.615 442.994 251.201L443.86 250.701ZM454.569 246.25C454.155 245.533 453.237 245.287 452.52 245.701L451.654 246.201C450.936 246.615 450.691 247.533 451.105 248.25C451.519 248.967 452.436 249.213 453.154 248.799L454.02 248.299C454.737 247.885 454.983 246.967 454.569 246.25ZM461.18 240.701C461.898 240.287 462.815 240.533 463.229 241.25C463.643 241.967 463.398 242.885 462.68 243.299L461.814 243.799C461.097 244.213 460.179 243.967 459.765 243.25C459.351 242.533 459.597 241.615 460.314 241.201L461.18 240.701ZM471.889 236.25C471.475 235.533 470.558 235.287 469.84 235.701L468.974 236.201C468.257 236.615 468.011 237.533 468.425 238.25C468.839 238.967 469.757 239.213 470.474 238.799L471.34 238.299C472.058 237.885 472.304 236.967 471.889 236.25ZM478.501 230.701C479.218 230.287 480.135 230.533 480.55 231.25C480.964 231.967 480.718 232.885 480.001 233.299L479.135 233.799C478.417 234.213 477.5 233.967 477.086 233.25C476.671 232.533 476.917 231.615 477.635 231.201L478.501 230.701ZM489.21 226.25C488.796 225.533 487.878 225.287 487.161 225.701L486.295 226.201C485.577 226.615 485.332 227.533 485.746 228.25C486.16 228.967 487.077 229.213 487.795 228.799L488.661 228.299C489.378 227.885 489.624 226.967 489.21 226.25ZM495.821 220.701C496.539 220.287 497.456 220.533 497.87 221.25C498.284 221.967 498.039 222.885 497.321 223.299L496.455 223.799C495.738 224.213 494.82 223.967 494.406 223.25C493.992 222.533 494.238 221.615 494.955 221.201L495.821 220.701ZM506.53 216.25C506.116 215.533 505.199 215.287 504.481 215.701L503.615 216.201C502.898 216.615 502.652 217.533 503.066 218.25C503.48 218.967 504.398 219.213 505.115 218.799L505.981 218.299C506.699 217.885 506.945 216.967 506.53 216.25ZM513.142 210.701C513.859 210.287 514.776 210.533 515.191 211.25C515.605 211.967 515.359 212.885 514.642 213.299L513.776 213.799C513.058 214.213 512.141 213.967 511.727 213.25C511.312 212.533 511.558 211.615 512.276 211.201L513.142 210.701ZM523.851 206.25C523.437 205.533 522.519 205.287 521.802 205.701L520.936 206.201C520.218 206.615 519.973 207.533 520.387 208.25C520.801 208.967 521.718 209.213 522.436 208.799L523.302 208.299C524.019 207.885 524.265 206.967 523.851 206.25ZM530.462 200.701C531.18 200.287 532.097 200.533 532.511 201.25C532.925 201.967 532.68 202.885 531.962 203.299L531.096 203.799C530.379 204.213 529.461 203.967 529.047 203.25C528.633 202.533 528.879 201.615 529.596 201.201L530.462 200.701ZM541.171 196.25C540.757 195.533 539.84 195.287 539.122 195.701L538.256 196.201C537.539 196.615 537.293 197.533 537.707 198.25C538.122 198.967 539.039 199.213 539.756 198.799L540.622 198.299C541.34 197.885 541.586 196.967 541.171 196.25ZM547.783 190.701C548.5 190.287 549.417 190.533 549.832 191.25C550.246 191.967 550 192.885 549.283 193.299L548.417 193.799C547.699 194.213 546.782 193.967 546.368 193.25C545.953 192.533 546.199 191.615 546.917 191.201L547.783 190.701ZM58.5 321C59.3284 321 60 321.672 60 322.5C60 323.328 59.3284 324 58.5 324H57.5C56.6716 324 56 323.328 56 322.5C56 321.672 56.6716 321 57.5 321H58.5ZM68.5 321C69.3284 321 70 321.672 70 322.5C70 323.328 69.3284 324 68.5 324H67.5C66.6716 324 66 323.328 66 322.5C66 321.672 66.6716 321 67.5 321H68.5ZM80 322.5C80 321.672 79.3284 321 78.5 321H77.5C76.6716 321 76 321.672 76 322.5C76 323.328 76.6716 324 77.5 324H78.5C79.3284 324 80 323.328 80 322.5ZM88.5 321C89.3284 321 90 321.672 90 322.5C90 323.328 89.3284 324 88.5 324H87.5C86.6716 324 86 323.328 86 322.5C86 321.672 86.6716 321 87.5 321H88.5ZM100 322.5C100 321.672 99.3284 321 98.5 321H97.5C96.6716 321 96 321.672 96 322.5C96 323.328 96.6716 324 97.5 324H98.5C99.3284 324 100 323.328 100 322.5ZM108.5 321C109.328 321 110 321.672 110 322.5C110 323.328 109.328 324 108.5 324H107.5C106.672 324 106 323.328 106 322.5C106 321.672 106.672 321 107.5 321H108.5ZM120 322.5C120 321.672 119.328 321 118.5 321H117.5C116.672 321 116 321.672 116 322.5C116 323.328 116.672 324 117.5 324H118.5C119.328 324 120 323.328 120 322.5ZM128.5 321C129.328 321 130 321.672 130 322.5C130 323.328 129.328 324 128.5 324H127.5C126.672 324 126 323.328 126 322.5C126 321.672 126.672 321 127.5 321H128.5ZM140 322.5C140 321.672 139.328 321 138.5 321H137.5C136.672 321 136 321.672 136 322.5C136 323.328 136.672 324 137.5 324H138.5C139.328 324 140 323.328 140 322.5ZM148.5 321C149.328 321 150 321.672 150 322.5C150 323.328 149.328 324 148.5 324H147.5C146.672 324 146 323.328 146 322.5C146 321.672 146.672 321 147.5 321H148.5ZM160 322.5C160 321.672 159.328 321 158.5 321H157.5C156.672 321 156 321.672 156 322.5C156 323.328 156.672 324 157.5 324H158.5C159.328 324 160 323.328 160 322.5ZM168.5 321C169.328 321 170 321.672 170 322.5C170 323.328 169.328 324 168.5 324H167.5C166.672 324 166 323.328 166 322.5C166 321.672 166.672 321 167.5 321H168.5ZM180 322.5C180 321.672 179.328 321 178.5 321H177.5C176.672 321 176 321.672 176 322.5C176 323.328 176.672 324 177.5 324H178.5C179.328 324 180 323.328 180 322.5ZM188.5 321C189.328 321 190 321.672 190 322.5C190 323.328 189.328 324 188.5 324H187.5C186.672 324 186 323.328 186 322.5C186 321.672 186.672 321 187.5 321H188.5ZM200 322.5C200 321.672 199.328 321 198.5 321H197.5C196.672 321 196 321.672 196 322.5C196 323.328 196.672 324 197.5 324H198.5C199.328 324 200 323.328 200 322.5ZM208.5 321C209.328 321 210 321.672 210 322.5C210 323.328 209.328 324 208.5 324H207.5C206.672 324 206 323.328 206 322.5C206 321.672 206.672 321 207.5 321H208.5ZM220 322.5C220 321.672 219.328 321 218.5 321H217.5C216.672 321 216 321.672 216 322.5C216 323.328 216.672 324 217.5 324H218.5C219.328 324 220 323.328 220 322.5ZM228.5 321C229.328 321 230 321.672 230 322.5C230 323.328 229.328 324 228.5 324H227.5C226.672 324 226 323.328 226 322.5C226 321.672 226.672 321 227.5 321H228.5ZM240 322.5C240 321.672 239.328 321 238.5 321H237.5C236.672 321 236 321.672 236 322.5C236 323.328 236.672 324 237.5 324H238.5C239.328 324 240 323.328 240 322.5ZM248.5 321C249.328 321 250 321.672 250 322.5C250 323.328 249.328 324 248.5 324H247.5C246.672 324 246 323.328 246 322.5C246 321.672 246.672 321 247.5 321H248.5ZM260 322.5C260 321.672 259.328 321 258.5 321H257.5C256.672 321 256 321.672 256 322.5C256 323.328 256.672 324 257.5 324H258.5C259.328 324 260 323.328 260 322.5ZM268.5 321C269.328 321 270 321.672 270 322.5C270 323.328 269.328 324 268.5 324H267.5C266.672 324 266 323.328 266 322.5C266 321.672 266.672 321 267.5 321H268.5ZM280 322.5C280 321.672 279.328 321 278.5 321H277.5C276.672 321 276 321.672 276 322.5C276 323.328 276.672 324 277.5 324H278.5C279.328 324 280 323.328 280 322.5ZM288.5 321C289.328 321 290 321.672 290 322.5C290 323.328 289.328 324 288.5 324H287.5C286.672 324 286 323.328 286 322.5C286 321.672 286.672 321 287.5 321H288.5ZM300 322.5C300 321.672 299.328 321 298.5 321H297.5C296.672 321 296 321.672 296 322.5C296 323.328 296.672 324 297.5 324H298.5C299.328 324 300 323.328 300 322.5ZM308.5 321C309.328 321 310 321.672 310 322.5C310 323.328 309.328 324 308.5 324H307.5C306.672 324 306 323.328 306 322.5C306 321.672 306.672 321 307.5 321H308.5ZM320 322.5C320 321.672 319.328 321 318.5 321H317.5C316.672 321 316 321.672 316 322.5C316 323.328 316.672 324 317.5 324H318.5C319.328 324 320 323.328 320 322.5ZM333.5 321C334.328 321 335 321.672 335 322.5C335 323.328 334.328 324 333.5 324H332.5C331.672 324 331 323.328 331 322.5C331 321.672 331.672 321 332.5 321H333.5ZM345 322.5C345 321.672 344.328 321 343.5 321H342.5C341.672 321 341 321.672 341 322.5C341 323.328 341.672 324 342.5 324H343.5C344.328 324 345 323.328 345 322.5ZM353.5 321C354.328 321 355 321.672 355 322.5C355 323.328 354.328 324 353.5 324H352.5C351.672 324 351 323.328 351 322.5C351 321.672 351.672 321 352.5 321H353.5ZM365 322.5C365 321.672 364.328 321 363.5 321H362.5C361.672 321 361 321.672 361 322.5C361 323.328 361.672 324 362.5 324H363.5C364.328 324 365 323.328 365 322.5ZM373.5 321C374.328 321 375 321.672 375 322.5C375 323.328 374.328 324 373.5 324H372.5C371.672 324 371 323.328 371 322.5C371 321.672 371.672 321 372.5 321H373.5ZM385 322.5C385 321.672 384.328 321 383.5 321H382.5C381.672 321 381 321.672 381 322.5C381 323.328 381.672 324 382.5 324H383.5C384.328 324 385 323.328 385 322.5ZM393.5 321C394.328 321 395 321.672 395 322.5C395 323.328 394.328 324 393.5 324H392.5C391.672 324 391 323.328 391 322.5C391 321.672 391.672 321 392.5 321H393.5ZM405 322.5C405 321.672 404.328 321 403.5 321H402.5C401.672 321 401 321.672 401 322.5C401 323.328 401.672 324 402.5 324H403.5C404.328 324 405 323.328 405 322.5ZM413.5 321C414.328 321 415 321.672 415 322.5C415 323.328 414.328 324 413.5 324H412.5C411.672 324 411 323.328 411 322.5C411 321.672 411.672 321 412.5 321H413.5ZM425 322.5C425 321.672 424.328 321 423.5 321H422.5C421.672 321 421 321.672 421 322.5C421 323.328 421.672 324 422.5 324H423.5C424.328 324 425 323.328 425 322.5ZM433.5 321C434.328 321 435 321.672 435 322.5C435 323.328 434.328 324 433.5 324H432.5C431.672 324 431 323.328 431 322.5C431 321.672 431.672 321 432.5 321H433.5ZM445 322.5C445 321.672 444.328 321 443.5 321H442.5C441.672 321 441 321.672 441 322.5C441 323.328 441.672 324 442.5 324H443.5C444.328 324 445 323.328 445 322.5ZM453.5 321C454.328 321 455 321.672 455 322.5C455 323.328 454.328 324 453.5 324H452.5C451.672 324 451 323.328 451 322.5C451 321.672 451.672 321 452.5 321H453.5ZM465 322.5C465 321.672 464.328 321 463.5 321H462.5C461.672 321 461 321.672 461 322.5C461 323.328 461.672 324 462.5 324H463.5C464.328 324 465 323.328 465 322.5ZM473.5 321C474.328 321 475 321.672 475 322.5C475 323.328 474.328 324 473.5 324H472.5C471.672 324 471 323.328 471 322.5C471 321.672 471.672 321 472.5 321H473.5ZM485 322.5C485 321.672 484.328 321 483.5 321H482.5C481.672 321 481 321.672 481 322.5C481 323.328 481.672 324 482.5 324H483.5C484.328 324 485 323.328 485 322.5ZM493.5 321C494.328 321 495 321.672 495 322.5C495 323.328 494.328 324 493.5 324H492.5C491.672 324 491 323.328 491 322.5C491 321.672 491.672 321 492.5 321H493.5ZM505 322.5C505 321.672 504.328 321 503.5 321H502.5C501.672 321 501 321.672 501 322.5C501 323.328 501.672 324 502.5 324H503.5C504.328 324 505 323.328 505 322.5ZM513.5 321C514.328 321 515 321.672 515 322.5C515 323.328 514.328 324 513.5 324H512.5C511.672 324 511 323.328 511 322.5C511 321.672 511.672 321 512.5 321H513.5ZM525 322.5C525 321.672 524.328 321 523.5 321H522.5C521.672 321 521 321.672 521 322.5C521 323.328 521.672 324 522.5 324H523.5C524.328 324 525 323.328 525 322.5ZM533.5 321C534.328 321 535 321.672 535 322.5C535 323.328 534.328 324 533.5 324H532.5C531.672 324 531 323.328 531 322.5C531 321.672 531.672 321 532.5 321H533.5ZM545 322.5C545 321.672 544.328 321 543.5 321H542.5C541.672 321 541 321.672 541 322.5C541 323.328 541.672 324 542.5 324H543.5C544.328 324 545 323.328 545 322.5ZM553.5 321C554.328 321 555 321.672 555 322.5C555 323.328 554.328 324 553.5 324H552.5C551.672 324 551 323.328 551 322.5C551 321.672 551.672 321 552.5 321H553.5ZM565 322.5C565 321.672 564.328 321 563.5 321H562.5C561.672 321 561 321.672 561 322.5C561 323.328 561.672 324 562.5 324H563.5C564.328 324 565 323.328 565 322.5ZM573.5 321C574.328 321 575 321.672 575 322.5C575 323.328 574.328 324 573.5 324H572.5C571.672 324 571 323.328 571 322.5C571 321.672 571.672 321 572.5 321H573.5ZM585 322.5C585 321.672 584.328 321 583.5 321H582.5C581.672 321 581 321.672 581 322.5C581 323.328 581.672 324 582.5 324H583.5C584.328 324 585 323.328 585 322.5ZM315.701 313.724C315.287 313.006 315.533 312.089 316.25 311.675C316.967 311.26 317.885 311.506 318.299 312.224L318.799 313.09C319.213 313.807 318.967 314.725 318.25 315.139C317.533 315.553 316.615 315.307 316.201 314.59L315.701 313.724ZM311.25 303.014C310.533 303.429 310.287 304.346 310.701 305.063L311.201 305.929C311.615 306.647 312.533 306.893 313.25 306.479C313.967 306.064 314.213 305.147 313.799 304.429L313.299 303.563C312.885 302.846 311.967 302.6 311.25 303.014ZM305.701 296.403C305.287 295.686 305.533 294.768 306.25 294.354C306.967 293.94 307.885 294.186 308.299 294.903L308.799 295.769C309.213 296.487 308.967 297.404 308.25 297.818C307.533 298.232 306.615 297.987 306.201 297.269L305.701 296.403ZM301.25 285.694C300.533 286.108 300.287 287.026 300.701 287.743L301.201 288.609C301.615 289.326 302.533 289.572 303.25 289.158C303.967 288.744 304.213 287.826 303.799 287.109L303.299 286.243C302.885 285.526 301.967 285.28 301.25 285.694ZM295.701 279.083C295.287 278.365 295.533 277.448 296.25 277.034C296.967 276.619 297.885 276.865 298.299 277.583L298.799 278.449C299.213 279.166 298.967 280.084 298.25 280.498C297.533 280.912 296.615 280.666 296.201 279.949L295.701 279.083ZM291.25 268.373C290.533 268.788 290.287 269.705 290.701 270.422L291.201 271.288C291.615 272.006 292.533 272.252 293.25 271.838C293.967 271.423 294.213 270.506 293.799 269.788L293.299 268.922C292.885 268.205 291.967 267.959 291.25 268.373ZM285.701 261.762C285.287 261.045 285.533 260.127 286.25 259.713C286.967 259.299 287.885 259.545 288.299 260.262L288.799 261.128C289.213 261.846 288.967 262.763 288.25 263.177C287.533 263.591 286.615 263.346 286.201 262.628L285.701 261.762ZM281.25 251.053C280.533 251.467 280.287 252.385 280.701 253.102L281.201 253.968C281.615 254.685 282.533 254.931 283.25 254.517C283.967 254.103 284.213 253.185 283.799 252.468L283.299 251.602C282.885 250.885 281.967 250.639 281.25 251.053ZM275.701 244.442C275.287 243.724 275.533 242.807 276.25 242.393C276.967 241.978 277.885 242.224 278.299 242.942L278.799 243.808C279.213 244.525 278.967 245.443 278.25 245.857C277.533 246.271 276.615 246.025 276.201 245.308L275.701 244.442ZM271.25 233.732C270.533 234.147 270.287 235.064 270.701 235.781L271.201 236.647C271.615 237.365 272.533 237.611 273.25 237.197C273.967 236.782 274.213 235.865 273.799 235.147L273.299 234.281C272.885 233.564 271.967 233.318 271.25 233.732ZM265.701 227.121C265.287 226.404 265.533 225.486 266.25 225.072C266.967 224.658 267.885 224.904 268.299 225.621L268.799 226.487C269.213 227.205 268.967 228.122 268.25 228.536C267.533 228.95 266.615 228.705 266.201 227.987L265.701 227.121ZM261.25 216.412C260.533 216.826 260.287 217.743 260.701 218.461L261.201 219.327C261.615 220.044 262.533 220.29 263.25 219.876C263.967 219.462 264.213 218.544 263.799 217.827L263.299 216.961C262.885 216.243 261.967 215.998 261.25 216.412ZM255.701 209.801C255.287 209.083 255.533 208.166 256.25 207.752C256.967 207.337 257.885 207.583 258.299 208.301L258.799 209.167C259.213 209.884 258.967 210.802 258.25 211.216C257.533 211.63 256.615 211.384 256.201 210.667L255.701 209.801ZM251.25 199.091C250.533 199.506 250.287 200.423 250.701 201.14L251.201 202.006C251.615 202.724 252.533 202.97 253.25 202.555C253.967 202.141 254.213 201.224 253.799 200.506L253.299 199.64C252.885 198.923 251.967 198.677 251.25 199.091ZM245.701 192.48C245.287 191.763 245.533 190.845 246.25 190.431C246.967 190.017 247.885 190.263 248.299 190.98L248.799 191.846C249.213 192.564 248.967 193.481 248.25 193.895C247.533 194.309 246.615 194.064 246.201 193.346L245.701 192.48ZM241.25 181.771C240.533 182.185 240.287 183.102 240.701 183.82L241.201 184.686C241.615 185.403 242.533 185.649 243.25 185.235C243.967 184.821 244.213 183.903 243.799 183.186L243.299 182.32C242.885 181.602 241.967 181.357 241.25 181.771ZM235.701 175.16C235.287 174.442 235.533 173.525 236.25 173.111C236.967 172.696 237.885 172.942 238.299 173.66L238.799 174.526C239.213 175.243 238.967 176.161 238.25 176.575C237.533 176.989 236.615 176.743 236.201 176.026L235.701 175.16ZM231.25 164.45C230.533 164.865 230.287 165.782 230.701 166.499L231.201 167.365C231.615 168.083 232.533 168.329 233.25 167.914C233.967 167.5 234.213 166.583 233.799 165.865L233.299 164.999C232.885 164.282 231.967 164.036 231.25 164.45ZM225.701 157.839C225.287 157.122 225.533 156.204 226.25 155.79C226.967 155.376 227.885 155.622 228.299 156.339L228.799 157.205C229.213 157.923 228.967 158.84 228.25 159.254C227.533 159.668 226.615 159.423 226.201 158.705L225.701 157.839ZM221.25 147.13C220.533 147.544 220.287 148.461 220.701 149.179L221.201 150.045C221.615 150.762 222.533 151.008 223.25 150.594C223.967 150.18 224.213 149.262 223.799 148.545L223.299 147.679C222.885 146.961 221.967 146.716 221.25 147.13ZM215.701 140.519C215.287 139.801 215.533 138.884 216.25 138.47C216.967 138.055 217.885 138.301 218.299 139.019L218.799 139.885C219.213 140.602 218.967 141.519 218.25 141.934C217.533 142.348 216.615 142.102 216.201 141.385L215.701 140.519ZM211.25 129.809C210.533 130.224 210.287 131.141 210.701 131.858L211.201 132.724C211.615 133.442 212.533 133.688 213.25 133.273C213.967 132.859 214.213 131.942 213.799 131.224L213.299 130.358C212.885 129.641 211.967 129.395 211.25 129.809ZM205.701 123.198C205.287 122.481 205.533 121.563 206.25 121.149C206.967 120.735 207.885 120.981 208.299 121.698L208.799 122.564C209.213 123.282 208.967 124.199 208.25 124.613C207.533 125.027 206.615 124.782 206.201 124.064L205.701 123.198ZM201.25 112.489C200.533 112.903 200.287 113.82 200.701 114.538L201.201 115.404C201.615 116.121 202.533 116.367 203.25 115.953C203.967 115.539 204.213 114.621 203.799 113.904L203.299 113.038C202.885 112.32 201.967 112.075 201.25 112.489ZM195.701 105.878C195.287 105.16 195.533 104.243 196.25 103.829C196.967 103.414 197.885 103.66 198.299 104.378L198.799 105.244C199.213 105.961 198.967 106.878 198.25 107.293C197.533 107.707 196.615 107.461 196.201 106.744L195.701 105.878ZM191.25 95.1683C190.533 95.5826 190.287 96.4999 190.701 97.2174L191.201 98.0834C191.615 98.8008 192.533 99.0467 193.25 98.6324C193.967 98.2182 194.213 97.3008 193.799 96.5834L193.299 95.7174C192.885 94.9999 191.967 94.7541 191.25 95.1683ZM311.675 316.25C311.26 316.967 311.506 317.885 312.224 318.299L313.09 318.799C313.807 319.213 314.725 318.967 315.139 318.25C315.553 317.533 315.307 316.615 314.59 316.201L313.724 315.701C313.006 315.287 312.089 315.533 311.675 316.25ZM303.563 313.299C302.846 312.885 302.6 311.967 303.014 311.25C303.429 310.533 304.346 310.287 305.063 310.701L305.929 311.201C306.647 311.615 306.893 312.533 306.479 313.25C306.064 313.967 305.147 314.213 304.429 313.799L303.563 313.299ZM294.354 306.25C293.94 306.967 294.186 307.885 294.903 308.299L295.769 308.799C296.487 309.213 297.404 308.967 297.818 308.25C298.232 307.533 297.987 306.615 297.269 306.201L296.403 305.701C295.686 305.287 294.768 305.533 294.354 306.25ZM286.243 303.299C285.526 302.885 285.28 301.967 285.694 301.25C286.108 300.533 287.026 300.287 287.743 300.701L288.609 301.201C289.326 301.615 289.572 302.533 289.158 303.25C288.744 303.967 287.826 304.213 287.109 303.799L286.243 303.299ZM277.034 296.25C276.619 296.967 276.865 297.885 277.583 298.299L278.449 298.799C279.166 299.213 280.084 298.967 280.498 298.25C280.912 297.533 280.666 296.615 279.949 296.201L279.083 295.701C278.365 295.287 277.448 295.533 277.034 296.25ZM268.922 293.299C268.205 292.885 267.959 291.967 268.373 291.25C268.788 290.533 269.705 290.287 270.422 290.701L271.288 291.201C272.006 291.615 272.252 292.533 271.838 293.25C271.423 293.967 270.506 294.213 269.788 293.799L268.922 293.299ZM259.713 286.25C259.299 286.967 259.545 287.885 260.262 288.299L261.128 288.799C261.846 289.213 262.763 288.967 263.177 288.25C263.591 287.533 263.346 286.615 262.628 286.201L261.762 285.701C261.045 285.287 260.127 285.533 259.713 286.25ZM251.602 283.299C250.885 282.885 250.639 281.967 251.053 281.25C251.467 280.533 252.385 280.287 253.102 280.701L253.968 281.201C254.685 281.615 254.931 282.533 254.517 283.25C254.103 283.967 253.185 284.213 252.468 283.799L251.602 283.299ZM242.393 276.25C241.978 276.967 242.224 277.885 242.942 278.299L243.808 278.799C244.525 279.213 245.443 278.967 245.857 278.25C246.271 277.533 246.025 276.615 245.308 276.201L244.442 275.701C243.724 275.287 242.807 275.533 242.393 276.25ZM234.281 273.299C233.564 272.885 233.318 271.967 233.732 271.25C234.147 270.533 235.064 270.287 235.781 270.701L236.647 271.201C237.365 271.615 237.611 272.533 237.197 273.25C236.782 273.967 235.865 274.213 235.147 273.799L234.281 273.299ZM225.072 266.25C224.658 266.967 224.904 267.885 225.621 268.299L226.487 268.799C227.205 269.213 228.122 268.967 228.536 268.25C228.95 267.533 228.705 266.615 227.987 266.201L227.121 265.701C226.404 265.287 225.486 265.533 225.072 266.25ZM216.961 263.299C216.243 262.885 215.998 261.967 216.412 261.25C216.826 260.533 217.743 260.287 218.461 260.701L219.327 261.201C220.044 261.615 220.29 262.533 219.876 263.25C219.462 263.967 218.544 264.213 217.827 263.799L216.961 263.299ZM207.752 256.25C207.337 256.967 207.583 257.885 208.301 258.299L209.167 258.799C209.884 259.213 210.802 258.967 211.216 258.25C211.63 257.533 211.384 256.615 210.667 256.201L209.801 255.701C209.083 255.287 208.166 255.533 207.752 256.25ZM199.64 253.299C198.923 252.885 198.677 251.967 199.091 251.25C199.506 250.533 200.423 250.287 201.14 250.701L202.006 251.201C202.724 251.615 202.97 252.533 202.555 253.25C202.141 253.967 201.224 254.213 200.506 253.799L199.64 253.299ZM190.431 246.25C190.017 246.967 190.263 247.885 190.98 248.299L191.846 248.799C192.564 249.213 193.481 248.967 193.895 248.25C194.309 247.533 194.064 246.615 193.346 246.201L192.48 245.701C191.763 245.287 190.845 245.533 190.431 246.25ZM182.32 243.299C181.602 242.885 181.357 241.967 181.771 241.25C182.185 240.533 183.102 240.287 183.82 240.701L184.686 241.201C185.403 241.615 185.649 242.533 185.235 243.25C184.821 243.967 183.903 244.213 183.186 243.799L182.32 243.299ZM173.111 236.25C172.696 236.967 172.942 237.885 173.66 238.299L174.526 238.799C175.243 239.213 176.161 238.967 176.575 238.25C176.989 237.533 176.743 236.615 176.026 236.201L175.16 235.701C174.442 235.287 173.525 235.533 173.111 236.25ZM164.999 233.299C164.282 232.885 164.036 231.967 164.45 231.25C164.865 230.533 165.782 230.287 166.499 230.701L167.365 231.201C168.083 231.615 168.329 232.533 167.914 233.25C167.5 233.967 166.583 234.213 165.865 233.799L164.999 233.299ZM155.79 226.25C155.376 226.967 155.622 227.885 156.339 228.299L157.205 228.799C157.923 229.213 158.84 228.967 159.254 228.25C159.668 227.533 159.423 226.615 158.705 226.201L157.839 225.701C157.122 225.287 156.204 225.533 155.79 226.25ZM147.679 223.299C146.961 222.885 146.716 221.967 147.13 221.25C147.544 220.533 148.461 220.287 149.179 220.701L150.045 221.201C150.762 221.615 151.008 222.533 150.594 223.25C150.18 223.967 149.262 224.213 148.545 223.799L147.679 223.299ZM138.47 216.25C138.055 216.967 138.301 217.885 139.019 218.299L139.885 218.799C140.602 219.213 141.519 218.967 141.934 218.25C142.348 217.533 142.102 216.615 141.385 216.201L140.519 215.701C139.801 215.287 138.884 215.533 138.47 216.25ZM130.358 213.299C129.641 212.885 129.395 211.967 129.809 211.25C130.224 210.533 131.141 210.287 131.858 210.701L132.724 211.201C133.442 211.615 133.688 212.533 133.273 213.25C132.859 213.967 131.942 214.213 131.224 213.799L130.358 213.299ZM121.149 206.25C120.735 206.967 120.981 207.885 121.698 208.299L122.564 208.799C123.282 209.213 124.199 208.967 124.613 208.25C125.027 207.533 124.782 206.615 124.064 206.201L123.198 205.701C122.481 205.287 121.563 205.533 121.149 206.25ZM113.038 203.299C112.32 202.885 112.075 201.967 112.489 201.25C112.903 200.533 113.82 200.287 114.538 200.701L115.404 201.201C116.121 201.615 116.367 202.533 115.953 203.25C115.539 203.967 114.621 204.213 113.904 203.799L113.038 203.299ZM103.829 196.25C103.414 196.967 103.66 197.885 104.378 198.299L105.244 198.799C105.961 199.213 106.878 198.967 107.293 198.25C107.707 197.533 107.461 196.615 106.744 196.201L105.878 195.701C105.16 195.287 104.243 195.533 103.829 196.25ZM95.7174 193.299C94.9999 192.885 94.7541 191.967 95.1683 191.25C95.5826 190.533 96.4999 190.287 97.2174 190.701L98.0834 191.201C98.8008 191.615 99.0467 192.533 98.6324 193.25C98.2182 193.967 97.3008 194.213 96.5834 193.799L95.7174 193.299Z" fill="url(#paint0_linear_0_20396)"/>
<rect x="265.5" y="0.5" width="114" height="114" rx="57" fill="white" stroke="#E6E8EB"/>
<rect x="0.5" y="265.5" width="114" height="114" rx="57" fill="white" stroke="#E6E8EB"/>
<rect x="36.0039" y="133" width="114" height="114" rx="57" fill="white" stroke="#E6E8EB"/>
<rect x="133" y="36.0029" width="114" height="114" rx="57" fill="white" stroke="#E6E8EB"/>
<rect x="495" y="133.5" width="114" height="114" rx="57" fill="white" stroke="#E6E8EB"/>
<rect x="398" y="36.5" width="114" height="114" rx="57" fill="white" stroke="#E6E8EB"/>
<rect x="530.5" y="265.5" width="114" height="114" rx="57" fill="white" stroke="#E6E8EB"/>
<rect x="240" y="240" width="165" height="165" rx="82.5" fill="url(#paint1_linear_0_20396)"/>
<mask id="mask0_0_20396" style="mask-type:luminance" maskUnits="userSpaceOnUse" x="301" y="295" width="41" height="55">
<path fill-rule="evenodd" clip-rule="evenodd" d="M309.368 309.102V316.848C308.598 317.61 307.891 318.44 307.253 319.334V319.334C307.188 319.428 307.189 319.555 307.258 319.646V319.646L307.759 320.325L310.605 324.171C310.718 324.322 310.946 324.303 311.038 324.134V324.134C313.584 319.401 318.764 316.626 324.262 317.366V317.366C330.475 318.202 335.276 323.54 335.552 329.875V329.875C335.88 337.438 329.897 343.695 322.497 343.695V343.695C317.306 343.695 312.761 340.599 310.675 336.054V336.054L313.799 335.395C313.983 335.355 314.065 335.137 313.954 334.983V334.983L305.382 323.261C305.253 323.084 304.979 323.139 304.924 323.352V323.352L301.31 337.647C301.305 337.668 301.302 337.688 301.301 337.708V337.708V337.713C301.302 337.872 301.449 338.002 301.613 337.967V337.967L304.965 337.258C307.979 345.252 316.096 350.561 325.103 349.32V349.32C333.699 348.136 340.44 340.972 341.222 332.229V332.229C341.732 326.548 339.734 321.34 336.249 317.548V317.548V309.392C336.249 301.991 330.528 295.727 323.217 295.505V295.505C323.082 295.501 322.945 295.5 322.81 295.5V295.5C315.399 295.5 309.368 301.601 309.368 309.102V309.102ZM315.106 309.102C315.106 304.804 318.561 301.304 322.807 301.304V301.304C327.057 301.304 330.514 304.804 330.514 309.102V309.102V313.283C328.077 312.113 325.367 311.441 322.497 311.441V311.441C319.9 311.441 317.395 311.985 315.106 312.976V312.976V309.102Z" fill="white"/>
</mask>
<g mask="url(#mask0_0_20396)">
<path fill-rule="evenodd" clip-rule="evenodd" d="M293.691 357.277H348.906V287.725H293.691V357.277Z" fill="white"/>
</g>
<mask id="mask1_0_20396" style="mask-type:luminance" maskUnits="userSpaceOnUse" x="316" y="324" width="13" height="13">
<path fill-rule="evenodd" clip-rule="evenodd" d="M316.844 330.47C316.844 333.631 319.374 336.192 322.497 336.192V336.192C325.618 336.192 328.15 333.631 328.15 330.47V330.47C328.15 327.313 325.618 324.75 322.497 324.75V324.75C319.374 324.75 316.844 327.313 316.844 330.47V330.47Z" fill="white"/>
</mask>
<g mask="url(#mask1_0_20396)">
<path fill-rule="evenodd" clip-rule="evenodd" d="M309.234 343.969H335.755V316.975H309.234V343.969Z" fill="white"/>
</g>
<defs>
<linearGradient id="paint0_linear_0_20396" x1="217.259" y1="646.729" x2="515.453" y2="26.5598" gradientUnits="userSpaceOnUse">
<stop stop-color="#151D9C"/>
<stop offset="0.486381" stop-color="#00A4FF"/>
<stop offset="1" stop-color="#00D97B"/>
<stop offset="1" stop-color="#3FBAFF"/>
</linearGradient>
<linearGradient id="paint1_linear_0_20396" x1="290.298" y1="606.705" x2="528.742" y2="359.222" gradientUnits="userSpaceOnUse">
<stop stop-color="#151D9C"/>
<stop offset="0.486381" stop-color="#00A4FF"/>
<stop offset="1" stop-color="#00D97B"/>
<stop offset="1" stop-color="#3FBAFF"/>
</linearGradient>
</defs>
</svg>
